<?xml version="1.0" encoding="UTF-8" standalone="no"?>
<svg width="200" height="200" version="1.1" xmlns="http://www.w3.org/2000/svg">
    <g opacity="1.0">
        <rect x="0" y="0" width="12.5" height="12.5"  fill="#19A22C" stroke="#19A22C" stroke_width="0.5"  />
        <rect x="12.5" y="0.0" width="12.5" height="12.5"  fill="#474BDA" stroke="#474BDA" stroke_width="0.5"  />
        <rect x="12.5" y="12.5" width="12.5" height="12.5"  fill="#6A02F8" stroke="#6A02F8" stroke_width="0.5"  />
        <rect x="0.0" y="12.5" width="12.5" height="12.5"  fill="#21FE32" stroke="#21FE32" stroke_width="0.5"  />
        <rect x="25.0" y="0.0" width="12.5" height="12.5"  fill="#D5517E" stroke="#D5517E" stroke_width="0.5"  />
        <rect x="37.5" y="0.0" width="12.5" height="12.5"  fill="#3F4ADC" stroke="#3F4ADC" stroke_width="0.5"  />
        <rect x="37.5" y="12.5" width="12.5" height="12.5"  fill="#878969" stroke="#878969" stroke_width="0.5"  />
        <rect x="25.0" y="12.5" width="12.5" height="12.5"  fill="#CF3592" stroke="#CF3592" stroke_width="0.5"  />
        <rect x="25.0" y="25.0" width="12.5" height="12.5"  fill="#15694F" stroke="#15694F" stroke_width="0.5"  />
        <rect x="37.5" y="25.0" width="12.5" height="12.5"  fill="#7B7A58" stroke="#7B7A58" stroke_width="0.5"  />
        <rect x="37.5" y="37.5" width="12.5" height="12.5"  fill="#E50AE0" stroke="#E50AE0" stroke_width="0.5"  />
        <rect x="25.0" y="37.5" width="12.5" height="12.5"  fill="#9C91F1" stroke="#9C91F1" stroke_width="0.5"  />
        <rect x="0.0" y="25.0" width="12.5" height="12.5"  fill="#7CF883" stroke="#7CF883" stroke_width="0.5"  />
        <rect x="12.5" y="25.0" width="12.5" height="12.5"  fill="#29BFAA" stroke="#29BFAA" stroke_width="0.5"  />
        <rect x="12.5" y="37.5" width="12.5" height="12.5"  fill="#533389" stroke="#533389" stroke_width="0.5"  />
        <rect x="0.0" y="37.5" width="12.5" height="12.5"  fill="#A5C7EE" stroke="#A5C7EE" stroke_width="0.5"  />
        <rect x="50.0" y="0.0" width="12.5" height="12.5"  fill="#8F82CF" stroke="#8F82CF" stroke_width="0.5"  />
        <rect x="62.5" y="0.0" width="12.5" height="12.5"  fill="#9FF403" stroke="#9FF403" stroke_width="0.5"  />
        <rect x="62.5" y="12.5" width="12.5" height="12.5"  fill="#3F15C7" stroke="#3F15C7" stroke_width="0.5"  />
        <rect x="50.0" y="12.5" width="12.5" height="12.5"  fill="#CC0682" stroke="#CC0682" stroke_width="0.5"  />
        <rect x="75.0" y="0.0" width="12.5" height="12.5"  fill="#025E78" stroke="#025E78" stroke_width="0.5"  />
        <rect x="87.5" y="0.0" width="12.5" height="12.5"  fill="#CDC5EB" stroke="#CDC5EB" stroke_width="0.5"  />
        <rect x="87.5" y="12.5" width="12.5" height="12.5"  fill="#077844" stroke="#077844" stroke_width="0.5"  />
        <rect x="75.0" y="12.5" width="12.5" height="12.5"  fill="#8733B9" stroke="#8733B9" stroke_width="0.5"  />
        <rect x="75.0" y="25.0" width="12.5" height="12.5"  fill="#3B09DC" stroke="#3B09DC" stroke_width="0.5"  />
        <rect x="87.5" y="25.0" width="12.5" height="12.5"  fill="#099534" stroke="#099534" stroke_width="0.5"  />
        <rect x="87.5" y="37.5" width="12.5" height="12.5"  fill="#CBD06E" stroke="#CBD06E" stroke_width="0.5"  />
        <rect x="75.0" y="37.5" width="12.5" height="12.5"  fill="#F5AB5F" stroke="#F5AB5F" stroke_width="0.5"  />
        <rect x="50.0" y="25.0" width="12.5" height="12.5"  fill="#B8D16C" stroke="#B8D16C" stroke_width="0.5"  />
        <rect x="62.5" y="25.0" width="12.5" height="12.5"  fill="#1EFC4A" stroke="#1EFC4A" stroke_width="0.5"  />
        <rect x="62.5" y="37.5" width="12.5" height="12.5"  fill="#04772D" stroke="#04772D" stroke_width="0.5"  />
        <rect x="50.0" y="37.5" width="12.5" height="12.5"  fill="#7314EA" stroke="#7314EA" stroke_width="0.5"  />
        <rect x="50.0" y="50.0" width="12.5" height="12.5"  fill="#BB801A" stroke="#BB801A" stroke_width="0.5"  />
        <rect x="62.5" y="50.0" width="12.5" height="12.5"  fill="#C1016F" stroke="#C1016F" stroke_width="0.5"  />
        <rect x="62.5" y="62.5" width="12.5" height="12.5"  fill="#281E12" stroke="#281E12" stroke_width="0.5"  />
        <rect x="50.0" y="62.5" width="12.5" height="12.5"  fill="#29CD13" stroke="#29CD13" stroke_width="0.5"  />
        <rect x="75.0" y="50.0" width="12.5" height="12.5"  fill="#66A0D6" stroke="#66A0D6" stroke_width="0.5"  />
        <rect x="87.5" y="50.0" width="12.5" height="12.5"  fill="#BB02F1" stroke="#BB02F1" stroke_width="0.5"  />
        <rect x="87.5" y="62.5" width="12.5" height="12.5"  fill="#D63698" stroke="#D63698" stroke_width="0.5"  />
        <rect x="75.0" y="62.5" width="12.5" height="12.5"  fill="#C53408" stroke="#C53408" stroke_width="0.5"  />
        <rect x="75.0" y="75.0" width="12.5" height="12.5"  fill="#A5C054" stroke="#A5C054" stroke_width="0.5"  />
        <rect x="87.5" y="75.0" width="12.5" height="12.5"  fill="#F492C5" stroke="#F492C5" stroke_width="0.5"  />
        <rect x="87.5" y="87.5" width="12.5" height="12.5"  fill="#3385B7" stroke="#3385B7" stroke_width="0.5"  />
        <rect x="75.0" y="87.5" width="12.5" height="12.5"  fill="#CD9C2D" stroke="#CD9C2D" stroke_width="0.5"  />
        <rect x="50.0" y="75.0" width="12.5" height="12.5"  fill="#FC2434" stroke="#FC2434" stroke_width="0.5"  />
        <rect x="62.5" y="75.0" width="12.5" height="12.5"  fill="#A15407" stroke="#A15407" stroke_width="0.5"  />
        <rect x="62.5" y="87.5" width="12.5" height="12.5"  fill="#C8D71B" stroke="#C8D71B" stroke_width="0.5"  />
        <rect x="50.0" y="87.5" width="12.5" height="12.5"  fill="#4CC235" stroke="#4CC235" stroke_width="0.5"  />
        <rect x="0.0" y="50.0" width="12.5" height="12.5"  fill="#4B2133" stroke="#4B2133" stroke_width="0.5"  />
        <rect x="12.5" y="50.0" width="12.5" height="12.5"  fill="#F1747A" stroke="#F1747A" stroke_width="0.5"  />
        <rect x="12.5" y="62.5" width="12.5" height="12.5"  fill="#99468D" stroke="#99468D" stroke_width="0.5"  />
        <rect x="0.0" y="62.5" width="12.5" height="12.5"  fill="#816DCC" stroke="#816DCC" stroke_width="0.5"  />
        <rect x="25.0" y="50.0" width="12.5" height="12.5"  fill="#484EC6" stroke="#484EC6" stroke_width="0.5"  />
        <rect x="37.5" y="50.0" width="12.5" height="12.5"  fill="#FB4739" stroke="#FB4739" stroke_width="0.5"  />
        <rect x="37.5" y="62.5" width="12.5" height="12.5"  fill="#198E8F" stroke="#198E8F" stroke_width="0.5"  />
        <rect x="25.0" y="62.5" width="12.5" height="12.5"  fill="#88A219" stroke="#88A219" stroke_width="0.5"  />
        <rect x="25.0" y="75.0" width="12.5" height="12.5"  fill="#AAB4F4" stroke="#AAB4F4" stroke_width="0.5"  />
        <rect x="37.5" y="75.0" width="12.5" height="12.5"  fill="#3D92A9" stroke="#3D92A9" stroke_width="0.5"  />
        <rect x="37.5" y="87.5" width="12.5" height="12.5"  fill="#F6FF3C" stroke="#F6FF3C" stroke_width="0.5"  />
        <rect x="25.0" y="87.5" width="12.5" height="12.5"  fill="#EDBC2C" stroke="#EDBC2C" stroke_width="0.5"  />
        <rect x="0.0" y="75.0" width="12.5" height="12.5"  fill="#2EE277" stroke="#2EE277" stroke_width="0.5"  />
        <rect x="12.5" y="75.0" width="12.5" height="12.5"  fill="#1EC921" stroke="#1EC921" stroke_width="0.5"  />
        <rect x="12.5" y="87.5" width="12.5" height="12.5"  fill="#075E41" stroke="#075E41" stroke_width="0.5"  />
        <rect x="0.0" y="87.5" width="12.5" height="12.5"  fill="#72C59D" stroke="#72C59D" stroke_width="0.5"  />
        <rect x="100.0" y="0.0" width="12.5" height="12.5"  fill="#CA5A56" stroke="#CA5A56" stroke_width="0.5"  />
        <rect x="112.5" y="0.0" width="12.5" height="12.5"  fill="#4BF827" stroke="#4BF827" stroke_width="0.5"  />
        <rect x="112.5" y="12.5" width="12.5" height="12.5"  fill="#C30E87" stroke="#C30E87" stroke_width="0.5"  />
        <rect x="100.0" y="12.5" width="12.5" height="12.5"  fill="#2E6C10" stroke="#2E6C10" stroke_width="0.5"  />
        <rect x="125.0" y="0.0" width="12.5" height="12.5"  fill="#88FD02" stroke="#88FD02" stroke_width="0.5"  />
        <rect x="137.5" y="0.0" width="12.5" height="12.5"  fill="#A9C3C7" stroke="#A9C3C7" stroke_width="0.5"  />
        <rect x="137.5" y="12.5" width="12.5" height="12.5"  fill="#D113D9" stroke="#D113D9" stroke_width="0.5"  />
        <rect x="125.0" y="12.5" width="12.5" height="12.5"  fill="#5E4907" stroke="#5E4907" stroke_width="0.5"  />
        <rect x="125.0" y="25.0" width="12.5" height="12.5"  fill="#CAF718" stroke="#CAF718" stroke_width="0.5"  />
        <rect x="137.5" y="25.0" width="12.5" height="12.5"  fill="#6522C2" stroke="#6522C2" stroke_width="0.5"  />
        <rect x="137.5" y="37.5" width="12.5" height="12.5"  fill="#98008C" stroke="#98008C" stroke_width="0.5"  />
        <rect x="125.0" y="37.5" width="12.5" height="12.5"  fill="#D2D769" stroke="#D2D769" stroke_width="0.5"  />
        <rect x="100.0" y="25.0" width="12.5" height="12.5"  fill="#00F968" stroke="#00F968" stroke_width="0.5"  />
        <rect x="112.5" y="25.0" width="12.5" height="12.5"  fill="#181208" stroke="#181208" stroke_width="0.5"  />
        <rect x="112.5" y="37.5" width="12.5" height="12.5"  fill="#5146BB" stroke="#5146BB" stroke_width="0.5"  />
        <rect x="100.0" y="37.5" width="12.5" height="12.5"  fill="#F93526" stroke="#F93526" stroke_width="0.5"  />
        <rect x="150.0" y="0.0" width="12.5" height="12.5"  fill="#5A6758" stroke="#5A6758" stroke_width="0.5"  />
        <rect x="162.5" y="0.0" width="12.5" height="12.5"  fill="#EBED3C" stroke="#EBED3C" stroke_width="0.5"  />
        <rect x="162.5" y="12.5" width="12.5" height="12.5"  fill="#8677F8" stroke="#8677F8" stroke_width="0.5"  />
        <rect x="150.0" y="12.5" width="12.5" height="12.5"  fill="#D7B743" stroke="#D7B743" stroke_width="0.5"  />
        <rect x="175.0" y="0.0" width="12.5" height="12.5"  fill="#FD8FE6" stroke="#FD8FE6" stroke_width="0.5"  />
        <rect x="187.5" y="0.0" width="12.5" height="12.5"  fill="#E9EA0E" stroke="#E9EA0E" stroke_width="0.5"  />
        <rect x="187.5" y="12.5" width="12.5" height="12.5"  fill="#AC2430" stroke="#AC2430" stroke_width="0.5"  />
        <rect x="175.0" y="12.5" width="12.5" height="12.5"  fill="#25AEA5" stroke="#25AEA5" stroke_width="0.5"  />
        <rect x="175.0" y="25.0" width="12.5" height="12.5"  fill="#7C32A8" stroke="#7C32A8" stroke_width="0.5"  />
        <rect x="187.5" y="25.0" width="12.5" height="12.5"  fill="#FA455D" stroke="#FA455D" stroke_width="0.5"  />
        <rect x="187.5" y="37.5" width="12.5" height="12.5"  fill="#063177" stroke="#063177" stroke_width="0.5"  />
        <rect x="175.0" y="37.5" width="12.5" height="12.5"  fill="#D0FD89" stroke="#D0FD89" stroke_width="0.5"  />
        <rect x="150.0" y="25.0" width="12.5" height="12.5"  fill="#5FCE72" stroke="#5FCE72" stroke_width="0.5"  />
        <rect x="162.5" y="25.0" width="12.5" height="12.5"  fill="#1B5DF7" stroke="#1B5DF7" stroke_width="0.5"  />
        <rect x="162.5" y="37.5" width="12.5" height="12.5"  fill="#A77793" stroke="#A77793" stroke_width="0.5"  />
        <rect x="150.0" y="37.5" width="12.5" height="12.5"  fill="#EE8829" stroke="#EE8829" stroke_width="0.5"  />
        <rect x="150.0" y="50.0" width="12.5" height="12.5"  fill="#E02F2C" stroke="#E02F2C" stroke_width="0.5"  />
        <rect x="162.5" y="50.0" width="12.5" height="12.5"  fill="#44D813" stroke="#44D813" stroke_width="0.5"  />
        <rect x="162.5" y="62.5" width="12.5" height="12.5"  fill="#7A33A6" stroke="#7A33A6" stroke_width="0.5"  />
        <rect x="150.0" y="62.5" width="12.5" height="12.5"  fill="#CDA76E" stroke="#CDA76E" stroke_width="0.5"  />
        <rect x="175.0" y="50.0" width="12.5" height="12.5"  fill="#E20D30" stroke="#E20D30" stroke_width="0.5"  />
        <rect x="187.5" y="50.0" width="12.5" height="12.5"  fill="#45BE41" stroke="#45BE41" stroke_width="0.5"  />
        <rect x="187.5" y="62.5" width="12.5" height="12.5"  fill="#977B85" stroke="#977B85" stroke_width="0.5"  />
        <rect x="175.0" y="62.5" width="12.5" height="12.5"  fill="#912A95" stroke="#912A95" stroke_width="0.5"  />
        <rect x="175.0" y="75.0" width="12.5" height="12.5"  fill="#194BEE" stroke="#194BEE" stroke_width="0.5"  />
        <rect x="187.5" y="75.0" width="12.5" height="12.5"  fill="#0DA723" stroke="#0DA723" stroke_width="0.5"  />
        <rect x="187.5" y="87.5" width="12.5" height="12.5"  fill="#8AF4F2" stroke="#8AF4F2" stroke_width="0.5"  />
        <rect x="175.0" y="87.5" width="12.5" height="12.5"  fill="#28FDD1" stroke="#28FDD1" stroke_width="0.5"  />
        <rect x="150.0" y="75.0" width="12.5" height="12.5"  fill="#20E58C" stroke="#20E58C" stroke_width="0.5"  />
        <rect x="162.5" y="75.0" width="12.5" height="12.5"  fill="#DD7D90" stroke="#DD7D90" stroke_width="0.5"  />
        <rect x="162.5" y="87.5" width="12.5" height="12.5"  fill="#D04DF4" stroke="#D04DF4" stroke_width="0.5"  />
        <rect x="150.0" y="87.5" width="12.5" height="12.5"  fill="#6A2AF6" stroke="#6A2AF6" stroke_width="0.5"  />
        <rect x="100.0" y="50.0" width="12.5" height="12.5"  fill="#284DC9" stroke="#284DC9" stroke_width="0.5"  />
        <rect x="112.5" y="50.0" width="12.5" height="12.5"  fill="#19D92B" stroke="#19D92B" stroke_width="0.5"  />
        <rect x="112.5" y="62.5" width="12.5" height="12.5"  fill="#683E97" stroke="#683E97" stroke_width="0.5"  />
        <rect x="100.0" y="62.5" width="12.5" height="12.5"  fill="#79BC65" stroke="#79BC65" stroke_width="0.5"  />
        <rect x="125.0" y="50.0" width="12.5" height="12.5"  fill="#8BBEA8" stroke="#8BBEA8" stroke_width="0.5"  />
        <rect x="137.5" y="50.0" width="12.5" height="12.5"  fill="#FB442D" stroke="#FB442D" stroke_width="0.5"  />
        <rect x="137.5" y="62.5" width="12.5" height="12.5"  fill="#45F907" stroke="#45F907" stroke_width="0.5"  />
        <rect x="125.0" y="62.5" width="12.5" height="12.5"  fill="#F8AD20" stroke="#F8AD20" stroke_width="0.5"  />
        <rect x="125.0" y="75.0" width="12.5" height="12.5"  fill="#B43193" stroke="#B43193" stroke_width="0.5"  />
        <rect x="137.5" y="75.0" width="12.5" height="12.5"  fill="#65931E" stroke="#65931E" stroke_width="0.5"  />
        <rect x="137.5" y="87.5" width="12.5" height="12.5"  fill="#37D354" stroke="#37D354" stroke_width="0.5"  />
        <rect x="125.0" y="87.5" width="12.5" height="12.5"  fill="#691202" stroke="#691202" stroke_width="0.5"  />
        <rect x="100.0" y="75.0" width="12.5" height="12.5"  fill="#EA5048" stroke="#EA5048" stroke_width="0.5"  />
        <rect x="112.5" y="75.0" width="12.5" height="12.5"  fill="#D63CE1" stroke="#D63CE1" stroke_width="0.5"  />
        <rect x="112.5" y="87.5" width="12.5" height="12.5"  fill="#231281" stroke="#231281" stroke_width="0.5"  />
        <rect x="100.0" y="87.5" width="12.5" height="12.5"  fill="#5BB754" stroke="#5BB754" stroke_width="0.5"  />
        <rect x="100.0" y="100.0" width="12.5" height="12.5"  fill="#968F3B" stroke="#968F3B" stroke_width="0.5"  />
        <rect x="112.5" y="100.0" width="12.5" height="12.5"  fill="#A4B3E6" stroke="#A4B3E6" stroke_width="0.5"  />
        <rect x="112.5" y="112.5" width="12.5" height="12.5"  fill="#9CA4BF" stroke="#9CA4BF" stroke_width="0.5"  />
        <rect x="100.0" y="112.5" width="12.5" height="12.5"  fill="#F9558E" stroke="#F9558E" stroke_width="0.5"  />
        <rect x="125.0" y="100.0" width="12.5" height="12.5"  fill="#5C4693" stroke="#5C4693" stroke_width="0.5"  />
        <rect x="137.5" y="100.0" width="12.5" height="12.5"  fill="#F5E4A0" stroke="#F5E4A0" stroke_width="0.5"  />
        <rect x="137.5" y="112.5" width="12.5" height="12.5"  fill="#D4D56E" stroke="#D4D56E" stroke_width="0.5"  />
        <rect x="125.0" y="112.5" width="12.5" height="12.5"  fill="#F5325E" stroke="#F5325E" stroke_width="0.5"  />
        <rect x="125.0" y="125.0" width="12.5" height="12.5"  fill="#9E3587" stroke="#9E3587" stroke_width="0.5"  />
        <rect x="137.5" y="125.0" width="12.5" height="12.5"  fill="#C0D3E4" stroke="#C0D3E4" stroke_width="0.5"  />
        <rect x="137.5" y="137.5" width="12.5" height="12.5"  fill="#97511E" stroke="#97511E" stroke_width="0.5"  />
        <rect x="125.0" y="137.5" width="12.5" height="12.5"  fill="#C8F65D" stroke="#C8F65D" stroke_width="0.5"  />
        <rect x="100.0" y="125.0" width="12.5" height="12.5"  fill="#8EEB1F" stroke="#8EEB1F" stroke_width="0.5"  />
        <rect x="112.5" y="125.0" width="12.5" height="12.5"  fill="#31E17D" stroke="#31E17D" stroke_width="0.5"  />
        <rect x="112.5" y="137.5" width="12.5" height="12.5"  fill="#3AACA7" stroke="#3AACA7" stroke_width="0.5"  />
        <rect x="100.0" y="137.5" width="12.5" height="12.5"  fill="#2CD854" stroke="#2CD854" stroke_width="0.5"  />
        <rect x="150.0" y="100.0" width="12.5" height="12.5"  fill="#25A4C2" stroke="#25A4C2" stroke_width="0.5"  />
        <rect x="162.5" y="100.0" width="12.5" height="12.5"  fill="#3B9664" stroke="#3B9664" stroke_width="0.5"  />
        <rect x="162.5" y="112.5" width="12.5" height="12.5"  fill="#33FD2B" stroke="#33FD2B" stroke_width="0.5"  />
        <rect x="150.0" y="112.5" width="12.5" height="12.5"  fill="#465656" stroke="#465656" stroke_width="0.5"  />
        <rect x="175.0" y="100.0" width="12.5" height="12.5"  fill="#55F448" stroke="#55F448" stroke_width="0.5"  />
        <rect x="187.5" y="100.0" width="12.5" height="12.5"  fill="#2CEAB8" stroke="#2CEAB8" stroke_width="0.5"  />
        <rect x="187.5" y="112.5" width="12.5" height="12.5"  fill="#4288DB" stroke="#4288DB" stroke_width="0.5"  />
        <rect x="175.0" y="112.5" width="12.5" height="12.5"  fill="#114190" stroke="#114190" stroke_width="0.5"  />
        <rect x="175.0" y="125.0" width="12.5" height="12.5"  fill="#5EEB4C" stroke="#5EEB4C" stroke_width="0.5"  />
        <rect x="187.5" y="125.0" width="12.5" height="12.5"  fill="#FF377B" stroke="#FF377B" stroke_width="0.5"  />
        <rect x="187.5" y="137.5" width="12.5" height="12.5"  fill="#D98387" stroke="#D98387" stroke_width="0.5"  />
        <rect x="175.0" y="137.5" width="12.5" height="12.5"  fill="#975BAD" stroke="#975BAD" stroke_width="0.5"  />
        <rect x="150.0" y="125.0" width="12.5" height="12.5"  fill="#70FC8B" stroke="#70FC8B" stroke_width="0.5"  />
        <rect x="162.5" y="125.0" width="12.5" height="12.5"  fill="#BC56B5" stroke="#BC56B5" stroke_width="0.5"  />
        <rect x="162.5" y="137.5" width="12.5" height="12.5"  fill="#EFC605" stroke="#EFC605" stroke_width="0.5"  />
        <rect x="150.0" y="137.5" width="12.5" height="12.5"  fill="#EDE5F9" stroke="#EDE5F9" stroke_width="0.5"  />
        <rect x="150.0" y="150.0" width="12.5" height="12.5"  fill="#FAD216" stroke="#FAD216" stroke_width="0.5"  />
        <rect x="162.5" y="150.0" width="12.5" height="12.5"  fill="#F572E3" stroke="#F572E3" stroke_width="0.5"  />
        <rect x="162.5" y="162.5" width="12.5" height="12.5"  fill="#617BCF" stroke="#617BCF" stroke_width="0.5"  />
        <rect x="150.0" y="162.5" width="12.5" height="12.5"  fill="#6825F7" stroke="#6825F7" stroke_width="0.5"  />
        <rect x="175.0" y="150.0" width="12.5" height="12.5"  fill="#E5636A" stroke="#E5636A" stroke_width="0.5"  />
        <rect x="187.5" y="150.0" width="12.5" height="12.5"  fill="#C10F99" stroke="#C10F99" stroke_width="0.5"  />
        <rect x="187.5" y="162.5" width="12.5" height="12.5"  fill="#DD6035" stroke="#DD6035" stroke_width="0.5"  />
        <rect x="175.0" y="162.5" width="12.5" height="12.5"  fill="#6A2A9A" stroke="#6A2A9A" stroke_width="0.5"  />
        <rect x="175.0" y="175.0" width="12.5" height="12.5"  fill="#0A8166" stroke="#0A8166" stroke_width="0.5"  />
        <rect x="187.5" y="175.0" width="12.5" height="12.5"  fill="#81D096" stroke="#81D096" stroke_width="0.5"  />
        <rect x="187.5" y="187.5" width="12.5" height="12.5"  fill="#91EE42" stroke="#91EE42" stroke_width="0.5"  />
        <rect x="175.0" y="187.5" width="12.5" height="12.5"  fill="#717785" stroke="#717785" stroke_width="0.5"  />
        <rect x="150.0" y="175.0" width="12.5" height="12.5"  fill="#69E173" stroke="#69E173" stroke_width="0.5"  />
        <rect x="162.5" y="175.0" width="12.5" height="12.5"  fill="#1F8A48" stroke="#1F8A48" stroke_width="0.5"  />
        <rect x="162.5" y="187.5" width="12.5" height="12.5"  fill="#C030DB" stroke="#C030DB" stroke_width="0.5"  />
        <rect x="150.0" y="187.5" width="12.5" height="12.5"  fill="#070844" stroke="#070844" stroke_width="0.5"  />
        <rect x="100.0" y="150.0" width="12.5" height="12.5"  fill="#6999EA" stroke="#6999EA" stroke_width="0.5"  />
        <rect x="112.5" y="150.0" width="12.5" height="12.5"  fill="#8DD222" stroke="#8DD222" stroke_width="0.5"  />
        <rect x="112.5" y="162.5" width="12.5" height="12.5"  fill="#2E6612" stroke="#2E6612" stroke_width="0.5"  />
        <rect x="100.0" y="162.5" width="12.5" height="12.5"  fill="#74FD9F" stroke="#74FD9F" stroke_width="0.5"  />
        <rect x="125.0" y="150.0" width="12.5" height="12.5"  fill="#2AB8FA" stroke="#2AB8FA" stroke_width="0.5"  />
        <rect x="137.5" y="150.0" width="12.5" height="12.5"  fill="#DA0A15" stroke="#DA0A15" stroke_width="0.5"  />
        <rect x="137.5" y="162.5" width="12.5" height="12.5"  fill="#B13E61" stroke="#B13E61" stroke_width="0.5"  />
        <rect x="125.0" y="162.5" width="12.5" height="12.5"  fill="#F82EBE" stroke="#F82EBE" stroke_width="0.5"  />
        <rect x="125.0" y="175.0" width="12.5" height="12.5"  fill="#F30744" stroke="#F30744" stroke_width="0.5"  />
        <rect x="137.5" y="175.0" width="12.5" height="12.5"  fill="#D6CDF9" stroke="#D6CDF9" stroke_width="0.5"  />
        <rect x="137.5" y="187.5" width="12.5" height="12.5"  fill="#446B5E" stroke="#446B5E" stroke_width="0.5"  />
        <rect x="125.0" y="187.5" width="12.5" height="12.5"  fill="#7DA653" stroke="#7DA653" stroke_width="0.5"  />
        <rect x="100.0" y="175.0" width="12.5" height="12.5"  fill="#682E5F" stroke="#682E5F" stroke_width="0.5"  />
        <rect x="112.5" y="175.0" width="12.5" height="12.5"  fill="#F3DE4D" stroke="#F3DE4D" stroke_width="0.5"  />
        <rect x="112.5" y="187.5" width="12.5" height="12.5"  fill="#E98491" stroke="#E98491" stroke_width="0.5"  />
        <rect x="100.0" y="187.5" width="12.5" height="12.5"  fill="#A5AAC6" stroke="#A5AAC6" stroke_width="0.5"  />
        <rect x="0.0" y="100.0" width="12.5" height="12.5"  fill="#7F44D2" stroke="#7F44D2" stroke_width="0.5"  />
        <rect x="12.5" y="100.0" width="12.5" height="12.5"  fill="#33A960" stroke="#33A960" stroke_width="0.5"  />
        <rect x="12.5" y="112.5" width="12.5" height="12.5"  fill="#D1F753" stroke="#D1F753" stroke_width="0.5"  />
        <rect x="0.0" y="112.5" width="12.5" height="12.5"  fill="#2B9D19" stroke="#2B9D19" stroke_width="0.5"  />
        <rect x="25.0" y="100.0" width="12.5" height="12.5"  fill="#03A693" stroke="#03A693" stroke_width="0.5"  />
        <rect x="37.5" y="100.0" width="12.5" height="12.5"  fill="#17282D" stroke="#17282D" stroke_width="0.5"  />
        <rect x="37.5" y="112.5" width="12.5" height="12.5"  fill="#3FECDB" stroke="#3FECDB" stroke_width="0.5"  />
        <rect x="25.0" y="112.5" width="12.5" height="12.5"  fill="#176B61" stroke="#176B61" stroke_width="0.5"  />
        <rect x="25.0" y="125.0" width="12.5" height="12.5"  fill="#1107E4" stroke="#1107E4" stroke_width="0.5"  />
        <rect x="37.5" y="125.0" width="12.5" height="12.5"  fill="#B15F3B" stroke="#B15F3B" stroke_width="0.5"  />
        <rect x="37.5" y="137.5" width="12.5" height="12.5"  fill="#43A3DB" stroke="#43A3DB" stroke_width="0.5"  />
        <rect x="25.0" y="137.5" width="12.5" height="12.5"  fill="#A9DDF8" stroke="#A9DDF8" stroke_width="0.5"  />
        <rect x="0.0" y="125.0" width="12.5" height="12.5"  fill="#86D48C" stroke="#86D48C" stroke_width="0.5"  />
        <rect x="12.5" y="125.0" width="12.5" height="12.5"  fill="#7BE873" stroke="#7BE873" stroke_width="0.5"  />
        <rect x="12.5" y="137.5" width="12.5" height="12.5"  fill="#82B693" stroke="#82B693" stroke_width="0.5"  />
        <rect x="0.0" y="137.5" width="12.5" height="12.5"  fill="#D86E0D" stroke="#D86E0D" stroke_width="0.5"  />
        <rect x="50.0" y="100.0" width="12.5" height="12.5"  fill="#34259D" stroke="#34259D" stroke_width="0.5"  />
        <rect x="62.5" y="100.0" width="12.5" height="12.5"  fill="#ED4304" stroke="#ED4304" stroke_width="0.5"  />
        <rect x="62.5" y="112.5" width="12.5" height="12.5"  fill="#143AB5" stroke="#143AB5" stroke_width="0.5"  />
        <rect x="50.0" y="112.5" width="12.5" height="12.5"  fill="#FE241C" stroke="#FE241C" stroke_width="0.5"  />
        <rect x="75.0" y="100.0" width="12.5" height="12.5"  fill="#B2CA30" stroke="#B2CA30" stroke_width="0.5"  />
        <rect x="87.5" y="100.0" width="12.5" height="12.5"  fill="#AFDC1E" stroke="#AFDC1E" stroke_width="0.5"  />
        <rect x="87.5" y="112.5" width="12.5" height="12.5"  fill="#EB6D47" stroke="#EB6D47" stroke_width="0.5"  />
        <rect x="75.0" y="112.5" width="12.5" height="12.5"  fill="#82B878" stroke="#82B878" stroke_width="0.5"  />
        <rect x="75.0" y="125.0" width="12.5" height="12.5"  fill="#D2C64A" stroke="#D2C64A" stroke_width="0.5"  />
        <rect x="87.5" y="125.0" width="12.5" height="12.5"  fill="#1E898C" stroke="#1E898C" stroke_width="0.5"  />
        <rect x="87.5" y="137.5" width="12.5" height="12.5"  fill="#BCBEC7" stroke="#BCBEC7" stroke_width="0.5"  />
        <rect x="75.0" y="137.5" width="12.5" height="12.5"  fill="#CCD3BC" stroke="#CCD3BC" stroke_width="0.5"  />
        <rect x="50.0" y="125.0" width="12.5" height="12.5"  fill="#A2A7E2" stroke="#A2A7E2" stroke_width="0.5"  />
        <rect x="62.5" y="125.0" width="12.5" height="12.5"  fill="#D32498" stroke="#D32498" stroke_width="0.5"  />
        <rect x="62.5" y="137.5" width="12.5" height="12.5"  fill="#4FCE66" stroke="#4FCE66" stroke_width="0.5"  />
        <rect x="50.0" y="137.5" width="12.5" height="12.5"  fill="#FCE749" stroke="#FCE749" stroke_width="0.5"  />
        <rect x="50.0" y="150.0" width="12.5" height="12.5"  fill="#5EE1AC" stroke="#5EE1AC" stroke_width="0.5"  />
        <rect x="62.5" y="150.0" width="12.5" height="12.5"  fill="#9AE549" stroke="#9AE549" stroke_width="0.5"  />
        <rect x="62.5" y="162.5" width="12.5" height="12.5"  fill="#F08E7B" stroke="#F08E7B" stroke_width="0.5"  />
        <rect x="50.0" y="162.5" width="12.5" height="12.5"  fill="#DCC183" stroke="#DCC183" stroke_width="0.5"  />
        <rect x="75.0" y="150.0" width="12.5" height="12.5"  fill="#301E75" stroke="#301E75" stroke_width="0.5"  />
        <rect x="87.5" y="150.0" width="12.5" height="12.5"  fill="#04D88B" stroke="#04D88B" stroke_width="0.5"  />
        <rect x="87.5" y="162.5" width="12.5" height="12.5"  fill="#EFDDAF" stroke="#EFDDAF" stroke_width="0.5"  />
        <rect x="75.0" y="162.5" width="12.5" height="12.5"  fill="#FFEA78" stroke="#FFEA78" stroke_width="0.5"  />
        <rect x="75.0" y="175.0" width="12.5" height="12.5"  fill="#46BCD0" stroke="#46BCD0" stroke_width="0.5"  />
        <rect x="87.5" y="175.0" width="12.5" height="12.5"  fill="#CD8A71" stroke="#CD8A71" stroke_width="0.5"  />
        <rect x="87.5" y="187.5" width="12.5" height="12.5"  fill="#D4AA45" stroke="#D4AA45" stroke_width="0.5"  />
        <rect x="75.0" y="187.5" width="12.5" height="12.5"  fill="#478C1A" stroke="#478C1A" stroke_width="0.5"  />
        <rect x="50.0" y="175.0" width="12.5" height="12.5"  fill="#3E4858" stroke="#3E4858" stroke_width="0.5"  />
        <rect x="62.5" y="175.0" width="12.5" height="12.5"  fill="#BC894D" stroke="#BC894D" stroke_width="0.5"  />
        <rect x="62.5" y="187.5" width="12.5" height="12.5"  fill="#8D5A84" stroke="#8D5A84" stroke_width="0.5"  />
        <rect x="50.0" y="187.5" width="12.5" height="12.5"  fill="#88B8DC" stroke="#88B8DC" stroke_width="0.5"  />
        <rect x="0.0" y="150.0" width="12.5" height="12.5"  fill="#24BEEB" stroke="#24BEEB" stroke_width="0.5"  />
        <rect x="12.5" y="150.0" width="12.5" height="12.5"  fill="#4766F8" stroke="#4766F8" stroke_width="0.5"  />
        <rect x="12.5" y="162.5" width="12.5" height="12.5"  fill="#62182E" stroke="#62182E" stroke_width="0.5"  />
        <rect x="0.0" y="162.5" width="12.5" height="12.5"  fill="#2DCBA1" stroke="#2DCBA1" stroke_width="0.5"  />
        <rect x="25.0" y="150.0" width="12.5" height="12.5"  fill="#55B4DF" stroke="#55B4DF" stroke_width="0.5"  />
        <rect x="37.5" y="150.0" width="12.5" height="12.5"  fill="#54A81D" stroke="#54A81D" stroke_width="0.5"  />
        <rect x="37.5" y="162.5" width="12.5" height="12.5"  fill="#2A1FE6" stroke="#2A1FE6" stroke_width="0.5"  />
        <rect x="25.0" y="162.5" width="12.5" height="12.5"  fill="#F79026" stroke="#F79026" stroke_width="0.5"  />
        <rect x="25.0" y="175.0" width="12.5" height="12.5"  fill="#414CF8" stroke="#414CF8" stroke_width="0.5"  />
        <rect x="37.5" y="175.0" width="12.5" height="12.5"  fill="#FCB94B" stroke="#FCB94B" stroke_width="0.5"  />
        <rect x="37.5" y="187.5" width="12.5" height="12.5"  fill="#741034" stroke="#741034" stroke_width="0.5"  />
        <rect x="25.0" y="187.5" width="12.5" height="12.5"  fill="#2C6C9D" stroke="#2C6C9D" stroke_width="0.5"  />
        <rect x="0.0" y="175.0" width="12.5" height="12.5"  fill="#D7D826" stroke="#D7D826" stroke_width="0.5"  />
        <rect x="12.5" y="175.0" width="12.5" height="12.5"  fill="#0524D3" stroke="#0524D3" stroke_width="0.5"  />
        <rect x="12.5" y="187.5" width="12.5" height="12.5"  fill="#76547A" stroke="#76547A" stroke_width="0.5"  />
        <rect x="0.0" y="187.5" width="12.5" height="12.5"  fill="#1D1BD7" stroke="#1D1BD7" stroke_width="0.5"  />
    </g> 
</svg>