<?xml version="1.0" encoding="UTF-8" standalone="no"?>
<svg width="200" height="200" xmlns="http://www.w3.org/2000/svg">
    <g opacity="1.0">
        <line x1="0.0" y1="25.0" x2="25.0" y2="25.0" stroke="black" />
        <line x1="25.0" y1="25.0" x2="50.0" y2="25.0" stroke="black" />
        <line x1="50.0" y1="25.0" x2="50.0" y2="0.0" stroke="black" />
        <line x1="25.0" y1="0.0" x2="50.0" y2="0.0" stroke="black" />
        <line x1="25.0" y1="25.0" x2="25.0" y2="0.0" stroke="black" />
        <line x1="25.0" y1="50.0" x2="50.0" y2="50.0" stroke="black" />
        <line x1="0.0" y1="50.0" x2="25.0" y2="50.0" stroke="black" />
        <line x1="25.0" y1="50.0" x2="25.0" y2="25.0" stroke="black" />
        <line x1="0.0" y1="50.0" x2="0.0" y2="25.0" stroke="black" />
        <line x1="75.0" y1="50.0" x2="75.0" y2="25.0" stroke="black" />
        <line x1="50.0" y1="25.0" x2="75.0" y2="25.0" stroke="black" />
        <line x1="75.0" y1="25.0" x2="100.0" y2="25.0" stroke="black" />
        <line x1="100.0" y1="25.0" x2="100.0" y2="50.0" stroke="black" />
        <line x1="75.0" y1="25.0" x2="75.0" y2="50.0" stroke="black" />
        <line x1="75.0" y1="25.0" x2="100.0" y2="25.0" stroke="black" />
        <line x1="50.0" y1="0.0" x2="75.0" y2="0.0" stroke="black" />
        <line x1="75.0" y1="0.0" x2="75.0" y2="25.0" stroke="black" />
        <line x1="50.0" y1="25.0" x2="75.0" y2="25.0" stroke="black" />
        <line x1="50.0" y1="50.0" x2="75.0" y2="50.0" stroke="black" />
        <line x1="75.0" y1="50.0" x2="75.0" y2="75.0" stroke="black" />
        <line x1="50.0" y1="75.0" x2="75.0" y2="75.0" stroke="black" />
        <line x1="50.0" y1="50.0" x2="50.0" y2="75.0" stroke="black" />
        <line x1="100.0" y1="75.0" x2="100.0" y2="50.0" stroke="black" />
        <line x1="75.0" y1="75.0" x2="75.0" y2="50.0" stroke="black" />
        <line x1="75.0" y1="75.0" x2="100.0" y2="75.0" stroke="black" />
        <line x1="100.0" y1="75.0" x2="100.0" y2="100.0" stroke="black" />
        <line x1="75.0" y1="100.0" x2="100.0" y2="100.0" stroke="black" />
        <line x1="75.0" y1="75.0" x2="75.0" y2="100.0" stroke="black" />
        <line x1="50.0" y1="100.0" x2="75.0" y2="100.0" stroke="black" />
        <line x1="75.0" y1="100.0" x2="75.0" y2="75.0" stroke="black" />
        <line x1="50.0" y1="100.0" x2="50.0" y2="75.0" stroke="black" />
        <line x1="25.0" y1="100.0" x2="25.0" y2="75.0" stroke="black" />
        <line x1="50.0" y1="75.0" x2="50.0" y2="100.0" stroke="black" />
        <line x1="25.0" y1="100.0" x2="50.0" y2="100.0" stroke="black" />
        <line x1="25.0" y1="75.0" x2="25.0" y2="50.0" stroke="black" />
        <line x1="0.0" y1="50.0" x2="25.0" y2="50.0" stroke="black" />
        <line x1="0.0" y1="75.0" x2="25.0" y2="75.0" stroke="black" />
        <line x1="0.0" y1="50.0" x2="0.0" y2="75.0" stroke="black" />
        <line x1="100.0" y1="100.0" x2="125.0" y2="100.0" stroke="black" />
        <line x1="100.0" y1="75.0" x2="125.0" y2="75.0" stroke="black" />
        <line x1="100.0" y1="100.0" x2="100.0" y2="75.0" stroke="black" />
        <line x1="125.0" y1="75.0" x2="150.0" y2="75.0" stroke="black" />
        <line x1="150.0" y1="75.0" x2="150.0" y2="100.0" stroke="black" />
        <line x1="125.0" y1="75.0" x2="125.0" y2="100.0" stroke="black" />
        <line x1="125.0" y1="50.0" x2="150.0" y2="50.0" stroke="black" />
        <line x1="125.0" y1="50.0" x2="125.0" y2="75.0" stroke="black" />
        <line x1="100.0" y1="50.0" x2="100.0" y2="75.0" stroke="black" />
        <line x1="175.0" y1="50.0" x2="175.0" y2="75.0" stroke="black" />
        <line x1="175.0" y1="75.0" x2="200.0" y2="75.0" stroke="black" />
        <line x1="200.0" y1="75.0" x2="200.0" y2="50.0" stroke="black" />
        <line x1="175.0" y1="50.0" x2="200.0" y2="50.0" stroke="black" />
        <line x1="175.0" y1="100.0" x2="175.0" y2="75.0" stroke="black" />
        <line x1="150.0" y1="100.0" x2="150.0" y2="75.0" stroke="black" />
        <line x1="200.0" y1="25.0" x2="200.0" y2="50.0" stroke="black" />
        <line x1="175.0" y1="50.0" x2="200.0" y2="50.0" stroke="black" />
        <line x1="175.0" y1="25.0" x2="175.0" y2="50.0" stroke="black" />
        <line x1="175.0" y1="25.0" x2="175.0" y2="0.0" stroke="black" />
        <line x1="175.0" y1="0.0" x2="175.0" y2="25.0" stroke="black" />
        <line x1="100.0" y1="0.0" x2="125.0" y2="0.0" stroke="black" />
        <line x1="150.0" y1="25.0" x2="150.0" y2="0.0" stroke="black" />
        <line x1="125.0" y1="25.0" x2="125.0" y2="0.0" stroke="black" />
        <line x1="125.0" y1="25.0" x2="125.0" y2="50.0" stroke="black" />
        <line x1="100.0" y1="50.0" x2="125.0" y2="50.0" stroke="black" />
        <line x1="125.0" y1="50.0" x2="125.0" y2="25.0" stroke="black" />
        <line x1="100.0" y1="25.0" x2="125.0" y2="25.0" stroke="black" />
        <line x1="100.0" y1="100.0" x2="125.0" y2="100.0" stroke="black" />
        <line x1="125.0" y1="100.0" x2="125.0" y2="125.0" stroke="black" />
        <line x1="100.0" y1="125.0" x2="125.0" y2="125.0" stroke="black" />
        <line x1="150.0" y1="125.0" x2="150.0" y2="100.0" stroke="black" />
        <line x1="125.0" y1="100.0" x2="150.0" y2="100.0" stroke="black" />
        <line x1="125.0" y1="125.0" x2="125.0" y2="100.0" stroke="black" />
        <line x1="125.0" y1="125.0" x2="150.0" y2="125.0" stroke="black" />
        <line x1="125.0" y1="150.0" x2="150.0" y2="150.0" stroke="black" />
        <line x1="125.0" y1="125.0" x2="125.0" y2="150.0" stroke="black" />
        <line x1="125.0" y1="150.0" x2="125.0" y2="125.0" stroke="black" />
        <line x1="100.0" y1="150.0" x2="100.0" y2="125.0" stroke="black" />
        <line x1="175.0" y1="150.0" x2="175.0" y2="125.0" stroke="black" />
        <line x1="150.0" y1="125.0" x2="175.0" y2="125.0" stroke="black" />
        <line x1="150.0" y1="150.0" x2="150.0" y2="125.0" stroke="black" />
        <line x1="175.0" y1="125.0" x2="200.0" y2="125.0" stroke="black" />
        <line x1="175.0" y1="150.0" x2="200.0" y2="150.0" stroke="black" />
        <line x1="175.0" y1="125.0" x2="200.0" y2="125.0" stroke="black" />
        <line x1="200.0" y1="125.0" x2="200.0" y2="100.0" stroke="black" />
        <line x1="175.0" y1="100.0" x2="200.0" y2="100.0" stroke="black" />
        <line x1="150.0" y1="100.0" x2="175.0" y2="100.0" stroke="black" />
        <line x1="150.0" y1="125.0" x2="175.0" y2="125.0" stroke="black" />
        <line x1="150.0" y1="100.0" x2="150.0" y2="125.0" stroke="black" />
        <line x1="150.0" y1="150.0" x2="175.0" y2="150.0" stroke="black" />
        <line x1="150.0" y1="175.0" x2="175.0" y2="175.0" stroke="black" />
        <line x1="175.0" y1="150.0" x2="200.0" y2="150.0" stroke="black" />
        <line x1="175.0" y1="175.0" x2="175.0" y2="150.0" stroke="black" />
        <line x1="200.0" y1="175.0" x2="200.0" y2="200.0" stroke="black" />
        <line x1="175.0" y1="200.0" x2="200.0" y2="200.0" stroke="black" />
        <line x1="150.0" y1="200.0" x2="175.0" y2="200.0" stroke="black" />
        <line x1="150.0" y1="200.0" x2="150.0" y2="175.0" stroke="black" />
        <line x1="100.0" y1="175.0" x2="125.0" y2="175.0" stroke="black" />
        <line x1="150.0" y1="175.0" x2="150.0" y2="200.0" stroke="black" />
        <line x1="125.0" y1="200.0" x2="150.0" y2="200.0" stroke="black" />
        <line x1="125.0" y1="175.0" x2="150.0" y2="175.0" stroke="black" />
        <line x1="125.0" y1="150.0" x2="150.0" y2="150.0" stroke="black" />
        <line x1="125.0" y1="175.0" x2="125.0" y2="150.0" stroke="black" />
        <line x1="100.0" y1="150.0" x2="125.0" y2="150.0" stroke="black" />
        <line x1="100.0" y1="175.0" x2="125.0" y2="175.0" stroke="black" />
        <line x1="100.0" y1="150.0" x2="100.0" y2="175.0" stroke="black" />
        <line x1="25.0" y1="200.0" x2="25.0" y2="175.0" stroke="black" />
        <line x1="0.0" y1="175.0" x2="25.0" y2="175.0" stroke="black" />
        <line x1="50.0" y1="175.0" x2="50.0" y2="200.0" stroke="black" />
        <line x1="25.0" y1="175.0" x2="50.0" y2="175.0" stroke="black" />
        <line x1="50.0" y1="175.0" x2="50.0" y2="150.0" stroke="black" />
        <line x1="25.0" y1="175.0" x2="25.0" y2="150.0" stroke="black" />
        <line x1="0.0" y1="150.0" x2="25.0" y2="150.0" stroke="black" />
        <line x1="0.0" y1="175.0" x2="25.0" y2="175.0" stroke="black" />
        <line x1="75.0" y1="150.0" x2="75.0" y2="175.0" stroke="black" />
        <line x1="50.0" y1="175.0" x2="75.0" y2="175.0" stroke="black" />
        <line x1="75.0" y1="175.0" x2="100.0" y2="175.0" stroke="black" />
        <line x1="75.0" y1="150.0" x2="100.0" y2="150.0" stroke="black" />
        <line x1="100.0" y1="175.0" x2="100.0" y2="200.0" stroke="black" />
        <line x1="75.0" y1="200.0" x2="100.0" y2="200.0" stroke="black" />
        <line x1="75.0" y1="175.0" x2="75.0" y2="200.0" stroke="black" />
        <line x1="50.0" y1="200.0" x2="75.0" y2="200.0" stroke="black" />
        <line x1="75.0" y1="200.0" x2="75.0" y2="175.0" stroke="black" />
        <line x1="50.0" y1="175.0" x2="75.0" y2="175.0" stroke="black" />
        <line x1="75.0" y1="150.0" x2="75.0" y2="125.0" stroke="black" />
        <line x1="100.0" y1="125.0" x2="100.0" y2="150.0" stroke="black" />
        <line x1="75.0" y1="150.0" x2="100.0" y2="150.0" stroke="black" />
        <line x1="75.0" y1="125.0" x2="100.0" y2="125.0" stroke="black" />
        <line x1="75.0" y1="100.0" x2="100.0" y2="100.0" stroke="black" />
        <line x1="75.0" y1="125.0" x2="75.0" y2="100.0" stroke="black" />
        <line x1="50.0" y1="100.0" x2="75.0" y2="100.0" stroke="black" />
        <line x1="75.0" y1="100.0" x2="75.0" y2="125.0" stroke="black" />
        <line x1="50.0" y1="125.0" x2="75.0" y2="125.0" stroke="black" />
        <line x1="25.0" y1="100.0" x2="25.0" y2="125.0" stroke="black" />
        <line x1="0.0" y1="125.0" x2="25.0" y2="125.0" stroke="black" />
        <line x1="0.0" y1="100.0" x2="0.0" y2="125.0" stroke="black" />
        <line x1="25.0" y1="125.0" x2="50.0" y2="125.0" stroke="black" />
        <line x1="50.0" y1="125.0" x2="50.0" y2="100.0" stroke="black" />
        <line x1="25.0" y1="100.0" x2="50.0" y2="100.0" stroke="black" />
        <line x1="25.0" y1="125.0" x2="25.0" y2="100.0" stroke="black" />
        <line x1="25.0" y1="125.0" x2="50.0" y2="125.0" stroke="black" />
        <line x1="25.0" y1="150.0" x2="50.0" y2="150.0" stroke="black" />
        <line x1="0.0" y1="150.0" x2="0.0" y2="125.0" stroke="black" />
    </g> 
</svg>