<?xml version="1.0" encoding="UTF-8" standalone="no"?>
<svg width="200" height="200" version="1.1" xmlns="http://www.w3.org/2000/svg">
    <g opacity="1.0">
        <circle cx="12.5" cy="12.5" r="2.0833333333333335" stroke-width="1" stroke="#FD7D11" fill="none" />
        <circle cx="12.5" cy="12.5" r="2.0833333333333335" stroke-width="1" stroke="#FD7D11" fill="none" />
        <circle cx="12.5" cy="12.5" r="6.25" stroke-width="1" stroke="#FD7D11" fill="none" />
        <circle cx="12.5" cy="12.5" r="8.333333333333334" stroke-width="1" stroke="#FD7D11" fill="none" />
        <circle cx="12.5" cy="12.5" r="2.0833333333333335" stroke-width="2" stroke="#FD7D11" fill="none" />
        <circle cx="37.5" cy="12.5" r="8.333333333333334" stroke-width="3" stroke="#547DD0" fill="none" />
        <circle cx="37.5" cy="12.5" r="4.166666666666667" stroke-width="1" stroke="#547DD0" fill="none" />
        <circle cx="37.5" cy="12.5" r="6.25" stroke-width="1" stroke="#547DD0" fill="none" />
        <circle cx="37.5" cy="12.5" r="2.0833333333333335" stroke-width="1" stroke="#547DD0" fill="none" />
        <circle cx="37.5" cy="12.5" r="4.166666666666667" stroke-width="3" stroke="#547DD0" fill="none" />
        <circle cx="37.5" cy="37.5" r="4.166666666666667" stroke-width="1" stroke="#2F8545" fill="none" />
        <circle cx="37.5" cy="37.5" r="2.0833333333333335" stroke-width="2" stroke="#2F8545" fill="none" />
        <circle cx="37.5" cy="37.5" r="2.0833333333333335" stroke-width="1" stroke="#2F8545" fill="none" />
        <circle cx="37.5" cy="37.5" r="8.333333333333334" stroke-width="2" stroke="#2F8545" fill="none" />
        <circle cx="37.5" cy="37.5" r="6.25" stroke-width="1" stroke="#2F8545" fill="none" />
        <circle cx="12.5" cy="37.5" r="2.0833333333333335" stroke-width="1" stroke="#ED1803" fill="none" />
        <circle cx="12.5" cy="37.5" r="2.0833333333333335" stroke-width="2" stroke="#ED1803" fill="none" />
        <circle cx="12.5" cy="37.5" r="6.25" stroke-width="2" stroke="#ED1803" fill="none" />
        <circle cx="12.5" cy="37.5" r="4.166666666666667" stroke-width="3" stroke="#ED1803" fill="none" />
        <circle cx="12.5" cy="37.5" r="2.0833333333333335" stroke-width="1" stroke="#ED1803" fill="none" />
        <circle cx="62.5" cy="12.5" r="8.333333333333334" stroke-width="1" stroke="#51DF0B" fill="none" />
        <circle cx="62.5" cy="12.5" r="6.25" stroke-width="3" stroke="#51DF0B" fill="none" />
        <circle cx="62.5" cy="12.5" r="6.25" stroke-width="3" stroke="#51DF0B" fill="none" />
        <circle cx="62.5" cy="12.5" r="4.166666666666667" stroke-width="2" stroke="#51DF0B" fill="none" />
        <circle cx="62.5" cy="12.5" r="8.333333333333334" stroke-width="2" stroke="#51DF0B" fill="none" />
        <circle cx="87.5" cy="12.5" r="6.25" stroke-width="1" stroke="#0C4ED4" fill="none" />
        <circle cx="87.5" cy="12.5" r="2.0833333333333335" stroke-width="1" stroke="#0C4ED4" fill="none" />
        <circle cx="87.5" cy="12.5" r="10.416666666666666" stroke-width="1" stroke="#0C4ED4" fill="none" />
        <circle cx="87.5" cy="12.5" r="8.333333333333334" stroke-width="2" stroke="#0C4ED4" fill="none" />
        <circle cx="87.5" cy="12.5" r="8.333333333333334" stroke-width="1" stroke="#0C4ED4" fill="none" />
        <circle cx="87.5" cy="37.5" r="10.416666666666666" stroke-width="2" stroke="#0FA29B" fill="none" />
        <circle cx="87.5" cy="37.5" r="6.25" stroke-width="2" stroke="#0FA29B" fill="none" />
        <circle cx="87.5" cy="37.5" r="8.333333333333334" stroke-width="3" stroke="#0FA29B" fill="none" />
        <circle cx="87.5" cy="37.5" r="10.416666666666666" stroke-width="2" stroke="#0FA29B" fill="none" />
        <circle cx="87.5" cy="37.5" r="8.333333333333334" stroke-width="3" stroke="#0FA29B" fill="none" />
        <circle cx="62.5" cy="37.5" r="4.166666666666667" stroke-width="1" stroke="#EAA394" fill="none" />
        <circle cx="62.5" cy="37.5" r="8.333333333333334" stroke-width="1" stroke="#EAA394" fill="none" />
        <circle cx="62.5" cy="37.5" r="2.0833333333333335" stroke-width="1" stroke="#EAA394" fill="none" />
        <circle cx="62.5" cy="37.5" r="2.0833333333333335" stroke-width="1" stroke="#EAA394" fill="none" />
        <circle cx="62.5" cy="37.5" r="6.25" stroke-width="1" stroke="#EAA394" fill="none" />
        <circle cx="62.5" cy="62.5" r="6.25" stroke-width="1" stroke="#F723BA" fill="none" />
        <circle cx="62.5" cy="62.5" r="2.0833333333333335" stroke-width="2" stroke="#F723BA" fill="none" />
        <circle cx="62.5" cy="62.5" r="10.416666666666666" stroke-width="3" stroke="#F723BA" fill="none" />
        <circle cx="62.5" cy="62.5" r="2.0833333333333335" stroke-width="1" stroke="#F723BA" fill="none" />
        <circle cx="62.5" cy="62.5" r="2.0833333333333335" stroke-width="2" stroke="#F723BA" fill="none" />
        <circle cx="87.5" cy="62.5" r="10.416666666666666" stroke-width="2" stroke="#D03632" fill="none" />
        <circle cx="87.5" cy="62.5" r="8.333333333333334" stroke-width="2" stroke="#D03632" fill="none" />
        <circle cx="87.5" cy="62.5" r="4.166666666666667" stroke-width="2" stroke="#D03632" fill="none" />
        <circle cx="87.5" cy="62.5" r="6.25" stroke-width="1" stroke="#D03632" fill="none" />
        <circle cx="87.5" cy="62.5" r="10.416666666666666" stroke-width="1" stroke="#D03632" fill="none" />
        <circle cx="87.5" cy="87.5" r="10.416666666666666" stroke-width="2" stroke="#24F34B" fill="none" />
        <circle cx="87.5" cy="87.5" r="2.0833333333333335" stroke-width="1" stroke="#24F34B" fill="none" />
        <circle cx="87.5" cy="87.5" r="4.166666666666667" stroke-width="1" stroke="#24F34B" fill="none" />
        <circle cx="87.5" cy="87.5" r="4.166666666666667" stroke-width="1" stroke="#24F34B" fill="none" />
        <circle cx="87.5" cy="87.5" r="6.25" stroke-width="1" stroke="#24F34B" fill="none" />
        <circle cx="62.5" cy="87.5" r="6.25" stroke-width="3" stroke="#65E6F9" fill="none" />
        <circle cx="62.5" cy="87.5" r="4.166666666666667" stroke-width="2" stroke="#65E6F9" fill="none" />
        <circle cx="62.5" cy="87.5" r="6.25" stroke-width="1" stroke="#65E6F9" fill="none" />
        <circle cx="62.5" cy="87.5" r="6.25" stroke-width="2" stroke="#65E6F9" fill="none" />
        <circle cx="62.5" cy="87.5" r="6.25" stroke-width="1" stroke="#65E6F9" fill="none" />
        <circle cx="12.5" cy="62.5" r="4.166666666666667" stroke-width="3" stroke="#D5FFE0" fill="none" />
        <circle cx="12.5" cy="62.5" r="10.416666666666666" stroke-width="3" stroke="#D5FFE0" fill="none" />
        <circle cx="12.5" cy="62.5" r="6.25" stroke-width="1" stroke="#D5FFE0" fill="none" />
        <circle cx="12.5" cy="62.5" r="6.25" stroke-width="3" stroke="#D5FFE0" fill="none" />
        <circle cx="12.5" cy="62.5" r="4.166666666666667" stroke-width="1" stroke="#D5FFE0" fill="none" />
        <circle cx="37.5" cy="62.5" r="6.25" stroke-width="3" stroke="#1B2A4C" fill="none" />
        <circle cx="37.5" cy="62.5" r="2.0833333333333335" stroke-width="1" stroke="#1B2A4C" fill="none" />
        <circle cx="37.5" cy="62.5" r="2.0833333333333335" stroke-width="3" stroke="#1B2A4C" fill="none" />
        <circle cx="37.5" cy="62.5" r="2.0833333333333335" stroke-width="2" stroke="#1B2A4C" fill="none" />
        <circle cx="37.5" cy="62.5" r="6.25" stroke-width="3" stroke="#1B2A4C" fill="none" />
        <circle cx="37.5" cy="87.5" r="10.416666666666666" stroke-width="3" stroke="#62156B" fill="none" />
        <circle cx="37.5" cy="87.5" r="4.166666666666667" stroke-width="1" stroke="#62156B" fill="none" />
        <circle cx="37.5" cy="87.5" r="6.25" stroke-width="1" stroke="#62156B" fill="none" />
        <circle cx="37.5" cy="87.5" r="6.25" stroke-width="3" stroke="#62156B" fill="none" />
        <circle cx="37.5" cy="87.5" r="8.333333333333334" stroke-width="2" stroke="#62156B" fill="none" />
        <circle cx="12.5" cy="87.5" r="4.166666666666667" stroke-width="1" stroke="#6E79A7" fill="none" />
        <circle cx="12.5" cy="87.5" r="8.333333333333334" stroke-width="2" stroke="#6E79A7" fill="none" />
        <circle cx="12.5" cy="87.5" r="2.0833333333333335" stroke-width="2" stroke="#6E79A7" fill="none" />
        <circle cx="12.5" cy="87.5" r="2.0833333333333335" stroke-width="1" stroke="#6E79A7" fill="none" />
        <circle cx="12.5" cy="87.5" r="8.333333333333334" stroke-width="3" stroke="#6E79A7" fill="none" />
        <circle cx="112.5" cy="12.5" r="6.25" stroke-width="1" stroke="#B42203" fill="none" />
        <circle cx="112.5" cy="12.5" r="2.0833333333333335" stroke-width="1" stroke="#B42203" fill="none" />
        <circle cx="112.5" cy="12.5" r="4.166666666666667" stroke-width="1" stroke="#B42203" fill="none" />
        <circle cx="112.5" cy="12.5" r="8.333333333333334" stroke-width="2" stroke="#B42203" fill="none" />
        <circle cx="112.5" cy="12.5" r="4.166666666666667" stroke-width="1" stroke="#B42203" fill="none" />
        <circle cx="137.5" cy="12.5" r="2.0833333333333335" stroke-width="2" stroke="#590EBD" fill="none" />
        <circle cx="137.5" cy="12.5" r="2.0833333333333335" stroke-width="1" stroke="#590EBD" fill="none" />
        <circle cx="137.5" cy="12.5" r="10.416666666666666" stroke-width="2" stroke="#590EBD" fill="none" />
        <circle cx="137.5" cy="12.5" r="4.166666666666667" stroke-width="1" stroke="#590EBD" fill="none" />
        <circle cx="137.5" cy="12.5" r="2.0833333333333335" stroke-width="1" stroke="#590EBD" fill="none" />
        <circle cx="137.5" cy="37.5" r="6.25" stroke-width="1" stroke="#D9C81B" fill="none" />
        <circle cx="137.5" cy="37.5" r="4.166666666666667" stroke-width="1" stroke="#D9C81B" fill="none" />
        <circle cx="137.5" cy="37.5" r="8.333333333333334" stroke-width="3" stroke="#D9C81B" fill="none" />
        <circle cx="137.5" cy="37.5" r="10.416666666666666" stroke-width="1" stroke="#D9C81B" fill="none" />
        <circle cx="137.5" cy="37.5" r="8.333333333333334" stroke-width="1" stroke="#D9C81B" fill="none" />
        <circle cx="112.5" cy="37.5" r="8.333333333333334" stroke-width="2" stroke="#EABF8A" fill="none" />
        <circle cx="112.5" cy="37.5" r="10.416666666666666" stroke-width="2" stroke="#EABF8A" fill="none" />
        <circle cx="112.5" cy="37.5" r="2.0833333333333335" stroke-width="2" stroke="#EABF8A" fill="none" />
        <circle cx="112.5" cy="37.5" r="8.333333333333334" stroke-width="1" stroke="#EABF8A" fill="none" />
        <circle cx="112.5" cy="37.5" r="10.416666666666666" stroke-width="1" stroke="#EABF8A" fill="none" />
        <circle cx="162.5" cy="12.5" r="2.0833333333333335" stroke-width="2" stroke="#BA9E54" fill="none" />
        <circle cx="162.5" cy="12.5" r="4.166666666666667" stroke-width="1" stroke="#BA9E54" fill="none" />
        <circle cx="162.5" cy="12.5" r="2.0833333333333335" stroke-width="2" stroke="#BA9E54" fill="none" />
        <circle cx="162.5" cy="12.5" r="10.416666666666666" stroke-width="1" stroke="#BA9E54" fill="none" />
        <circle cx="162.5" cy="12.5" r="10.416666666666666" stroke-width="2" stroke="#BA9E54" fill="none" />
        <circle cx="187.5" cy="12.5" r="10.416666666666666" stroke-width="1" stroke="#291240" fill="none" />
        <circle cx="187.5" cy="12.5" r="4.166666666666667" stroke-width="2" stroke="#291240" fill="none" />
        <circle cx="187.5" cy="12.5" r="6.25" stroke-width="1" stroke="#291240" fill="none" />
        <circle cx="187.5" cy="12.5" r="4.166666666666667" stroke-width="2" stroke="#291240" fill="none" />
        <circle cx="187.5" cy="12.5" r="2.0833333333333335" stroke-width="1" stroke="#291240" fill="none" />
        <circle cx="187.5" cy="37.5" r="6.25" stroke-width="3" stroke="#ADBBDB" fill="none" />
        <circle cx="187.5" cy="37.5" r="8.333333333333334" stroke-width="3" stroke="#ADBBDB" fill="none" />
        <circle cx="187.5" cy="37.5" r="4.166666666666667" stroke-width="1" stroke="#ADBBDB" fill="none" />
        <circle cx="187.5" cy="37.5" r="4.166666666666667" stroke-width="3" stroke="#ADBBDB" fill="none" />
        <circle cx="187.5" cy="37.5" r="6.25" stroke-width="2" stroke="#ADBBDB" fill="none" />
        <circle cx="162.5" cy="37.5" r="2.0833333333333335" stroke-width="1" stroke="#914836" fill="none" />
        <circle cx="162.5" cy="37.5" r="8.333333333333334" stroke-width="2" stroke="#914836" fill="none" />
        <circle cx="162.5" cy="37.5" r="2.0833333333333335" stroke-width="2" stroke="#914836" fill="none" />
        <circle cx="162.5" cy="37.5" r="6.25" stroke-width="2" stroke="#914836" fill="none" />
        <circle cx="162.5" cy="37.5" r="10.416666666666666" stroke-width="1" stroke="#914836" fill="none" />
        <circle cx="162.5" cy="62.5" r="10.416666666666666" stroke-width="1" stroke="#C0AB01" fill="none" />
        <circle cx="162.5" cy="62.5" r="2.0833333333333335" stroke-width="3" stroke="#C0AB01" fill="none" />
        <circle cx="162.5" cy="62.5" r="10.416666666666666" stroke-width="2" stroke="#C0AB01" fill="none" />
        <circle cx="162.5" cy="62.5" r="8.333333333333334" stroke-width="2" stroke="#C0AB01" fill="none" />
        <circle cx="162.5" cy="62.5" r="2.0833333333333335" stroke-width="1" stroke="#C0AB01" fill="none" />
        <circle cx="187.5" cy="62.5" r="8.333333333333334" stroke-width="2" stroke="#5E8DC4" fill="none" />
        <circle cx="187.5" cy="62.5" r="6.25" stroke-width="2" stroke="#5E8DC4" fill="none" />
        <circle cx="187.5" cy="62.5" r="4.166666666666667" stroke-width="2" stroke="#5E8DC4" fill="none" />
        <circle cx="187.5" cy="62.5" r="8.333333333333334" stroke-width="1" stroke="#5E8DC4" fill="none" />
        <circle cx="187.5" cy="62.5" r="4.166666666666667" stroke-width="3" stroke="#5E8DC4" fill="none" />
        <circle cx="187.5" cy="87.5" r="8.333333333333334" stroke-width="2" stroke="#8213DF" fill="none" />
        <circle cx="187.5" cy="87.5" r="8.333333333333334" stroke-width="3" stroke="#8213DF" fill="none" />
        <circle cx="187.5" cy="87.5" r="10.416666666666666" stroke-width="2" stroke="#8213DF" fill="none" />
        <circle cx="187.5" cy="87.5" r="10.416666666666666" stroke-width="1" stroke="#8213DF" fill="none" />
        <circle cx="187.5" cy="87.5" r="4.166666666666667" stroke-width="1" stroke="#8213DF" fill="none" />
        <circle cx="162.5" cy="87.5" r="8.333333333333334" stroke-width="2" stroke="#C43E1A" fill="none" />
        <circle cx="162.5" cy="87.5" r="2.0833333333333335" stroke-width="1" stroke="#C43E1A" fill="none" />
        <circle cx="162.5" cy="87.5" r="6.25" stroke-width="1" stroke="#C43E1A" fill="none" />
        <circle cx="162.5" cy="87.5" r="4.166666666666667" stroke-width="1" stroke="#C43E1A" fill="none" />
        <circle cx="162.5" cy="87.5" r="8.333333333333334" stroke-width="1" stroke="#C43E1A" fill="none" />
        <circle cx="112.5" cy="62.5" r="10.416666666666666" stroke-width="3" stroke="#147B29" fill="none" />
        <circle cx="112.5" cy="62.5" r="6.25" stroke-width="3" stroke="#147B29" fill="none" />
        <circle cx="112.5" cy="62.5" r="10.416666666666666" stroke-width="1" stroke="#147B29" fill="none" />
        <circle cx="112.5" cy="62.5" r="6.25" stroke-width="1" stroke="#147B29" fill="none" />
        <circle cx="112.5" cy="62.5" r="2.0833333333333335" stroke-width="1" stroke="#147B29" fill="none" />
        <circle cx="137.5" cy="62.5" r="8.333333333333334" stroke-width="1" stroke="#6204A9" fill="none" />
        <circle cx="137.5" cy="62.5" r="10.416666666666666" stroke-width="3" stroke="#6204A9" fill="none" />
        <circle cx="137.5" cy="62.5" r="10.416666666666666" stroke-width="1" stroke="#6204A9" fill="none" />
        <circle cx="137.5" cy="62.5" r="4.166666666666667" stroke-width="3" stroke="#6204A9" fill="none" />
        <circle cx="137.5" cy="62.5" r="6.25" stroke-width="2" stroke="#6204A9" fill="none" />
        <circle cx="137.5" cy="87.5" r="6.25" stroke-width="1" stroke="#D17453" fill="none" />
        <circle cx="137.5" cy="87.5" r="4.166666666666667" stroke-width="2" stroke="#D17453" fill="none" />
        <circle cx="137.5" cy="87.5" r="4.166666666666667" stroke-width="1" stroke="#D17453" fill="none" />
        <circle cx="137.5" cy="87.5" r="6.25" stroke-width="2" stroke="#D17453" fill="none" />
        <circle cx="137.5" cy="87.5" r="2.0833333333333335" stroke-width="2" stroke="#D17453" fill="none" />
        <circle cx="112.5" cy="87.5" r="10.416666666666666" stroke-width="1" stroke="#BB459C" fill="none" />
        <circle cx="112.5" cy="87.5" r="6.25" stroke-width="1" stroke="#BB459C" fill="none" />
        <circle cx="112.5" cy="87.5" r="6.25" stroke-width="3" stroke="#BB459C" fill="none" />
        <circle cx="112.5" cy="87.5" r="10.416666666666666" stroke-width="2" stroke="#BB459C" fill="none" />
        <circle cx="112.5" cy="87.5" r="6.25" stroke-width="2" stroke="#BB459C" fill="none" />
        <circle cx="112.5" cy="112.5" r="6.25" stroke-width="2" stroke="#1FCE15" fill="none" />
        <circle cx="112.5" cy="112.5" r="8.333333333333334" stroke-width="2" stroke="#1FCE15" fill="none" />
        <circle cx="112.5" cy="112.5" r="2.0833333333333335" stroke-width="3" stroke="#1FCE15" fill="none" />
        <circle cx="112.5" cy="112.5" r="8.333333333333334" stroke-width="1" stroke="#1FCE15" fill="none" />
        <circle cx="112.5" cy="112.5" r="8.333333333333334" stroke-width="1" stroke="#1FCE15" fill="none" />
        <circle cx="137.5" cy="112.5" r="6.25" stroke-width="1" stroke="#ED6490" fill="none" />
        <circle cx="137.5" cy="112.5" r="8.333333333333334" stroke-width="1" stroke="#ED6490" fill="none" />
        <circle cx="137.5" cy="112.5" r="6.25" stroke-width="1" stroke="#ED6490" fill="none" />
        <circle cx="137.5" cy="112.5" r="4.166666666666667" stroke-width="2" stroke="#ED6490" fill="none" />
        <circle cx="137.5" cy="112.5" r="8.333333333333334" stroke-width="1" stroke="#ED6490" fill="none" />
        <circle cx="137.5" cy="137.5" r="10.416666666666666" stroke-width="2" stroke="#1C8B46" fill="none" />
        <circle cx="137.5" cy="137.5" r="4.166666666666667" stroke-width="1" stroke="#1C8B46" fill="none" />
        <circle cx="137.5" cy="137.5" r="4.166666666666667" stroke-width="2" stroke="#1C8B46" fill="none" />
        <circle cx="137.5" cy="137.5" r="8.333333333333334" stroke-width="2" stroke="#1C8B46" fill="none" />
        <circle cx="137.5" cy="137.5" r="2.0833333333333335" stroke-width="1" stroke="#1C8B46" fill="none" />
        <circle cx="112.5" cy="137.5" r="6.25" stroke-width="2" stroke="#0869F7" fill="none" />
        <circle cx="112.5" cy="137.5" r="4.166666666666667" stroke-width="2" stroke="#0869F7" fill="none" />
        <circle cx="112.5" cy="137.5" r="6.25" stroke-width="1" stroke="#0869F7" fill="none" />
        <circle cx="112.5" cy="137.5" r="6.25" stroke-width="2" stroke="#0869F7" fill="none" />
        <circle cx="112.5" cy="137.5" r="6.25" stroke-width="2" stroke="#0869F7" fill="none" />
        <circle cx="162.5" cy="112.5" r="8.333333333333334" stroke-width="1" stroke="#51201B" fill="none" />
        <circle cx="162.5" cy="112.5" r="8.333333333333334" stroke-width="1" stroke="#51201B" fill="none" />
        <circle cx="162.5" cy="112.5" r="10.416666666666666" stroke-width="3" stroke="#51201B" fill="none" />
        <circle cx="162.5" cy="112.5" r="10.416666666666666" stroke-width="1" stroke="#51201B" fill="none" />
        <circle cx="162.5" cy="112.5" r="4.166666666666667" stroke-width="1" stroke="#51201B" fill="none" />
        <circle cx="187.5" cy="112.5" r="6.25" stroke-width="2" stroke="#9AD35B" fill="none" />
        <circle cx="187.5" cy="112.5" r="8.333333333333334" stroke-width="2" stroke="#9AD35B" fill="none" />
        <circle cx="187.5" cy="112.5" r="6.25" stroke-width="1" stroke="#9AD35B" fill="none" />
        <circle cx="187.5" cy="112.5" r="6.25" stroke-width="1" stroke="#9AD35B" fill="none" />
        <circle cx="187.5" cy="112.5" r="6.25" stroke-width="3" stroke="#9AD35B" fill="none" />
        <circle cx="187.5" cy="137.5" r="10.416666666666666" stroke-width="1" stroke="#15B129" fill="none" />
        <circle cx="187.5" cy="137.5" r="6.25" stroke-width="1" stroke="#15B129" fill="none" />
        <circle cx="187.5" cy="137.5" r="6.25" stroke-width="1" stroke="#15B129" fill="none" />
        <circle cx="187.5" cy="137.5" r="4.166666666666667" stroke-width="1" stroke="#15B129" fill="none" />
        <circle cx="187.5" cy="137.5" r="10.416666666666666" stroke-width="3" stroke="#15B129" fill="none" />
        <circle cx="162.5" cy="137.5" r="10.416666666666666" stroke-width="3" stroke="#AD3497" fill="none" />
        <circle cx="162.5" cy="137.5" r="10.416666666666666" stroke-width="1" stroke="#AD3497" fill="none" />
        <circle cx="162.5" cy="137.5" r="8.333333333333334" stroke-width="1" stroke="#AD3497" fill="none" />
        <circle cx="162.5" cy="137.5" r="4.166666666666667" stroke-width="2" stroke="#AD3497" fill="none" />
        <circle cx="162.5" cy="137.5" r="2.0833333333333335" stroke-width="2" stroke="#AD3497" fill="none" />
        <circle cx="162.5" cy="162.5" r="6.25" stroke-width="1" stroke="#E563F2" fill="none" />
        <circle cx="162.5" cy="162.5" r="4.166666666666667" stroke-width="2" stroke="#E563F2" fill="none" />
        <circle cx="162.5" cy="162.5" r="2.0833333333333335" stroke-width="2" stroke="#E563F2" fill="none" />
        <circle cx="162.5" cy="162.5" r="4.166666666666667" stroke-width="2" stroke="#E563F2" fill="none" />
        <circle cx="162.5" cy="162.5" r="4.166666666666667" stroke-width="2" stroke="#E563F2" fill="none" />
        <circle cx="187.5" cy="162.5" r="4.166666666666667" stroke-width="1" stroke="#F14E78" fill="none" />
        <circle cx="187.5" cy="162.5" r="2.0833333333333335" stroke-width="2" stroke="#F14E78" fill="none" />
        <circle cx="187.5" cy="162.5" r="4.166666666666667" stroke-width="1" stroke="#F14E78" fill="none" />
        <circle cx="187.5" cy="162.5" r="10.416666666666666" stroke-width="2" stroke="#F14E78" fill="none" />
        <circle cx="187.5" cy="162.5" r="2.0833333333333335" stroke-width="1" stroke="#F14E78" fill="none" />
        <circle cx="187.5" cy="187.5" r="6.25" stroke-width="2" stroke="#F3B609" fill="none" />
        <circle cx="187.5" cy="187.5" r="4.166666666666667" stroke-width="2" stroke="#F3B609" fill="none" />
        <circle cx="187.5" cy="187.5" r="2.0833333333333335" stroke-width="2" stroke="#F3B609" fill="none" />
        <circle cx="187.5" cy="187.5" r="6.25" stroke-width="1" stroke="#F3B609" fill="none" />
        <circle cx="187.5" cy="187.5" r="8.333333333333334" stroke-width="2" stroke="#F3B609" fill="none" />
        <circle cx="162.5" cy="187.5" r="6.25" stroke-width="2" stroke="#EF0EA1" fill="none" />
        <circle cx="162.5" cy="187.5" r="8.333333333333334" stroke-width="2" stroke="#EF0EA1" fill="none" />
        <circle cx="162.5" cy="187.5" r="4.166666666666667" stroke-width="1" stroke="#EF0EA1" fill="none" />
        <circle cx="162.5" cy="187.5" r="6.25" stroke-width="2" stroke="#EF0EA1" fill="none" />
        <circle cx="162.5" cy="187.5" r="2.0833333333333335" stroke-width="3" stroke="#EF0EA1" fill="none" />
        <circle cx="112.5" cy="162.5" r="2.0833333333333335" stroke-width="1" stroke="#889184" fill="none" />
        <circle cx="112.5" cy="162.5" r="4.166666666666667" stroke-width="3" stroke="#889184" fill="none" />
        <circle cx="112.5" cy="162.5" r="6.25" stroke-width="1" stroke="#889184" fill="none" />
        <circle cx="112.5" cy="162.5" r="6.25" stroke-width="1" stroke="#889184" fill="none" />
        <circle cx="112.5" cy="162.5" r="8.333333333333334" stroke-width="1" stroke="#889184" fill="none" />
        <circle cx="137.5" cy="162.5" r="10.416666666666666" stroke-width="1" stroke="#FA8971" fill="none" />
        <circle cx="137.5" cy="162.5" r="8.333333333333334" stroke-width="3" stroke="#FA8971" fill="none" />
        <circle cx="137.5" cy="162.5" r="10.416666666666666" stroke-width="1" stroke="#FA8971" fill="none" />
        <circle cx="137.5" cy="162.5" r="8.333333333333334" stroke-width="1" stroke="#FA8971" fill="none" />
        <circle cx="137.5" cy="162.5" r="6.25" stroke-width="3" stroke="#FA8971" fill="none" />
        <circle cx="137.5" cy="187.5" r="2.0833333333333335" stroke-width="2" stroke="#1A5C2E" fill="none" />
        <circle cx="137.5" cy="187.5" r="8.333333333333334" stroke-width="3" stroke="#1A5C2E" fill="none" />
        <circle cx="137.5" cy="187.5" r="4.166666666666667" stroke-width="2" stroke="#1A5C2E" fill="none" />
        <circle cx="137.5" cy="187.5" r="6.25" stroke-width="2" stroke="#1A5C2E" fill="none" />
        <circle cx="137.5" cy="187.5" r="8.333333333333334" stroke-width="1" stroke="#1A5C2E" fill="none" />
        <circle cx="112.5" cy="187.5" r="8.333333333333334" stroke-width="2" stroke="#CEDDF1" fill="none" />
        <circle cx="112.5" cy="187.5" r="4.166666666666667" stroke-width="2" stroke="#CEDDF1" fill="none" />
        <circle cx="112.5" cy="187.5" r="6.25" stroke-width="1" stroke="#CEDDF1" fill="none" />
        <circle cx="112.5" cy="187.5" r="10.416666666666666" stroke-width="1" stroke="#CEDDF1" fill="none" />
        <circle cx="112.5" cy="187.5" r="8.333333333333334" stroke-width="1" stroke="#CEDDF1" fill="none" />
        <circle cx="12.5" cy="112.5" r="10.416666666666666" stroke-width="1" stroke="#D26F93" fill="none" />
        <circle cx="12.5" cy="112.5" r="4.166666666666667" stroke-width="2" stroke="#D26F93" fill="none" />
        <circle cx="12.5" cy="112.5" r="10.416666666666666" stroke-width="3" stroke="#D26F93" fill="none" />
        <circle cx="12.5" cy="112.5" r="8.333333333333334" stroke-width="2" stroke="#D26F93" fill="none" />
        <circle cx="12.5" cy="112.5" r="4.166666666666667" stroke-width="3" stroke="#D26F93" fill="none" />
        <circle cx="37.5" cy="112.5" r="6.25" stroke-width="1" stroke="#A92103" fill="none" />
        <circle cx="37.5" cy="112.5" r="2.0833333333333335" stroke-width="1" stroke="#A92103" fill="none" />
        <circle cx="37.5" cy="112.5" r="8.333333333333334" stroke-width="3" stroke="#A92103" fill="none" />
        <circle cx="37.5" cy="112.5" r="4.166666666666667" stroke-width="2" stroke="#A92103" fill="none" />
        <circle cx="37.5" cy="112.5" r="4.166666666666667" stroke-width="2" stroke="#A92103" fill="none" />
        <circle cx="37.5" cy="137.5" r="2.0833333333333335" stroke-width="2" stroke="#3036F3" fill="none" />
        <circle cx="37.5" cy="137.5" r="6.25" stroke-width="2" stroke="#3036F3" fill="none" />
        <circle cx="37.5" cy="137.5" r="10.416666666666666" stroke-width="1" stroke="#3036F3" fill="none" />
        <circle cx="37.5" cy="137.5" r="2.0833333333333335" stroke-width="2" stroke="#3036F3" fill="none" />
        <circle cx="37.5" cy="137.5" r="10.416666666666666" stroke-width="1" stroke="#3036F3" fill="none" />
        <circle cx="12.5" cy="137.5" r="8.333333333333334" stroke-width="2" stroke="#3CFBE0" fill="none" />
        <circle cx="12.5" cy="137.5" r="2.0833333333333335" stroke-width="1" stroke="#3CFBE0" fill="none" />
        <circle cx="12.5" cy="137.5" r="8.333333333333334" stroke-width="1" stroke="#3CFBE0" fill="none" />
        <circle cx="12.5" cy="137.5" r="6.25" stroke-width="2" stroke="#3CFBE0" fill="none" />
        <circle cx="12.5" cy="137.5" r="10.416666666666666" stroke-width="1" stroke="#3CFBE0" fill="none" />
        <circle cx="62.5" cy="112.5" r="8.333333333333334" stroke-width="2" stroke="#9CEF3E" fill="none" />
        <circle cx="62.5" cy="112.5" r="8.333333333333334" stroke-width="2" stroke="#9CEF3E" fill="none" />
        <circle cx="62.5" cy="112.5" r="6.25" stroke-width="2" stroke="#9CEF3E" fill="none" />
        <circle cx="62.5" cy="112.5" r="10.416666666666666" stroke-width="1" stroke="#9CEF3E" fill="none" />
        <circle cx="62.5" cy="112.5" r="8.333333333333334" stroke-width="1" stroke="#9CEF3E" fill="none" />
        <circle cx="87.5" cy="112.5" r="2.0833333333333335" stroke-width="2" stroke="#617D65" fill="none" />
        <circle cx="87.5" cy="112.5" r="4.166666666666667" stroke-width="2" stroke="#617D65" fill="none" />
        <circle cx="87.5" cy="112.5" r="2.0833333333333335" stroke-width="2" stroke="#617D65" fill="none" />
        <circle cx="87.5" cy="112.5" r="10.416666666666666" stroke-width="1" stroke="#617D65" fill="none" />
        <circle cx="87.5" cy="112.5" r="2.0833333333333335" stroke-width="3" stroke="#617D65" fill="none" />
        <circle cx="87.5" cy="137.5" r="6.25" stroke-width="2" stroke="#E7BC23" fill="none" />
        <circle cx="87.5" cy="137.5" r="4.166666666666667" stroke-width="2" stroke="#E7BC23" fill="none" />
        <circle cx="87.5" cy="137.5" r="10.416666666666666" stroke-width="2" stroke="#E7BC23" fill="none" />
        <circle cx="87.5" cy="137.5" r="10.416666666666666" stroke-width="2" stroke="#E7BC23" fill="none" />
        <circle cx="87.5" cy="137.5" r="6.25" stroke-width="2" stroke="#E7BC23" fill="none" />
        <circle cx="62.5" cy="137.5" r="10.416666666666666" stroke-width="1" stroke="#564D14" fill="none" />
        <circle cx="62.5" cy="137.5" r="6.25" stroke-width="1" stroke="#564D14" fill="none" />
        <circle cx="62.5" cy="137.5" r="8.333333333333334" stroke-width="3" stroke="#564D14" fill="none" />
        <circle cx="62.5" cy="137.5" r="6.25" stroke-width="1" stroke="#564D14" fill="none" />
        <circle cx="62.5" cy="137.5" r="6.25" stroke-width="2" stroke="#564D14" fill="none" />
        <circle cx="62.5" cy="162.5" r="4.166666666666667" stroke-width="1" stroke="#C72973" fill="none" />
        <circle cx="62.5" cy="162.5" r="4.166666666666667" stroke-width="3" stroke="#C72973" fill="none" />
        <circle cx="62.5" cy="162.5" r="8.333333333333334" stroke-width="1" stroke="#C72973" fill="none" />
        <circle cx="62.5" cy="162.5" r="8.333333333333334" stroke-width="1" stroke="#C72973" fill="none" />
        <circle cx="62.5" cy="162.5" r="8.333333333333334" stroke-width="1" stroke="#C72973" fill="none" />
        <circle cx="87.5" cy="162.5" r="8.333333333333334" stroke-width="1" stroke="#39EC01" fill="none" />
        <circle cx="87.5" cy="162.5" r="8.333333333333334" stroke-width="3" stroke="#39EC01" fill="none" />
        <circle cx="87.5" cy="162.5" r="10.416666666666666" stroke-width="1" stroke="#39EC01" fill="none" />
        <circle cx="87.5" cy="162.5" r="6.25" stroke-width="2" stroke="#39EC01" fill="none" />
        <circle cx="87.5" cy="162.5" r="10.416666666666666" stroke-width="3" stroke="#39EC01" fill="none" />
        <circle cx="87.5" cy="187.5" r="10.416666666666666" stroke-width="1" stroke="#E58FB9" fill="none" />
        <circle cx="87.5" cy="187.5" r="4.166666666666667" stroke-width="1" stroke="#E58FB9" fill="none" />
        <circle cx="87.5" cy="187.5" r="8.333333333333334" stroke-width="2" stroke="#E58FB9" fill="none" />
        <circle cx="87.5" cy="187.5" r="6.25" stroke-width="3" stroke="#E58FB9" fill="none" />
        <circle cx="87.5" cy="187.5" r="8.333333333333334" stroke-width="2" stroke="#E58FB9" fill="none" />
        <circle cx="62.5" cy="187.5" r="4.166666666666667" stroke-width="1" stroke="#C48DDC" fill="none" />
        <circle cx="62.5" cy="187.5" r="8.333333333333334" stroke-width="1" stroke="#C48DDC" fill="none" />
        <circle cx="62.5" cy="187.5" r="2.0833333333333335" stroke-width="1" stroke="#C48DDC" fill="none" />
        <circle cx="62.5" cy="187.5" r="8.333333333333334" stroke-width="2" stroke="#C48DDC" fill="none" />
        <circle cx="62.5" cy="187.5" r="6.25" stroke-width="1" stroke="#C48DDC" fill="none" />
        <circle cx="12.5" cy="162.5" r="8.333333333333334" stroke-width="2" stroke="#93698B" fill="none" />
        <circle cx="12.5" cy="162.5" r="4.166666666666667" stroke-width="1" stroke="#93698B" fill="none" />
        <circle cx="12.5" cy="162.5" r="4.166666666666667" stroke-width="2" stroke="#93698B" fill="none" />
        <circle cx="12.5" cy="162.5" r="6.25" stroke-width="1" stroke="#93698B" fill="none" />
        <circle cx="12.5" cy="162.5" r="6.25" stroke-width="3" stroke="#93698B" fill="none" />
        <circle cx="37.5" cy="162.5" r="8.333333333333334" stroke-width="1" stroke="#1702C1" fill="none" />
        <circle cx="37.5" cy="162.5" r="4.166666666666667" stroke-width="1" stroke="#1702C1" fill="none" />
        <circle cx="37.5" cy="162.5" r="10.416666666666666" stroke-width="2" stroke="#1702C1" fill="none" />
        <circle cx="37.5" cy="162.5" r="6.25" stroke-width="2" stroke="#1702C1" fill="none" />
        <circle cx="37.5" cy="162.5" r="8.333333333333334" stroke-width="1" stroke="#1702C1" fill="none" />
        <circle cx="37.5" cy="187.5" r="6.25" stroke-width="1" stroke="#BE2514" fill="none" />
        <circle cx="37.5" cy="187.5" r="10.416666666666666" stroke-width="3" stroke="#BE2514" fill="none" />
        <circle cx="37.5" cy="187.5" r="10.416666666666666" stroke-width="3" stroke="#BE2514" fill="none" />
        <circle cx="37.5" cy="187.5" r="10.416666666666666" stroke-width="2" stroke="#BE2514" fill="none" />
        <circle cx="37.5" cy="187.5" r="4.166666666666667" stroke-width="1" stroke="#BE2514" fill="none" />
        <circle cx="12.5" cy="187.5" r="6.25" stroke-width="1" stroke="#BCED93" fill="none" />
        <circle cx="12.5" cy="187.5" r="8.333333333333334" stroke-width="3" stroke="#BCED93" fill="none" />
        <circle cx="12.5" cy="187.5" r="4.166666666666667" stroke-width="1" stroke="#BCED93" fill="none" />
        <circle cx="12.5" cy="187.5" r="8.333333333333334" stroke-width="1" stroke="#BCED93" fill="none" />
        <circle cx="12.5" cy="187.5" r="10.416666666666666" stroke-width="2" stroke="#BCED93" fill="none" />
    </g> 
</svg>