<?xml version="1.0" encoding="UTF-8" standalone="no"?>
<svg width="200" height="200" version="1.1" xmlns="http://www.w3.org/2000/svg">
    <g opacity="1.0">
        <rect x="0" y="0" width="25.0" height="25.0"  fill="#9BB25F" stroke="#9BB25F" stroke_width="0.5"  />
        <rect x="25.0" y="0.0" width="25.0" height="25.0"  fill="#CBC58B" stroke="#CBC58B" stroke_width="0.5"  />
        <rect x="25.0" y="25.0" width="25.0" height="25.0"  fill="#9050A1" stroke="#9050A1" stroke_width="0.5"  />
        <rect x="0.0" y="25.0" width="25.0" height="25.0"  fill="#C4F9D7" stroke="#C4F9D7" stroke_width="0.5"  />
        <rect x="50.0" y="0.0" width="25.0" height="25.0"  fill="#0686A5" stroke="#0686A5" stroke_width="0.5"  />
        <rect x="75.0" y="0.0" width="25.0" height="25.0"  fill="#A788B7" stroke="#A788B7" stroke_width="0.5"  />
        <rect x="75.0" y="25.0" width="25.0" height="25.0"  fill="#7D27CF" stroke="#7D27CF" stroke_width="0.5"  />
        <rect x="50.0" y="25.0" width="25.0" height="25.0"  fill="#94410F" stroke="#94410F" stroke_width="0.5"  />
        <rect x="50.0" y="50.0" width="25.0" height="25.0"  fill="#C0A2A8" stroke="#C0A2A8" stroke_width="0.5"  />
        <rect x="75.0" y="50.0" width="25.0" height="25.0"  fill="#F1EE43" stroke="#F1EE43" stroke_width="0.5"  />
        <rect x="75.0" y="75.0" width="25.0" height="25.0"  fill="#507B6F" stroke="#507B6F" stroke_width="0.5"  />
        <rect x="50.0" y="75.0" width="25.0" height="25.0"  fill="#154C77" stroke="#154C77" stroke_width="0.5"  />
        <rect x="0.0" y="50.0" width="25.0" height="25.0"  fill="#6E9791" stroke="#6E9791" stroke_width="0.5"  />
        <rect x="25.0" y="50.0" width="25.0" height="25.0"  fill="#35D919" stroke="#35D919" stroke_width="0.5"  />
        <rect x="25.0" y="75.0" width="25.0" height="25.0"  fill="#E0F020" stroke="#E0F020" stroke_width="0.5"  />
        <rect x="0.0" y="75.0" width="25.0" height="25.0"  fill="#0D9BE7" stroke="#0D9BE7" stroke_width="0.5"  />
        <rect x="100.0" y="0.0" width="25.0" height="25.0"  fill="#F646DF" stroke="#F646DF" stroke_width="0.5"  />
        <rect x="125.0" y="0.0" width="25.0" height="25.0"  fill="#A97D33" stroke="#A97D33" stroke_width="0.5"  />
        <rect x="125.0" y="25.0" width="25.0" height="25.0"  fill="#172F7D" stroke="#172F7D" stroke_width="0.5"  />
        <rect x="100.0" y="25.0" width="25.0" height="25.0"  fill="#4DDB79" stroke="#4DDB79" stroke_width="0.5"  />
        <rect x="150.0" y="0.0" width="25.0" height="25.0"  fill="#421006" stroke="#421006" stroke_width="0.5"  />
        <rect x="175.0" y="0.0" width="25.0" height="25.0"  fill="#6CFF25" stroke="#6CFF25" stroke_width="0.5"  />
        <rect x="175.0" y="25.0" width="25.0" height="25.0"  fill="#610E05" stroke="#610E05" stroke_width="0.5"  />
        <rect x="150.0" y="25.0" width="25.0" height="25.0"  fill="#82E732" stroke="#82E732" stroke_width="0.5"  />
        <rect x="150.0" y="50.0" width="25.0" height="25.0"  fill="#E05CC8" stroke="#E05CC8" stroke_width="0.5"  />
        <rect x="175.0" y="50.0" width="25.0" height="25.0"  fill="#016092" stroke="#016092" stroke_width="0.5"  />
        <rect x="175.0" y="75.0" width="25.0" height="25.0"  fill="#2BE9D5" stroke="#2BE9D5" stroke_width="0.5"  />
        <rect x="150.0" y="75.0" width="25.0" height="25.0"  fill="#03DA0B" stroke="#03DA0B" stroke_width="0.5"  />
        <rect x="100.0" y="50.0" width="25.0" height="25.0"  fill="#629EE2" stroke="#629EE2" stroke_width="0.5"  />
        <rect x="125.0" y="50.0" width="25.0" height="25.0"  fill="#2E264E" stroke="#2E264E" stroke_width="0.5"  />
        <rect x="125.0" y="75.0" width="25.0" height="25.0"  fill="#6710AB" stroke="#6710AB" stroke_width="0.5"  />
        <rect x="100.0" y="75.0" width="25.0" height="25.0"  fill="#ABDF7B" stroke="#ABDF7B" stroke_width="0.5"  />
        <rect x="100.0" y="100.0" width="25.0" height="25.0"  fill="#98D1A3" stroke="#98D1A3" stroke_width="0.5"  />
        <rect x="125.0" y="100.0" width="25.0" height="25.0"  fill="#A519D4" stroke="#A519D4" stroke_width="0.5"  />
        <rect x="125.0" y="125.0" width="25.0" height="25.0"  fill="#C4340C" stroke="#C4340C" stroke_width="0.5"  />
        <rect x="100.0" y="125.0" width="25.0" height="25.0"  fill="#1BBE98" stroke="#1BBE98" stroke_width="0.5"  />
        <rect x="150.0" y="100.0" width="25.0" height="25.0"  fill="#EB589D" stroke="#EB589D" stroke_width="0.5"  />
        <rect x="175.0" y="100.0" width="25.0" height="25.0"  fill="#3F2DBB" stroke="#3F2DBB" stroke_width="0.5"  />
        <rect x="175.0" y="125.0" width="25.0" height="25.0"  fill="#1D300D" stroke="#1D300D" stroke_width="0.5"  />
        <rect x="150.0" y="125.0" width="25.0" height="25.0"  fill="#B85105" stroke="#B85105" stroke_width="0.5"  />
        <rect x="150.0" y="150.0" width="25.0" height="25.0"  fill="#1C9B8D" stroke="#1C9B8D" stroke_width="0.5"  />
        <rect x="175.0" y="150.0" width="25.0" height="25.0"  fill="#C67663" stroke="#C67663" stroke_width="0.5"  />
        <rect x="175.0" y="175.0" width="25.0" height="25.0"  fill="#454274" stroke="#454274" stroke_width="0.5"  />
        <rect x="150.0" y="175.0" width="25.0" height="25.0"  fill="#386F85" stroke="#386F85" stroke_width="0.5"  />
        <rect x="100.0" y="150.0" width="25.0" height="25.0"  fill="#F68804" stroke="#F68804" stroke_width="0.5"  />
        <rect x="125.0" y="150.0" width="25.0" height="25.0"  fill="#328A3E" stroke="#328A3E" stroke_width="0.5"  />
        <rect x="125.0" y="175.0" width="25.0" height="25.0"  fill="#CBAE16" stroke="#CBAE16" stroke_width="0.5"  />
        <rect x="100.0" y="175.0" width="25.0" height="25.0"  fill="#F2774D" stroke="#F2774D" stroke_width="0.5"  />
        <rect x="0.0" y="100.0" width="25.0" height="25.0"  fill="#22C202" stroke="#22C202" stroke_width="0.5"  />
        <rect x="25.0" y="100.0" width="25.0" height="25.0"  fill="#FA5DED" stroke="#FA5DED" stroke_width="0.5"  />
        <rect x="25.0" y="125.0" width="25.0" height="25.0"  fill="#A1B383" stroke="#A1B383" stroke_width="0.5"  />
        <rect x="0.0" y="125.0" width="25.0" height="25.0"  fill="#7DE4DF" stroke="#7DE4DF" stroke_width="0.5"  />
        <rect x="50.0" y="100.0" width="25.0" height="25.0"  fill="#E77FA4" stroke="#E77FA4" stroke_width="0.5"  />
        <rect x="75.0" y="100.0" width="25.0" height="25.0"  fill="#FE1D47" stroke="#FE1D47" stroke_width="0.5"  />
        <rect x="75.0" y="125.0" width="25.0" height="25.0"  fill="#CD75C9" stroke="#CD75C9" stroke_width="0.5"  />
        <rect x="50.0" y="125.0" width="25.0" height="25.0"  fill="#38FF5C" stroke="#38FF5C" stroke_width="0.5"  />
        <rect x="50.0" y="150.0" width="25.0" height="25.0"  fill="#0497AC" stroke="#0497AC" stroke_width="0.5"  />
        <rect x="75.0" y="150.0" width="25.0" height="25.0"  fill="#E30CE3" stroke="#E30CE3" stroke_width="0.5"  />
        <rect x="75.0" y="175.0" width="25.0" height="25.0"  fill="#883B20" stroke="#883B20" stroke_width="0.5"  />
        <rect x="50.0" y="175.0" width="25.0" height="25.0"  fill="#F860D2" stroke="#F860D2" stroke_width="0.5"  />
        <rect x="0.0" y="150.0" width="25.0" height="25.0"  fill="#92A42A" stroke="#92A42A" stroke_width="0.5"  />
        <rect x="25.0" y="150.0" width="25.0" height="25.0"  fill="#DA5983" stroke="#DA5983" stroke_width="0.5"  />
        <rect x="25.0" y="175.0" width="25.0" height="25.0"  fill="#FBDC70" stroke="#FBDC70" stroke_width="0.5"  />
        <rect x="0.0" y="175.0" width="25.0" height="25.0"  fill="#14041B" stroke="#14041B" stroke_width="0.5"  />
    </g> 
</svg>