<?xml version="1.0" encoding="UTF-8" standalone="no"?>
<svg width="200" height="200" xmlns="http://www.w3.org/2000/svg">
        <g opacity="0.8">
<rect x="0" y="0" width="12.5" height="12.5"         fill="#C1FD4C" stroke="#C1FD4C" stroke_width="0.5"  />
<rect x="12.5" y="0.0" width="12.5" height="12.5"         fill="#34E698" stroke="#34E698" stroke_width="0.5"  />
<rect x="12.5" y="12.5" width="12.5" height="12.5"         fill="#09CDF6" stroke="#09CDF6" stroke_width="0.5"  />
<rect x="0.0" y="12.5" width="12.5" height="12.5"         fill="#DD421E" stroke="#DD421E" stroke_width="0.5"  />
<rect x="25.0" y="0.0" width="12.5" height="12.5"         fill="#3250BB" stroke="#3250BB" stroke_width="0.5"  />
<rect x="37.5" y="0.0" width="12.5" height="12.5"         fill="#8CC33E" stroke="#8CC33E" stroke_width="0.5"  />
<rect x="37.5" y="12.5" width="12.5" height="12.5"         fill="#110052" stroke="#110052" stroke_width="0.5"  />
<rect x="25.0" y="12.5" width="12.5" height="12.5"         fill="#1309FE" stroke="#1309FE" stroke_width="0.5"  />
<rect x="25.0" y="25.0" width="12.5" height="12.5"         fill="#B4644A" stroke="#B4644A" stroke_width="0.5"  />
<rect x="37.5" y="25.0" width="12.5" height="12.5"         fill="#FCFB84" stroke="#FCFB84" stroke_width="0.5"  />
<rect x="37.5" y="37.5" width="12.5" height="12.5"         fill="#E94E8B" stroke="#E94E8B" stroke_width="0.5"  />
<rect x="25.0" y="37.5" width="12.5" height="12.5"         fill="#2862B1" stroke="#2862B1" stroke_width="0.5"  />
<rect x="0.0" y="25.0" width="12.5" height="12.5"         fill="#982E4A" stroke="#982E4A" stroke_width="0.5"  />
<rect x="12.5" y="25.0" width="12.5" height="12.5"         fill="#B9977F" stroke="#B9977F" stroke_width="0.5"  />
<rect x="12.5" y="37.5" width="12.5" height="12.5"         fill="#102AFE" stroke="#102AFE" stroke_width="0.5"  />
<rect x="0.0" y="37.5" width="12.5" height="12.5"         fill="#897A80" stroke="#897A80" stroke_width="0.5"  />
<rect x="50.0" y="0.0" width="12.5" height="12.5"         fill="#F131C3" stroke="#F131C3" stroke_width="0.5"  />
<rect x="62.5" y="0.0" width="12.5" height="12.5"         fill="#55D643" stroke="#55D643" stroke_width="0.5"  />
<rect x="62.5" y="12.5" width="12.5" height="12.5"         fill="#A5985A" stroke="#A5985A" stroke_width="0.5"  />
<rect x="50.0" y="12.5" width="12.5" height="12.5"         fill="#DE9613" stroke="#DE9613" stroke_width="0.5"  />
<rect x="75.0" y="0.0" width="12.5" height="12.5"         fill="#678D8E" stroke="#678D8E" stroke_width="0.5"  />
<rect x="87.5" y="0.0" width="12.5" height="12.5"         fill="#AAB6B3" stroke="#AAB6B3" stroke_width="0.5"  />
<rect x="87.5" y="12.5" width="12.5" height="12.5"         fill="#7ED879" stroke="#7ED879" stroke_width="0.5"  />
<rect x="75.0" y="12.5" width="12.5" height="12.5"         fill="#78FD03" stroke="#78FD03" stroke_width="0.5"  />
<rect x="75.0" y="25.0" width="12.5" height="12.5"         fill="#CAB8C5" stroke="#CAB8C5" stroke_width="0.5"  />
<rect x="87.5" y="25.0" width="12.5" height="12.5"         fill="#474351" stroke="#474351" stroke_width="0.5"  />
<rect x="87.5" y="37.5" width="12.5" height="12.5"         fill="#A713E6" stroke="#A713E6" stroke_width="0.5"  />
<rect x="75.0" y="37.5" width="12.5" height="12.5"         fill="#71F9C6" stroke="#71F9C6" stroke_width="0.5"  />
<rect x="50.0" y="25.0" width="12.5" height="12.5"         fill="#355AFD" stroke="#355AFD" stroke_width="0.5"  />
<rect x="62.5" y="25.0" width="12.5" height="12.5"         fill="#6936D8" stroke="#6936D8" stroke_width="0.5"  />
<rect x="62.5" y="37.5" width="12.5" height="12.5"         fill="#8CA598" stroke="#8CA598" stroke_width="0.5"  />
<rect x="50.0" y="37.5" width="12.5" height="12.5"         fill="#F1D939" stroke="#F1D939" stroke_width="0.5"  />
<rect x="50.0" y="50.0" width="12.5" height="12.5"         fill="#8A714D" stroke="#8A714D" stroke_width="0.5"  />
<rect x="62.5" y="50.0" width="12.5" height="12.5"         fill="#0EA016" stroke="#0EA016" stroke_width="0.5"  />
<rect x="62.5" y="62.5" width="12.5" height="12.5"         fill="#9C9BE8" stroke="#9C9BE8" stroke_width="0.5"  />
<rect x="50.0" y="62.5" width="12.5" height="12.5"         fill="#3C7EDB" stroke="#3C7EDB" stroke_width="0.5"  />
<rect x="75.0" y="50.0" width="12.5" height="12.5"         fill="#BC9E46" stroke="#BC9E46" stroke_width="0.5"  />
<rect x="87.5" y="50.0" width="12.5" height="12.5"         fill="#5C3A1E" stroke="#5C3A1E" stroke_width="0.5"  />
<rect x="87.5" y="62.5" width="12.5" height="12.5"         fill="#9A538F" stroke="#9A538F" stroke_width="0.5"  />
<rect x="75.0" y="62.5" width="12.5" height="12.5"         fill="#5C43C7" stroke="#5C43C7" stroke_width="0.5"  />
<rect x="75.0" y="75.0" width="12.5" height="12.5"         fill="#2CA0B8" stroke="#2CA0B8" stroke_width="0.5"  />
<rect x="87.5" y="75.0" width="12.5" height="12.5"         fill="#F98047" stroke="#F98047" stroke_width="0.5"  />
<rect x="87.5" y="87.5" width="12.5" height="12.5"         fill="#FD5C36" stroke="#FD5C36" stroke_width="0.5"  />
<rect x="75.0" y="87.5" width="12.5" height="12.5"         fill="#C5169D" stroke="#C5169D" stroke_width="0.5"  />
<rect x="50.0" y="75.0" width="12.5" height="12.5"         fill="#D430AF" stroke="#D430AF" stroke_width="0.5"  />
<rect x="62.5" y="75.0" width="12.5" height="12.5"         fill="#00E8F9" stroke="#00E8F9" stroke_width="0.5"  />
<rect x="62.5" y="87.5" width="12.5" height="12.5"         fill="#BDEAD5" stroke="#BDEAD5" stroke_width="0.5"  />
<rect x="50.0" y="87.5" width="12.5" height="12.5"         fill="#633D3F" stroke="#633D3F" stroke_width="0.5"  />
<rect x="0.0" y="50.0" width="12.5" height="12.5"         fill="#72E634" stroke="#72E634" stroke_width="0.5"  />
<rect x="12.5" y="50.0" width="12.5" height="12.5"         fill="#969891" stroke="#969891" stroke_width="0.5"  />
<rect x="12.5" y="62.5" width="12.5" height="12.5"         fill="#EFCAAE" stroke="#EFCAAE" stroke_width="0.5"  />
<rect x="0.0" y="62.5" width="12.5" height="12.5"         fill="#EA6CDB" stroke="#EA6CDB" stroke_width="0.5"  />
<rect x="25.0" y="50.0" width="12.5" height="12.5"         fill="#FB5E8B" stroke="#FB5E8B" stroke_width="0.5"  />
<rect x="37.5" y="50.0" width="12.5" height="12.5"         fill="#FE5E88" stroke="#FE5E88" stroke_width="0.5"  />
<rect x="37.5" y="62.5" width="12.5" height="12.5"         fill="#4D2617" stroke="#4D2617" stroke_width="0.5"  />
<rect x="25.0" y="62.5" width="12.5" height="12.5"         fill="#70B6E9" stroke="#70B6E9" stroke_width="0.5"  />
<rect x="25.0" y="75.0" width="12.5" height="12.5"         fill="#936B23" stroke="#936B23" stroke_width="0.5"  />
<rect x="37.5" y="75.0" width="12.5" height="12.5"         fill="#B2FBC7" stroke="#B2FBC7" stroke_width="0.5"  />
<rect x="37.5" y="87.5" width="12.5" height="12.5"         fill="#6A2554" stroke="#6A2554" stroke_width="0.5"  />
<rect x="25.0" y="87.5" width="12.5" height="12.5"         fill="#C539DD" stroke="#C539DD" stroke_width="0.5"  />
<rect x="0.0" y="75.0" width="12.5" height="12.5"         fill="#F24F0A" stroke="#F24F0A" stroke_width="0.5"  />
<rect x="12.5" y="75.0" width="12.5" height="12.5"         fill="#85E4DB" stroke="#85E4DB" stroke_width="0.5"  />
<rect x="12.5" y="87.5" width="12.5" height="12.5"         fill="#B0EF80" stroke="#B0EF80" stroke_width="0.5"  />
<rect x="0.0" y="87.5" width="12.5" height="12.5"         fill="#7D7204" stroke="#7D7204" stroke_width="0.5"  />
<rect x="100.0" y="0.0" width="12.5" height="12.5"         fill="#F4116B" stroke="#F4116B" stroke_width="0.5"  />
<rect x="112.5" y="0.0" width="12.5" height="12.5"         fill="#481185" stroke="#481185" stroke_width="0.5"  />
<rect x="112.5" y="12.5" width="12.5" height="12.5"         fill="#A20B39" stroke="#A20B39" stroke_width="0.5"  />
<rect x="100.0" y="12.5" width="12.5" height="12.5"         fill="#B54F87" stroke="#B54F87" stroke_width="0.5"  />
<rect x="125.0" y="0.0" width="12.5" height="12.5"         fill="#471AEE" stroke="#471AEE" stroke_width="0.5"  />
<rect x="137.5" y="0.0" width="12.5" height="12.5"         fill="#2D2FA7" stroke="#2D2FA7" stroke_width="0.5"  />
<rect x="137.5" y="12.5" width="12.5" height="12.5"         fill="#1C7BA9" stroke="#1C7BA9" stroke_width="0.5"  />
<rect x="125.0" y="12.5" width="12.5" height="12.5"         fill="#C551FD" stroke="#C551FD" stroke_width="0.5"  />
<rect x="125.0" y="25.0" width="12.5" height="12.5"         fill="#20B7E7" stroke="#20B7E7" stroke_width="0.5"  />
<rect x="137.5" y="25.0" width="12.5" height="12.5"         fill="#B294CD" stroke="#B294CD" stroke_width="0.5"  />
<rect x="137.5" y="37.5" width="12.5" height="12.5"         fill="#8C2444" stroke="#8C2444" stroke_width="0.5"  />
<rect x="125.0" y="37.5" width="12.5" height="12.5"         fill="#178388" stroke="#178388" stroke_width="0.5"  />
<rect x="100.0" y="25.0" width="12.5" height="12.5"         fill="#9CAE8A" stroke="#9CAE8A" stroke_width="0.5"  />
<rect x="112.5" y="25.0" width="12.5" height="12.5"         fill="#2A7DE4" stroke="#2A7DE4" stroke_width="0.5"  />
<rect x="112.5" y="37.5" width="12.5" height="12.5"         fill="#730CD5" stroke="#730CD5" stroke_width="0.5"  />
<rect x="100.0" y="37.5" width="12.5" height="12.5"         fill="#61AB1B" stroke="#61AB1B" stroke_width="0.5"  />
<rect x="150.0" y="0.0" width="12.5" height="12.5"         fill="#FE049B" stroke="#FE049B" stroke_width="0.5"  />
<rect x="162.5" y="0.0" width="12.5" height="12.5"         fill="#CB638E" stroke="#CB638E" stroke_width="0.5"  />
<rect x="162.5" y="12.5" width="12.5" height="12.5"         fill="#D7C5E6" stroke="#D7C5E6" stroke_width="0.5"  />
<rect x="150.0" y="12.5" width="12.5" height="12.5"         fill="#428F2C" stroke="#428F2C" stroke_width="0.5"  />
<rect x="175.0" y="0.0" width="12.5" height="12.5"         fill="#43B5B0" stroke="#43B5B0" stroke_width="0.5"  />
<rect x="187.5" y="0.0" width="12.5" height="12.5"         fill="#DFA28C" stroke="#DFA28C" stroke_width="0.5"  />
<rect x="187.5" y="12.5" width="12.5" height="12.5"         fill="#6BABE8" stroke="#6BABE8" stroke_width="0.5"  />
<rect x="175.0" y="12.5" width="12.5" height="12.5"         fill="#0E5D89" stroke="#0E5D89" stroke_width="0.5"  />
<rect x="175.0" y="25.0" width="12.5" height="12.5"         fill="#DE9238" stroke="#DE9238" stroke_width="0.5"  />
<rect x="187.5" y="25.0" width="12.5" height="12.5"         fill="#6681D9" stroke="#6681D9" stroke_width="0.5"  />
<rect x="187.5" y="37.5" width="12.5" height="12.5"         fill="#52BF6D" stroke="#52BF6D" stroke_width="0.5"  />
<rect x="175.0" y="37.5" width="12.5" height="12.5"         fill="#1A6E3C" stroke="#1A6E3C" stroke_width="0.5"  />
<rect x="150.0" y="25.0" width="12.5" height="12.5"         fill="#E5F74F" stroke="#E5F74F" stroke_width="0.5"  />
<rect x="162.5" y="25.0" width="12.5" height="12.5"         fill="#FFED00" stroke="#FFED00" stroke_width="0.5"  />
<rect x="162.5" y="37.5" width="12.5" height="12.5"         fill="#B63202" stroke="#B63202" stroke_width="0.5"  />
<rect x="150.0" y="37.5" width="12.5" height="12.5"         fill="#44661A" stroke="#44661A" stroke_width="0.5"  />
<rect x="150.0" y="50.0" width="12.5" height="12.5"         fill="#24CD8E" stroke="#24CD8E" stroke_width="0.5"  />
<rect x="162.5" y="50.0" width="12.5" height="12.5"         fill="#0C4547" stroke="#0C4547" stroke_width="0.5"  />
<rect x="162.5" y="62.5" width="12.5" height="12.5"         fill="#4A56B3" stroke="#4A56B3" stroke_width="0.5"  />
<rect x="150.0" y="62.5" width="12.5" height="12.5"         fill="#566255" stroke="#566255" stroke_width="0.5"  />
<rect x="175.0" y="50.0" width="12.5" height="12.5"         fill="#47E6EA" stroke="#47E6EA" stroke_width="0.5"  />
<rect x="187.5" y="50.0" width="12.5" height="12.5"         fill="#6A0261" stroke="#6A0261" stroke_width="0.5"  />
<rect x="187.5" y="62.5" width="12.5" height="12.5"         fill="#F5FE0B" stroke="#F5FE0B" stroke_width="0.5"  />
<rect x="175.0" y="62.5" width="12.5" height="12.5"         fill="#D21C7B" stroke="#D21C7B" stroke_width="0.5"  />
<rect x="175.0" y="75.0" width="12.5" height="12.5"         fill="#6DB89E" stroke="#6DB89E" stroke_width="0.5"  />
<rect x="187.5" y="75.0" width="12.5" height="12.5"         fill="#032952" stroke="#032952" stroke_width="0.5"  />
<rect x="187.5" y="87.5" width="12.5" height="12.5"         fill="#BDB2B3" stroke="#BDB2B3" stroke_width="0.5"  />
<rect x="175.0" y="87.5" width="12.5" height="12.5"         fill="#996944" stroke="#996944" stroke_width="0.5"  />
<rect x="150.0" y="75.0" width="12.5" height="12.5"         fill="#583449" stroke="#583449" stroke_width="0.5"  />
<rect x="162.5" y="75.0" width="12.5" height="12.5"         fill="#051675" stroke="#051675" stroke_width="0.5"  />
<rect x="162.5" y="87.5" width="12.5" height="12.5"         fill="#94DCE8" stroke="#94DCE8" stroke_width="0.5"  />
<rect x="150.0" y="87.5" width="12.5" height="12.5"         fill="#C402F7" stroke="#C402F7" stroke_width="0.5"  />
<rect x="100.0" y="50.0" width="12.5" height="12.5"         fill="#7B8660" stroke="#7B8660" stroke_width="0.5"  />
<rect x="112.5" y="50.0" width="12.5" height="12.5"         fill="#BA85C9" stroke="#BA85C9" stroke_width="0.5"  />
<rect x="112.5" y="62.5" width="12.5" height="12.5"         fill="#0FEBDC" stroke="#0FEBDC" stroke_width="0.5"  />
<rect x="100.0" y="62.5" width="12.5" height="12.5"         fill="#FBCF7D" stroke="#FBCF7D" stroke_width="0.5"  />
<rect x="125.0" y="50.0" width="12.5" height="12.5"         fill="#E23CFD" stroke="#E23CFD" stroke_width="0.5"  />
<rect x="137.5" y="50.0" width="12.5" height="12.5"         fill="#4D6542" stroke="#4D6542" stroke_width="0.5"  />
<rect x="137.5" y="62.5" width="12.5" height="12.5"         fill="#BCE993" stroke="#BCE993" stroke_width="0.5"  />
<rect x="125.0" y="62.5" width="12.5" height="12.5"         fill="#C98889" stroke="#C98889" stroke_width="0.5"  />
<rect x="125.0" y="75.0" width="12.5" height="12.5"         fill="#C65A1D" stroke="#C65A1D" stroke_width="0.5"  />
<rect x="137.5" y="75.0" width="12.5" height="12.5"         fill="#2991BF" stroke="#2991BF" stroke_width="0.5"  />
<rect x="137.5" y="87.5" width="12.5" height="12.5"         fill="#609287" stroke="#609287" stroke_width="0.5"  />
<rect x="125.0" y="87.5" width="12.5" height="12.5"         fill="#C788A8" stroke="#C788A8" stroke_width="0.5"  />
<rect x="100.0" y="75.0" width="12.5" height="12.5"         fill="#7D3E16" stroke="#7D3E16" stroke_width="0.5"  />
<rect x="112.5" y="75.0" width="12.5" height="12.5"         fill="#CFBB3E" stroke="#CFBB3E" stroke_width="0.5"  />
<rect x="112.5" y="87.5" width="12.5" height="12.5"         fill="#2A2D91" stroke="#2A2D91" stroke_width="0.5"  />
<rect x="100.0" y="87.5" width="12.5" height="12.5"         fill="#941DB3" stroke="#941DB3" stroke_width="0.5"  />
<rect x="100.0" y="100.0" width="12.5" height="12.5"         fill="#625666" stroke="#625666" stroke_width="0.5"  />
<rect x="112.5" y="100.0" width="12.5" height="12.5"         fill="#144388" stroke="#144388" stroke_width="0.5"  />
<rect x="112.5" y="112.5" width="12.5" height="12.5"         fill="#931DEA" stroke="#931DEA" stroke_width="0.5"  />
<rect x="100.0" y="112.5" width="12.5" height="12.5"         fill="#4A316A" stroke="#4A316A" stroke_width="0.5"  />
<rect x="125.0" y="100.0" width="12.5" height="12.5"         fill="#46793E" stroke="#46793E" stroke_width="0.5"  />
<rect x="137.5" y="100.0" width="12.5" height="12.5"         fill="#32B093" stroke="#32B093" stroke_width="0.5"  />
<rect x="137.5" y="112.5" width="12.5" height="12.5"         fill="#60251B" stroke="#60251B" stroke_width="0.5"  />
<rect x="125.0" y="112.5" width="12.5" height="12.5"         fill="#76D98F" stroke="#76D98F" stroke_width="0.5"  />
<rect x="125.0" y="125.0" width="12.5" height="12.5"         fill="#98316C" stroke="#98316C" stroke_width="0.5"  />
<rect x="137.5" y="125.0" width="12.5" height="12.5"         fill="#BCB658" stroke="#BCB658" stroke_width="0.5"  />
<rect x="137.5" y="137.5" width="12.5" height="12.5"         fill="#327178" stroke="#327178" stroke_width="0.5"  />
<rect x="125.0" y="137.5" width="12.5" height="12.5"         fill="#81AF11" stroke="#81AF11" stroke_width="0.5"  />
<rect x="100.0" y="125.0" width="12.5" height="12.5"         fill="#09F958" stroke="#09F958" stroke_width="0.5"  />
<rect x="112.5" y="125.0" width="12.5" height="12.5"         fill="#14723D" stroke="#14723D" stroke_width="0.5"  />
<rect x="112.5" y="137.5" width="12.5" height="12.5"         fill="#A5ED71" stroke="#A5ED71" stroke_width="0.5"  />
<rect x="100.0" y="137.5" width="12.5" height="12.5"         fill="#188EBA" stroke="#188EBA" stroke_width="0.5"  />
<rect x="150.0" y="100.0" width="12.5" height="12.5"         fill="#71C726" stroke="#71C726" stroke_width="0.5"  />
<rect x="162.5" y="100.0" width="12.5" height="12.5"         fill="#16E2CA" stroke="#16E2CA" stroke_width="0.5"  />
<rect x="162.5" y="112.5" width="12.5" height="12.5"         fill="#9E1E5A" stroke="#9E1E5A" stroke_width="0.5"  />
<rect x="150.0" y="112.5" width="12.5" height="12.5"         fill="#489370" stroke="#489370" stroke_width="0.5"  />
<rect x="175.0" y="100.0" width="12.5" height="12.5"         fill="#648AD5" stroke="#648AD5" stroke_width="0.5"  />
<rect x="187.5" y="100.0" width="12.5" height="12.5"         fill="#C34040" stroke="#C34040" stroke_width="0.5"  />
<rect x="187.5" y="112.5" width="12.5" height="12.5"         fill="#7D9165" stroke="#7D9165" stroke_width="0.5"  />
<rect x="175.0" y="112.5" width="12.5" height="12.5"         fill="#0FC66D" stroke="#0FC66D" stroke_width="0.5"  />
<rect x="175.0" y="125.0" width="12.5" height="12.5"         fill="#7FBDC4" stroke="#7FBDC4" stroke_width="0.5"  />
<rect x="187.5" y="125.0" width="12.5" height="12.5"         fill="#91ACFF" stroke="#91ACFF" stroke_width="0.5"  />
<rect x="187.5" y="137.5" width="12.5" height="12.5"         fill="#F3EE22" stroke="#F3EE22" stroke_width="0.5"  />
<rect x="175.0" y="137.5" width="12.5" height="12.5"         fill="#AC3BC0" stroke="#AC3BC0" stroke_width="0.5"  />
<rect x="150.0" y="125.0" width="12.5" height="12.5"         fill="#D987CE" stroke="#D987CE" stroke_width="0.5"  />
<rect x="162.5" y="125.0" width="12.5" height="12.5"         fill="#D9FB6B" stroke="#D9FB6B" stroke_width="0.5"  />
<rect x="162.5" y="137.5" width="12.5" height="12.5"         fill="#DE644E" stroke="#DE644E" stroke_width="0.5"  />
<rect x="150.0" y="137.5" width="12.5" height="12.5"         fill="#FCFC7C" stroke="#FCFC7C" stroke_width="0.5"  />
<rect x="150.0" y="150.0" width="12.5" height="12.5"         fill="#A127CE" stroke="#A127CE" stroke_width="0.5"  />
<rect x="162.5" y="150.0" width="12.5" height="12.5"         fill="#29286D" stroke="#29286D" stroke_width="0.5"  />
<rect x="162.5" y="162.5" width="12.5" height="12.5"         fill="#B10055" stroke="#B10055" stroke_width="0.5"  />
<rect x="150.0" y="162.5" width="12.5" height="12.5"         fill="#E1B16F" stroke="#E1B16F" stroke_width="0.5"  />
<rect x="175.0" y="150.0" width="12.5" height="12.5"         fill="#44EF61" stroke="#44EF61" stroke_width="0.5"  />
<rect x="187.5" y="150.0" width="12.5" height="12.5"         fill="#96907A" stroke="#96907A" stroke_width="0.5"  />
<rect x="187.5" y="162.5" width="12.5" height="12.5"         fill="#BFB6D3" stroke="#BFB6D3" stroke_width="0.5"  />
<rect x="175.0" y="162.5" width="12.5" height="12.5"         fill="#9AB316" stroke="#9AB316" stroke_width="0.5"  />
<rect x="175.0" y="175.0" width="12.5" height="12.5"         fill="#C194E6" stroke="#C194E6" stroke_width="0.5"  />
<rect x="187.5" y="175.0" width="12.5" height="12.5"         fill="#194C03" stroke="#194C03" stroke_width="0.5"  />
<rect x="187.5" y="187.5" width="12.5" height="12.5"         fill="#46ACBE" stroke="#46ACBE" stroke_width="0.5"  />
<rect x="175.0" y="187.5" width="12.5" height="12.5"         fill="#37D704" stroke="#37D704" stroke_width="0.5"  />
<rect x="150.0" y="175.0" width="12.5" height="12.5"         fill="#6DBE30" stroke="#6DBE30" stroke_width="0.5"  />
<rect x="162.5" y="175.0" width="12.5" height="12.5"         fill="#C29FFC" stroke="#C29FFC" stroke_width="0.5"  />
<rect x="162.5" y="187.5" width="12.5" height="12.5"         fill="#2FDCBF" stroke="#2FDCBF" stroke_width="0.5"  />
<rect x="150.0" y="187.5" width="12.5" height="12.5"         fill="#D2529B" stroke="#D2529B" stroke_width="0.5"  />
<rect x="100.0" y="150.0" width="12.5" height="12.5"         fill="#839199" stroke="#839199" stroke_width="0.5"  />
<rect x="112.5" y="150.0" width="12.5" height="12.5"         fill="#577422" stroke="#577422" stroke_width="0.5"  />
<rect x="112.5" y="162.5" width="12.5" height="12.5"         fill="#6D453A" stroke="#6D453A" stroke_width="0.5"  />
<rect x="100.0" y="162.5" width="12.5" height="12.5"         fill="#128E55" stroke="#128E55" stroke_width="0.5"  />
<rect x="125.0" y="150.0" width="12.5" height="12.5"         fill="#E5F9FF" stroke="#E5F9FF" stroke_width="0.5"  />
<rect x="137.5" y="150.0" width="12.5" height="12.5"         fill="#AE978C" stroke="#AE978C" stroke_width="0.5"  />
<rect x="137.5" y="162.5" width="12.5" height="12.5"         fill="#DA424D" stroke="#DA424D" stroke_width="0.5"  />
<rect x="125.0" y="162.5" width="12.5" height="12.5"         fill="#F7B512" stroke="#F7B512" stroke_width="0.5"  />
<rect x="125.0" y="175.0" width="12.5" height="12.5"         fill="#192492" stroke="#192492" stroke_width="0.5"  />
<rect x="137.5" y="175.0" width="12.5" height="12.5"         fill="#F52DA4" stroke="#F52DA4" stroke_width="0.5"  />
<rect x="137.5" y="187.5" width="12.5" height="12.5"         fill="#A768F7" stroke="#A768F7" stroke_width="0.5"  />
<rect x="125.0" y="187.5" width="12.5" height="12.5"         fill="#E5AF18" stroke="#E5AF18" stroke_width="0.5"  />
<rect x="100.0" y="175.0" width="12.5" height="12.5"         fill="#53BB08" stroke="#53BB08" stroke_width="0.5"  />
<rect x="112.5" y="175.0" width="12.5" height="12.5"         fill="#CD5D8A" stroke="#CD5D8A" stroke_width="0.5"  />
<rect x="112.5" y="187.5" width="12.5" height="12.5"         fill="#969909" stroke="#969909" stroke_width="0.5"  />
<rect x="100.0" y="187.5" width="12.5" height="12.5"         fill="#1AABB8" stroke="#1AABB8" stroke_width="0.5"  />
<rect x="0.0" y="100.0" width="12.5" height="12.5"         fill="#8BDE8A" stroke="#8BDE8A" stroke_width="0.5"  />
<rect x="12.5" y="100.0" width="12.5" height="12.5"         fill="#0FFA04" stroke="#0FFA04" stroke_width="0.5"  />
<rect x="12.5" y="112.5" width="12.5" height="12.5"         fill="#3A4126" stroke="#3A4126" stroke_width="0.5"  />
<rect x="0.0" y="112.5" width="12.5" height="12.5"         fill="#ABE7AA" stroke="#ABE7AA" stroke_width="0.5"  />
<rect x="25.0" y="100.0" width="12.5" height="12.5"         fill="#1903B5" stroke="#1903B5" stroke_width="0.5"  />
<rect x="37.5" y="100.0" width="12.5" height="12.5"         fill="#37C68D" stroke="#37C68D" stroke_width="0.5"  />
<rect x="37.5" y="112.5" width="12.5" height="12.5"         fill="#F25ED2" stroke="#F25ED2" stroke_width="0.5"  />
<rect x="25.0" y="112.5" width="12.5" height="12.5"         fill="#E8DD7A" stroke="#E8DD7A" stroke_width="0.5"  />
<rect x="25.0" y="125.0" width="12.5" height="12.5"         fill="#C771CD" stroke="#C771CD" stroke_width="0.5"  />
<rect x="37.5" y="125.0" width="12.5" height="12.5"         fill="#FB1AF6" stroke="#FB1AF6" stroke_width="0.5"  />
<rect x="37.5" y="137.5" width="12.5" height="12.5"         fill="#330DC9" stroke="#330DC9" stroke_width="0.5"  />
<rect x="25.0" y="137.5" width="12.5" height="12.5"         fill="#ABE327" stroke="#ABE327" stroke_width="0.5"  />
<rect x="0.0" y="125.0" width="12.5" height="12.5"         fill="#38D50E" stroke="#38D50E" stroke_width="0.5"  />
<rect x="12.5" y="125.0" width="12.5" height="12.5"         fill="#22C7DF" stroke="#22C7DF" stroke_width="0.5"  />
<rect x="12.5" y="137.5" width="12.5" height="12.5"         fill="#AB7384" stroke="#AB7384" stroke_width="0.5"  />
<rect x="0.0" y="137.5" width="12.5" height="12.5"         fill="#B6B7CA" stroke="#B6B7CA" stroke_width="0.5"  />
<rect x="50.0" y="100.0" width="12.5" height="12.5"         fill="#F343F4" stroke="#F343F4" stroke_width="0.5"  />
<rect x="62.5" y="100.0" width="12.5" height="12.5"         fill="#0ED4DC" stroke="#0ED4DC" stroke_width="0.5"  />
<rect x="62.5" y="112.5" width="12.5" height="12.5"         fill="#89D94E" stroke="#89D94E" stroke_width="0.5"  />
<rect x="50.0" y="112.5" width="12.5" height="12.5"         fill="#A6B976" stroke="#A6B976" stroke_width="0.5"  />
<rect x="75.0" y="100.0" width="12.5" height="12.5"         fill="#0B7A52" stroke="#0B7A52" stroke_width="0.5"  />
<rect x="87.5" y="100.0" width="12.5" height="12.5"         fill="#593C6A" stroke="#593C6A" stroke_width="0.5"  />
<rect x="87.5" y="112.5" width="12.5" height="12.5"         fill="#FC9D44" stroke="#FC9D44" stroke_width="0.5"  />
<rect x="75.0" y="112.5" width="12.5" height="12.5"         fill="#4A739B" stroke="#4A739B" stroke_width="0.5"  />
<rect x="75.0" y="125.0" width="12.5" height="12.5"         fill="#EE4B5E" stroke="#EE4B5E" stroke_width="0.5"  />
<rect x="87.5" y="125.0" width="12.5" height="12.5"         fill="#2F55F0" stroke="#2F55F0" stroke_width="0.5"  />
<rect x="87.5" y="137.5" width="12.5" height="12.5"         fill="#95149D" stroke="#95149D" stroke_width="0.5"  />
<rect x="75.0" y="137.5" width="12.5" height="12.5"         fill="#7F53C6" stroke="#7F53C6" stroke_width="0.5"  />
<rect x="50.0" y="125.0" width="12.5" height="12.5"         fill="#57B9CD" stroke="#57B9CD" stroke_width="0.5"  />
<rect x="62.5" y="125.0" width="12.5" height="12.5"         fill="#CF5D39" stroke="#CF5D39" stroke_width="0.5"  />
<rect x="62.5" y="137.5" width="12.5" height="12.5"         fill="#5C90F2" stroke="#5C90F2" stroke_width="0.5"  />
<rect x="50.0" y="137.5" width="12.5" height="12.5"         fill="#27B53E" stroke="#27B53E" stroke_width="0.5"  />
<rect x="50.0" y="150.0" width="12.5" height="12.5"         fill="#DC06CC" stroke="#DC06CC" stroke_width="0.5"  />
<rect x="62.5" y="150.0" width="12.5" height="12.5"         fill="#6791D6" stroke="#6791D6" stroke_width="0.5"  />
<rect x="62.5" y="162.5" width="12.5" height="12.5"         fill="#02BA82" stroke="#02BA82" stroke_width="0.5"  />
<rect x="50.0" y="162.5" width="12.5" height="12.5"         fill="#597871" stroke="#597871" stroke_width="0.5"  />
<rect x="75.0" y="150.0" width="12.5" height="12.5"         fill="#BDFA21" stroke="#BDFA21" stroke_width="0.5"  />
<rect x="87.5" y="150.0" width="12.5" height="12.5"         fill="#5FA3D0" stroke="#5FA3D0" stroke_width="0.5"  />
<rect x="87.5" y="162.5" width="12.5" height="12.5"         fill="#A31D30" stroke="#A31D30" stroke_width="0.5"  />
<rect x="75.0" y="162.5" width="12.5" height="12.5"         fill="#63948B" stroke="#63948B" stroke_width="0.5"  />
<rect x="75.0" y="175.0" width="12.5" height="12.5"         fill="#5A9483" stroke="#5A9483" stroke_width="0.5"  />
<rect x="87.5" y="175.0" width="12.5" height="12.5"         fill="#5AC2DC" stroke="#5AC2DC" stroke_width="0.5"  />
<rect x="87.5" y="187.5" width="12.5" height="12.5"         fill="#E8D0B6" stroke="#E8D0B6" stroke_width="0.5"  />
<rect x="75.0" y="187.5" width="12.5" height="12.5"         fill="#F7310F" stroke="#F7310F" stroke_width="0.5"  />
<rect x="50.0" y="175.0" width="12.5" height="12.5"         fill="#6872C7" stroke="#6872C7" stroke_width="0.5"  />
<rect x="62.5" y="175.0" width="12.5" height="12.5"         fill="#DB5D2F" stroke="#DB5D2F" stroke_width="0.5"  />
<rect x="62.5" y="187.5" width="12.5" height="12.5"         fill="#FD921D" stroke="#FD921D" stroke_width="0.5"  />
<rect x="50.0" y="187.5" width="12.5" height="12.5"         fill="#9F658D" stroke="#9F658D" stroke_width="0.5"  />
<rect x="0.0" y="150.0" width="12.5" height="12.5"         fill="#EB5716" stroke="#EB5716" stroke_width="0.5"  />
<rect x="12.5" y="150.0" width="12.5" height="12.5"         fill="#E56418" stroke="#E56418" stroke_width="0.5"  />
<rect x="12.5" y="162.5" width="12.5" height="12.5"         fill="#6B2AE6" stroke="#6B2AE6" stroke_width="0.5"  />
<rect x="0.0" y="162.5" width="12.5" height="12.5"         fill="#0ABE5A" stroke="#0ABE5A" stroke_width="0.5"  />
<rect x="25.0" y="150.0" width="12.5" height="12.5"         fill="#D94ADE" stroke="#D94ADE" stroke_width="0.5"  />
<rect x="37.5" y="150.0" width="12.5" height="12.5"         fill="#A30AC1" stroke="#A30AC1" stroke_width="0.5"  />
<rect x="37.5" y="162.5" width="12.5" height="12.5"         fill="#DB63AA" stroke="#DB63AA" stroke_width="0.5"  />
<rect x="25.0" y="162.5" width="12.5" height="12.5"         fill="#7B2E65" stroke="#7B2E65" stroke_width="0.5"  />
<rect x="25.0" y="175.0" width="12.5" height="12.5"         fill="#DE73FD" stroke="#DE73FD" stroke_width="0.5"  />
<rect x="37.5" y="175.0" width="12.5" height="12.5"         fill="#CBB8FF" stroke="#CBB8FF" stroke_width="0.5"  />
<rect x="37.5" y="187.5" width="12.5" height="12.5"         fill="#2E3309" stroke="#2E3309" stroke_width="0.5"  />
<rect x="25.0" y="187.5" width="12.5" height="12.5"         fill="#CFEA32" stroke="#CFEA32" stroke_width="0.5"  />
<rect x="0.0" y="175.0" width="12.5" height="12.5"         fill="#D3A7BF" stroke="#D3A7BF" stroke_width="0.5"  />
<rect x="12.5" y="175.0" width="12.5" height="12.5"         fill="#ACCE1C" stroke="#ACCE1C" stroke_width="0.5"  />
<rect x="12.5" y="187.5" width="12.5" height="12.5"         fill="#5169CA" stroke="#5169CA" stroke_width="0.5"  />
<rect x="0.0" y="187.5" width="12.5" height="12.5"         fill="#4601CE" stroke="#4601CE" stroke_width="0.5"  />
        </g> 
</svg>