<?xml version="1.0" encoding="UTF-8" standalone="no"?>
<svg width="200" height="200" version="1.1" xmlns="http://www.w3.org/2000/svg">
    <g opacity="1.0">
        <circle cx="12.5" cy="12.5" r="4.166666666666667" stroke-width="1" stroke="#6CCABF" fill="none" />
        <circle cx="12.5" cy="12.5" r="6.25" stroke-width="2" stroke="#6CCABF" fill="none" />
        <circle cx="12.5" cy="12.5" r="6.25" stroke-width="2" stroke="#6CCABF" fill="none" />
        <circle cx="12.5" cy="12.5" r="10.416666666666666" stroke-width="3" stroke="#6CCABF" fill="none" />
        <circle cx="12.5" cy="12.5" r="6.25" stroke-width="1" stroke="#6CCABF" fill="none" />
        <circle cx="37.5" cy="12.5" r="6.25" stroke-width="1" stroke="#261A06" fill="none" />
        <circle cx="37.5" cy="12.5" r="4.166666666666667" stroke-width="1" stroke="#261A06" fill="none" />
        <circle cx="37.5" cy="12.5" r="10.416666666666666" stroke-width="3" stroke="#261A06" fill="none" />
        <circle cx="37.5" cy="12.5" r="2.0833333333333335" stroke-width="2" stroke="#261A06" fill="none" />
        <circle cx="37.5" cy="12.5" r="2.0833333333333335" stroke-width="2" stroke="#261A06" fill="none" />
        <circle cx="37.5" cy="37.5" r="10.416666666666666" stroke-width="2" stroke="#FDB52E" fill="none" />
        <circle cx="37.5" cy="37.5" r="2.0833333333333335" stroke-width="2" stroke="#FDB52E" fill="none" />
        <circle cx="37.5" cy="37.5" r="10.416666666666666" stroke-width="1" stroke="#FDB52E" fill="none" />
        <circle cx="37.5" cy="37.5" r="6.25" stroke-width="1" stroke="#FDB52E" fill="none" />
        <circle cx="37.5" cy="37.5" r="8.333333333333334" stroke-width="1" stroke="#FDB52E" fill="none" />
        <circle cx="12.5" cy="37.5" r="6.25" stroke-width="2" stroke="#F85703" fill="none" />
        <circle cx="12.5" cy="37.5" r="6.25" stroke-width="2" stroke="#F85703" fill="none" />
        <circle cx="12.5" cy="37.5" r="10.416666666666666" stroke-width="1" stroke="#F85703" fill="none" />
        <circle cx="12.5" cy="37.5" r="6.25" stroke-width="2" stroke="#F85703" fill="none" />
        <circle cx="12.5" cy="37.5" r="8.333333333333334" stroke-width="2" stroke="#F85703" fill="none" />
        <circle cx="62.5" cy="12.5" r="10.416666666666666" stroke-width="2" stroke="#AE784F" fill="none" />
        <circle cx="62.5" cy="12.5" r="4.166666666666667" stroke-width="2" stroke="#AE784F" fill="none" />
        <circle cx="62.5" cy="12.5" r="4.166666666666667" stroke-width="3" stroke="#AE784F" fill="none" />
        <circle cx="62.5" cy="12.5" r="2.0833333333333335" stroke-width="1" stroke="#AE784F" fill="none" />
        <circle cx="62.5" cy="12.5" r="2.0833333333333335" stroke-width="2" stroke="#AE784F" fill="none" />
        <circle cx="87.5" cy="12.5" r="8.333333333333334" stroke-width="2" stroke="#FC76F3" fill="none" />
        <circle cx="87.5" cy="12.5" r="4.166666666666667" stroke-width="2" stroke="#FC76F3" fill="none" />
        <circle cx="87.5" cy="12.5" r="8.333333333333334" stroke-width="2" stroke="#FC76F3" fill="none" />
        <circle cx="87.5" cy="12.5" r="2.0833333333333335" stroke-width="1" stroke="#FC76F3" fill="none" />
        <circle cx="87.5" cy="12.5" r="10.416666666666666" stroke-width="1" stroke="#FC76F3" fill="none" />
        <circle cx="87.5" cy="37.5" r="10.416666666666666" stroke-width="3" stroke="#228C23" fill="none" />
        <circle cx="87.5" cy="37.5" r="2.0833333333333335" stroke-width="1" stroke="#228C23" fill="none" />
        <circle cx="87.5" cy="37.5" r="8.333333333333334" stroke-width="1" stroke="#228C23" fill="none" />
        <circle cx="87.5" cy="37.5" r="2.0833333333333335" stroke-width="1" stroke="#228C23" fill="none" />
        <circle cx="87.5" cy="37.5" r="6.25" stroke-width="2" stroke="#228C23" fill="none" />
        <circle cx="62.5" cy="37.5" r="8.333333333333334" stroke-width="1" stroke="#7F3526" fill="none" />
        <circle cx="62.5" cy="37.5" r="10.416666666666666" stroke-width="1" stroke="#7F3526" fill="none" />
        <circle cx="62.5" cy="37.5" r="6.25" stroke-width="2" stroke="#7F3526" fill="none" />
        <circle cx="62.5" cy="37.5" r="4.166666666666667" stroke-width="1" stroke="#7F3526" fill="none" />
        <circle cx="62.5" cy="37.5" r="6.25" stroke-width="1" stroke="#7F3526" fill="none" />
        <circle cx="62.5" cy="62.5" r="4.166666666666667" stroke-width="2" stroke="#609AF7" fill="none" />
        <circle cx="62.5" cy="62.5" r="2.0833333333333335" stroke-width="3" stroke="#609AF7" fill="none" />
        <circle cx="62.5" cy="62.5" r="8.333333333333334" stroke-width="2" stroke="#609AF7" fill="none" />
        <circle cx="62.5" cy="62.5" r="10.416666666666666" stroke-width="2" stroke="#609AF7" fill="none" />
        <circle cx="62.5" cy="62.5" r="8.333333333333334" stroke-width="1" stroke="#609AF7" fill="none" />
        <circle cx="87.5" cy="62.5" r="10.416666666666666" stroke-width="1" stroke="#EECC4D" fill="none" />
        <circle cx="87.5" cy="62.5" r="10.416666666666666" stroke-width="3" stroke="#EECC4D" fill="none" />
        <circle cx="87.5" cy="62.5" r="6.25" stroke-width="1" stroke="#EECC4D" fill="none" />
        <circle cx="87.5" cy="62.5" r="10.416666666666666" stroke-width="1" stroke="#EECC4D" fill="none" />
        <circle cx="87.5" cy="62.5" r="4.166666666666667" stroke-width="2" stroke="#EECC4D" fill="none" />
        <circle cx="87.5" cy="87.5" r="10.416666666666666" stroke-width="2" stroke="#2BD7E5" fill="none" />
        <circle cx="87.5" cy="87.5" r="8.333333333333334" stroke-width="2" stroke="#2BD7E5" fill="none" />
        <circle cx="87.5" cy="87.5" r="8.333333333333334" stroke-width="2" stroke="#2BD7E5" fill="none" />
        <circle cx="87.5" cy="87.5" r="2.0833333333333335" stroke-width="2" stroke="#2BD7E5" fill="none" />
        <circle cx="87.5" cy="87.5" r="6.25" stroke-width="2" stroke="#2BD7E5" fill="none" />
        <circle cx="62.5" cy="87.5" r="4.166666666666667" stroke-width="3" stroke="#AF4B77" fill="none" />
        <circle cx="62.5" cy="87.5" r="10.416666666666666" stroke-width="1" stroke="#AF4B77" fill="none" />
        <circle cx="62.5" cy="87.5" r="10.416666666666666" stroke-width="2" stroke="#AF4B77" fill="none" />
        <circle cx="62.5" cy="87.5" r="2.0833333333333335" stroke-width="1" stroke="#AF4B77" fill="none" />
        <circle cx="62.5" cy="87.5" r="10.416666666666666" stroke-width="3" stroke="#AF4B77" fill="none" />
        <circle cx="12.5" cy="62.5" r="10.416666666666666" stroke-width="1" stroke="#9CF571" fill="none" />
        <circle cx="12.5" cy="62.5" r="4.166666666666667" stroke-width="1" stroke="#9CF571" fill="none" />
        <circle cx="12.5" cy="62.5" r="2.0833333333333335" stroke-width="1" stroke="#9CF571" fill="none" />
        <circle cx="12.5" cy="62.5" r="8.333333333333334" stroke-width="3" stroke="#9CF571" fill="none" />
        <circle cx="12.5" cy="62.5" r="10.416666666666666" stroke-width="3" stroke="#9CF571" fill="none" />
        <circle cx="37.5" cy="62.5" r="4.166666666666667" stroke-width="2" stroke="#EFB7A8" fill="none" />
        <circle cx="37.5" cy="62.5" r="8.333333333333334" stroke-width="3" stroke="#EFB7A8" fill="none" />
        <circle cx="37.5" cy="62.5" r="2.0833333333333335" stroke-width="3" stroke="#EFB7A8" fill="none" />
        <circle cx="37.5" cy="62.5" r="10.416666666666666" stroke-width="2" stroke="#EFB7A8" fill="none" />
        <circle cx="37.5" cy="62.5" r="8.333333333333334" stroke-width="2" stroke="#EFB7A8" fill="none" />
        <circle cx="37.5" cy="87.5" r="8.333333333333334" stroke-width="1" stroke="#7BF3C9" fill="none" />
        <circle cx="37.5" cy="87.5" r="10.416666666666666" stroke-width="1" stroke="#7BF3C9" fill="none" />
        <circle cx="37.5" cy="87.5" r="6.25" stroke-width="1" stroke="#7BF3C9" fill="none" />
        <circle cx="37.5" cy="87.5" r="6.25" stroke-width="2" stroke="#7BF3C9" fill="none" />
        <circle cx="37.5" cy="87.5" r="8.333333333333334" stroke-width="1" stroke="#7BF3C9" fill="none" />
        <circle cx="12.5" cy="87.5" r="10.416666666666666" stroke-width="2" stroke="#9ADC72" fill="none" />
        <circle cx="12.5" cy="87.5" r="4.166666666666667" stroke-width="2" stroke="#9ADC72" fill="none" />
        <circle cx="12.5" cy="87.5" r="2.0833333333333335" stroke-width="2" stroke="#9ADC72" fill="none" />
        <circle cx="12.5" cy="87.5" r="2.0833333333333335" stroke-width="1" stroke="#9ADC72" fill="none" />
        <circle cx="12.5" cy="87.5" r="6.25" stroke-width="1" stroke="#9ADC72" fill="none" />
        <circle cx="112.5" cy="12.5" r="10.416666666666666" stroke-width="2" stroke="#0D941B" fill="none" />
        <circle cx="112.5" cy="12.5" r="2.0833333333333335" stroke-width="1" stroke="#0D941B" fill="none" />
        <circle cx="112.5" cy="12.5" r="4.166666666666667" stroke-width="2" stroke="#0D941B" fill="none" />
        <circle cx="112.5" cy="12.5" r="10.416666666666666" stroke-width="1" stroke="#0D941B" fill="none" />
        <circle cx="112.5" cy="12.5" r="2.0833333333333335" stroke-width="1" stroke="#0D941B" fill="none" />
        <circle cx="137.5" cy="12.5" r="4.166666666666667" stroke-width="3" stroke="#A05FD8" fill="none" />
        <circle cx="137.5" cy="12.5" r="2.0833333333333335" stroke-width="2" stroke="#A05FD8" fill="none" />
        <circle cx="137.5" cy="12.5" r="8.333333333333334" stroke-width="2" stroke="#A05FD8" fill="none" />
        <circle cx="137.5" cy="12.5" r="6.25" stroke-width="2" stroke="#A05FD8" fill="none" />
        <circle cx="137.5" cy="12.5" r="6.25" stroke-width="2" stroke="#A05FD8" fill="none" />
        <circle cx="137.5" cy="37.5" r="8.333333333333334" stroke-width="3" stroke="#9319E2" fill="none" />
        <circle cx="137.5" cy="37.5" r="2.0833333333333335" stroke-width="1" stroke="#9319E2" fill="none" />
        <circle cx="137.5" cy="37.5" r="10.416666666666666" stroke-width="2" stroke="#9319E2" fill="none" />
        <circle cx="137.5" cy="37.5" r="2.0833333333333335" stroke-width="2" stroke="#9319E2" fill="none" />
        <circle cx="137.5" cy="37.5" r="2.0833333333333335" stroke-width="1" stroke="#9319E2" fill="none" />
        <circle cx="112.5" cy="37.5" r="4.166666666666667" stroke-width="1" stroke="#E1C6F1" fill="none" />
        <circle cx="112.5" cy="37.5" r="6.25" stroke-width="3" stroke="#E1C6F1" fill="none" />
        <circle cx="112.5" cy="37.5" r="2.0833333333333335" stroke-width="1" stroke="#E1C6F1" fill="none" />
        <circle cx="112.5" cy="37.5" r="4.166666666666667" stroke-width="1" stroke="#E1C6F1" fill="none" />
        <circle cx="112.5" cy="37.5" r="10.416666666666666" stroke-width="1" stroke="#E1C6F1" fill="none" />
        <circle cx="162.5" cy="12.5" r="8.333333333333334" stroke-width="2" stroke="#79BF7E" fill="none" />
        <circle cx="162.5" cy="12.5" r="10.416666666666666" stroke-width="1" stroke="#79BF7E" fill="none" />
        <circle cx="162.5" cy="12.5" r="2.0833333333333335" stroke-width="2" stroke="#79BF7E" fill="none" />
        <circle cx="162.5" cy="12.5" r="2.0833333333333335" stroke-width="1" stroke="#79BF7E" fill="none" />
        <circle cx="162.5" cy="12.5" r="10.416666666666666" stroke-width="2" stroke="#79BF7E" fill="none" />
        <circle cx="187.5" cy="12.5" r="10.416666666666666" stroke-width="1" stroke="#4478A9" fill="none" />
        <circle cx="187.5" cy="12.5" r="6.25" stroke-width="1" stroke="#4478A9" fill="none" />
        <circle cx="187.5" cy="12.5" r="8.333333333333334" stroke-width="1" stroke="#4478A9" fill="none" />
        <circle cx="187.5" cy="12.5" r="2.0833333333333335" stroke-width="1" stroke="#4478A9" fill="none" />
        <circle cx="187.5" cy="12.5" r="4.166666666666667" stroke-width="2" stroke="#4478A9" fill="none" />
        <circle cx="187.5" cy="37.5" r="4.166666666666667" stroke-width="1" stroke="#AA5725" fill="none" />
        <circle cx="187.5" cy="37.5" r="10.416666666666666" stroke-width="2" stroke="#AA5725" fill="none" />
        <circle cx="187.5" cy="37.5" r="10.416666666666666" stroke-width="3" stroke="#AA5725" fill="none" />
        <circle cx="187.5" cy="37.5" r="2.0833333333333335" stroke-width="2" stroke="#AA5725" fill="none" />
        <circle cx="187.5" cy="37.5" r="4.166666666666667" stroke-width="1" stroke="#AA5725" fill="none" />
        <circle cx="162.5" cy="37.5" r="10.416666666666666" stroke-width="2" stroke="#2BC5B2" fill="none" />
        <circle cx="162.5" cy="37.5" r="2.0833333333333335" stroke-width="1" stroke="#2BC5B2" fill="none" />
        <circle cx="162.5" cy="37.5" r="2.0833333333333335" stroke-width="2" stroke="#2BC5B2" fill="none" />
        <circle cx="162.5" cy="37.5" r="6.25" stroke-width="2" stroke="#2BC5B2" fill="none" />
        <circle cx="162.5" cy="37.5" r="2.0833333333333335" stroke-width="3" stroke="#2BC5B2" fill="none" />
        <circle cx="162.5" cy="62.5" r="6.25" stroke-width="2" stroke="#DEE914" fill="none" />
        <circle cx="162.5" cy="62.5" r="2.0833333333333335" stroke-width="2" stroke="#DEE914" fill="none" />
        <circle cx="162.5" cy="62.5" r="6.25" stroke-width="2" stroke="#DEE914" fill="none" />
        <circle cx="162.5" cy="62.5" r="10.416666666666666" stroke-width="2" stroke="#DEE914" fill="none" />
        <circle cx="162.5" cy="62.5" r="2.0833333333333335" stroke-width="1" stroke="#DEE914" fill="none" />
        <circle cx="187.5" cy="62.5" r="6.25" stroke-width="1" stroke="#FDBB74" fill="none" />
        <circle cx="187.5" cy="62.5" r="6.25" stroke-width="1" stroke="#FDBB74" fill="none" />
        <circle cx="187.5" cy="62.5" r="8.333333333333334" stroke-width="3" stroke="#FDBB74" fill="none" />
        <circle cx="187.5" cy="62.5" r="10.416666666666666" stroke-width="1" stroke="#FDBB74" fill="none" />
        <circle cx="187.5" cy="62.5" r="4.166666666666667" stroke-width="2" stroke="#FDBB74" fill="none" />
        <circle cx="187.5" cy="87.5" r="6.25" stroke-width="2" stroke="#B4859B" fill="none" />
        <circle cx="187.5" cy="87.5" r="10.416666666666666" stroke-width="2" stroke="#B4859B" fill="none" />
        <circle cx="187.5" cy="87.5" r="6.25" stroke-width="1" stroke="#B4859B" fill="none" />
        <circle cx="187.5" cy="87.5" r="2.0833333333333335" stroke-width="1" stroke="#B4859B" fill="none" />
        <circle cx="187.5" cy="87.5" r="2.0833333333333335" stroke-width="1" stroke="#B4859B" fill="none" />
        <circle cx="162.5" cy="87.5" r="4.166666666666667" stroke-width="1" stroke="#9EBD10" fill="none" />
        <circle cx="162.5" cy="87.5" r="4.166666666666667" stroke-width="1" stroke="#9EBD10" fill="none" />
        <circle cx="162.5" cy="87.5" r="2.0833333333333335" stroke-width="1" stroke="#9EBD10" fill="none" />
        <circle cx="162.5" cy="87.5" r="6.25" stroke-width="1" stroke="#9EBD10" fill="none" />
        <circle cx="162.5" cy="87.5" r="8.333333333333334" stroke-width="1" stroke="#9EBD10" fill="none" />
        <circle cx="112.5" cy="62.5" r="4.166666666666667" stroke-width="1" stroke="#52110E" fill="none" />
        <circle cx="112.5" cy="62.5" r="6.25" stroke-width="3" stroke="#52110E" fill="none" />
        <circle cx="112.5" cy="62.5" r="6.25" stroke-width="3" stroke="#52110E" fill="none" />
        <circle cx="112.5" cy="62.5" r="6.25" stroke-width="2" stroke="#52110E" fill="none" />
        <circle cx="112.5" cy="62.5" r="6.25" stroke-width="1" stroke="#52110E" fill="none" />
        <circle cx="137.5" cy="62.5" r="2.0833333333333335" stroke-width="3" stroke="#A66E8C" fill="none" />
        <circle cx="137.5" cy="62.5" r="2.0833333333333335" stroke-width="3" stroke="#A66E8C" fill="none" />
        <circle cx="137.5" cy="62.5" r="6.25" stroke-width="3" stroke="#A66E8C" fill="none" />
        <circle cx="137.5" cy="62.5" r="2.0833333333333335" stroke-width="1" stroke="#A66E8C" fill="none" />
        <circle cx="137.5" cy="62.5" r="4.166666666666667" stroke-width="3" stroke="#A66E8C" fill="none" />
        <circle cx="137.5" cy="87.5" r="8.333333333333334" stroke-width="2" stroke="#5A518F" fill="none" />
        <circle cx="137.5" cy="87.5" r="10.416666666666666" stroke-width="2" stroke="#5A518F" fill="none" />
        <circle cx="137.5" cy="87.5" r="4.166666666666667" stroke-width="2" stroke="#5A518F" fill="none" />
        <circle cx="137.5" cy="87.5" r="6.25" stroke-width="3" stroke="#5A518F" fill="none" />
        <circle cx="137.5" cy="87.5" r="10.416666666666666" stroke-width="1" stroke="#5A518F" fill="none" />
        <circle cx="112.5" cy="87.5" r="8.333333333333334" stroke-width="3" stroke="#C34AD5" fill="none" />
        <circle cx="112.5" cy="87.5" r="10.416666666666666" stroke-width="1" stroke="#C34AD5" fill="none" />
        <circle cx="112.5" cy="87.5" r="6.25" stroke-width="3" stroke="#C34AD5" fill="none" />
        <circle cx="112.5" cy="87.5" r="10.416666666666666" stroke-width="1" stroke="#C34AD5" fill="none" />
        <circle cx="112.5" cy="87.5" r="8.333333333333334" stroke-width="3" stroke="#C34AD5" fill="none" />
        <circle cx="112.5" cy="112.5" r="8.333333333333334" stroke-width="1" stroke="#3818C1" fill="none" />
        <circle cx="112.5" cy="112.5" r="2.0833333333333335" stroke-width="2" stroke="#3818C1" fill="none" />
        <circle cx="112.5" cy="112.5" r="8.333333333333334" stroke-width="3" stroke="#3818C1" fill="none" />
        <circle cx="112.5" cy="112.5" r="2.0833333333333335" stroke-width="1" stroke="#3818C1" fill="none" />
        <circle cx="112.5" cy="112.5" r="8.333333333333334" stroke-width="1" stroke="#3818C1" fill="none" />
        <circle cx="137.5" cy="112.5" r="6.25" stroke-width="2" stroke="#4C6140" fill="none" />
        <circle cx="137.5" cy="112.5" r="2.0833333333333335" stroke-width="1" stroke="#4C6140" fill="none" />
        <circle cx="137.5" cy="112.5" r="4.166666666666667" stroke-width="1" stroke="#4C6140" fill="none" />
        <circle cx="137.5" cy="112.5" r="6.25" stroke-width="1" stroke="#4C6140" fill="none" />
        <circle cx="137.5" cy="112.5" r="8.333333333333334" stroke-width="1" stroke="#4C6140" fill="none" />
        <circle cx="137.5" cy="137.5" r="2.0833333333333335" stroke-width="2" stroke="#C86201" fill="none" />
        <circle cx="137.5" cy="137.5" r="10.416666666666666" stroke-width="2" stroke="#C86201" fill="none" />
        <circle cx="137.5" cy="137.5" r="6.25" stroke-width="1" stroke="#C86201" fill="none" />
        <circle cx="137.5" cy="137.5" r="10.416666666666666" stroke-width="3" stroke="#C86201" fill="none" />
        <circle cx="137.5" cy="137.5" r="2.0833333333333335" stroke-width="2" stroke="#C86201" fill="none" />
        <circle cx="112.5" cy="137.5" r="4.166666666666667" stroke-width="1" stroke="#5BEE13" fill="none" />
        <circle cx="112.5" cy="137.5" r="4.166666666666667" stroke-width="1" stroke="#5BEE13" fill="none" />
        <circle cx="112.5" cy="137.5" r="6.25" stroke-width="2" stroke="#5BEE13" fill="none" />
        <circle cx="112.5" cy="137.5" r="8.333333333333334" stroke-width="3" stroke="#5BEE13" fill="none" />
        <circle cx="112.5" cy="137.5" r="6.25" stroke-width="3" stroke="#5BEE13" fill="none" />
        <circle cx="162.5" cy="112.5" r="8.333333333333334" stroke-width="1" stroke="#98B2B8" fill="none" />
        <circle cx="162.5" cy="112.5" r="6.25" stroke-width="2" stroke="#98B2B8" fill="none" />
        <circle cx="162.5" cy="112.5" r="4.166666666666667" stroke-width="2" stroke="#98B2B8" fill="none" />
        <circle cx="162.5" cy="112.5" r="4.166666666666667" stroke-width="1" stroke="#98B2B8" fill="none" />
        <circle cx="162.5" cy="112.5" r="8.333333333333334" stroke-width="2" stroke="#98B2B8" fill="none" />
        <circle cx="187.5" cy="112.5" r="2.0833333333333335" stroke-width="3" stroke="#F1D787" fill="none" />
        <circle cx="187.5" cy="112.5" r="6.25" stroke-width="2" stroke="#F1D787" fill="none" />
        <circle cx="187.5" cy="112.5" r="8.333333333333334" stroke-width="3" stroke="#F1D787" fill="none" />
        <circle cx="187.5" cy="112.5" r="2.0833333333333335" stroke-width="2" stroke="#F1D787" fill="none" />
        <circle cx="187.5" cy="112.5" r="2.0833333333333335" stroke-width="1" stroke="#F1D787" fill="none" />
        <circle cx="187.5" cy="137.5" r="8.333333333333334" stroke-width="3" stroke="#9FD999" fill="none" />
        <circle cx="187.5" cy="137.5" r="2.0833333333333335" stroke-width="3" stroke="#9FD999" fill="none" />
        <circle cx="187.5" cy="137.5" r="6.25" stroke-width="3" stroke="#9FD999" fill="none" />
        <circle cx="187.5" cy="137.5" r="8.333333333333334" stroke-width="1" stroke="#9FD999" fill="none" />
        <circle cx="187.5" cy="137.5" r="8.333333333333334" stroke-width="3" stroke="#9FD999" fill="none" />
        <circle cx="162.5" cy="137.5" r="10.416666666666666" stroke-width="1" stroke="#A82678" fill="none" />
        <circle cx="162.5" cy="137.5" r="6.25" stroke-width="2" stroke="#A82678" fill="none" />
        <circle cx="162.5" cy="137.5" r="8.333333333333334" stroke-width="1" stroke="#A82678" fill="none" />
        <circle cx="162.5" cy="137.5" r="10.416666666666666" stroke-width="2" stroke="#A82678" fill="none" />
        <circle cx="162.5" cy="137.5" r="10.416666666666666" stroke-width="1" stroke="#A82678" fill="none" />
        <circle cx="162.5" cy="162.5" r="2.0833333333333335" stroke-width="1" stroke="#E557C5" fill="none" />
        <circle cx="162.5" cy="162.5" r="10.416666666666666" stroke-width="2" stroke="#E557C5" fill="none" />
        <circle cx="162.5" cy="162.5" r="6.25" stroke-width="1" stroke="#E557C5" fill="none" />
        <circle cx="162.5" cy="162.5" r="10.416666666666666" stroke-width="1" stroke="#E557C5" fill="none" />
        <circle cx="162.5" cy="162.5" r="4.166666666666667" stroke-width="3" stroke="#E557C5" fill="none" />
        <circle cx="187.5" cy="162.5" r="6.25" stroke-width="2" stroke="#57F008" fill="none" />
        <circle cx="187.5" cy="162.5" r="4.166666666666667" stroke-width="1" stroke="#57F008" fill="none" />
        <circle cx="187.5" cy="162.5" r="8.333333333333334" stroke-width="1" stroke="#57F008" fill="none" />
        <circle cx="187.5" cy="162.5" r="8.333333333333334" stroke-width="1" stroke="#57F008" fill="none" />
        <circle cx="187.5" cy="162.5" r="8.333333333333334" stroke-width="2" stroke="#57F008" fill="none" />
        <circle cx="187.5" cy="187.5" r="4.166666666666667" stroke-width="1" stroke="#7AA201" fill="none" />
        <circle cx="187.5" cy="187.5" r="8.333333333333334" stroke-width="3" stroke="#7AA201" fill="none" />
        <circle cx="187.5" cy="187.5" r="6.25" stroke-width="1" stroke="#7AA201" fill="none" />
        <circle cx="187.5" cy="187.5" r="10.416666666666666" stroke-width="3" stroke="#7AA201" fill="none" />
        <circle cx="187.5" cy="187.5" r="10.416666666666666" stroke-width="2" stroke="#7AA201" fill="none" />
        <circle cx="162.5" cy="187.5" r="2.0833333333333335" stroke-width="1" stroke="#A7302B" fill="none" />
        <circle cx="162.5" cy="187.5" r="10.416666666666666" stroke-width="1" stroke="#A7302B" fill="none" />
        <circle cx="162.5" cy="187.5" r="2.0833333333333335" stroke-width="3" stroke="#A7302B" fill="none" />
        <circle cx="162.5" cy="187.5" r="8.333333333333334" stroke-width="1" stroke="#A7302B" fill="none" />
        <circle cx="162.5" cy="187.5" r="10.416666666666666" stroke-width="3" stroke="#A7302B" fill="none" />
        <circle cx="112.5" cy="162.5" r="10.416666666666666" stroke-width="2" stroke="#3A25F1" fill="none" />
        <circle cx="112.5" cy="162.5" r="10.416666666666666" stroke-width="2" stroke="#3A25F1" fill="none" />
        <circle cx="112.5" cy="162.5" r="4.166666666666667" stroke-width="2" stroke="#3A25F1" fill="none" />
        <circle cx="112.5" cy="162.5" r="8.333333333333334" stroke-width="2" stroke="#3A25F1" fill="none" />
        <circle cx="112.5" cy="162.5" r="8.333333333333334" stroke-width="2" stroke="#3A25F1" fill="none" />
        <circle cx="137.5" cy="162.5" r="2.0833333333333335" stroke-width="1" stroke="#C12843" fill="none" />
        <circle cx="137.5" cy="162.5" r="8.333333333333334" stroke-width="1" stroke="#C12843" fill="none" />
        <circle cx="137.5" cy="162.5" r="6.25" stroke-width="2" stroke="#C12843" fill="none" />
        <circle cx="137.5" cy="162.5" r="6.25" stroke-width="2" stroke="#C12843" fill="none" />
        <circle cx="137.5" cy="162.5" r="8.333333333333334" stroke-width="1" stroke="#C12843" fill="none" />
        <circle cx="137.5" cy="187.5" r="4.166666666666667" stroke-width="2" stroke="#328E9C" fill="none" />
        <circle cx="137.5" cy="187.5" r="2.0833333333333335" stroke-width="2" stroke="#328E9C" fill="none" />
        <circle cx="137.5" cy="187.5" r="2.0833333333333335" stroke-width="1" stroke="#328E9C" fill="none" />
        <circle cx="137.5" cy="187.5" r="10.416666666666666" stroke-width="1" stroke="#328E9C" fill="none" />
        <circle cx="137.5" cy="187.5" r="4.166666666666667" stroke-width="1" stroke="#328E9C" fill="none" />
        <circle cx="112.5" cy="187.5" r="2.0833333333333335" stroke-width="3" stroke="#9AA728" fill="none" />
        <circle cx="112.5" cy="187.5" r="8.333333333333334" stroke-width="2" stroke="#9AA728" fill="none" />
        <circle cx="112.5" cy="187.5" r="8.333333333333334" stroke-width="2" stroke="#9AA728" fill="none" />
        <circle cx="112.5" cy="187.5" r="2.0833333333333335" stroke-width="3" stroke="#9AA728" fill="none" />
        <circle cx="112.5" cy="187.5" r="4.166666666666667" stroke-width="3" stroke="#9AA728" fill="none" />
        <circle cx="12.5" cy="112.5" r="8.333333333333334" stroke-width="3" stroke="#D43D60" fill="none" />
        <circle cx="12.5" cy="112.5" r="4.166666666666667" stroke-width="2" stroke="#D43D60" fill="none" />
        <circle cx="12.5" cy="112.5" r="10.416666666666666" stroke-width="3" stroke="#D43D60" fill="none" />
        <circle cx="12.5" cy="112.5" r="2.0833333333333335" stroke-width="2" stroke="#D43D60" fill="none" />
        <circle cx="12.5" cy="112.5" r="8.333333333333334" stroke-width="1" stroke="#D43D60" fill="none" />
        <circle cx="37.5" cy="112.5" r="2.0833333333333335" stroke-width="1" stroke="#0DC5B6" fill="none" />
        <circle cx="37.5" cy="112.5" r="8.333333333333334" stroke-width="2" stroke="#0DC5B6" fill="none" />
        <circle cx="37.5" cy="112.5" r="10.416666666666666" stroke-width="2" stroke="#0DC5B6" fill="none" />
        <circle cx="37.5" cy="112.5" r="10.416666666666666" stroke-width="1" stroke="#0DC5B6" fill="none" />
        <circle cx="37.5" cy="112.5" r="6.25" stroke-width="1" stroke="#0DC5B6" fill="none" />
        <circle cx="37.5" cy="137.5" r="6.25" stroke-width="2" stroke="#B217FC" fill="none" />
        <circle cx="37.5" cy="137.5" r="6.25" stroke-width="3" stroke="#B217FC" fill="none" />
        <circle cx="37.5" cy="137.5" r="4.166666666666667" stroke-width="1" stroke="#B217FC" fill="none" />
        <circle cx="37.5" cy="137.5" r="2.0833333333333335" stroke-width="1" stroke="#B217FC" fill="none" />
        <circle cx="37.5" cy="137.5" r="6.25" stroke-width="1" stroke="#B217FC" fill="none" />
        <circle cx="12.5" cy="137.5" r="10.416666666666666" stroke-width="1" stroke="#F753D0" fill="none" />
        <circle cx="12.5" cy="137.5" r="6.25" stroke-width="1" stroke="#F753D0" fill="none" />
        <circle cx="12.5" cy="137.5" r="6.25" stroke-width="1" stroke="#F753D0" fill="none" />
        <circle cx="12.5" cy="137.5" r="10.416666666666666" stroke-width="2" stroke="#F753D0" fill="none" />
        <circle cx="12.5" cy="137.5" r="4.166666666666667" stroke-width="1" stroke="#F753D0" fill="none" />
        <circle cx="62.5" cy="112.5" r="4.166666666666667" stroke-width="3" stroke="#CB8FE1" fill="none" />
        <circle cx="62.5" cy="112.5" r="8.333333333333334" stroke-width="3" stroke="#CB8FE1" fill="none" />
        <circle cx="62.5" cy="112.5" r="8.333333333333334" stroke-width="3" stroke="#CB8FE1" fill="none" />
        <circle cx="62.5" cy="112.5" r="10.416666666666666" stroke-width="2" stroke="#CB8FE1" fill="none" />
        <circle cx="62.5" cy="112.5" r="4.166666666666667" stroke-width="1" stroke="#CB8FE1" fill="none" />
        <circle cx="87.5" cy="112.5" r="2.0833333333333335" stroke-width="1" stroke="#DA61B7" fill="none" />
        <circle cx="87.5" cy="112.5" r="8.333333333333334" stroke-width="1" stroke="#DA61B7" fill="none" />
        <circle cx="87.5" cy="112.5" r="6.25" stroke-width="3" stroke="#DA61B7" fill="none" />
        <circle cx="87.5" cy="112.5" r="8.333333333333334" stroke-width="3" stroke="#DA61B7" fill="none" />
        <circle cx="87.5" cy="112.5" r="8.333333333333334" stroke-width="3" stroke="#DA61B7" fill="none" />
        <circle cx="87.5" cy="137.5" r="2.0833333333333335" stroke-width="1" stroke="#916411" fill="none" />
        <circle cx="87.5" cy="137.5" r="2.0833333333333335" stroke-width="1" stroke="#916411" fill="none" />
        <circle cx="87.5" cy="137.5" r="2.0833333333333335" stroke-width="2" stroke="#916411" fill="none" />
        <circle cx="87.5" cy="137.5" r="8.333333333333334" stroke-width="1" stroke="#916411" fill="none" />
        <circle cx="87.5" cy="137.5" r="10.416666666666666" stroke-width="3" stroke="#916411" fill="none" />
        <circle cx="62.5" cy="137.5" r="6.25" stroke-width="2" stroke="#9166AC" fill="none" />
        <circle cx="62.5" cy="137.5" r="2.0833333333333335" stroke-width="1" stroke="#9166AC" fill="none" />
        <circle cx="62.5" cy="137.5" r="4.166666666666667" stroke-width="1" stroke="#9166AC" fill="none" />
        <circle cx="62.5" cy="137.5" r="6.25" stroke-width="2" stroke="#9166AC" fill="none" />
        <circle cx="62.5" cy="137.5" r="6.25" stroke-width="1" stroke="#9166AC" fill="none" />
        <circle cx="62.5" cy="162.5" r="10.416666666666666" stroke-width="1" stroke="#21DA4D" fill="none" />
        <circle cx="62.5" cy="162.5" r="4.166666666666667" stroke-width="3" stroke="#21DA4D" fill="none" />
        <circle cx="62.5" cy="162.5" r="4.166666666666667" stroke-width="1" stroke="#21DA4D" fill="none" />
        <circle cx="62.5" cy="162.5" r="8.333333333333334" stroke-width="1" stroke="#21DA4D" fill="none" />
        <circle cx="62.5" cy="162.5" r="4.166666666666667" stroke-width="2" stroke="#21DA4D" fill="none" />
        <circle cx="87.5" cy="162.5" r="2.0833333333333335" stroke-width="1" stroke="#FC8B80" fill="none" />
        <circle cx="87.5" cy="162.5" r="2.0833333333333335" stroke-width="1" stroke="#FC8B80" fill="none" />
        <circle cx="87.5" cy="162.5" r="8.333333333333334" stroke-width="1" stroke="#FC8B80" fill="none" />
        <circle cx="87.5" cy="162.5" r="2.0833333333333335" stroke-width="1" stroke="#FC8B80" fill="none" />
        <circle cx="87.5" cy="162.5" r="8.333333333333334" stroke-width="2" stroke="#FC8B80" fill="none" />
        <circle cx="87.5" cy="187.5" r="4.166666666666667" stroke-width="2" stroke="#8A6F95" fill="none" />
        <circle cx="87.5" cy="187.5" r="6.25" stroke-width="2" stroke="#8A6F95" fill="none" />
        <circle cx="87.5" cy="187.5" r="4.166666666666667" stroke-width="1" stroke="#8A6F95" fill="none" />
        <circle cx="87.5" cy="187.5" r="10.416666666666666" stroke-width="3" stroke="#8A6F95" fill="none" />
        <circle cx="87.5" cy="187.5" r="6.25" stroke-width="3" stroke="#8A6F95" fill="none" />
        <circle cx="62.5" cy="187.5" r="10.416666666666666" stroke-width="2" stroke="#1DA435" fill="none" />
        <circle cx="62.5" cy="187.5" r="10.416666666666666" stroke-width="2" stroke="#1DA435" fill="none" />
        <circle cx="62.5" cy="187.5" r="10.416666666666666" stroke-width="1" stroke="#1DA435" fill="none" />
        <circle cx="62.5" cy="187.5" r="8.333333333333334" stroke-width="3" stroke="#1DA435" fill="none" />
        <circle cx="62.5" cy="187.5" r="10.416666666666666" stroke-width="1" stroke="#1DA435" fill="none" />
        <circle cx="12.5" cy="162.5" r="6.25" stroke-width="1" stroke="#AFB5AC" fill="none" />
        <circle cx="12.5" cy="162.5" r="8.333333333333334" stroke-width="1" stroke="#AFB5AC" fill="none" />
        <circle cx="12.5" cy="162.5" r="4.166666666666667" stroke-width="1" stroke="#AFB5AC" fill="none" />
        <circle cx="12.5" cy="162.5" r="4.166666666666667" stroke-width="3" stroke="#AFB5AC" fill="none" />
        <circle cx="12.5" cy="162.5" r="10.416666666666666" stroke-width="3" stroke="#AFB5AC" fill="none" />
        <circle cx="37.5" cy="162.5" r="4.166666666666667" stroke-width="3" stroke="#7543ED" fill="none" />
        <circle cx="37.5" cy="162.5" r="8.333333333333334" stroke-width="1" stroke="#7543ED" fill="none" />
        <circle cx="37.5" cy="162.5" r="10.416666666666666" stroke-width="1" stroke="#7543ED" fill="none" />
        <circle cx="37.5" cy="162.5" r="2.0833333333333335" stroke-width="1" stroke="#7543ED" fill="none" />
        <circle cx="37.5" cy="162.5" r="10.416666666666666" stroke-width="2" stroke="#7543ED" fill="none" />
        <circle cx="37.5" cy="187.5" r="4.166666666666667" stroke-width="1" stroke="#9C1625" fill="none" />
        <circle cx="37.5" cy="187.5" r="10.416666666666666" stroke-width="2" stroke="#9C1625" fill="none" />
        <circle cx="37.5" cy="187.5" r="2.0833333333333335" stroke-width="2" stroke="#9C1625" fill="none" />
        <circle cx="37.5" cy="187.5" r="4.166666666666667" stroke-width="2" stroke="#9C1625" fill="none" />
        <circle cx="37.5" cy="187.5" r="8.333333333333334" stroke-width="1" stroke="#9C1625" fill="none" />
        <circle cx="12.5" cy="187.5" r="2.0833333333333335" stroke-width="3" stroke="#07ED6B" fill="none" />
        <circle cx="12.5" cy="187.5" r="4.166666666666667" stroke-width="2" stroke="#07ED6B" fill="none" />
        <circle cx="12.5" cy="187.5" r="8.333333333333334" stroke-width="3" stroke="#07ED6B" fill="none" />
        <circle cx="12.5" cy="187.5" r="2.0833333333333335" stroke-width="3" stroke="#07ED6B" fill="none" />
        <circle cx="12.5" cy="187.5" r="10.416666666666666" stroke-width="2" stroke="#07ED6B" fill="none" />
    </g> 
</svg>