<?xml version="1.0" encoding="UTF-8" standalone="no"?>
<svg width="200" height="200" xmlns="http://www.w3.org/2000/svg">
        <g opacity="1.0">
<circle cx="12.5" cy="12.5" r="2.0833333333333335" stroke_width="1"             stroke="#C59E7E" fill="white" />
<circle cx="12.5" cy="12.5" r="4.166666666666667" stroke_width="1"             stroke="#C59E7E" fill="white" />
<circle cx="12.5" cy="12.5" r="8.333333333333334" stroke_width="1"             stroke="#C59E7E" fill="white" />
<circle cx="12.5" cy="12.5" r="2.0833333333333335" stroke_width="1"             stroke="#C59E7E" fill="white" />
<circle cx="12.5" cy="12.5" r="10.416666666666666" stroke_width="1"             stroke="#C59E7E" fill="white" />
<circle cx="37.5" cy="12.5" r="2.0833333333333335" stroke_width="1"             stroke="#9B3C1A" fill="white" />
<circle cx="37.5" cy="12.5" r="6.25" stroke_width="1"             stroke="#9B3C1A" fill="white" />
<circle cx="37.5" cy="12.5" r="4.166666666666667" stroke_width="1"             stroke="#9B3C1A" fill="white" />
<circle cx="37.5" cy="12.5" r="6.25" stroke_width="1"             stroke="#9B3C1A" fill="white" />
<circle cx="37.5" cy="12.5" r="2.0833333333333335" stroke_width="1"             stroke="#9B3C1A" fill="white" />
<circle cx="37.5" cy="37.5" r="10.416666666666666" stroke_width="1"             stroke="#EFEE18" fill="white" />
<circle cx="37.5" cy="37.5" r="8.333333333333334" stroke_width="1"             stroke="#EFEE18" fill="white" />
<circle cx="37.5" cy="37.5" r="6.25" stroke_width="1"             stroke="#EFEE18" fill="white" />
<circle cx="37.5" cy="37.5" r="6.25" stroke_width="2"             stroke="#EFEE18" fill="white" />
<circle cx="37.5" cy="37.5" r="4.166666666666667" stroke_width="1"             stroke="#EFEE18" fill="white" />
<circle cx="12.5" cy="37.5" r="6.25" stroke_width="1"             stroke="#E1225F" fill="white" />
<circle cx="12.5" cy="37.5" r="4.166666666666667" stroke_width="1"             stroke="#E1225F" fill="white" />
<circle cx="12.5" cy="37.5" r="6.25" stroke_width="1"             stroke="#E1225F" fill="white" />
<circle cx="12.5" cy="37.5" r="10.416666666666666" stroke_width="1"             stroke="#E1225F" fill="white" />
<circle cx="12.5" cy="37.5" r="8.333333333333334" stroke_width="2"             stroke="#E1225F" fill="white" />
<circle cx="62.5" cy="12.5" r="2.0833333333333335" stroke_width="2"             stroke="#86D581" fill="white" />
<circle cx="62.5" cy="12.5" r="6.25" stroke_width="1"             stroke="#86D581" fill="white" />
<circle cx="62.5" cy="12.5" r="4.166666666666667" stroke_width="2"             stroke="#86D581" fill="white" />
<circle cx="62.5" cy="12.5" r="8.333333333333334" stroke_width="2"             stroke="#86D581" fill="white" />
<circle cx="62.5" cy="12.5" r="6.25" stroke_width="2"             stroke="#86D581" fill="white" />
<circle cx="87.5" cy="12.5" r="6.25" stroke_width="1"             stroke="#F36FAB" fill="white" />
<circle cx="87.5" cy="12.5" r="8.333333333333334" stroke_width="2"             stroke="#F36FAB" fill="white" />
<circle cx="87.5" cy="12.5" r="2.0833333333333335" stroke_width="3"             stroke="#F36FAB" fill="white" />
<circle cx="87.5" cy="12.5" r="8.333333333333334" stroke_width="1"             stroke="#F36FAB" fill="white" />
<circle cx="87.5" cy="12.5" r="6.25" stroke_width="1"             stroke="#F36FAB" fill="white" />
<circle cx="87.5" cy="37.5" r="2.0833333333333335" stroke_width="3"             stroke="#C3A676" fill="white" />
<circle cx="87.5" cy="37.5" r="8.333333333333334" stroke_width="1"             stroke="#C3A676" fill="white" />
<circle cx="87.5" cy="37.5" r="8.333333333333334" stroke_width="1"             stroke="#C3A676" fill="white" />
<circle cx="87.5" cy="37.5" r="10.416666666666666" stroke_width="2"             stroke="#C3A676" fill="white" />
<circle cx="87.5" cy="37.5" r="4.166666666666667" stroke_width="2"             stroke="#C3A676" fill="white" />
<circle cx="62.5" cy="37.5" r="4.166666666666667" stroke_width="2"             stroke="#EDAED2" fill="white" />
<circle cx="62.5" cy="37.5" r="4.166666666666667" stroke_width="1"             stroke="#EDAED2" fill="white" />
<circle cx="62.5" cy="37.5" r="10.416666666666666" stroke_width="2"             stroke="#EDAED2" fill="white" />
<circle cx="62.5" cy="37.5" r="10.416666666666666" stroke_width="3"             stroke="#EDAED2" fill="white" />
<circle cx="62.5" cy="37.5" r="10.416666666666666" stroke_width="1"             stroke="#EDAED2" fill="white" />
<circle cx="62.5" cy="62.5" r="2.0833333333333335" stroke_width="3"             stroke="#79D285" fill="white" />
<circle cx="62.5" cy="62.5" r="2.0833333333333335" stroke_width="3"             stroke="#79D285" fill="white" />
<circle cx="62.5" cy="62.5" r="4.166666666666667" stroke_width="3"             stroke="#79D285" fill="white" />
<circle cx="62.5" cy="62.5" r="8.333333333333334" stroke_width="2"             stroke="#79D285" fill="white" />
<circle cx="62.5" cy="62.5" r="2.0833333333333335" stroke_width="2"             stroke="#79D285" fill="white" />
<circle cx="87.5" cy="62.5" r="6.25" stroke_width="2"             stroke="#234719" fill="white" />
<circle cx="87.5" cy="62.5" r="2.0833333333333335" stroke_width="2"             stroke="#234719" fill="white" />
<circle cx="87.5" cy="62.5" r="10.416666666666666" stroke_width="1"             stroke="#234719" fill="white" />
<circle cx="87.5" cy="62.5" r="8.333333333333334" stroke_width="2"             stroke="#234719" fill="white" />
<circle cx="87.5" cy="62.5" r="2.0833333333333335" stroke_width="2"             stroke="#234719" fill="white" />
<circle cx="87.5" cy="87.5" r="4.166666666666667" stroke_width="1"             stroke="#E52C25" fill="white" />
<circle cx="87.5" cy="87.5" r="10.416666666666666" stroke_width="1"             stroke="#E52C25" fill="white" />
<circle cx="87.5" cy="87.5" r="6.25" stroke_width="2"             stroke="#E52C25" fill="white" />
<circle cx="87.5" cy="87.5" r="6.25" stroke_width="1"             stroke="#E52C25" fill="white" />
<circle cx="87.5" cy="87.5" r="8.333333333333334" stroke_width="1"             stroke="#E52C25" fill="white" />
<circle cx="62.5" cy="87.5" r="6.25" stroke_width="1"             stroke="#28AD7E" fill="white" />
<circle cx="62.5" cy="87.5" r="8.333333333333334" stroke_width="1"             stroke="#28AD7E" fill="white" />
<circle cx="62.5" cy="87.5" r="2.0833333333333335" stroke_width="3"             stroke="#28AD7E" fill="white" />
<circle cx="62.5" cy="87.5" r="4.166666666666667" stroke_width="2"             stroke="#28AD7E" fill="white" />
<circle cx="62.5" cy="87.5" r="4.166666666666667" stroke_width="2"             stroke="#28AD7E" fill="white" />
<circle cx="12.5" cy="62.5" r="8.333333333333334" stroke_width="1"             stroke="#D76481" fill="white" />
<circle cx="12.5" cy="62.5" r="10.416666666666666" stroke_width="1"             stroke="#D76481" fill="white" />
<circle cx="12.5" cy="62.5" r="6.25" stroke_width="1"             stroke="#D76481" fill="white" />
<circle cx="12.5" cy="62.5" r="8.333333333333334" stroke_width="2"             stroke="#D76481" fill="white" />
<circle cx="12.5" cy="62.5" r="10.416666666666666" stroke_width="1"             stroke="#D76481" fill="white" />
<circle cx="37.5" cy="62.5" r="10.416666666666666" stroke_width="1"             stroke="#CA121B" fill="white" />
<circle cx="37.5" cy="62.5" r="4.166666666666667" stroke_width="1"             stroke="#CA121B" fill="white" />
<circle cx="37.5" cy="62.5" r="4.166666666666667" stroke_width="1"             stroke="#CA121B" fill="white" />
<circle cx="37.5" cy="62.5" r="4.166666666666667" stroke_width="3"             stroke="#CA121B" fill="white" />
<circle cx="37.5" cy="62.5" r="6.25" stroke_width="3"             stroke="#CA121B" fill="white" />
<circle cx="37.5" cy="87.5" r="10.416666666666666" stroke_width="1"             stroke="#EA8117" fill="white" />
<circle cx="37.5" cy="87.5" r="6.25" stroke_width="1"             stroke="#EA8117" fill="white" />
<circle cx="37.5" cy="87.5" r="2.0833333333333335" stroke_width="2"             stroke="#EA8117" fill="white" />
<circle cx="37.5" cy="87.5" r="2.0833333333333335" stroke_width="1"             stroke="#EA8117" fill="white" />
<circle cx="37.5" cy="87.5" r="4.166666666666667" stroke_width="1"             stroke="#EA8117" fill="white" />
<circle cx="12.5" cy="87.5" r="8.333333333333334" stroke_width="1"             stroke="#250B4A" fill="white" />
<circle cx="12.5" cy="87.5" r="6.25" stroke_width="1"             stroke="#250B4A" fill="white" />
<circle cx="12.5" cy="87.5" r="2.0833333333333335" stroke_width="1"             stroke="#250B4A" fill="white" />
<circle cx="12.5" cy="87.5" r="10.416666666666666" stroke_width="1"             stroke="#250B4A" fill="white" />
<circle cx="12.5" cy="87.5" r="4.166666666666667" stroke_width="1"             stroke="#250B4A" fill="white" />
<circle cx="112.5" cy="12.5" r="10.416666666666666" stroke_width="2"             stroke="#3A63B6" fill="white" />
<circle cx="112.5" cy="12.5" r="2.0833333333333335" stroke_width="1"             stroke="#3A63B6" fill="white" />
<circle cx="112.5" cy="12.5" r="8.333333333333334" stroke_width="1"             stroke="#3A63B6" fill="white" />
<circle cx="112.5" cy="12.5" r="10.416666666666666" stroke_width="2"             stroke="#3A63B6" fill="white" />
<circle cx="112.5" cy="12.5" r="4.166666666666667" stroke_width="1"             stroke="#3A63B6" fill="white" />
<circle cx="137.5" cy="12.5" r="4.166666666666667" stroke_width="3"             stroke="#77E5C4" fill="white" />
<circle cx="137.5" cy="12.5" r="6.25" stroke_width="1"             stroke="#77E5C4" fill="white" />
<circle cx="137.5" cy="12.5" r="10.416666666666666" stroke_width="3"             stroke="#77E5C4" fill="white" />
<circle cx="137.5" cy="12.5" r="8.333333333333334" stroke_width="1"             stroke="#77E5C4" fill="white" />
<circle cx="137.5" cy="12.5" r="8.333333333333334" stroke_width="1"             stroke="#77E5C4" fill="white" />
<circle cx="137.5" cy="37.5" r="4.166666666666667" stroke_width="1"             stroke="#4B9069" fill="white" />
<circle cx="137.5" cy="37.5" r="10.416666666666666" stroke_width="2"             stroke="#4B9069" fill="white" />
<circle cx="137.5" cy="37.5" r="10.416666666666666" stroke_width="1"             stroke="#4B9069" fill="white" />
<circle cx="137.5" cy="37.5" r="2.0833333333333335" stroke_width="2"             stroke="#4B9069" fill="white" />
<circle cx="137.5" cy="37.5" r="4.166666666666667" stroke_width="1"             stroke="#4B9069" fill="white" />
<circle cx="112.5" cy="37.5" r="2.0833333333333335" stroke_width="3"             stroke="#28E67A" fill="white" />
<circle cx="112.5" cy="37.5" r="6.25" stroke_width="1"             stroke="#28E67A" fill="white" />
<circle cx="112.5" cy="37.5" r="4.166666666666667" stroke_width="1"             stroke="#28E67A" fill="white" />
<circle cx="112.5" cy="37.5" r="10.416666666666666" stroke_width="3"             stroke="#28E67A" fill="white" />
<circle cx="112.5" cy="37.5" r="2.0833333333333335" stroke_width="2"             stroke="#28E67A" fill="white" />
<circle cx="162.5" cy="12.5" r="8.333333333333334" stroke_width="1"             stroke="#6ADD6E" fill="white" />
<circle cx="162.5" cy="12.5" r="6.25" stroke_width="1"             stroke="#6ADD6E" fill="white" />
<circle cx="162.5" cy="12.5" r="2.0833333333333335" stroke_width="3"             stroke="#6ADD6E" fill="white" />
<circle cx="162.5" cy="12.5" r="4.166666666666667" stroke_width="1"             stroke="#6ADD6E" fill="white" />
<circle cx="162.5" cy="12.5" r="8.333333333333334" stroke_width="1"             stroke="#6ADD6E" fill="white" />
<circle cx="187.5" cy="12.5" r="4.166666666666667" stroke_width="2"             stroke="#4D6E6A" fill="white" />
<circle cx="187.5" cy="12.5" r="10.416666666666666" stroke_width="1"             stroke="#4D6E6A" fill="white" />
<circle cx="187.5" cy="12.5" r="10.416666666666666" stroke_width="1"             stroke="#4D6E6A" fill="white" />
<circle cx="187.5" cy="12.5" r="4.166666666666667" stroke_width="1"             stroke="#4D6E6A" fill="white" />
<circle cx="187.5" cy="12.5" r="4.166666666666667" stroke_width="1"             stroke="#4D6E6A" fill="white" />
<circle cx="187.5" cy="37.5" r="2.0833333333333335" stroke_width="3"             stroke="#2E829F" fill="white" />
<circle cx="187.5" cy="37.5" r="10.416666666666666" stroke_width="1"             stroke="#2E829F" fill="white" />
<circle cx="187.5" cy="37.5" r="10.416666666666666" stroke_width="2"             stroke="#2E829F" fill="white" />
<circle cx="187.5" cy="37.5" r="4.166666666666667" stroke_width="2"             stroke="#2E829F" fill="white" />
<circle cx="187.5" cy="37.5" r="4.166666666666667" stroke_width="1"             stroke="#2E829F" fill="white" />
<circle cx="162.5" cy="37.5" r="4.166666666666667" stroke_width="2"             stroke="#4A6892" fill="white" />
<circle cx="162.5" cy="37.5" r="4.166666666666667" stroke_width="1"             stroke="#4A6892" fill="white" />
<circle cx="162.5" cy="37.5" r="2.0833333333333335" stroke_width="2"             stroke="#4A6892" fill="white" />
<circle cx="162.5" cy="37.5" r="2.0833333333333335" stroke_width="2"             stroke="#4A6892" fill="white" />
<circle cx="162.5" cy="37.5" r="2.0833333333333335" stroke_width="1"             stroke="#4A6892" fill="white" />
<circle cx="162.5" cy="62.5" r="6.25" stroke_width="1"             stroke="#4C0D9B" fill="white" />
<circle cx="162.5" cy="62.5" r="8.333333333333334" stroke_width="1"             stroke="#4C0D9B" fill="white" />
<circle cx="162.5" cy="62.5" r="4.166666666666667" stroke_width="3"             stroke="#4C0D9B" fill="white" />
<circle cx="162.5" cy="62.5" r="4.166666666666667" stroke_width="1"             stroke="#4C0D9B" fill="white" />
<circle cx="162.5" cy="62.5" r="6.25" stroke_width="3"             stroke="#4C0D9B" fill="white" />
<circle cx="187.5" cy="62.5" r="6.25" stroke_width="2"             stroke="#92EE57" fill="white" />
<circle cx="187.5" cy="62.5" r="2.0833333333333335" stroke_width="3"             stroke="#92EE57" fill="white" />
<circle cx="187.5" cy="62.5" r="6.25" stroke_width="1"             stroke="#92EE57" fill="white" />
<circle cx="187.5" cy="62.5" r="8.333333333333334" stroke_width="2"             stroke="#92EE57" fill="white" />
<circle cx="187.5" cy="62.5" r="4.166666666666667" stroke_width="1"             stroke="#92EE57" fill="white" />
<circle cx="187.5" cy="87.5" r="10.416666666666666" stroke_width="2"             stroke="#1D5498" fill="white" />
<circle cx="187.5" cy="87.5" r="4.166666666666667" stroke_width="2"             stroke="#1D5498" fill="white" />
<circle cx="187.5" cy="87.5" r="6.25" stroke_width="3"             stroke="#1D5498" fill="white" />
<circle cx="187.5" cy="87.5" r="4.166666666666667" stroke_width="3"             stroke="#1D5498" fill="white" />
<circle cx="187.5" cy="87.5" r="2.0833333333333335" stroke_width="1"             stroke="#1D5498" fill="white" />
<circle cx="162.5" cy="87.5" r="8.333333333333334" stroke_width="1"             stroke="#B1BF42" fill="white" />
<circle cx="162.5" cy="87.5" r="2.0833333333333335" stroke_width="3"             stroke="#B1BF42" fill="white" />
<circle cx="162.5" cy="87.5" r="10.416666666666666" stroke_width="3"             stroke="#B1BF42" fill="white" />
<circle cx="162.5" cy="87.5" r="2.0833333333333335" stroke_width="1"             stroke="#B1BF42" fill="white" />
<circle cx="162.5" cy="87.5" r="2.0833333333333335" stroke_width="1"             stroke="#B1BF42" fill="white" />
<circle cx="112.5" cy="62.5" r="2.0833333333333335" stroke_width="1"             stroke="#2BDD1C" fill="white" />
<circle cx="112.5" cy="62.5" r="4.166666666666667" stroke_width="3"             stroke="#2BDD1C" fill="white" />
<circle cx="112.5" cy="62.5" r="4.166666666666667" stroke_width="2"             stroke="#2BDD1C" fill="white" />
<circle cx="112.5" cy="62.5" r="2.0833333333333335" stroke_width="1"             stroke="#2BDD1C" fill="white" />
<circle cx="112.5" cy="62.5" r="6.25" stroke_width="1"             stroke="#2BDD1C" fill="white" />
<circle cx="137.5" cy="62.5" r="6.25" stroke_width="3"             stroke="#1CACA6" fill="white" />
<circle cx="137.5" cy="62.5" r="2.0833333333333335" stroke_width="2"             stroke="#1CACA6" fill="white" />
<circle cx="137.5" cy="62.5" r="10.416666666666666" stroke_width="3"             stroke="#1CACA6" fill="white" />
<circle cx="137.5" cy="62.5" r="2.0833333333333335" stroke_width="2"             stroke="#1CACA6" fill="white" />
<circle cx="137.5" cy="62.5" r="10.416666666666666" stroke_width="2"             stroke="#1CACA6" fill="white" />
<circle cx="137.5" cy="87.5" r="2.0833333333333335" stroke_width="1"             stroke="#199223" fill="white" />
<circle cx="137.5" cy="87.5" r="10.416666666666666" stroke_width="3"             stroke="#199223" fill="white" />
<circle cx="137.5" cy="87.5" r="6.25" stroke_width="1"             stroke="#199223" fill="white" />
<circle cx="137.5" cy="87.5" r="4.166666666666667" stroke_width="2"             stroke="#199223" fill="white" />
<circle cx="137.5" cy="87.5" r="8.333333333333334" stroke_width="1"             stroke="#199223" fill="white" />
<circle cx="112.5" cy="87.5" r="10.416666666666666" stroke_width="1"             stroke="#FF1C0F" fill="white" />
<circle cx="112.5" cy="87.5" r="6.25" stroke_width="1"             stroke="#FF1C0F" fill="white" />
<circle cx="112.5" cy="87.5" r="2.0833333333333335" stroke_width="2"             stroke="#FF1C0F" fill="white" />
<circle cx="112.5" cy="87.5" r="2.0833333333333335" stroke_width="3"             stroke="#FF1C0F" fill="white" />
<circle cx="112.5" cy="87.5" r="6.25" stroke_width="2"             stroke="#FF1C0F" fill="white" />
<circle cx="112.5" cy="112.5" r="6.25" stroke_width="2"             stroke="#9674FF" fill="white" />
<circle cx="112.5" cy="112.5" r="2.0833333333333335" stroke_width="1"             stroke="#9674FF" fill="white" />
<circle cx="112.5" cy="112.5" r="8.333333333333334" stroke_width="1"             stroke="#9674FF" fill="white" />
<circle cx="112.5" cy="112.5" r="8.333333333333334" stroke_width="3"             stroke="#9674FF" fill="white" />
<circle cx="112.5" cy="112.5" r="6.25" stroke_width="3"             stroke="#9674FF" fill="white" />
<circle cx="137.5" cy="112.5" r="6.25" stroke_width="2"             stroke="#B040DF" fill="white" />
<circle cx="137.5" cy="112.5" r="10.416666666666666" stroke_width="2"             stroke="#B040DF" fill="white" />
<circle cx="137.5" cy="112.5" r="4.166666666666667" stroke_width="1"             stroke="#B040DF" fill="white" />
<circle cx="137.5" cy="112.5" r="2.0833333333333335" stroke_width="3"             stroke="#B040DF" fill="white" />
<circle cx="137.5" cy="112.5" r="4.166666666666667" stroke_width="2"             stroke="#B040DF" fill="white" />
<circle cx="137.5" cy="137.5" r="4.166666666666667" stroke_width="2"             stroke="#E92D1E" fill="white" />
<circle cx="137.5" cy="137.5" r="8.333333333333334" stroke_width="3"             stroke="#E92D1E" fill="white" />
<circle cx="137.5" cy="137.5" r="8.333333333333334" stroke_width="2"             stroke="#E92D1E" fill="white" />
<circle cx="137.5" cy="137.5" r="6.25" stroke_width="2"             stroke="#E92D1E" fill="white" />
<circle cx="137.5" cy="137.5" r="10.416666666666666" stroke_width="2"             stroke="#E92D1E" fill="white" />
<circle cx="112.5" cy="137.5" r="10.416666666666666" stroke_width="1"             stroke="#110FA3" fill="white" />
<circle cx="112.5" cy="137.5" r="4.166666666666667" stroke_width="2"             stroke="#110FA3" fill="white" />
<circle cx="112.5" cy="137.5" r="2.0833333333333335" stroke_width="2"             stroke="#110FA3" fill="white" />
<circle cx="112.5" cy="137.5" r="4.166666666666667" stroke_width="1"             stroke="#110FA3" fill="white" />
<circle cx="112.5" cy="137.5" r="4.166666666666667" stroke_width="2"             stroke="#110FA3" fill="white" />
<circle cx="162.5" cy="112.5" r="4.166666666666667" stroke_width="3"             stroke="#79A0A2" fill="white" />
<circle cx="162.5" cy="112.5" r="8.333333333333334" stroke_width="2"             stroke="#79A0A2" fill="white" />
<circle cx="162.5" cy="112.5" r="4.166666666666667" stroke_width="1"             stroke="#79A0A2" fill="white" />
<circle cx="162.5" cy="112.5" r="4.166666666666667" stroke_width="1"             stroke="#79A0A2" fill="white" />
<circle cx="162.5" cy="112.5" r="8.333333333333334" stroke_width="1"             stroke="#79A0A2" fill="white" />
<circle cx="187.5" cy="112.5" r="6.25" stroke_width="2"             stroke="#AF4003" fill="white" />
<circle cx="187.5" cy="112.5" r="6.25" stroke_width="3"             stroke="#AF4003" fill="white" />
<circle cx="187.5" cy="112.5" r="4.166666666666667" stroke_width="1"             stroke="#AF4003" fill="white" />
<circle cx="187.5" cy="112.5" r="2.0833333333333335" stroke_width="1"             stroke="#AF4003" fill="white" />
<circle cx="187.5" cy="112.5" r="2.0833333333333335" stroke_width="1"             stroke="#AF4003" fill="white" />
<circle cx="187.5" cy="137.5" r="6.25" stroke_width="2"             stroke="#28621B" fill="white" />
<circle cx="187.5" cy="137.5" r="2.0833333333333335" stroke_width="2"             stroke="#28621B" fill="white" />
<circle cx="187.5" cy="137.5" r="6.25" stroke_width="2"             stroke="#28621B" fill="white" />
<circle cx="187.5" cy="137.5" r="2.0833333333333335" stroke_width="1"             stroke="#28621B" fill="white" />
<circle cx="187.5" cy="137.5" r="10.416666666666666" stroke_width="2"             stroke="#28621B" fill="white" />
<circle cx="162.5" cy="137.5" r="4.166666666666667" stroke_width="2"             stroke="#A2695F" fill="white" />
<circle cx="162.5" cy="137.5" r="6.25" stroke_width="1"             stroke="#A2695F" fill="white" />
<circle cx="162.5" cy="137.5" r="8.333333333333334" stroke_width="1"             stroke="#A2695F" fill="white" />
<circle cx="162.5" cy="137.5" r="10.416666666666666" stroke_width="2"             stroke="#A2695F" fill="white" />
<circle cx="162.5" cy="137.5" r="2.0833333333333335" stroke_width="1"             stroke="#A2695F" fill="white" />
<circle cx="162.5" cy="162.5" r="8.333333333333334" stroke_width="2"             stroke="#590353" fill="white" />
<circle cx="162.5" cy="162.5" r="6.25" stroke_width="2"             stroke="#590353" fill="white" />
<circle cx="162.5" cy="162.5" r="6.25" stroke_width="2"             stroke="#590353" fill="white" />
<circle cx="162.5" cy="162.5" r="4.166666666666667" stroke_width="2"             stroke="#590353" fill="white" />
<circle cx="162.5" cy="162.5" r="10.416666666666666" stroke_width="1"             stroke="#590353" fill="white" />
<circle cx="187.5" cy="162.5" r="8.333333333333334" stroke_width="2"             stroke="#8BB5AA" fill="white" />
<circle cx="187.5" cy="162.5" r="8.333333333333334" stroke_width="2"             stroke="#8BB5AA" fill="white" />
<circle cx="187.5" cy="162.5" r="2.0833333333333335" stroke_width="2"             stroke="#8BB5AA" fill="white" />
<circle cx="187.5" cy="162.5" r="10.416666666666666" stroke_width="1"             stroke="#8BB5AA" fill="white" />
<circle cx="187.5" cy="162.5" r="4.166666666666667" stroke_width="1"             stroke="#8BB5AA" fill="white" />
<circle cx="187.5" cy="187.5" r="2.0833333333333335" stroke_width="1"             stroke="#239353" fill="white" />
<circle cx="187.5" cy="187.5" r="2.0833333333333335" stroke_width="2"             stroke="#239353" fill="white" />
<circle cx="187.5" cy="187.5" r="8.333333333333334" stroke_width="2"             stroke="#239353" fill="white" />
<circle cx="187.5" cy="187.5" r="8.333333333333334" stroke_width="2"             stroke="#239353" fill="white" />
<circle cx="187.5" cy="187.5" r="8.333333333333334" stroke_width="1"             stroke="#239353" fill="white" />
<circle cx="162.5" cy="187.5" r="2.0833333333333335" stroke_width="1"             stroke="#7EE138" fill="white" />
<circle cx="162.5" cy="187.5" r="6.25" stroke_width="2"             stroke="#7EE138" fill="white" />
<circle cx="162.5" cy="187.5" r="8.333333333333334" stroke_width="1"             stroke="#7EE138" fill="white" />
<circle cx="162.5" cy="187.5" r="6.25" stroke_width="3"             stroke="#7EE138" fill="white" />
<circle cx="162.5" cy="187.5" r="4.166666666666667" stroke_width="1"             stroke="#7EE138" fill="white" />
<circle cx="112.5" cy="162.5" r="6.25" stroke_width="3"             stroke="#E519C6" fill="white" />
<circle cx="112.5" cy="162.5" r="8.333333333333334" stroke_width="2"             stroke="#E519C6" fill="white" />
<circle cx="112.5" cy="162.5" r="10.416666666666666" stroke_width="1"             stroke="#E519C6" fill="white" />
<circle cx="112.5" cy="162.5" r="2.0833333333333335" stroke_width="1"             stroke="#E519C6" fill="white" />
<circle cx="112.5" cy="162.5" r="4.166666666666667" stroke_width="3"             stroke="#E519C6" fill="white" />
<circle cx="137.5" cy="162.5" r="8.333333333333334" stroke_width="3"             stroke="#324A96" fill="white" />
<circle cx="137.5" cy="162.5" r="4.166666666666667" stroke_width="3"             stroke="#324A96" fill="white" />
<circle cx="137.5" cy="162.5" r="4.166666666666667" stroke_width="1"             stroke="#324A96" fill="white" />
<circle cx="137.5" cy="162.5" r="10.416666666666666" stroke_width="1"             stroke="#324A96" fill="white" />
<circle cx="137.5" cy="162.5" r="10.416666666666666" stroke_width="3"             stroke="#324A96" fill="white" />
<circle cx="137.5" cy="187.5" r="4.166666666666667" stroke_width="1"             stroke="#AD6EE3" fill="white" />
<circle cx="137.5" cy="187.5" r="2.0833333333333335" stroke_width="1"             stroke="#AD6EE3" fill="white" />
<circle cx="137.5" cy="187.5" r="8.333333333333334" stroke_width="1"             stroke="#AD6EE3" fill="white" />
<circle cx="137.5" cy="187.5" r="8.333333333333334" stroke_width="1"             stroke="#AD6EE3" fill="white" />
<circle cx="137.5" cy="187.5" r="2.0833333333333335" stroke_width="2"             stroke="#AD6EE3" fill="white" />
<circle cx="112.5" cy="187.5" r="6.25" stroke_width="1"             stroke="#686A2D" fill="white" />
<circle cx="112.5" cy="187.5" r="4.166666666666667" stroke_width="1"             stroke="#686A2D" fill="white" />
<circle cx="112.5" cy="187.5" r="8.333333333333334" stroke_width="2"             stroke="#686A2D" fill="white" />
<circle cx="112.5" cy="187.5" r="2.0833333333333335" stroke_width="1"             stroke="#686A2D" fill="white" />
<circle cx="112.5" cy="187.5" r="6.25" stroke_width="1"             stroke="#686A2D" fill="white" />
<circle cx="12.5" cy="112.5" r="6.25" stroke_width="3"             stroke="#EC8A18" fill="white" />
<circle cx="12.5" cy="112.5" r="10.416666666666666" stroke_width="1"             stroke="#EC8A18" fill="white" />
<circle cx="12.5" cy="112.5" r="6.25" stroke_width="2"             stroke="#EC8A18" fill="white" />
<circle cx="12.5" cy="112.5" r="2.0833333333333335" stroke_width="1"             stroke="#EC8A18" fill="white" />
<circle cx="12.5" cy="112.5" r="10.416666666666666" stroke_width="1"             stroke="#EC8A18" fill="white" />
<circle cx="37.5" cy="112.5" r="2.0833333333333335" stroke_width="2"             stroke="#7F812D" fill="white" />
<circle cx="37.5" cy="112.5" r="8.333333333333334" stroke_width="1"             stroke="#7F812D" fill="white" />
<circle cx="37.5" cy="112.5" r="8.333333333333334" stroke_width="2"             stroke="#7F812D" fill="white" />
<circle cx="37.5" cy="112.5" r="6.25" stroke_width="1"             stroke="#7F812D" fill="white" />
<circle cx="37.5" cy="112.5" r="4.166666666666667" stroke_width="2"             stroke="#7F812D" fill="white" />
<circle cx="37.5" cy="137.5" r="8.333333333333334" stroke_width="2"             stroke="#108150" fill="white" />
<circle cx="37.5" cy="137.5" r="2.0833333333333335" stroke_width="2"             stroke="#108150" fill="white" />
<circle cx="37.5" cy="137.5" r="10.416666666666666" stroke_width="1"             stroke="#108150" fill="white" />
<circle cx="37.5" cy="137.5" r="10.416666666666666" stroke_width="2"             stroke="#108150" fill="white" />
<circle cx="37.5" cy="137.5" r="4.166666666666667" stroke_width="1"             stroke="#108150" fill="white" />
<circle cx="12.5" cy="137.5" r="2.0833333333333335" stroke_width="1"             stroke="#A4F8DF" fill="white" />
<circle cx="12.5" cy="137.5" r="8.333333333333334" stroke_width="1"             stroke="#A4F8DF" fill="white" />
<circle cx="12.5" cy="137.5" r="2.0833333333333335" stroke_width="2"             stroke="#A4F8DF" fill="white" />
<circle cx="12.5" cy="137.5" r="8.333333333333334" stroke_width="3"             stroke="#A4F8DF" fill="white" />
<circle cx="12.5" cy="137.5" r="2.0833333333333335" stroke_width="2"             stroke="#A4F8DF" fill="white" />
<circle cx="62.5" cy="112.5" r="8.333333333333334" stroke_width="1"             stroke="#143336" fill="white" />
<circle cx="62.5" cy="112.5" r="10.416666666666666" stroke_width="2"             stroke="#143336" fill="white" />
<circle cx="62.5" cy="112.5" r="8.333333333333334" stroke_width="1"             stroke="#143336" fill="white" />
<circle cx="62.5" cy="112.5" r="6.25" stroke_width="1"             stroke="#143336" fill="white" />
<circle cx="62.5" cy="112.5" r="10.416666666666666" stroke_width="3"             stroke="#143336" fill="white" />
<circle cx="87.5" cy="112.5" r="8.333333333333334" stroke_width="3"             stroke="#629832" fill="white" />
<circle cx="87.5" cy="112.5" r="2.0833333333333335" stroke_width="1"             stroke="#629832" fill="white" />
<circle cx="87.5" cy="112.5" r="4.166666666666667" stroke_width="1"             stroke="#629832" fill="white" />
<circle cx="87.5" cy="112.5" r="2.0833333333333335" stroke_width="3"             stroke="#629832" fill="white" />
<circle cx="87.5" cy="112.5" r="4.166666666666667" stroke_width="1"             stroke="#629832" fill="white" />
<circle cx="87.5" cy="137.5" r="6.25" stroke_width="2"             stroke="#5D20C1" fill="white" />
<circle cx="87.5" cy="137.5" r="6.25" stroke_width="1"             stroke="#5D20C1" fill="white" />
<circle cx="87.5" cy="137.5" r="10.416666666666666" stroke_width="1"             stroke="#5D20C1" fill="white" />
<circle cx="87.5" cy="137.5" r="4.166666666666667" stroke_width="2"             stroke="#5D20C1" fill="white" />
<circle cx="87.5" cy="137.5" r="2.0833333333333335" stroke_width="2"             stroke="#5D20C1" fill="white" />
<circle cx="62.5" cy="137.5" r="4.166666666666667" stroke_width="1"             stroke="#ACBF96" fill="white" />
<circle cx="62.5" cy="137.5" r="2.0833333333333335" stroke_width="1"             stroke="#ACBF96" fill="white" />
<circle cx="62.5" cy="137.5" r="8.333333333333334" stroke_width="1"             stroke="#ACBF96" fill="white" />
<circle cx="62.5" cy="137.5" r="2.0833333333333335" stroke_width="3"             stroke="#ACBF96" fill="white" />
<circle cx="62.5" cy="137.5" r="8.333333333333334" stroke_width="3"             stroke="#ACBF96" fill="white" />
<circle cx="62.5" cy="162.5" r="6.25" stroke_width="1"             stroke="#A4426C" fill="white" />
<circle cx="62.5" cy="162.5" r="8.333333333333334" stroke_width="2"             stroke="#A4426C" fill="white" />
<circle cx="62.5" cy="162.5" r="10.416666666666666" stroke_width="2"             stroke="#A4426C" fill="white" />
<circle cx="62.5" cy="162.5" r="10.416666666666666" stroke_width="3"             stroke="#A4426C" fill="white" />
<circle cx="62.5" cy="162.5" r="6.25" stroke_width="2"             stroke="#A4426C" fill="white" />
<circle cx="87.5" cy="162.5" r="2.0833333333333335" stroke_width="2"             stroke="#6B14C1" fill="white" />
<circle cx="87.5" cy="162.5" r="4.166666666666667" stroke_width="1"             stroke="#6B14C1" fill="white" />
<circle cx="87.5" cy="162.5" r="8.333333333333334" stroke_width="1"             stroke="#6B14C1" fill="white" />
<circle cx="87.5" cy="162.5" r="6.25" stroke_width="2"             stroke="#6B14C1" fill="white" />
<circle cx="87.5" cy="162.5" r="8.333333333333334" stroke_width="3"             stroke="#6B14C1" fill="white" />
<circle cx="87.5" cy="187.5" r="8.333333333333334" stroke_width="1"             stroke="#F38A6B" fill="white" />
<circle cx="87.5" cy="187.5" r="4.166666666666667" stroke_width="2"             stroke="#F38A6B" fill="white" />
<circle cx="87.5" cy="187.5" r="2.0833333333333335" stroke_width="3"             stroke="#F38A6B" fill="white" />
<circle cx="87.5" cy="187.5" r="10.416666666666666" stroke_width="3"             stroke="#F38A6B" fill="white" />
<circle cx="87.5" cy="187.5" r="4.166666666666667" stroke_width="2"             stroke="#F38A6B" fill="white" />
<circle cx="62.5" cy="187.5" r="2.0833333333333335" stroke_width="3"             stroke="#0F230E" fill="white" />
<circle cx="62.5" cy="187.5" r="4.166666666666667" stroke_width="3"             stroke="#0F230E" fill="white" />
<circle cx="62.5" cy="187.5" r="4.166666666666667" stroke_width="2"             stroke="#0F230E" fill="white" />
<circle cx="62.5" cy="187.5" r="2.0833333333333335" stroke_width="2"             stroke="#0F230E" fill="white" />
<circle cx="62.5" cy="187.5" r="2.0833333333333335" stroke_width="2"             stroke="#0F230E" fill="white" />
<circle cx="12.5" cy="162.5" r="6.25" stroke_width="3"             stroke="#9A22D4" fill="white" />
<circle cx="12.5" cy="162.5" r="2.0833333333333335" stroke_width="1"             stroke="#9A22D4" fill="white" />
<circle cx="12.5" cy="162.5" r="2.0833333333333335" stroke_width="1"             stroke="#9A22D4" fill="white" />
<circle cx="12.5" cy="162.5" r="2.0833333333333335" stroke_width="1"             stroke="#9A22D4" fill="white" />
<circle cx="12.5" cy="162.5" r="10.416666666666666" stroke_width="1"             stroke="#9A22D4" fill="white" />
<circle cx="37.5" cy="162.5" r="6.25" stroke_width="1"             stroke="#1A2968" fill="white" />
<circle cx="37.5" cy="162.5" r="10.416666666666666" stroke_width="2"             stroke="#1A2968" fill="white" />
<circle cx="37.5" cy="162.5" r="4.166666666666667" stroke_width="1"             stroke="#1A2968" fill="white" />
<circle cx="37.5" cy="162.5" r="2.0833333333333335" stroke_width="2"             stroke="#1A2968" fill="white" />
<circle cx="37.5" cy="162.5" r="8.333333333333334" stroke_width="1"             stroke="#1A2968" fill="white" />
<circle cx="37.5" cy="187.5" r="2.0833333333333335" stroke_width="1"             stroke="#E54D0D" fill="white" />
<circle cx="37.5" cy="187.5" r="10.416666666666666" stroke_width="2"             stroke="#E54D0D" fill="white" />
<circle cx="37.5" cy="187.5" r="2.0833333333333335" stroke_width="2"             stroke="#E54D0D" fill="white" />
<circle cx="37.5" cy="187.5" r="6.25" stroke_width="1"             stroke="#E54D0D" fill="white" />
<circle cx="37.5" cy="187.5" r="2.0833333333333335" stroke_width="2"             stroke="#E54D0D" fill="white" />
<circle cx="12.5" cy="187.5" r="6.25" stroke_width="2"             stroke="#777E28" fill="white" />
<circle cx="12.5" cy="187.5" r="4.166666666666667" stroke_width="2"             stroke="#777E28" fill="white" />
<circle cx="12.5" cy="187.5" r="6.25" stroke_width="3"             stroke="#777E28" fill="white" />
<circle cx="12.5" cy="187.5" r="6.25" stroke_width="2"             stroke="#777E28" fill="white" />
<circle cx="12.5" cy="187.5" r="10.416666666666666" stroke_width="1"             stroke="#777E28" fill="white" />
        </g> 
</svg>