<?xml version="1.0" encoding="UTF-8" standalone="no"?>
<svg width="200" height="200" xmlns="http://www.w3.org/2000/svg">
        <g opacity="0.8">
<rect x="0" y="0" width="12.5" height="12.5"         fill="#41F37D" stroke="#41F37D" stroke_width="0.5"  />
<rect x="12.5" y="0.0" width="12.5" height="12.5"         fill="#9B70F5" stroke="#9B70F5" stroke_width="0.5"  />
<rect x="12.5" y="12.5" width="12.5" height="12.5"         fill="#F90ABE" stroke="#F90ABE" stroke_width="0.5"  />
<rect x="0.0" y="12.5" width="12.5" height="12.5"         fill="#678249" stroke="#678249" stroke_width="0.5"  />
<rect x="25.0" y="0.0" width="12.5" height="12.5"         fill="#C63DF4" stroke="#C63DF4" stroke_width="0.5"  />
<rect x="37.5" y="0.0" width="12.5" height="12.5"         fill="#5F24A2" stroke="#5F24A2" stroke_width="0.5"  />
<rect x="37.5" y="12.5" width="12.5" height="12.5"         fill="#9D726D" stroke="#9D726D" stroke_width="0.5"  />
<rect x="25.0" y="12.5" width="12.5" height="12.5"         fill="#8E3F28" stroke="#8E3F28" stroke_width="0.5"  />
<rect x="25.0" y="25.0" width="12.5" height="12.5"         fill="#2BA2FB" stroke="#2BA2FB" stroke_width="0.5"  />
<rect x="37.5" y="25.0" width="12.5" height="12.5"         fill="#67C4FB" stroke="#67C4FB" stroke_width="0.5"  />
<rect x="37.5" y="37.5" width="12.5" height="12.5"         fill="#2FEA87" stroke="#2FEA87" stroke_width="0.5"  />
<rect x="25.0" y="37.5" width="12.5" height="12.5"         fill="#F22D44" stroke="#F22D44" stroke_width="0.5"  />
<rect x="0.0" y="25.0" width="12.5" height="12.5"         fill="#DB084E" stroke="#DB084E" stroke_width="0.5"  />
<rect x="12.5" y="25.0" width="12.5" height="12.5"         fill="#4B95C7" stroke="#4B95C7" stroke_width="0.5"  />
<rect x="12.5" y="37.5" width="12.5" height="12.5"         fill="#811513" stroke="#811513" stroke_width="0.5"  />
<rect x="0.0" y="37.5" width="12.5" height="12.5"         fill="#8D8E40" stroke="#8D8E40" stroke_width="0.5"  />
<rect x="50.0" y="0.0" width="12.5" height="12.5"         fill="#F45656" stroke="#F45656" stroke_width="0.5"  />
<rect x="62.5" y="0.0" width="12.5" height="12.5"         fill="#763648" stroke="#763648" stroke_width="0.5"  />
<rect x="62.5" y="12.5" width="12.5" height="12.5"         fill="#067E6A" stroke="#067E6A" stroke_width="0.5"  />
<rect x="50.0" y="12.5" width="12.5" height="12.5"         fill="#01BF72" stroke="#01BF72" stroke_width="0.5"  />
<rect x="75.0" y="0.0" width="12.5" height="12.5"         fill="#40E56E" stroke="#40E56E" stroke_width="0.5"  />
<rect x="87.5" y="0.0" width="12.5" height="12.5"         fill="#2DBD90" stroke="#2DBD90" stroke_width="0.5"  />
<rect x="87.5" y="12.5" width="12.5" height="12.5"         fill="#A6C094" stroke="#A6C094" stroke_width="0.5"  />
<rect x="75.0" y="12.5" width="12.5" height="12.5"         fill="#107F0C" stroke="#107F0C" stroke_width="0.5"  />
<rect x="75.0" y="25.0" width="12.5" height="12.5"         fill="#A701B1" stroke="#A701B1" stroke_width="0.5"  />
<rect x="87.5" y="25.0" width="12.5" height="12.5"         fill="#DA0BB8" stroke="#DA0BB8" stroke_width="0.5"  />
<rect x="87.5" y="37.5" width="12.5" height="12.5"         fill="#809CC8" stroke="#809CC8" stroke_width="0.5"  />
<rect x="75.0" y="37.5" width="12.5" height="12.5"         fill="#F168D1" stroke="#F168D1" stroke_width="0.5"  />
<rect x="50.0" y="25.0" width="12.5" height="12.5"         fill="#BBC458" stroke="#BBC458" stroke_width="0.5"  />
<rect x="62.5" y="25.0" width="12.5" height="12.5"         fill="#9CF53F" stroke="#9CF53F" stroke_width="0.5"  />
<rect x="62.5" y="37.5" width="12.5" height="12.5"         fill="#9556D3" stroke="#9556D3" stroke_width="0.5"  />
<rect x="50.0" y="37.5" width="12.5" height="12.5"         fill="#326B36" stroke="#326B36" stroke_width="0.5"  />
<rect x="50.0" y="50.0" width="12.5" height="12.5"         fill="#4E39E9" stroke="#4E39E9" stroke_width="0.5"  />
<rect x="62.5" y="50.0" width="12.5" height="12.5"         fill="#324793" stroke="#324793" stroke_width="0.5"  />
<rect x="62.5" y="62.5" width="12.5" height="12.5"         fill="#D62602" stroke="#D62602" stroke_width="0.5"  />
<rect x="50.0" y="62.5" width="12.5" height="12.5"         fill="#9C1349" stroke="#9C1349" stroke_width="0.5"  />
<rect x="75.0" y="50.0" width="12.5" height="12.5"         fill="#D01571" stroke="#D01571" stroke_width="0.5"  />
<rect x="87.5" y="50.0" width="12.5" height="12.5"         fill="#CDDB22" stroke="#CDDB22" stroke_width="0.5"  />
<rect x="87.5" y="62.5" width="12.5" height="12.5"         fill="#858372" stroke="#858372" stroke_width="0.5"  />
<rect x="75.0" y="62.5" width="12.5" height="12.5"         fill="#FA3B86" stroke="#FA3B86" stroke_width="0.5"  />
<rect x="75.0" y="75.0" width="12.5" height="12.5"         fill="#EA975A" stroke="#EA975A" stroke_width="0.5"  />
<rect x="87.5" y="75.0" width="12.5" height="12.5"         fill="#7BE3D0" stroke="#7BE3D0" stroke_width="0.5"  />
<rect x="87.5" y="87.5" width="12.5" height="12.5"         fill="#ADE61B" stroke="#ADE61B" stroke_width="0.5"  />
<rect x="75.0" y="87.5" width="12.5" height="12.5"         fill="#A0D2FC" stroke="#A0D2FC" stroke_width="0.5"  />
<rect x="50.0" y="75.0" width="12.5" height="12.5"         fill="#26DC21" stroke="#26DC21" stroke_width="0.5"  />
<rect x="62.5" y="75.0" width="12.5" height="12.5"         fill="#20435F" stroke="#20435F" stroke_width="0.5"  />
<rect x="62.5" y="87.5" width="12.5" height="12.5"         fill="#5E6226" stroke="#5E6226" stroke_width="0.5"  />
<rect x="50.0" y="87.5" width="12.5" height="12.5"         fill="#C44537" stroke="#C44537" stroke_width="0.5"  />
<rect x="0.0" y="50.0" width="12.5" height="12.5"         fill="#D4AA08" stroke="#D4AA08" stroke_width="0.5"  />
<rect x="12.5" y="50.0" width="12.5" height="12.5"         fill="#1B118E" stroke="#1B118E" stroke_width="0.5"  />
<rect x="12.5" y="62.5" width="12.5" height="12.5"         fill="#39105F" stroke="#39105F" stroke_width="0.5"  />
<rect x="0.0" y="62.5" width="12.5" height="12.5"         fill="#A465BC" stroke="#A465BC" stroke_width="0.5"  />
<rect x="25.0" y="50.0" width="12.5" height="12.5"         fill="#CA6944" stroke="#CA6944" stroke_width="0.5"  />
<rect x="37.5" y="50.0" width="12.5" height="12.5"         fill="#29D825" stroke="#29D825" stroke_width="0.5"  />
<rect x="37.5" y="62.5" width="12.5" height="12.5"         fill="#D6DA7C" stroke="#D6DA7C" stroke_width="0.5"  />
<rect x="25.0" y="62.5" width="12.5" height="12.5"         fill="#F5A5A3" stroke="#F5A5A3" stroke_width="0.5"  />
<rect x="25.0" y="75.0" width="12.5" height="12.5"         fill="#475989" stroke="#475989" stroke_width="0.5"  />
<rect x="37.5" y="75.0" width="12.5" height="12.5"         fill="#070989" stroke="#070989" stroke_width="0.5"  />
<rect x="37.5" y="87.5" width="12.5" height="12.5"         fill="#433329" stroke="#433329" stroke_width="0.5"  />
<rect x="25.0" y="87.5" width="12.5" height="12.5"         fill="#5090FF" stroke="#5090FF" stroke_width="0.5"  />
<rect x="0.0" y="75.0" width="12.5" height="12.5"         fill="#608879" stroke="#608879" stroke_width="0.5"  />
<rect x="12.5" y="75.0" width="12.5" height="12.5"         fill="#570A4D" stroke="#570A4D" stroke_width="0.5"  />
<rect x="12.5" y="87.5" width="12.5" height="12.5"         fill="#2F68A4" stroke="#2F68A4" stroke_width="0.5"  />
<rect x="0.0" y="87.5" width="12.5" height="12.5"         fill="#819881" stroke="#819881" stroke_width="0.5"  />
<rect x="100.0" y="0.0" width="12.5" height="12.5"         fill="#D9548F" stroke="#D9548F" stroke_width="0.5"  />
<rect x="112.5" y="0.0" width="12.5" height="12.5"         fill="#51C6BD" stroke="#51C6BD" stroke_width="0.5"  />
<rect x="112.5" y="12.5" width="12.5" height="12.5"         fill="#A8AA67" stroke="#A8AA67" stroke_width="0.5"  />
<rect x="100.0" y="12.5" width="12.5" height="12.5"         fill="#F0E049" stroke="#F0E049" stroke_width="0.5"  />
<rect x="125.0" y="0.0" width="12.5" height="12.5"         fill="#13014A" stroke="#13014A" stroke_width="0.5"  />
<rect x="137.5" y="0.0" width="12.5" height="12.5"         fill="#2FDFE9" stroke="#2FDFE9" stroke_width="0.5"  />
<rect x="137.5" y="12.5" width="12.5" height="12.5"         fill="#132A21" stroke="#132A21" stroke_width="0.5"  />
<rect x="125.0" y="12.5" width="12.5" height="12.5"         fill="#020E76" stroke="#020E76" stroke_width="0.5"  />
<rect x="125.0" y="25.0" width="12.5" height="12.5"         fill="#442718" stroke="#442718" stroke_width="0.5"  />
<rect x="137.5" y="25.0" width="12.5" height="12.5"         fill="#4758B0" stroke="#4758B0" stroke_width="0.5"  />
<rect x="137.5" y="37.5" width="12.5" height="12.5"         fill="#FC2632" stroke="#FC2632" stroke_width="0.5"  />
<rect x="125.0" y="37.5" width="12.5" height="12.5"         fill="#931F53" stroke="#931F53" stroke_width="0.5"  />
<rect x="100.0" y="25.0" width="12.5" height="12.5"         fill="#9E5A2C" stroke="#9E5A2C" stroke_width="0.5"  />
<rect x="112.5" y="25.0" width="12.5" height="12.5"         fill="#38E4A8" stroke="#38E4A8" stroke_width="0.5"  />
<rect x="112.5" y="37.5" width="12.5" height="12.5"         fill="#643AEE" stroke="#643AEE" stroke_width="0.5"  />
<rect x="100.0" y="37.5" width="12.5" height="12.5"         fill="#472F7E" stroke="#472F7E" stroke_width="0.5"  />
<rect x="150.0" y="0.0" width="12.5" height="12.5"         fill="#42B487" stroke="#42B487" stroke_width="0.5"  />
<rect x="162.5" y="0.0" width="12.5" height="12.5"         fill="#F3F9D0" stroke="#F3F9D0" stroke_width="0.5"  />
<rect x="162.5" y="12.5" width="12.5" height="12.5"         fill="#8DC375" stroke="#8DC375" stroke_width="0.5"  />
<rect x="150.0" y="12.5" width="12.5" height="12.5"         fill="#2720CF" stroke="#2720CF" stroke_width="0.5"  />
<rect x="175.0" y="0.0" width="12.5" height="12.5"         fill="#536898" stroke="#536898" stroke_width="0.5"  />
<rect x="187.5" y="0.0" width="12.5" height="12.5"         fill="#DE5567" stroke="#DE5567" stroke_width="0.5"  />
<rect x="187.5" y="12.5" width="12.5" height="12.5"         fill="#B5C7CF" stroke="#B5C7CF" stroke_width="0.5"  />
<rect x="175.0" y="12.5" width="12.5" height="12.5"         fill="#C5BDDB" stroke="#C5BDDB" stroke_width="0.5"  />
<rect x="175.0" y="25.0" width="12.5" height="12.5"         fill="#FAA1D9" stroke="#FAA1D9" stroke_width="0.5"  />
<rect x="187.5" y="25.0" width="12.5" height="12.5"         fill="#89BB63" stroke="#89BB63" stroke_width="0.5"  />
<rect x="187.5" y="37.5" width="12.5" height="12.5"         fill="#51D9BD" stroke="#51D9BD" stroke_width="0.5"  />
<rect x="175.0" y="37.5" width="12.5" height="12.5"         fill="#8F9996" stroke="#8F9996" stroke_width="0.5"  />
<rect x="150.0" y="25.0" width="12.5" height="12.5"         fill="#9EC5E0" stroke="#9EC5E0" stroke_width="0.5"  />
<rect x="162.5" y="25.0" width="12.5" height="12.5"         fill="#E2B025" stroke="#E2B025" stroke_width="0.5"  />
<rect x="162.5" y="37.5" width="12.5" height="12.5"         fill="#4AC418" stroke="#4AC418" stroke_width="0.5"  />
<rect x="150.0" y="37.5" width="12.5" height="12.5"         fill="#187E62" stroke="#187E62" stroke_width="0.5"  />
<rect x="150.0" y="50.0" width="12.5" height="12.5"         fill="#D44691" stroke="#D44691" stroke_width="0.5"  />
<rect x="162.5" y="50.0" width="12.5" height="12.5"         fill="#2DFED1" stroke="#2DFED1" stroke_width="0.5"  />
<rect x="162.5" y="62.5" width="12.5" height="12.5"         fill="#91F79D" stroke="#91F79D" stroke_width="0.5"  />
<rect x="150.0" y="62.5" width="12.5" height="12.5"         fill="#7777D2" stroke="#7777D2" stroke_width="0.5"  />
<rect x="175.0" y="50.0" width="12.5" height="12.5"         fill="#52D4FF" stroke="#52D4FF" stroke_width="0.5"  />
<rect x="187.5" y="50.0" width="12.5" height="12.5"         fill="#4E8A10" stroke="#4E8A10" stroke_width="0.5"  />
<rect x="187.5" y="62.5" width="12.5" height="12.5"         fill="#90A831" stroke="#90A831" stroke_width="0.5"  />
<rect x="175.0" y="62.5" width="12.5" height="12.5"         fill="#35B9BE" stroke="#35B9BE" stroke_width="0.5"  />
<rect x="175.0" y="75.0" width="12.5" height="12.5"         fill="#389D7F" stroke="#389D7F" stroke_width="0.5"  />
<rect x="187.5" y="75.0" width="12.5" height="12.5"         fill="#8FBE07" stroke="#8FBE07" stroke_width="0.5"  />
<rect x="187.5" y="87.5" width="12.5" height="12.5"         fill="#8FFE1C" stroke="#8FFE1C" stroke_width="0.5"  />
<rect x="175.0" y="87.5" width="12.5" height="12.5"         fill="#FCD4EA" stroke="#FCD4EA" stroke_width="0.5"  />
<rect x="150.0" y="75.0" width="12.5" height="12.5"         fill="#EF1084" stroke="#EF1084" stroke_width="0.5"  />
<rect x="162.5" y="75.0" width="12.5" height="12.5"         fill="#322B98" stroke="#322B98" stroke_width="0.5"  />
<rect x="162.5" y="87.5" width="12.5" height="12.5"         fill="#A00AEF" stroke="#A00AEF" stroke_width="0.5"  />
<rect x="150.0" y="87.5" width="12.5" height="12.5"         fill="#532D64" stroke="#532D64" stroke_width="0.5"  />
<rect x="100.0" y="50.0" width="12.5" height="12.5"         fill="#782F33" stroke="#782F33" stroke_width="0.5"  />
<rect x="112.5" y="50.0" width="12.5" height="12.5"         fill="#A9E5E1" stroke="#A9E5E1" stroke_width="0.5"  />
<rect x="112.5" y="62.5" width="12.5" height="12.5"         fill="#E407D3" stroke="#E407D3" stroke_width="0.5"  />
<rect x="100.0" y="62.5" width="12.5" height="12.5"         fill="#6C32A6" stroke="#6C32A6" stroke_width="0.5"  />
<rect x="125.0" y="50.0" width="12.5" height="12.5"         fill="#6554C4" stroke="#6554C4" stroke_width="0.5"  />
<rect x="137.5" y="50.0" width="12.5" height="12.5"         fill="#47E270" stroke="#47E270" stroke_width="0.5"  />
<rect x="137.5" y="62.5" width="12.5" height="12.5"         fill="#01EB0D" stroke="#01EB0D" stroke_width="0.5"  />
<rect x="125.0" y="62.5" width="12.5" height="12.5"         fill="#9F27D7" stroke="#9F27D7" stroke_width="0.5"  />
<rect x="125.0" y="75.0" width="12.5" height="12.5"         fill="#C24512" stroke="#C24512" stroke_width="0.5"  />
<rect x="137.5" y="75.0" width="12.5" height="12.5"         fill="#838964" stroke="#838964" stroke_width="0.5"  />
<rect x="137.5" y="87.5" width="12.5" height="12.5"         fill="#D77C88" stroke="#D77C88" stroke_width="0.5"  />
<rect x="125.0" y="87.5" width="12.5" height="12.5"         fill="#35961F" stroke="#35961F" stroke_width="0.5"  />
<rect x="100.0" y="75.0" width="12.5" height="12.5"         fill="#3E73AD" stroke="#3E73AD" stroke_width="0.5"  />
<rect x="112.5" y="75.0" width="12.5" height="12.5"         fill="#C088C4" stroke="#C088C4" stroke_width="0.5"  />
<rect x="112.5" y="87.5" width="12.5" height="12.5"         fill="#34F1D4" stroke="#34F1D4" stroke_width="0.5"  />
<rect x="100.0" y="87.5" width="12.5" height="12.5"         fill="#435368" stroke="#435368" stroke_width="0.5"  />
<rect x="100.0" y="100.0" width="12.5" height="12.5"         fill="#6CB9A7" stroke="#6CB9A7" stroke_width="0.5"  />
<rect x="112.5" y="100.0" width="12.5" height="12.5"         fill="#0AF914" stroke="#0AF914" stroke_width="0.5"  />
<rect x="112.5" y="112.5" width="12.5" height="12.5"         fill="#AD07E3" stroke="#AD07E3" stroke_width="0.5"  />
<rect x="100.0" y="112.5" width="12.5" height="12.5"         fill="#0E9DDC" stroke="#0E9DDC" stroke_width="0.5"  />
<rect x="125.0" y="100.0" width="12.5" height="12.5"         fill="#D16705" stroke="#D16705" stroke_width="0.5"  />
<rect x="137.5" y="100.0" width="12.5" height="12.5"         fill="#EE5407" stroke="#EE5407" stroke_width="0.5"  />
<rect x="137.5" y="112.5" width="12.5" height="12.5"         fill="#15E9BE" stroke="#15E9BE" stroke_width="0.5"  />
<rect x="125.0" y="112.5" width="12.5" height="12.5"         fill="#588B88" stroke="#588B88" stroke_width="0.5"  />
<rect x="125.0" y="125.0" width="12.5" height="12.5"         fill="#E5E4C9" stroke="#E5E4C9" stroke_width="0.5"  />
<rect x="137.5" y="125.0" width="12.5" height="12.5"         fill="#B052BE" stroke="#B052BE" stroke_width="0.5"  />
<rect x="137.5" y="137.5" width="12.5" height="12.5"         fill="#BDAAEA" stroke="#BDAAEA" stroke_width="0.5"  />
<rect x="125.0" y="137.5" width="12.5" height="12.5"         fill="#9331AA" stroke="#9331AA" stroke_width="0.5"  />
<rect x="100.0" y="125.0" width="12.5" height="12.5"         fill="#0CA3F8" stroke="#0CA3F8" stroke_width="0.5"  />
<rect x="112.5" y="125.0" width="12.5" height="12.5"         fill="#3C5B7C" stroke="#3C5B7C" stroke_width="0.5"  />
<rect x="112.5" y="137.5" width="12.5" height="12.5"         fill="#0C40E2" stroke="#0C40E2" stroke_width="0.5"  />
<rect x="100.0" y="137.5" width="12.5" height="12.5"         fill="#B73CAA" stroke="#B73CAA" stroke_width="0.5"  />
<rect x="150.0" y="100.0" width="12.5" height="12.5"         fill="#78C441" stroke="#78C441" stroke_width="0.5"  />
<rect x="162.5" y="100.0" width="12.5" height="12.5"         fill="#F81168" stroke="#F81168" stroke_width="0.5"  />
<rect x="162.5" y="112.5" width="12.5" height="12.5"         fill="#AE50F5" stroke="#AE50F5" stroke_width="0.5"  />
<rect x="150.0" y="112.5" width="12.5" height="12.5"         fill="#C406C8" stroke="#C406C8" stroke_width="0.5"  />
<rect x="175.0" y="100.0" width="12.5" height="12.5"         fill="#59F8B4" stroke="#59F8B4" stroke_width="0.5"  />
<rect x="187.5" y="100.0" width="12.5" height="12.5"         fill="#F5045D" stroke="#F5045D" stroke_width="0.5"  />
<rect x="187.5" y="112.5" width="12.5" height="12.5"         fill="#7E4C07" stroke="#7E4C07" stroke_width="0.5"  />
<rect x="175.0" y="112.5" width="12.5" height="12.5"         fill="#7A46A9" stroke="#7A46A9" stroke_width="0.5"  />
<rect x="175.0" y="125.0" width="12.5" height="12.5"         fill="#20CEB2" stroke="#20CEB2" stroke_width="0.5"  />
<rect x="187.5" y="125.0" width="12.5" height="12.5"         fill="#CAE748" stroke="#CAE748" stroke_width="0.5"  />
<rect x="187.5" y="137.5" width="12.5" height="12.5"         fill="#FE66DB" stroke="#FE66DB" stroke_width="0.5"  />
<rect x="175.0" y="137.5" width="12.5" height="12.5"         fill="#4AEDC4" stroke="#4AEDC4" stroke_width="0.5"  />
<rect x="150.0" y="125.0" width="12.5" height="12.5"         fill="#403045" stroke="#403045" stroke_width="0.5"  />
<rect x="162.5" y="125.0" width="12.5" height="12.5"         fill="#E6F534" stroke="#E6F534" stroke_width="0.5"  />
<rect x="162.5" y="137.5" width="12.5" height="12.5"         fill="#2DA024" stroke="#2DA024" stroke_width="0.5"  />
<rect x="150.0" y="137.5" width="12.5" height="12.5"         fill="#D40814" stroke="#D40814" stroke_width="0.5"  />
<rect x="150.0" y="150.0" width="12.5" height="12.5"         fill="#1EF47C" stroke="#1EF47C" stroke_width="0.5"  />
<rect x="162.5" y="150.0" width="12.5" height="12.5"         fill="#1485A2" stroke="#1485A2" stroke_width="0.5"  />
<rect x="162.5" y="162.5" width="12.5" height="12.5"         fill="#B172BA" stroke="#B172BA" stroke_width="0.5"  />
<rect x="150.0" y="162.5" width="12.5" height="12.5"         fill="#CE7CD9" stroke="#CE7CD9" stroke_width="0.5"  />
<rect x="175.0" y="150.0" width="12.5" height="12.5"         fill="#A9CE60" stroke="#A9CE60" stroke_width="0.5"  />
<rect x="187.5" y="150.0" width="12.5" height="12.5"         fill="#DC6351" stroke="#DC6351" stroke_width="0.5"  />
<rect x="187.5" y="162.5" width="12.5" height="12.5"         fill="#9BD35B" stroke="#9BD35B" stroke_width="0.5"  />
<rect x="175.0" y="162.5" width="12.5" height="12.5"         fill="#30462D" stroke="#30462D" stroke_width="0.5"  />
<rect x="175.0" y="175.0" width="12.5" height="12.5"         fill="#F452D4" stroke="#F452D4" stroke_width="0.5"  />
<rect x="187.5" y="175.0" width="12.5" height="12.5"         fill="#B8AEC6" stroke="#B8AEC6" stroke_width="0.5"  />
<rect x="187.5" y="187.5" width="12.5" height="12.5"         fill="#13D15E" stroke="#13D15E" stroke_width="0.5"  />
<rect x="175.0" y="187.5" width="12.5" height="12.5"         fill="#E98020" stroke="#E98020" stroke_width="0.5"  />
<rect x="150.0" y="175.0" width="12.5" height="12.5"         fill="#4DC63B" stroke="#4DC63B" stroke_width="0.5"  />
<rect x="162.5" y="175.0" width="12.5" height="12.5"         fill="#7485EC" stroke="#7485EC" stroke_width="0.5"  />
<rect x="162.5" y="187.5" width="12.5" height="12.5"         fill="#5411FF" stroke="#5411FF" stroke_width="0.5"  />
<rect x="150.0" y="187.5" width="12.5" height="12.5"         fill="#D6DB92" stroke="#D6DB92" stroke_width="0.5"  />
<rect x="100.0" y="150.0" width="12.5" height="12.5"         fill="#5C377E" stroke="#5C377E" stroke_width="0.5"  />
<rect x="112.5" y="150.0" width="12.5" height="12.5"         fill="#CE126F" stroke="#CE126F" stroke_width="0.5"  />
<rect x="112.5" y="162.5" width="12.5" height="12.5"         fill="#BF9DD5" stroke="#BF9DD5" stroke_width="0.5"  />
<rect x="100.0" y="162.5" width="12.5" height="12.5"         fill="#DE6D23" stroke="#DE6D23" stroke_width="0.5"  />
<rect x="125.0" y="150.0" width="12.5" height="12.5"         fill="#57A7EF" stroke="#57A7EF" stroke_width="0.5"  />
<rect x="137.5" y="150.0" width="12.5" height="12.5"         fill="#A3388A" stroke="#A3388A" stroke_width="0.5"  />
<rect x="137.5" y="162.5" width="12.5" height="12.5"         fill="#6A8F9B" stroke="#6A8F9B" stroke_width="0.5"  />
<rect x="125.0" y="162.5" width="12.5" height="12.5"         fill="#75621A" stroke="#75621A" stroke_width="0.5"  />
<rect x="125.0" y="175.0" width="12.5" height="12.5"         fill="#67F41D" stroke="#67F41D" stroke_width="0.5"  />
<rect x="137.5" y="175.0" width="12.5" height="12.5"         fill="#9AF865" stroke="#9AF865" stroke_width="0.5"  />
<rect x="137.5" y="187.5" width="12.5" height="12.5"         fill="#74BC47" stroke="#74BC47" stroke_width="0.5"  />
<rect x="125.0" y="187.5" width="12.5" height="12.5"         fill="#5EC69C" stroke="#5EC69C" stroke_width="0.5"  />
<rect x="100.0" y="175.0" width="12.5" height="12.5"         fill="#27A8FB" stroke="#27A8FB" stroke_width="0.5"  />
<rect x="112.5" y="175.0" width="12.5" height="12.5"         fill="#A13567" stroke="#A13567" stroke_width="0.5"  />
<rect x="112.5" y="187.5" width="12.5" height="12.5"         fill="#7AD103" stroke="#7AD103" stroke_width="0.5"  />
<rect x="100.0" y="187.5" width="12.5" height="12.5"         fill="#13E3C0" stroke="#13E3C0" stroke_width="0.5"  />
<rect x="0.0" y="100.0" width="12.5" height="12.5"         fill="#B41AEB" stroke="#B41AEB" stroke_width="0.5"  />
<rect x="12.5" y="100.0" width="12.5" height="12.5"         fill="#5F3209" stroke="#5F3209" stroke_width="0.5"  />
<rect x="12.5" y="112.5" width="12.5" height="12.5"         fill="#7A3913" stroke="#7A3913" stroke_width="0.5"  />
<rect x="0.0" y="112.5" width="12.5" height="12.5"         fill="#8B713E" stroke="#8B713E" stroke_width="0.5"  />
<rect x="25.0" y="100.0" width="12.5" height="12.5"         fill="#D7F9C0" stroke="#D7F9C0" stroke_width="0.5"  />
<rect x="37.5" y="100.0" width="12.5" height="12.5"         fill="#9B62A1" stroke="#9B62A1" stroke_width="0.5"  />
<rect x="37.5" y="112.5" width="12.5" height="12.5"         fill="#26F69A" stroke="#26F69A" stroke_width="0.5"  />
<rect x="25.0" y="112.5" width="12.5" height="12.5"         fill="#725CBB" stroke="#725CBB" stroke_width="0.5"  />
<rect x="25.0" y="125.0" width="12.5" height="12.5"         fill="#C8D90B" stroke="#C8D90B" stroke_width="0.5"  />
<rect x="37.5" y="125.0" width="12.5" height="12.5"         fill="#73FB83" stroke="#73FB83" stroke_width="0.5"  />
<rect x="37.5" y="137.5" width="12.5" height="12.5"         fill="#A2423C" stroke="#A2423C" stroke_width="0.5"  />
<rect x="25.0" y="137.5" width="12.5" height="12.5"         fill="#9727FB" stroke="#9727FB" stroke_width="0.5"  />
<rect x="0.0" y="125.0" width="12.5" height="12.5"         fill="#9D2F90" stroke="#9D2F90" stroke_width="0.5"  />
<rect x="12.5" y="125.0" width="12.5" height="12.5"         fill="#A2EC07" stroke="#A2EC07" stroke_width="0.5"  />
<rect x="12.5" y="137.5" width="12.5" height="12.5"         fill="#166F4F" stroke="#166F4F" stroke_width="0.5"  />
<rect x="0.0" y="137.5" width="12.5" height="12.5"         fill="#F56918" stroke="#F56918" stroke_width="0.5"  />
<rect x="50.0" y="100.0" width="12.5" height="12.5"         fill="#01AB8B" stroke="#01AB8B" stroke_width="0.5"  />
<rect x="62.5" y="100.0" width="12.5" height="12.5"         fill="#3DAC97" stroke="#3DAC97" stroke_width="0.5"  />
<rect x="62.5" y="112.5" width="12.5" height="12.5"         fill="#BD1A97" stroke="#BD1A97" stroke_width="0.5"  />
<rect x="50.0" y="112.5" width="12.5" height="12.5"         fill="#49E1C6" stroke="#49E1C6" stroke_width="0.5"  />
<rect x="75.0" y="100.0" width="12.5" height="12.5"         fill="#929FD6" stroke="#929FD6" stroke_width="0.5"  />
<rect x="87.5" y="100.0" width="12.5" height="12.5"         fill="#4DE23C" stroke="#4DE23C" stroke_width="0.5"  />
<rect x="87.5" y="112.5" width="12.5" height="12.5"         fill="#226191" stroke="#226191" stroke_width="0.5"  />
<rect x="75.0" y="112.5" width="12.5" height="12.5"         fill="#263899" stroke="#263899" stroke_width="0.5"  />
<rect x="75.0" y="125.0" width="12.5" height="12.5"         fill="#6D49D1" stroke="#6D49D1" stroke_width="0.5"  />
<rect x="87.5" y="125.0" width="12.5" height="12.5"         fill="#00629F" stroke="#00629F" stroke_width="0.5"  />
<rect x="87.5" y="137.5" width="12.5" height="12.5"         fill="#6DC911" stroke="#6DC911" stroke_width="0.5"  />
<rect x="75.0" y="137.5" width="12.5" height="12.5"         fill="#A8CBAA" stroke="#A8CBAA" stroke_width="0.5"  />
<rect x="50.0" y="125.0" width="12.5" height="12.5"         fill="#4DD69B" stroke="#4DD69B" stroke_width="0.5"  />
<rect x="62.5" y="125.0" width="12.5" height="12.5"         fill="#FC0370" stroke="#FC0370" stroke_width="0.5"  />
<rect x="62.5" y="137.5" width="12.5" height="12.5"         fill="#3A8552" stroke="#3A8552" stroke_width="0.5"  />
<rect x="50.0" y="137.5" width="12.5" height="12.5"         fill="#34FDAF" stroke="#34FDAF" stroke_width="0.5"  />
<rect x="50.0" y="150.0" width="12.5" height="12.5"         fill="#DBA0E0" stroke="#DBA0E0" stroke_width="0.5"  />
<rect x="62.5" y="150.0" width="12.5" height="12.5"         fill="#BB31B3" stroke="#BB31B3" stroke_width="0.5"  />
<rect x="62.5" y="162.5" width="12.5" height="12.5"         fill="#A62799" stroke="#A62799" stroke_width="0.5"  />
<rect x="50.0" y="162.5" width="12.5" height="12.5"         fill="#221983" stroke="#221983" stroke_width="0.5"  />
<rect x="75.0" y="150.0" width="12.5" height="12.5"         fill="#3802C5" stroke="#3802C5" stroke_width="0.5"  />
<rect x="87.5" y="150.0" width="12.5" height="12.5"         fill="#8D159B" stroke="#8D159B" stroke_width="0.5"  />
<rect x="87.5" y="162.5" width="12.5" height="12.5"         fill="#F935F3" stroke="#F935F3" stroke_width="0.5"  />
<rect x="75.0" y="162.5" width="12.5" height="12.5"         fill="#C32FD8" stroke="#C32FD8" stroke_width="0.5"  />
<rect x="75.0" y="175.0" width="12.5" height="12.5"         fill="#B8F99E" stroke="#B8F99E" stroke_width="0.5"  />
<rect x="87.5" y="175.0" width="12.5" height="12.5"         fill="#8FF590" stroke="#8FF590" stroke_width="0.5"  />
<rect x="87.5" y="187.5" width="12.5" height="12.5"         fill="#812952" stroke="#812952" stroke_width="0.5"  />
<rect x="75.0" y="187.5" width="12.5" height="12.5"         fill="#2A20DF" stroke="#2A20DF" stroke_width="0.5"  />
<rect x="50.0" y="175.0" width="12.5" height="12.5"         fill="#A86128" stroke="#A86128" stroke_width="0.5"  />
<rect x="62.5" y="175.0" width="12.5" height="12.5"         fill="#923E8B" stroke="#923E8B" stroke_width="0.5"  />
<rect x="62.5" y="187.5" width="12.5" height="12.5"         fill="#77BC6C" stroke="#77BC6C" stroke_width="0.5"  />
<rect x="50.0" y="187.5" width="12.5" height="12.5"         fill="#677DF9" stroke="#677DF9" stroke_width="0.5"  />
<rect x="0.0" y="150.0" width="12.5" height="12.5"         fill="#C0BCE9" stroke="#C0BCE9" stroke_width="0.5"  />
<rect x="12.5" y="150.0" width="12.5" height="12.5"         fill="#6F3E31" stroke="#6F3E31" stroke_width="0.5"  />
<rect x="12.5" y="162.5" width="12.5" height="12.5"         fill="#53041E" stroke="#53041E" stroke_width="0.5"  />
<rect x="0.0" y="162.5" width="12.5" height="12.5"         fill="#D205B0" stroke="#D205B0" stroke_width="0.5"  />
<rect x="25.0" y="150.0" width="12.5" height="12.5"         fill="#D79D28" stroke="#D79D28" stroke_width="0.5"  />
<rect x="37.5" y="150.0" width="12.5" height="12.5"         fill="#2EE36A" stroke="#2EE36A" stroke_width="0.5"  />
<rect x="37.5" y="162.5" width="12.5" height="12.5"         fill="#023629" stroke="#023629" stroke_width="0.5"  />
<rect x="25.0" y="162.5" width="12.5" height="12.5"         fill="#C4C42E" stroke="#C4C42E" stroke_width="0.5"  />
<rect x="25.0" y="175.0" width="12.5" height="12.5"         fill="#B33DE5" stroke="#B33DE5" stroke_width="0.5"  />
<rect x="37.5" y="175.0" width="12.5" height="12.5"         fill="#713A0F" stroke="#713A0F" stroke_width="0.5"  />
<rect x="37.5" y="187.5" width="12.5" height="12.5"         fill="#13A9C1" stroke="#13A9C1" stroke_width="0.5"  />
<rect x="25.0" y="187.5" width="12.5" height="12.5"         fill="#0197C8" stroke="#0197C8" stroke_width="0.5"  />
<rect x="0.0" y="175.0" width="12.5" height="12.5"         fill="#D1D7BB" stroke="#D1D7BB" stroke_width="0.5"  />
<rect x="12.5" y="175.0" width="12.5" height="12.5"         fill="#F00DB1" stroke="#F00DB1" stroke_width="0.5"  />
<rect x="12.5" y="187.5" width="12.5" height="12.5"         fill="#23AD39" stroke="#23AD39" stroke_width="0.5"  />
<rect x="0.0" y="187.5" width="12.5" height="12.5"         fill="#145A83" stroke="#145A83" stroke_width="0.5"  />
        </g> 
</svg>