<?xml version="1.0" encoding="UTF-8" standalone="no"?>
<svg width="200" height="200" xmlns="http://www.w3.org/2000/svg">
        <g opacity="1.0">
<rect x="0" y="0" width="12.5" height="12.5"         fill="#69B238" stroke="#69B238" stroke_width="0.5"  />
<rect x="12.5" y="0.0" width="12.5" height="12.5"         fill="#0C4CAA" stroke="#0C4CAA" stroke_width="0.5"  />
<rect x="12.5" y="12.5" width="12.5" height="12.5"         fill="#45E5B2" stroke="#45E5B2" stroke_width="0.5"  />
<rect x="0.0" y="12.5" width="12.5" height="12.5"         fill="#FE4019" stroke="#FE4019" stroke_width="0.5"  />
<rect x="25.0" y="0.0" width="12.5" height="12.5"         fill="#F66AD7" stroke="#F66AD7" stroke_width="0.5"  />
<rect x="37.5" y="0.0" width="12.5" height="12.5"         fill="#54FCA5" stroke="#54FCA5" stroke_width="0.5"  />
<rect x="37.5" y="12.5" width="12.5" height="12.5"         fill="#2B5B11" stroke="#2B5B11" stroke_width="0.5"  />
<rect x="25.0" y="12.5" width="12.5" height="12.5"         fill="#F24CBE" stroke="#F24CBE" stroke_width="0.5"  />
<rect x="25.0" y="25.0" width="12.5" height="12.5"         fill="#B00AD4" stroke="#B00AD4" stroke_width="0.5"  />
<rect x="37.5" y="25.0" width="12.5" height="12.5"         fill="#52881A" stroke="#52881A" stroke_width="0.5"  />
<rect x="37.5" y="37.5" width="12.5" height="12.5"         fill="#776ECA" stroke="#776ECA" stroke_width="0.5"  />
<rect x="25.0" y="37.5" width="12.5" height="12.5"         fill="#FCA9EB" stroke="#FCA9EB" stroke_width="0.5"  />
<rect x="0.0" y="25.0" width="12.5" height="12.5"         fill="#F72CDA" stroke="#F72CDA" stroke_width="0.5"  />
<rect x="12.5" y="25.0" width="12.5" height="12.5"         fill="#6C4C4F" stroke="#6C4C4F" stroke_width="0.5"  />
<rect x="12.5" y="37.5" width="12.5" height="12.5"         fill="#C7BEA9" stroke="#C7BEA9" stroke_width="0.5"  />
<rect x="0.0" y="37.5" width="12.5" height="12.5"         fill="#977DBB" stroke="#977DBB" stroke_width="0.5"  />
<rect x="50.0" y="0.0" width="12.5" height="12.5"         fill="#495DAA" stroke="#495DAA" stroke_width="0.5"  />
<rect x="62.5" y="0.0" width="12.5" height="12.5"         fill="#DF8AF4" stroke="#DF8AF4" stroke_width="0.5"  />
<rect x="62.5" y="12.5" width="12.5" height="12.5"         fill="#CD06B3" stroke="#CD06B3" stroke_width="0.5"  />
<rect x="50.0" y="12.5" width="12.5" height="12.5"         fill="#494B8A" stroke="#494B8A" stroke_width="0.5"  />
<rect x="75.0" y="0.0" width="12.5" height="12.5"         fill="#7945BE" stroke="#7945BE" stroke_width="0.5"  />
<rect x="87.5" y="0.0" width="12.5" height="12.5"         fill="#0275E6" stroke="#0275E6" stroke_width="0.5"  />
<rect x="87.5" y="12.5" width="12.5" height="12.5"         fill="#B57876" stroke="#B57876" stroke_width="0.5"  />
<rect x="75.0" y="12.5" width="12.5" height="12.5"         fill="#9E91A3" stroke="#9E91A3" stroke_width="0.5"  />
<rect x="75.0" y="25.0" width="12.5" height="12.5"         fill="#AE176E" stroke="#AE176E" stroke_width="0.5"  />
<rect x="87.5" y="25.0" width="12.5" height="12.5"         fill="#9D8DF2" stroke="#9D8DF2" stroke_width="0.5"  />
<rect x="87.5" y="37.5" width="12.5" height="12.5"         fill="#37409B" stroke="#37409B" stroke_width="0.5"  />
<rect x="75.0" y="37.5" width="12.5" height="12.5"         fill="#AB507F" stroke="#AB507F" stroke_width="0.5"  />
<rect x="50.0" y="25.0" width="12.5" height="12.5"         fill="#82BD51" stroke="#82BD51" stroke_width="0.5"  />
<rect x="62.5" y="25.0" width="12.5" height="12.5"         fill="#A071CF" stroke="#A071CF" stroke_width="0.5"  />
<rect x="62.5" y="37.5" width="12.5" height="12.5"         fill="#F86DA1" stroke="#F86DA1" stroke_width="0.5"  />
<rect x="50.0" y="37.5" width="12.5" height="12.5"         fill="#2775F9" stroke="#2775F9" stroke_width="0.5"  />
<rect x="50.0" y="50.0" width="12.5" height="12.5"         fill="#A72FB4" stroke="#A72FB4" stroke_width="0.5"  />
<rect x="62.5" y="50.0" width="12.5" height="12.5"         fill="#DF334C" stroke="#DF334C" stroke_width="0.5"  />
<rect x="62.5" y="62.5" width="12.5" height="12.5"         fill="#22035E" stroke="#22035E" stroke_width="0.5"  />
<rect x="50.0" y="62.5" width="12.5" height="12.5"         fill="#26A29E" stroke="#26A29E" stroke_width="0.5"  />
<rect x="75.0" y="50.0" width="12.5" height="12.5"         fill="#5D0BD0" stroke="#5D0BD0" stroke_width="0.5"  />
<rect x="87.5" y="50.0" width="12.5" height="12.5"         fill="#E2F7BE" stroke="#E2F7BE" stroke_width="0.5"  />
<rect x="87.5" y="62.5" width="12.5" height="12.5"         fill="#7826C6" stroke="#7826C6" stroke_width="0.5"  />
<rect x="75.0" y="62.5" width="12.5" height="12.5"         fill="#1A49B4" stroke="#1A49B4" stroke_width="0.5"  />
<rect x="75.0" y="75.0" width="12.5" height="12.5"         fill="#78AB6C" stroke="#78AB6C" stroke_width="0.5"  />
<rect x="87.5" y="75.0" width="12.5" height="12.5"         fill="#E075E1" stroke="#E075E1" stroke_width="0.5"  />
<rect x="87.5" y="87.5" width="12.5" height="12.5"         fill="#B2C11A" stroke="#B2C11A" stroke_width="0.5"  />
<rect x="75.0" y="87.5" width="12.5" height="12.5"         fill="#E46D92" stroke="#E46D92" stroke_width="0.5"  />
<rect x="50.0" y="75.0" width="12.5" height="12.5"         fill="#0DD059" stroke="#0DD059" stroke_width="0.5"  />
<rect x="62.5" y="75.0" width="12.5" height="12.5"         fill="#678C3B" stroke="#678C3B" stroke_width="0.5"  />
<rect x="62.5" y="87.5" width="12.5" height="12.5"         fill="#14924B" stroke="#14924B" stroke_width="0.5"  />
<rect x="50.0" y="87.5" width="12.5" height="12.5"         fill="#DADA79" stroke="#DADA79" stroke_width="0.5"  />
<rect x="0.0" y="50.0" width="12.5" height="12.5"         fill="#EDD4CE" stroke="#EDD4CE" stroke_width="0.5"  />
<rect x="12.5" y="50.0" width="12.5" height="12.5"         fill="#C4F087" stroke="#C4F087" stroke_width="0.5"  />
<rect x="12.5" y="62.5" width="12.5" height="12.5"         fill="#43045F" stroke="#43045F" stroke_width="0.5"  />
<rect x="0.0" y="62.5" width="12.5" height="12.5"         fill="#7ED883" stroke="#7ED883" stroke_width="0.5"  />
<rect x="25.0" y="50.0" width="12.5" height="12.5"         fill="#13C978" stroke="#13C978" stroke_width="0.5"  />
<rect x="37.5" y="50.0" width="12.5" height="12.5"         fill="#01E29C" stroke="#01E29C" stroke_width="0.5"  />
<rect x="37.5" y="62.5" width="12.5" height="12.5"         fill="#2E65EA" stroke="#2E65EA" stroke_width="0.5"  />
<rect x="25.0" y="62.5" width="12.5" height="12.5"         fill="#7D0B96" stroke="#7D0B96" stroke_width="0.5"  />
<rect x="25.0" y="75.0" width="12.5" height="12.5"         fill="#553A70" stroke="#553A70" stroke_width="0.5"  />
<rect x="37.5" y="75.0" width="12.5" height="12.5"         fill="#48238B" stroke="#48238B" stroke_width="0.5"  />
<rect x="37.5" y="87.5" width="12.5" height="12.5"         fill="#B19295" stroke="#B19295" stroke_width="0.5"  />
<rect x="25.0" y="87.5" width="12.5" height="12.5"         fill="#678807" stroke="#678807" stroke_width="0.5"  />
<rect x="0.0" y="75.0" width="12.5" height="12.5"         fill="#A7EE88" stroke="#A7EE88" stroke_width="0.5"  />
<rect x="12.5" y="75.0" width="12.5" height="12.5"         fill="#036F4C" stroke="#036F4C" stroke_width="0.5"  />
<rect x="12.5" y="87.5" width="12.5" height="12.5"         fill="#D63775" stroke="#D63775" stroke_width="0.5"  />
<rect x="0.0" y="87.5" width="12.5" height="12.5"         fill="#B61298" stroke="#B61298" stroke_width="0.5"  />
<rect x="100.0" y="0.0" width="12.5" height="12.5"         fill="#507854" stroke="#507854" stroke_width="0.5"  />
<rect x="112.5" y="0.0" width="12.5" height="12.5"         fill="#79AF5D" stroke="#79AF5D" stroke_width="0.5"  />
<rect x="112.5" y="12.5" width="12.5" height="12.5"         fill="#814895" stroke="#814895" stroke_width="0.5"  />
<rect x="100.0" y="12.5" width="12.5" height="12.5"         fill="#83EB62" stroke="#83EB62" stroke_width="0.5"  />
<rect x="125.0" y="0.0" width="12.5" height="12.5"         fill="#E8D7D4" stroke="#E8D7D4" stroke_width="0.5"  />
<rect x="137.5" y="0.0" width="12.5" height="12.5"         fill="#0A3C74" stroke="#0A3C74" stroke_width="0.5"  />
<rect x="137.5" y="12.5" width="12.5" height="12.5"         fill="#B4E4DC" stroke="#B4E4DC" stroke_width="0.5"  />
<rect x="125.0" y="12.5" width="12.5" height="12.5"         fill="#C94F6E" stroke="#C94F6E" stroke_width="0.5"  />
<rect x="125.0" y="25.0" width="12.5" height="12.5"         fill="#0CDA6D" stroke="#0CDA6D" stroke_width="0.5"  />
<rect x="137.5" y="25.0" width="12.5" height="12.5"         fill="#E51A4E" stroke="#E51A4E" stroke_width="0.5"  />
<rect x="137.5" y="37.5" width="12.5" height="12.5"         fill="#8AF4E7" stroke="#8AF4E7" stroke_width="0.5"  />
<rect x="125.0" y="37.5" width="12.5" height="12.5"         fill="#91A995" stroke="#91A995" stroke_width="0.5"  />
<rect x="100.0" y="25.0" width="12.5" height="12.5"         fill="#1C6A47" stroke="#1C6A47" stroke_width="0.5"  />
<rect x="112.5" y="25.0" width="12.5" height="12.5"         fill="#BD8D14" stroke="#BD8D14" stroke_width="0.5"  />
<rect x="112.5" y="37.5" width="12.5" height="12.5"         fill="#372DC1" stroke="#372DC1" stroke_width="0.5"  />
<rect x="100.0" y="37.5" width="12.5" height="12.5"         fill="#FD990E" stroke="#FD990E" stroke_width="0.5"  />
<rect x="150.0" y="0.0" width="12.5" height="12.5"         fill="#BC4805" stroke="#BC4805" stroke_width="0.5"  />
<rect x="162.5" y="0.0" width="12.5" height="12.5"         fill="#BBF77F" stroke="#BBF77F" stroke_width="0.5"  />
<rect x="162.5" y="12.5" width="12.5" height="12.5"         fill="#D91505" stroke="#D91505" stroke_width="0.5"  />
<rect x="150.0" y="12.5" width="12.5" height="12.5"         fill="#400305" stroke="#400305" stroke_width="0.5"  />
<rect x="175.0" y="0.0" width="12.5" height="12.5"         fill="#0CDFB7" stroke="#0CDFB7" stroke_width="0.5"  />
<rect x="187.5" y="0.0" width="12.5" height="12.5"         fill="#C11EF3" stroke="#C11EF3" stroke_width="0.5"  />
<rect x="187.5" y="12.5" width="12.5" height="12.5"         fill="#FE834B" stroke="#FE834B" stroke_width="0.5"  />
<rect x="175.0" y="12.5" width="12.5" height="12.5"         fill="#BEC012" stroke="#BEC012" stroke_width="0.5"  />
<rect x="175.0" y="25.0" width="12.5" height="12.5"         fill="#DAD971" stroke="#DAD971" stroke_width="0.5"  />
<rect x="187.5" y="25.0" width="12.5" height="12.5"         fill="#4BBA5C" stroke="#4BBA5C" stroke_width="0.5"  />
<rect x="187.5" y="37.5" width="12.5" height="12.5"         fill="#1DC619" stroke="#1DC619" stroke_width="0.5"  />
<rect x="175.0" y="37.5" width="12.5" height="12.5"         fill="#76B393" stroke="#76B393" stroke_width="0.5"  />
<rect x="150.0" y="25.0" width="12.5" height="12.5"         fill="#295911" stroke="#295911" stroke_width="0.5"  />
<rect x="162.5" y="25.0" width="12.5" height="12.5"         fill="#AEFF19" stroke="#AEFF19" stroke_width="0.5"  />
<rect x="162.5" y="37.5" width="12.5" height="12.5"         fill="#C266B7" stroke="#C266B7" stroke_width="0.5"  />
<rect x="150.0" y="37.5" width="12.5" height="12.5"         fill="#72A3D5" stroke="#72A3D5" stroke_width="0.5"  />
<rect x="150.0" y="50.0" width="12.5" height="12.5"         fill="#033198" stroke="#033198" stroke_width="0.5"  />
<rect x="162.5" y="50.0" width="12.5" height="12.5"         fill="#83C9B2" stroke="#83C9B2" stroke_width="0.5"  />
<rect x="162.5" y="62.5" width="12.5" height="12.5"         fill="#5AE179" stroke="#5AE179" stroke_width="0.5"  />
<rect x="150.0" y="62.5" width="12.5" height="12.5"         fill="#8DD321" stroke="#8DD321" stroke_width="0.5"  />
<rect x="175.0" y="50.0" width="12.5" height="12.5"         fill="#9EB78C" stroke="#9EB78C" stroke_width="0.5"  />
<rect x="187.5" y="50.0" width="12.5" height="12.5"         fill="#5C25DE" stroke="#5C25DE" stroke_width="0.5"  />
<rect x="187.5" y="62.5" width="12.5" height="12.5"         fill="#D638FF" stroke="#D638FF" stroke_width="0.5"  />
<rect x="175.0" y="62.5" width="12.5" height="12.5"         fill="#1A894F" stroke="#1A894F" stroke_width="0.5"  />
<rect x="175.0" y="75.0" width="12.5" height="12.5"         fill="#EC902D" stroke="#EC902D" stroke_width="0.5"  />
<rect x="187.5" y="75.0" width="12.5" height="12.5"         fill="#D05778" stroke="#D05778" stroke_width="0.5"  />
<rect x="187.5" y="87.5" width="12.5" height="12.5"         fill="#29C06D" stroke="#29C06D" stroke_width="0.5"  />
<rect x="175.0" y="87.5" width="12.5" height="12.5"         fill="#051A96" stroke="#051A96" stroke_width="0.5"  />
<rect x="150.0" y="75.0" width="12.5" height="12.5"         fill="#47D8D4" stroke="#47D8D4" stroke_width="0.5"  />
<rect x="162.5" y="75.0" width="12.5" height="12.5"         fill="#587660" stroke="#587660" stroke_width="0.5"  />
<rect x="162.5" y="87.5" width="12.5" height="12.5"         fill="#FE90D6" stroke="#FE90D6" stroke_width="0.5"  />
<rect x="150.0" y="87.5" width="12.5" height="12.5"         fill="#B9A1BB" stroke="#B9A1BB" stroke_width="0.5"  />
<rect x="100.0" y="50.0" width="12.5" height="12.5"         fill="#656B93" stroke="#656B93" stroke_width="0.5"  />
<rect x="112.5" y="50.0" width="12.5" height="12.5"         fill="#2CF790" stroke="#2CF790" stroke_width="0.5"  />
<rect x="112.5" y="62.5" width="12.5" height="12.5"         fill="#9A08F2" stroke="#9A08F2" stroke_width="0.5"  />
<rect x="100.0" y="62.5" width="12.5" height="12.5"         fill="#766724" stroke="#766724" stroke_width="0.5"  />
<rect x="125.0" y="50.0" width="12.5" height="12.5"         fill="#AC43C6" stroke="#AC43C6" stroke_width="0.5"  />
<rect x="137.5" y="50.0" width="12.5" height="12.5"         fill="#C5370F" stroke="#C5370F" stroke_width="0.5"  />
<rect x="137.5" y="62.5" width="12.5" height="12.5"         fill="#69DCCC" stroke="#69DCCC" stroke_width="0.5"  />
<rect x="125.0" y="62.5" width="12.5" height="12.5"         fill="#F97719" stroke="#F97719" stroke_width="0.5"  />
<rect x="125.0" y="75.0" width="12.5" height="12.5"         fill="#7914FF" stroke="#7914FF" stroke_width="0.5"  />
<rect x="137.5" y="75.0" width="12.5" height="12.5"         fill="#87810B" stroke="#87810B" stroke_width="0.5"  />
<rect x="137.5" y="87.5" width="12.5" height="12.5"         fill="#C7A1C9" stroke="#C7A1C9" stroke_width="0.5"  />
<rect x="125.0" y="87.5" width="12.5" height="12.5"         fill="#575700" stroke="#575700" stroke_width="0.5"  />
<rect x="100.0" y="75.0" width="12.5" height="12.5"         fill="#B4DE77" stroke="#B4DE77" stroke_width="0.5"  />
<rect x="112.5" y="75.0" width="12.5" height="12.5"         fill="#37C044" stroke="#37C044" stroke_width="0.5"  />
<rect x="112.5" y="87.5" width="12.5" height="12.5"         fill="#CDD941" stroke="#CDD941" stroke_width="0.5"  />
<rect x="100.0" y="87.5" width="12.5" height="12.5"         fill="#AEBAC0" stroke="#AEBAC0" stroke_width="0.5"  />
<rect x="100.0" y="100.0" width="12.5" height="12.5"         fill="#4ACF24" stroke="#4ACF24" stroke_width="0.5"  />
<rect x="112.5" y="100.0" width="12.5" height="12.5"         fill="#A16E30" stroke="#A16E30" stroke_width="0.5"  />
<rect x="112.5" y="112.5" width="12.5" height="12.5"         fill="#AFD77C" stroke="#AFD77C" stroke_width="0.5"  />
<rect x="100.0" y="112.5" width="12.5" height="12.5"         fill="#F601CF" stroke="#F601CF" stroke_width="0.5"  />
<rect x="125.0" y="100.0" width="12.5" height="12.5"         fill="#5817AB" stroke="#5817AB" stroke_width="0.5"  />
<rect x="137.5" y="100.0" width="12.5" height="12.5"         fill="#CB3088" stroke="#CB3088" stroke_width="0.5"  />
<rect x="137.5" y="112.5" width="12.5" height="12.5"         fill="#4EF489" stroke="#4EF489" stroke_width="0.5"  />
<rect x="125.0" y="112.5" width="12.5" height="12.5"         fill="#CF3A30" stroke="#CF3A30" stroke_width="0.5"  />
<rect x="125.0" y="125.0" width="12.5" height="12.5"         fill="#B7C1F3" stroke="#B7C1F3" stroke_width="0.5"  />
<rect x="137.5" y="125.0" width="12.5" height="12.5"         fill="#F7D613" stroke="#F7D613" stroke_width="0.5"  />
<rect x="137.5" y="137.5" width="12.5" height="12.5"         fill="#BA11AB" stroke="#BA11AB" stroke_width="0.5"  />
<rect x="125.0" y="137.5" width="12.5" height="12.5"         fill="#EC6007" stroke="#EC6007" stroke_width="0.5"  />
<rect x="100.0" y="125.0" width="12.5" height="12.5"         fill="#982A62" stroke="#982A62" stroke_width="0.5"  />
<rect x="112.5" y="125.0" width="12.5" height="12.5"         fill="#B31604" stroke="#B31604" stroke_width="0.5"  />
<rect x="112.5" y="137.5" width="12.5" height="12.5"         fill="#20BCA2" stroke="#20BCA2" stroke_width="0.5"  />
<rect x="100.0" y="137.5" width="12.5" height="12.5"         fill="#D1B883" stroke="#D1B883" stroke_width="0.5"  />
<rect x="150.0" y="100.0" width="12.5" height="12.5"         fill="#5F95EA" stroke="#5F95EA" stroke_width="0.5"  />
<rect x="162.5" y="100.0" width="12.5" height="12.5"         fill="#F87D71" stroke="#F87D71" stroke_width="0.5"  />
<rect x="162.5" y="112.5" width="12.5" height="12.5"         fill="#1FD131" stroke="#1FD131" stroke_width="0.5"  />
<rect x="150.0" y="112.5" width="12.5" height="12.5"         fill="#4381AC" stroke="#4381AC" stroke_width="0.5"  />
<rect x="175.0" y="100.0" width="12.5" height="12.5"         fill="#8EBA5A" stroke="#8EBA5A" stroke_width="0.5"  />
<rect x="187.5" y="100.0" width="12.5" height="12.5"         fill="#3ED1BA" stroke="#3ED1BA" stroke_width="0.5"  />
<rect x="187.5" y="112.5" width="12.5" height="12.5"         fill="#7F4DA3" stroke="#7F4DA3" stroke_width="0.5"  />
<rect x="175.0" y="112.5" width="12.5" height="12.5"         fill="#EC88A1" stroke="#EC88A1" stroke_width="0.5"  />
<rect x="175.0" y="125.0" width="12.5" height="12.5"         fill="#27D636" stroke="#27D636" stroke_width="0.5"  />
<rect x="187.5" y="125.0" width="12.5" height="12.5"         fill="#AA201A" stroke="#AA201A" stroke_width="0.5"  />
<rect x="187.5" y="137.5" width="12.5" height="12.5"         fill="#FED74E" stroke="#FED74E" stroke_width="0.5"  />
<rect x="175.0" y="137.5" width="12.5" height="12.5"         fill="#318803" stroke="#318803" stroke_width="0.5"  />
<rect x="150.0" y="125.0" width="12.5" height="12.5"         fill="#210280" stroke="#210280" stroke_width="0.5"  />
<rect x="162.5" y="125.0" width="12.5" height="12.5"         fill="#65A480" stroke="#65A480" stroke_width="0.5"  />
<rect x="162.5" y="137.5" width="12.5" height="12.5"         fill="#F457EF" stroke="#F457EF" stroke_width="0.5"  />
<rect x="150.0" y="137.5" width="12.5" height="12.5"         fill="#114577" stroke="#114577" stroke_width="0.5"  />
<rect x="150.0" y="150.0" width="12.5" height="12.5"         fill="#899EAE" stroke="#899EAE" stroke_width="0.5"  />
<rect x="162.5" y="150.0" width="12.5" height="12.5"         fill="#C88700" stroke="#C88700" stroke_width="0.5"  />
<rect x="162.5" y="162.5" width="12.5" height="12.5"         fill="#FD52A3" stroke="#FD52A3" stroke_width="0.5"  />
<rect x="150.0" y="162.5" width="12.5" height="12.5"         fill="#E87773" stroke="#E87773" stroke_width="0.5"  />
<rect x="175.0" y="150.0" width="12.5" height="12.5"         fill="#735B2F" stroke="#735B2F" stroke_width="0.5"  />
<rect x="187.5" y="150.0" width="12.5" height="12.5"         fill="#6F453F" stroke="#6F453F" stroke_width="0.5"  />
<rect x="187.5" y="162.5" width="12.5" height="12.5"         fill="#E76933" stroke="#E76933" stroke_width="0.5"  />
<rect x="175.0" y="162.5" width="12.5" height="12.5"         fill="#9034DE" stroke="#9034DE" stroke_width="0.5"  />
<rect x="175.0" y="175.0" width="12.5" height="12.5"         fill="#6B0A89" stroke="#6B0A89" stroke_width="0.5"  />
<rect x="187.5" y="175.0" width="12.5" height="12.5"         fill="#FFC9D3" stroke="#FFC9D3" stroke_width="0.5"  />
<rect x="187.5" y="187.5" width="12.5" height="12.5"         fill="#C69EA3" stroke="#C69EA3" stroke_width="0.5"  />
<rect x="175.0" y="187.5" width="12.5" height="12.5"         fill="#2D2C7D" stroke="#2D2C7D" stroke_width="0.5"  />
<rect x="150.0" y="175.0" width="12.5" height="12.5"         fill="#101641" stroke="#101641" stroke_width="0.5"  />
<rect x="162.5" y="175.0" width="12.5" height="12.5"         fill="#9A379C" stroke="#9A379C" stroke_width="0.5"  />
<rect x="162.5" y="187.5" width="12.5" height="12.5"         fill="#4706A1" stroke="#4706A1" stroke_width="0.5"  />
<rect x="150.0" y="187.5" width="12.5" height="12.5"         fill="#643D8F" stroke="#643D8F" stroke_width="0.5"  />
<rect x="100.0" y="150.0" width="12.5" height="12.5"         fill="#D0324A" stroke="#D0324A" stroke_width="0.5"  />
<rect x="112.5" y="150.0" width="12.5" height="12.5"         fill="#5AA1CB" stroke="#5AA1CB" stroke_width="0.5"  />
<rect x="112.5" y="162.5" width="12.5" height="12.5"         fill="#671B87" stroke="#671B87" stroke_width="0.5"  />
<rect x="100.0" y="162.5" width="12.5" height="12.5"         fill="#4C412B" stroke="#4C412B" stroke_width="0.5"  />
<rect x="125.0" y="150.0" width="12.5" height="12.5"         fill="#6D973A" stroke="#6D973A" stroke_width="0.5"  />
<rect x="137.5" y="150.0" width="12.5" height="12.5"         fill="#CC36D3" stroke="#CC36D3" stroke_width="0.5"  />
<rect x="137.5" y="162.5" width="12.5" height="12.5"         fill="#2A11E7" stroke="#2A11E7" stroke_width="0.5"  />
<rect x="125.0" y="162.5" width="12.5" height="12.5"         fill="#DDCF36" stroke="#DDCF36" stroke_width="0.5"  />
<rect x="125.0" y="175.0" width="12.5" height="12.5"         fill="#580EB0" stroke="#580EB0" stroke_width="0.5"  />
<rect x="137.5" y="175.0" width="12.5" height="12.5"         fill="#5BD747" stroke="#5BD747" stroke_width="0.5"  />
<rect x="137.5" y="187.5" width="12.5" height="12.5"         fill="#3FB0E3" stroke="#3FB0E3" stroke_width="0.5"  />
<rect x="125.0" y="187.5" width="12.5" height="12.5"         fill="#A40D26" stroke="#A40D26" stroke_width="0.5"  />
<rect x="100.0" y="175.0" width="12.5" height="12.5"         fill="#333A73" stroke="#333A73" stroke_width="0.5"  />
<rect x="112.5" y="175.0" width="12.5" height="12.5"         fill="#18B859" stroke="#18B859" stroke_width="0.5"  />
<rect x="112.5" y="187.5" width="12.5" height="12.5"         fill="#5BC9F0" stroke="#5BC9F0" stroke_width="0.5"  />
<rect x="100.0" y="187.5" width="12.5" height="12.5"         fill="#673669" stroke="#673669" stroke_width="0.5"  />
<rect x="0.0" y="100.0" width="12.5" height="12.5"         fill="#AC4607" stroke="#AC4607" stroke_width="0.5"  />
<rect x="12.5" y="100.0" width="12.5" height="12.5"         fill="#22AE46" stroke="#22AE46" stroke_width="0.5"  />
<rect x="12.5" y="112.5" width="12.5" height="12.5"         fill="#2FC8BF" stroke="#2FC8BF" stroke_width="0.5"  />
<rect x="0.0" y="112.5" width="12.5" height="12.5"         fill="#15F941" stroke="#15F941" stroke_width="0.5"  />
<rect x="25.0" y="100.0" width="12.5" height="12.5"         fill="#2ABB44" stroke="#2ABB44" stroke_width="0.5"  />
<rect x="37.5" y="100.0" width="12.5" height="12.5"         fill="#7C4DCA" stroke="#7C4DCA" stroke_width="0.5"  />
<rect x="37.5" y="112.5" width="12.5" height="12.5"         fill="#DFF58B" stroke="#DFF58B" stroke_width="0.5"  />
<rect x="25.0" y="112.5" width="12.5" height="12.5"         fill="#90A296" stroke="#90A296" stroke_width="0.5"  />
<rect x="25.0" y="125.0" width="12.5" height="12.5"         fill="#7A06A3" stroke="#7A06A3" stroke_width="0.5"  />
<rect x="37.5" y="125.0" width="12.5" height="12.5"         fill="#A82A62" stroke="#A82A62" stroke_width="0.5"  />
<rect x="37.5" y="137.5" width="12.5" height="12.5"         fill="#58EE66" stroke="#58EE66" stroke_width="0.5"  />
<rect x="25.0" y="137.5" width="12.5" height="12.5"         fill="#47B7F4" stroke="#47B7F4" stroke_width="0.5"  />
<rect x="0.0" y="125.0" width="12.5" height="12.5"         fill="#5A6F0B" stroke="#5A6F0B" stroke_width="0.5"  />
<rect x="12.5" y="125.0" width="12.5" height="12.5"         fill="#AA22D0" stroke="#AA22D0" stroke_width="0.5"  />
<rect x="12.5" y="137.5" width="12.5" height="12.5"         fill="#D4F76E" stroke="#D4F76E" stroke_width="0.5"  />
<rect x="0.0" y="137.5" width="12.5" height="12.5"         fill="#B3E47A" stroke="#B3E47A" stroke_width="0.5"  />
<rect x="50.0" y="100.0" width="12.5" height="12.5"         fill="#FE57B1" stroke="#FE57B1" stroke_width="0.5"  />
<rect x="62.5" y="100.0" width="12.5" height="12.5"         fill="#16616B" stroke="#16616B" stroke_width="0.5"  />
<rect x="62.5" y="112.5" width="12.5" height="12.5"         fill="#8F891D" stroke="#8F891D" stroke_width="0.5"  />
<rect x="50.0" y="112.5" width="12.5" height="12.5"         fill="#53C2D6" stroke="#53C2D6" stroke_width="0.5"  />
<rect x="75.0" y="100.0" width="12.5" height="12.5"         fill="#6A3BC3" stroke="#6A3BC3" stroke_width="0.5"  />
<rect x="87.5" y="100.0" width="12.5" height="12.5"         fill="#3F39CE" stroke="#3F39CE" stroke_width="0.5"  />
<rect x="87.5" y="112.5" width="12.5" height="12.5"         fill="#B7A34F" stroke="#B7A34F" stroke_width="0.5"  />
<rect x="75.0" y="112.5" width="12.5" height="12.5"         fill="#1958CA" stroke="#1958CA" stroke_width="0.5"  />
<rect x="75.0" y="125.0" width="12.5" height="12.5"         fill="#000429" stroke="#000429" stroke_width="0.5"  />
<rect x="87.5" y="125.0" width="12.5" height="12.5"         fill="#7F5962" stroke="#7F5962" stroke_width="0.5"  />
<rect x="87.5" y="137.5" width="12.5" height="12.5"         fill="#8E0072" stroke="#8E0072" stroke_width="0.5"  />
<rect x="75.0" y="137.5" width="12.5" height="12.5"         fill="#10438B" stroke="#10438B" stroke_width="0.5"  />
<rect x="50.0" y="125.0" width="12.5" height="12.5"         fill="#5C9A92" stroke="#5C9A92" stroke_width="0.5"  />
<rect x="62.5" y="125.0" width="12.5" height="12.5"         fill="#027568" stroke="#027568" stroke_width="0.5"  />
<rect x="62.5" y="137.5" width="12.5" height="12.5"         fill="#4096A3" stroke="#4096A3" stroke_width="0.5"  />
<rect x="50.0" y="137.5" width="12.5" height="12.5"         fill="#6C81A1" stroke="#6C81A1" stroke_width="0.5"  />
<rect x="50.0" y="150.0" width="12.5" height="12.5"         fill="#64B410" stroke="#64B410" stroke_width="0.5"  />
<rect x="62.5" y="150.0" width="12.5" height="12.5"         fill="#86946B" stroke="#86946B" stroke_width="0.5"  />
<rect x="62.5" y="162.5" width="12.5" height="12.5"         fill="#BF4319" stroke="#BF4319" stroke_width="0.5"  />
<rect x="50.0" y="162.5" width="12.5" height="12.5"         fill="#161DE5" stroke="#161DE5" stroke_width="0.5"  />
<rect x="75.0" y="150.0" width="12.5" height="12.5"         fill="#847EBF" stroke="#847EBF" stroke_width="0.5"  />
<rect x="87.5" y="150.0" width="12.5" height="12.5"         fill="#3F74DE" stroke="#3F74DE" stroke_width="0.5"  />
<rect x="87.5" y="162.5" width="12.5" height="12.5"         fill="#2C7DEF" stroke="#2C7DEF" stroke_width="0.5"  />
<rect x="75.0" y="162.5" width="12.5" height="12.5"         fill="#E390FD" stroke="#E390FD" stroke_width="0.5"  />
<rect x="75.0" y="175.0" width="12.5" height="12.5"         fill="#F55F68" stroke="#F55F68" stroke_width="0.5"  />
<rect x="87.5" y="175.0" width="12.5" height="12.5"         fill="#93182A" stroke="#93182A" stroke_width="0.5"  />
<rect x="87.5" y="187.5" width="12.5" height="12.5"         fill="#94EC4C" stroke="#94EC4C" stroke_width="0.5"  />
<rect x="75.0" y="187.5" width="12.5" height="12.5"         fill="#BDE1DA" stroke="#BDE1DA" stroke_width="0.5"  />
<rect x="50.0" y="175.0" width="12.5" height="12.5"         fill="#EEDDE6" stroke="#EEDDE6" stroke_width="0.5"  />
<rect x="62.5" y="175.0" width="12.5" height="12.5"         fill="#CE7F64" stroke="#CE7F64" stroke_width="0.5"  />
<rect x="62.5" y="187.5" width="12.5" height="12.5"         fill="#865BE8" stroke="#865BE8" stroke_width="0.5"  />
<rect x="50.0" y="187.5" width="12.5" height="12.5"         fill="#6ADDCA" stroke="#6ADDCA" stroke_width="0.5"  />
<rect x="0.0" y="150.0" width="12.5" height="12.5"         fill="#251251" stroke="#251251" stroke_width="0.5"  />
<rect x="12.5" y="150.0" width="12.5" height="12.5"         fill="#3486F8" stroke="#3486F8" stroke_width="0.5"  />
<rect x="12.5" y="162.5" width="12.5" height="12.5"         fill="#16C76E" stroke="#16C76E" stroke_width="0.5"  />
<rect x="0.0" y="162.5" width="12.5" height="12.5"         fill="#29848C" stroke="#29848C" stroke_width="0.5"  />
<rect x="25.0" y="150.0" width="12.5" height="12.5"         fill="#2A365B" stroke="#2A365B" stroke_width="0.5"  />
<rect x="37.5" y="150.0" width="12.5" height="12.5"         fill="#5AA3FB" stroke="#5AA3FB" stroke_width="0.5"  />
<rect x="37.5" y="162.5" width="12.5" height="12.5"         fill="#3793D9" stroke="#3793D9" stroke_width="0.5"  />
<rect x="25.0" y="162.5" width="12.5" height="12.5"         fill="#31975A" stroke="#31975A" stroke_width="0.5"  />
<rect x="25.0" y="175.0" width="12.5" height="12.5"         fill="#314278" stroke="#314278" stroke_width="0.5"  />
<rect x="37.5" y="175.0" width="12.5" height="12.5"         fill="#C7B298" stroke="#C7B298" stroke_width="0.5"  />
<rect x="37.5" y="187.5" width="12.5" height="12.5"         fill="#2BB156" stroke="#2BB156" stroke_width="0.5"  />
<rect x="25.0" y="187.5" width="12.5" height="12.5"         fill="#0E7B65" stroke="#0E7B65" stroke_width="0.5"  />
<rect x="0.0" y="175.0" width="12.5" height="12.5"         fill="#BCE534" stroke="#BCE534" stroke_width="0.5"  />
<rect x="12.5" y="175.0" width="12.5" height="12.5"         fill="#FC3F0B" stroke="#FC3F0B" stroke_width="0.5"  />
<rect x="12.5" y="187.5" width="12.5" height="12.5"         fill="#D53386" stroke="#D53386" stroke_width="0.5"  />
<rect x="0.0" y="187.5" width="12.5" height="12.5"         fill="#238F39" stroke="#238F39" stroke_width="0.5"  />
        </g> 
</svg>