<?xml version="1.0" encoding="UTF-8" standalone="no"?>
<svg width="200" height="200" version="1.1" xmlns="http://www.w3.org/2000/svg">
    <g opacity="1.0">
        <rect x="0" y="0" width="25.0" height="25.0"  fill="#B8A6C4" stroke="#B8A6C4" stroke_width="0.5"  />
        <rect x="25.0" y="0.0" width="25.0" height="25.0"  fill="#2647E3" stroke="#2647E3" stroke_width="0.5"  />
        <rect x="25.0" y="25.0" width="25.0" height="25.0"  fill="#2D4DB6" stroke="#2D4DB6" stroke_width="0.5"  />
        <rect x="0.0" y="25.0" width="25.0" height="25.0"  fill="#AD9BBB" stroke="#AD9BBB" stroke_width="0.5"  />
        <rect x="50.0" y="0.0" width="25.0" height="25.0"  fill="#F159FF" stroke="#F159FF" stroke_width="0.5"  />
        <rect x="75.0" y="0.0" width="25.0" height="25.0"  fill="#341066" stroke="#341066" stroke_width="0.5"  />
        <rect x="75.0" y="25.0" width="25.0" height="25.0"  fill="#CEAFAC" stroke="#CEAFAC" stroke_width="0.5"  />
        <rect x="50.0" y="25.0" width="25.0" height="25.0"  fill="#69A15D" stroke="#69A15D" stroke_width="0.5"  />
        <rect x="50.0" y="50.0" width="25.0" height="25.0"  fill="#D94104" stroke="#D94104" stroke_width="0.5"  />
        <rect x="75.0" y="50.0" width="25.0" height="25.0"  fill="#3BD445" stroke="#3BD445" stroke_width="0.5"  />
        <rect x="75.0" y="75.0" width="25.0" height="25.0"  fill="#AF4550" stroke="#AF4550" stroke_width="0.5"  />
        <rect x="50.0" y="75.0" width="25.0" height="25.0"  fill="#EFB083" stroke="#EFB083" stroke_width="0.5"  />
        <rect x="0.0" y="50.0" width="25.0" height="25.0"  fill="#94CEE0" stroke="#94CEE0" stroke_width="0.5"  />
        <rect x="25.0" y="50.0" width="25.0" height="25.0"  fill="#183E7E" stroke="#183E7E" stroke_width="0.5"  />
        <rect x="25.0" y="75.0" width="25.0" height="25.0"  fill="#700740" stroke="#700740" stroke_width="0.5"  />
        <rect x="0.0" y="75.0" width="25.0" height="25.0"  fill="#7C4208" stroke="#7C4208" stroke_width="0.5"  />
        <rect x="100.0" y="0.0" width="25.0" height="25.0"  fill="#134501" stroke="#134501" stroke_width="0.5"  />
        <rect x="125.0" y="0.0" width="25.0" height="25.0"  fill="#32F38D" stroke="#32F38D" stroke_width="0.5"  />
        <rect x="125.0" y="25.0" width="25.0" height="25.0"  fill="#C8D38C" stroke="#C8D38C" stroke_width="0.5"  />
        <rect x="100.0" y="25.0" width="25.0" height="25.0"  fill="#F62A1A" stroke="#F62A1A" stroke_width="0.5"  />
        <rect x="150.0" y="0.0" width="25.0" height="25.0"  fill="#147E50" stroke="#147E50" stroke_width="0.5"  />
        <rect x="175.0" y="0.0" width="25.0" height="25.0"  fill="#ACC6A4" stroke="#ACC6A4" stroke_width="0.5"  />
        <rect x="175.0" y="25.0" width="25.0" height="25.0"  fill="#2F4095" stroke="#2F4095" stroke_width="0.5"  />
        <rect x="150.0" y="25.0" width="25.0" height="25.0"  fill="#A41F75" stroke="#A41F75" stroke_width="0.5"  />
        <rect x="150.0" y="50.0" width="25.0" height="25.0"  fill="#012DA5" stroke="#012DA5" stroke_width="0.5"  />
        <rect x="175.0" y="50.0" width="25.0" height="25.0"  fill="#C0C01B" stroke="#C0C01B" stroke_width="0.5"  />
        <rect x="175.0" y="75.0" width="25.0" height="25.0"  fill="#388414" stroke="#388414" stroke_width="0.5"  />
        <rect x="150.0" y="75.0" width="25.0" height="25.0"  fill="#8F7961" stroke="#8F7961" stroke_width="0.5"  />
        <rect x="100.0" y="50.0" width="25.0" height="25.0"  fill="#0B5D1D" stroke="#0B5D1D" stroke_width="0.5"  />
        <rect x="125.0" y="50.0" width="25.0" height="25.0"  fill="#792E85" stroke="#792E85" stroke_width="0.5"  />
        <rect x="125.0" y="75.0" width="25.0" height="25.0"  fill="#CF4E6F" stroke="#CF4E6F" stroke_width="0.5"  />
        <rect x="100.0" y="75.0" width="25.0" height="25.0"  fill="#75F1E6" stroke="#75F1E6" stroke_width="0.5"  />
        <rect x="100.0" y="100.0" width="25.0" height="25.0"  fill="#F77C8D" stroke="#F77C8D" stroke_width="0.5"  />
        <rect x="125.0" y="100.0" width="25.0" height="25.0"  fill="#49A48C" stroke="#49A48C" stroke_width="0.5"  />
        <rect x="125.0" y="125.0" width="25.0" height="25.0"  fill="#C8E41F" stroke="#C8E41F" stroke_width="0.5"  />
        <rect x="100.0" y="125.0" width="25.0" height="25.0"  fill="#458442" stroke="#458442" stroke_width="0.5"  />
        <rect x="150.0" y="100.0" width="25.0" height="25.0"  fill="#31FC23" stroke="#31FC23" stroke_width="0.5"  />
        <rect x="175.0" y="100.0" width="25.0" height="25.0"  fill="#310C89" stroke="#310C89" stroke_width="0.5"  />
        <rect x="175.0" y="125.0" width="25.0" height="25.0"  fill="#49F13A" stroke="#49F13A" stroke_width="0.5"  />
        <rect x="150.0" y="125.0" width="25.0" height="25.0"  fill="#AFFE29" stroke="#AFFE29" stroke_width="0.5"  />
        <rect x="150.0" y="150.0" width="25.0" height="25.0"  fill="#3DD730" stroke="#3DD730" stroke_width="0.5"  />
        <rect x="175.0" y="150.0" width="25.0" height="25.0"  fill="#AC8390" stroke="#AC8390" stroke_width="0.5"  />
        <rect x="175.0" y="175.0" width="25.0" height="25.0"  fill="#EDF7F9" stroke="#EDF7F9" stroke_width="0.5"  />
        <rect x="150.0" y="175.0" width="25.0" height="25.0"  fill="#63BDE2" stroke="#63BDE2" stroke_width="0.5"  />
        <rect x="100.0" y="150.0" width="25.0" height="25.0"  fill="#11DBC9" stroke="#11DBC9" stroke_width="0.5"  />
        <rect x="125.0" y="150.0" width="25.0" height="25.0"  fill="#753719" stroke="#753719" stroke_width="0.5"  />
        <rect x="125.0" y="175.0" width="25.0" height="25.0"  fill="#821AD5" stroke="#821AD5" stroke_width="0.5"  />
        <rect x="100.0" y="175.0" width="25.0" height="25.0"  fill="#22AF92" stroke="#22AF92" stroke_width="0.5"  />
        <rect x="0.0" y="100.0" width="25.0" height="25.0"  fill="#9A75F1" stroke="#9A75F1" stroke_width="0.5"  />
        <rect x="25.0" y="100.0" width="25.0" height="25.0"  fill="#10AC4A" stroke="#10AC4A" stroke_width="0.5"  />
        <rect x="25.0" y="125.0" width="25.0" height="25.0"  fill="#714B75" stroke="#714B75" stroke_width="0.5"  />
        <rect x="0.0" y="125.0" width="25.0" height="25.0"  fill="#B9A7A7" stroke="#B9A7A7" stroke_width="0.5"  />
        <rect x="50.0" y="100.0" width="25.0" height="25.0"  fill="#9A318D" stroke="#9A318D" stroke_width="0.5"  />
        <rect x="75.0" y="100.0" width="25.0" height="25.0"  fill="#3E8436" stroke="#3E8436" stroke_width="0.5"  />
        <rect x="75.0" y="125.0" width="25.0" height="25.0"  fill="#414A86" stroke="#414A86" stroke_width="0.5"  />
        <rect x="50.0" y="125.0" width="25.0" height="25.0"  fill="#AF4F0F" stroke="#AF4F0F" stroke_width="0.5"  />
        <rect x="50.0" y="150.0" width="25.0" height="25.0"  fill="#E2CD8C" stroke="#E2CD8C" stroke_width="0.5"  />
        <rect x="75.0" y="150.0" width="25.0" height="25.0"  fill="#89339A" stroke="#89339A" stroke_width="0.5"  />
        <rect x="75.0" y="175.0" width="25.0" height="25.0"  fill="#46BCC5" stroke="#46BCC5" stroke_width="0.5"  />
        <rect x="50.0" y="175.0" width="25.0" height="25.0"  fill="#DD91F7" stroke="#DD91F7" stroke_width="0.5"  />
        <rect x="0.0" y="150.0" width="25.0" height="25.0"  fill="#836ADE" stroke="#836ADE" stroke_width="0.5"  />
        <rect x="25.0" y="150.0" width="25.0" height="25.0"  fill="#841004" stroke="#841004" stroke_width="0.5"  />
        <rect x="25.0" y="175.0" width="25.0" height="25.0"  fill="#C982AC" stroke="#C982AC" stroke_width="0.5"  />
        <rect x="0.0" y="175.0" width="25.0" height="25.0"  fill="#B96ED5" stroke="#B96ED5" stroke_width="0.5"  />
    </g> 
</svg>