<?xml version="1.0" encoding="UTF-8" standalone="no"?>
<svg width="200" height="200" xmlns="http://www.w3.org/2000/svg">
    <g opacity="1.0">
        <rect x="0" y="0" width="25.0" height="25.0"  fill="#00FFCC" stroke="#00FFCC" stroke_width="0.5"  />
        <rect x="25.0" y="0.0" width="25.0" height="25.0"  fill="#6699FF" stroke="#6699FF" stroke_width="0.5"  />
        <rect x="25.0" y="25.0" width="25.0" height="25.0"  fill="#009933" stroke="#009933" stroke_width="0.5"  />
        <rect x="0.0" y="25.0" width="25.0" height="25.0"  fill="#00CC66" stroke="#00CC66" stroke_width="0.5"  />
        <rect x="50.0" y="0.0" width="25.0" height="25.0"  fill="#6699FF" stroke="#6699FF" stroke_width="0.5"  />
        <rect x="75.0" y="0.0" width="25.0" height="25.0"  fill="#006600" stroke="#006600" stroke_width="0.5"  />
        <rect x="75.0" y="25.0" width="25.0" height="25.0"  fill="#00CC66" stroke="#00CC66" stroke_width="0.5"  />
        <rect x="50.0" y="25.0" width="25.0" height="25.0"  fill="#009933" stroke="#009933" stroke_width="0.5"  />
        <rect x="50.0" y="50.0" width="25.0" height="25.0"  fill="#00CC66" stroke="#00CC66" stroke_width="0.5"  />
        <rect x="75.0" y="50.0" width="25.0" height="25.0"  fill="#006600" stroke="#006600" stroke_width="0.5"  />
        <rect x="75.0" y="75.0" width="25.0" height="25.0"  fill="#6699FF" stroke="#6699FF" stroke_width="0.5"  />
        <rect x="50.0" y="75.0" width="25.0" height="25.0"  fill="#00FFCC" stroke="#00FFCC" stroke_width="0.5"  />
        <rect x="0.0" y="50.0" width="25.0" height="25.0"  fill="#009933" stroke="#009933" stroke_width="0.5"  />
        <rect x="25.0" y="50.0" width="25.0" height="25.0"  fill="#6699FF" stroke="#6699FF" stroke_width="0.5"  />
        <rect x="25.0" y="75.0" width="25.0" height="25.0"  fill="#009933" stroke="#009933" stroke_width="0.5"  />
        <rect x="0.0" y="75.0" width="25.0" height="25.0"  fill="#009933" stroke="#009933" stroke_width="0.5"  />
        <rect x="100.0" y="0.0" width="25.0" height="25.0"  fill="#00FFCC" stroke="#00FFCC" stroke_width="0.5"  />
        <rect x="125.0" y="0.0" width="25.0" height="25.0"  fill="#00FFCC" stroke="#00FFCC" stroke_width="0.5"  />
        <rect x="125.0" y="25.0" width="25.0" height="25.0"  fill="#00FFCC" stroke="#00FFCC" stroke_width="0.5"  />
        <rect x="100.0" y="25.0" width="25.0" height="25.0"  fill="#00CC66" stroke="#00CC66" stroke_width="0.5"  />
        <rect x="150.0" y="0.0" width="25.0" height="25.0"  fill="#00CC66" stroke="#00CC66" stroke_width="0.5"  />
        <rect x="175.0" y="0.0" width="25.0" height="25.0"  fill="#00FFCC" stroke="#00FFCC" stroke_width="0.5"  />
        <rect x="175.0" y="25.0" width="25.0" height="25.0"  fill="#6699FF" stroke="#6699FF" stroke_width="0.5"  />
        <rect x="150.0" y="25.0" width="25.0" height="25.0"  fill="#00CC66" stroke="#00CC66" stroke_width="0.5"  />
        <rect x="150.0" y="50.0" width="25.0" height="25.0"  fill="#00CC66" stroke="#00CC66" stroke_width="0.5"  />
        <rect x="175.0" y="50.0" width="25.0" height="25.0"  fill="#6699FF" stroke="#6699FF" stroke_width="0.5"  />
        <rect x="175.0" y="75.0" width="25.0" height="25.0"  fill="#006600" stroke="#006600" stroke_width="0.5"  />
        <rect x="150.0" y="75.0" width="25.0" height="25.0"  fill="#006600" stroke="#006600" stroke_width="0.5"  />
        <rect x="100.0" y="50.0" width="25.0" height="25.0"  fill="#00FFCC" stroke="#00FFCC" stroke_width="0.5"  />
        <rect x="125.0" y="50.0" width="25.0" height="25.0"  fill="#00CC66" stroke="#00CC66" stroke_width="0.5"  />
        <rect x="125.0" y="75.0" width="25.0" height="25.0"  fill="#009933" stroke="#009933" stroke_width="0.5"  />
        <rect x="100.0" y="75.0" width="25.0" height="25.0"  fill="#00CC66" stroke="#00CC66" stroke_width="0.5"  />
        <rect x="100.0" y="100.0" width="25.0" height="25.0"  fill="#00FFCC" stroke="#00FFCC" stroke_width="0.5"  />
        <rect x="125.0" y="100.0" width="25.0" height="25.0"  fill="#006600" stroke="#006600" stroke_width="0.5"  />
        <rect x="125.0" y="125.0" width="25.0" height="25.0"  fill="#00FFCC" stroke="#00FFCC" stroke_width="0.5"  />
        <rect x="100.0" y="125.0" width="25.0" height="25.0"  fill="#6699FF" stroke="#6699FF" stroke_width="0.5"  />
        <rect x="150.0" y="100.0" width="25.0" height="25.0"  fill="#009933" stroke="#009933" stroke_width="0.5"  />
        <rect x="175.0" y="100.0" width="25.0" height="25.0"  fill="#006600" stroke="#006600" stroke_width="0.5"  />
        <rect x="175.0" y="125.0" width="25.0" height="25.0"  fill="#009933" stroke="#009933" stroke_width="0.5"  />
        <rect x="150.0" y="125.0" width="25.0" height="25.0"  fill="#006600" stroke="#006600" stroke_width="0.5"  />
        <rect x="150.0" y="150.0" width="25.0" height="25.0"  fill="#6699FF" stroke="#6699FF" stroke_width="0.5"  />
        <rect x="175.0" y="150.0" width="25.0" height="25.0"  fill="#00CC66" stroke="#00CC66" stroke_width="0.5"  />
        <rect x="175.0" y="175.0" width="25.0" height="25.0"  fill="#006600" stroke="#006600" stroke_width="0.5"  />
        <rect x="150.0" y="175.0" width="25.0" height="25.0"  fill="#6699FF" stroke="#6699FF" stroke_width="0.5"  />
        <rect x="100.0" y="150.0" width="25.0" height="25.0"  fill="#00FFCC" stroke="#00FFCC" stroke_width="0.5"  />
        <rect x="125.0" y="150.0" width="25.0" height="25.0"  fill="#6699FF" stroke="#6699FF" stroke_width="0.5"  />
        <rect x="125.0" y="175.0" width="25.0" height="25.0"  fill="#6699FF" stroke="#6699FF" stroke_width="0.5"  />
        <rect x="100.0" y="175.0" width="25.0" height="25.0"  fill="#006600" stroke="#006600" stroke_width="0.5"  />
        <rect x="0.0" y="100.0" width="25.0" height="25.0"  fill="#006600" stroke="#006600" stroke_width="0.5"  />
        <rect x="25.0" y="100.0" width="25.0" height="25.0"  fill="#00CC66" stroke="#00CC66" stroke_width="0.5"  />
        <rect x="25.0" y="125.0" width="25.0" height="25.0"  fill="#00FFCC" stroke="#00FFCC" stroke_width="0.5"  />
        <rect x="0.0" y="125.0" width="25.0" height="25.0"  fill="#00FFCC" stroke="#00FFCC" stroke_width="0.5"  />
        <rect x="50.0" y="100.0" width="25.0" height="25.0"  fill="#6699FF" stroke="#6699FF" stroke_width="0.5"  />
        <rect x="75.0" y="100.0" width="25.0" height="25.0"  fill="#009933" stroke="#009933" stroke_width="0.5"  />
        <rect x="75.0" y="125.0" width="25.0" height="25.0"  fill="#00FFCC" stroke="#00FFCC" stroke_width="0.5"  />
        <rect x="50.0" y="125.0" width="25.0" height="25.0"  fill="#009933" stroke="#009933" stroke_width="0.5"  />
        <rect x="50.0" y="150.0" width="25.0" height="25.0"  fill="#00FFCC" stroke="#00FFCC" stroke_width="0.5"  />
        <rect x="75.0" y="150.0" width="25.0" height="25.0"  fill="#00FFCC" stroke="#00FFCC" stroke_width="0.5"  />
        <rect x="75.0" y="175.0" width="25.0" height="25.0"  fill="#00CC66" stroke="#00CC66" stroke_width="0.5"  />
        <rect x="50.0" y="175.0" width="25.0" height="25.0"  fill="#6699FF" stroke="#6699FF" stroke_width="0.5"  />
        <rect x="0.0" y="150.0" width="25.0" height="25.0"  fill="#00FFCC" stroke="#00FFCC" stroke_width="0.5"  />
        <rect x="25.0" y="150.0" width="25.0" height="25.0"  fill="#00FFCC" stroke="#00FFCC" stroke_width="0.5"  />
        <rect x="25.0" y="175.0" width="25.0" height="25.0"  fill="#00FFCC" stroke="#00FFCC" stroke_width="0.5"  />
        <rect x="0.0" y="175.0" width="25.0" height="25.0"  fill="#00FFCC" stroke="#00FFCC" stroke_width="0.5"  />
    </g> 
</svg>