<?xml version="1.0" encoding="UTF-8" standalone="no"?>
<svg width="200" height="200" xmlns="http://www.w3.org/2000/svg">
    <g opacity="1.0">
        <circle cx="12.5" cy="12.5" r="8.333333333333334" stroke_width="1" stroke="#00CC66" fill="white" />
        <circle cx="12.5" cy="12.5" r="10.416666666666666" stroke_width="1" stroke="#00CC66" fill="white" />
        <circle cx="12.5" cy="12.5" r="6.25" stroke_width="2" stroke="#00CC66" fill="white" />
        <circle cx="12.5" cy="12.5" r="4.166666666666667" stroke_width="1" stroke="#00CC66" fill="white" />
        <circle cx="12.5" cy="12.5" r="8.333333333333334" stroke_width="1" stroke="#00CC66" fill="white" />
        <circle cx="37.5" cy="12.5" r="4.166666666666667" stroke_width="3" stroke="#6699FF" fill="white" />
        <circle cx="37.5" cy="12.5" r="10.416666666666666" stroke_width="1" stroke="#6699FF" fill="white" />
        <circle cx="37.5" cy="12.5" r="2.0833333333333335" stroke_width="3" stroke="#6699FF" fill="white" />
        <circle cx="37.5" cy="12.5" r="2.0833333333333335" stroke_width="1" stroke="#6699FF" fill="white" />
        <circle cx="37.5" cy="12.5" r="10.416666666666666" stroke_width="1" stroke="#6699FF" fill="white" />
        <circle cx="37.5" cy="37.5" r="4.166666666666667" stroke_width="1" stroke="#6699FF" fill="white" />
        <circle cx="37.5" cy="37.5" r="4.166666666666667" stroke_width="1" stroke="#6699FF" fill="white" />
        <circle cx="37.5" cy="37.5" r="8.333333333333334" stroke_width="1" stroke="#6699FF" fill="white" />
        <circle cx="37.5" cy="37.5" r="8.333333333333334" stroke_width="2" stroke="#6699FF" fill="white" />
        <circle cx="37.5" cy="37.5" r="8.333333333333334" stroke_width="3" stroke="#6699FF" fill="white" />
        <circle cx="12.5" cy="37.5" r="10.416666666666666" stroke_width="1" stroke="#6699FF" fill="white" />
        <circle cx="12.5" cy="37.5" r="8.333333333333334" stroke_width="2" stroke="#6699FF" fill="white" />
        <circle cx="12.5" cy="37.5" r="4.166666666666667" stroke_width="1" stroke="#6699FF" fill="white" />
        <circle cx="12.5" cy="37.5" r="4.166666666666667" stroke_width="1" stroke="#6699FF" fill="white" />
        <circle cx="12.5" cy="37.5" r="8.333333333333334" stroke_width="1" stroke="#6699FF" fill="white" />
        <circle cx="62.5" cy="12.5" r="6.25" stroke_width="1" stroke="#006600" fill="white" />
        <circle cx="62.5" cy="12.5" r="2.0833333333333335" stroke_width="1" stroke="#006600" fill="white" />
        <circle cx="62.5" cy="12.5" r="2.0833333333333335" stroke_width="1" stroke="#006600" fill="white" />
        <circle cx="62.5" cy="12.5" r="8.333333333333334" stroke_width="1" stroke="#006600" fill="white" />
        <circle cx="62.5" cy="12.5" r="8.333333333333334" stroke_width="1" stroke="#006600" fill="white" />
        <circle cx="87.5" cy="12.5" r="2.0833333333333335" stroke_width="1" stroke="#006600" fill="white" />
        <circle cx="87.5" cy="12.5" r="6.25" stroke_width="2" stroke="#006600" fill="white" />
        <circle cx="87.5" cy="12.5" r="6.25" stroke_width="1" stroke="#006600" fill="white" />
        <circle cx="87.5" cy="12.5" r="8.333333333333334" stroke_width="2" stroke="#006600" fill="white" />
        <circle cx="87.5" cy="12.5" r="10.416666666666666" stroke_width="1" stroke="#006600" fill="white" />
        <circle cx="87.5" cy="37.5" r="4.166666666666667" stroke_width="1" stroke="#006600" fill="white" />
        <circle cx="87.5" cy="37.5" r="4.166666666666667" stroke_width="1" stroke="#006600" fill="white" />
        <circle cx="87.5" cy="37.5" r="8.333333333333334" stroke_width="3" stroke="#006600" fill="white" />
        <circle cx="87.5" cy="37.5" r="4.166666666666667" stroke_width="1" stroke="#006600" fill="white" />
        <circle cx="87.5" cy="37.5" r="10.416666666666666" stroke_width="1" stroke="#006600" fill="white" />
        <circle cx="62.5" cy="37.5" r="4.166666666666667" stroke_width="2" stroke="#00CC66" fill="white" />
        <circle cx="62.5" cy="37.5" r="4.166666666666667" stroke_width="1" stroke="#00CC66" fill="white" />
        <circle cx="62.5" cy="37.5" r="2.0833333333333335" stroke_width="1" stroke="#00CC66" fill="white" />
        <circle cx="62.5" cy="37.5" r="2.0833333333333335" stroke_width="2" stroke="#00CC66" fill="white" />
        <circle cx="62.5" cy="37.5" r="8.333333333333334" stroke_width="1" stroke="#00CC66" fill="white" />
        <circle cx="62.5" cy="62.5" r="4.166666666666667" stroke_width="3" stroke="#009933" fill="white" />
        <circle cx="62.5" cy="62.5" r="8.333333333333334" stroke_width="1" stroke="#009933" fill="white" />
        <circle cx="62.5" cy="62.5" r="8.333333333333334" stroke_width="2" stroke="#009933" fill="white" />
        <circle cx="62.5" cy="62.5" r="2.0833333333333335" stroke_width="1" stroke="#009933" fill="white" />
        <circle cx="62.5" cy="62.5" r="8.333333333333334" stroke_width="2" stroke="#009933" fill="white" />
        <circle cx="87.5" cy="62.5" r="6.25" stroke_width="3" stroke="#00CC66" fill="white" />
        <circle cx="87.5" cy="62.5" r="2.0833333333333335" stroke_width="2" stroke="#00CC66" fill="white" />
        <circle cx="87.5" cy="62.5" r="4.166666666666667" stroke_width="1" stroke="#00CC66" fill="white" />
        <circle cx="87.5" cy="62.5" r="2.0833333333333335" stroke_width="2" stroke="#00CC66" fill="white" />
        <circle cx="87.5" cy="62.5" r="10.416666666666666" stroke_width="1" stroke="#00CC66" fill="white" />
        <circle cx="87.5" cy="87.5" r="10.416666666666666" stroke_width="1" stroke="#006600" fill="white" />
        <circle cx="87.5" cy="87.5" r="10.416666666666666" stroke_width="1" stroke="#006600" fill="white" />
        <circle cx="87.5" cy="87.5" r="4.166666666666667" stroke_width="3" stroke="#006600" fill="white" />
        <circle cx="87.5" cy="87.5" r="6.25" stroke_width="1" stroke="#006600" fill="white" />
        <circle cx="87.5" cy="87.5" r="8.333333333333334" stroke_width="1" stroke="#006600" fill="white" />
        <circle cx="62.5" cy="87.5" r="8.333333333333334" stroke_width="1" stroke="#00CC66" fill="white" />
        <circle cx="62.5" cy="87.5" r="6.25" stroke_width="1" stroke="#00CC66" fill="white" />
        <circle cx="62.5" cy="87.5" r="4.166666666666667" stroke_width="1" stroke="#00CC66" fill="white" />
        <circle cx="62.5" cy="87.5" r="10.416666666666666" stroke_width="1" stroke="#00CC66" fill="white" />
        <circle cx="62.5" cy="87.5" r="6.25" stroke_width="1" stroke="#00CC66" fill="white" />
        <circle cx="12.5" cy="62.5" r="4.166666666666667" stroke_width="2" stroke="#009933" fill="white" />
        <circle cx="12.5" cy="62.5" r="8.333333333333334" stroke_width="2" stroke="#009933" fill="white" />
        <circle cx="12.5" cy="62.5" r="4.166666666666667" stroke_width="1" stroke="#009933" fill="white" />
        <circle cx="12.5" cy="62.5" r="2.0833333333333335" stroke_width="1" stroke="#009933" fill="white" />
        <circle cx="12.5" cy="62.5" r="8.333333333333334" stroke_width="3" stroke="#009933" fill="white" />
        <circle cx="37.5" cy="62.5" r="6.25" stroke_width="2" stroke="#006600" fill="white" />
        <circle cx="37.5" cy="62.5" r="8.333333333333334" stroke_width="2" stroke="#006600" fill="white" />
        <circle cx="37.5" cy="62.5" r="6.25" stroke_width="2" stroke="#006600" fill="white" />
        <circle cx="37.5" cy="62.5" r="2.0833333333333335" stroke_width="2" stroke="#006600" fill="white" />
        <circle cx="37.5" cy="62.5" r="2.0833333333333335" stroke_width="1" stroke="#006600" fill="white" />
        <circle cx="37.5" cy="87.5" r="4.166666666666667" stroke_width="1" stroke="#00CC66" fill="white" />
        <circle cx="37.5" cy="87.5" r="2.0833333333333335" stroke_width="1" stroke="#00CC66" fill="white" />
        <circle cx="37.5" cy="87.5" r="10.416666666666666" stroke_width="1" stroke="#00CC66" fill="white" />
        <circle cx="37.5" cy="87.5" r="6.25" stroke_width="3" stroke="#00CC66" fill="white" />
        <circle cx="37.5" cy="87.5" r="8.333333333333334" stroke_width="2" stroke="#00CC66" fill="white" />
        <circle cx="12.5" cy="87.5" r="4.166666666666667" stroke_width="3" stroke="#009933" fill="white" />
        <circle cx="12.5" cy="87.5" r="10.416666666666666" stroke_width="3" stroke="#009933" fill="white" />
        <circle cx="12.5" cy="87.5" r="4.166666666666667" stroke_width="3" stroke="#009933" fill="white" />
        <circle cx="12.5" cy="87.5" r="2.0833333333333335" stroke_width="3" stroke="#009933" fill="white" />
        <circle cx="12.5" cy="87.5" r="10.416666666666666" stroke_width="1" stroke="#009933" fill="white" />
        <circle cx="112.5" cy="12.5" r="8.333333333333334" stroke_width="1" stroke="#009933" fill="white" />
        <circle cx="112.5" cy="12.5" r="8.333333333333334" stroke_width="1" stroke="#009933" fill="white" />
        <circle cx="112.5" cy="12.5" r="8.333333333333334" stroke_width="1" stroke="#009933" fill="white" />
        <circle cx="112.5" cy="12.5" r="10.416666666666666" stroke_width="3" stroke="#009933" fill="white" />
        <circle cx="112.5" cy="12.5" r="4.166666666666667" stroke_width="1" stroke="#009933" fill="white" />
        <circle cx="137.5" cy="12.5" r="2.0833333333333335" stroke_width="1" stroke="#006600" fill="white" />
        <circle cx="137.5" cy="12.5" r="4.166666666666667" stroke_width="3" stroke="#006600" fill="white" />
        <circle cx="137.5" cy="12.5" r="10.416666666666666" stroke_width="1" stroke="#006600" fill="white" />
        <circle cx="137.5" cy="12.5" r="10.416666666666666" stroke_width="1" stroke="#006600" fill="white" />
        <circle cx="137.5" cy="12.5" r="6.25" stroke_width="1" stroke="#006600" fill="white" />
        <circle cx="137.5" cy="37.5" r="4.166666666666667" stroke_width="1" stroke="#009933" fill="white" />
        <circle cx="137.5" cy="37.5" r="4.166666666666667" stroke_width="3" stroke="#009933" fill="white" />
        <circle cx="137.5" cy="37.5" r="10.416666666666666" stroke_width="3" stroke="#009933" fill="white" />
        <circle cx="137.5" cy="37.5" r="4.166666666666667" stroke_width="1" stroke="#009933" fill="white" />
        <circle cx="137.5" cy="37.5" r="8.333333333333334" stroke_width="1" stroke="#009933" fill="white" />
        <circle cx="112.5" cy="37.5" r="8.333333333333334" stroke_width="2" stroke="#006600" fill="white" />
        <circle cx="112.5" cy="37.5" r="4.166666666666667" stroke_width="2" stroke="#006600" fill="white" />
        <circle cx="112.5" cy="37.5" r="4.166666666666667" stroke_width="2" stroke="#006600" fill="white" />
        <circle cx="112.5" cy="37.5" r="4.166666666666667" stroke_width="2" stroke="#006600" fill="white" />
        <circle cx="112.5" cy="37.5" r="8.333333333333334" stroke_width="1" stroke="#006600" fill="white" />
        <circle cx="162.5" cy="12.5" r="10.416666666666666" stroke_width="1" stroke="#006600" fill="white" />
        <circle cx="162.5" cy="12.5" r="2.0833333333333335" stroke_width="2" stroke="#006600" fill="white" />
        <circle cx="162.5" cy="12.5" r="8.333333333333334" stroke_width="2" stroke="#006600" fill="white" />
        <circle cx="162.5" cy="12.5" r="8.333333333333334" stroke_width="2" stroke="#006600" fill="white" />
        <circle cx="162.5" cy="12.5" r="2.0833333333333335" stroke_width="2" stroke="#006600" fill="white" />
        <circle cx="187.5" cy="12.5" r="8.333333333333334" stroke_width="1" stroke="#009933" fill="white" />
        <circle cx="187.5" cy="12.5" r="8.333333333333334" stroke_width="3" stroke="#009933" fill="white" />
        <circle cx="187.5" cy="12.5" r="6.25" stroke_width="1" stroke="#009933" fill="white" />
        <circle cx="187.5" cy="12.5" r="6.25" stroke_width="3" stroke="#009933" fill="white" />
        <circle cx="187.5" cy="12.5" r="8.333333333333334" stroke_width="2" stroke="#009933" fill="white" />
        <circle cx="187.5" cy="37.5" r="2.0833333333333335" stroke_width="3" stroke="#00CC66" fill="white" />
        <circle cx="187.5" cy="37.5" r="2.0833333333333335" stroke_width="1" stroke="#00CC66" fill="white" />
        <circle cx="187.5" cy="37.5" r="8.333333333333334" stroke_width="2" stroke="#00CC66" fill="white" />
        <circle cx="187.5" cy="37.5" r="10.416666666666666" stroke_width="3" stroke="#00CC66" fill="white" />
        <circle cx="187.5" cy="37.5" r="4.166666666666667" stroke_width="3" stroke="#00CC66" fill="white" />
        <circle cx="162.5" cy="37.5" r="4.166666666666667" stroke_width="1" stroke="#00FFCC" fill="white" />
        <circle cx="162.5" cy="37.5" r="10.416666666666666" stroke_width="2" stroke="#00FFCC" fill="white" />
        <circle cx="162.5" cy="37.5" r="8.333333333333334" stroke_width="1" stroke="#00FFCC" fill="white" />
        <circle cx="162.5" cy="37.5" r="8.333333333333334" stroke_width="1" stroke="#00FFCC" fill="white" />
        <circle cx="162.5" cy="37.5" r="2.0833333333333335" stroke_width="1" stroke="#00FFCC" fill="white" />
        <circle cx="162.5" cy="62.5" r="4.166666666666667" stroke_width="1" stroke="#00FFCC" fill="white" />
        <circle cx="162.5" cy="62.5" r="2.0833333333333335" stroke_width="1" stroke="#00FFCC" fill="white" />
        <circle cx="162.5" cy="62.5" r="4.166666666666667" stroke_width="2" stroke="#00FFCC" fill="white" />
        <circle cx="162.5" cy="62.5" r="2.0833333333333335" stroke_width="1" stroke="#00FFCC" fill="white" />
        <circle cx="162.5" cy="62.5" r="8.333333333333334" stroke_width="1" stroke="#00FFCC" fill="white" />
        <circle cx="187.5" cy="62.5" r="4.166666666666667" stroke_width="3" stroke="#00CC66" fill="white" />
        <circle cx="187.5" cy="62.5" r="4.166666666666667" stroke_width="2" stroke="#00CC66" fill="white" />
        <circle cx="187.5" cy="62.5" r="4.166666666666667" stroke_width="2" stroke="#00CC66" fill="white" />
        <circle cx="187.5" cy="62.5" r="2.0833333333333335" stroke_width="1" stroke="#00CC66" fill="white" />
        <circle cx="187.5" cy="62.5" r="6.25" stroke_width="2" stroke="#00CC66" fill="white" />
        <circle cx="187.5" cy="87.5" r="8.333333333333334" stroke_width="2" stroke="#00FFCC" fill="white" />
        <circle cx="187.5" cy="87.5" r="10.416666666666666" stroke_width="2" stroke="#00FFCC" fill="white" />
        <circle cx="187.5" cy="87.5" r="10.416666666666666" stroke_width="2" stroke="#00FFCC" fill="white" />
        <circle cx="187.5" cy="87.5" r="6.25" stroke_width="1" stroke="#00FFCC" fill="white" />
        <circle cx="187.5" cy="87.5" r="4.166666666666667" stroke_width="1" stroke="#00FFCC" fill="white" />
        <circle cx="162.5" cy="87.5" r="4.166666666666667" stroke_width="1" stroke="#009933" fill="white" />
        <circle cx="162.5" cy="87.5" r="10.416666666666666" stroke_width="2" stroke="#009933" fill="white" />
        <circle cx="162.5" cy="87.5" r="6.25" stroke_width="1" stroke="#009933" fill="white" />
        <circle cx="162.5" cy="87.5" r="2.0833333333333335" stroke_width="2" stroke="#009933" fill="white" />
        <circle cx="162.5" cy="87.5" r="6.25" stroke_width="1" stroke="#009933" fill="white" />
        <circle cx="112.5" cy="62.5" r="2.0833333333333335" stroke_width="2" stroke="#009933" fill="white" />
        <circle cx="112.5" cy="62.5" r="6.25" stroke_width="2" stroke="#009933" fill="white" />
        <circle cx="112.5" cy="62.5" r="4.166666666666667" stroke_width="1" stroke="#009933" fill="white" />
        <circle cx="112.5" cy="62.5" r="2.0833333333333335" stroke_width="2" stroke="#009933" fill="white" />
        <circle cx="112.5" cy="62.5" r="8.333333333333334" stroke_width="2" stroke="#009933" fill="white" />
        <circle cx="137.5" cy="62.5" r="10.416666666666666" stroke_width="1" stroke="#009933" fill="white" />
        <circle cx="137.5" cy="62.5" r="10.416666666666666" stroke_width="1" stroke="#009933" fill="white" />
        <circle cx="137.5" cy="62.5" r="8.333333333333334" stroke_width="1" stroke="#009933" fill="white" />
        <circle cx="137.5" cy="62.5" r="8.333333333333334" stroke_width="3" stroke="#009933" fill="white" />
        <circle cx="137.5" cy="62.5" r="8.333333333333334" stroke_width="2" stroke="#009933" fill="white" />
        <circle cx="137.5" cy="87.5" r="10.416666666666666" stroke_width="1" stroke="#009933" fill="white" />
        <circle cx="137.5" cy="87.5" r="8.333333333333334" stroke_width="1" stroke="#009933" fill="white" />
        <circle cx="137.5" cy="87.5" r="2.0833333333333335" stroke_width="2" stroke="#009933" fill="white" />
        <circle cx="137.5" cy="87.5" r="10.416666666666666" stroke_width="1" stroke="#009933" fill="white" />
        <circle cx="137.5" cy="87.5" r="2.0833333333333335" stroke_width="2" stroke="#009933" fill="white" />
        <circle cx="112.5" cy="87.5" r="4.166666666666667" stroke_width="2" stroke="#00FFCC" fill="white" />
        <circle cx="112.5" cy="87.5" r="4.166666666666667" stroke_width="1" stroke="#00FFCC" fill="white" />
        <circle cx="112.5" cy="87.5" r="4.166666666666667" stroke_width="2" stroke="#00FFCC" fill="white" />
        <circle cx="112.5" cy="87.5" r="10.416666666666666" stroke_width="2" stroke="#00FFCC" fill="white" />
        <circle cx="112.5" cy="87.5" r="4.166666666666667" stroke_width="2" stroke="#00FFCC" fill="white" />
        <circle cx="112.5" cy="112.5" r="10.416666666666666" stroke_width="1" stroke="#00FFCC" fill="white" />
        <circle cx="112.5" cy="112.5" r="6.25" stroke_width="3" stroke="#00FFCC" fill="white" />
        <circle cx="112.5" cy="112.5" r="2.0833333333333335" stroke_width="1" stroke="#00FFCC" fill="white" />
        <circle cx="112.5" cy="112.5" r="2.0833333333333335" stroke_width="1" stroke="#00FFCC" fill="white" />
        <circle cx="112.5" cy="112.5" r="10.416666666666666" stroke_width="1" stroke="#00FFCC" fill="white" />
        <circle cx="137.5" cy="112.5" r="2.0833333333333335" stroke_width="2" stroke="#00CC66" fill="white" />
        <circle cx="137.5" cy="112.5" r="8.333333333333334" stroke_width="1" stroke="#00CC66" fill="white" />
        <circle cx="137.5" cy="112.5" r="4.166666666666667" stroke_width="1" stroke="#00CC66" fill="white" />
        <circle cx="137.5" cy="112.5" r="2.0833333333333335" stroke_width="1" stroke="#00CC66" fill="white" />
        <circle cx="137.5" cy="112.5" r="10.416666666666666" stroke_width="3" stroke="#00CC66" fill="white" />
        <circle cx="137.5" cy="137.5" r="10.416666666666666" stroke_width="1" stroke="#6699FF" fill="white" />
        <circle cx="137.5" cy="137.5" r="8.333333333333334" stroke_width="1" stroke="#6699FF" fill="white" />
        <circle cx="137.5" cy="137.5" r="4.166666666666667" stroke_width="2" stroke="#6699FF" fill="white" />
        <circle cx="137.5" cy="137.5" r="8.333333333333334" stroke_width="3" stroke="#6699FF" fill="white" />
        <circle cx="137.5" cy="137.5" r="6.25" stroke_width="2" stroke="#6699FF" fill="white" />
        <circle cx="112.5" cy="137.5" r="6.25" stroke_width="1" stroke="#6699FF" fill="white" />
        <circle cx="112.5" cy="137.5" r="6.25" stroke_width="1" stroke="#6699FF" fill="white" />
        <circle cx="112.5" cy="137.5" r="2.0833333333333335" stroke_width="2" stroke="#6699FF" fill="white" />
        <circle cx="112.5" cy="137.5" r="2.0833333333333335" stroke_width="2" stroke="#6699FF" fill="white" />
        <circle cx="112.5" cy="137.5" r="8.333333333333334" stroke_width="2" stroke="#6699FF" fill="white" />
        <circle cx="162.5" cy="112.5" r="4.166666666666667" stroke_width="2" stroke="#006600" fill="white" />
        <circle cx="162.5" cy="112.5" r="6.25" stroke_width="1" stroke="#006600" fill="white" />
        <circle cx="162.5" cy="112.5" r="2.0833333333333335" stroke_width="1" stroke="#006600" fill="white" />
        <circle cx="162.5" cy="112.5" r="2.0833333333333335" stroke_width="3" stroke="#006600" fill="white" />
        <circle cx="162.5" cy="112.5" r="6.25" stroke_width="3" stroke="#006600" fill="white" />
        <circle cx="187.5" cy="112.5" r="2.0833333333333335" stroke_width="1" stroke="#006600" fill="white" />
        <circle cx="187.5" cy="112.5" r="6.25" stroke_width="2" stroke="#006600" fill="white" />
        <circle cx="187.5" cy="112.5" r="2.0833333333333335" stroke_width="1" stroke="#006600" fill="white" />
        <circle cx="187.5" cy="112.5" r="6.25" stroke_width="1" stroke="#006600" fill="white" />
        <circle cx="187.5" cy="112.5" r="6.25" stroke_width="2" stroke="#006600" fill="white" />
        <circle cx="187.5" cy="137.5" r="8.333333333333334" stroke_width="2" stroke="#6699FF" fill="white" />
        <circle cx="187.5" cy="137.5" r="10.416666666666666" stroke_width="1" stroke="#6699FF" fill="white" />
        <circle cx="187.5" cy="137.5" r="10.416666666666666" stroke_width="3" stroke="#6699FF" fill="white" />
        <circle cx="187.5" cy="137.5" r="4.166666666666667" stroke_width="2" stroke="#6699FF" fill="white" />
        <circle cx="187.5" cy="137.5" r="6.25" stroke_width="1" stroke="#6699FF" fill="white" />
        <circle cx="162.5" cy="137.5" r="6.25" stroke_width="2" stroke="#6699FF" fill="white" />
        <circle cx="162.5" cy="137.5" r="6.25" stroke_width="3" stroke="#6699FF" fill="white" />
        <circle cx="162.5" cy="137.5" r="10.416666666666666" stroke_width="1" stroke="#6699FF" fill="white" />
        <circle cx="162.5" cy="137.5" r="2.0833333333333335" stroke_width="1" stroke="#6699FF" fill="white" />
        <circle cx="162.5" cy="137.5" r="4.166666666666667" stroke_width="2" stroke="#6699FF" fill="white" />
        <circle cx="162.5" cy="162.5" r="4.166666666666667" stroke_width="1" stroke="#009933" fill="white" />
        <circle cx="162.5" cy="162.5" r="4.166666666666667" stroke_width="3" stroke="#009933" fill="white" />
        <circle cx="162.5" cy="162.5" r="8.333333333333334" stroke_width="1" stroke="#009933" fill="white" />
        <circle cx="162.5" cy="162.5" r="6.25" stroke_width="1" stroke="#009933" fill="white" />
        <circle cx="162.5" cy="162.5" r="6.25" stroke_width="2" stroke="#009933" fill="white" />
        <circle cx="187.5" cy="162.5" r="8.333333333333334" stroke_width="1" stroke="#00FFCC" fill="white" />
        <circle cx="187.5" cy="162.5" r="6.25" stroke_width="3" stroke="#00FFCC" fill="white" />
        <circle cx="187.5" cy="162.5" r="4.166666666666667" stroke_width="2" stroke="#00FFCC" fill="white" />
        <circle cx="187.5" cy="162.5" r="6.25" stroke_width="2" stroke="#00FFCC" fill="white" />
        <circle cx="187.5" cy="162.5" r="8.333333333333334" stroke_width="1" stroke="#00FFCC" fill="white" />
        <circle cx="187.5" cy="187.5" r="6.25" stroke_width="1" stroke="#009933" fill="white" />
        <circle cx="187.5" cy="187.5" r="4.166666666666667" stroke_width="2" stroke="#009933" fill="white" />
        <circle cx="187.5" cy="187.5" r="10.416666666666666" stroke_width="1" stroke="#009933" fill="white" />
        <circle cx="187.5" cy="187.5" r="6.25" stroke_width="1" stroke="#009933" fill="white" />
        <circle cx="187.5" cy="187.5" r="8.333333333333334" stroke_width="3" stroke="#009933" fill="white" />
        <circle cx="162.5" cy="187.5" r="10.416666666666666" stroke_width="2" stroke="#00FFCC" fill="white" />
        <circle cx="162.5" cy="187.5" r="8.333333333333334" stroke_width="1" stroke="#00FFCC" fill="white" />
        <circle cx="162.5" cy="187.5" r="8.333333333333334" stroke_width="2" stroke="#00FFCC" fill="white" />
        <circle cx="162.5" cy="187.5" r="8.333333333333334" stroke_width="2" stroke="#00FFCC" fill="white" />
        <circle cx="162.5" cy="187.5" r="8.333333333333334" stroke_width="1" stroke="#00FFCC" fill="white" />
        <circle cx="112.5" cy="162.5" r="6.25" stroke_width="1" stroke="#009933" fill="white" />
        <circle cx="112.5" cy="162.5" r="10.416666666666666" stroke_width="2" stroke="#009933" fill="white" />
        <circle cx="112.5" cy="162.5" r="2.0833333333333335" stroke_width="3" stroke="#009933" fill="white" />
        <circle cx="112.5" cy="162.5" r="10.416666666666666" stroke_width="1" stroke="#009933" fill="white" />
        <circle cx="112.5" cy="162.5" r="10.416666666666666" stroke_width="2" stroke="#009933" fill="white" />
        <circle cx="137.5" cy="162.5" r="6.25" stroke_width="3" stroke="#00CC66" fill="white" />
        <circle cx="137.5" cy="162.5" r="4.166666666666667" stroke_width="3" stroke="#00CC66" fill="white" />
        <circle cx="137.5" cy="162.5" r="4.166666666666667" stroke_width="2" stroke="#00CC66" fill="white" />
        <circle cx="137.5" cy="162.5" r="10.416666666666666" stroke_width="3" stroke="#00CC66" fill="white" />
        <circle cx="137.5" cy="162.5" r="6.25" stroke_width="1" stroke="#00CC66" fill="white" />
        <circle cx="137.5" cy="187.5" r="2.0833333333333335" stroke_width="1" stroke="#006600" fill="white" />
        <circle cx="137.5" cy="187.5" r="8.333333333333334" stroke_width="2" stroke="#006600" fill="white" />
        <circle cx="137.5" cy="187.5" r="6.25" stroke_width="2" stroke="#006600" fill="white" />
        <circle cx="137.5" cy="187.5" r="4.166666666666667" stroke_width="1" stroke="#006600" fill="white" />
        <circle cx="137.5" cy="187.5" r="6.25" stroke_width="1" stroke="#006600" fill="white" />
        <circle cx="112.5" cy="187.5" r="8.333333333333334" stroke_width="3" stroke="#006600" fill="white" />
        <circle cx="112.5" cy="187.5" r="10.416666666666666" stroke_width="2" stroke="#006600" fill="white" />
        <circle cx="112.5" cy="187.5" r="2.0833333333333335" stroke_width="1" stroke="#006600" fill="white" />
        <circle cx="112.5" cy="187.5" r="4.166666666666667" stroke_width="2" stroke="#006600" fill="white" />
        <circle cx="112.5" cy="187.5" r="6.25" stroke_width="3" stroke="#006600" fill="white" />
        <circle cx="12.5" cy="112.5" r="6.25" stroke_width="1" stroke="#009933" fill="white" />
        <circle cx="12.5" cy="112.5" r="2.0833333333333335" stroke_width="1" stroke="#009933" fill="white" />
        <circle cx="12.5" cy="112.5" r="6.25" stroke_width="2" stroke="#009933" fill="white" />
        <circle cx="12.5" cy="112.5" r="4.166666666666667" stroke_width="2" stroke="#009933" fill="white" />
        <circle cx="12.5" cy="112.5" r="8.333333333333334" stroke_width="2" stroke="#009933" fill="white" />
        <circle cx="37.5" cy="112.5" r="6.25" stroke_width="1" stroke="#006600" fill="white" />
        <circle cx="37.5" cy="112.5" r="10.416666666666666" stroke_width="3" stroke="#006600" fill="white" />
        <circle cx="37.5" cy="112.5" r="2.0833333333333335" stroke_width="2" stroke="#006600" fill="white" />
        <circle cx="37.5" cy="112.5" r="8.333333333333334" stroke_width="2" stroke="#006600" fill="white" />
        <circle cx="37.5" cy="112.5" r="6.25" stroke_width="2" stroke="#006600" fill="white" />
        <circle cx="37.5" cy="137.5" r="2.0833333333333335" stroke_width="2" stroke="#006600" fill="white" />
        <circle cx="37.5" cy="137.5" r="2.0833333333333335" stroke_width="1" stroke="#006600" fill="white" />
        <circle cx="37.5" cy="137.5" r="8.333333333333334" stroke_width="1" stroke="#006600" fill="white" />
        <circle cx="37.5" cy="137.5" r="6.25" stroke_width="1" stroke="#006600" fill="white" />
        <circle cx="37.5" cy="137.5" r="10.416666666666666" stroke_width="2" stroke="#006600" fill="white" />
        <circle cx="12.5" cy="137.5" r="2.0833333333333335" stroke_width="1" stroke="#00CC66" fill="white" />
        <circle cx="12.5" cy="137.5" r="8.333333333333334" stroke_width="1" stroke="#00CC66" fill="white" />
        <circle cx="12.5" cy="137.5" r="8.333333333333334" stroke_width="2" stroke="#00CC66" fill="white" />
        <circle cx="12.5" cy="137.5" r="6.25" stroke_width="2" stroke="#00CC66" fill="white" />
        <circle cx="12.5" cy="137.5" r="8.333333333333334" stroke_width="2" stroke="#00CC66" fill="white" />
        <circle cx="62.5" cy="112.5" r="8.333333333333334" stroke_width="3" stroke="#6699FF" fill="white" />
        <circle cx="62.5" cy="112.5" r="10.416666666666666" stroke_width="1" stroke="#6699FF" fill="white" />
        <circle cx="62.5" cy="112.5" r="6.25" stroke_width="1" stroke="#6699FF" fill="white" />
        <circle cx="62.5" cy="112.5" r="8.333333333333334" stroke_width="1" stroke="#6699FF" fill="white" />
        <circle cx="62.5" cy="112.5" r="8.333333333333334" stroke_width="1" stroke="#6699FF" fill="white" />
        <circle cx="87.5" cy="112.5" r="6.25" stroke_width="2" stroke="#006600" fill="white" />
        <circle cx="87.5" cy="112.5" r="4.166666666666667" stroke_width="1" stroke="#006600" fill="white" />
        <circle cx="87.5" cy="112.5" r="6.25" stroke_width="2" stroke="#006600" fill="white" />
        <circle cx="87.5" cy="112.5" r="4.166666666666667" stroke_width="2" stroke="#006600" fill="white" />
        <circle cx="87.5" cy="112.5" r="6.25" stroke_width="1" stroke="#006600" fill="white" />
        <circle cx="87.5" cy="137.5" r="10.416666666666666" stroke_width="3" stroke="#006600" fill="white" />
        <circle cx="87.5" cy="137.5" r="10.416666666666666" stroke_width="1" stroke="#006600" fill="white" />
        <circle cx="87.5" cy="137.5" r="2.0833333333333335" stroke_width="1" stroke="#006600" fill="white" />
        <circle cx="87.5" cy="137.5" r="4.166666666666667" stroke_width="1" stroke="#006600" fill="white" />
        <circle cx="87.5" cy="137.5" r="6.25" stroke_width="2" stroke="#006600" fill="white" />
        <circle cx="62.5" cy="137.5" r="2.0833333333333335" stroke_width="3" stroke="#6699FF" fill="white" />
        <circle cx="62.5" cy="137.5" r="10.416666666666666" stroke_width="1" stroke="#6699FF" fill="white" />
        <circle cx="62.5" cy="137.5" r="8.333333333333334" stroke_width="1" stroke="#6699FF" fill="white" />
        <circle cx="62.5" cy="137.5" r="8.333333333333334" stroke_width="2" stroke="#6699FF" fill="white" />
        <circle cx="62.5" cy="137.5" r="4.166666666666667" stroke_width="1" stroke="#6699FF" fill="white" />
        <circle cx="62.5" cy="162.5" r="10.416666666666666" stroke_width="1" stroke="#00CC66" fill="white" />
        <circle cx="62.5" cy="162.5" r="4.166666666666667" stroke_width="1" stroke="#00CC66" fill="white" />
        <circle cx="62.5" cy="162.5" r="6.25" stroke_width="1" stroke="#00CC66" fill="white" />
        <circle cx="62.5" cy="162.5" r="4.166666666666667" stroke_width="2" stroke="#00CC66" fill="white" />
        <circle cx="62.5" cy="162.5" r="2.0833333333333335" stroke_width="2" stroke="#00CC66" fill="white" />
        <circle cx="87.5" cy="162.5" r="2.0833333333333335" stroke_width="1" stroke="#006600" fill="white" />
        <circle cx="87.5" cy="162.5" r="4.166666666666667" stroke_width="1" stroke="#006600" fill="white" />
        <circle cx="87.5" cy="162.5" r="8.333333333333334" stroke_width="1" stroke="#006600" fill="white" />
        <circle cx="87.5" cy="162.5" r="6.25" stroke_width="3" stroke="#006600" fill="white" />
        <circle cx="87.5" cy="162.5" r="6.25" stroke_width="2" stroke="#006600" fill="white" />
        <circle cx="87.5" cy="187.5" r="10.416666666666666" stroke_width="1" stroke="#006600" fill="white" />
        <circle cx="87.5" cy="187.5" r="4.166666666666667" stroke_width="1" stroke="#006600" fill="white" />
        <circle cx="87.5" cy="187.5" r="10.416666666666666" stroke_width="2" stroke="#006600" fill="white" />
        <circle cx="87.5" cy="187.5" r="4.166666666666667" stroke_width="1" stroke="#006600" fill="white" />
        <circle cx="87.5" cy="187.5" r="6.25" stroke_width="2" stroke="#006600" fill="white" />
        <circle cx="62.5" cy="187.5" r="6.25" stroke_width="2" stroke="#009933" fill="white" />
        <circle cx="62.5" cy="187.5" r="8.333333333333334" stroke_width="1" stroke="#009933" fill="white" />
        <circle cx="62.5" cy="187.5" r="2.0833333333333335" stroke_width="2" stroke="#009933" fill="white" />
        <circle cx="62.5" cy="187.5" r="4.166666666666667" stroke_width="1" stroke="#009933" fill="white" />
        <circle cx="62.5" cy="187.5" r="4.166666666666667" stroke_width="2" stroke="#009933" fill="white" />
        <circle cx="12.5" cy="162.5" r="4.166666666666667" stroke_width="2" stroke="#006600" fill="white" />
        <circle cx="12.5" cy="162.5" r="8.333333333333334" stroke_width="1" stroke="#006600" fill="white" />
        <circle cx="12.5" cy="162.5" r="4.166666666666667" stroke_width="1" stroke="#006600" fill="white" />
        <circle cx="12.5" cy="162.5" r="8.333333333333334" stroke_width="2" stroke="#006600" fill="white" />
        <circle cx="12.5" cy="162.5" r="4.166666666666667" stroke_width="2" stroke="#006600" fill="white" />
        <circle cx="37.5" cy="162.5" r="2.0833333333333335" stroke_width="2" stroke="#6699FF" fill="white" />
        <circle cx="37.5" cy="162.5" r="10.416666666666666" stroke_width="2" stroke="#6699FF" fill="white" />
        <circle cx="37.5" cy="162.5" r="8.333333333333334" stroke_width="1" stroke="#6699FF" fill="white" />
        <circle cx="37.5" cy="162.5" r="2.0833333333333335" stroke_width="3" stroke="#6699FF" fill="white" />
        <circle cx="37.5" cy="162.5" r="10.416666666666666" stroke_width="2" stroke="#6699FF" fill="white" />
        <circle cx="37.5" cy="187.5" r="10.416666666666666" stroke_width="1" stroke="#009933" fill="white" />
        <circle cx="37.5" cy="187.5" r="10.416666666666666" stroke_width="1" stroke="#009933" fill="white" />
        <circle cx="37.5" cy="187.5" r="4.166666666666667" stroke_width="2" stroke="#009933" fill="white" />
        <circle cx="37.5" cy="187.5" r="10.416666666666666" stroke_width="1" stroke="#009933" fill="white" />
        <circle cx="37.5" cy="187.5" r="6.25" stroke_width="3" stroke="#009933" fill="white" />
        <circle cx="12.5" cy="187.5" r="4.166666666666667" stroke_width="1" stroke="#00FFCC" fill="white" />
        <circle cx="12.5" cy="187.5" r="6.25" stroke_width="3" stroke="#00FFCC" fill="white" />
        <circle cx="12.5" cy="187.5" r="10.416666666666666" stroke_width="1" stroke="#00FFCC" fill="white" />
        <circle cx="12.5" cy="187.5" r="2.0833333333333335" stroke_width="1" stroke="#00FFCC" fill="white" />
        <circle cx="12.5" cy="187.5" r="8.333333333333334" stroke_width="1" stroke="#00FFCC" fill="white" />
    </g> 
</svg>