<?xml version='1.0' encoding='UTF-8' standalone='no'?>
<svg xmlns="http://www.w3.org/2000/svg" xmlns:xlink="http://www.w3.org/1999/xlink" width="200" height="120" version="1.1">
  <rect x="0" y="0" width="200" height="120" fill="none" stroke="black" stroke-width="1" opacity="0.8"/>
  <title>draw Datafrane data</title>
  <g opacity="1.0">
    <style> line { stroke: black; stroke-width: 0.5;  } </style>
    <line x1="5" y1="5.0" x2="195.0" y2="5.0"/>
    <line x1="5" y1="23.333333333333332" x2="195.0" y2="23.333333333333332"/>
    <line x1="5" y1="41.666666666666664" x2="195.0" y2="41.666666666666664"/>
    <line x1="5" y1="60.0" x2="195.0" y2="60.0"/>
    <line x1="5" y1="78.33333333333333" x2="195.0" y2="78.33333333333333"/>
    <line x1="5" y1="96.66666666666666" x2="195.0" y2="96.66666666666666"/>
    <line x1="5" y1="115.0" x2="195.0" y2="115.0"/>
    <line x1="5.0" y1="5" x2="5.0" y2="115.0"/>
    <line x1="52.5" y1="5" x2="52.5" y2="115.0"/>
    <line x1="100.0" y1="5" x2="100.0" y2="115.0"/>
    <line x1="147.5" y1="5" x2="147.5" y2="115.0"/>
    <line x1="195.0" y1="5" x2="195.0" y2="115.0"/>
    <style> text { font-family: Consolas; dominant-baseline: middle; text-anchor: middle;  } </style>
    <text font-size="22px" fill="red" x="28.75" y="32.5">0</text>
    <text font-size="22px" fill="red" x="28.75" y="50.83333333333333">1</text>
    <text font-size="22px" fill="red" x="28.75" y="69.16666666666667">2</text>
    <text font-size="22px" fill="red" x="28.75" y="87.5">3</text>
    <text font-size="22px" fill="red" x="28.75" y="105.83333333333333">4</text>
    <text font-size="22px" fill="red" x="76.25" y="14.166666666666666">A</text>
    <text font-size="22px" fill="red" x="123.75" y="14.166666666666666">B</text>
    <text font-size="22px" fill="red" x="171.25" y="14.166666666666666">C</text>
    <rect font-size="22px" fill="#9f4f54" x="52.5" y="23.333333333333332" width="47.5" height="18.333333333333332">39</rect>
    <rect font-size="22px" fill="#3c92d0" x="100.0" y="23.333333333333332" width="47.5" height="18.333333333333332">133</rect>
    <rect font-size="22px" fill="#3a94d3" x="147.5" y="23.333333333333332" width="47.5" height="18.333333333333332">135</rect>
    <rect font-size="22px" fill="#c0392b" x="52.5" y="41.666666666666664" width="47.5" height="18.333333333333332">8</rect>
    <rect font-size="22px" fill="#a94948" x="100.0" y="41.666666666666664" width="47.5" height="18.333333333333332">30</rect>
    <rect font-size="22px" fill="#935864" x="147.5" y="41.666666666666664" width="47.5" height="18.333333333333332">51</rect>
    <rect font-size="22px" fill="#a34d50" x="52.5" y="60.0" width="47.5" height="18.333333333333332">36</rect>
    <rect font-size="22px" fill="#8d5b6b" x="100.0" y="60.0" width="47.5" height="18.333333333333332">56</rect>
    <rect font-size="22px" fill="#ba3d33" x="147.5" y="60.0" width="47.5" height="18.333333333333332">14</rect>
    <rect font-size="22px" fill="#a74a4b" x="52.5" y="78.33333333333333" width="47.5" height="18.333333333333332">32</rect>
    <rect font-size="22px" fill="#697499" x="100.0" y="78.33333333333333" width="47.5" height="18.333333333333332">91</rect>
    <rect font-size="22px" fill="#67769b" x="147.5" y="78.33333333333333" width="47.5" height="18.333333333333332">93</rect>
    <rect font-size="22px" fill="#3498db" x="52.5" y="96.66666666666666" width="47.5" height="18.333333333333332">141</rect>
    <rect font-size="22px" fill="#99535c" x="100.0" y="96.66666666666666" width="47.5" height="18.333333333333332">45</rect>
    <rect font-size="22px" fill="#438ec8" x="147.5" y="96.66666666666666" width="47.5" height="18.333333333333332">127</rect>
  </g>
</svg>
