<?xml version="1.0" encoding="UTF-8" standalone="no"?>
<svg width="100" height="100" version="1.1" xmlns="http://www.w3.org/2000/svg">
    <g opacity="1.0">
        <path d="M -80.0 210.0 L  -80.0 210.0 -79.6 209.6 -79.2 209.2 -78.8 208.8 -78.4 208.4 -78.0 208.0 -77.6 207.6 -77.2 207.2 -76.8 206.8 -76.4 206.4 -76.0 206.0 -75.6 205.6 -75.2 205.2 -74.8 204.8 -74.4 204.4 -74.0 204.0 -73.6 203.6 -73.2 203.2 -72.8 202.8 -72.4 202.4 -72.0 202.0 -71.6 201.6 -71.2 201.2 -70.8 200.8 -70.4 200.4 -70.0 200.0 -69.6 199.6 -69.2 199.2 -68.8 198.8 -68.4 198.4 -68.0 198.0 -67.6 197.6 -67.2 197.2 -66.8 196.8 -66.4 196.4 -66.0 196.0 -65.6 195.6 -65.2 195.2 -64.8 194.8 -64.4 194.4 -64.0 194.0 -63.6 193.6 -63.2 193.2 -62.8 192.8 -62.4 192.4 -62.0 192.0 -61.6 191.6 -61.2 191.2 -60.8 190.8 -60.4 190.4 -60.0 190.0 -59.6 189.6 -59.2 189.2 -58.8 188.8 -58.4 188.4 -58.0 188.0 -57.6 187.6 -57.2 187.2 -56.8 186.8 -56.4 186.4 -56.0 186.0 -55.6 185.6 -55.2 185.2 -54.7 184.7 -54.3 184.3 -53.9 183.9 -53.5 183.5 -53.1 183.1 -52.7 182.7 -52.3 182.3 -51.9 181.9 -51.5 181.5 -51.1 181.1 -50.7 180.7 -50.3 180.3 -49.9 179.9 -49.5 179.5 -49.1 179.1 -48.7 178.7 -48.3 178.3 -47.9 177.9 -47.5 177.5 -47.1 177.1 -46.7 176.7 -46.3 176.3 -45.9 175.9 -45.5 175.5 -45.1 175.1 -44.7 174.7 -44.3 174.3 -43.9 173.9 -43.5 173.5 -43.1 173.1 -42.7 172.7 -42.3 172.3 -41.9 171.9 -41.5 171.5 -41.1 171.1 -40.7 170.7 -40.3 170.3 -39.9 169.9 -39.5 169.5 -39.1 169.1 -38.7 168.7 -38.3 168.3 -37.9 167.9 -37.5 167.5 -37.1 167.1 -36.7 166.7 -36.3 166.3 -35.9 165.9 -35.5 165.5 -35.1 165.1 -34.7 164.7 -34.3 164.3 -33.9 163.9 -33.5 163.5 -33.1 163.1 -32.7 162.7 -32.3 162.3 -31.9 161.9 -31.5 161.5 -31.1 161.1 -30.7 160.7 -30.3 160.3 -29.9 159.9 -29.5 159.5 -29.1 159.1 -28.7 158.7 -28.3 158.3 -27.9 157.9 -27.5 157.5 -27.1 157.1 -26.7 156.7 -26.3 156.3 -25.9 155.9 -25.5 155.5 -25.1 155.1 -24.7 154.7 -24.3 154.3 -23.9 153.9 -23.5 153.5 -23.1 153.1 -22.7 152.7 -22.3 152.3 -21.9 151.9 -21.5 151.5 -21.1 151.1 -20.7 150.7 -20.3 150.3 -19.9 149.9 -19.5 149.5 -19.1 149.1 -18.7 148.7 -18.3 148.3 -17.9 147.9 -17.5 147.5 -17.1 147.1 -16.7 146.7 -16.3 146.3 -15.9 145.9 -15.5 145.5 -15.1 145.1 -14.7 144.7 -14.3 144.3 -13.9 143.9 -13.5 143.5 -13.1 143.1 -12.7 142.7 -12.3 142.3 -11.9 141.9 -11.5 141.5 -11.1 141.1 -10.7 140.7 -10.3 140.3 -9.9 139.9 -9.5 139.5 -9.1 139.1 -8.7 138.7 -8.3 138.3 -7.9 137.9 -7.5 137.5 -7.1 137.1 -6.7 136.7 -6.3 136.3 -5.9 135.9 -5.5 135.5 -5.1 135.1 -4.6 134.6 -4.2 134.2 -3.8 133.8 -3.4 133.4 -3.0 133.0 -2.6 132.6 -2.2 132.2 -1.8 131.8 -1.4 131.4 -1.0 131.0 -0.6 130.6 -0.2 130.2 0.2 129.8 0.6 129.4 1.0 129.0 1.4 128.6 1.8 128.2 2.2 127.8 2.6 127.4 3.0 127.0 3.4 126.6 3.8 126.2 4.2 125.8 4.6 125.4 5.0 125.0 5.4 124.6 5.8 124.2 6.2 123.8 6.6 123.4 7.0 123.0 7.4 122.6 7.8 122.2 8.2 121.8 8.6 121.4 9.0 121.0 9.4 120.6 9.8 120.2 10.2 119.8 10.6 119.4 11.0 119.0 11.4 118.6 11.8 118.2 12.2 117.8 12.6 117.4 13.0 117.0 13.4 116.6 13.8 116.2 14.2 115.8 14.6 115.4 15.0 115.0 15.4 114.6 15.8 114.2 16.2 113.8 16.6 113.4 17.0 113.0 17.4 112.6 17.8 112.2 18.2 111.8 18.6 111.4 19.0 111.0 19.4 110.6 19.8 110.2 20.2 109.8 20.6 109.4 21.0 109.0 21.4 108.6 21.8 108.2 22.2 107.8 22.6 107.4 23.0 107.0 23.4 106.6 23.8 106.2 24.2 105.8 24.6 105.4 25.0 105.0 25.4 104.6 25.8 104.2 26.2 103.8 26.6 103.4 27.0 103.0 27.4 102.6 27.8 102.2 28.2 101.8 28.6 101.4 29.0 101.0 29.4 100.6 29.8 100.2 30.2 99.8 30.6 99.4 31.0 99.0 31.4 98.6 31.8 98.2 32.2 97.8 32.6 97.4 33.0 97.0 33.4 96.6 33.8 96.2 34.2 95.8 34.6 95.4 35.0 95.0 35.4 94.6 35.8 94.2 36.2 93.8 36.6 93.4 37.0 93.0 37.4 92.6 37.8 92.2 38.2 91.8 38.6 91.4 39.0 91.0 39.4 90.6 39.8 90.2 40.2 89.8 40.6 89.4 41.0 89.0 41.4 88.6 41.8 88.2 42.2 87.8 42.6 87.4 43.0 87.0 43.4 86.6 43.8 86.2 44.2 85.8 44.6 85.4 45.1 84.9 45.5 84.5 45.9 84.1 46.3 83.7 46.7 83.3 47.1 82.9 47.5 82.5 47.9 82.1 48.3 81.7 48.7 81.3 49.1 80.9 49.5 80.5 49.9 80.1 50.3 79.7 50.7 79.3 51.1 78.9 51.5 78.5 51.9 78.1 52.3 77.7 52.7 77.3 53.1 76.9 53.5 76.5 53.9 76.1 54.3 75.7 54.7 75.3 55.1 74.9 55.5 74.5 55.9 74.1 56.3 73.7 56.7 73.3 57.1 72.9 57.5 72.5 57.9 72.1 58.3 71.7 58.7 71.3 59.1 70.9 59.5 70.5 59.9 70.1 60.3 69.7 60.7 69.3 61.1 68.9 61.5 68.5 61.9 68.1 62.3 67.7 62.7 67.3 63.1 66.9 63.5 66.5 63.9 66.1 64.3 65.7 64.7 65.3 65.1 64.9 65.5 64.5 65.9 64.1 66.3 63.7 66.7 63.3 67.1 62.9 67.5 62.5 67.9 62.1 68.3 61.7 68.7 61.3 69.1 60.9 69.5 60.5 69.9 60.1 70.3 59.7 70.7 59.3 71.1 58.9 71.5 58.5 71.9 58.1 72.3 57.7 72.7 57.3 73.1 56.9 73.5 56.5 73.9 56.1 74.3 55.7 74.7 55.3 75.1 54.9 75.5 54.5 75.9 54.1 76.3 53.7 76.7 53.3 77.1 52.9 77.5 52.5 77.9 52.1 78.3 51.7 78.7 51.3 79.1 50.9 79.5 50.5 79.9 50.1 80.3 49.7 80.7 49.3 81.1 48.9 81.5 48.5 81.9 48.1 82.3 47.7 82.7 47.3 83.1 46.9 83.5 46.5 83.9 46.1 84.3 45.7 84.7 45.3 85.1 44.9 85.5 44.5 85.9 44.1 86.3 43.7 86.7 43.3 87.1 42.9 87.5 42.5 87.9 42.1 88.3 41.7 88.7 41.3 89.1 40.9 89.5 40.5 89.9 40.1 90.3 39.7 90.7 39.3 91.1 38.9 91.5 38.5 91.9 38.1 92.3 37.7 92.7 37.3 93.1 36.9 93.5 36.5 93.9 36.1 94.3 35.7 94.7 35.3 95.2 34.8 95.6 34.4 96.0 34.0 96.4 33.6 96.8 33.2 97.2 32.8 97.6 32.4 98.0 32.0 98.4 31.6 98.8 31.2 99.2 30.8 99.6 30.4 100.0 30.0 100.4 29.6 100.8 29.2 101.2 28.8 101.6 28.4 102.0 28.0 102.4 27.6 102.8 27.2 103.2 26.8 103.6 26.4 104.0 26.0 104.4 25.6 104.8 25.2 105.2 24.8 105.6 24.4 106.0 24.0 106.4 23.6 106.8 23.2 107.2 22.8 107.6 22.4 108.0 22.0 108.4 21.6 108.8 21.2 109.2 20.8 109.6 20.4 110.0 20.0 110.4 19.6 110.8 19.2 111.2 18.8 111.6 18.4 112.0 18.0 112.4 17.6 112.8 17.2 113.2 16.8 113.6 16.4 114.0 16.0 114.4 15.6 114.8 15.2 115.2 14.8 115.6 14.4 116.0 14.0 116.4 13.6 116.8 13.2 117.2 12.8 117.6 12.4 118.0 12.0 118.4 11.6 118.8 11.2 119.2 10.8 119.6 10.4 120.0 10.0" stroke="#22F9F4" stroke-width="0.2" fill="transparent" />
        <path d="M -40.0 -9940.0 L  -40.0 -9940.0 -39.6 -9860.0 -39.2 -9780.3 -38.8 -9701.0 -38.4 -9621.9 -38.0 -9543.2 -37.6 -9464.8 -37.2 -9386.7 -36.8 -9309.0 -36.4 -9231.6 -36.0 -9154.5 -35.6 -9077.7 -35.2 -9001.2 -34.8 -8925.1 -34.4 -8849.2 -34.0 -8773.7 -33.6 -8698.6 -33.2 -8623.7 -32.8 -8549.2 -32.4 -8474.9 -32.0 -8401.1 -31.6 -8327.5 -31.2 -8254.2 -30.8 -8181.3 -30.4 -8108.7 -30.0 -8036.4 -29.6 -7964.4 -29.2 -7892.8 -28.8 -7821.5 -28.4 -7750.5 -28.0 -7679.8 -27.6 -7609.4 -27.2 -7539.4 -26.8 -7469.6 -26.4 -7400.3 -26.0 -7331.2 -25.6 -7262.4 -25.2 -7194.0 -24.8 -7125.9 -24.4 -7058.1 -24.0 -6990.6 -23.6 -6923.5 -23.2 -6856.6 -22.8 -6790.1 -22.4 -6723.9 -22.0 -6658.1 -21.6 -6592.5 -21.2 -6527.3 -20.8 -6462.4 -20.4 -6397.8 -20.0 -6333.6 -19.6 -6269.7 -19.2 -6206.0 -18.8 -6142.7 -18.4 -6079.8 -18.0 -6017.1 -17.6 -5954.8 -17.2 -5892.8 -16.8 -5831.1 -16.4 -5769.7 -16.0 -5708.7 -15.6 -5648.0 -15.2 -5587.6 -14.7 -5527.5 -14.3 -5467.7 -13.9 -5408.3 -13.5 -5349.2 -13.1 -5290.4 -12.7 -5231.9 -12.3 -5173.8 -11.9 -5115.9 -11.5 -5058.4 -11.1 -5001.2 -10.7 -4944.4 -10.3 -4887.8 -9.9 -4831.6 -9.5 -4775.7 -9.1 -4720.1 -8.7 -4664.8 -8.3 -4609.9 -7.9 -4555.3 -7.5 -4501.0 -7.1 -4447.0 -6.7 -4393.4 -6.3 -4340.0 -5.9 -4287.0 -5.5 -4234.3 -5.1 -4182.0 -4.7 -4129.9 -4.3 -4078.2 -3.9 -4026.8 -3.5 -3975.7 -3.1 -3924.9 -2.7 -3874.5 -2.3 -3824.4 -1.9 -3774.6 -1.5 -3725.1 -1.1 -3675.9 -0.7 -3627.1 -0.3 -3578.6 0.1 -3530.4 0.5 -3482.5 0.9 -3435.0 1.3 -3387.7 1.7 -3340.8 2.1 -3294.2 2.5 -3248.0 2.9 -3202.0 3.3 -3156.4 3.7 -3111.1 4.1 -3066.1 4.5 -3021.5 4.9 -2977.1 5.3 -2933.1 5.7 -2889.4 6.1 -2846.1 6.5 -2803.0 6.9 -2760.3 7.3 -2717.9 7.7 -2675.8 8.1 -2634.0 8.5 -2592.6 8.9 -2551.4 9.3 -2510.6 9.7 -2470.2 10.1 -2430.0 10.5 -2390.2 10.9 -2350.6 11.3 -2311.4 11.7 -2272.6 12.1 -2234.0 12.5 -2195.8 12.9 -2157.9 13.3 -2120.3 13.7 -2083.0 14.1 -2046.1 14.5 -2009.4 14.9 -1973.1 15.3 -1937.1 15.7 -1901.5 16.1 -1866.1 16.5 -1831.1 16.9 -1796.4 17.3 -1762.0 17.7 -1728.0 18.1 -1694.2 18.5 -1660.8 18.9 -1627.7 19.3 -1595.0 19.7 -1562.5 20.1 -1530.4 20.5 -1498.6 20.9 -1467.1 21.3 -1435.9 21.7 -1405.1 22.1 -1374.6 22.5 -1344.4 22.9 -1314.5 23.3 -1284.9 23.7 -1255.7 24.1 -1226.8 24.5 -1198.2 24.9 -1169.9 25.3 -1142.0 25.7 -1114.3 26.1 -1087.0 26.5 -1060.0 26.9 -1033.4 27.3 -1007.0 27.7 -981.0 28.1 -955.3 28.5 -929.9 28.9 -904.9 29.3 -880.1 29.7 -855.7 30.1 -831.6 30.5 -807.8 30.9 -784.4 31.3 -761.2 31.7 -738.4 32.1 -715.9 32.5 -693.8 32.9 -671.9 33.3 -650.4 33.7 -629.2 34.1 -608.3 34.5 -587.7 34.9 -567.5 35.4 -547.6 35.8 -528.0 36.2 -508.7 36.6 -489.8 37.0 -471.1 37.4 -452.8 37.8 -434.8 38.2 -417.1 38.6 -399.8 39.0 -382.8 39.4 -366.1 39.8 -349.7 40.2 -333.6 40.6 -317.9 41.0 -302.4 41.4 -287.3 41.8 -272.6 42.2 -258.1 42.6 -244.0 43.0 -230.2 43.4 -216.7 43.8 -203.5 44.2 -190.6 44.6 -178.1 45.0 -165.9 45.4 -154.0 45.8 -142.4 46.2 -131.2 46.6 -120.3 47.0 -109.7 47.4 -99.4 47.8 -89.4 48.2 -79.8 48.6 -70.5 49.0 -61.5 49.4 -52.8 49.8 -44.5 50.2 -36.4 50.6 -28.7 51.0 -21.3 51.4 -14.3 51.8 -7.5 52.2 -1.1 52.6 5.0 53.0 10.8 53.4 16.3 53.8 21.4 54.2 26.2 54.6 30.7 55.0 34.9 55.4 38.8 55.8 42.3 56.2 45.5 56.6 48.4 57.0 51.0 57.4 53.2 57.8 55.1 58.2 56.7 58.6 58.0 59.0 59.0 59.4 59.6 59.8 60.0 60.2 60.0 60.6 59.6 61.0 59.0 61.4 58.0 61.8 56.7 62.2 55.1 62.6 53.2 63.0 51.0 63.4 48.4 63.8 45.5 64.2 42.3 64.6 38.8 65.0 34.9 65.4 30.7 65.8 26.2 66.2 21.4 66.6 16.3 67.0 10.8 67.4 5.0 67.8 -1.1 68.2 -7.5 68.6 -14.3 69.0 -21.3 69.4 -28.7 69.8 -36.4 70.2 -44.5 70.6 -52.8 71.0 -61.5 71.4 -70.5 71.8 -79.8 72.2 -89.4 72.6 -99.4 73.0 -109.7 73.4 -120.3 73.8 -131.2 74.2 -142.4 74.6 -154.0 75.0 -165.9 75.4 -178.1 75.8 -190.6 76.2 -203.5 76.6 -216.7 77.0 -230.2 77.4 -244.0 77.8 -258.1 78.2 -272.6 78.6 -287.3 79.0 -302.4 79.4 -317.9 79.8 -333.6 80.2 -349.7 80.6 -366.1 81.0 -382.8 81.4 -399.8 81.8 -417.1 82.2 -434.8 82.6 -452.8 83.0 -471.1 83.4 -489.8 83.8 -508.7 84.2 -528.0 84.6 -547.6 85.1 -567.5 85.5 -587.7 85.9 -608.3 86.3 -629.2 86.7 -650.4 87.1 -671.9 87.5 -693.8 87.9 -715.9 88.3 -738.4 88.7 -761.2 89.1 -784.4 89.5 -807.8 89.9 -831.6 90.3 -855.7 90.7 -880.1 91.1 -904.9 91.5 -929.9 91.9 -955.3 92.3 -981.0 92.7 -1007.0 93.1 -1033.4 93.5 -1060.0 93.9 -1087.0 94.3 -1114.3 94.7 -1142.0 95.1 -1169.9 95.5 -1198.2 95.9 -1226.8 96.3 -1255.7 96.7 -1284.9 97.1 -1314.5 97.5 -1344.4 97.9 -1374.6 98.3 -1405.1 98.7 -1435.9 99.1 -1467.1 99.5 -1498.6 99.9 -1530.4 100.3 -1562.5 100.7 -1595.0 101.1 -1627.7 101.5 -1660.8 101.9 -1694.2 102.3 -1728.0 102.7 -1762.0 103.1 -1796.4 103.5 -1831.1 103.9 -1866.1 104.3 -1901.5 104.7 -1937.1 105.1 -1973.1 105.5 -2009.4 105.9 -2046.1 106.3 -2083.0 106.7 -2120.3 107.1 -2157.9 107.5 -2195.8 107.9 -2234.0 108.3 -2272.6 108.7 -2311.4 109.1 -2350.6 109.5 -2390.2 109.9 -2430.0 110.3 -2470.2 110.7 -2510.6 111.1 -2551.4 111.5 -2592.6 111.9 -2634.0 112.3 -2675.8 112.7 -2717.9 113.1 -2760.3 113.5 -2803.0 113.9 -2846.1 114.3 -2889.4 114.7 -2933.1 115.1 -2977.1 115.5 -3021.5 115.9 -3066.1 116.3 -3111.1 116.7 -3156.4 117.1 -3202.0 117.5 -3248.0 117.9 -3294.2 118.3 -3340.8 118.7 -3387.7 119.1 -3435.0 119.5 -3482.5 119.9 -3530.4 120.3 -3578.6 120.7 -3627.1 121.1 -3675.9 121.5 -3725.1 121.9 -3774.6 122.3 -3824.4 122.7 -3874.5 123.1 -3924.9 123.5 -3975.7 123.9 -4026.8 124.3 -4078.2 124.7 -4129.9 125.1 -4182.0 125.5 -4234.3 125.9 -4287.0 126.3 -4340.0 126.7 -4393.4 127.1 -4447.0 127.5 -4501.0 127.9 -4555.3 128.3 -4609.9 128.7 -4664.8 129.1 -4720.1 129.5 -4775.7 129.9 -4831.6 130.3 -4887.8 130.7 -4944.4 131.1 -5001.2 131.5 -5058.4 131.9 -5115.9 132.3 -5173.8 132.7 -5231.9 133.1 -5290.4 133.5 -5349.2 133.9 -5408.3 134.3 -5467.7 134.7 -5527.5 135.2 -5587.6 135.6 -5648.0 136.0 -5708.7 136.4 -5769.7 136.8 -5831.1 137.2 -5892.8 137.6 -5954.8 138.0 -6017.1 138.4 -6079.8 138.8 -6142.7 139.2 -6206.0 139.6 -6269.7 140.0 -6333.6 140.4 -6397.8 140.8 -6462.4 141.2 -6527.3 141.6 -6592.5 142.0 -6658.1 142.4 -6723.9 142.8 -6790.1 143.2 -6856.6 143.6 -6923.5 144.0 -6990.6 144.4 -7058.1 144.8 -7125.9 145.2 -7194.0 145.6 -7262.4 146.0 -7331.2 146.4 -7400.3 146.8 -7469.6 147.2 -7539.4 147.6 -7609.4 148.0 -7679.8 148.4 -7750.5 148.8 -7821.5 149.2 -7892.8 149.6 -7964.4 150.0 -8036.4 150.4 -8108.7 150.8 -8181.3 151.2 -8254.2 151.6 -8327.5 152.0 -8401.1 152.4 -8474.9 152.8 -8549.2 153.2 -8623.7 153.6 -8698.6 154.0 -8773.7 154.4 -8849.2 154.8 -8925.1 155.2 -9001.2 155.6 -9077.7 156.0 -9154.5 156.4 -9231.6 156.8 -9309.0 157.2 -9386.7 157.6 -9464.8 158.0 -9543.2 158.4 -9621.9 158.8 -9701.0 159.2 -9780.3 159.6 -9860.0 160.0 -9940.0" stroke="#19CA9C" stroke-width="0.2" fill="transparent" />
        <path d="M -40.0 59.5 L  -40.0 59.5 -39.6 59.2 -39.2 59.0 -38.8 59.0 -38.4 59.2 -38.0 59.4 -37.6 59.8 -37.2 60.2 -36.8 60.6 -36.4 60.8 -36.0 61.0 -35.6 61.0 -35.2 60.8 -34.8 60.5 -34.4 60.1 -34.0 59.7 -33.6 59.4 -33.2 59.1 -32.8 59.0 -32.4 59.0 -32.0 59.2 -31.6 59.5 -31.2 59.9 -30.8 60.3 -30.4 60.7 -30.0 60.9 -29.6 61.0 -29.2 60.9 -28.8 60.7 -28.4 60.4 -28.0 60.0 -27.6 59.6 -27.2 59.3 -26.8 59.1 -26.4 59.0 -26.0 59.1 -25.6 59.3 -25.2 59.7 -24.8 60.1 -24.4 60.4 -24.0 60.8 -23.6 61.0 -23.2 61.0 -22.8 60.9 -22.4 60.6 -22.0 60.3 -21.6 59.9 -21.2 59.5 -20.8 59.2 -20.4 59.0 -20.0 59.0 -19.6 59.1 -19.2 59.4 -18.8 59.8 -18.4 60.2 -18.0 60.6 -17.6 60.8 -17.2 61.0 -16.8 61.0 -16.4 60.8 -16.0 60.5 -15.6 60.2 -15.2 59.8 -14.7 59.4 -14.3 59.1 -13.9 59.0 -13.5 59.0 -13.1 59.2 -12.7 59.5 -12.3 59.9 -11.9 60.3 -11.5 60.7 -11.1 60.9 -10.7 61.0 -10.3 60.9 -9.9 60.7 -9.5 60.4 -9.1 60.0 -8.7 59.6 -8.3 59.3 -7.9 59.1 -7.5 59.0 -7.1 59.1 -6.7 59.3 -6.3 59.6 -5.9 60.0 -5.5 60.4 -5.1 60.7 -4.7 60.9 -4.3 61.0 -3.9 60.9 -3.5 60.6 -3.1 60.3 -2.7 59.9 -2.3 59.5 -1.9 59.2 -1.5 59.0 -1.1 59.0 -0.7 59.1 -0.3 59.4 0.1 59.8 0.5 60.2 0.9 60.5 1.3 60.8 1.7 61.0 2.1 61.0 2.5 60.8 2.9 60.5 3.3 60.2 3.7 59.8 4.1 59.4 4.5 59.1 4.9 59.0 5.3 59.0 5.7 59.2 6.1 59.5 6.5 59.9 6.9 60.3 7.3 60.6 7.7 60.9 8.1 61.0 8.5 60.9 8.9 60.7 9.3 60.4 9.7 60.0 10.1 59.6 10.5 59.3 10.9 59.1 11.3 59.0 11.7 59.1 12.1 59.3 12.5 59.6 12.9 60.0 13.3 60.4 13.7 60.7 14.1 60.9 14.5 61.0 14.9 60.9 15.3 60.6 15.7 60.3 16.1 59.9 16.5 59.5 16.9 59.2 17.3 59.0 17.7 59.0 18.1 59.1 18.5 59.4 18.9 59.8 19.3 60.2 19.7 60.5 20.1 60.8 20.5 61.0 20.9 61.0 21.3 60.8 21.7 60.5 22.1 60.2 22.5 59.8 22.9 59.4 23.3 59.1 23.7 59.0 24.1 59.0 24.5 59.2 24.9 59.5 25.3 59.9 25.7 60.3 26.1 60.6 26.5 60.9 26.9 61.0 27.3 60.9 27.7 60.8 28.1 60.4 28.5 60.0 28.9 59.7 29.3 59.3 29.7 59.1 30.1 59.0 30.5 59.1 30.9 59.3 31.3 59.6 31.7 60.0 32.1 60.4 32.5 60.7 32.9 60.9 33.3 61.0 33.7 60.9 34.1 60.7 34.5 60.3 34.9 59.9 35.4 59.5 35.8 59.2 36.2 59.0 36.6 59.0 37.0 59.1 37.4 59.4 37.8 59.7 38.2 60.1 38.6 60.5 39.0 60.8 39.4 61.0 39.8 61.0 40.2 60.8 40.6 60.6 41.0 60.2 41.4 59.8 41.8 59.4 42.2 59.2 42.6 59.0 43.0 59.0 43.4 59.2 43.8 59.5 44.2 59.9 44.6 60.3 45.0 60.6 45.4 60.9 45.8 61.0 46.2 61.0 46.6 60.8 47.0 60.4 47.4 60.1 47.8 59.7 48.2 59.3 48.6 59.1 49.0 59.0 49.4 59.1 49.8 59.3 50.2 59.6 50.6 60.0 51.0 60.4 51.4 60.7 51.8 60.9 52.2 61.0 52.6 60.9 53.0 60.7 53.4 60.3 53.8 59.9 54.2 59.5 54.6 59.2 55.0 59.0 55.4 59.0 55.8 59.1 56.2 59.4 56.6 59.7 57.0 60.1 57.4 60.5 57.8 60.8 58.2 61.0 58.6 61.0 59.0 60.8 59.4 60.6 59.8 60.2 60.2 59.8 60.6 59.4 61.0 59.2 61.4 59.0 61.8 59.0 62.2 59.2 62.6 59.5 63.0 59.9 63.4 60.3 63.8 60.6 64.2 60.9 64.6 61.0 65.0 61.0 65.4 60.8 65.8 60.5 66.2 60.1 66.6 59.7 67.0 59.3 67.4 59.1 67.8 59.0 68.2 59.1 68.6 59.3 69.0 59.6 69.4 60.0 69.8 60.4 70.2 60.7 70.6 60.9 71.0 61.0 71.4 60.9 71.8 60.7 72.2 60.3 72.6 59.9 73.0 59.6 73.4 59.2 73.8 59.0 74.2 59.0 74.6 59.1 75.0 59.4 75.4 59.7 75.8 60.1 76.2 60.5 76.6 60.8 77.0 61.0 77.4 61.0 77.8 60.8 78.2 60.6 78.6 60.2 79.0 59.8 79.4 59.4 79.8 59.2 80.2 59.0 80.6 59.0 81.0 59.2 81.4 59.5 81.8 59.9 82.2 60.3 82.6 60.6 83.0 60.9 83.4 61.0 83.8 61.0 84.2 60.8 84.6 60.5 85.1 60.1 85.5 59.7 85.9 59.3 86.3 59.1 86.7 59.0 87.1 59.1 87.5 59.3 87.9 59.6 88.3 60.0 88.7 60.4 89.1 60.7 89.5 60.9 89.9 61.0 90.3 60.9 90.7 60.7 91.1 60.3 91.5 60.0 91.9 59.6 92.3 59.2 92.7 59.1 93.1 59.0 93.5 59.1 93.9 59.4 94.3 59.7 94.7 60.1 95.1 60.5 95.5 60.8 95.9 61.0 96.3 61.0 96.7 60.9 97.1 60.6 97.5 60.2 97.9 59.8 98.3 59.5 98.7 59.2 99.1 59.0 99.5 59.0 99.9 59.2 100.3 59.5 100.7 59.8 101.1 60.2 101.5 60.6 101.9 60.9 102.3 61.0 102.7 61.0 103.1 60.8 103.5 60.5 103.9 60.1 104.3 59.7 104.7 59.4 105.1 59.1 105.5 59.0 105.9 59.1 106.3 59.3 106.7 59.6 107.1 60.0 107.5 60.4 107.9 60.7 108.3 60.9 108.7 61.0 109.1 60.9 109.5 60.7 109.9 60.4 110.3 60.0 110.7 59.6 111.1 59.3 111.5 59.1 111.9 59.0 112.3 59.1 112.7 59.4 113.1 59.7 113.5 60.1 113.9 60.5 114.3 60.8 114.7 61.0 115.1 61.0 115.5 60.9 115.9 60.6 116.3 60.2 116.7 59.8 117.1 59.5 117.5 59.2 117.9 59.0 118.3 59.0 118.7 59.2 119.1 59.5 119.5 59.8 119.9 60.2 120.3 60.6 120.7 60.9 121.1 61.0 121.5 61.0 121.9 60.8 122.3 60.5 122.7 60.1 123.1 59.7 123.5 59.4 123.9 59.1 124.3 59.0 124.7 59.1 125.1 59.3 125.5 59.6 125.9 60.0 126.3 60.4 126.7 60.7 127.1 60.9 127.5 61.0 127.9 60.9 128.3 60.7 128.7 60.4 129.1 60.0 129.5 59.6 129.9 59.3 130.3 59.1 130.7 59.0 131.1 59.1 131.5 59.3 131.9 59.7 132.3 60.1 132.7 60.5 133.1 60.8 133.5 61.0 133.9 61.0 134.3 60.9 134.7 60.6 135.2 60.2 135.6 59.8 136.0 59.5 136.4 59.2 136.8 59.0 137.2 59.0 137.6 59.2 138.0 59.4 138.4 59.8 138.8 60.2 139.2 60.6 139.6 60.9 140.0 61.0 140.4 61.0 140.8 60.8 141.2 60.5 141.6 60.1 142.0 59.7 142.4 59.4 142.8 59.1 143.2 59.0 143.6 59.0 144.0 59.2 144.4 59.6 144.8 59.9 145.2 60.3 145.6 60.7 146.0 60.9 146.4 61.0 146.8 60.9 147.2 60.7 147.6 60.4 148.0 60.0 148.4 59.6 148.8 59.3 149.2 59.1 149.6 59.0 150.0 59.1 150.4 59.3 150.8 59.7 151.2 60.1 151.6 60.5 152.0 60.8 152.4 61.0 152.8 61.0 153.2 60.9 153.6 60.6 154.0 60.3 154.4 59.9 154.8 59.5 155.2 59.2 155.6 59.0 156.0 59.0 156.4 59.2 156.8 59.4 157.2 59.8 157.6 60.2 158.0 60.6 158.4 60.8 158.8 61.0 159.2 61.0 159.6 60.8 160.0 60.5" stroke="#9BA468" stroke-width="0.2" fill="transparent" />
        <path d="M -40.0 59.1 L  -40.0 59.1 -39.6 59.4 -39.2 59.8 -38.8 60.2 -38.4 60.5 -38.0 60.8 -37.6 61.0 -37.2 61.0 -36.8 60.8 -36.4 60.5 -36.0 60.2 -35.6 59.8 -35.2 59.4 -34.8 59.1 -34.4 59.0 -34.0 59.0 -33.6 59.2 -33.2 59.5 -32.8 59.9 -32.4 60.3 -32.0 60.6 -31.6 60.9 -31.2 61.0 -30.8 60.9 -30.4 60.7 -30.0 60.4 -29.6 60.0 -29.2 59.7 -28.8 59.3 -28.4 59.1 -28.0 59.0 -27.6 59.1 -27.2 59.3 -26.8 59.6 -26.4 60.0 -26.0 60.4 -25.6 60.7 -25.2 60.9 -24.8 61.0 -24.4 60.9 -24.0 60.7 -23.6 60.3 -23.2 59.9 -22.8 59.5 -22.4 59.2 -22.0 59.0 -21.6 59.0 -21.2 59.1 -20.8 59.4 -20.4 59.8 -20.0 60.2 -19.6 60.5 -19.2 60.8 -18.8 61.0 -18.4 61.0 -18.0 60.8 -17.6 60.6 -17.2 60.2 -16.8 59.8 -16.4 59.4 -16.0 59.1 -15.6 59.0 -15.2 59.0 -14.7 59.2 -14.3 59.5 -13.9 59.9 -13.5 60.3 -13.1 60.6 -12.7 60.9 -12.3 61.0 -11.9 61.0 -11.5 60.8 -11.1 60.4 -10.7 60.1 -10.3 59.7 -9.9 59.3 -9.5 59.1 -9.1 59.0 -8.7 59.1 -8.3 59.3 -7.9 59.6 -7.5 60.0 -7.1 60.4 -6.7 60.7 -6.3 60.9 -5.9 61.0 -5.5 60.9 -5.1 60.7 -4.7 60.3 -4.3 59.9 -3.9 59.5 -3.5 59.2 -3.1 59.0 -2.7 59.0 -2.3 59.1 -1.9 59.4 -1.5 59.7 -1.1 60.1 -0.7 60.5 -0.3 60.8 0.1 61.0 0.5 61.0 0.9 60.8 1.3 60.6 1.7 60.2 2.1 59.8 2.5 59.4 2.9 59.2 3.3 59.0 3.7 59.0 4.1 59.2 4.5 59.5 4.9 59.9 5.3 60.3 5.7 60.6 6.1 60.9 6.5 61.0 6.9 61.0 7.3 60.8 7.7 60.5 8.1 60.1 8.5 59.7 8.9 59.3 9.3 59.1 9.7 59.0 10.1 59.1 10.5 59.3 10.9 59.6 11.3 60.0 11.7 60.4 12.1 60.7 12.5 60.9 12.9 61.0 13.3 60.9 13.7 60.7 14.1 60.3 14.5 59.9 14.9 59.6 15.3 59.2 15.7 59.0 16.1 59.0 16.5 59.1 16.9 59.4 17.3 59.7 17.7 60.1 18.1 60.5 18.5 60.8 18.9 61.0 19.3 61.0 19.7 60.8 20.1 60.6 20.5 60.2 20.9 59.8 21.3 59.4 21.7 59.2 22.1 59.0 22.5 59.0 22.9 59.2 23.3 59.5 23.7 59.9 24.1 60.3 24.5 60.6 24.9 60.9 25.3 61.0 25.7 61.0 26.1 60.8 26.5 60.5 26.9 60.1 27.3 59.7 27.7 59.3 28.1 59.1 28.5 59.0 28.9 59.1 29.3 59.3 29.7 59.6 30.1 60.0 30.5 60.4 30.9 60.7 31.3 60.9 31.7 61.0 32.1 60.9 32.5 60.7 32.9 60.3 33.3 59.9 33.7 59.6 34.1 59.2 34.5 59.1 34.9 59.0 35.4 59.1 35.8 59.4 36.2 59.7 36.6 60.1 37.0 60.5 37.4 60.8 37.8 61.0 38.2 61.0 38.6 60.9 39.0 60.6 39.4 60.2 39.8 59.8 40.2 59.5 40.6 59.2 41.0 59.0 41.4 59.0 41.8 59.2 42.2 59.5 42.6 59.8 43.0 60.2 43.4 60.6 43.8 60.9 44.2 61.0 44.6 61.0 45.0 60.8 45.4 60.5 45.8 60.1 46.2 59.7 46.6 59.3 47.0 59.1 47.4 59.0 47.8 59.1 48.2 59.3 48.6 59.6 49.0 60.0 49.4 60.4 49.8 60.7 50.2 60.9 50.6 61.0 51.0 60.9 51.4 60.7 51.8 60.4 52.2 60.0 52.6 59.6 53.0 59.3 53.4 59.1 53.8 59.0 54.2 59.1 54.6 59.4 55.0 59.7 55.4 60.1 55.8 60.5 56.2 60.8 56.6 61.0 57.0 61.0 57.4 60.9 57.8 60.6 58.2 60.2 58.6 59.8 59.0 59.5 59.4 59.2 59.8 59.0 60.2 59.0 60.6 59.2 61.0 59.5 61.4 59.8 61.8 60.2 62.2 60.6 62.6 60.9 63.0 61.0 63.4 61.0 63.8 60.8 64.2 60.5 64.6 60.1 65.0 59.7 65.4 59.4 65.8 59.1 66.2 59.0 66.6 59.1 67.0 59.3 67.4 59.6 67.8 60.0 68.2 60.4 68.6 60.7 69.0 60.9 69.4 61.0 69.8 60.9 70.2 60.7 70.6 60.4 71.0 60.0 71.4 59.6 71.8 59.3 72.2 59.1 72.6 59.0 73.0 59.1 73.4 59.3 73.8 59.7 74.2 60.1 74.6 60.5 75.0 60.8 75.4 61.0 75.8 61.0 76.2 60.9 76.6 60.6 77.0 60.2 77.4 59.8 77.8 59.5 78.2 59.2 78.6 59.0 79.0 59.0 79.4 59.2 79.8 59.5 80.2 59.8 80.6 60.2 81.0 60.6 81.4 60.9 81.8 61.0 82.2 61.0 82.6 60.8 83.0 60.5 83.4 60.1 83.8 59.7 84.2 59.4 84.6 59.1 85.1 59.0 85.5 59.1 85.9 59.2 86.3 59.6 86.7 59.9 87.1 60.3 87.5 60.7 87.9 60.9 88.3 61.0 88.7 60.9 89.1 60.7 89.5 60.4 89.9 60.0 90.3 59.6 90.7 59.3 91.1 59.1 91.5 59.0 91.9 59.1 92.3 59.3 92.7 59.7 93.1 60.1 93.5 60.5 93.9 60.8 94.3 61.0 94.7 61.0 95.1 60.9 95.5 60.6 95.9 60.3 96.3 59.9 96.7 59.5 97.1 59.2 97.5 59.0 97.9 59.0 98.3 59.2 98.7 59.4 99.1 59.8 99.5 60.2 99.9 60.6 100.3 60.8 100.7 61.0 101.1 61.0 101.5 60.8 101.9 60.5 102.3 60.1 102.7 59.7 103.1 59.4 103.5 59.1 103.9 59.0 104.3 59.0 104.7 59.2 105.1 59.6 105.5 59.9 105.9 60.3 106.3 60.7 106.7 60.9 107.1 61.0 107.5 60.9 107.9 60.7 108.3 60.4 108.7 60.0 109.1 59.6 109.5 59.3 109.9 59.1 110.3 59.0 110.7 59.1 111.1 59.3 111.5 59.7 111.9 60.1 112.3 60.5 112.7 60.8 113.1 61.0 113.5 61.0 113.9 60.9 114.3 60.6 114.7 60.3 115.1 59.9 115.5 59.5 115.9 59.2 116.3 59.0 116.7 59.0 117.1 59.2 117.5 59.4 117.9 59.8 118.3 60.2 118.7 60.6 119.1 60.8 119.5 61.0 119.9 61.0 120.3 60.8 120.7 60.5 121.1 60.1 121.5 59.7 121.9 59.4 122.3 59.1 122.7 59.0 123.1 59.0 123.5 59.2 123.9 59.5 124.3 59.9 124.7 60.3 125.1 60.7 125.5 60.9 125.9 61.0 126.3 60.9 126.7 60.7 127.1 60.4 127.5 60.0 127.9 59.6 128.3 59.3 128.7 59.1 129.1 59.0 129.5 59.1 129.9 59.3 130.3 59.7 130.7 60.1 131.1 60.4 131.5 60.8 131.9 61.0 132.3 61.0 132.7 60.9 133.1 60.6 133.5 60.3 133.9 59.9 134.3 59.5 134.7 59.2 135.2 59.0 135.6 59.0 136.0 59.1 136.4 59.4 136.8 59.8 137.2 60.2 137.6 60.6 138.0 60.8 138.4 61.0 138.8 61.0 139.2 60.8 139.6 60.5 140.0 60.2 140.4 59.8 140.8 59.4 141.2 59.1 141.6 59.0 142.0 59.0 142.4 59.2 142.8 59.5 143.2 59.9 143.6 60.3 144.0 60.7 144.4 60.9 144.8 61.0 145.2 60.9 145.6 60.7 146.0 60.4 146.4 60.0 146.8 59.6 147.2 59.3 147.6 59.1 148.0 59.0 148.4 59.1 148.8 59.3 149.2 59.7 149.6 60.0 150.0 60.4 150.4 60.7 150.8 60.9 151.2 61.0 151.6 60.9 152.0 60.6 152.4 60.3 152.8 59.9 153.2 59.5 153.6 59.2 154.0 59.0 154.4 59.0 154.8 59.1 155.2 59.4 155.6 59.8 156.0 60.2 156.4 60.5 156.8 60.8 157.2 61.0 157.6 61.0 158.0 60.8 158.4 60.5 158.8 60.2 159.2 59.8 159.6 59.4 160.0 59.1" stroke="#85D90D" stroke-width="0.2" fill="transparent" />
        <path d="M -40.0 60.0 L  -40.0 60.0 -39.6 60.0 -39.2 60.0 -38.8 60.0 -38.4 60.0 -38.0 60.0 -37.6 60.0 -37.2 60.0 -36.8 60.0 -36.4 60.0 -36.0 60.0 -35.6 60.0 -35.2 60.0 -34.8 60.0 -34.4 60.0 -34.0 60.0 -33.6 60.0 -33.2 60.0 -32.8 60.0 -32.4 60.0 -32.0 60.0 -31.6 60.0 -31.2 60.0 -30.8 60.0 -30.4 60.0 -30.0 60.0 -29.6 60.0 -29.2 60.0 -28.8 60.0 -28.4 60.0 -28.0 60.0 -27.6 60.0 -27.2 60.0 -26.8 60.0 -26.4 60.0 -26.0 60.0 -25.6 60.0 -25.2 60.0 -24.8 60.0 -24.4 60.0 -24.0 60.0 -23.6 60.0 -23.2 60.0 -22.8 60.0 -22.4 60.0 -22.0 60.0 -21.6 60.0 -21.2 60.0 -20.8 60.0 -20.4 60.0 -20.0 60.0 -19.6 60.0 -19.2 60.0 -18.8 60.0 -18.4 60.0 -18.0 60.0 -17.6 60.0 -17.2 60.0 -16.8 60.0 -16.4 60.0 -16.0 60.0 -15.6 60.0 -15.2 60.0 -14.7 60.0 -14.3 60.0 -13.9 60.0 -13.5 60.0 -13.1 60.0 -12.7 60.0 -12.3 60.0 -11.9 60.0 -11.5 60.0 -11.1 60.0 -10.7 60.0 -10.3 60.0 -9.9 60.0 -9.5 60.0 -9.1 60.0 -8.7 60.0 -8.3 60.0 -7.9 60.0 -7.5 60.0 -7.1 60.0 -6.7 60.0 -6.3 60.0 -5.9 60.0 -5.5 60.0 -5.1 60.0 -4.7 60.0 -4.3 60.0 -3.9 60.0 -3.5 60.0 -3.1 60.0 -2.7 60.0 -2.3 60.0 -1.9 60.0 -1.5 60.0 -1.1 60.0 -0.7 60.0 -0.3 60.0 0.1 60.0 0.5 60.0 0.9 60.0 1.3 60.0 1.7 60.0 2.1 60.0 2.5 60.0 2.9 60.0 3.3 60.0 3.7 60.0 4.1 60.0 4.5 60.0 4.9 60.0 5.3 60.0 5.7 60.0 6.1 60.0 6.5 60.0 6.9 60.0 7.3 60.0 7.7 60.0 8.1 60.0 8.5 60.0 8.9 60.0 9.3 60.0 9.7 60.0 10.1 60.0 10.5 60.0 10.9 60.0 11.3 60.0 11.7 60.0 12.1 60.0 12.5 60.0 12.9 60.0 13.3 60.0 13.7 60.0 14.1 60.0 14.5 60.0 14.9 60.0 15.3 60.0 15.7 60.0 16.1 60.0 16.5 60.0 16.9 60.0 17.3 60.0 17.7 60.0 18.1 60.0 18.5 60.0 18.9 60.0 19.3 60.0 19.7 60.0 20.1 60.0 20.5 60.0 20.9 60.0 21.3 60.0 21.7 60.0 22.1 60.0 22.5 60.0 22.9 60.0 23.3 60.0 23.7 60.0 24.1 60.0 24.5 60.0 24.9 60.0 25.3 60.0 25.7 60.0 26.1 60.0 26.5 60.0 26.9 60.0 27.3 60.0 27.7 60.0 28.1 60.0 28.5 60.0 28.9 60.0 29.3 60.0 29.7 60.0 30.1 60.0 30.5 60.0 30.9 60.0 31.3 60.0 31.7 60.0 32.1 60.0 32.5 60.0 32.9 60.0 33.3 60.0 33.7 60.0 34.1 60.0 34.5 60.0 34.9 60.0 35.4 60.0 35.8 60.0 36.2 60.0 36.6 60.0 37.0 60.0 37.4 60.0 37.8 60.0 38.2 60.0 38.6 60.0 39.0 60.0 39.4 60.0 39.8 60.0 40.2 60.0 40.6 60.0 41.0 60.0 41.4 60.0 41.8 60.0 42.2 60.0 42.6 60.0 43.0 60.0 43.4 60.0 43.8 60.0 44.2 60.0 44.6 60.0 45.0 60.0 45.4 60.0 45.8 60.0 46.2 60.0 46.6 60.0 47.0 60.0 47.4 60.0 47.8 60.0 48.2 60.0 48.6 60.0 49.0 60.0 49.4 60.0 49.8 60.0 50.2 60.0 50.6 60.0 51.0 60.0 51.4 60.0 51.8 60.0 52.2 60.0 52.6 60.0 53.0 60.0 53.4 60.0 53.8 60.0 54.2 60.0 54.6 60.0 55.0 60.0 55.4 60.0 55.8 60.0 56.2 60.0 56.6 60.0 57.0 60.0 57.4 60.0 57.8 60.0 58.2 59.9 58.6 59.9 59.0 59.8 59.4 59.7 59.8 59.6 60.2 59.6 60.6 59.7 61.0 59.8 61.4 59.9 61.8 59.9 62.2 60.0 62.6 60.0 63.0 60.0 63.4 60.0 63.8 60.0 64.2 60.0 64.6 60.0 65.0 60.0 65.4 60.0 65.8 60.0 66.2 60.0 66.6 60.0 67.0 60.0 67.4 60.0 67.8 60.0 68.2 60.0 68.6 60.0 69.0 60.0 69.4 60.0 69.8 60.0 70.2 60.0 70.6 60.0 71.0 60.0 71.4 60.0 71.8 60.0 72.2 60.0 72.6 60.0 73.0 60.0 73.4 60.0 73.8 60.0 74.2 60.0 74.6 60.0 75.0 60.0 75.4 60.0 75.8 60.0 76.2 60.0 76.6 60.0 77.0 60.0 77.4 60.0 77.8 60.0 78.2 60.0 78.6 60.0 79.0 60.0 79.4 60.0 79.8 60.0 80.2 60.0 80.6 60.0 81.0 60.0 81.4 60.0 81.8 60.0 82.2 60.0 82.6 60.0 83.0 60.0 83.4 60.0 83.8 60.0 84.2 60.0 84.6 60.0 85.1 60.0 85.5 60.0 85.9 60.0 86.3 60.0 86.7 60.0 87.1 60.0 87.5 60.0 87.9 60.0 88.3 60.0 88.7 60.0 89.1 60.0 89.5 60.0 89.9 60.0 90.3 60.0 90.7 60.0 91.1 60.0 91.5 60.0 91.9 60.0 92.3 60.0 92.7 60.0 93.1 60.0 93.5 60.0 93.9 60.0 94.3 60.0 94.7 60.0 95.1 60.0 95.5 60.0 95.9 60.0 96.3 60.0 96.7 60.0 97.1 60.0 97.5 60.0 97.9 60.0 98.3 60.0 98.7 60.0 99.1 60.0 99.5 60.0 99.9 60.0 100.3 60.0 100.7 60.0 101.1 60.0 101.5 60.0 101.9 60.0 102.3 60.0 102.7 60.0 103.1 60.0 103.5 60.0 103.9 60.0 104.3 60.0 104.7 60.0 105.1 60.0 105.5 60.0 105.9 60.0 106.3 60.0 106.7 60.0 107.1 60.0 107.5 60.0 107.9 60.0 108.3 60.0 108.7 60.0 109.1 60.0 109.5 60.0 109.9 60.0 110.3 60.0 110.7 60.0 111.1 60.0 111.5 60.0 111.9 60.0 112.3 60.0 112.7 60.0 113.1 60.0 113.5 60.0 113.9 60.0 114.3 60.0 114.7 60.0 115.1 60.0 115.5 60.0 115.9 60.0 116.3 60.0 116.7 60.0 117.1 60.0 117.5 60.0 117.9 60.0 118.3 60.0 118.7 60.0 119.1 60.0 119.5 60.0 119.9 60.0 120.3 60.0 120.7 60.0 121.1 60.0 121.5 60.0 121.9 60.0 122.3 60.0 122.7 60.0 123.1 60.0 123.5 60.0 123.9 60.0 124.3 60.0 124.7 60.0 125.1 60.0 125.5 60.0 125.9 60.0 126.3 60.0 126.7 60.0 127.1 60.0 127.5 60.0 127.9 60.0 128.3 60.0 128.7 60.0 129.1 60.0 129.5 60.0 129.9 60.0 130.3 60.0 130.7 60.0 131.1 60.0 131.5 60.0 131.9 60.0 132.3 60.0 132.7 60.0 133.1 60.0 133.5 60.0 133.9 60.0 134.3 60.0 134.7 60.0 135.2 60.0 135.6 60.0 136.0 60.0 136.4 60.0 136.8 60.0 137.2 60.0 137.6 60.0 138.0 60.0 138.4 60.0 138.8 60.0 139.2 60.0 139.6 60.0 140.0 60.0 140.4 60.0 140.8 60.0 141.2 60.0 141.6 60.0 142.0 60.0 142.4 60.0 142.8 60.0 143.2 60.0 143.6 60.0 144.0 60.0 144.4 60.0 144.8 60.0 145.2 60.0 145.6 60.0 146.0 60.0 146.4 60.0 146.8 60.0 147.2 60.0 147.6 60.0 148.0 60.0 148.4 60.0 148.8 60.0 149.2 60.0 149.6 60.0 150.0 60.0 150.4 60.0 150.8 60.0 151.2 60.0 151.6 60.0 152.0 60.0 152.4 60.0 152.8 60.0 153.2 60.0 153.6 60.0 154.0 60.0 154.4 60.0 154.8 60.0 155.2 60.0 155.6 60.0 156.0 60.0 156.4 60.0 156.8 60.0 157.2 60.0 157.6 60.0 158.0 60.0 158.4 60.0 158.8 60.0 159.2 60.0 159.6 60.0 160.0 60.0" stroke="#4C97DF" stroke-width="0.2" fill="transparent" />
        <path d="M -40.0 60.0 L  -40.0 60.0 -39.6 60.0 -39.2 60.0 -38.8 60.0 -38.4 60.0 -38.0 60.0 -37.6 60.0 -37.2 60.0 -36.8 60.0 -36.4 60.0 -36.0 60.0 -35.6 60.0 -35.2 60.0 -34.8 60.0 -34.4 60.0 -34.0 60.0 -33.6 60.0 -33.2 60.0 -32.8 60.0 -32.4 60.0 -32.0 60.0 -31.6 60.0 -31.2 60.0 -30.8 60.0 -30.4 60.0 -30.0 60.0 -29.6 60.0 -29.2 60.0 -28.8 60.0 -28.4 60.0 -28.0 60.0 -27.6 60.0 -27.2 60.0 -26.8 60.0 -26.4 60.0 -26.0 60.0 -25.6 60.0 -25.2 60.0 -24.8 60.0 -24.4 60.0 -24.0 60.0 -23.6 60.0 -23.2 60.0 -22.8 60.0 -22.4 60.0 -22.0 60.0 -21.6 60.0 -21.2 60.0 -20.8 60.0 -20.4 60.0 -20.0 60.0 -19.6 60.0 -19.2 60.0 -18.8 60.0 -18.4 60.0 -18.0 60.0 -17.6 60.0 -17.2 60.0 -16.8 60.0 -16.4 60.0 -16.0 60.0 -15.6 60.0 -15.2 60.0 -14.7 60.0 -14.3 60.0 -13.9 60.0 -13.5 60.0 -13.1 60.0 -12.7 60.0 -12.3 60.0 -11.9 60.0 -11.5 60.0 -11.1 60.0 -10.7 60.0 -10.3 60.0 -9.9 60.0 -9.5 60.0 -9.1 60.0 -8.7 60.0 -8.3 60.0 -7.9 60.0 -7.5 60.0 -7.1 60.0 -6.7 60.0 -6.3 60.0 -5.9 60.0 -5.5 60.0 -5.1 60.0 -4.7 60.0 -4.3 60.0 -3.9 60.0 -3.5 60.0 -3.1 60.0 -2.7 60.0 -2.3 60.0 -1.9 60.0 -1.5 60.0 -1.1 60.0 -0.7 60.0 -0.3 60.0 0.1 60.0 0.5 60.0 0.9 60.0 1.3 60.0 1.7 60.0 2.1 60.0 2.5 60.0 2.9 60.0 3.3 60.0 3.7 60.0 4.1 60.0 4.5 60.0 4.9 60.0 5.3 60.0 5.7 60.0 6.1 60.0 6.5 60.0 6.9 60.0 7.3 60.0 7.7 60.0 8.1 60.0 8.5 60.0 8.9 60.0 9.3 60.0 9.7 60.0 10.1 60.0 10.5 60.0 10.9 60.0 11.3 60.0 11.7 60.0 12.1 60.0 12.5 60.0 12.9 60.0 13.3 60.0 13.7 60.0 14.1 60.0 14.5 60.0 14.9 60.0 15.3 60.0 15.7 60.0 16.1 60.0 16.5 60.0 16.9 60.0 17.3 60.0 17.7 60.0 18.1 60.0 18.5 60.0 18.9 60.0 19.3 60.0 19.7 60.0 20.1 60.0 20.5 60.0 20.9 60.0 21.3 60.0 21.7 60.0 22.1 60.0 22.5 60.0 22.9 60.0 23.3 60.0 23.7 60.0 24.1 60.0 24.5 60.0 24.9 60.0 25.3 60.0 25.7 60.0 26.1 60.0 26.5 60.0 26.9 60.0 27.3 60.0 27.7 60.0 28.1 60.0 28.5 60.0 28.9 60.0 29.3 60.0 29.7 60.0 30.1 60.0 30.5 60.0 30.9 60.0 31.3 60.0 31.7 60.0 32.1 60.0 32.5 60.0 32.9 60.0 33.3 60.0 33.7 60.0 34.1 60.0 34.5 60.0 34.9 60.0 35.4 60.0 35.8 60.0 36.2 60.0 36.6 60.0 37.0 60.0 37.4 60.0 37.8 60.0 38.2 60.0 38.6 60.0 39.0 60.0 39.4 60.0 39.8 60.0 40.2 60.0 40.6 60.0 41.0 60.0 41.4 60.0 41.8 60.0 42.2 60.0 42.6 60.0 43.0 60.0 43.4 60.0 43.8 60.0 44.2 60.0 44.6 60.0 45.0 60.0 45.4 60.0 45.8 60.0 46.2 60.0 46.6 60.0 47.0 60.0 47.4 60.0 47.8 60.0 48.2 60.0 48.6 60.0 49.0 60.0 49.4 60.0 49.8 60.0 50.2 60.0 50.6 60.0 51.0 60.0 51.4 60.0 51.8 60.0 52.2 60.0 52.6 60.0 53.0 60.0 53.4 60.0 53.8 60.0 54.2 60.0 54.6 60.0 55.0 60.0 55.4 60.0 55.8 60.0 56.2 60.0 56.6 60.0 57.0 60.0 57.4 60.0 57.8 60.0 58.2 60.0 58.6 60.0 59.0 60.0 59.4 60.0 59.8 60.0 60.2 60.0 60.6 60.0 61.0 60.0 61.4 60.0 61.8 60.0 62.2 60.0 62.6 60.0 63.0 60.0 63.4 60.0 63.8 60.0 64.2 60.0 64.6 60.0 65.0 60.0 65.4 60.0 65.8 60.0 66.2 60.0 66.6 60.0 67.0 60.0 67.4 60.0 67.8 60.0 68.2 60.0 68.6 60.0 69.0 60.0 69.4 60.0 69.8 60.0 70.2 60.0 70.6 60.0 71.0 60.0 71.4 60.0 71.8 60.0 72.2 60.0 72.6 60.0 73.0 60.0 73.4 60.0 73.8 60.0 74.2 60.0 74.6 60.0 75.0 60.0 75.4 60.0 75.8 60.0 76.2 60.0 76.6 60.0 77.0 60.0 77.4 60.0 77.8 60.0 78.2 60.0 78.6 60.0 79.0 60.0 79.4 60.0 79.8 60.0 80.2 60.0 80.6 60.0 81.0 60.0 81.4 60.0 81.8 60.0 82.2 60.0 82.6 60.0 83.0 60.0 83.4 60.0 83.8 60.0 84.2 60.0 84.6 60.0 85.1 60.0 85.5 60.0 85.9 60.0 86.3 60.0 86.7 60.0 87.1 60.0 87.5 60.0 87.9 60.0 88.3 60.0 88.7 60.0 89.1 60.0 89.5 60.0 89.9 60.0 90.3 60.0 90.7 60.0 91.1 60.0 91.5 60.0 91.9 60.0 92.3 60.0 92.7 60.0 93.1 60.0 93.5 60.0 93.9 60.0 94.3 60.0 94.7 60.0 95.1 60.0 95.5 60.0 95.9 60.0 96.3 60.0 96.7 60.0 97.1 60.0 97.5 60.0 97.9 60.0 98.3 60.0 98.7 60.0 99.1 60.0 99.5 60.0 99.9 60.0 100.3 60.0 100.7 60.0 101.1 60.0 101.5 60.0 101.9 60.0 102.3 60.0 102.7 60.0 103.1 60.0 103.5 60.0 103.9 60.0 104.3 60.0 104.7 60.0 105.1 60.0 105.5 60.0 105.9 60.0 106.3 60.0 106.7 60.0 107.1 60.0 107.5 60.0 107.9 60.0 108.3 60.0 108.7 60.0 109.1 60.0 109.5 60.0 109.9 60.0 110.3 60.0 110.7 60.0 111.1 60.0 111.5 60.0 111.9 60.0 112.3 60.0 112.7 60.0 113.1 60.0 113.5 60.0 113.9 60.0 114.3 60.0 114.7 60.0 115.1 60.0 115.5 60.0 115.9 60.0 116.3 60.0 116.7 60.0 117.1 60.0 117.5 60.0 117.9 60.0 118.3 60.0 118.7 60.0 119.1 60.0 119.5 60.0 119.9 60.0 120.3 60.0 120.7 60.0 121.1 60.0 121.5 60.0 121.9 60.0 122.3 60.0 122.7 60.0 123.1 60.0 123.5 60.0 123.9 60.0 124.3 60.0 124.7 60.0 125.1 60.0 125.5 60.0 125.9 60.0 126.3 60.0 126.7 60.0 127.1 60.0 127.5 60.0 127.9 60.0 128.3 60.0 128.7 60.0 129.1 60.0 129.5 60.0 129.9 60.0 130.3 60.0 130.7 60.0 131.1 60.0 131.5 60.0 131.9 60.0 132.3 60.0 132.7 60.0 133.1 60.0 133.5 60.0 133.9 60.0 134.3 60.0 134.7 60.0 135.2 60.0 135.6 60.0 136.0 60.0 136.4 60.0 136.8 60.0 137.2 60.0 137.6 60.0 138.0 60.0 138.4 60.0 138.8 60.0 139.2 60.0 139.6 60.0 140.0 60.0 140.4 60.0 140.8 60.0 141.2 60.0 141.6 60.0 142.0 60.0 142.4 60.0 142.8 60.0 143.2 60.0 143.6 60.0 144.0 60.0 144.4 60.0 144.8 60.0 145.2 60.0 145.6 60.0 146.0 60.0 146.4 60.0 146.8 60.0 147.2 60.0 147.6 60.0 148.0 60.0 148.4 60.0 148.8 60.0 149.2 60.0 149.6 60.0 150.0 60.0 150.4 60.0 150.8 60.0 151.2 60.0 151.6 60.0 152.0 60.0 152.4 60.0 152.8 60.0 153.2 60.0 153.6 60.0 154.0 60.0 154.4 60.0 154.8 60.0 155.2 60.0 155.6 60.0 156.0 60.0 156.4 60.0 156.8 60.0 157.2 60.0 157.6 60.0 158.0 60.0 158.4 59.9 158.8 59.9 159.2 59.9 159.6 59.8 160.0 59.7" stroke="#F923CC" stroke-width="0.2" fill="transparent" />
        <path d="M -40.0 60.0 L  -40.0 60.0 -39.6 60.0 -39.2 60.0 -38.8 60.0 -38.4 60.0 -38.0 60.0 -37.6 60.0 -37.2 60.0 -36.8 60.0 -36.4 60.0 -36.0 60.0 -35.6 60.0 -35.2 60.0 -34.8 60.0 -34.4 60.0 -34.0 60.0 -33.6 60.0 -33.2 60.0 -32.8 60.0 -32.4 60.0 -32.0 60.0 -31.6 60.0 -31.2 60.0 -30.8 60.0 -30.4 60.0 -30.0 60.0 -29.6 60.0 -29.2 60.0 -28.8 60.0 -28.4 60.0 -28.0 60.0 -27.6 60.0 -27.2 60.0 -26.8 60.0 -26.4 60.0 -26.0 60.0 -25.6 60.0 -25.2 60.0 -24.8 60.0 -24.4 60.0 -24.0 60.0 -23.6 60.0 -23.2 60.0 -22.8 60.0 -22.4 60.0 -22.0 60.0 -21.6 60.0 -21.2 60.0 -20.8 60.0 -20.4 60.0 -20.0 60.0 -19.6 60.0 -19.2 60.0 -18.8 60.0 -18.4 60.0 -18.0 60.0 -17.6 60.0 -17.2 60.0 -16.8 60.0 -16.4 60.0 -16.0 60.0 -15.6 60.0 -15.2 60.0 -14.7 60.0 -14.3 60.0 -13.9 60.0 -13.5 60.0 -13.1 60.0 -12.7 60.0 -12.3 60.0 -11.9 60.0 -11.5 60.0 -11.1 60.0 -10.7 60.0 -10.3 60.0 -9.9 60.0 -9.5 60.0 -9.1 60.0 -8.7 60.0 -8.3 60.0 -7.9 60.0 -7.5 60.0 -7.1 60.0 -6.7 60.0 -6.3 60.0 -5.9 60.0 -5.5 60.0 -5.1 60.0 -4.7 60.0 -4.3 60.0 -3.9 60.0 -3.5 60.0 -3.1 60.0 -2.7 60.0 -2.3 60.0 -1.9 60.0 -1.5 60.0 -1.1 60.0 -0.7 60.0 -0.3 60.0 0.1 60.0 0.5 60.0 0.9 60.0 1.3 60.0 1.7 60.0 2.1 60.0 2.5 60.0 2.9 60.0 3.3 60.0 3.7 60.0 4.1 60.0 4.5 60.0 4.9 60.0 5.3 60.0 5.7 60.0 6.1 60.0 6.5 60.0 6.9 60.0 7.3 60.0 7.7 60.0 8.1 60.0 8.5 60.0 8.9 60.0 9.3 60.0 9.7 60.0 10.1 60.0 10.5 60.0 10.9 60.0 11.3 60.0 11.7 60.0 12.1 60.0 12.5 60.0 12.9 60.0 13.3 60.0 13.7 60.0 14.1 60.0 14.5 60.0 14.9 60.0 15.3 60.0 15.7 60.0 16.1 60.0 16.5 60.0 16.9 60.0 17.3 60.0 17.7 60.0 18.1 60.0 18.5 60.0 18.9 60.0 19.3 60.0 19.7 60.0 20.1 60.0 20.5 60.0 20.9 60.0 21.3 60.0 21.7 60.0 22.1 60.0 22.5 60.0 22.9 60.0 23.3 60.0 23.7 60.0 24.1 60.0 24.5 60.0 24.9 60.0 25.3 60.0 25.7 60.0 26.1 60.0 26.5 60.0 26.9 60.0 27.3 60.0 27.7 60.0 28.1 60.0 28.5 60.0 28.9 60.0 29.3 60.0 29.7 60.0 30.1 60.0 30.5 60.0 30.9 60.0 31.3 60.0 31.7 60.0 32.1 60.0 32.5 60.0 32.9 60.0 33.3 60.0 33.7 60.0 34.1 60.0 34.5 60.0 34.9 60.0 35.4 60.0 35.8 60.0 36.2 60.0 36.6 60.0 37.0 60.0 37.4 60.0 37.8 60.0 38.2 60.0 38.6 60.0 39.0 60.0 39.4 60.0 39.8 60.0 40.2 60.0 40.6 60.0 41.0 60.0 41.4 60.0 41.8 60.0 42.2 60.0 42.6 60.0 43.0 60.0 43.4 60.0 43.8 60.0 44.2 60.0 44.6 60.0 45.0 60.0 45.4 60.0 45.8 60.0 46.2 60.0 46.6 60.0 47.0 60.0 47.4 60.0 47.8 60.0 48.2 60.0 48.6 60.0 49.0 60.0 49.4 60.0 49.8 60.0 50.2 60.0 50.6 60.0 51.0 60.0 51.4 60.0 51.8 60.0 52.2 60.0 52.6 60.0 53.0 60.0 53.4 60.0 53.8 60.0 54.2 60.0 54.6 60.0 55.0 60.0 55.4 60.0 55.8 60.0 56.2 60.0 56.6 60.0 57.0 60.0 57.4 59.9 57.8 59.9 58.2 59.9 58.6 59.8 59.0 59.7 59.4 59.6 59.8 59.5 60.2 59.5 60.6 59.4 61.0 59.3 61.4 59.2 61.8 59.1 62.2 59.1 62.6 59.1 63.0 59.0 63.4 59.0 63.8 59.0 64.2 59.0 64.6 59.0 65.0 59.0 65.4 59.0 65.8 59.0 66.2 59.0 66.6 59.0 67.0 59.0 67.4 59.0 67.8 59.0 68.2 59.0 68.6 59.0 69.0 59.0 69.4 59.0 69.8 59.0 70.2 59.0 70.6 59.0 71.0 59.0 71.4 59.0 71.8 59.0 72.2 59.0 72.6 59.0 73.0 59.0 73.4 59.0 73.8 59.0 74.2 59.0 74.6 59.0 75.0 59.0 75.4 59.0 75.8 59.0 76.2 59.0 76.6 59.0 77.0 59.0 77.4 59.0 77.8 59.0 78.2 59.0 78.6 59.0 79.0 59.0 79.4 59.0 79.8 59.0 80.2 59.0 80.6 59.0 81.0 59.0 81.4 59.0 81.8 59.0 82.2 59.0 82.6 59.0 83.0 59.0 83.4 59.0 83.8 59.0 84.2 59.0 84.6 59.0 85.1 59.0 85.5 59.0 85.9 59.0 86.3 59.0 86.7 59.0 87.1 59.0 87.5 59.0 87.9 59.0 88.3 59.0 88.7 59.0 89.1 59.0 89.5 59.0 89.9 59.0 90.3 59.0 90.7 59.0 91.1 59.0 91.5 59.0 91.9 59.0 92.3 59.0 92.7 59.0 93.1 59.0 93.5 59.0 93.9 59.0 94.3 59.0 94.7 59.0 95.1 59.0 95.5 59.0 95.9 59.0 96.3 59.0 96.7 59.0 97.1 59.0 97.5 59.0 97.9 59.0 98.3 59.0 98.7 59.0 99.1 59.0 99.5 59.0 99.9 59.0 100.3 59.0 100.7 59.0 101.1 59.0 101.5 59.0 101.9 59.0 102.3 59.0 102.7 59.0 103.1 59.0 103.5 59.0 103.9 59.0 104.3 59.0 104.7 59.0 105.1 59.0 105.5 59.0 105.9 59.0 106.3 59.0 106.7 59.0 107.1 59.0 107.5 59.0 107.9 59.0 108.3 59.0 108.7 59.0 109.1 59.0 109.5 59.0 109.9 59.0 110.3 59.0 110.7 59.0 111.1 59.0 111.5 59.0 111.9 59.0 112.3 59.0 112.7 59.0 113.1 59.0 113.5 59.0 113.9 59.0 114.3 59.0 114.7 59.0 115.1 59.0 115.5 59.0 115.9 59.0 116.3 59.0 116.7 59.0 117.1 59.0 117.5 59.0 117.9 59.0 118.3 59.0 118.7 59.0 119.1 59.0 119.5 59.0 119.9 59.0 120.3 59.0 120.7 59.0 121.1 59.0 121.5 59.0 121.9 59.0 122.3 59.0 122.7 59.0 123.1 59.0 123.5 59.0 123.9 59.0 124.3 59.0 124.7 59.0 125.1 59.0 125.5 59.0 125.9 59.0 126.3 59.0 126.7 59.0 127.1 59.0 127.5 59.0 127.9 59.0 128.3 59.0 128.7 59.0 129.1 59.0 129.5 59.0 129.9 59.0 130.3 59.0 130.7 59.0 131.1 59.0 131.5 59.0 131.9 59.0 132.3 59.0 132.7 59.0 133.1 59.0 133.5 59.0 133.9 59.0 134.3 59.0 134.7 59.0 135.2 59.0 135.6 59.0 136.0 59.0 136.4 59.0 136.8 59.0 137.2 59.0 137.6 59.0 138.0 59.0 138.4 59.0 138.8 59.0 139.2 59.0 139.6 59.0 140.0 59.0 140.4 59.0 140.8 59.0 141.2 59.0 141.6 59.0 142.0 59.0 142.4 59.0 142.8 59.0 143.2 59.0 143.6 59.0 144.0 59.0 144.4 59.0 144.8 59.0 145.2 59.0 145.6 59.0 146.0 59.0 146.4 59.0 146.8 59.0 147.2 59.0 147.6 59.0 148.0 59.0 148.4 59.0 148.8 59.0 149.2 59.0 149.6 59.0 150.0 59.0 150.4 59.0 150.8 59.0 151.2 59.0 151.6 59.0 152.0 59.0 152.4 59.0 152.8 59.0 153.2 59.0 153.6 59.0 154.0 59.0 154.4 59.0 154.8 59.0 155.2 59.0 155.6 59.0 156.0 59.0 156.4 59.0 156.8 59.0 157.2 59.0 157.6 59.0 158.0 59.0 158.4 59.0 158.8 59.0 159.2 59.0 159.6 59.0 160.0 59.0" stroke="#F8666A" stroke-width="0.2" fill="transparent" />
    </g> 
</svg>