<?xml version="1.0" encoding="UTF-8" standalone="no"?>
<svg width="100" height="100" version="1.1" xmlns="http://www.w3.org/2000/svg">
    <g opacity="1.0">
        <path d="M -90.0 110.0 L  -90.0 110.0 -89.6 109.6 -89.2 109.2 -88.8 108.8 -88.4 108.4 -88.0 108.0 -87.6 107.6 -87.2 107.2 -86.8 106.8 -86.4 106.4 -86.0 106.0 -85.6 105.6 -85.2 105.2 -84.8 104.8 -84.4 104.4 -84.0 104.0 -83.6 103.6 -83.2 103.2 -82.8 102.8 -82.4 102.4 -82.0 102.0 -81.6 101.6 -81.2 101.2 -80.8 100.8 -80.4 100.4 -80.0 100.0 -79.6 99.6 -79.2 99.2 -78.8 98.8 -78.4 98.4 -78.0 98.0 -77.6 97.6 -77.2 97.2 -76.8 96.8 -76.4 96.4 -76.0 96.0 -75.6 95.6 -75.2 95.2 -74.8 94.8 -74.4 94.4 -74.0 94.0 -73.6 93.6 -73.2 93.2 -72.8 92.8 -72.4 92.4 -72.0 92.0 -71.6 91.6 -71.2 91.2 -70.8 90.8 -70.4 90.4 -70.0 90.0 -69.6 89.6 -69.2 89.2 -68.8 88.8 -68.4 88.4 -68.0 88.0 -67.6 87.6 -67.2 87.2 -66.8 86.8 -66.4 86.4 -66.0 86.0 -65.6 85.6 -65.2 85.2 -64.7 84.7 -64.3 84.3 -63.9 83.9 -63.5 83.5 -63.1 83.1 -62.7 82.7 -62.3 82.3 -61.9 81.9 -61.5 81.5 -61.1 81.1 -60.7 80.7 -60.3 80.3 -59.9 79.9 -59.5 79.5 -59.1 79.1 -58.7 78.7 -58.3 78.3 -57.9 77.9 -57.5 77.5 -57.1 77.1 -56.7 76.7 -56.3 76.3 -55.9 75.9 -55.5 75.5 -55.1 75.1 -54.7 74.7 -54.3 74.3 -53.9 73.9 -53.5 73.5 -53.1 73.1 -52.7 72.7 -52.3 72.3 -51.9 71.9 -51.5 71.5 -51.1 71.1 -50.7 70.7 -50.3 70.3 -49.9 69.9 -49.5 69.5 -49.1 69.1 -48.7 68.7 -48.3 68.3 -47.9 67.9 -47.5 67.5 -47.1 67.1 -46.7 66.7 -46.3 66.3 -45.9 65.9 -45.5 65.5 -45.1 65.1 -44.7 64.7 -44.3 64.3 -43.9 63.9 -43.5 63.5 -43.1 63.1 -42.7 62.7 -42.3 62.3 -41.9 61.9 -41.5 61.5 -41.1 61.1 -40.7 60.7 -40.3 60.3 -39.9 59.9 -39.5 59.5 -39.1 59.1 -38.7 58.7 -38.3 58.3 -37.9 57.9 -37.5 57.5 -37.1 57.1 -36.7 56.7 -36.3 56.3 -35.9 55.9 -35.5 55.5 -35.1 55.1 -34.7 54.7 -34.3 54.3 -33.9 53.9 -33.5 53.5 -33.1 53.1 -32.7 52.7 -32.3 52.3 -31.9 51.9 -31.5 51.5 -31.1 51.1 -30.7 50.7 -30.3 50.3 -29.9 49.9 -29.5 49.5 -29.1 49.1 -28.7 48.7 -28.3 48.3 -27.9 47.9 -27.5 47.5 -27.1 47.1 -26.7 46.7 -26.3 46.3 -25.9 45.9 -25.5 45.5 -25.1 45.1 -24.7 44.7 -24.3 44.3 -23.9 43.9 -23.5 43.5 -23.1 43.1 -22.7 42.7 -22.3 42.3 -21.9 41.9 -21.5 41.5 -21.1 41.1 -20.7 40.7 -20.3 40.3 -19.9 39.9 -19.5 39.5 -19.1 39.1 -18.7 38.7 -18.3 38.3 -17.9 37.9 -17.5 37.5 -17.1 37.1 -16.7 36.7 -16.3 36.3 -15.9 35.9 -15.5 35.5 -15.1 35.1 -14.6 34.6 -14.2 34.2 -13.8 33.8 -13.4 33.4 -13.0 33.0 -12.6 32.6 -12.2 32.2 -11.8 31.8 -11.4 31.4 -11.0 31.0 -10.6 30.6 -10.2 30.2 -9.8 29.8 -9.4 29.4 -9.0 29.0 -8.6 28.6 -8.2 28.2 -7.8 27.8 -7.4 27.4 -7.0 27.0 -6.6 26.6 -6.2 26.2 -5.8 25.8 -5.4 25.4 -5.0 25.0 -4.6 24.6 -4.2 24.2 -3.8 23.8 -3.4 23.4 -3.0 23.0 -2.6 22.6 -2.2 22.2 -1.8 21.8 -1.4 21.4 -1.0 21.0 -0.6 20.6 -0.2 20.2 0.2 19.8 0.6 19.4 1.0 19.0 1.4 18.6 1.8 18.2 2.2 17.8 2.6 17.4 3.0 17.0 3.4 16.6 3.8 16.2 4.2 15.8 4.6 15.4 5.0 15.0 5.4 14.6 5.8 14.2 6.2 13.8 6.6 13.4 7.0 13.0 7.4 12.6 7.8 12.2 8.2 11.8 8.6 11.4 9.0 11.0 9.4 10.6 9.8 10.2 10.2 9.8 10.6 9.4 11.0 9.0 11.4 8.6 11.8 8.2 12.2 7.8 12.6 7.4 13.0 7.0 13.4 6.6 13.8 6.2 14.2 5.8 14.6 5.4 15.0 5.0 15.4 4.6 15.8 4.2 16.2 3.8 16.6 3.4 17.0 3.0 17.4 2.6 17.8 2.2 18.2 1.8 18.6 1.4 19.0 1.0 19.4 0.6 19.8 0.2 20.2 -0.2 20.6 -0.6 21.0 -1.0 21.4 -1.4 21.8 -1.8 22.2 -2.2 22.6 -2.6 23.0 -3.0 23.4 -3.4 23.8 -3.8 24.2 -4.2 24.6 -4.6 25.0 -5.0 25.4 -5.4 25.8 -5.8 26.2 -6.2 26.6 -6.6 27.0 -7.0 27.4 -7.4 27.8 -7.8 28.2 -8.2 28.6 -8.6 29.0 -9.0 29.4 -9.4 29.8 -9.8 30.2 -10.2 30.6 -10.6 31.0 -11.0 31.4 -11.4 31.8 -11.8 32.2 -12.2 32.6 -12.6 33.0 -13.0 33.4 -13.4 33.8 -13.8 34.2 -14.2 34.6 -14.6 35.1 -15.1 35.5 -15.5 35.9 -15.9 36.3 -16.3 36.7 -16.7 37.1 -17.1 37.5 -17.5 37.9 -17.9 38.3 -18.3 38.7 -18.7 39.1 -19.1 39.5 -19.5 39.9 -19.9 40.3 -20.3 40.7 -20.7 41.1 -21.1 41.5 -21.5 41.9 -21.9 42.3 -22.3 42.7 -22.7 43.1 -23.1 43.5 -23.5 43.9 -23.9 44.3 -24.3 44.7 -24.7 45.1 -25.1 45.5 -25.5 45.9 -25.9 46.3 -26.3 46.7 -26.7 47.1 -27.1 47.5 -27.5 47.9 -27.9 48.3 -28.3 48.7 -28.7 49.1 -29.1 49.5 -29.5 49.9 -29.9 50.3 -30.3 50.7 -30.7 51.1 -31.1 51.5 -31.5 51.9 -31.9 52.3 -32.3 52.7 -32.7 53.1 -33.1 53.5 -33.5 53.9 -33.9 54.3 -34.3 54.7 -34.7 55.1 -35.1 55.5 -35.5 55.9 -35.9 56.3 -36.3 56.7 -36.7 57.1 -37.1 57.5 -37.5 57.9 -37.9 58.3 -38.3 58.7 -38.7 59.1 -39.1 59.5 -39.5 59.9 -39.9 60.3 -40.3 60.7 -40.7 61.1 -41.1 61.5 -41.5 61.9 -41.9 62.3 -42.3 62.7 -42.7 63.1 -43.1 63.5 -43.5 63.9 -43.9 64.3 -44.3 64.7 -44.7 65.1 -45.1 65.5 -45.5 65.9 -45.9 66.3 -46.3 66.7 -46.7 67.1 -47.1 67.5 -47.5 67.9 -47.9 68.3 -48.3 68.7 -48.7 69.1 -49.1 69.5 -49.5 69.9 -49.9 70.3 -50.3 70.7 -50.7 71.1 -51.1 71.5 -51.5 71.9 -51.9 72.3 -52.3 72.7 -52.7 73.1 -53.1 73.5 -53.5 73.9 -53.9 74.3 -54.3 74.7 -54.7 75.1 -55.1 75.5 -55.5 75.9 -55.9 76.3 -56.3 76.7 -56.7 77.1 -57.1 77.5 -57.5 77.9 -57.9 78.3 -58.3 78.7 -58.7 79.1 -59.1 79.5 -59.5 79.9 -59.9 80.3 -60.3 80.7 -60.7 81.1 -61.1 81.5 -61.5 81.9 -61.9 82.3 -62.3 82.7 -62.7 83.1 -63.1 83.5 -63.5 83.9 -63.9 84.3 -64.3 84.7 -64.7 85.2 -65.2 85.6 -65.6 86.0 -66.0 86.4 -66.4 86.8 -66.8 87.2 -67.2 87.6 -67.6 88.0 -68.0 88.4 -68.4 88.8 -68.8 89.2 -69.2 89.6 -69.6 90.0 -70.0 90.4 -70.4 90.8 -70.8 91.2 -71.2 91.6 -71.6 92.0 -72.0 92.4 -72.4 92.8 -72.8 93.2 -73.2 93.6 -73.6 94.0 -74.0 94.4 -74.4 94.8 -74.8 95.2 -75.2 95.6 -75.6 96.0 -76.0 96.4 -76.4 96.8 -76.8 97.2 -77.2 97.6 -77.6 98.0 -78.0 98.4 -78.4 98.8 -78.8 99.2 -79.2 99.6 -79.6 100.0 -80.0 100.4 -80.4 100.8 -80.8 101.2 -81.2 101.6 -81.6 102.0 -82.0 102.4 -82.4 102.8 -82.8 103.2 -83.2 103.6 -83.6 104.0 -84.0 104.4 -84.4 104.8 -84.8 105.2 -85.2 105.6 -85.6 106.0 -86.0 106.4 -86.4 106.8 -86.8 107.2 -87.2 107.6 -87.6 108.0 -88.0 108.4 -88.4 108.8 -88.8 109.2 -89.2 109.6 -89.6 110.0 -90.0" stroke="#2A3F69" stroke-width="0.2" fill="transparent" />
        <path d="M -90.0 -9990.0 L  -90.0 -9990.0 -89.6 -9910.0 -89.2 -9830.3 -88.8 -9751.0 -88.4 -9671.9 -88.0 -9593.2 -87.6 -9514.8 -87.2 -9436.7 -86.8 -9359.0 -86.4 -9281.6 -86.0 -9204.5 -85.6 -9127.7 -85.2 -9051.2 -84.8 -8975.1 -84.4 -8899.2 -84.0 -8823.7 -83.6 -8748.6 -83.2 -8673.7 -82.8 -8599.2 -82.4 -8524.9 -82.0 -8451.1 -81.6 -8377.5 -81.2 -8304.2 -80.8 -8231.3 -80.4 -8158.7 -80.0 -8086.4 -79.6 -8014.4 -79.2 -7942.8 -78.8 -7871.5 -78.4 -7800.5 -78.0 -7729.8 -77.6 -7659.4 -77.2 -7589.4 -76.8 -7519.6 -76.4 -7450.3 -76.0 -7381.2 -75.6 -7312.4 -75.2 -7244.0 -74.8 -7175.9 -74.4 -7108.1 -74.0 -7040.6 -73.6 -6973.5 -73.2 -6906.6 -72.8 -6840.1 -72.4 -6773.9 -72.0 -6708.1 -71.6 -6642.5 -71.2 -6577.3 -70.8 -6512.4 -70.4 -6447.8 -70.0 -6383.6 -69.6 -6319.7 -69.2 -6256.0 -68.8 -6192.7 -68.4 -6129.8 -68.0 -6067.1 -67.6 -6004.8 -67.2 -5942.8 -66.8 -5881.1 -66.4 -5819.7 -66.0 -5758.7 -65.6 -5698.0 -65.2 -5637.6 -64.7 -5577.5 -64.3 -5517.7 -63.9 -5458.3 -63.5 -5399.2 -63.1 -5340.4 -62.7 -5281.9 -62.3 -5223.8 -61.9 -5165.9 -61.5 -5108.4 -61.1 -5051.2 -60.7 -4994.4 -60.3 -4937.8 -59.9 -4881.6 -59.5 -4825.7 -59.1 -4770.1 -58.7 -4714.8 -58.3 -4659.9 -57.9 -4605.3 -57.5 -4551.0 -57.1 -4497.0 -56.7 -4443.4 -56.3 -4390.0 -55.9 -4337.0 -55.5 -4284.3 -55.1 -4232.0 -54.7 -4179.9 -54.3 -4128.2 -53.9 -4076.8 -53.5 -4025.7 -53.1 -3974.9 -52.7 -3924.5 -52.3 -3874.4 -51.9 -3824.6 -51.5 -3775.1 -51.1 -3725.9 -50.7 -3677.1 -50.3 -3628.6 -49.9 -3580.4 -49.5 -3532.5 -49.1 -3485.0 -48.7 -3437.7 -48.3 -3390.8 -47.9 -3344.2 -47.5 -3298.0 -47.1 -3252.0 -46.7 -3206.4 -46.3 -3161.1 -45.9 -3116.1 -45.5 -3071.5 -45.1 -3027.1 -44.7 -2983.1 -44.3 -2939.4 -43.9 -2896.1 -43.5 -2853.0 -43.1 -2810.3 -42.7 -2767.9 -42.3 -2725.8 -41.9 -2684.0 -41.5 -2642.6 -41.1 -2601.4 -40.7 -2560.6 -40.3 -2520.2 -39.9 -2480.0 -39.5 -2440.2 -39.1 -2400.6 -38.7 -2361.4 -38.3 -2322.6 -37.9 -2284.0 -37.5 -2245.8 -37.1 -2207.9 -36.7 -2170.3 -36.3 -2133.0 -35.9 -2096.1 -35.5 -2059.4 -35.1 -2023.1 -34.7 -1987.1 -34.3 -1951.5 -33.9 -1916.1 -33.5 -1881.1 -33.1 -1846.4 -32.7 -1812.0 -32.3 -1778.0 -31.9 -1744.2 -31.5 -1710.8 -31.1 -1677.7 -30.7 -1645.0 -30.3 -1612.5 -29.9 -1580.4 -29.5 -1548.6 -29.1 -1517.1 -28.7 -1485.9 -28.3 -1455.1 -27.9 -1424.6 -27.5 -1394.4 -27.1 -1364.5 -26.7 -1334.9 -26.3 -1305.7 -25.9 -1276.8 -25.5 -1248.2 -25.1 -1219.9 -24.7 -1192.0 -24.3 -1164.3 -23.9 -1137.0 -23.5 -1110.0 -23.1 -1083.4 -22.7 -1057.0 -22.3 -1031.0 -21.9 -1005.3 -21.5 -979.9 -21.1 -954.9 -20.7 -930.1 -20.3 -905.7 -19.9 -881.6 -19.5 -857.8 -19.1 -834.4 -18.7 -811.2 -18.3 -788.4 -17.9 -765.9 -17.5 -743.8 -17.1 -721.9 -16.7 -700.4 -16.3 -679.2 -15.9 -658.3 -15.5 -637.7 -15.1 -617.5 -14.6 -597.6 -14.2 -578.0 -13.8 -558.7 -13.4 -539.8 -13.0 -521.1 -12.6 -502.8 -12.2 -484.8 -11.8 -467.1 -11.4 -449.8 -11.0 -432.8 -10.6 -416.1 -10.2 -399.7 -9.8 -383.6 -9.4 -367.9 -9.0 -352.4 -8.6 -337.3 -8.2 -322.6 -7.8 -308.1 -7.4 -294.0 -7.0 -280.2 -6.6 -266.7 -6.2 -253.5 -5.8 -240.6 -5.4 -228.1 -5.0 -215.9 -4.6 -204.0 -4.2 -192.4 -3.8 -181.2 -3.4 -170.3 -3.0 -159.7 -2.6 -149.4 -2.2 -139.4 -1.8 -129.8 -1.4 -120.5 -1.0 -111.5 -0.6 -102.8 -0.2 -94.5 0.2 -86.4 0.6 -78.7 1.0 -71.3 1.4 -64.3 1.8 -57.5 2.2 -51.1 2.6 -45.0 3.0 -39.2 3.4 -33.7 3.8 -28.6 4.2 -23.8 4.6 -19.3 5.0 -15.1 5.4 -11.2 5.8 -7.7 6.2 -4.5 6.6 -1.6 7.0 1.0 7.4 3.2 7.8 5.1 8.2 6.7 8.6 8.0 9.0 9.0 9.4 9.6 9.8 10.0 10.2 10.0 10.6 9.6 11.0 9.0 11.4 8.0 11.8 6.7 12.2 5.1 12.6 3.2 13.0 1.0 13.4 -1.6 13.8 -4.5 14.2 -7.7 14.6 -11.2 15.0 -15.1 15.4 -19.3 15.8 -23.8 16.2 -28.6 16.6 -33.7 17.0 -39.2 17.4 -45.0 17.8 -51.1 18.2 -57.5 18.6 -64.3 19.0 -71.3 19.4 -78.7 19.8 -86.4 20.2 -94.5 20.6 -102.8 21.0 -111.5 21.4 -120.5 21.8 -129.8 22.2 -139.4 22.6 -149.4 23.0 -159.7 23.4 -170.3 23.8 -181.2 24.2 -192.4 24.6 -204.0 25.0 -215.9 25.4 -228.1 25.8 -240.6 26.2 -253.5 26.6 -266.7 27.0 -280.2 27.4 -294.0 27.8 -308.1 28.2 -322.6 28.6 -337.3 29.0 -352.4 29.4 -367.9 29.8 -383.6 30.2 -399.7 30.6 -416.1 31.0 -432.8 31.4 -449.8 31.8 -467.1 32.2 -484.8 32.6 -502.8 33.0 -521.1 33.4 -539.8 33.8 -558.7 34.2 -578.0 34.6 -597.6 35.1 -617.5 35.5 -637.7 35.9 -658.3 36.3 -679.2 36.7 -700.4 37.1 -721.9 37.5 -743.8 37.9 -765.9 38.3 -788.4 38.7 -811.2 39.1 -834.4 39.5 -857.8 39.9 -881.6 40.3 -905.7 40.7 -930.1 41.1 -954.9 41.5 -979.9 41.9 -1005.3 42.3 -1031.0 42.7 -1057.0 43.1 -1083.4 43.5 -1110.0 43.9 -1137.0 44.3 -1164.3 44.7 -1192.0 45.1 -1219.9 45.5 -1248.2 45.9 -1276.8 46.3 -1305.7 46.7 -1334.9 47.1 -1364.5 47.5 -1394.4 47.9 -1424.6 48.3 -1455.1 48.7 -1485.9 49.1 -1517.1 49.5 -1548.6 49.9 -1580.4 50.3 -1612.5 50.7 -1645.0 51.1 -1677.7 51.5 -1710.8 51.9 -1744.2 52.3 -1778.0 52.7 -1812.0 53.1 -1846.4 53.5 -1881.1 53.9 -1916.1 54.3 -1951.5 54.7 -1987.1 55.1 -2023.1 55.5 -2059.4 55.9 -2096.1 56.3 -2133.0 56.7 -2170.3 57.1 -2207.9 57.5 -2245.8 57.9 -2284.0 58.3 -2322.6 58.7 -2361.4 59.1 -2400.6 59.5 -2440.2 59.9 -2480.0 60.3 -2520.2 60.7 -2560.6 61.1 -2601.4 61.5 -2642.6 61.9 -2684.0 62.3 -2725.8 62.7 -2767.9 63.1 -2810.3 63.5 -2853.0 63.9 -2896.1 64.3 -2939.4 64.7 -2983.1 65.1 -3027.1 65.5 -3071.5 65.9 -3116.1 66.3 -3161.1 66.7 -3206.4 67.1 -3252.0 67.5 -3298.0 67.9 -3344.2 68.3 -3390.8 68.7 -3437.7 69.1 -3485.0 69.5 -3532.5 69.9 -3580.4 70.3 -3628.6 70.7 -3677.1 71.1 -3725.9 71.5 -3775.1 71.9 -3824.6 72.3 -3874.4 72.7 -3924.5 73.1 -3974.9 73.5 -4025.7 73.9 -4076.8 74.3 -4128.2 74.7 -4179.9 75.1 -4232.0 75.5 -4284.3 75.9 -4337.0 76.3 -4390.0 76.7 -4443.4 77.1 -4497.0 77.5 -4551.0 77.9 -4605.3 78.3 -4659.9 78.7 -4714.8 79.1 -4770.1 79.5 -4825.7 79.9 -4881.6 80.3 -4937.8 80.7 -4994.4 81.1 -5051.2 81.5 -5108.4 81.9 -5165.9 82.3 -5223.8 82.7 -5281.9 83.1 -5340.4 83.5 -5399.2 83.9 -5458.3 84.3 -5517.7 84.7 -5577.5 85.2 -5637.6 85.6 -5698.0 86.0 -5758.7 86.4 -5819.7 86.8 -5881.1 87.2 -5942.8 87.6 -6004.8 88.0 -6067.1 88.4 -6129.8 88.8 -6192.7 89.2 -6256.0 89.6 -6319.7 90.0 -6383.6 90.4 -6447.8 90.8 -6512.4 91.2 -6577.3 91.6 -6642.5 92.0 -6708.1 92.4 -6773.9 92.8 -6840.1 93.2 -6906.6 93.6 -6973.5 94.0 -7040.6 94.4 -7108.1 94.8 -7175.9 95.2 -7244.0 95.6 -7312.4 96.0 -7381.2 96.4 -7450.3 96.8 -7519.6 97.2 -7589.4 97.6 -7659.4 98.0 -7729.8 98.4 -7800.5 98.8 -7871.5 99.2 -7942.8 99.6 -8014.4 100.0 -8086.4 100.4 -8158.7 100.8 -8231.3 101.2 -8304.2 101.6 -8377.5 102.0 -8451.1 102.4 -8524.9 102.8 -8599.2 103.2 -8673.7 103.6 -8748.6 104.0 -8823.7 104.4 -8899.2 104.8 -8975.1 105.2 -9051.2 105.6 -9127.7 106.0 -9204.5 106.4 -9281.6 106.8 -9359.0 107.2 -9436.7 107.6 -9514.8 108.0 -9593.2 108.4 -9671.9 108.8 -9751.0 109.2 -9830.3 109.6 -9910.0 110.0 -9990.0" stroke="#984135" stroke-width="0.2" fill="transparent" />
        <path d="M -90.0 9.5 L  -90.0 9.5 -89.6 9.2 -89.2 9.0 -88.8 9.0 -88.4 9.2 -88.0 9.4 -87.6 9.8 -87.2 10.2 -86.8 10.6 -86.4 10.8 -86.0 11.0 -85.6 11.0 -85.2 10.8 -84.8 10.5 -84.4 10.1 -84.0 9.7 -83.6 9.4 -83.2 9.1 -82.8 9.0 -82.4 9.0 -82.0 9.2 -81.6 9.5 -81.2 9.9 -80.8 10.3 -80.4 10.7 -80.0 10.9 -79.6 11.0 -79.2 10.9 -78.8 10.7 -78.4 10.4 -78.0 10.0 -77.6 9.6 -77.2 9.3 -76.8 9.1 -76.4 9.0 -76.0 9.1 -75.6 9.3 -75.2 9.7 -74.8 10.1 -74.4 10.4 -74.0 10.8 -73.6 11.0 -73.2 11.0 -72.8 10.9 -72.4 10.6 -72.0 10.3 -71.6 9.9 -71.2 9.5 -70.8 9.2 -70.4 9.0 -70.0 9.0 -69.6 9.1 -69.2 9.4 -68.8 9.8 -68.4 10.2 -68.0 10.6 -67.6 10.8 -67.2 11.0 -66.8 11.0 -66.4 10.8 -66.0 10.5 -65.6 10.2 -65.2 9.8 -64.7 9.4 -64.3 9.1 -63.9 9.0 -63.5 9.0 -63.1 9.2 -62.7 9.5 -62.3 9.9 -61.9 10.3 -61.5 10.7 -61.1 10.9 -60.7 11.0 -60.3 10.9 -59.9 10.7 -59.5 10.4 -59.1 10.0 -58.7 9.6 -58.3 9.3 -57.9 9.1 -57.5 9.0 -57.1 9.1 -56.7 9.3 -56.3 9.6 -55.9 10.0 -55.5 10.4 -55.1 10.7 -54.7 10.9 -54.3 11.0 -53.9 10.9 -53.5 10.6 -53.1 10.3 -52.7 9.9 -52.3 9.5 -51.9 9.2 -51.5 9.0 -51.1 9.0 -50.7 9.1 -50.3 9.4 -49.9 9.8 -49.5 10.2 -49.1 10.5 -48.7 10.8 -48.3 11.0 -47.9 11.0 -47.5 10.8 -47.1 10.5 -46.7 10.2 -46.3 9.8 -45.9 9.4 -45.5 9.1 -45.1 9.0 -44.7 9.0 -44.3 9.2 -43.9 9.5 -43.5 9.9 -43.1 10.3 -42.7 10.6 -42.3 10.9 -41.9 11.0 -41.5 10.9 -41.1 10.7 -40.7 10.4 -40.3 10.0 -39.9 9.6 -39.5 9.3 -39.1 9.1 -38.7 9.0 -38.3 9.1 -37.9 9.3 -37.5 9.6 -37.1 10.0 -36.7 10.4 -36.3 10.7 -35.9 10.9 -35.5 11.0 -35.1 10.9 -34.7 10.6 -34.3 10.3 -33.9 9.9 -33.5 9.5 -33.1 9.2 -32.7 9.0 -32.3 9.0 -31.9 9.1 -31.5 9.4 -31.1 9.8 -30.7 10.2 -30.3 10.5 -29.9 10.8 -29.5 11.0 -29.1 11.0 -28.7 10.8 -28.3 10.5 -27.9 10.2 -27.5 9.8 -27.1 9.4 -26.7 9.1 -26.3 9.0 -25.9 9.0 -25.5 9.2 -25.1 9.5 -24.7 9.9 -24.3 10.3 -23.9 10.6 -23.5 10.9 -23.1 11.0 -22.7 10.9 -22.3 10.8 -21.9 10.4 -21.5 10.0 -21.1 9.7 -20.7 9.3 -20.3 9.1 -19.9 9.0 -19.5 9.1 -19.1 9.3 -18.7 9.6 -18.3 10.0 -17.9 10.4 -17.5 10.7 -17.1 10.9 -16.7 11.0 -16.3 10.9 -15.9 10.7 -15.5 10.3 -15.1 9.9 -14.6 9.5 -14.2 9.2 -13.8 9.0 -13.4 9.0 -13.0 9.1 -12.6 9.4 -12.2 9.7 -11.8 10.1 -11.4 10.5 -11.0 10.8 -10.6 11.0 -10.2 11.0 -9.8 10.8 -9.4 10.6 -9.0 10.2 -8.6 9.8 -8.2 9.4 -7.8 9.2 -7.4 9.0 -7.0 9.0 -6.6 9.2 -6.2 9.5 -5.8 9.9 -5.4 10.3 -5.0 10.6 -4.6 10.9 -4.2 11.0 -3.8 11.0 -3.4 10.8 -3.0 10.4 -2.6 10.1 -2.2 9.7 -1.8 9.3 -1.4 9.1 -1.0 9.0 -0.6 9.1 -0.2 9.3 0.2 9.6 0.6 10.0 1.0 10.4 1.4 10.7 1.8 10.9 2.2 11.0 2.6 10.9 3.0 10.7 3.4 10.3 3.8 9.9 4.2 9.5 4.6 9.2 5.0 9.0 5.4 9.0 5.8 9.1 6.2 9.4 6.6 9.7 7.0 10.1 7.4 10.5 7.8 10.8 8.2 11.0 8.6 11.0 9.0 10.8 9.4 10.6 9.8 10.2 10.2 9.8 10.6 9.4 11.0 9.2 11.4 9.0 11.8 9.0 12.2 9.2 12.6 9.5 13.0 9.9 13.4 10.3 13.8 10.6 14.2 10.9 14.6 11.0 15.0 11.0 15.4 10.8 15.8 10.5 16.2 10.1 16.6 9.7 17.0 9.3 17.4 9.1 17.8 9.0 18.2 9.1 18.6 9.3 19.0 9.6 19.4 10.0 19.8 10.4 20.2 10.7 20.6 10.9 21.0 11.0 21.4 10.9 21.8 10.7 22.2 10.3 22.6 9.9 23.0 9.6 23.4 9.2 23.8 9.0 24.2 9.0 24.6 9.1 25.0 9.4 25.4 9.7 25.8 10.1 26.2 10.5 26.6 10.8 27.0 11.0 27.4 11.0 27.8 10.8 28.2 10.6 28.6 10.2 29.0 9.8 29.4 9.4 29.8 9.2 30.2 9.0 30.6 9.0 31.0 9.2 31.4 9.5 31.8 9.9 32.2 10.3 32.6 10.6 33.0 10.9 33.4 11.0 33.8 11.0 34.2 10.8 34.6 10.5 35.1 10.1 35.5 9.7 35.9 9.3 36.3 9.1 36.7 9.0 37.1 9.1 37.5 9.3 37.9 9.6 38.3 10.0 38.7 10.4 39.1 10.7 39.5 10.9 39.9 11.0 40.3 10.9 40.7 10.7 41.1 10.3 41.5 10.0 41.9 9.6 42.3 9.2 42.7 9.1 43.1 9.0 43.5 9.1 43.9 9.4 44.3 9.7 44.7 10.1 45.1 10.5 45.5 10.8 45.9 11.0 46.3 11.0 46.7 10.9 47.1 10.6 47.5 10.2 47.9 9.8 48.3 9.5 48.7 9.2 49.1 9.0 49.5 9.0 49.9 9.2 50.3 9.5 50.7 9.8 51.1 10.2 51.5 10.6 51.9 10.9 52.3 11.0 52.7 11.0 53.1 10.8 53.5 10.5 53.9 10.1 54.3 9.7 54.7 9.4 55.1 9.1 55.5 9.0 55.9 9.1 56.3 9.3 56.7 9.6 57.1 10.0 57.5 10.4 57.9 10.7 58.3 10.9 58.7 11.0 59.1 10.9 59.5 10.7 59.9 10.4 60.3 10.0 60.7 9.6 61.1 9.3 61.5 9.1 61.9 9.0 62.3 9.1 62.7 9.4 63.1 9.7 63.5 10.1 63.9 10.5 64.3 10.8 64.7 11.0 65.1 11.0 65.5 10.9 65.9 10.6 66.3 10.2 66.7 9.8 67.1 9.5 67.5 9.2 67.9 9.0 68.3 9.0 68.7 9.2 69.1 9.5 69.5 9.8 69.9 10.2 70.3 10.6 70.7 10.9 71.1 11.0 71.5 11.0 71.9 10.8 72.3 10.5 72.7 10.1 73.1 9.7 73.5 9.4 73.9 9.1 74.3 9.0 74.7 9.1 75.1 9.3 75.5 9.6 75.9 10.0 76.3 10.4 76.7 10.7 77.1 10.9 77.5 11.0 77.9 10.9 78.3 10.7 78.7 10.4 79.1 10.0 79.5 9.6 79.9 9.3 80.3 9.1 80.7 9.0 81.1 9.1 81.5 9.3 81.9 9.7 82.3 10.1 82.7 10.5 83.1 10.8 83.5 11.0 83.9 11.0 84.3 10.9 84.7 10.6 85.2 10.2 85.6 9.8 86.0 9.5 86.4 9.2 86.8 9.0 87.2 9.0 87.6 9.2 88.0 9.4 88.4 9.8 88.8 10.2 89.2 10.6 89.6 10.9 90.0 11.0 90.4 11.0 90.8 10.8 91.2 10.5 91.6 10.1 92.0 9.7 92.4 9.4 92.8 9.1 93.2 9.0 93.6 9.0 94.0 9.2 94.4 9.6 94.8 9.9 95.2 10.3 95.6 10.7 96.0 10.9 96.4 11.0 96.8 10.9 97.2 10.7 97.6 10.4 98.0 10.0 98.4 9.6 98.8 9.3 99.2 9.1 99.6 9.0 100.0 9.1 100.4 9.3 100.8 9.7 101.2 10.1 101.6 10.5 102.0 10.8 102.4 11.0 102.8 11.0 103.2 10.9 103.6 10.6 104.0 10.3 104.4 9.9 104.8 9.5 105.2 9.2 105.6 9.0 106.0 9.0 106.4 9.2 106.8 9.4 107.2 9.8 107.6 10.2 108.0 10.6 108.4 10.8 108.8 11.0 109.2 11.0 109.6 10.8 110.0 10.5" stroke="#171F31" stroke-width="0.2" fill="transparent" />
        <path d="M -90.0 9.1 L  -90.0 9.1 -89.6 9.4 -89.2 9.8 -88.8 10.2 -88.4 10.5 -88.0 10.8 -87.6 11.0 -87.2 11.0 -86.8 10.8 -86.4 10.5 -86.0 10.2 -85.6 9.8 -85.2 9.4 -84.8 9.1 -84.4 9.0 -84.0 9.0 -83.6 9.2 -83.2 9.5 -82.8 9.9 -82.4 10.3 -82.0 10.6 -81.6 10.9 -81.2 11.0 -80.8 10.9 -80.4 10.7 -80.0 10.4 -79.6 10.0 -79.2 9.7 -78.8 9.3 -78.4 9.1 -78.0 9.0 -77.6 9.1 -77.2 9.3 -76.8 9.6 -76.4 10.0 -76.0 10.4 -75.6 10.7 -75.2 10.9 -74.8 11.0 -74.4 10.9 -74.0 10.7 -73.6 10.3 -73.2 9.9 -72.8 9.5 -72.4 9.2 -72.0 9.0 -71.6 9.0 -71.2 9.1 -70.8 9.4 -70.4 9.8 -70.0 10.2 -69.6 10.5 -69.2 10.8 -68.8 11.0 -68.4 11.0 -68.0 10.8 -67.6 10.6 -67.2 10.2 -66.8 9.8 -66.4 9.4 -66.0 9.1 -65.6 9.0 -65.2 9.0 -64.7 9.2 -64.3 9.5 -63.9 9.9 -63.5 10.3 -63.1 10.6 -62.7 10.9 -62.3 11.0 -61.9 11.0 -61.5 10.8 -61.1 10.4 -60.7 10.1 -60.3 9.7 -59.9 9.3 -59.5 9.1 -59.1 9.0 -58.7 9.1 -58.3 9.3 -57.9 9.6 -57.5 10.0 -57.1 10.4 -56.7 10.7 -56.3 10.9 -55.9 11.0 -55.5 10.9 -55.1 10.7 -54.7 10.3 -54.3 9.9 -53.9 9.5 -53.5 9.2 -53.1 9.0 -52.7 9.0 -52.3 9.1 -51.9 9.4 -51.5 9.7 -51.1 10.1 -50.7 10.5 -50.3 10.8 -49.9 11.0 -49.5 11.0 -49.1 10.8 -48.7 10.6 -48.3 10.2 -47.9 9.8 -47.5 9.4 -47.1 9.2 -46.7 9.0 -46.3 9.0 -45.9 9.2 -45.5 9.5 -45.1 9.9 -44.7 10.3 -44.3 10.6 -43.9 10.9 -43.5 11.0 -43.1 11.0 -42.7 10.8 -42.3 10.5 -41.9 10.1 -41.5 9.7 -41.1 9.3 -40.7 9.1 -40.3 9.0 -39.9 9.1 -39.5 9.3 -39.1 9.6 -38.7 10.0 -38.3 10.4 -37.9 10.7 -37.5 10.9 -37.1 11.0 -36.7 10.9 -36.3 10.7 -35.9 10.3 -35.5 9.9 -35.1 9.6 -34.7 9.2 -34.3 9.0 -33.9 9.0 -33.5 9.1 -33.1 9.4 -32.7 9.7 -32.3 10.1 -31.9 10.5 -31.5 10.8 -31.1 11.0 -30.7 11.0 -30.3 10.8 -29.9 10.6 -29.5 10.2 -29.1 9.8 -28.7 9.4 -28.3 9.2 -27.9 9.0 -27.5 9.0 -27.1 9.2 -26.7 9.5 -26.3 9.9 -25.9 10.3 -25.5 10.6 -25.1 10.9 -24.7 11.0 -24.3 11.0 -23.9 10.8 -23.5 10.5 -23.1 10.1 -22.7 9.7 -22.3 9.3 -21.9 9.1 -21.5 9.0 -21.1 9.1 -20.7 9.3 -20.3 9.6 -19.9 10.0 -19.5 10.4 -19.1 10.7 -18.7 10.9 -18.3 11.0 -17.9 10.9 -17.5 10.7 -17.1 10.3 -16.7 9.9 -16.3 9.6 -15.9 9.2 -15.5 9.1 -15.1 9.0 -14.6 9.1 -14.2 9.4 -13.8 9.7 -13.4 10.1 -13.0 10.5 -12.6 10.8 -12.2 11.0 -11.8 11.0 -11.4 10.9 -11.0 10.6 -10.6 10.2 -10.2 9.8 -9.8 9.5 -9.4 9.2 -9.0 9.0 -8.6 9.0 -8.2 9.2 -7.8 9.5 -7.4 9.8 -7.0 10.2 -6.6 10.6 -6.2 10.9 -5.8 11.0 -5.4 11.0 -5.0 10.8 -4.6 10.5 -4.2 10.1 -3.8 9.7 -3.4 9.3 -3.0 9.1 -2.6 9.0 -2.2 9.1 -1.8 9.3 -1.4 9.6 -1.0 10.0 -0.6 10.4 -0.2 10.7 0.2 10.9 0.6 11.0 1.0 10.9 1.4 10.7 1.8 10.4 2.2 10.0 2.6 9.6 3.0 9.3 3.4 9.1 3.8 9.0 4.2 9.1 4.6 9.4 5.0 9.7 5.4 10.1 5.8 10.5 6.2 10.8 6.6 11.0 7.0 11.0 7.4 10.9 7.8 10.6 8.2 10.2 8.6 9.8 9.0 9.5 9.4 9.2 9.8 9.0 10.2 9.0 10.6 9.2 11.0 9.5 11.4 9.8 11.8 10.2 12.2 10.6 12.6 10.9 13.0 11.0 13.4 11.0 13.8 10.8 14.2 10.5 14.6 10.1 15.0 9.7 15.4 9.4 15.8 9.1 16.2 9.0 16.6 9.1 17.0 9.3 17.4 9.6 17.8 10.0 18.2 10.4 18.6 10.7 19.0 10.9 19.4 11.0 19.8 10.9 20.2 10.7 20.6 10.4 21.0 10.0 21.4 9.6 21.8 9.3 22.2 9.1 22.6 9.0 23.0 9.1 23.4 9.3 23.8 9.7 24.2 10.1 24.6 10.5 25.0 10.8 25.4 11.0 25.8 11.0 26.2 10.9 26.6 10.6 27.0 10.2 27.4 9.8 27.8 9.5 28.2 9.2 28.6 9.0 29.0 9.0 29.4 9.2 29.8 9.5 30.2 9.8 30.6 10.2 31.0 10.6 31.4 10.9 31.8 11.0 32.2 11.0 32.6 10.8 33.0 10.5 33.4 10.1 33.8 9.7 34.2 9.4 34.6 9.1 35.1 9.0 35.5 9.1 35.9 9.2 36.3 9.6 36.7 9.9 37.1 10.3 37.5 10.7 37.9 10.9 38.3 11.0 38.7 10.9 39.1 10.7 39.5 10.4 39.9 10.0 40.3 9.6 40.7 9.3 41.1 9.1 41.5 9.0 41.9 9.1 42.3 9.3 42.7 9.7 43.1 10.1 43.5 10.5 43.9 10.8 44.3 11.0 44.7 11.0 45.1 10.9 45.5 10.6 45.9 10.3 46.3 9.9 46.7 9.5 47.1 9.2 47.5 9.0 47.9 9.0 48.3 9.2 48.7 9.4 49.1 9.8 49.5 10.2 49.9 10.6 50.3 10.8 50.7 11.0 51.1 11.0 51.5 10.8 51.9 10.5 52.3 10.1 52.7 9.7 53.1 9.4 53.5 9.1 53.9 9.0 54.3 9.0 54.7 9.2 55.1 9.6 55.5 9.9 55.9 10.3 56.3 10.7 56.7 10.9 57.1 11.0 57.5 10.9 57.9 10.7 58.3 10.4 58.7 10.0 59.1 9.6 59.5 9.3 59.9 9.1 60.3 9.0 60.7 9.1 61.1 9.3 61.5 9.7 61.9 10.1 62.3 10.5 62.7 10.8 63.1 11.0 63.5 11.0 63.9 10.9 64.3 10.6 64.7 10.3 65.1 9.9 65.5 9.5 65.9 9.2 66.3 9.0 66.7 9.0 67.1 9.2 67.5 9.4 67.9 9.8 68.3 10.2 68.7 10.6 69.1 10.8 69.5 11.0 69.9 11.0 70.3 10.8 70.7 10.5 71.1 10.1 71.5 9.7 71.9 9.4 72.3 9.1 72.7 9.0 73.1 9.0 73.5 9.2 73.9 9.5 74.3 9.9 74.7 10.3 75.1 10.7 75.5 10.9 75.9 11.0 76.3 10.9 76.7 10.7 77.1 10.4 77.5 10.0 77.9 9.6 78.3 9.3 78.7 9.1 79.1 9.0 79.5 9.1 79.9 9.3 80.3 9.7 80.7 10.1 81.1 10.4 81.5 10.8 81.9 11.0 82.3 11.0 82.7 10.9 83.1 10.6 83.5 10.3 83.9 9.9 84.3 9.5 84.7 9.2 85.2 9.0 85.6 9.0 86.0 9.1 86.4 9.4 86.8 9.8 87.2 10.2 87.6 10.6 88.0 10.8 88.4 11.0 88.8 11.0 89.2 10.8 89.6 10.5 90.0 10.2 90.4 9.8 90.8 9.4 91.2 9.1 91.6 9.0 92.0 9.0 92.4 9.2 92.8 9.5 93.2 9.9 93.6 10.3 94.0 10.7 94.4 10.9 94.8 11.0 95.2 10.9 95.6 10.7 96.0 10.4 96.4 10.0 96.8 9.6 97.2 9.3 97.6 9.1 98.0 9.0 98.4 9.1 98.8 9.3 99.2 9.7 99.6 10.0 100.0 10.4 100.4 10.7 100.8 10.9 101.2 11.0 101.6 10.9 102.0 10.6 102.4 10.3 102.8 9.9 103.2 9.5 103.6 9.2 104.0 9.0 104.4 9.0 104.8 9.1 105.2 9.4 105.6 9.8 106.0 10.2 106.4 10.5 106.8 10.8 107.2 11.0 107.6 11.0 108.0 10.8 108.4 10.5 108.8 10.2 109.2 9.8 109.6 9.4 110.0 9.1" stroke="#A42520" stroke-width="0.2" fill="transparent" />
        <path d="M -90.0 10.0 L  -90.0 10.0 -89.6 10.0 -89.2 10.0 -88.8 10.0 -88.4 10.0 -88.0 10.0 -87.6 10.0 -87.2 10.0 -86.8 10.0 -86.4 10.0 -86.0 10.0 -85.6 10.0 -85.2 10.0 -84.8 10.0 -84.4 10.0 -84.0 10.0 -83.6 10.0 -83.2 10.0 -82.8 10.0 -82.4 10.0 -82.0 10.0 -81.6 10.0 -81.2 10.0 -80.8 10.0 -80.4 10.0 -80.0 10.0 -79.6 10.0 -79.2 10.0 -78.8 10.0 -78.4 10.0 -78.0 10.0 -77.6 10.0 -77.2 10.0 -76.8 10.0 -76.4 10.0 -76.0 10.0 -75.6 10.0 -75.2 10.0 -74.8 10.0 -74.4 10.0 -74.0 10.0 -73.6 10.0 -73.2 10.0 -72.8 10.0 -72.4 10.0 -72.0 10.0 -71.6 10.0 -71.2 10.0 -70.8 10.0 -70.4 10.0 -70.0 10.0 -69.6 10.0 -69.2 10.0 -68.8 10.0 -68.4 10.0 -68.0 10.0 -67.6 10.0 -67.2 10.0 -66.8 10.0 -66.4 10.0 -66.0 10.0 -65.6 10.0 -65.2 10.0 -64.7 10.0 -64.3 10.0 -63.9 10.0 -63.5 10.0 -63.1 10.0 -62.7 10.0 -62.3 10.0 -61.9 10.0 -61.5 10.0 -61.1 10.0 -60.7 10.0 -60.3 10.0 -59.9 10.0 -59.5 10.0 -59.1 10.0 -58.7 10.0 -58.3 10.0 -57.9 10.0 -57.5 10.0 -57.1 10.0 -56.7 10.0 -56.3 10.0 -55.9 10.0 -55.5 10.0 -55.1 10.0 -54.7 10.0 -54.3 10.0 -53.9 10.0 -53.5 10.0 -53.1 10.0 -52.7 10.0 -52.3 10.0 -51.9 10.0 -51.5 10.0 -51.1 10.0 -50.7 10.0 -50.3 10.0 -49.9 10.0 -49.5 10.0 -49.1 10.0 -48.7 10.0 -48.3 10.0 -47.9 10.0 -47.5 10.0 -47.1 10.0 -46.7 10.0 -46.3 10.0 -45.9 10.0 -45.5 10.0 -45.1 10.0 -44.7 10.0 -44.3 10.0 -43.9 10.0 -43.5 10.0 -43.1 10.0 -42.7 10.0 -42.3 10.0 -41.9 10.0 -41.5 10.0 -41.1 10.0 -40.7 10.0 -40.3 10.0 -39.9 10.0 -39.5 10.0 -39.1 10.0 -38.7 10.0 -38.3 10.0 -37.9 10.0 -37.5 10.0 -37.1 10.0 -36.7 10.0 -36.3 10.0 -35.9 10.0 -35.5 10.0 -35.1 10.0 -34.7 10.0 -34.3 10.0 -33.9 10.0 -33.5 10.0 -33.1 10.0 -32.7 10.0 -32.3 10.0 -31.9 10.0 -31.5 10.0 -31.1 10.0 -30.7 10.0 -30.3 10.0 -29.9 10.0 -29.5 10.0 -29.1 10.0 -28.7 10.0 -28.3 10.0 -27.9 10.0 -27.5 10.0 -27.1 10.0 -26.7 10.0 -26.3 10.0 -25.9 10.0 -25.5 10.0 -25.1 10.0 -24.7 10.0 -24.3 10.0 -23.9 10.0 -23.5 10.0 -23.1 10.0 -22.7 10.0 -22.3 10.0 -21.9 10.0 -21.5 10.0 -21.1 10.0 -20.7 10.0 -20.3 10.0 -19.9 10.0 -19.5 10.0 -19.1 10.0 -18.7 10.0 -18.3 10.0 -17.9 10.0 -17.5 10.0 -17.1 10.0 -16.7 10.0 -16.3 10.0 -15.9 10.0 -15.5 10.0 -15.1 10.0 -14.6 10.0 -14.2 10.0 -13.8 10.0 -13.4 10.0 -13.0 10.0 -12.6 10.0 -12.2 10.0 -11.8 10.0 -11.4 10.0 -11.0 10.0 -10.6 10.0 -10.2 10.0 -9.8 10.0 -9.4 10.0 -9.0 10.0 -8.6 10.0 -8.2 10.0 -7.8 10.0 -7.4 10.0 -7.0 10.0 -6.6 10.0 -6.2 10.0 -5.8 10.0 -5.4 10.0 -5.0 10.0 -4.6 10.0 -4.2 10.0 -3.8 10.0 -3.4 10.0 -3.0 10.0 -2.6 10.0 -2.2 10.0 -1.8 10.0 -1.4 10.0 -1.0 10.0 -0.6 10.0 -0.2 10.0 0.2 10.0 0.6 10.0 1.0 10.0 1.4 10.0 1.8 10.0 2.2 10.0 2.6 10.0 3.0 10.0 3.4 10.0 3.8 10.0 4.2 10.0 4.6 10.0 5.0 10.0 5.4 10.0 5.8 10.0 6.2 10.0 6.6 10.0 7.0 10.0 7.4 10.0 7.8 10.0 8.2 9.9 8.6 9.9 9.0 9.8 9.4 9.7 9.8 9.6 10.2 9.6 10.6 9.7 11.0 9.8 11.4 9.9 11.8 9.9 12.2 10.0 12.6 10.0 13.0 10.0 13.4 10.0 13.8 10.0 14.2 10.0 14.6 10.0 15.0 10.0 15.4 10.0 15.8 10.0 16.2 10.0 16.6 10.0 17.0 10.0 17.4 10.0 17.8 10.0 18.2 10.0 18.6 10.0 19.0 10.0 19.4 10.0 19.8 10.0 20.2 10.0 20.6 10.0 21.0 10.0 21.4 10.0 21.8 10.0 22.2 10.0 22.6 10.0 23.0 10.0 23.4 10.0 23.8 10.0 24.2 10.0 24.6 10.0 25.0 10.0 25.4 10.0 25.8 10.0 26.2 10.0 26.6 10.0 27.0 10.0 27.4 10.0 27.8 10.0 28.2 10.0 28.6 10.0 29.0 10.0 29.4 10.0 29.8 10.0 30.2 10.0 30.6 10.0 31.0 10.0 31.4 10.0 31.8 10.0 32.2 10.0 32.6 10.0 33.0 10.0 33.4 10.0 33.8 10.0 34.2 10.0 34.6 10.0 35.1 10.0 35.5 10.0 35.9 10.0 36.3 10.0 36.7 10.0 37.1 10.0 37.5 10.0 37.9 10.0 38.3 10.0 38.7 10.0 39.1 10.0 39.5 10.0 39.9 10.0 40.3 10.0 40.7 10.0 41.1 10.0 41.5 10.0 41.9 10.0 42.3 10.0 42.7 10.0 43.1 10.0 43.5 10.0 43.9 10.0 44.3 10.0 44.7 10.0 45.1 10.0 45.5 10.0 45.9 10.0 46.3 10.0 46.7 10.0 47.1 10.0 47.5 10.0 47.9 10.0 48.3 10.0 48.7 10.0 49.1 10.0 49.5 10.0 49.9 10.0 50.3 10.0 50.7 10.0 51.1 10.0 51.5 10.0 51.9 10.0 52.3 10.0 52.7 10.0 53.1 10.0 53.5 10.0 53.9 10.0 54.3 10.0 54.7 10.0 55.1 10.0 55.5 10.0 55.9 10.0 56.3 10.0 56.7 10.0 57.1 10.0 57.5 10.0 57.9 10.0 58.3 10.0 58.7 10.0 59.1 10.0 59.5 10.0 59.9 10.0 60.3 10.0 60.7 10.0 61.1 10.0 61.5 10.0 61.9 10.0 62.3 10.0 62.7 10.0 63.1 10.0 63.5 10.0 63.9 10.0 64.3 10.0 64.7 10.0 65.1 10.0 65.5 10.0 65.9 10.0 66.3 10.0 66.7 10.0 67.1 10.0 67.5 10.0 67.9 10.0 68.3 10.0 68.7 10.0 69.1 10.0 69.5 10.0 69.9 10.0 70.3 10.0 70.7 10.0 71.1 10.0 71.5 10.0 71.9 10.0 72.3 10.0 72.7 10.0 73.1 10.0 73.5 10.0 73.9 10.0 74.3 10.0 74.7 10.0 75.1 10.0 75.5 10.0 75.9 10.0 76.3 10.0 76.7 10.0 77.1 10.0 77.5 10.0 77.9 10.0 78.3 10.0 78.7 10.0 79.1 10.0 79.5 10.0 79.9 10.0 80.3 10.0 80.7 10.0 81.1 10.0 81.5 10.0 81.9 10.0 82.3 10.0 82.7 10.0 83.1 10.0 83.5 10.0 83.9 10.0 84.3 10.0 84.7 10.0 85.2 10.0 85.6 10.0 86.0 10.0 86.4 10.0 86.8 10.0 87.2 10.0 87.6 10.0 88.0 10.0 88.4 10.0 88.8 10.0 89.2 10.0 89.6 10.0 90.0 10.0 90.4 10.0 90.8 10.0 91.2 10.0 91.6 10.0 92.0 10.0 92.4 10.0 92.8 10.0 93.2 10.0 93.6 10.0 94.0 10.0 94.4 10.0 94.8 10.0 95.2 10.0 95.6 10.0 96.0 10.0 96.4 10.0 96.8 10.0 97.2 10.0 97.6 10.0 98.0 10.0 98.4 10.0 98.8 10.0 99.2 10.0 99.6 10.0 100.0 10.0 100.4 10.0 100.8 10.0 101.2 10.0 101.6 10.0 102.0 10.0 102.4 10.0 102.8 10.0 103.2 10.0 103.6 10.0 104.0 10.0 104.4 10.0 104.8 10.0 105.2 10.0 105.6 10.0 106.0 10.0 106.4 10.0 106.8 10.0 107.2 10.0 107.6 10.0 108.0 10.0 108.4 10.0 108.8 10.0 109.2 10.0 109.6 10.0 110.0 10.0" stroke="#B36E3E" stroke-width="0.2" fill="transparent" />
        <path d="M -90.0 10.0 L  -90.0 10.0 -89.6 10.0 -89.2 10.0 -88.8 10.0 -88.4 10.0 -88.0 10.0 -87.6 10.0 -87.2 10.0 -86.8 10.0 -86.4 10.0 -86.0 10.0 -85.6 10.0 -85.2 10.0 -84.8 10.0 -84.4 10.0 -84.0 10.0 -83.6 10.0 -83.2 10.0 -82.8 10.0 -82.4 10.0 -82.0 10.0 -81.6 10.0 -81.2 10.0 -80.8 10.0 -80.4 10.0 -80.0 10.0 -79.6 10.0 -79.2 10.0 -78.8 10.0 -78.4 10.0 -78.0 10.0 -77.6 10.0 -77.2 10.0 -76.8 10.0 -76.4 10.0 -76.0 10.0 -75.6 10.0 -75.2 10.0 -74.8 10.0 -74.4 10.0 -74.0 10.0 -73.6 10.0 -73.2 10.0 -72.8 10.0 -72.4 10.0 -72.0 10.0 -71.6 10.0 -71.2 10.0 -70.8 10.0 -70.4 10.0 -70.0 10.0 -69.6 10.0 -69.2 10.0 -68.8 10.0 -68.4 10.0 -68.0 10.0 -67.6 10.0 -67.2 10.0 -66.8 10.0 -66.4 10.0 -66.0 10.0 -65.6 10.0 -65.2 10.0 -64.7 10.0 -64.3 10.0 -63.9 10.0 -63.5 10.0 -63.1 10.0 -62.7 10.0 -62.3 10.0 -61.9 10.0 -61.5 10.0 -61.1 10.0 -60.7 10.0 -60.3 10.0 -59.9 10.0 -59.5 10.0 -59.1 10.0 -58.7 10.0 -58.3 10.0 -57.9 10.0 -57.5 10.0 -57.1 10.0 -56.7 10.0 -56.3 10.0 -55.9 10.0 -55.5 10.0 -55.1 10.0 -54.7 10.0 -54.3 10.0 -53.9 10.0 -53.5 10.0 -53.1 10.0 -52.7 10.0 -52.3 10.0 -51.9 10.0 -51.5 10.0 -51.1 10.0 -50.7 10.0 -50.3 10.0 -49.9 10.0 -49.5 10.0 -49.1 10.0 -48.7 10.0 -48.3 10.0 -47.9 10.0 -47.5 10.0 -47.1 10.0 -46.7 10.0 -46.3 10.0 -45.9 10.0 -45.5 10.0 -45.1 10.0 -44.7 10.0 -44.3 10.0 -43.9 10.0 -43.5 10.0 -43.1 10.0 -42.7 10.0 -42.3 10.0 -41.9 10.0 -41.5 10.0 -41.1 10.0 -40.7 10.0 -40.3 10.0 -39.9 10.0 -39.5 10.0 -39.1 10.0 -38.7 10.0 -38.3 10.0 -37.9 10.0 -37.5 10.0 -37.1 10.0 -36.7 10.0 -36.3 10.0 -35.9 10.0 -35.5 10.0 -35.1 10.0 -34.7 10.0 -34.3 10.0 -33.9 10.0 -33.5 10.0 -33.1 10.0 -32.7 10.0 -32.3 10.0 -31.9 10.0 -31.5 10.0 -31.1 10.0 -30.7 10.0 -30.3 10.0 -29.9 10.0 -29.5 10.0 -29.1 10.0 -28.7 10.0 -28.3 10.0 -27.9 10.0 -27.5 10.0 -27.1 10.0 -26.7 10.0 -26.3 10.0 -25.9 10.0 -25.5 10.0 -25.1 10.0 -24.7 10.0 -24.3 10.0 -23.9 10.0 -23.5 10.0 -23.1 10.0 -22.7 10.0 -22.3 10.0 -21.9 10.0 -21.5 10.0 -21.1 10.0 -20.7 10.0 -20.3 10.0 -19.9 10.0 -19.5 10.0 -19.1 10.0 -18.7 10.0 -18.3 10.0 -17.9 10.0 -17.5 10.0 -17.1 10.0 -16.7 10.0 -16.3 10.0 -15.9 10.0 -15.5 10.0 -15.1 10.0 -14.6 10.0 -14.2 10.0 -13.8 10.0 -13.4 10.0 -13.0 10.0 -12.6 10.0 -12.2 10.0 -11.8 10.0 -11.4 10.0 -11.0 10.0 -10.6 10.0 -10.2 10.0 -9.8 10.0 -9.4 10.0 -9.0 10.0 -8.6 10.0 -8.2 10.0 -7.8 10.0 -7.4 10.0 -7.0 10.0 -6.6 10.0 -6.2 10.0 -5.8 10.0 -5.4 10.0 -5.0 10.0 -4.6 10.0 -4.2 10.0 -3.8 10.0 -3.4 10.0 -3.0 10.0 -2.6 10.0 -2.2 10.0 -1.8 10.0 -1.4 10.0 -1.0 10.0 -0.6 10.0 -0.2 10.0 0.2 10.0 0.6 10.0 1.0 10.0 1.4 10.0 1.8 10.0 2.2 10.0 2.6 10.0 3.0 10.0 3.4 10.0 3.8 10.0 4.2 10.0 4.6 10.0 5.0 10.0 5.4 10.0 5.8 10.0 6.2 10.0 6.6 10.0 7.0 10.0 7.4 10.0 7.8 10.0 8.2 10.0 8.6 10.0 9.0 10.0 9.4 10.0 9.8 10.0 10.2 10.0 10.6 10.0 11.0 10.0 11.4 10.0 11.8 10.0 12.2 10.0 12.6 10.0 13.0 10.0 13.4 10.0 13.8 10.0 14.2 10.0 14.6 10.0 15.0 10.0 15.4 10.0 15.8 10.0 16.2 10.0 16.6 10.0 17.0 10.0 17.4 10.0 17.8 10.0 18.2 10.0 18.6 10.0 19.0 10.0 19.4 10.0 19.8 10.0 20.2 10.0 20.6 10.0 21.0 10.0 21.4 10.0 21.8 10.0 22.2 10.0 22.6 10.0 23.0 10.0 23.4 10.0 23.8 10.0 24.2 10.0 24.6 10.0 25.0 10.0 25.4 10.0 25.8 10.0 26.2 10.0 26.6 10.0 27.0 10.0 27.4 10.0 27.8 10.0 28.2 10.0 28.6 10.0 29.0 10.0 29.4 10.0 29.8 10.0 30.2 10.0 30.6 10.0 31.0 10.0 31.4 10.0 31.8 10.0 32.2 10.0 32.6 10.0 33.0 10.0 33.4 10.0 33.8 10.0 34.2 10.0 34.6 10.0 35.1 10.0 35.5 10.0 35.9 10.0 36.3 10.0 36.7 10.0 37.1 10.0 37.5 10.0 37.9 10.0 38.3 10.0 38.7 10.0 39.1 10.0 39.5 10.0 39.9 10.0 40.3 10.0 40.7 10.0 41.1 10.0 41.5 10.0 41.9 10.0 42.3 10.0 42.7 10.0 43.1 10.0 43.5 10.0 43.9 10.0 44.3 10.0 44.7 10.0 45.1 10.0 45.5 10.0 45.9 10.0 46.3 10.0 46.7 10.0 47.1 10.0 47.5 10.0 47.9 10.0 48.3 10.0 48.7 10.0 49.1 10.0 49.5 10.0 49.9 10.0 50.3 10.0 50.7 10.0 51.1 10.0 51.5 10.0 51.9 10.0 52.3 10.0 52.7 10.0 53.1 10.0 53.5 10.0 53.9 10.0 54.3 10.0 54.7 10.0 55.1 10.0 55.5 10.0 55.9 10.0 56.3 10.0 56.7 10.0 57.1 10.0 57.5 10.0 57.9 10.0 58.3 10.0 58.7 10.0 59.1 10.0 59.5 10.0 59.9 10.0 60.3 10.0 60.7 10.0 61.1 10.0 61.5 10.0 61.9 10.0 62.3 10.0 62.7 10.0 63.1 10.0 63.5 10.0 63.9 10.0 64.3 10.0 64.7 10.0 65.1 10.0 65.5 10.0 65.9 10.0 66.3 10.0 66.7 10.0 67.1 10.0 67.5 10.0 67.9 10.0 68.3 10.0 68.7 10.0 69.1 10.0 69.5 10.0 69.9 10.0 70.3 10.0 70.7 10.0 71.1 10.0 71.5 10.0 71.9 10.0 72.3 10.0 72.7 10.0 73.1 10.0 73.5 10.0 73.9 10.0 74.3 10.0 74.7 10.0 75.1 10.0 75.5 10.0 75.9 10.0 76.3 10.0 76.7 10.0 77.1 10.0 77.5 10.0 77.9 10.0 78.3 10.0 78.7 10.0 79.1 10.0 79.5 10.0 79.9 10.0 80.3 10.0 80.7 10.0 81.1 10.0 81.5 10.0 81.9 10.0 82.3 10.0 82.7 10.0 83.1 10.0 83.5 10.0 83.9 10.0 84.3 10.0 84.7 10.0 85.2 10.0 85.6 10.0 86.0 10.0 86.4 10.0 86.8 10.0 87.2 10.0 87.6 10.0 88.0 10.0 88.4 10.0 88.8 10.0 89.2 10.0 89.6 10.0 90.0 10.0 90.4 10.0 90.8 10.0 91.2 10.0 91.6 10.0 92.0 10.0 92.4 10.0 92.8 10.0 93.2 10.0 93.6 10.0 94.0 10.0 94.4 10.0 94.8 10.0 95.2 10.0 95.6 10.0 96.0 10.0 96.4 10.0 96.8 10.0 97.2 10.0 97.6 10.0 98.0 10.0 98.4 10.0 98.8 10.0 99.2 10.0 99.6 10.0 100.0 10.0 100.4 10.0 100.8 10.0 101.2 10.0 101.6 10.0 102.0 10.0 102.4 10.0 102.8 10.0 103.2 10.0 103.6 10.0 104.0 10.0 104.4 10.0 104.8 10.0 105.2 10.0 105.6 10.0 106.0 10.0 106.4 10.0 106.8 10.0 107.2 10.0 107.6 10.0 108.0 10.0 108.4 9.9 108.8 9.9 109.2 9.9 109.6 9.8 110.0 9.7" stroke="#A15A73" stroke-width="0.2" fill="transparent" />
        <path d="M -90.0 10.0 L  -90.0 10.0 -89.6 10.0 -89.2 10.0 -88.8 10.0 -88.4 10.0 -88.0 10.0 -87.6 10.0 -87.2 10.0 -86.8 10.0 -86.4 10.0 -86.0 10.0 -85.6 10.0 -85.2 10.0 -84.8 10.0 -84.4 10.0 -84.0 10.0 -83.6 10.0 -83.2 10.0 -82.8 10.0 -82.4 10.0 -82.0 10.0 -81.6 10.0 -81.2 10.0 -80.8 10.0 -80.4 10.0 -80.0 10.0 -79.6 10.0 -79.2 10.0 -78.8 10.0 -78.4 10.0 -78.0 10.0 -77.6 10.0 -77.2 10.0 -76.8 10.0 -76.4 10.0 -76.0 10.0 -75.6 10.0 -75.2 10.0 -74.8 10.0 -74.4 10.0 -74.0 10.0 -73.6 10.0 -73.2 10.0 -72.8 10.0 -72.4 10.0 -72.0 10.0 -71.6 10.0 -71.2 10.0 -70.8 10.0 -70.4 10.0 -70.0 10.0 -69.6 10.0 -69.2 10.0 -68.8 10.0 -68.4 10.0 -68.0 10.0 -67.6 10.0 -67.2 10.0 -66.8 10.0 -66.4 10.0 -66.0 10.0 -65.6 10.0 -65.2 10.0 -64.7 10.0 -64.3 10.0 -63.9 10.0 -63.5 10.0 -63.1 10.0 -62.7 10.0 -62.3 10.0 -61.9 10.0 -61.5 10.0 -61.1 10.0 -60.7 10.0 -60.3 10.0 -59.9 10.0 -59.5 10.0 -59.1 10.0 -58.7 10.0 -58.3 10.0 -57.9 10.0 -57.5 10.0 -57.1 10.0 -56.7 10.0 -56.3 10.0 -55.9 10.0 -55.5 10.0 -55.1 10.0 -54.7 10.0 -54.3 10.0 -53.9 10.0 -53.5 10.0 -53.1 10.0 -52.7 10.0 -52.3 10.0 -51.9 10.0 -51.5 10.0 -51.1 10.0 -50.7 10.0 -50.3 10.0 -49.9 10.0 -49.5 10.0 -49.1 10.0 -48.7 10.0 -48.3 10.0 -47.9 10.0 -47.5 10.0 -47.1 10.0 -46.7 10.0 -46.3 10.0 -45.9 10.0 -45.5 10.0 -45.1 10.0 -44.7 10.0 -44.3 10.0 -43.9 10.0 -43.5 10.0 -43.1 10.0 -42.7 10.0 -42.3 10.0 -41.9 10.0 -41.5 10.0 -41.1 10.0 -40.7 10.0 -40.3 10.0 -39.9 10.0 -39.5 10.0 -39.1 10.0 -38.7 10.0 -38.3 10.0 -37.9 10.0 -37.5 10.0 -37.1 10.0 -36.7 10.0 -36.3 10.0 -35.9 10.0 -35.5 10.0 -35.1 10.0 -34.7 10.0 -34.3 10.0 -33.9 10.0 -33.5 10.0 -33.1 10.0 -32.7 10.0 -32.3 10.0 -31.9 10.0 -31.5 10.0 -31.1 10.0 -30.7 10.0 -30.3 10.0 -29.9 10.0 -29.5 10.0 -29.1 10.0 -28.7 10.0 -28.3 10.0 -27.9 10.0 -27.5 10.0 -27.1 10.0 -26.7 10.0 -26.3 10.0 -25.9 10.0 -25.5 10.0 -25.1 10.0 -24.7 10.0 -24.3 10.0 -23.9 10.0 -23.5 10.0 -23.1 10.0 -22.7 10.0 -22.3 10.0 -21.9 10.0 -21.5 10.0 -21.1 10.0 -20.7 10.0 -20.3 10.0 -19.9 10.0 -19.5 10.0 -19.1 10.0 -18.7 10.0 -18.3 10.0 -17.9 10.0 -17.5 10.0 -17.1 10.0 -16.7 10.0 -16.3 10.0 -15.9 10.0 -15.5 10.0 -15.1 10.0 -14.6 10.0 -14.2 10.0 -13.8 10.0 -13.4 10.0 -13.0 10.0 -12.6 10.0 -12.2 10.0 -11.8 10.0 -11.4 10.0 -11.0 10.0 -10.6 10.0 -10.2 10.0 -9.8 10.0 -9.4 10.0 -9.0 10.0 -8.6 10.0 -8.2 10.0 -7.8 10.0 -7.4 10.0 -7.0 10.0 -6.6 10.0 -6.2 10.0 -5.8 10.0 -5.4 10.0 -5.0 10.0 -4.6 10.0 -4.2 10.0 -3.8 10.0 -3.4 10.0 -3.0 10.0 -2.6 10.0 -2.2 10.0 -1.8 10.0 -1.4 10.0 -1.0 10.0 -0.6 10.0 -0.2 10.0 0.2 10.0 0.6 10.0 1.0 10.0 1.4 10.0 1.8 10.0 2.2 10.0 2.6 10.0 3.0 10.0 3.4 10.0 3.8 10.0 4.2 10.0 4.6 10.0 5.0 10.0 5.4 10.0 5.8 10.0 6.2 10.0 6.6 10.0 7.0 10.0 7.4 9.9 7.8 9.9 8.2 9.9 8.6 9.8 9.0 9.7 9.4 9.6 9.8 9.5 10.2 9.5 10.6 9.4 11.0 9.3 11.4 9.2 11.8 9.1 12.2 9.1 12.6 9.1 13.0 9.0 13.4 9.0 13.8 9.0 14.2 9.0 14.6 9.0 15.0 9.0 15.4 9.0 15.8 9.0 16.2 9.0 16.6 9.0 17.0 9.0 17.4 9.0 17.8 9.0 18.2 9.0 18.6 9.0 19.0 9.0 19.4 9.0 19.8 9.0 20.2 9.0 20.6 9.0 21.0 9.0 21.4 9.0 21.8 9.0 22.2 9.0 22.6 9.0 23.0 9.0 23.4 9.0 23.8 9.0 24.2 9.0 24.6 9.0 25.0 9.0 25.4 9.0 25.8 9.0 26.2 9.0 26.6 9.0 27.0 9.0 27.4 9.0 27.8 9.0 28.2 9.0 28.6 9.0 29.0 9.0 29.4 9.0 29.8 9.0 30.2 9.0 30.6 9.0 31.0 9.0 31.4 9.0 31.8 9.0 32.2 9.0 32.6 9.0 33.0 9.0 33.4 9.0 33.8 9.0 34.2 9.0 34.6 9.0 35.1 9.0 35.5 9.0 35.9 9.0 36.3 9.0 36.7 9.0 37.1 9.0 37.5 9.0 37.9 9.0 38.3 9.0 38.7 9.0 39.1 9.0 39.5 9.0 39.9 9.0 40.3 9.0 40.7 9.0 41.1 9.0 41.5 9.0 41.9 9.0 42.3 9.0 42.7 9.0 43.1 9.0 43.5 9.0 43.9 9.0 44.3 9.0 44.7 9.0 45.1 9.0 45.5 9.0 45.9 9.0 46.3 9.0 46.7 9.0 47.1 9.0 47.5 9.0 47.9 9.0 48.3 9.0 48.7 9.0 49.1 9.0 49.5 9.0 49.9 9.0 50.3 9.0 50.7 9.0 51.1 9.0 51.5 9.0 51.9 9.0 52.3 9.0 52.7 9.0 53.1 9.0 53.5 9.0 53.9 9.0 54.3 9.0 54.7 9.0 55.1 9.0 55.5 9.0 55.9 9.0 56.3 9.0 56.7 9.0 57.1 9.0 57.5 9.0 57.9 9.0 58.3 9.0 58.7 9.0 59.1 9.0 59.5 9.0 59.9 9.0 60.3 9.0 60.7 9.0 61.1 9.0 61.5 9.0 61.9 9.0 62.3 9.0 62.7 9.0 63.1 9.0 63.5 9.0 63.9 9.0 64.3 9.0 64.7 9.0 65.1 9.0 65.5 9.0 65.9 9.0 66.3 9.0 66.7 9.0 67.1 9.0 67.5 9.0 67.9 9.0 68.3 9.0 68.7 9.0 69.1 9.0 69.5 9.0 69.9 9.0 70.3 9.0 70.7 9.0 71.1 9.0 71.5 9.0 71.9 9.0 72.3 9.0 72.7 9.0 73.1 9.0 73.5 9.0 73.9 9.0 74.3 9.0 74.7 9.0 75.1 9.0 75.5 9.0 75.9 9.0 76.3 9.0 76.7 9.0 77.1 9.0 77.5 9.0 77.9 9.0 78.3 9.0 78.7 9.0 79.1 9.0 79.5 9.0 79.9 9.0 80.3 9.0 80.7 9.0 81.1 9.0 81.5 9.0 81.9 9.0 82.3 9.0 82.7 9.0 83.1 9.0 83.5 9.0 83.9 9.0 84.3 9.0 84.7 9.0 85.2 9.0 85.6 9.0 86.0 9.0 86.4 9.0 86.8 9.0 87.2 9.0 87.6 9.0 88.0 9.0 88.4 9.0 88.8 9.0 89.2 9.0 89.6 9.0 90.0 9.0 90.4 9.0 90.8 9.0 91.2 9.0 91.6 9.0 92.0 9.0 92.4 9.0 92.8 9.0 93.2 9.0 93.6 9.0 94.0 9.0 94.4 9.0 94.8 9.0 95.2 9.0 95.6 9.0 96.0 9.0 96.4 9.0 96.8 9.0 97.2 9.0 97.6 9.0 98.0 9.0 98.4 9.0 98.8 9.0 99.2 9.0 99.6 9.0 100.0 9.0 100.4 9.0 100.8 9.0 101.2 9.0 101.6 9.0 102.0 9.0 102.4 9.0 102.8 9.0 103.2 9.0 103.6 9.0 104.0 9.0 104.4 9.0 104.8 9.0 105.2 9.0 105.6 9.0 106.0 9.0 106.4 9.0 106.8 9.0 107.2 9.0 107.6 9.0 108.0 9.0 108.4 9.0 108.8 9.0 109.2 9.0 109.6 9.0 110.0 9.0" stroke="#BDF900" stroke-width="0.2" fill="transparent" />
    </g> 
</svg>