<?xml version="1.0" encoding="UTF-8" standalone="no"?>
<svg width="100" height="100" version="1.1" xmlns="http://www.w3.org/2000/svg">
    <g opacity="1.0">
        <style> path { stroke: red; stroke-width: 0.5; fill: red; } </style>
        <path d="M 50.0 13.6 L  0.0 44.9 1.0 37.6 2.0 34.7 3.0 32.5 4.0 30.7 5.1 29.2 6.1 27.8 7.1 26.6 8.1 25.5 9.1 24.4 10.1 23.5 11.1 22.6 12.1 21.8 13.1 21.0 14.1 20.3 15.2 19.6 16.2 19.0 17.2 18.4 18.2 17.8 19.2 17.3 20.2 16.8 21.2 16.4 22.2 15.9 23.2 15.5 24.2 15.1 25.3 14.8 26.3 14.5 27.3 14.1 28.3 13.9 29.3 13.6 30.3 13.3 31.3 13.1 32.3 12.9 33.3 12.7 34.3 12.6 35.4 12.4 36.4 12.3 37.4 12.2 38.4 12.2 39.4 12.1 40.4 12.1 41.4 12.0 42.4 12.1 43.4 12.1 44.4 12.1 45.5 12.2 46.5 12.4 47.5 12.5 48.5 12.8 49.5 13.1 50.5 13.1 51.5 12.8 52.5 12.5 53.5 12.4 54.5 12.2 55.6 12.1 56.6 12.1 57.6 12.1 58.6 12.0 59.6 12.1 60.6 12.1 61.6 12.2 62.6 12.2 63.6 12.3 64.6 12.4 65.7 12.6 66.7 12.7 67.7 12.9 68.7 13.1 69.7 13.3 70.7 13.6 71.7 13.9 72.7 14.1 73.7 14.5 74.7 14.8 75.8 15.1 76.8 15.5 77.8 15.9 78.8 16.4 79.8 16.8 80.8 17.3 81.8 17.8 82.8 18.4 83.8 19.0 84.8 19.6 85.9 20.3 86.9 21.0 87.9 21.8 88.9 22.6 89.9 23.5 90.9 24.4 91.9 25.5 92.9 26.6 93.9 27.8 94.9 29.2 96.0 30.7 97.0 32.5 98.0 34.7 99.0 37.6 100.0 44.9 100.0 44.9 99.0 52.2 98.0 55.2 97.0 57.5 96.0 59.4 94.9 61.1 93.9 62.5 92.9 63.9 91.9 65.1 90.9 66.3 89.9 67.3 88.9 68.3 87.9 69.3 86.9 70.1 85.9 71.0 84.8 71.8 83.8 72.5 82.8 73.3 81.8 73.9 80.8 74.6 79.8 75.2 78.8 75.8 77.8 76.4 76.8 77.0 75.8 77.5 74.7 78.0 73.7 78.5 72.7 78.9 71.7 79.4 70.7 79.8 69.7 80.2 68.7 80.6 67.7 81.0 66.7 81.3 65.7 81.7 64.6 82.0 63.6 82.3 62.6 82.6 61.6 82.9 60.6 83.2 59.6 83.4 58.6 83.7 57.6 83.9 56.6 84.2 55.6 84.4 54.5 84.7 53.5 84.9 52.5 85.2 51.5 85.5 50.5 85.8 49.5 85.8 48.5 85.5 47.5 85.2 46.5 84.9 45.5 84.7 44.4 84.4 43.4 84.2 42.4 83.9 41.4 83.7 40.4 83.4 39.4 83.2 38.4 82.9 37.4 82.6 36.4 82.3 35.4 82.0 34.3 81.7 33.3 81.3 32.3 81.0 31.3 80.6 30.3 80.2 29.3 79.8 28.3 79.4 27.3 78.9 26.3 78.5 25.3 78.0 24.2 77.5 23.2 77.0 22.2 76.4 21.2 75.8 20.2 75.2 19.2 74.6 18.2 73.9 17.2 73.3 16.2 72.5 15.2 71.8 14.1 71.0 13.1 70.1 12.1 69.3 11.1 68.3 10.1 67.3 9.1 66.3 8.1 65.1 7.1 63.9 6.1 62.5 5.1 61.1 4.0 59.4 3.0 57.5 2.0 55.2 1.0 52.2 0.0 44.9"/>
    </g> 
</svg>