<?xml version="1.0" encoding="UTF-8" standalone="no"?>
<svg width="100" height="100" version="1.1" xmlns="http://www.w3.org/2000/svg">
    <g opacity="1.0">
        <style> path { stroke: red; stroke-width: 0.5; fill: red; } </style>
        <path d="M 50.0 74.0 L  20.0 45.6 20.6 40.9 21.2 39.0 21.8 37.5 22.4 36.3 23.0 35.3 23.6 34.4 24.2 33.6 24.8 32.9 25.5 32.2 26.1 31.6 26.7 31.1 27.3 30.5 27.9 30.0 28.5 29.6 29.1 29.1 29.7 28.7 30.3 28.3 30.9 28.0 31.5 27.7 32.1 27.3 32.7 27.1 33.3 26.8 33.9 26.5 34.5 26.3 35.2 26.1 35.8 25.9 36.4 25.7 37.0 25.5 37.6 25.3 38.2 25.2 38.8 25.1 39.4 24.9 40.0 24.8 40.6 24.8 41.2 24.7 41.8 24.6 42.4 24.6 43.0 24.5 43.6 24.5 44.2 24.5 44.8 24.5 45.5 24.6 46.1 24.6 46.7 24.7 47.3 24.8 47.9 24.9 48.5 25.0 49.1 25.2 49.7 25.6 50.3 25.6 50.9 25.2 51.5 25.0 52.1 24.9 52.7 24.8 53.3 24.7 53.9 24.6 54.5 24.6 55.2 24.5 55.8 24.5 56.4 24.5 57.0 24.5 57.6 24.6 58.2 24.6 58.8 24.7 59.4 24.8 60.0 24.8 60.6 24.9 61.2 25.1 61.8 25.2 62.4 25.3 63.0 25.5 63.6 25.7 64.2 25.9 64.8 26.1 65.5 26.3 66.1 26.5 66.7 26.8 67.3 27.1 67.9 27.3 68.5 27.7 69.1 28.0 69.7 28.3 70.3 28.7 70.9 29.1 71.5 29.6 72.1 30.0 72.7 30.5 73.3 31.1 73.9 31.6 74.5 32.2 75.2 32.9 75.8 33.6 76.4 34.4 77.0 35.3 77.6 36.3 78.2 37.5 78.8 39.0 79.4 40.9 80.0 45.6 80.0 45.6 79.4 50.5 78.8 52.5 78.2 54.0 77.6 55.3 77.0 56.4 76.4 57.3 75.8 58.2 75.2 59.1 74.5 59.8 73.9 60.6 73.3 61.2 72.7 61.9 72.1 62.4 71.5 63.0 70.9 63.6 70.3 64.1 69.7 64.6 69.1 65.0 68.5 65.5 67.9 65.9 67.3 66.3 66.7 66.7 66.1 67.1 65.5 67.4 64.8 67.8 64.2 68.1 63.6 68.4 63.0 68.7 62.4 69.0 61.8 69.3 61.2 69.6 60.6 69.8 60.0 70.1 59.4 70.3 58.8 70.6 58.2 70.8 57.6 71.0 57.0 71.2 56.4 71.4 55.8 71.6 55.2 71.8 54.5 72.0 53.9 72.2 53.3 72.4 52.7 72.6 52.1 72.8 51.5 73.0 50.9 73.2 50.3 73.6 49.7 73.6 49.1 73.2 48.5 73.0 47.9 72.8 47.3 72.6 46.7 72.4 46.1 72.2 45.5 72.0 44.8 71.8 44.2 71.6 43.6 71.4 43.0 71.2 42.4 71.0 41.8 70.8 41.2 70.6 40.6 70.3 40.0 70.1 39.4 69.8 38.8 69.6 38.2 69.3 37.6 69.0 37.0 68.7 36.4 68.4 35.8 68.1 35.2 67.8 34.5 67.4 33.9 67.1 33.3 66.7 32.7 66.3 32.1 65.9 31.5 65.5 30.9 65.0 30.3 64.6 29.7 64.1 29.1 63.6 28.5 63.0 27.9 62.4 27.3 61.9 26.7 61.2 26.1 60.6 25.5 59.8 24.8 59.1 24.2 58.2 23.6 57.3 23.0 56.4 22.4 55.3 21.8 54.0 21.2 52.5 20.6 50.5 20.0 45.6"/>
    </g> 
</svg>