<?xml version='1.0' encoding='UTF-8' standalone='no'?>
<svg width="200" height="200" xmlns="http://www.w3.org/2000/svg">
  <g opacity="1.0">
    <line x1="82.02219556554158" y1="45.13533121352411" x2="61.47470527792192" y2="143.00156973774745" stroke="#96700F" stroke_width="0.1"/>
    <line x1="82.02219556554158" y1="45.13533121352411" x2="156.50309915653645" y2="111.86309904872843" stroke="#96700F" stroke_width="0.1"/>
    <line x1="61.47470527792192" y1="143.00156973774745" x2="156.50309915653645" y2="111.86309904872843" stroke="#96700F" stroke_width="0.1"/>
    <line x1="53.25345386782999" y1="66.1164677454337" x2="94.02927336368114" y2="157.42546261692357" stroke="#D6740B" stroke_width="0.1"/>
    <line x1="53.25345386782999" y1="66.1164677454337" x2="152.7172727684888" y2="76.45806963764275" stroke="#D6740B" stroke_width="0.1"/>
    <line x1="94.02927336368114" y1="157.42546261692357" x2="152.7172727684888" y2="76.45806963764275" stroke="#D6740B" stroke_width="0.1"/>
    <line x1="44.42832679230981" y1="84.34361247825599" x2="114.22700727852106" y2="155.95467448953877" stroke="#FA8A70" stroke_width="0.1"/>
    <line x1="44.42832679230981" y1="84.34361247825599" x2="141.34466592916908" y2="59.70171303220526" stroke="#FA8A70" stroke_width="0.1"/>
    <line x1="114.22700727852106" y1="155.95467448953877" x2="141.34466592916908" y2="59.70171303220526" stroke="#FA8A70" stroke_width="0.1"/>
    <line x1="42.782368565020576" y1="92.28793242352036" x2="121.92996928055605" y2="153.4079561553071" stroke="#FD26A8" stroke_width="0.1"/>
    <line x1="42.782368565020576" y1="92.28793242352036" x2="135.28766215442334" y2="54.3041114211726" stroke="#FD26A8" stroke_width="0.1"/>
    <line x1="121.92996928055605" y1="153.4079561553071" x2="135.28766215442334" y2="54.3041114211726" stroke="#FD26A8" stroke_width="0.1"/>
    <line x1="156.89789047177453" y1="90.20390929016676" x2="63.06739135162042" y2="55.623026784615284" stroke="#6BCF4A" stroke_width="0.1"/>
    <line x1="156.89789047177453" y1="90.20390929016676" x2="80.03471817660505" y2="154.17306392521792" stroke="#6BCF4A" stroke_width="0.1"/>
    <line x1="63.06739135162042" y1="55.623026784615284" x2="80.03471817660505" y2="154.17306392521792" stroke="#6BCF4A" stroke_width="0.1"/>
    <line x1="155.7896399376878" y1="85.13899704069466" x2="59.23517394268197" y2="59.11525602562811" stroke="#F96870" stroke_width="0.1"/>
    <line x1="155.7896399376878" y1="85.13899704069466" x2="84.97518611963022" y2="155.74574693367717" stroke="#F96870" stroke_width="0.1"/>
    <line x1="59.23517394268197" y1="59.11525602562811" x2="84.97518611963022" y2="155.74574693367717" stroke="#F96870" stroke_width="0.1"/>
    <line x1="68.86413087993111" y1="148.61986206758792" x2="157.67397023906096" y2="102.65452259309315" stroke="#F8A600" stroke_width="0.1"/>
    <line x1="68.86413087993111" y1="148.61986206758792" x2="73.46189888100793" y2="48.72561533931897" stroke="#F8A600" stroke_width="0.1"/>
    <line x1="157.67397023906096" y1="102.65452259309315" x2="73.46189888100793" y2="48.72561533931897" stroke="#F8A600" stroke_width="0.1"/>
    <line x1="48.03560126397938" y1="125.16017880177311" x2="147.77155337410454" y2="132.4223999968913" stroke="#4FBD14" stroke_width="0.1"/>
    <line x1="48.03560126397938" y1="125.16017880177311" x2="104.19284536191608" y2="42.41742120133564" stroke="#4FBD14" stroke_width="0.1"/>
    <line x1="147.77155337410454" y1="132.4223999968913" x2="104.19284536191608" y2="42.41742120133564" stroke="#4FBD14" stroke_width="0.1"/>
    <line x1="45.5623162770012" y1="80.7679453981618" x2="110.56339400933807" y2="156.7604443282187" stroke="#6FDF79" stroke_width="0.1"/>
    <line x1="45.5623162770012" y1="80.7679453981618" x2="143.8742897136607" y2="62.47161027361953" stroke="#6FDF79" stroke_width="0.1"/>
    <line x1="110.56339400933807" y1="156.7604443282187" x2="143.8742897136607" y2="62.47161027361953" stroke="#6FDF79" stroke_width="0.1"/>
    <line x1="117.00175357645732" y1="44.82506267644017" x2="43.716225837354344" y2="112.86351815568493" stroke="#A28B53" stroke_width="0.1"/>
    <line x1="117.00175357645732" y1="44.82506267644017" x2="139.2820205861883" y2="142.31141916787487" stroke="#A28B53" stroke_width="0.1"/>
    <line x1="43.716225837354344" y1="112.86351815568493" x2="139.2820205861883" y2="142.31141916787487" stroke="#A28B53" stroke_width="0.1"/>
    <line x1="59.334771056172826" y1="59.01619236479541" x2="84.83959591601175" y2="155.70902513366684" stroke="#407D4F" stroke_width="0.1"/>
    <line x1="59.334771056172826" y1="59.01619236479541" x2="155.8256330278154" y2="85.27478250153774" stroke="#407D4F" stroke_width="0.1"/>
    <line x1="84.83959591601175" y1="155.70902513366684" x2="155.8256330278154" y2="85.27478250153774" stroke="#407D4F" stroke_width="0.1"/>
    <line x1="156.18773958557065" y1="86.7232815199904" x2="60.40815472463204" y2="57.97834937767607" stroke="#C96130" stroke_width="0.1"/>
    <line x1="156.18773958557065" y1="86.7232815199904" x2="83.40410568979729" y2="155.29836910233348" stroke="#C96130" stroke_width="0.1"/>
    <line x1="60.40815472463204" y1="57.97834937767607" x2="83.40410568979729" y2="155.29836910233348" stroke="#C96130" stroke_width="0.1"/>
    <line x1="121.84121281933636" y1="153.4443145331081" x2="135.36352766384934" y2="54.36279758243833" stroke="#00D169" stroke_width="0.1"/>
    <line x1="121.84121281933636" y1="153.4443145331081" x2="42.795259516814355" y2="92.19288788445355" stroke="#00D169" stroke_width="0.1"/>
    <line x1="135.36352766384934" y1="54.36279758243833" x2="42.795259516814355" y2="92.19288788445355" stroke="#00D169" stroke_width="0.1"/>
    <line x1="154.93332731084473" y1="82.2330958269896" x2="57.14674598414689" y2="61.30979512090815" stroke="#8585E4" stroke_width="0.1"/>
    <line x1="154.93332731084473" y1="82.2330958269896" x2="87.9199267050084" y2="156.45710905210223" stroke="#8585E4" stroke_width="0.1"/>
    <line x1="57.14674598414689" y1="61.30979512090815" x2="87.9199267050084" y2="156.45710905210223" stroke="#8585E4" stroke_width="0.1"/>
    <line x1="135.7988448154091" y1="54.70346543922382" x2="42.872627959263475" y2="91.64555824410694" stroke="#82CC53" stroke_width="0.1"/>
    <line x1="135.7988448154091" y1="54.70346543922382" x2="121.3285272253274" y2="153.6509763166692" stroke="#82CC53" stroke_width="0.1"/>
    <line x1="42.872627959263475" y1="91.64555824410694" x2="121.3285272253274" y2="153.6509763166692" stroke="#82CC53" stroke_width="0.1"/>
    <line x1="70.97582084198622" y1="149.90922116740404" x2="157.73474299307483" y2="100.18106589112877" stroke="#18BA3C" stroke_width="0.1"/>
    <line x1="70.97582084198622" y1="149.90922116740404" x2="71.28943616493896" y2="49.90971294146723" stroke="#18BA3C" stroke_width="0.1"/>
    <line x1="157.73474299307483" y1="100.18106589112877" x2="71.28943616493896" y2="49.90971294146723" stroke="#18BA3C" stroke_width="0.1"/>
    <line x1="157.3895228490652" y1="93.69317825763578" x2="65.84337072943998" y2="53.45262617282414" stroke="#2B56E2" stroke_width="0.1"/>
    <line x1="157.3895228490652" y1="93.69317825763578" x2="76.76710642149484" y2="152.85419556954002" stroke="#2B56E2" stroke_width="0.1"/>
    <line x1="65.84337072943998" y1="53.45262617282414" x2="76.76710642149484" y2="152.85419556954002" stroke="#2B56E2" stroke_width="0.1"/>
    <line x1="155.87494857873074" y1="85.46303144883606" x2="59.4731416513112" y2="58.879359371251915" stroke="#F70A8F" stroke_width="0.1"/>
    <line x1="155.87494857873074" y1="85.46303144883606" x2="84.65190976995807" y2="155.657609179912" stroke="#F70A8F" stroke_width="0.1"/>
    <line x1="59.4731416513112" y1="58.879359371251915" x2="84.65190976995807" y2="155.657609179912" stroke="#F70A8F" stroke_width="0.1"/>
    <line x1="59.72355440444378" y1="141.36594328093503" x2="155.96218053057405" y2="114.19745341942607" stroke="#7541FB" stroke_width="0.1"/>
    <line x1="59.72355440444378" y1="141.36594328093503" x2="84.31426506498218" y2="44.43660329963896" stroke="#7541FB" stroke_width="0.1"/>
    <line x1="155.96218053057405" y1="114.19745341942607" x2="84.31426506498218" y2="44.43660329963896" stroke="#7541FB" stroke_width="0.1"/>
    <line x1="123.04962310604891" y1="47.065623570288196" x2="42.632673725356895" y2="106.50562905736074" stroke="#CA6ECC" stroke_width="0.1"/>
    <line x1="123.04962310604891" y1="47.065623570288196" x2="134.31770316859416" y2="146.42874737235104" stroke="#CA6ECC" stroke_width="0.1"/>
    <line x1="42.632673725356895" y1="106.50562905736074" x2="134.31770316859416" y2="146.42874737235104" stroke="#CA6ECC" stroke_width="0.1"/>
    <line x1="148.12903324982202" y1="68.11066805699967" x2="48.318511802736154" y2="74.26370051756835" stroke="#3A0AB6" stroke_width="0.1"/>
    <line x1="148.12903324982202" y1="68.11066805699967" x2="103.55245494744183" y2="157.62563142543192" stroke="#3A0AB6" stroke_width="0.1"/>
    <line x1="48.318511802736154" y1="74.26370051756835" x2="103.55245494744183" y2="157.62563142543192" stroke="#3A0AB6" stroke_width="0.1"/>
    <line x1="78.62622569918113" y1="46.36703340788439" x2="64.23937560131517" y2="145.3267148153219" stroke="#678709" stroke_width="0.1"/>
    <line x1="78.62622569918113" y1="46.36703340788439" x2="157.13439869950363" y2="108.3062517767937" stroke="#678709" stroke_width="0.1"/>
    <line x1="64.23937560131517" y1="145.3267148153219" x2="157.13439869950363" y2="108.3062517767937" stroke="#678709" stroke_width="0.1"/>
    <line x1="47.86896880850677" y1="75.18692037966883" x2="104.57675829841386" y2="157.5533371474777" stroke="#4512D6" stroke_width="0.1"/>
    <line x1="47.86896880850677" y1="75.18692037966883" x2="147.55427289307931" y2="67.2597424728535" stroke="#4512D6" stroke_width="0.1"/>
    <line x1="104.57675829841386" y1="157.5533371474777" x2="147.55427289307931" y2="67.2597424728535" stroke="#4512D6" stroke_width="0.1"/>
    <line x1="54.76442449432628" y1="64.12415796104813" x2="91.5483971649468" y2="157.1130785621985" stroke="#92219D" stroke_width="0.1"/>
    <line x1="54.76442449432628" y1="64.12415796104813" x2="153.68717834072686" y2="78.7627634767534" stroke="#92219D" stroke_width="0.1"/>
    <line x1="91.5483971649468" y1="157.1130785621985" x2="153.68717834072686" y2="78.7627634767534" stroke="#92219D" stroke_width="0.1"/>
    <line x1="44.9055658573937" y1="82.73915819435936" x2="112.59888957691389" y2="156.34360047744613" stroke="#10469B" stroke_width="0.1"/>
    <line x1="44.9055658573937" y1="82.73915819435936" x2="142.4955445656924" y2="60.91724132819456" stroke="#10469B" stroke_width="0.1"/>
    <line x1="112.59888957691389" y1="156.34360047744613" x2="142.4955445656924" y2="60.91724132819456" stroke="#10469B" stroke_width="0.1"/>
    <line x1="52.57285034603022" y1="67.07586282021519" x2="95.20043563160748" y2="157.53518501931657" stroke="#858DC5" stroke_width="0.1"/>
    <line x1="52.57285034603022" y1="67.07586282021519" x2="152.22671402236227" y2="75.38895216046825" stroke="#858DC5" stroke_width="0.1"/>
    <line x1="95.20043563160748" y1="157.53518501931657" x2="152.22671402236227" y2="75.38895216046825" stroke="#858DC5" stroke_width="0.1"/>
    <line x1="44.67196654328458" y1="116.49672837704233" x2="141.950602582208" y2="139.66711832642974" stroke="#261EB5" stroke_width="0.1"/>
    <line x1="44.67196654328458" y1="116.49672837704233" x2="113.37743087450743" y2="43.83615329652796" stroke="#261EB5" stroke_width="0.1"/>
    <line x1="141.950602582208" y1="139.66711832642974" x2="113.37743087450743" y2="43.83615329652796" stroke="#261EB5" stroke_width="0.1"/>
    <line x1="157.62204160556516" y1="103.61021530380845" x2="74.31551736344692" y2="48.29274049975248" stroke="#BD7A95" stroke_width="0.1"/>
    <line x1="157.62204160556516" y1="103.61021530380845" x2="68.06244103098797" y2="148.09704419643901" stroke="#BD7A95" stroke_width="0.1"/>
    <line x1="74.31551736344692" y1="48.29274049975248" x2="68.06244103098797" y2="148.09704419643901" stroke="#BD7A95" stroke_width="0.1"/>
    <line x1="45.911956742483774" y1="120.19447721300028" x2="144.53295191136232" y2="136.74438089550054" stroke="#3ECCD3" stroke_width="0.1"/>
    <line x1="45.911956742483774" y1="120.19447721300028" x2="109.5550913461539" y2="43.06114189149921" stroke="#3ECCD3" stroke_width="0.1"/>
    <line x1="144.53295191136232" y1="136.74438089550054" x2="109.5550913461539" y2="43.06114189149921" stroke="#3ECCD3" stroke_width="0.1"/>
    <line x1="48.16622003045393" y1="74.57181509816283" x2="103.89543588765412" y2="157.60346267871844" stroke="#E1E804" stroke_width="0.1"/>
    <line x1="48.16622003045393" y1="74.57181509816283" x2="147.9383440818919" y2="67.82472222311873" stroke="#E1E804" stroke_width="0.1"/>
    <line x1="103.89543588765412" y1="157.60346267871844" x2="147.9383440818919" y2="67.82472222311873" stroke="#E1E804" stroke_width="0.1"/>
    <line x1="143.3257256270428" y1="61.83961698012531" x2="45.28927607312279" y2="81.55901247952377" stroke="#577A2F" stroke_width="0.1"/>
    <line x1="143.3257256270428" y1="61.83961698012531" x2="111.3849982998344" y2="156.60137054035087" stroke="#577A2F" stroke_width="0.1"/>
    <line x1="45.28927607312279" y1="81.55901247952377" x2="111.3849982998344" y2="156.60137054035087" stroke="#577A2F" stroke_width="0.1"/>
    <line x1="157.1531415713942" y1="108.1762914486645" x2="78.50430531759184" y2="46.41578176875187" stroke="#047D38" stroke_width="0.1"/>
    <line x1="157.1531415713942" y1="108.1762914486645" x2="64.34255311101397" y2="145.4079267825836" stroke="#047D38" stroke_width="0.1"/>
    <line x1="78.50430531759184" y1="46.41578176875187" x2="64.34255311101397" y2="145.4079267825836" stroke="#047D38" stroke_width="0.1"/>
    <line x1="77.96176183656972" y1="153.36337125768253" x2="157.23315422244855" y2="92.4039884753411" stroke="#B90C62" stroke_width="0.1"/>
    <line x1="77.96176183656972" y1="153.36337125768253" x2="64.80508394098175" y2="54.23264026697642" stroke="#B90C62" stroke_width="0.1"/>
    <line x1="157.23315422244855" y1="92.4039884753411" x2="64.80508394098175" y2="54.23264026697642" stroke="#B90C62" stroke_width="0.1"/>
    <line x1="94.83929256773477" y1="157.50391666775312" x2="152.38020636751023" y2="75.71734540396432" stroke="#7D9329" stroke_width="0.1"/>
    <line x1="94.83929256773477" y1="157.50391666775312" x2="52.78050106475503" y2="66.7787379282826" stroke="#7D9329" stroke_width="0.1"/>
    <line x1="152.38020636751023" y1="75.71734540396432" x2="52.78050106475503" y2="66.7787379282826" stroke="#7D9329" stroke_width="0.1"/>
    <line x1="71.54695578429306" y1="49.762985675974335" x2="70.71999149296448" y2="149.75956626781692" stroke="#38AA2D" stroke_width="0.1"/>
    <line x1="71.54695578429306" y1="49.762985675974335" x2="157.7330527227424" y2="100.47744805620876" stroke="#38AA2D" stroke_width="0.1"/>
    <line x1="70.71999149296448" y1="149.75956626781692" x2="157.7330527227424" y2="100.47744805620876" stroke="#38AA2D" stroke_width="0.1"/>
    <line x1="108.31298499135866" y1="157.13341941339394" x2="145.32250012139085" y2="64.23403410950769" stroke="#F8EA0F" stroke_width="0.1"/>
    <line x1="108.31298499135866" y1="157.13341941339394" x2="46.36451488725052" y2="78.63254647709839" stroke="#F8EA0F" stroke_width="0.1"/>
    <line x1="145.32250012139085" y1="64.23403410950769" x2="46.36451488725052" y2="78.63254647709839" stroke="#F8EA0F" stroke_width="0.1"/>
    <line x1="153.44623933868698" y1="121.8365023271842" x2="92.18784607579607" y2="42.79594783236174" stroke="#E2CFAF" stroke_width="0.1"/>
    <line x1="153.44623933868698" y1="121.8365023271842" x2="54.36591458551697" y2="135.367549840454" stroke="#E2CFAF" stroke_width="0.1"/>
    <line x1="92.18784607579607" y1="42.79594783236174" x2="54.36591458551697" y2="135.367549840454" stroke="#E2CFAF" stroke_width="0.1"/>
    <line x1="76.67631875751415" y1="47.18580468631328" x2="65.92340579915715" y2="146.60599812260668" stroke="#A04818" stroke_width="0.1"/>
    <line x1="76.67631875751415" y1="47.18580468631328" x2="157.40027544332864" y2="106.20819719108003" stroke="#A04818" stroke_width="0.1"/>
    <line x1="65.92340579915715" y1="146.60599812260668" x2="157.40027544332864" y2="106.20819719108003" stroke="#A04818" stroke_width="0.1"/>
    <line x1="42.53886022026211" y1="105.61700530058128" x2="133.59503917336417" y2="146.95430412937094" stroke="#C91900" stroke_width="0.1"/>
    <line x1="42.53886022026211" y1="105.61700530058128" x2="123.8661006063737" y2="47.42869057004781" stroke="#C91900" stroke_width="0.1"/>
    <line x1="133.59503917336417" y1="146.95430412937094" x2="123.8661006063737" y2="47.42869057004781" stroke="#C91900" stroke_width="0.1"/>
    <line x1="53.460022005397875" y1="65.8332942530995" x2="93.68075385685744" y2="157.38815610834445" stroke="#CCAA34" stroke_width="0.1"/>
    <line x1="53.460022005397875" y1="65.8332942530995" x2="152.85922413774466" y2="76.77854963855609" stroke="#CCAA34" stroke_width="0.1"/>
    <line x1="93.68075385685744" y1="157.38815610834445" x2="152.85922413774466" y2="76.77854963855609" stroke="#CCAA34" stroke_width="0.1"/>
  </g>
</svg>
