<?xml version='1.0' encoding='UTF-8' standalone='no'?>
<svg width="200" height="200" xmlns="http://www.w3.org/2000/svg">
  <g opacity="1.0">
    <rect x="0" y="0" width="200" height="200" fill="white" stroke="black" stroke-width="1"/>
    <line x1="100" y1="100" x2="150.0" y2="100.0" stroke="black" stroke-width="0.5"/>
    <line x1="100" y1="100" x2="147.0" y2="117.1" stroke="black" stroke-width="0.5"/>
    <line x1="100" y1="100" x2="138.3" y2="132.1" stroke="black" stroke-width="0.5"/>
    <line x1="100" y1="100" x2="125.0" y2="143.3" stroke="black" stroke-width="0.5"/>
    <line x1="100" y1="100" x2="108.7" y2="149.2" stroke="black" stroke-width="0.5"/>
    <line x1="100" y1="100" x2="91.3" y2="149.2" stroke="black" stroke-width="0.5"/>
    <line x1="100" y1="100" x2="75.0" y2="143.3" stroke="black" stroke-width="0.5"/>
    <line x1="100" y1="100" x2="61.7" y2="132.1" stroke="black" stroke-width="0.5"/>
    <line x1="100" y1="100" x2="53.0" y2="117.1" stroke="black" stroke-width="0.5"/>
    <line x1="100" y1="100" x2="50.0" y2="100.0" stroke="black" stroke-width="0.5"/>
    <line x1="100" y1="100" x2="53.0" y2="82.9" stroke="black" stroke-width="0.5"/>
    <line x1="100" y1="100" x2="61.7" y2="67.9" stroke="black" stroke-width="0.5"/>
    <line x1="100" y1="100" x2="75.0" y2="56.7" stroke="black" stroke-width="0.5"/>
    <line x1="100" y1="100" x2="91.3" y2="50.8" stroke="black" stroke-width="0.5"/>
    <line x1="100" y1="100" x2="108.7" y2="50.8" stroke="black" stroke-width="0.5"/>
    <line x1="100" y1="100" x2="125.0" y2="56.7" stroke="black" stroke-width="0.5"/>
    <line x1="100" y1="100" x2="138.3" y2="67.9" stroke="black" stroke-width="0.5"/>
    <line x1="100" y1="100" x2="147.0" y2="82.9" stroke="black" stroke-width="0.5"/>
    <line x1="100" y1="100" x2="150.0" y2="100.0" stroke="black" stroke-width="0.5"/>
    <circle cx="150.0" cy="100.0" r="5" fill="#000000"/>
    <circle cx="147.0" cy="117.1" r="5" fill="#000000"/>
    <circle cx="138.3" cy="132.1" r="5" fill="#000000"/>
    <circle cx="125.0" cy="143.3" r="5" fill="#000000"/>
    <circle cx="108.7" cy="149.2" r="5" fill="#000000"/>
    <circle cx="91.3" cy="149.2" r="5" fill="#000000"/>
    <circle cx="75.0" cy="143.3" r="5" fill="#000000"/>
    <circle cx="61.7" cy="132.1" r="5" fill="#000000"/>
    <circle cx="53.0" cy="117.1" r="5" fill="#000000"/>
    <circle cx="50.0" cy="100.0" r="5" fill="#000000"/>
    <circle cx="53.0" cy="82.9" r="5" fill="#000000"/>
    <circle cx="61.7" cy="67.9" r="5" fill="#000000"/>
    <circle cx="75.0" cy="56.7" r="5" fill="#000000"/>
    <circle cx="91.3" cy="50.8" r="5" fill="#000000"/>
    <circle cx="108.7" cy="50.8" r="5" fill="#000000"/>
    <circle cx="125.0" cy="56.7" r="5" fill="#000000"/>
    <circle cx="138.3" cy="67.9" r="5" fill="#000000"/>
    <circle cx="147.0" cy="82.9" r="5" fill="#000000"/>
    <circle cx="150.0" cy="100.0" r="5" fill="#000000"/>
    <line x1="100" y1="100" x2="178.8" y2="113.9" stroke="black" stroke-width="0.5"/>
    <line x1="100" y1="100" x2="169.3" y2="140.0" stroke="black" stroke-width="0.5"/>
    <line x1="100" y1="100" x2="151.4" y2="161.3" stroke="black" stroke-width="0.5"/>
    <line x1="100" y1="100" x2="127.4" y2="175.2" stroke="black" stroke-width="0.5"/>
    <line x1="100" y1="100" x2="100.0" y2="180.0" stroke="black" stroke-width="0.5"/>
    <line x1="100" y1="100" x2="72.6" y2="175.2" stroke="black" stroke-width="0.5"/>
    <line x1="100" y1="100" x2="48.6" y2="161.3" stroke="black" stroke-width="0.5"/>
    <line x1="100" y1="100" x2="30.7" y2="140.0" stroke="black" stroke-width="0.5"/>
    <line x1="100" y1="100" x2="21.2" y2="113.9" stroke="black" stroke-width="0.5"/>
    <line x1="100" y1="100" x2="21.2" y2="86.1" stroke="black" stroke-width="0.5"/>
    <line x1="100" y1="100" x2="30.7" y2="60.0" stroke="black" stroke-width="0.5"/>
    <line x1="100" y1="100" x2="48.6" y2="38.7" stroke="black" stroke-width="0.5"/>
    <line x1="100" y1="100" x2="72.6" y2="24.8" stroke="black" stroke-width="0.5"/>
    <line x1="100" y1="100" x2="100.0" y2="20.0" stroke="black" stroke-width="0.5"/>
    <line x1="100" y1="100" x2="127.4" y2="24.8" stroke="black" stroke-width="0.5"/>
    <line x1="100" y1="100" x2="151.4" y2="38.7" stroke="black" stroke-width="0.5"/>
    <line x1="100" y1="100" x2="169.3" y2="60.0" stroke="black" stroke-width="0.5"/>
    <line x1="100" y1="100" x2="178.8" y2="86.1" stroke="black" stroke-width="0.5"/>
    <line x1="100" y1="100" x2="178.8" y2="113.9" stroke="black" stroke-width="0.5"/>
    <circle cx="178.8" cy="113.9" r="5" fill="#808B96"/>
    <circle cx="169.3" cy="140.0" r="5" fill="#808B96"/>
    <circle cx="151.4" cy="161.3" r="5" fill="#808B96"/>
    <circle cx="127.4" cy="175.2" r="5" fill="#808B96"/>
    <circle cx="100.0" cy="180.0" r="5" fill="#808B96"/>
    <circle cx="72.6" cy="175.2" r="5" fill="#808B96"/>
    <circle cx="48.6" cy="161.3" r="5" fill="#808B96"/>
    <circle cx="30.7" cy="140.0" r="5" fill="#808B96"/>
    <circle cx="21.2" cy="113.9" r="5" fill="#808B96"/>
    <circle cx="21.2" cy="86.1" r="5" fill="#808B96"/>
    <circle cx="30.7" cy="60.0" r="5" fill="#808B96"/>
    <circle cx="48.6" cy="38.7" r="5" fill="#808B96"/>
    <circle cx="72.6" cy="24.8" r="5" fill="#808B96"/>
    <circle cx="100.0" cy="20.0" r="5" fill="#808B96"/>
    <circle cx="127.4" cy="24.8" r="5" fill="#808B96"/>
    <circle cx="151.4" cy="38.7" r="5" fill="#808B96"/>
    <circle cx="169.3" cy="60.0" r="5" fill="#808B96"/>
    <circle cx="178.8" cy="86.1" r="5" fill="#808B96"/>
    <circle cx="178.8" cy="113.9" r="5" fill="#808B96"/>
  </g>
</svg>
