<?xml version='1.0' encoding='UTF-8' standalone='no'?>
<svg width="200" height="200" xmlns="http://www.w3.org/2000/svg">
  <g opacity="1.0">
    <rect x="0" y="0" width="200" height="200" fill="white" stroke="black" stroke-width="1"/>
    <circle cx="110.0" cy="100.0" r="2.0" fill="black"/>
    <circle cx="108.1" cy="105.9" r="2.0" fill="black"/>
    <circle cx="103.1" cy="109.5" r="2.0" fill="black"/>
    <circle cx="96.9" cy="109.5" r="2.0" fill="black"/>
    <circle cx="91.9" cy="105.9" r="2.0" fill="black"/>
    <circle cx="90.0" cy="100.0" r="2.0" fill="black"/>
    <circle cx="91.9" cy="94.1" r="2.0" fill="black"/>
    <circle cx="96.9" cy="90.5" r="2.0" fill="black"/>
    <circle cx="103.1" cy="90.5" r="2.0" fill="black"/>
    <circle cx="108.1" cy="94.1" r="2.0" fill="black"/>
    <circle cx="110.0" cy="100.0" r="2.0" fill="black"/>
    <circle cx="114.1" cy="114.1" r="2.5" fill="black"/>
    <circle cx="103.1" cy="119.8" r="2.5" fill="black"/>
    <circle cx="90.9" cy="117.8" r="2.5" fill="black"/>
    <circle cx="82.2" cy="109.1" r="2.5" fill="black"/>
    <circle cx="80.2" cy="96.9" r="2.5" fill="black"/>
    <circle cx="85.9" cy="85.9" r="2.5" fill="black"/>
    <circle cx="96.9" cy="80.2" r="2.5" fill="black"/>
    <circle cx="109.1" cy="82.2" r="2.5" fill="black"/>
    <circle cx="117.8" cy="90.9" r="2.5" fill="black"/>
    <circle cx="119.8" cy="103.1" r="2.5" fill="black"/>
    <circle cx="114.1" cy="114.1" r="2.5" fill="black"/>
    <circle cx="100.0" cy="130.0" r="3.0" fill="black"/>
    <circle cx="82.4" cy="124.3" r="3.0" fill="black"/>
    <circle cx="71.5" cy="109.3" r="3.0" fill="black"/>
    <circle cx="71.5" cy="90.7" r="3.0" fill="black"/>
    <circle cx="82.4" cy="75.7" r="3.0" fill="black"/>
    <circle cx="100.0" cy="70.0" r="3.0" fill="black"/>
    <circle cx="117.6" cy="75.7" r="3.0" fill="black"/>
    <circle cx="128.5" cy="90.7" r="3.0" fill="black"/>
    <circle cx="128.5" cy="109.3" r="3.0" fill="black"/>
    <circle cx="117.6" cy="124.3" r="3.0" fill="black"/>
    <circle cx="100.0" cy="130.0" r="3.0" fill="black"/>
    <circle cx="71.7" cy="128.3" r="3.5" fill="black"/>
    <circle cx="60.5" cy="106.3" r="3.5" fill="black"/>
    <circle cx="64.4" cy="81.8" r="3.5" fill="black"/>
    <circle cx="81.8" cy="64.4" r="3.5" fill="black"/>
    <circle cx="106.3" cy="60.5" r="3.5" fill="black"/>
    <circle cx="128.3" cy="71.7" r="3.5" fill="black"/>
    <circle cx="139.5" cy="93.7" r="3.5" fill="black"/>
    <circle cx="135.6" cy="118.2" r="3.5" fill="black"/>
    <circle cx="118.2" cy="135.6" r="3.5" fill="black"/>
    <circle cx="93.7" cy="139.5" r="3.5" fill="black"/>
    <circle cx="71.7" cy="128.3" r="3.5" fill="black"/>
    <circle cx="50.0" cy="100.0" r="4.0" fill="black"/>
    <circle cx="59.5" cy="70.6" r="4.0" fill="black"/>
    <circle cx="84.5" cy="52.4" r="4.0" fill="black"/>
    <circle cx="115.5" cy="52.4" r="4.0" fill="black"/>
    <circle cx="140.5" cy="70.6" r="4.0" fill="black"/>
    <circle cx="150.0" cy="100.0" r="4.0" fill="black"/>
    <circle cx="140.5" cy="129.4" r="4.0" fill="black"/>
    <circle cx="115.5" cy="147.6" r="4.0" fill="black"/>
    <circle cx="84.5" cy="147.6" r="4.0" fill="black"/>
    <circle cx="59.5" cy="129.4" r="4.0" fill="black"/>
    <circle cx="50.0" cy="100.0" r="4.0" fill="black"/>
    <circle cx="57.6" cy="57.6" r="4.5" fill="black"/>
    <circle cx="90.6" cy="40.7" r="4.5" fill="black"/>
    <circle cx="127.2" cy="46.5" r="4.5" fill="black"/>
    <circle cx="153.5" cy="72.8" r="4.5" fill="black"/>
    <circle cx="159.3" cy="109.4" r="4.5" fill="black"/>
    <circle cx="142.4" cy="142.4" r="4.5" fill="black"/>
    <circle cx="109.4" cy="159.3" r="4.5" fill="black"/>
    <circle cx="72.8" cy="153.5" r="4.5" fill="black"/>
    <circle cx="46.5" cy="127.2" r="4.5" fill="black"/>
    <circle cx="40.7" cy="90.6" r="4.5" fill="black"/>
    <circle cx="57.6" cy="57.6" r="4.5" fill="black"/>
    <circle cx="100.0" cy="30.0" r="5.0" fill="black"/>
    <circle cx="141.1" cy="43.4" r="5.0" fill="black"/>
    <circle cx="166.6" cy="78.4" r="5.0" fill="black"/>
    <circle cx="166.6" cy="121.6" r="5.0" fill="black"/>
    <circle cx="141.1" cy="156.6" r="5.0" fill="black"/>
    <circle cx="100.0" cy="170.0" r="5.0" fill="black"/>
    <circle cx="58.9" cy="156.6" r="5.0" fill="black"/>
    <circle cx="33.4" cy="121.6" r="5.0" fill="black"/>
    <circle cx="33.4" cy="78.4" r="5.0" fill="black"/>
    <circle cx="58.9" cy="43.4" r="5.0" fill="black"/>
    <circle cx="100.0" cy="30.0" r="5.0" fill="black"/>
    <circle cx="156.6" cy="43.4" r="5.5" fill="black"/>
    <circle cx="179.0" cy="87.5" r="5.5" fill="black"/>
    <circle cx="171.3" cy="136.3" r="5.5" fill="black"/>
    <circle cx="136.3" cy="171.3" r="5.5" fill="black"/>
    <circle cx="87.5" cy="179.0" r="5.5" fill="black"/>
    <circle cx="43.4" cy="156.6" r="5.5" fill="black"/>
    <circle cx="21.0" cy="112.5" r="5.5" fill="black"/>
    <circle cx="28.7" cy="63.7" r="5.5" fill="black"/>
    <circle cx="63.7" cy="28.7" r="5.5" fill="black"/>
    <circle cx="112.5" cy="21.0" r="5.5" fill="black"/>
    <circle cx="156.6" cy="43.4" r="5.5" fill="black"/>
    <circle cx="190.0" cy="100.0" r="6.0" fill="black"/>
    <circle cx="172.8" cy="152.9" r="6.0" fill="black"/>
    <circle cx="127.8" cy="185.6" r="6.0" fill="black"/>
    <circle cx="72.2" cy="185.6" r="6.0" fill="black"/>
    <circle cx="27.2" cy="152.9" r="6.0" fill="black"/>
    <circle cx="10.0" cy="100.0" r="6.0" fill="black"/>
    <circle cx="27.2" cy="47.1" r="6.0" fill="black"/>
    <circle cx="72.2" cy="14.4" r="6.0" fill="black"/>
    <circle cx="127.8" cy="14.4" r="6.0" fill="black"/>
    <circle cx="172.8" cy="47.1" r="6.0" fill="black"/>
    <circle cx="190.0" cy="100.0" r="6.0" fill="black"/>
  </g>
</svg>
