<?xml version='1.0' encoding='UTF-8' standalone='no'?>
<svg width="200" height="200" xmlns="http://www.w3.org/2000/svg">
  <g opacity="1.0">
    <rect x="0" y="0" width="200" height="200" fill="white" stroke="black" stroke-width="1"/>
    <style> text { fill:red;font-family:KaiTi;font-size:12px; } </style>
    <text x="150" y="20">过</text>
    <text x="150" y="35">故</text>
    <text x="150" y="50">人</text>
    <text x="150" y="65">庄</text>
    <text x="125" y="20">孟</text>
    <text x="125" y="35">浩</text>
    <text x="125" y="50">然</text>
    <text x="100" y="20">故</text>
    <text x="100" y="35">人</text>
    <text x="100" y="50">具</text>
    <text x="100" y="65">鸡</text>
    <text x="100" y="80">黍</text>
    <text x="100" y="95">，</text>
    <text x="100" y="110">邀</text>
    <text x="100" y="125">我</text>
    <text x="100" y="140">至</text>
    <text x="100" y="155">田</text>
    <text x="100" y="170">家</text>
    <text x="100" y="185">。</text>
    <text x="75" y="20">绿</text>
    <text x="75" y="35">树</text>
    <text x="75" y="50">村</text>
    <text x="75" y="65">边</text>
    <text x="75" y="80">合</text>
    <text x="75" y="95">，</text>
    <text x="75" y="110">青</text>
    <text x="75" y="125">山</text>
    <text x="75" y="140">郭</text>
    <text x="75" y="155">外</text>
    <text x="75" y="170">斜</text>
    <text x="75" y="185">。</text>
    <text x="50" y="20">开</text>
    <text x="50" y="35">轩</text>
    <text x="50" y="50">面</text>
    <text x="50" y="65">场</text>
    <text x="50" y="80">圃</text>
    <text x="50" y="95">，</text>
    <text x="50" y="110">把</text>
    <text x="50" y="125">酒</text>
    <text x="50" y="140">话</text>
    <text x="50" y="155">桑</text>
    <text x="50" y="170">麻</text>
    <text x="50" y="185">。</text>
    <text x="25" y="20">待</text>
    <text x="25" y="35">到</text>
    <text x="25" y="50">重</text>
    <text x="25" y="65">阳</text>
    <text x="25" y="80">日</text>
    <text x="25" y="95">，</text>
    <text x="25" y="110">还</text>
    <text x="25" y="125">来</text>
    <text x="25" y="140">就</text>
    <text x="25" y="155">菊</text>
    <text x="25" y="170">花</text>
    <text x="25" y="185">。</text>
  </g>
</svg>
