<?xml version='1.0' encoding='UTF-8' standalone='no'?>
<svg width="200" height="200" xmlns="http://www.w3.org/2000/svg">
  <g opacity="1.0">
    <rect x="0" y="0" width="200" height="200" fill="white" stroke="black" stroke-width="1"/>
    <style> text { fill:red;font-family:Microsoft YaHei;font-size:24px; } </style>
    <text x="144" y="42">红</text>
    <text x="144" y="68">楼</text>
    <text x="144" y="94">梦</text>
    <text x="114" y="42">可</text>
    <text x="114" y="68">叹</text>
    <text x="114" y="94">停</text>
    <text x="114" y="120">机</text>
    <text x="114" y="146">德</text>
    <text x="114" y="172">，</text>
    <text x="84" y="42">堪</text>
    <text x="84" y="68">怜</text>
    <text x="84" y="94">咏</text>
    <text x="84" y="120">絮</text>
    <text x="84" y="146">才</text>
    <text x="84" y="172">。</text>
    <text x="54" y="42">玉</text>
    <text x="54" y="68">带</text>
    <text x="54" y="94">林</text>
    <text x="54" y="120">中</text>
    <text x="54" y="146">挂</text>
    <text x="54" y="172">，</text>
    <text x="24" y="42">金</text>
    <text x="24" y="68">簪</text>
    <text x="24" y="94">雪</text>
    <text x="24" y="120">里</text>
    <text x="24" y="146">埋</text>
    <text x="24" y="172">。</text>
  </g>
</svg>
