<?xml version='1.0' encoding='UTF-8' standalone='no'?>
<svg width="200" height="200" xmlns="http://www.w3.org/2000/svg">
  <g opacity="1.0">
    <rect x="0" y="0" width="200" height="200" fill="white" stroke="black" stroke_width="1"/>
    <circle cx="65.13587407213485" cy="184.4960823118913" r="2" fill="black"/>
    <circle cx="143.73365402414558" cy="78.21288937653085" r="2" fill="black"/>
    <circle cx="174.4379503791255" cy="48.95993724673436" r="2" fill="black"/>
    <circle cx="92.9395732113868" cy="118.03711127922173" r="2" fill="black"/>
    <circle cx="28.8816334805315" cy="69.45936040866272" r="2" fill="black"/>
    <circle cx="8.70832191314571" cy="38.968967874421395" r="2" fill="black"/>
    <circle cx="89.28498440810642" cy="105.5857867606284" r="2" fill="black"/>
    <circle cx="177.5391950929225" cy="115.18844465882377" r="2" fill="black"/>
    <circle cx="147.95069389745484" cy="3.5030410816844544" r="2" fill="black"/>
    <circle cx="41.7065870907961" cy="22.928109244242275" r="2" fill="black"/>
    <circle cx="160.54446018168213" cy="103.06481043191759" r="2" fill="black"/>
    <circle cx="154.2683321772889" cy="22.252271832552957" r="2" fill="black"/>
    <circle cx="190.42195393266675" cy="143.9086829376827" r="2" fill="black"/>
    <circle cx="86.20990966193479" cy="140.99567492844108" r="2" fill="black"/>
    <circle cx="165.5191582443635" cy="55.288640956377215" r="2" fill="black"/>
    <circle cx="8.860705428325886" cy="97.69686411331145" r="2" fill="black"/>
    <circle cx="64.15237625580104" cy="174.63422464930463" r="2" fill="black"/>
    <circle cx="11.844840599455692" cy="86.9804701975892" r="2" fill="black"/>
    <circle cx="24.587338756887014" cy="52.47512208332908" r="2" fill="black"/>
    <circle cx="42.58166052123296" cy="164.74295938439474" r="2" fill="black"/>
    <circle cx="180.00917048685272" cy="66.64614034727946" r="2" fill="black"/>
    <circle cx="25.005720845246405" cy="29.899309336643903" r="2" fill="black"/>
    <circle cx="168.6636520695634" cy="42.78859041108587" r="2" fill="black"/>
    <circle cx="83.68324944143349" cy="50.4232031815502" r="2" fill="black"/>
    <circle cx="173.6084696612107" cy="187.30211941750602" r="2" fill="black"/>
    <circle cx="80.39417905286244" cy="104.30986218252994" r="2" fill="black"/>
    <circle cx="51.85799877070483" cy="153.48893590023212" r="2" fill="black"/>
    <circle cx="26.218712286159914" cy="139.19880920796402" r="2" fill="black"/>
    <circle cx="69.94800472632815" cy="112.2784072432" r="2" fill="black"/>
    <circle cx="65.1661015588244" cy="183.53983253313527" r="2" fill="black"/>
    <circle cx="40.505252102515925" cy="134.71827881409433" r="2" fill="black"/>
    <circle cx="105.02728811842081" cy="46.68390706260232" r="2" fill="black"/>
    <circle cx="52.75248015655826" cy="67.5388266459609" r="2" fill="black"/>
    <circle cx="29.687517348932072" cy="50.03375689097978" r="2" fill="black"/>
    <circle cx="188.9692615337679" cy="193.29377845890144" r="2" fill="black"/>
    <circle cx="183.49866483908292" cy="13.222556321693494" r="2" fill="black"/>
    <circle cx="50.75138319981682" cy="162.54932942813986" r="2" fill="black"/>
    <circle cx="36.63446012550325" cy="125.98138207595116" r="2" fill="black"/>
    <circle cx="178.842362669372" cy="54.93573000942119" r="2" fill="black"/>
    <circle cx="33.20676762747398" cy="83.63216212294209" r="2" fill="black"/>
    <circle cx="44.43455654771034" cy="22.84598598389959" r="2" fill="black"/>
    <circle cx="159.0241285055588" cy="134.98386484135472" r="2" fill="black"/>
    <circle cx="109.1835181635448" cy="112.16420951887413" r="2" fill="black"/>
    <circle cx="94.75658752993785" cy="131.04547073917405" r="2" fill="black"/>
    <circle cx="50.69007855526117" cy="50.24236147456999" r="2" fill="black"/>
    <circle cx="191.54476667272868" cy="158.3636095344444" r="2" fill="black"/>
    <circle cx="141.2281256918874" cy="126.71844027976503" r="2" fill="black"/>
    <circle cx="125.87838858037776" cy="162.59455811664017" r="2" fill="black"/>
    <circle cx="172.0829478000807" cy="171.0179915318353" r="2" fill="black"/>
    <circle cx="98.14933850632747" cy="123.81084783008377" r="2" fill="black"/>
    <circle cx="50.73210554953916" cy="166.48000816995" r="2" fill="black"/>
    <circle cx="174.2421186326426" cy="29.63183534734308" r="2" fill="black"/>
    <circle cx="73.74259160014105" cy="127.1357926496739" r="2" fill="black"/>
    <circle cx="127.56541501606563" cy="168.8033505545571" r="2" fill="black"/>
    <circle cx="43.90354831637141" cy="153.8060309495157" r="2" fill="black"/>
    <circle cx="193.7276841588418" cy="192.9212010821776" r="2" fill="black"/>
    <circle cx="139.89864622400188" cy="109.40211475512906" r="2" fill="black"/>
    <circle cx="167.33144170293144" cy="165.4715899537378" r="2" fill="black"/>
    <circle cx="57.85156656145528" cy="35.456810549938474" r="2" fill="black"/>
    <circle cx="176.22270378227756" cy="183.16057965787235" r="2" fill="black"/>
    <circle cx="116.47025709811382" cy="192.80500294195522" r="2" fill="black"/>
    <circle cx="190.65679898689402" cy="179.87620543255517" r="2" fill="black"/>
    <circle cx="127.60439470284068" cy="35.672270438095524" r="2" fill="black"/>
    <circle cx="81.30713300213542" cy="167.6643077239134" r="2" fill="black"/>
    <circle cx="102.5591554249166" cy="51.46317867868716" r="2" fill="black"/>
    <circle cx="24.492393283191866" cy="158.86091786223082" r="2" fill="black"/>
    <circle cx="158.18603616358772" cy="60.2815183640261" r="2" fill="black"/>
    <circle cx="93.29949822457655" cy="88.06866399728725" r="2" fill="black"/>
    <circle cx="43.672394642213334" cy="70.36881995481275" r="2" fill="black"/>
    <circle cx="112.33767321395226" cy="153.16263823688848" r="2" fill="black"/>
    <circle cx="56.14366347296602" cy="190.566913314755" r="2" fill="black"/>
    <circle cx="72.00082003748165" cy="147.31276944722123" r="2" fill="black"/>
    <circle cx="33.416452682140914" cy="78.77973720305957" r="2" fill="black"/>
    <circle cx="89.06812483930803" cy="5.98519217096681" r="2" fill="black"/>
    <circle cx="138.6918705494214" cy="142.4219077484291" r="2" fill="black"/>
    <circle cx="46.303967970592176" cy="193.67255098773938" r="2" fill="black"/>
    <circle cx="158.12295536601377" cy="183.81233821144778" r="2" fill="black"/>
    <circle cx="112.04281452766845" cy="26.643981287341465" r="2" fill="black"/>
    <circle cx="59.144140605364534" cy="103.24278614724622" r="2" fill="black"/>
    <circle cx="180.8674139873232" cy="48.44534546823083" r="2" fill="black"/>
    <circle cx="179.35867627049586" cy="76.60086647056859" r="2" fill="black"/>
    <circle cx="123.6412597552881" cy="101.05860613309959" r="2" fill="black"/>
    <circle cx="173.91716967116173" cy="179.57511003840824" r="2" fill="black"/>
    <circle cx="165.907250972762" cy="69.43143781906677" r="2" fill="black"/>
    <circle cx="132.92269952326424" cy="53.33132370361667" r="2" fill="black"/>
    <circle cx="47.23528300458782" cy="123.8877598819134" r="2" fill="black"/>
    <circle cx="117.20591532925667" cy="71.51519356900685" r="2" fill="black"/>
    <circle cx="114.80558814309256" cy="166.4751319961658" r="2" fill="black"/>
    <circle cx="35.820618700677855" cy="70.84648514328714" r="2" fill="black"/>
    <circle cx="41.853978588882164" cy="142.99365202311108" r="2" fill="black"/>
    <circle cx="44.74891469007232" cy="54.31312214573204" r="2" fill="black"/>
    <circle cx="128.27771068887284" cy="161.93157250362896" r="2" fill="black"/>
    <circle cx="158.04582206159867" cy="152.95045161647863" r="2" fill="black"/>
    <circle cx="9.013690627144674" cy="124.44012440433677" r="2" fill="black"/>
    <circle cx="136.07876722156982" cy="100.39442374411742" r="2" fill="black"/>
    <circle cx="63.77891203817944" cy="159.49608358107818" r="2" fill="black"/>
    <circle cx="166.45106170452553" cy="33.38700311929361" r="2" fill="black"/>
    <circle cx="118.59130250624129" cy="9.56456985025425" r="2" fill="black"/>
    <circle cx="106.53822888685015" cy="102.6575637381635" r="2" fill="black"/>
    <circle cx="33.6081960995236" cy="10.40032326003412" r="2" fill="black"/>
    <line x1="65.1" y1="184.5" x2="64.2" y2="174.6" stroke="black" stroke_width="2"/>
    <line x1="65.1" y1="184.5" x2="65.2" y2="183.5" stroke="black" stroke_width="2"/>
    <line x1="143.7" y1="78.2" x2="136.1" y2="100.4" stroke="black" stroke_width="2"/>
    <line x1="143.7" y1="78.2" x2="158.2" y2="60.3" stroke="black" stroke_width="2"/>
    <line x1="174.4" y1="49.0" x2="178.8" y2="54.9" stroke="black" stroke_width="2"/>
    <line x1="174.4" y1="49.0" x2="180.9" y2="48.4" stroke="black" stroke_width="2"/>
    <line x1="92.9" y1="118.0" x2="98.1" y2="123.8" stroke="black" stroke_width="2"/>
    <line x1="92.9" y1="118.0" x2="89.3" y2="105.6" stroke="black" stroke_width="2"/>
    <line x1="28.9" y1="69.5" x2="33.4" y2="78.8" stroke="black" stroke_width="2"/>
    <line x1="28.9" y1="69.5" x2="35.8" y2="70.8" stroke="black" stroke_width="2"/>
    <line x1="8.7" y1="39.0" x2="24.6" y2="52.5" stroke="black" stroke_width="2"/>
    <line x1="8.7" y1="39.0" x2="25.0" y2="29.9" stroke="black" stroke_width="2"/>
    <line x1="89.3" y1="105.6" x2="80.4" y2="104.3" stroke="black" stroke_width="2"/>
    <line x1="177.5" y1="115.2" x2="159.0" y2="135.0" stroke="black" stroke_width="2"/>
    <line x1="148.0" y1="3.5" x2="154.3" y2="22.3" stroke="black" stroke_width="2"/>
    <line x1="41.7" y1="22.9" x2="44.4" y2="22.8" stroke="black" stroke_width="2"/>
    <line x1="160.5" y1="103.1" x2="139.9" y2="109.4" stroke="black" stroke_width="2"/>
    <line x1="154.3" y1="22.3" x2="166.5" y2="33.4" stroke="black" stroke_width="2"/>
    <line x1="190.4" y1="143.9" x2="177.5" y2="115.2" stroke="black" stroke_width="2"/>
    <line x1="86.2" y1="141.0" x2="72.0" y2="147.3" stroke="black" stroke_width="2"/>
    <line x1="165.5" y1="55.3" x2="158.2" y2="60.3" stroke="black" stroke_width="2"/>
    <line x1="8.9" y1="97.7" x2="11.8" y2="87.0" stroke="black" stroke_width="2"/>
    <line x1="64.2" y1="174.6" x2="65.2" y2="183.5" stroke="black" stroke_width="2"/>
    <line x1="11.8" y1="87.0" x2="33.2" y2="83.6" stroke="black" stroke_width="2"/>
    <line x1="24.6" y1="52.5" x2="29.7" y2="50.0" stroke="black" stroke_width="2"/>
    <line x1="42.6" y1="164.7" x2="50.7" y2="166.5" stroke="black" stroke_width="2"/>
    <line x1="180.0" y1="66.6" x2="178.8" y2="54.9" stroke="black" stroke_width="2"/>
    <line x1="25.0" y1="29.9" x2="41.7" y2="22.9" stroke="black" stroke_width="2"/>
    <line x1="168.7" y1="42.8" x2="174.4" y2="49.0" stroke="black" stroke_width="2"/>
    <line x1="83.7" y1="50.4" x2="102.6" y2="51.5" stroke="black" stroke_width="2"/>
    <line x1="173.6" y1="187.3" x2="176.2" y2="183.2" stroke="black" stroke_width="2"/>
    <line x1="80.4" y1="104.3" x2="69.9" y2="112.3" stroke="black" stroke_width="2"/>
    <line x1="51.9" y1="153.5" x2="50.8" y2="162.5" stroke="black" stroke_width="2"/>
    <line x1="26.2" y1="139.2" x2="40.5" y2="134.7" stroke="black" stroke_width="2"/>
    <line x1="69.9" y1="112.3" x2="59.1" y2="103.2" stroke="black" stroke_width="2"/>
    <line x1="65.2" y1="183.5" x2="65.1" y2="184.5" stroke="black" stroke_width="2"/>
    <line x1="40.5" y1="134.7" x2="36.6" y2="126.0" stroke="black" stroke_width="2"/>
    <line x1="105.0" y1="46.7" x2="112.0" y2="26.6" stroke="black" stroke_width="2"/>
    <line x1="52.8" y1="67.5" x2="44.7" y2="54.3" stroke="black" stroke_width="2"/>
    <line x1="29.7" y1="50.0" x2="44.7" y2="54.3" stroke="black" stroke_width="2"/>
    <line x1="189.0" y1="193.3" x2="193.7" y2="192.9" stroke="black" stroke_width="2"/>
    <line x1="183.5" y1="13.2" x2="174.2" y2="29.6" stroke="black" stroke_width="2"/>
    <line x1="50.8" y1="162.5" x2="50.7" y2="166.5" stroke="black" stroke_width="2"/>
    <line x1="36.6" y1="126.0" x2="47.2" y2="123.9" stroke="black" stroke_width="2"/>
    <line x1="178.8" y1="54.9" x2="180.9" y2="48.4" stroke="black" stroke_width="2"/>
    <line x1="33.2" y1="83.6" x2="35.8" y2="70.8" stroke="black" stroke_width="2"/>
    <line x1="44.4" y1="22.8" x2="33.6" y2="10.4" stroke="black" stroke_width="2"/>
    <line x1="159.0" y1="135.0" x2="158.0" y2="153.0" stroke="black" stroke_width="2"/>
    <line x1="109.2" y1="112.2" x2="106.5" y2="102.7" stroke="black" stroke_width="2"/>
    <line x1="94.8" y1="131.0" x2="86.2" y2="141.0" stroke="black" stroke_width="2"/>
    <line x1="50.7" y1="50.2" x2="57.9" y2="35.5" stroke="black" stroke_width="2"/>
    <line x1="191.5" y1="158.4" x2="190.4" y2="143.9" stroke="black" stroke_width="2"/>
    <line x1="141.2" y1="126.7" x2="138.7" y2="142.4" stroke="black" stroke_width="2"/>
    <line x1="125.9" y1="162.6" x2="127.6" y2="168.8" stroke="black" stroke_width="2"/>
    <line x1="172.1" y1="171.0" x2="167.3" y2="165.5" stroke="black" stroke_width="2"/>
    <line x1="98.1" y1="123.8" x2="94.8" y2="131.0" stroke="black" stroke_width="2"/>
    <line x1="174.2" y1="29.6" x2="166.5" y2="33.4" stroke="black" stroke_width="2"/>
    <line x1="73.7" y1="127.1" x2="86.2" y2="141.0" stroke="black" stroke_width="2"/>
    <line x1="127.6" y1="168.8" x2="128.3" y2="161.9" stroke="black" stroke_width="2"/>
    <line x1="43.9" y1="153.8" x2="41.9" y2="143.0" stroke="black" stroke_width="2"/>
    <line x1="193.7" y1="192.9" x2="190.7" y2="179.9" stroke="black" stroke_width="2"/>
    <line x1="139.9" y1="109.4" x2="136.1" y2="100.4" stroke="black" stroke_width="2"/>
    <line x1="167.3" y1="165.5" x2="173.9" y2="179.6" stroke="black" stroke_width="2"/>
    <line x1="57.9" y1="35.5" x2="44.4" y2="22.8" stroke="black" stroke_width="2"/>
    <line x1="176.2" y1="183.2" x2="173.9" y2="179.6" stroke="black" stroke_width="2"/>
    <line x1="116.5" y1="192.8" x2="127.6" y2="168.8" stroke="black" stroke_width="2"/>
    <line x1="190.7" y1="179.9" x2="189.0" y2="193.3" stroke="black" stroke_width="2"/>
    <line x1="127.6" y1="35.7" x2="112.0" y2="26.6" stroke="black" stroke_width="2"/>
    <line x1="81.3" y1="167.7" x2="64.2" y2="174.6" stroke="black" stroke_width="2"/>
    <line x1="102.6" y1="51.5" x2="105.0" y2="46.7" stroke="black" stroke_width="2"/>
    <line x1="24.5" y1="158.9" x2="42.6" y2="164.7" stroke="black" stroke_width="2"/>
    <line x1="158.2" y1="60.3" x2="165.9" y2="69.4" stroke="black" stroke_width="2"/>
    <line x1="93.3" y1="88.1" x2="106.5" y2="102.7" stroke="black" stroke_width="2"/>
    <line x1="43.7" y1="70.4" x2="52.8" y2="67.5" stroke="black" stroke_width="2"/>
    <line x1="112.3" y1="153.2" x2="114.8" y2="166.5" stroke="black" stroke_width="2"/>
    <line x1="56.1" y1="190.6" x2="46.3" y2="193.7" stroke="black" stroke_width="2"/>
    <line x1="72.0" y1="147.3" x2="63.8" y2="159.5" stroke="black" stroke_width="2"/>
    <line x1="33.4" y1="78.8" x2="33.2" y2="83.6" stroke="black" stroke_width="2"/>
    <line x1="89.1" y1="6.0" x2="118.6" y2="9.6" stroke="black" stroke_width="2"/>
    <line x1="138.7" y1="142.4" x2="159.0" y2="135.0" stroke="black" stroke_width="2"/>
    <line x1="46.3" y1="193.7" x2="65.1" y2="184.5" stroke="black" stroke_width="2"/>
    <line x1="158.1" y1="183.8" x2="173.6" y2="187.3" stroke="black" stroke_width="2"/>
    <line x1="112.0" y1="26.6" x2="118.6" y2="9.6" stroke="black" stroke_width="2"/>
    <line x1="59.1" y1="103.2" x2="80.4" y2="104.3" stroke="black" stroke_width="2"/>
    <line x1="179.4" y1="76.6" x2="180.0" y2="66.6" stroke="black" stroke_width="2"/>
    <line x1="123.6" y1="101.1" x2="136.1" y2="100.4" stroke="black" stroke_width="2"/>
    <line x1="173.9" y1="179.6" x2="173.6" y2="187.3" stroke="black" stroke_width="2"/>
    <line x1="165.9" y1="69.4" x2="165.5" y2="55.3" stroke="black" stroke_width="2"/>
    <line x1="132.9" y1="53.3" x2="127.6" y2="35.7" stroke="black" stroke_width="2"/>
    <line x1="47.2" y1="123.9" x2="40.5" y2="134.7" stroke="black" stroke_width="2"/>
    <line x1="117.2" y1="71.5" x2="132.9" y2="53.3" stroke="black" stroke_width="2"/>
    <line x1="114.8" y1="166.5" x2="125.9" y2="162.6" stroke="black" stroke_width="2"/>
    <line x1="35.8" y1="70.8" x2="43.7" y2="70.4" stroke="black" stroke_width="2"/>
    <line x1="41.9" y1="143.0" x2="40.5" y2="134.7" stroke="black" stroke_width="2"/>
    <line x1="44.7" y1="54.3" x2="50.7" y2="50.2" stroke="black" stroke_width="2"/>
    <line x1="128.3" y1="161.9" x2="125.9" y2="162.6" stroke="black" stroke_width="2"/>
    <line x1="158.0" y1="153.0" x2="167.3" y2="165.5" stroke="black" stroke_width="2"/>
    <line x1="9.0" y1="124.4" x2="8.9" y2="97.7" stroke="black" stroke_width="2"/>
    <line x1="63.8" y1="159.5" x2="51.9" y2="153.5" stroke="black" stroke_width="2"/>
    <line x1="166.5" y1="33.4" x2="168.7" y2="42.8" stroke="black" stroke_width="2"/>
    <line x1="118.6" y1="9.6" x2="127.6" y2="35.7" stroke="black" stroke_width="2"/>
    <line x1="106.5" y1="102.7" x2="123.6" y2="101.1" stroke="black" stroke_width="2"/>
    <line x1="33.6" y1="10.4" x2="41.7" y2="22.9" stroke="black" stroke_width="2"/>
  </g>
</svg>
