<?xml version="1.0" encoding="UTF-8" standalone="no"?>
<svg width="1000" height="500" version="1.1" xmlns="http://www.w3.org/2000/svg">
    <g opacity="1.0">
        <style> path { stroke: #33FFC9; stroke-width: 1; fill: transparent; } </style>
        <path d="M 44.9 253.4 L  44.9 253.4 47.5 250.5 59.6 258.1 53.0 269.8 71.1 224.3 71.7 261.5 49.2 238.3 50.4 257.9 51.8 256.2 54.3 246.3 64.1 258.6 56.2 245.6z"/>
        <path d="M 72.1 248.9 L  72.1 248.9 52.6 248.8 50.2 263.0 55.0 250.1 48.5 254.2 69.4 255.6 57.1 236.7 67.8 231.0 64.5 249.4 57.3 241.0 52.7 244.3 74.2 236.7 49.0 250.5 44.3 242.3 52.5 254.0 64.1 245.9z"/>
        <path d="M 52.5 265.1 L  52.5 265.1 62.4 253.2 73.1 255.7 69.0 247.0 47.7 263.6 70.9 248.8 62.1 258.4 67.6 261.5 68.4 242.9 59.3 245.7 64.3 269.1 67.4 245.8 59.2 252.4 56.6 248.4 50.0 232.6 57.8 245.3 54.6 253.3 60.1 265.3z"/>
        <path d="M 53.5 226.6 L  53.5 226.6 71.7 256.7 66.1 262.0 60.3 250.4 74.4 261.7 56.5 230.8 57.2 243.9 62.1 250.1 55.3 245.5 64.5 253.2z"/>
        <path d="M 68.2 260.2 L  68.2 260.2 64.7 243.2 62.1 239.4 62.8 250.8 58.9 245.8 50.9 248.5 78.8 262.2 80.2 248.0 79.8 256.3 89.5 244.5 70.3 237.1 74.3 234.8z"/>
        <path d="M 68.3 249.2 L  68.3 249.2 83.5 262.2 71.1 257.2 72.1 247.4 62.8 244.7 77.0 246.1 61.0 246.3 78.8 245.1 60.0 232.1 60.4 240.8 85.6 261.3 62.4 232.3 77.4 271.7 73.8 262.3z"/>
        <path d="M 79.3 232.5 L  79.3 232.5 72.9 245.6 68.3 241.8 53.9 236.0 44.0 249.0 46.0 255.6 79.8 261.1 62.9 252.5 59.9 254.3 43.1 275.5 88.2 264.8 69.1 256.5 74.9 261.6 73.1 254.4 75.5 239.8 68.3 227.2 103.0 233.0 37.5 240.9z"/>
        <path d="M 75.9 271.7 L  75.9 271.7 88.3 253.2 86.3 255.4 86.1 237.3 69.5 246.3 63.3 253.9 78.5 252.2 57.0 245.8 73.7 251.0 60.2 252.5 79.9 251.2 72.6 262.9 68.6 255.9 81.1 241.7z"/>
        <path d="M 77.6 260.8 L  77.6 260.8 85.1 248.8 80.2 253.1 59.0 268.3 95.6 250.9 93.7 255.7 80.4 268.1 76.5 236.2 83.6 257.6 87.2 236.6 68.1 223.6 71.3 227.0 54.7 243.1 49.8 228.5 60.9 250.8 70.5 239.1 58.2 254.6 57.5 265.0z"/>
        <path d="M 100.6 264.0 L  100.6 264.0 98.0 254.4 91.2 248.0 107.5 246.4 96.1 251.3 93.4 247.9 90.9 231.3 81.8 238.4 66.9 239.0 78.3 254.1 56.0 250.5 82.1 246.7 74.6 245.6 56.5 274.7 70.5 253.5 105.1 260.9 75.2 269.7 83.9 265.7z"/>
        <path d="M 97.0 239.5 L  97.0 239.5 81.3 237.6 76.1 226.7 81.4 233.1 69.9 235.6 55.8 247.7 62.0 239.4 66.5 263.1 69.4 283.5 78.5 287.5 92.6 258.6 91.4 249.4z"/>
        <path d="M 101.5 259.0 L  101.5 259.0 115.4 253.3 98.4 245.1 88.8 236.9 95.3 233.7 66.0 227.0 69.0 235.3 57.2 250.9 66.7 252.0 90.8 256.1 97.7 295.5 103.6 273.6z"/>
        <path d="M 95.1 254.9 L  95.1 254.9 95.3 277.3 82.4 236.5 110.6 253.8 107.8 240.0 79.3 248.0 61.6 254.4 60.9 256.6 77.0 245.0 75.2 268.6z"/>
        <path d="M 88.1 281.1 L  88.1 281.1 89.3 258.8 106.9 261.8 126.0 259.7 91.9 239.0 105.5 220.5 91.0 235.0 101.0 231.8 85.8 222.1 78.0 224.8 73.1 228.6 74.7 250.2 55.4 247.1 58.2 251.6 67.1 269.7 89.9 276.6z"/>
        <path d="M 96.2 231.8 L  96.2 231.8 71.9 214.2 74.7 240.2 67.0 261.5 88.0 255.0 79.2 288.7 78.3 286.7 90.7 268.5 101.3 272.1 123.3 268.6 100.8 241.0 119.3 242.1 105.3 220.9 104.6 237.1z"/>
        <path d="M 132.3 242.9 L  132.3 242.9 99.1 234.1 91.9 218.2 99.0 222.6 111.3 221.7 87.4 221.4 76.0 228.7 100.7 264.2 90.3 254.4 90.4 279.5 88.2 257.8 98.0 287.5 113.9 279.9 108.0 278.9 97.6 272.1 119.7 251.1z"/>
        <path d="M 124.2 273.9 L  124.2 273.9 120.2 239.5 116.4 246.3 125.7 244.3 94.6 225.4 107.9 217.2 109.5 215.4 93.8 243.0 76.2 235.4 83.8 225.0 49.1 232.7 82.8 257.5 84.6 271.1 104.6 269.9 113.9 284.0 106.1 277.4z"/>
        <path d="M 117.7 252.9 L  117.7 252.9 114.0 234.2 115.5 239.6 116.0 232.1 105.6 225.8 105.2 249.8 88.5 226.5 105.0 239.7 79.3 222.0 81.2 243.4 88.1 240.5 73.8 281.8 80.4 260.0 97.4 251.7 112.4 272.1 110.9 274.2z"/>
        <path d="M 77.9 251.9 L  77.9 251.9 74.7 238.4 107.5 268.7 88.9 275.5 107.9 263.2 94.4 271.7 115.9 272.3 106.2 263.4 130.0 252.6 116.3 266.1 136.5 234.6 104.3 218.8 98.1 231.3 90.9 235.0 88.2 209.6 61.8 248.5z"/>
        <path d="M 85.1 218.7 L  85.1 218.7 88.2 248.3 68.5 264.2 79.3 261.0 77.4 265.9 104.2 280.2 97.8 262.5 96.7 288.6 104.4 278.4 125.0 274.1 109.8 269.5 117.1 263.9 139.6 230.2 129.7 240.1 113.4 234.3 125.3 231.2 107.2 222.0 105.4 234.1 90.3 219.5 106.4 228.7z"/>
        <path d="M 126.0 274.9 L  126.0 274.9 146.2 259.2 153.9 243.6 120.8 215.4 126.5 226.5 137.0 235.6 128.1 221.4 98.7 224.9 85.1 241.1 87.0 251.1 92.3 241.5 96.2 268.5 102.9 289.6 107.6 272.1 112.6 265.0 123.8 272.4z"/>
        <path d="M 86.9 251.1 L  86.9 251.1 80.5 261.8 110.9 260.8 122.3 280.8 130.2 272.3 114.0 287.2 151.6 254.7 171.9 250.1 130.9 227.7 119.9 190.2 104.7 228.1 101.0 230.1z"/>
        <path d="M 126.3 290.1 L  126.3 290.1 146.6 251.0 151.4 260.4 132.7 246.6 134.0 228.8 127.7 218.9 110.4 222.4 102.7 218.2 105.5 253.4 101.0 239.1 96.3 246.0 115.1 274.5 122.1 282.1 115.0 288.7 108.3 282.6 132.9 263.6z"/>
        <path d="M 98.9 228.0 L  98.9 228.0 90.6 222.9 74.6 228.7 79.6 237.9 99.0 261.6 116.8 267.7 140.0 278.3 129.9 275.3 130.0 266.1 152.5 241.7 149.2 256.3 132.1 228.5 135.1 230.2 118.8 223.7z"/>
        <path d="M 116.5 206.6 L  116.5 206.6 141.6 211.2 123.6 225.7 114.2 224.7 108.3 208.7 84.6 234.0 91.6 241.0 98.6 270.9 109.1 269.1 117.0 274.3 113.8 278.9 139.4 269.3 124.9 296.0 139.8 270.5 152.4 280.7 162.6 232.7 138.0 225.2 122.0 224.4z"/>
        <path d="M 124.7 211.4 L  124.7 211.4 77.7 251.8 94.2 254.1 110.1 282.2 126.8 280.1 120.4 259.6 171.9 241.6 159.2 241.9 149.7 221.1 124.8 206.7z"/>
        <path d="M 139.7 212.4 L  139.7 212.4 123.5 216.0 126.5 227.0 92.7 245.6 93.2 248.5 118.7 276.1 134.2 285.9 148.1 293.4 167.0 247.5 168.9 242.4z"/>
        <path d="M 169.2 271.2 L  169.2 271.2 165.3 260.9 147.5 226.3 151.3 218.5 143.2 203.8 125.5 217.3 122.6 208.3 127.6 217.7 98.8 225.7 90.7 242.5 80.1 259.6 113.1 264.4 98.7 293.3 113.8 279.5 107.3 284.0 133.4 283.5 133.6 292.3 150.2 280.6z"/>
        <path d="M 130.3 254.4 L  130.3 254.4 123.9 281.6 168.6 293.4 176.9 248.5 170.9 269.6 145.8 232.3 142.7 212.7 95.1 211.8 91.5 245.3 86.9 247.4z"/>
        <path d="M 168.3 242.8 L  168.3 242.8 180.9 232.5 153.5 206.4 172.7 218.9 137.8 214.8 133.6 212.7 120.1 220.3 109.1 236.9 95.0 246.4 103.5 261.5 122.8 285.1 129.3 282.6 120.9 278.8 145.9 296.3 156.1 284.6 157.1 278.3z"/>
        <path d="M 118.1 275.5 L  118.1 275.5 120.7 301.7 163.9 288.7 147.8 276.0 162.8 306.0 173.2 263.5 166.2 254.5 164.3 221.2 161.5 207.0 143.2 216.6 113.2 212.6 130.5 216.5 81.4 260.8 122.1 242.8z"/>
        <path d="M 109.2 246.0 L  109.2 246.0 116.8 247.6 124.7 283.4 156.6 286.2 167.0 280.3 168.7 256.0 185.5 258.7 151.1 223.9 162.4 206.2 147.3 236.9z"/>
        <path d="M 170.3 225.5 L  170.3 225.5 154.6 211.4 162.1 203.6 157.8 204.2 126.9 228.0 116.0 212.4 147.2 230.8 104.0 235.9 111.2 247.5 122.9 272.5 133.4 278.9 129.8 287.5 162.1 277.9 156.8 297.7 176.6 280.1 178.0 280.1 196.1 245.6 193.7 255.4z"/>
        <path d="M 177.5 222.7 L  177.5 222.7 157.5 208.6 146.2 225.5 146.3 187.6 118.0 203.7 134.2 223.4 107.3 251.9 105.8 260.6 113.2 267.5 143.3 283.2 140.8 299.2 135.3 280.5 162.8 294.6 147.2 296.9 172.6 285.9 178.1 273.4 185.8 255.5 190.1 250.6 162.8 215.6 174.5 213.9z"/>
        <path d="M 193.1 241.5 L  193.1 241.5 184.7 243.8 147.9 199.6 140.6 213.1 133.9 236.5 122.3 253.7 114.6 249.6 122.2 298.1 144.8 295.7 153.1 307.2 179.2 294.6 202.5 248.4z"/>
        <path d="M 196.1 256.9 L  196.1 256.9 176.4 213.7 157.3 204.6 135.9 216.0 111.9 249.7 121.5 253.8 142.7 294.3 168.7 299.1 186.4 279.3 188.6 259.5z"/>
        <path d="M 195.3 276.0 L  195.3 276.0 188.1 244.3 193.4 256.5 205.3 208.0 175.7 207.5 157.5 221.5 175.6 183.7 151.1 191.7 140.5 218.4 122.7 219.2 116.5 260.6 110.5 266.2 120.8 276.7 136.2 277.6 142.7 287.8 163.6 288.9 176.6 291.3 181.0 289.3z"/>
        <path d="M 191.3 191.5 L  191.3 191.5 147.2 210.2 156.8 205.6 116.7 258.4 127.1 258.3 149.2 286.1 168.5 311.8 195.2 288.4 207.4 259.4 221.0 249.6z"/>
        <path d="M 205.5 303.3 L  205.5 303.3 205.8 288.0 214.8 260.2 209.6 236.6 217.0 230.6 216.1 216.3 191.2 204.5 187.2 203.9 180.2 225.6 144.2 208.2 154.8 191.8 116.0 244.2 105.6 235.9 132.1 260.1 119.8 286.3 147.3 273.7 154.2 287.6 161.8 275.0 194.3 291.2 196.9 304.7z"/>
        <path d="M 206.3 252.8 L  206.3 252.8 242.2 247.3 206.2 215.8 195.6 222.6 181.1 197.0 145.9 207.7 144.3 218.4 132.2 264.7 130.9 232.7 153.6 294.6 155.0 297.0 178.8 294.0 195.3 296.1 221.4 281.6z"/>
        <path d="M 163.1 217.6 L  163.1 217.6 147.6 216.0 141.0 243.1 111.8 247.5 148.1 278.7 164.7 285.1 152.0 307.1 171.0 318.8 197.9 296.0 233.4 269.1 227.7 243.6 237.2 259.3 211.1 233.6 208.4 205.3 185.7 207.5 171.6 215.0z"/>
        <path d="M 216.2 275.9 L  216.2 275.9 227.2 232.2 225.8 229.8 200.9 215.9 194.8 219.2 156.2 182.1 147.0 200.8 129.6 256.2 127.6 241.0 128.6 279.5 179.3 299.6 181.0 322.2z"/>
        <path d="M 153.9 289.6 L  153.9 289.6 153.2 278.1 175.3 304.2 188.6 309.3 186.2 292.7 192.2 302.2 197.0 288.5 217.2 285.4 230.7 244.4 233.1 250.5 215.9 234.6 216.2 211.6 183.3 193.1 216.2 200.6 192.5 203.7 166.1 196.5 146.2 200.1 146.1 229.1 132.5 251.5 112.0 261.9z"/>
        <path d="M 139.2 217.1 L  139.2 217.1 158.2 227.3 123.6 246.3 135.4 251.0 142.8 283.8 160.3 303.1 176.2 293.4 188.6 307.8 192.3 297.6 206.7 292.4 241.1 280.3 259.8 243.0 234.9 240.3 222.0 228.8 212.4 211.0 206.9 201.7 178.6 200.4 170.8 183.5z"/>
        <path d="M 206.1 194.9 L  206.1 194.9 184.6 191.2 155.5 202.7 143.0 238.8 142.5 255.5 185.8 305.3 171.6 288.0 215.8 293.0 251.5 244.7 234.7 253.7z"/>
        <path d="M 182.7 193.9 L  182.7 193.9 139.9 213.6 124.1 244.2 150.1 255.9 152.7 280.1 173.0 308.3 202.3 305.4 213.2 298.1 223.7 278.7 230.1 249.9 241.3 239.0 229.7 214.6 211.1 200.6 189.1 193.3z"/>
        <path d="M 180.3 186.6 L  180.3 186.6 169.0 220.1 145.4 210.2 132.0 247.9 135.4 257.2 156.8 284.3 157.5 312.2 197.0 312.9 196.8 303.5 236.0 291.5 252.9 241.8 252.3 246.9 213.1 205.0 228.8 194.8z"/>
        <path d="M 138.6 216.7 L  138.6 216.7 148.6 239.3 137.4 241.6 168.3 292.0 177.6 305.9 185.6 285.3 194.1 308.5 217.1 341.6 203.8 289.6 244.4 312.9 256.9 287.1 255.4 254.0 264.9 255.0 238.3 212.2 230.8 220.6 226.5 195.4 216.1 201.2 181.5 172.6 188.7 193.3 168.4 200.0z"/>
        <path d="M 238.7 217.2 L  238.7 217.2 231.1 195.3 198.1 177.3 171.0 193.8 155.5 204.9 146.6 243.0 151.9 243.1 173.3 277.2 178.1 311.7 182.0 314.3 210.1 292.3 254.0 292.5 235.1 254.0 266.8 263.3z"/>
        <path d="M 239.3 214.0 L  239.3 214.0 204.1 200.3 199.4 189.4 176.9 191.0 160.4 242.4 152.1 249.9 167.3 301.2 201.9 311.5 213.1 303.0 232.9 321.4 253.8 248.8 270.6 248.0z"/>
        <path d="M 203.7 297.5 L  203.7 297.5 208.1 308.0 219.3 322.0 237.5 294.3 240.7 302.9 259.9 254.8 269.4 260.9 249.2 219.8 240.8 207.4 231.2 191.3 211.7 195.4 180.1 195.1 186.7 214.1 166.4 199.1 168.0 236.6 148.6 252.2 154.3 279.7 172.2 291.7z"/>
        <path d="M 248.9 309.2 L  248.9 309.2 269.5 247.6 273.8 256.1 257.5 220.2 252.4 185.3 212.2 208.3 236.2 184.0 184.7 193.8 167.7 208.2 151.1 255.9 131.9 249.9 157.7 296.6 164.1 294.9 193.3 324.5 233.0 327.1 252.8 315.3z"/>
        <path d="M 251.3 299.0 L  251.3 299.0 278.9 246.1 261.6 247.9 243.2 212.1 213.6 203.5 209.2 214.2 176.3 204.6 173.3 196.3 141.9 244.2 147.4 237.2 165.9 293.8 177.7 303.6 223.1 307.8 236.3 322.6z"/>
        <path d="M 147.4 248.2 L  147.4 248.2 153.4 253.4 169.8 295.2 224.0 323.1 240.7 315.9 296.5 236.0 276.6 249.3 249.4 219.4 207.0 193.2 171.1 194.0z"/>
        <path d="M 176.6 310.3 L  176.6 310.3 216.1 317.1 256.0 302.9 263.6 236.1 289.3 259.1 235.9 203.5 226.9 172.7 185.8 183.9 146.1 259.1 167.0 246.6z"/>
        <path d="M 207.7 300.6 L  207.7 300.6 211.8 312.8 253.0 321.3 280.3 287.2 289.3 256.7 286.5 249.0 271.9 208.0 241.1 208.6 224.3 171.2 191.1 208.6 174.5 222.4 162.3 258.4 161.3 246.7 176.0 311.2z"/>
        <path d="M 272.3 309.6 L  272.3 309.6 303.7 243.6 280.7 255.1 286.5 187.5 238.9 188.7 253.9 199.2 198.4 183.1 186.7 189.7 165.1 242.0 160.3 250.3 173.6 317.1 211.3 296.8 231.6 322.1 244.6 313.9z"/>
        <path d="M 214.7 336.2 L  214.7 336.2 222.4 299.5 273.3 304.9 287.7 287.3 290.5 252.3 304.3 248.4 271.3 203.5 258.3 188.7 217.4 180.1 195.4 182.8 169.8 219.0 150.6 267.1 155.6 257.5 176.2 292.9z"/>
        <path d="M 197.0 199.5 L  197.0 199.5 167.4 256.3 156.3 251.0 182.6 291.2 200.2 305.3 242.4 334.4 259.2 321.8 261.3 296.6 302.1 245.6 295.1 237.6 290.9 209.9 272.1 182.3 241.9 164.9 198.6 173.5z"/>
        <path d="M 204.0 174.9 L  204.0 174.9 190.9 197.0 166.0 211.3 167.9 240.4 148.6 254.9 185.1 291.6 190.2 307.4 199.2 307.9 226.5 312.2 235.7 320.2 264.8 313.2 266.9 294.2 302.4 234.5 302.0 248.5 286.9 202.2 267.1 179.5 254.3 168.7 226.7 169.0z"/>
        <path d="M 307.4 247.6 L  307.4 247.6 303.6 251.2 279.0 196.9 233.6 176.9 228.8 199.3 194.6 189.3 156.4 248.1 172.9 259.1 216.6 311.7 210.0 308.1 246.5 309.5 260.6 309.1z"/>
        <path d="M 251.1 323.1 L  251.1 323.1 284.4 300.0 318.7 257.4 315.8 269.8 263.6 206.3 251.0 177.1 243.9 165.0 202.7 176.0 185.4 205.5 148.2 245.6 167.0 253.9 192.8 297.9 213.0 322.5 200.7 346.4z"/>
        <path d="M 252.0 320.0 L  252.0 320.0 273.3 326.4 286.2 289.7 307.5 252.6 295.0 244.4 291.9 208.4 263.6 189.2 248.8 184.5 235.9 186.9 208.1 174.9 200.7 193.1 185.8 214.9 166.3 245.5 160.8 244.7 186.1 307.4 199.3 311.2 219.8 316.3 245.4 351.6z"/>
        <path d="M 298.3 187.8 L  298.3 187.8 285.7 171.1 253.7 169.5 257.8 181.4 231.7 176.9 209.9 177.7 167.2 217.6 155.1 263.2 153.7 265.8 167.8 300.6 210.2 323.0 225.2 309.6 244.0 317.2 256.8 320.4 289.5 311.9 289.6 283.6 311.0 261.3 308.5 242.0z"/>
        <path d="M 252.5 324.3 L  252.5 324.3 252.4 301.6 276.2 317.9 290.5 299.5 325.1 255.6 313.1 264.6 295.1 206.1 282.6 181.3 270.1 175.3 219.7 165.2 222.4 180.8 199.4 209.2 178.1 243.3 158.8 268.9 179.9 302.0 204.5 320.6z"/>
        <path d="M 279.1 326.1 L  279.1 326.1 285.5 301.4 310.5 307.0 342.0 273.4 324.6 234.0 302.3 188.5 308.8 200.0 258.2 183.0 274.9 187.0 236.0 163.2 212.6 172.5 205.3 195.4 201.5 184.1 166.6 249.3 175.4 238.6 179.8 286.0 228.8 304.4 211.5 330.0 237.5 330.8 264.8 320.2z"/>
        <path d="M 280.5 313.3 L  280.5 313.3 317.1 275.1 338.7 246.2 322.5 260.9 314.7 202.2 286.9 181.9 265.4 176.7 261.4 160.3 234.2 183.4 195.4 214.7 197.6 243.4 198.7 249.4 187.2 306.9 216.1 312.9 239.6 325.4 267.2 310.2z"/>
        <path d="M 332.5 253.0 L  332.5 253.0 346.8 241.9 311.9 174.5 277.9 180.6 255.5 174.9 208.3 186.2 174.4 262.0 185.5 259.7 203.0 318.8 229.9 335.5 271.9 348.1 309.8 331.3z"/>
        <path d="M 216.0 175.4 L  216.0 175.4 183.2 242.0 181.2 246.9 206.4 318.9 245.2 322.2 299.1 312.1 320.5 252.5 347.6 241.4 303.1 175.5 259.4 172.7z"/>
        <path d="M 207.5 317.3 L  207.5 317.3 224.3 319.0 245.5 341.4 276.7 326.3 272.8 312.0 326.6 313.5 331.0 309.2 350.1 247.6 345.3 273.8 315.5 212.3 308.8 185.6 306.9 175.3 272.9 179.4 239.2 151.8 256.6 179.5 229.6 190.1 193.9 192.1 179.4 250.7 187.6 263.5 196.7 296.0z"/>
        <path d="M 204.1 162.1 L  204.1 162.1 201.2 180.8 179.7 253.8 181.2 253.6 192.0 316.5 231.9 322.7 250.4 334.2 259.2 335.9 281.6 329.9 285.9 328.0 307.8 311.0 315.9 314.2 349.5 239.6 344.1 272.1 335.2 216.6 311.6 177.0 289.5 169.4 276.3 170.4 263.9 174.7 253.4 174.9z"/>
        <path d="M 236.9 335.0 L  236.9 335.0 246.8 330.9 287.0 320.9 284.1 343.1 297.1 305.8 321.4 310.4 327.8 286.0 351.5 235.7 369.4 251.5 328.5 208.5 329.3 183.9 298.9 173.0 279.7 173.8 262.9 166.4 238.8 166.0 237.2 182.4 211.4 200.7 182.5 254.4 173.9 227.5 199.5 306.1z"/>
        <path d="M 305.6 179.6 L  305.6 179.6 283.1 170.6 267.7 170.3 283.3 165.4 243.7 156.3 214.1 165.7 204.5 184.7 202.1 245.4 172.7 250.6 210.1 303.8 236.3 328.5 246.9 329.4 266.7 317.7 277.0 344.8 310.3 315.7 324.4 332.7 339.2 284.8 338.5 254.2 363.9 245.8 348.4 208.7z"/>
        <path d="M 270.2 179.9 L  270.2 179.9 249.7 170.7 203.3 188.4 204.9 233.9 190.2 258.5 199.3 310.9 242.0 337.4 248.9 354.1 295.1 324.8 335.3 304.7 331.6 303.0 350.2 235.1 348.2 264.1 334.8 189.7 307.9 162.1 283.7 163.3z"/>
        <path d="M 198.9 232.0 L  198.9 232.0 191.8 255.2 228.2 310.5 229.5 319.7 255.7 338.5 311.3 336.2 336.7 328.8 372.8 259.7 370.3 252.0 337.6 190.2 302.4 193.1 262.4 167.9 244.4 167.7 227.0 182.6z"/>
        <path d="M 323.9 189.3 L  323.9 189.3 303.0 168.7 278.0 160.8 252.6 170.0 223.8 177.7 221.1 246.8 193.0 245.2 211.6 309.6 233.9 321.1 267.5 348.1 302.7 344.6 315.8 310.3 352.6 331.2 375.2 249.7 378.9 261.7 364.0 191.0z"/>
        <path d="M 310.9 324.6 L  310.9 324.6 326.9 342.8 351.4 297.0 366.2 257.1 370.2 255.7 351.2 199.8 325.4 181.8 302.4 164.2 312.7 168.8 277.7 172.8 251.7 187.4 225.2 189.8 210.3 249.0 179.1 247.9 223.1 310.8 252.1 308.0 269.6 327.3 297.6 339.5z"/>
        <path d="M 283.6 163.2 L  283.6 163.2 293.8 159.8 269.3 157.3 243.1 161.3 208.1 203.7 199.3 250.8 205.5 240.6 224.3 311.5 246.1 331.5 240.9 345.4 300.3 339.4 312.1 330.7 333.5 334.8 327.5 348.8 361.4 305.2 378.1 250.8 384.0 242.6 360.6 187.5 360.2 169.2 319.7 167.0z"/>
        <path d="M 259.2 171.1 L  259.2 171.1 235.4 163.9 189.2 254.2 195.6 244.8 231.0 320.6 276.4 343.8 289.6 357.7 331.2 351.6 340.8 320.1 394.6 251.9 389.7 243.4 362.0 187.5 343.7 156.6 303.9 158.9z"/>
        <path d="M 412.5 226.0 L  412.5 226.0 396.5 259.2 339.5 171.2 298.1 152.1 256.2 172.8 201.9 263.1 197.0 261.5 237.9 319.7 307.1 341.6 335.9 342.8z"/>
        <path d="M 317.1 347.5 L  317.1 347.5 328.0 339.8 369.4 297.8 407.6 237.6 397.1 238.3 362.8 169.0 336.1 166.7 326.2 158.9 282.7 167.2 243.6 166.9 236.5 186.3 215.3 237.7 215.5 244.0 224.7 306.0 271.3 344.7 296.9 353.0z"/>
        <path d="M 219.4 188.9 L  219.4 188.9 213.6 241.3 218.8 255.4 237.2 317.5 268.8 338.7 278.2 345.6 307.3 348.6 348.3 341.7 340.7 327.3 361.6 297.9 386.0 248.3 389.7 264.8 365.3 186.6 360.6 170.5 322.2 176.8 321.6 144.5 284.5 159.8 250.2 172.3z"/>
        <path d="M 320.5 161.8 L  320.5 161.8 297.5 152.6 253.0 196.5 232.3 249.5 211.9 242.4 263.8 316.2 284.0 339.4 319.3 336.7 355.6 334.1 406.4 253.2 395.9 244.6 363.2 179.4z"/>
        <path d="M 265.2 316.3 L  265.2 316.3 299.5 341.7 338.5 334.4 365.3 329.1 409.1 255.1 404.2 236.7 383.2 172.8 345.5 129.5 286.9 161.1 250.9 189.8 223.5 278.7 217.2 250.2z"/>
        <path d="M 367.5 147.6 L  367.5 147.6 316.4 163.6 283.2 160.2 249.1 187.4 216.5 254.0 225.4 247.9 247.8 309.2 303.5 355.3 328.3 357.4 358.9 338.7 373.0 322.6 432.6 237.7 430.5 247.1 389.8 168.5z"/>
        <path d="M 341.7 354.1 L  341.7 354.1 376.4 341.9 431.1 241.5 410.2 243.5 401.5 167.4 346.5 136.8 303.7 158.3 265.2 178.4 226.0 242.1 209.8 265.0 278.7 328.6 306.1 363.3z"/>
        <path d="M 402.4 341.8 L  402.4 341.8 430.6 253.1 457.1 229.5 392.3 163.7 340.5 170.2 318.6 149.4 257.9 171.9 229.3 257.4 225.2 260.9 263.7 313.4 304.9 351.3 351.0 357.1z"/>
        <path d="M 275.4 306.0 L  275.4 306.0 306.8 353.7 348.7 331.6 356.0 353.0 401.5 329.8 434.6 252.4 434.4 238.9 384.4 164.5 358.6 153.9 322.6 147.0 297.5 143.4 269.0 174.6 226.2 249.9 207.6 262.3z"/>
        <path d="M 253.3 313.3 L  253.3 313.3 275.5 350.6 303.4 351.1 350.3 348.8 352.1 345.8 385.4 346.3 395.4 332.0 418.1 252.0 430.9 229.9 407.9 195.2 396.7 184.3 366.4 160.3 335.0 146.3 299.6 144.8 288.1 171.1 257.0 169.5 227.0 243.5 232.9 241.5z"/>
        <path d="M 444.5 263.4 L  444.5 263.4 435.5 173.7 388.0 159.5 371.6 155.0 349.9 143.1 321.7 153.4 319.9 154.8 273.8 171.3 242.6 174.7 227.3 251.6 234.1 250.8 260.8 326.6 263.4 339.6 292.4 346.9 337.5 354.4 345.1 354.8 369.6 350.1 382.6 350.5 433.5 294.8 434.0 247.7z"/>
        <path d="M 454.4 239.5 L  454.4 239.5 421.6 171.7 405.0 175.1 366.6 142.1 365.3 143.8 336.9 138.1 309.5 140.3 287.0 164.7 271.4 190.4 245.0 252.8 231.2 265.5 257.8 336.4 283.9 338.4 293.3 347.4 328.9 362.7 352.3 354.0 395.7 348.1 392.1 341.2 414.7 316.0 457.2 247.8z"/>
        <path d="M 415.2 165.0 L  415.2 165.0 380.0 137.0 315.4 141.1 305.3 147.0 265.6 179.2 236.3 229.0 240.9 259.9 281.9 317.1 301.9 331.0 330.4 358.8 371.6 342.9 392.9 359.8 415.2 316.7 460.2 233.2 460.5 271.0 407.4 169.5z"/>
        <path d="M 316.7 352.8 L  316.7 352.8 364.0 351.0 428.7 348.9 465.6 241.8 446.6 258.0 411.6 169.1 344.4 142.9 302.5 136.0 242.9 249.1 225.1 247.2z"/>
        <path d="M 267.3 182.2 L  267.3 182.2 252.2 241.1 244.4 243.9 275.8 320.7 280.1 357.4 317.0 361.5 326.2 327.5 369.1 361.8 394.2 357.9 434.5 333.9 435.1 310.5 453.5 254.2 459.0 231.2 440.1 174.2 413.2 173.1 390.7 164.1 359.0 151.3 352.1 133.1 319.9 149.2 298.5 166.3z"/>
        <path d="M 383.2 142.9 L  383.2 142.9 349.0 111.1 314.4 153.4 290.7 176.1 252.2 247.4 247.8 255.0 288.7 343.1 299.2 350.1 368.2 364.4 368.9 350.2 434.0 317.7 467.5 249.9 445.7 239.4 411.9 163.2z"/>
        <path d="M 361.9 366.8 L  361.9 366.8 399.6 357.3 417.7 348.4 472.9 255.2 484.8 247.1 428.8 165.5 391.5 148.5 368.6 145.1 323.3 139.0 295.8 157.6 238.0 252.6 261.5 269.8 297.5 339.1 312.4 330.0z"/>
        <path d="M 373.7 145.1 L  373.7 145.1 299.6 145.2 252.9 272.2 244.1 239.3 295.2 344.8 367.9 371.0 401.5 334.2 473.5 245.3 466.4 237.5 425.5 149.6z"/>
        <path d="M 478.0 262.8 L  478.0 262.8 465.3 262.2 421.9 129.3 359.9 151.2 309.5 158.1 248.2 242.7 259.3 244.4 302.2 358.2 349.0 353.2 426.4 350.9z"/>
        <path d="M 426.5 335.4 L  426.5 335.4 481.9 242.0 491.4 252.5 433.0 143.8 393.9 139.8 343.6 128.2 294.9 155.3 249.1 230.4 243.5 249.3 306.5 333.9 354.0 362.0 395.5 358.2z"/>
        <path d="M 504.2 262.5 L  504.2 262.5 450.0 181.9 442.9 159.2 421.4 135.2 373.8 139.1 330.9 127.1 343.7 143.8 312.6 151.5 250.5 176.0 257.5 253.7 253.8 242.5 271.9 314.6 297.8 356.7 337.1 349.1 350.4 358.4 386.3 359.0 415.3 345.1 433.9 345.5 455.6 329.9 484.6 252.7z"/>
        <path d="M 503.7 255.3 L  503.7 255.3 478.3 271.7 475.0 170.3 430.4 153.8 393.8 144.9 357.1 140.7 340.1 145.0 314.0 146.6 299.2 165.0 249.3 245.3 258.0 249.4 286.5 329.2 319.6 340.8 327.9 366.8 363.7 375.1 395.0 355.4 441.6 345.9 455.3 318.8z"/>
        <path d="M 452.6 174.4 L  452.6 174.4 446.1 141.2 399.8 137.8 395.0 119.2 357.2 120.6 347.6 141.0 303.2 146.0 271.7 167.2 263.2 228.2 257.1 244.1 281.2 324.8 305.2 354.7 343.2 351.3 353.5 363.5 365.7 370.9 407.2 357.9 441.7 365.8 463.1 326.7 494.0 237.2 492.1 250.0z"/>
        <path d="M 304.2 174.4 L  304.2 174.4 247.6 264.6 252.1 243.2 304.0 337.8 344.2 375.1 364.3 376.0 406.3 353.3 450.3 329.4 485.1 248.4 497.2 241.0 447.5 166.8 425.9 131.5 380.0 123.7 340.6 132.8z"/>
        <path d="M 383.5 361.3 L  383.5 361.3 431.1 350.2 513.9 245.6 506.5 238.9 452.0 134.7 367.4 147.3 320.6 138.7 272.8 255.1 247.7 240.3 326.2 358.1z"/>
        <path d="M 382.1 376.8 L  382.1 376.8 408.5 360.7 441.7 373.0 466.9 324.2 515.8 242.3 514.8 265.7 465.6 152.6 429.0 142.6 393.8 133.4 363.0 120.3 328.6 134.9 309.5 161.2 259.9 243.4 269.3 244.2 297.4 338.0 335.1 357.8z"/>
        <path d="M 416.9 374.1 L  416.9 374.1 439.3 336.6 504.6 237.1 529.7 254.7 465.0 156.4 413.0 129.6 366.6 128.7 307.7 141.4 254.0 244.8 260.9 243.5 327.6 355.3 367.2 371.4z"/>
        <path d="M 355.1 117.3 L  355.1 117.3 316.5 141.9 281.0 177.5 263.0 245.9 258.6 263.6 273.0 357.3 314.0 359.4 365.7 354.2 373.7 364.7 397.8 381.5 427.5 360.2 433.4 352.6 465.8 315.8 511.0 246.4 504.8 241.4 461.2 170.6 459.1 131.9 455.4 140.6 410.0 116.8 393.0 122.6z"/>
        <path d="M 292.3 341.1 L  292.3 341.1 351.6 376.3 388.2 359.3 452.6 376.2 478.0 355.2 508.3 252.8 518.4 270.6 484.0 148.6 426.0 126.2 394.8 117.8 341.4 118.1 313.3 164.7 258.6 241.4 270.2 258.2z"/>
        <path d="M 377.2 374.6 L  377.2 374.6 390.8 361.3 429.0 372.0 467.6 355.3 460.9 330.6 514.9 246.1 511.0 262.6 461.5 166.9 448.5 144.4 411.9 120.0 398.3 121.4 359.3 127.3 318.6 147.5 281.6 160.9 255.3 238.8 246.5 253.6 303.4 345.0 350.2 342.8z"/>
        <path d="M 365.2 377.3 L  365.2 377.3 419.1 385.4 448.6 372.4 488.9 349.5 528.5 251.0 502.9 258.0 479.8 169.2 436.5 139.2 421.4 130.9 386.7 117.6 319.6 141.1 299.2 173.4 280.6 248.9 272.7 268.0 304.0 347.9 340.6 354.3z"/>
        <path d="M 416.9 119.2 L  416.9 119.2 352.2 148.3 312.1 149.1 253.4 264.9 266.0 235.9 317.8 358.3 350.4 379.4 437.0 383.0 478.6 349.3 508.1 250.7 511.0 265.2 478.9 147.4z"/>
        <path d="M 510.2 253.9 L  510.2 253.9 540.1 254.4 474.2 161.3 436.0 152.7 418.0 135.2 388.1 130.6 374.8 133.4 350.3 138.7 297.0 156.1 264.6 244.9 266.5 254.1 305.9 333.2 329.6 369.1 350.0 369.8 407.7 386.6 425.6 366.0 479.5 352.5 480.5 336.1z"/>
        <path d="M 511.8 249.2 L  511.8 249.2 518.0 272.1 503.4 157.6 450.5 141.8 428.1 99.3 388.3 118.6 367.9 120.0 339.7 138.3 297.6 166.3 257.9 255.6 264.8 267.7 302.0 323.5 336.0 341.8 356.6 375.8 390.2 373.8 418.6 360.3 434.7 355.3 483.6 315.5z"/>
        <path d="M 338.3 130.8 L  338.3 130.8 290.4 154.3 278.9 236.4 259.0 255.8 315.6 319.1 328.5 361.3 354.3 360.0 385.3 373.4 411.6 374.4 443.4 371.0 476.6 356.2 497.9 327.1 539.8 230.8 528.2 258.7 496.6 172.5 478.0 149.1 440.6 113.8 401.8 122.2 392.5 140.4 360.8 140.7z"/>
        <path d="M 510.3 357.6 L  510.3 357.6 526.3 262.0 538.3 240.8 490.6 162.1 463.8 111.1 427.1 132.1 370.8 119.1 327.4 150.1 283.2 231.2 262.8 246.8 325.7 357.2 367.8 376.9 405.7 380.7 445.0 368.7z"/>
        <path d="M 379.4 135.5 L  379.4 135.5 328.5 133.7 264.1 239.8 281.3 244.2 333.2 359.0 383.3 364.4 441.2 366.2 478.3 330.5 540.3 238.3 555.0 253.7 472.1 150.6 422.7 98.2z"/>
        <path d="M 315.1 174.4 L  315.1 174.4 280.1 251.5 270.1 239.9 313.7 331.6 339.8 371.5 378.9 381.5 412.4 384.4 446.4 373.0 481.9 363.4 517.5 355.5 542.8 242.9 543.2 242.8 511.5 164.4 474.9 126.5 449.4 121.5 405.6 99.2 354.8 102.6 349.6 126.6z"/>
        <path d="M 547.9 252.2 L  547.9 252.2 562.1 244.5 492.0 130.2 426.9 126.5 357.2 142.8 271.6 235.7 286.9 254.9 356.9 361.7 417.1 378.0 474.1 367.4z"/>
        <path d="M 408.0 121.8 L  408.0 121.8 345.1 140.0 309.1 244.8 309.5 234.8 358.3 371.4 417.1 376.2 483.5 362.7 560.8 250.1 564.1 250.4 509.2 116.1z"/>
        <path d="M 303.7 258.1 L  303.7 258.1 280.7 253.1 325.7 349.1 376.0 352.9 400.9 396.9 423.2 383.3 481.3 368.8 517.3 348.9 560.4 233.7 566.3 227.9 512.1 170.4 496.2 123.6 435.5 143.8 425.4 105.7 384.1 129.8 318.9 155.6z"/>
        <path d="M 399.8 379.3 L  399.8 379.3 437.8 386.5 448.2 380.6 497.3 381.9 507.8 385.6 541.6 332.7 585.6 250.0 561.4 248.2 533.5 162.0 512.8 138.0 477.0 125.0 444.6 111.2 412.1 122.1 382.4 131.9 355.2 136.0 322.9 160.2 266.0 268.3 285.6 235.2 336.9 334.8 335.7 381.4z"/>
        <path d="M 296.4 262.2 L  296.4 262.2 299.5 255.2 342.4 359.9 410.3 371.6 462.8 384.9 524.6 360.4 575.6 259.9 558.9 253.2 521.4 138.5 457.7 118.1 407.2 105.1 358.5 131.7z"/>
        <path d="M 481.5 128.0 L  481.5 128.0 421.6 114.8 398.1 112.7 375.4 142.2 332.7 166.9 297.1 248.2 295.9 249.5 337.6 344.4 346.4 364.0 402.6 372.0 431.9 376.2 466.2 380.1 497.6 350.3 552.6 331.6 559.2 245.0 559.2 234.9 523.4 167.3 496.0 128.6z"/>
        <path d="M 582.1 254.1 L  582.1 254.1 542.9 145.1 498.0 116.2 428.6 114.5 392.6 110.8 355.1 153.7 302.7 251.3 292.8 249.7 324.4 371.1 387.7 373.4 440.9 391.3 471.2 386.7 522.3 356.3 579.7 262.7z"/>
        <path d="M 575.1 254.8 L  575.1 254.8 572.8 243.9 548.4 153.0 518.9 130.7 464.5 107.4 435.3 122.5 399.8 114.5 381.7 126.1 322.0 155.5 285.8 259.3 318.9 251.6 315.6 342.6 365.0 357.1 383.8 368.0 426.2 384.0 481.7 381.7 515.4 377.2 535.6 346.5z"/>
        <path d="M 354.8 350.0 L  354.8 350.0 399.1 376.6 444.9 386.8 487.4 402.9 551.8 347.3 581.6 247.0 577.6 261.4 525.8 143.6 500.8 117.5 450.7 117.4 410.3 127.9 352.8 145.6 313.1 227.6 306.4 253.8z"/>
        <path d="M 593.3 248.9 L  593.3 248.9 518.4 136.0 457.8 110.8 398.3 130.6 288.0 252.3 312.7 251.2 371.5 368.3 448.6 394.1 519.4 371.4 582.5 259.3z"/>
        <path d="M 518.2 388.8 L  518.2 388.8 554.8 368.4 606.4 237.7 592.1 243.5 539.9 142.8 516.0 134.7 457.6 118.3 421.1 119.3 364.8 136.8 310.4 248.5 317.8 245.6 356.7 372.5 424.5 367.6 446.8 386.9z"/>
        <path d="M 459.1 106.2 L  459.1 106.2 421.3 114.0 390.6 124.6 347.4 167.9 302.8 250.7 324.9 244.6 353.4 347.2 378.9 370.0 411.8 386.6 434.1 386.6 482.1 388.5 503.7 383.6 533.9 376.4 582.6 331.9 614.7 246.8 609.3 244.3 558.3 146.9 529.8 110.3 514.3 125.1 475.5 98.3z"/>
        <path d="M 438.7 121.8 L  438.7 121.8 393.8 114.3 363.4 148.6 314.3 253.8 311.6 258.6 365.8 332.7 399.9 396.3 435.8 395.9 445.7 414.6 498.4 413.3 537.1 376.1 568.0 336.0 612.8 262.5 598.1 262.6 579.3 147.8 551.1 127.4 503.3 112.2 482.9 122.4z"/>
        <path d="M 309.5 233.3 L  309.5 233.3 312.8 249.9 357.0 350.4 377.0 364.5 450.5 388.6 454.9 392.7 500.8 396.2 536.4 370.6 573.2 352.7 626.5 253.1 613.8 257.7 570.1 155.4 536.8 127.6 508.6 129.1 467.3 96.6 426.4 119.9 387.9 116.6 354.9 144.4z"/>
        <path d="M 376.7 130.5 L  376.7 130.5 321.7 272.7 318.0 261.9 375.3 367.9 442.0 386.7 500.4 401.2 545.5 354.9 620.4 260.5 610.1 233.2 548.3 127.3 492.1 102.3 425.0 98.2z"/>
        <path d="M 461.7 392.1 L  461.7 392.1 561.9 375.6 636.4 249.3 632.9 253.8 542.3 119.3 475.6 93.0 395.2 137.4 326.7 273.8 335.9 258.0 397.4 383.7z"/>
        <path d="M 475.1 394.4 L  475.1 394.4 517.0 393.7 536.7 392.5 579.5 340.5 626.5 273.8 615.8 250.1 586.0 153.0 561.4 119.6 510.4 102.9 472.6 109.8 440.9 97.6 416.2 130.8 357.3 171.4 344.1 259.2 323.4 250.6 357.2 344.5 392.0 391.4 440.0 385.4z"/>
        <path d="M 383.3 354.0 L  383.3 354.0 422.6 403.1 458.2 390.0 517.8 396.4 531.0 400.4 570.7 372.5 592.5 341.2 622.4 251.9 619.3 266.6 584.9 168.8 548.7 134.8 522.6 123.1 478.1 78.7 440.7 98.4 427.0 126.9 390.1 122.6 354.7 159.5 338.6 250.7 333.7 248.0 373.3 333.5z"/>
        <path d="M 411.3 118.8 L  411.3 118.8 363.8 142.7 348.5 250.3 337.2 257.2 375.4 341.8 416.8 396.7 448.5 416.4 494.3 397.3 536.2 383.0 587.0 332.5 629.9 269.4 628.4 261.9 602.3 150.5 535.4 98.5 503.9 100.4 451.0 93.8z"/>
        <path d="M 484.5 99.3 L  484.5 99.3 395.6 124.0 346.1 234.9 322.7 244.1 398.4 389.7 474.8 392.6 543.2 391.7 625.7 249.9 609.4 253.3 559.8 115.6z"/>
        <path d="M 548.3 106.1 L  548.3 106.1 489.3 101.9 454.6 105.4 411.4 102.2 378.7 143.9 348.5 248.0 310.0 258.4 371.5 368.6 424.9 380.0 455.7 391.2 499.0 402.2 559.3 396.2 579.4 365.8 623.6 244.8 642.6 257.2 593.8 149.0z"/>
        <path d="M 467.2 108.7 L  467.2 108.7 388.9 113.7 327.9 251.1 327.4 257.1 398.9 390.2 452.5 387.8 550.5 368.6 643.0 242.5 648.3 256.4 555.0 111.0z"/>
        <path d="M 330.4 234.0 L  330.4 234.0 317.8 253.6 409.5 382.3 477.4 398.0 540.7 384.2 648.4 235.9 633.6 245.7 568.5 112.9 482.4 97.3 398.2 105.8z"/>
        <path d="M 423.0 387.0 L  423.0 387.0 447.6 396.6 488.3 419.8 520.8 396.8 564.1 366.6 611.2 364.4 628.8 250.2 629.1 258.6 613.7 152.1 561.2 127.2 516.1 94.3 489.5 103.6 439.0 108.8 401.8 120.4 375.4 130.6 333.6 253.1 335.3 260.4 376.3 354.0z"/>
        <path d="M 367.1 359.3 L  367.1 359.3 427.2 382.3 465.5 409.8 511.5 403.1 556.6 379.3 591.1 358.7 660.9 240.8 644.4 251.2 596.2 127.1 558.2 98.9 508.6 97.3 461.3 94.2 424.2 117.5 364.5 134.5 342.5 242.8 340.1 276.5z"/>
        <path d="M 395.3 118.0 L  395.3 118.0 348.5 258.1 362.8 258.2 378.2 375.6 474.1 414.6 523.5 405.9 578.3 366.4 651.1 266.9 653.5 246.1 601.3 125.4 517.5 92.7 473.8 79.9z"/>
        <path d="M 578.1 409.9 L  578.1 409.9 615.5 355.3 660.9 250.7 668.7 240.6 630.3 132.0 577.3 105.4 532.9 102.9 484.7 73.7 415.9 108.9 390.8 151.0 340.2 263.5 335.3 247.6 385.5 382.5 427.0 379.2 484.6 405.5 534.3 385.8z"/>
        <path d="M 625.6 338.4 L  625.6 338.4 662.8 260.5 660.9 261.6 636.8 145.9 600.7 107.5 558.0 91.3 515.1 111.1 491.1 91.7 455.3 92.1 413.1 114.4 374.4 144.8 344.2 249.0 339.8 242.9 360.6 345.1 424.6 419.7 452.4 411.0 500.1 413.2 528.5 409.6 564.0 389.8 579.1 381.6z"/>
        <path d="M 655.6 357.9 L  655.6 357.9 674.3 251.1 667.5 240.7 634.0 148.6 608.5 108.1 546.2 107.6 529.0 88.8 501.6 74.8 457.2 104.1 431.5 110.8 372.1 159.3 346.6 240.2 337.6 256.4 388.1 341.6 412.3 383.0 444.2 405.8 475.4 410.6 516.8 418.5 561.4 389.8 594.8 388.2z"/>
        <path d="M 379.5 355.4 L  379.5 355.4 443.7 404.0 483.7 409.8 508.5 423.6 554.5 406.3 590.3 392.4 615.7 355.7 680.0 252.7 677.2 236.3 639.5 150.8 582.8 104.3 545.9 110.0 508.2 66.4 463.2 79.3 439.9 110.8 384.9 153.3 352.5 257.3 341.7 246.8z"/>
        <path d="M 350.8 252.2 L  350.8 252.2 347.4 248.8 396.1 346.0 449.4 401.8 477.9 407.2 502.9 405.0 557.4 398.8 585.8 364.9 620.7 356.7 700.0 255.2 690.5 255.1 626.4 143.9 617.5 105.7 554.9 98.5 524.6 90.0 460.4 81.5 423.6 105.5 382.0 148.3z"/>
        <path d="M 668.5 227.2 L  668.5 227.2 702.5 256.5 635.6 126.0 545.2 79.3 483.6 90.9 430.3 102.7 335.2 249.4 359.4 263.7 405.6 372.8 459.7 397.1 550.3 396.0 600.6 387.8z"/>
        <path d="M 705.0 244.8 L  705.0 244.8 694.5 256.8 587.1 107.0 526.4 85.2 433.9 104.2 384.1 250.7 352.0 236.3 450.3 386.6 528.8 426.0 604.4 395.3z"/>
        <path d="M 686.4 239.5 L  686.4 239.5 682.1 241.9 638.3 116.4 544.3 93.0 479.6 80.8 432.7 106.1 362.0 245.3 336.2 229.6 430.3 378.0 478.1 421.9 552.9 406.5 635.4 394.5z"/>
        <path d="M 557.1 87.3 L  557.1 87.3 512.5 86.7 479.7 88.2 441.2 107.6 401.2 140.6 368.8 241.7 369.0 245.3 402.7 358.2 427.5 386.0 461.7 401.6 522.5 431.7 547.3 435.7 591.9 411.4 623.6 391.3 666.6 352.5 709.0 253.9 704.4 245.1 661.9 152.1 624.9 115.0 579.7 111.3z"/>
        <path d="M 506.1 431.6 L  506.1 431.6 538.6 404.7 593.5 415.2 633.6 390.4 658.7 357.7 714.2 256.6 719.2 233.6 686.0 127.5 633.6 104.3 576.4 85.4 539.7 79.6 492.4 85.3 461.2 115.0 415.6 132.1 375.3 248.4 389.8 240.7 417.1 377.6 461.5 391.7z"/>
        <path d="M 499.4 85.9 L  499.4 85.9 450.3 100.7 435.7 152.2 357.2 252.1 384.7 267.2 399.8 369.4 457.1 404.8 498.4 434.3 553.4 430.4 595.7 428.4 632.7 390.7 667.8 368.3 724.3 258.2 712.8 257.7 666.8 138.9 629.9 97.5 583.9 78.2 541.2 91.4z"/>
        <path d="M 454.2 401.7 L  454.2 401.7 549.5 413.9 625.5 401.0 702.9 262.3 711.2 255.0 621.1 114.5 550.5 86.4 468.5 107.0 367.8 232.5 387.9 268.2z"/>
        <path d="M 537.8 73.5 L  537.8 73.5 459.9 83.6 378.8 269.3 379.6 251.6 452.3 414.7 558.6 425.1 637.6 390.1 710.2 253.9 721.2 246.0 615.3 118.2z"/>
        <path d="M 688.9 341.3 L  688.9 341.3 715.3 250.9 719.1 248.6 671.2 152.9 662.6 111.0 615.0 91.8 575.7 90.5 517.6 93.5 491.2 76.7 454.8 94.8 407.7 143.8 378.8 235.1 384.3 247.0 417.0 368.1 457.1 402.2 485.9 392.0 522.7 419.8 563.5 419.2 618.0 411.9 658.2 398.2z"/>
        <path d="M 463.9 88.4 L  463.9 88.4 379.5 257.8 388.0 243.7 463.1 395.9 563.1 406.4 642.6 404.6 708.7 269.8 719.8 251.7 639.8 100.4 545.5 107.1z"/>
        <path d="M 508.1 81.1 L  508.1 81.1 455.2 109.3 376.1 242.6 368.8 250.1 434.0 377.3 515.0 410.8 543.8 418.2 594.7 429.8 676.9 395.8 745.8 241.9 728.6 259.6 673.9 142.0 632.3 79.2 541.3 82.3z"/>
        <path d="M 524.2 81.1 L  524.2 81.1 473.7 106.7 382.5 243.7 389.3 237.7 465.8 358.1 528.4 420.5 589.3 426.9 660.9 393.9 729.0 248.4 743.1 235.0 658.6 95.5 602.1 82.4z"/>
        <path d="M 448.8 105.4 L  448.8 105.4 375.5 253.2 397.8 257.1 458.2 388.8 519.1 418.7 597.7 407.9 666.7 391.7 736.3 252.0 741.0 255.9 659.8 111.5 589.7 79.9 547.6 69.4z"/>
        <path d="M 637.5 75.1 L  637.5 75.1 598.9 70.0 535.6 69.7 501.1 95.5 420.4 117.9 404.5 248.0 394.7 250.8 455.5 383.9 497.7 406.6 538.1 439.5 584.1 419.9 629.3 407.2 692.7 377.1 740.4 235.2 750.7 258.0 698.3 130.9z"/>
        <path d="M 673.1 384.7 L  673.1 384.7 753.1 237.5 746.4 237.5 663.1 102.1 607.1 74.5 547.2 88.0 446.9 117.3 391.1 241.2 378.6 230.1 460.1 395.8 530.7 427.6 594.7 421.3z"/>
        <path d="M 479.8 86.1 L  479.8 86.1 417.8 246.0 394.6 238.0 485.3 399.1 571.4 428.6 659.2 392.9 761.2 260.3 757.7 267.1 671.3 86.5 574.6 74.5z"/>
        <path d="M 525.6 93.9 L  525.6 93.9 459.4 131.2 405.3 229.6 402.2 244.6 467.7 392.6 531.2 431.8 570.4 437.3 656.7 420.2 685.9 379.8 757.4 237.4 753.0 237.7 701.8 104.9 638.7 89.9 582.6 86.5z"/>
        <path d="M 781.1 250.8 L  781.1 250.8 770.9 264.3 717.8 137.7 686.0 85.2 626.1 75.6 566.5 60.0 548.6 66.6 487.4 88.7 450.2 132.8 406.1 245.6 412.4 267.1 451.1 377.9 485.2 414.7 536.5 438.2 578.1 408.8 631.0 418.5 672.3 400.7 724.8 361.4z"/>
        <path d="M 775.0 269.6 L  775.0 269.6 733.4 141.2 701.0 103.2 646.5 91.8 599.2 73.7 570.9 70.0 535.5 73.6 489.3 96.3 439.6 135.0 398.7 251.1 396.4 244.2 455.0 342.2 475.2 388.8 545.9 421.9 571.9 429.7 611.5 442.5 661.4 434.1 707.6 415.8 732.4 371.2 791.8 256.1z"/>
        <path d="M 391.1 228.9 L  391.1 228.9 401.9 258.4 480.3 388.0 531.8 417.2 591.3 439.5 655.4 416.1 720.5 366.4 764.1 241.1 797.1 241.4 726.2 104.3 662.1 69.4 596.4 75.3 526.6 53.0 484.2 117.9z"/>
        <path d="M 661.1 101.0 L  661.1 101.0 610.9 77.2 564.2 71.4 508.2 88.3 465.2 129.5 398.2 228.6 402.1 242.1 467.2 364.9 517.5 410.9 570.7 417.4 614.3 454.8 676.3 415.7 733.5 405.3 782.4 231.6 788.4 245.2 745.6 125.8z"/>
        <path d="M 645.7 74.9 L  645.7 74.9 590.4 64.2 541.6 75.6 487.2 96.1 401.3 243.5 401.2 250.8 479.5 401.3 541.9 437.1 579.3 427.8 633.3 424.4 707.7 394.5 793.6 266.8 785.7 252.5 726.4 102.5z"/>
        <path d="M 619.9 437.0 L  619.9 437.0 673.2 430.0 728.7 373.5 788.5 247.3 788.7 236.5 729.7 117.0 675.6 76.7 629.5 70.7 576.4 63.2 525.5 102.8 465.3 132.6 412.3 236.5 415.6 241.3 448.9 371.7 512.3 412.7 568.8 415.6z"/>
        <path d="M 652.8 427.5 L  652.8 427.5 753.9 391.5 774.2 256.0 820.3 238.1 742.6 98.9 680.5 69.9 581.8 53.2 539.1 65.1 483.6 111.2 393.2 251.7 432.0 251.0 477.1 402.0 521.2 424.8 594.0 442.8z"/>
        <path d="M 498.9 84.6 L  498.9 84.6 469.3 125.4 408.3 256.4 412.8 248.6 464.7 366.7 496.8 411.0 540.8 443.0 582.6 435.6 621.2 442.4 671.5 441.8 708.8 411.6 743.0 362.3 785.9 266.8 793.4 249.3 750.3 119.1 715.7 103.9 673.2 60.0 647.8 57.1 579.6 75.3 545.5 68.1z"/>
        <path d="M 630.8 427.7 L  630.8 427.7 691.2 413.8 742.3 381.9 815.6 245.8 804.9 251.8 762.1 120.7 694.2 75.5 626.1 51.3 579.8 61.7 524.7 83.5 473.0 127.9 417.7 256.7 424.9 273.7 478.0 378.5 523.7 424.3 587.5 450.7z"/>
        <path d="M 641.2 448.8 L  641.2 448.8 679.7 447.0 735.3 413.7 766.4 386.3 794.3 249.2 801.6 250.5 770.3 142.4 715.4 103.1 672.7 72.3 629.3 55.4 579.9 74.0 545.3 85.2 504.8 93.7 448.4 126.2 425.3 243.1 419.4 252.9 471.8 373.9 517.2 436.1 548.6 428.4 585.6 438.8z"/>
        <path d="M 652.8 444.1 L  652.8 444.1 747.6 400.8 794.1 255.2 801.5 242.5 722.6 94.6 647.9 72.8 564.6 64.7 507.1 99.7 419.5 244.1 410.5 245.7 499.7 394.2 573.9 441.9z"/>
        <path d="M 808.7 247.3 L  808.7 247.3 826.0 257.8 751.4 84.6 702.8 64.2 613.5 36.0 543.6 69.9 486.0 101.4 433.5 252.7 432.0 226.4 491.9 400.9 549.0 409.9 620.3 441.0 697.1 442.4 746.8 391.8z"/>
        <path d="M 709.3 430.4 L  709.3 430.4 815.3 258.3 827.4 248.7 749.0 83.2 617.1 55.4 516.9 104.7 427.0 244.0 434.4 264.4 514.7 415.4 614.3 447.6z"/>
        <path d="M 637.4 61.9 L  637.4 61.9 586.2 68.3 526.7 98.3 464.0 125.0 447.4 256.3 437.4 258.6 477.6 387.3 525.4 413.5 571.4 441.9 630.4 442.8 681.6 442.9 735.2 418.2 769.5 384.8 827.8 242.6 824.5 252.4 768.8 95.4 705.7 82.1 671.9 42.5z"/>
        <path d="M 757.6 387.2 L  757.6 387.2 825.0 229.3 826.7 238.4 763.0 95.3 711.1 66.7 632.6 46.8 560.3 59.2 506.5 92.2 416.9 252.1 430.6 235.5 497.7 398.0 562.1 425.0 638.1 441.4 700.5 430.0z"/>
        <path d="M 822.0 244.4 L  822.0 244.4 756.9 98.5 648.8 59.0 584.2 44.6 499.5 93.6 445.2 253.9 440.0 264.0 512.0 404.2 587.8 434.2 651.6 464.8 747.6 404.3 829.9 251.7z"/>
        <path d="M 756.6 395.8 L  756.6 395.8 821.5 257.1 845.1 262.4 757.9 104.3 693.8 77.2 621.1 45.8 575.3 61.8 507.5 102.5 443.4 231.4 436.2 236.2 510.1 391.2 566.4 425.7 632.8 460.0 703.8 435.2z"/>
        <path d="M 667.9 443.6 L  667.9 443.6 745.8 411.7 837.6 234.6 850.8 250.8 772.2 100.6 679.9 45.3 612.4 58.0 539.1 100.8 442.8 242.9 442.1 265.3 513.7 413.2 611.2 442.2z"/>
        <path d="M 852.0 248.6 L  852.0 248.6 836.6 240.0 728.1 80.1 638.8 63.9 536.4 75.3 445.4 250.9 450.1 251.7 545.7 445.3 632.3 442.3 742.0 425.4z"/>
        <path d="M 450.9 237.0 L  450.9 237.0 436.9 248.6 484.2 387.5 526.6 434.1 580.5 443.4 657.1 462.2 683.3 453.4 745.2 436.7 804.1 377.4 838.9 251.0 833.6 244.0 815.7 114.7 756.8 48.2 682.9 45.7 636.8 62.3 600.6 62.3 555.6 78.1 483.2 117.6z"/>
        <path d="M 584.0 49.1 L  584.0 49.1 527.3 77.4 440.2 257.2 438.5 247.1 524.4 430.0 603.5 460.5 668.1 439.9 762.8 425.9 865.8 262.0 842.6 256.4 777.0 66.9 674.5 54.9z"/>
        <path d="M 637.5 61.2 L  637.5 61.2 581.2 62.2 507.8 90.5 446.2 243.7 419.3 242.3 505.7 415.5 572.7 454.1 650.1 477.5 724.8 450.9 779.2 392.9 831.6 242.4 838.3 241.1 786.3 96.7 715.2 55.2z"/>
        <path d="M 660.3 477.2 L  660.3 477.2 753.0 429.0 836.7 246.3 852.9 250.8 742.3 58.1 646.1 56.6 561.5 63.8 425.5 252.2 425.9 247.0 547.8 432.4z"/>
        <path d="M 774.2 407.0 L  774.2 407.0 852.1 259.5 887.2 258.2 775.4 74.5 685.1 41.4 625.7 32.5 515.3 90.8 439.2 235.7 461.0 249.0 529.2 412.6 601.0 435.0 680.8 458.6z"/>
        <path d="M 882.6 259.4 L  882.6 259.4 821.4 106.6 802.3 78.6 717.2 39.8 676.2 52.5 629.0 40.0 572.1 70.7 542.0 82.3 495.7 113.0 447.1 234.8 443.4 242.5 493.2 373.2 557.1 416.0 577.0 441.3 639.2 455.3 677.5 456.5 721.6 457.0 786.9 426.6 829.2 374.9 859.5 245.8z"/>
        <path d="M 594.6 66.4 L  594.6 66.4 510.1 92.0 465.8 249.9 458.2 274.6 502.2 409.2 578.6 447.0 655.5 464.5 745.6 443.6 806.2 411.0 866.0 253.4 868.7 240.6 811.2 95.7 734.1 47.1 673.0 33.4z"/>
        <path d="M 717.6 44.9 L  717.6 44.9 656.7 28.6 594.5 50.3 520.1 111.5 440.5 249.1 457.8 249.4 530.7 395.3 599.9 454.3 658.7 468.5 734.2 454.4 801.0 391.7 870.7 265.6 869.0 266.4 802.8 88.4z"/>
        <path d="M 543.3 407.8 L  543.3 407.8 639.2 473.5 711.8 456.1 789.0 424.1 889.1 266.0 877.0 253.8 815.1 73.4 697.3 57.7 617.0 41.5 544.8 86.9 459.7 269.0 466.6 262.5z"/>
        <path d="M 470.1 237.7 L  470.1 237.7 466.5 246.8 545.2 410.9 596.2 458.4 729.1 462.7 792.7 408.5 897.2 240.0 885.8 248.6 794.6 86.2 725.9 36.0 627.4 32.6 536.6 77.6z"/>
        <path d="M 821.5 390.8 L  821.5 390.8 895.8 249.8 892.0 256.5 812.6 104.1 783.1 78.7 723.8 56.5 660.3 54.0 630.1 47.8 546.2 57.2 514.2 98.5 448.2 254.9 462.5 268.5 502.2 386.7 573.4 438.3 630.8 458.0 653.1 467.3 708.0 460.2 781.9 430.9z"/>
        <path d="M 499.1 381.9 L  499.1 381.9 566.0 441.3 607.4 446.7 682.1 479.6 716.8 457.3 817.1 444.6 856.0 409.5 878.1 247.6 884.1 253.2 830.7 108.7 776.6 70.0 738.0 35.9 675.8 49.7 617.1 26.9 569.0 64.3 527.2 114.7 466.7 234.1 468.1 221.8z"/>
        <path d="M 637.7 468.2 L  637.7 468.2 702.7 460.9 748.4 422.2 813.2 391.2 896.9 255.6 883.9 260.1 821.9 103.0 768.0 72.7 699.1 35.9 633.0 48.5 589.7 62.8 524.7 93.3 458.5 263.7 478.4 250.2 529.5 397.8 585.4 419.1z"/>
        <path d="M 807.9 409.7 L  807.9 409.7 912.9 265.2 898.8 259.2 822.2 68.5 731.7 22.4 654.6 25.0 551.3 67.4 449.5 257.2 463.5 246.7 534.5 423.9 644.9 468.4 727.5 465.2z"/>
        <path d="M 909.1 236.7 L  909.1 236.7 897.6 246.4 805.7 78.7 740.0 51.6 638.2 41.9 557.9 86.6 467.2 255.9 453.2 249.8 560.0 428.9 653.5 446.2 737.4 455.7 818.6 422.6z"/>
        <path d="M 818.7 69.5 L  818.7 69.5 744.0 32.4 640.9 34.6 561.0 54.6 489.7 247.2 450.4 271.7 545.8 440.2 649.0 450.8 735.3 464.3 819.1 430.7 920.1 232.7 923.6 251.5z"/>
    </g> 
</svg>