<?xml version="1.0" encoding="UTF-8" standalone="no"?>
<svg width="100" height="100" version="1.1" xmlns="http://www.w3.org/2000/svg">
    <g opacity="1.0">
        <path d="M 50.0 50.0 L  50 48 52 48 52 50 52 52 52 54 54 54 52 54 52 52 52 54 52 52 54 52 52 52 50 52 50 50 50 48 52 48 54 48 52 48 52 50 54 50 54 48 56 48 58 48 58 50 56 50 58 50 60 50 58 50 60 50 60 52 60 54 58 54 58 56 58 54 60 54 60 56 58 56 56 56 56 54 56 52 56 50 56 48 56 46 54 46 54 48 54 50 52 50 52 48 54 48 54 50 56 50 58 50 58 52 56 52 56 54 54 54 54 52 52 52 52 54 50 54 50 52 52 52 52 54 50 54 48 54 50 54 52 54 52 52 54 52 54 50 52 50 52 48 54 48 56 48 56 50 56 48 56 50 56 48 54 48 54 50 56 50 54 50 56 50 54 50 52 50 54 50 54 48 54 50 56 50 58 50 58 52 58 50 58 48 58 50 58 52 58 50 58 52 56 52 56 50 56 52 54 52 52 52 50 52 52 52 52 50 50 50 48 50 50 50 50 48 52 48 50 48 50 46 50 44 48 44 50 44 52 44 52 42 52 44 52 42 54 42 54 44 54 46 52 46 50 46 48 46 46 46 46 44 46 46 46 44 46 42 46 40 44 40 42 40 42 42 44 42 44 44 44 46 44 48 42 48 44 48 46 48 48 48 50 48 50 46 48 46 50 46 50 48 50 46 48 46 46 46 46 44 44 44 44 42 46 42 44 42 42 42 42 40 42 42 40 42 40 40 40 42 42 42 42 40 44 40 44 42 44 44 46 44 46 42 48 42 46 42 46 44 48 44 50 44 48 44 50 44 52 44 50 44 48 44 50 44 50 46 50 48 52 48 52 50 54 50 52 50 54 50 54 48 54 46 54 44 52 44 54 44 54 42 54 40 54 38 52 38 50 38 50 40 48 40 48 42 48 40 46 40 48 40 48 42 48 44 48 42 48 44 48 46 50 46 52 46 54 46 54 48 52 48 54 48 54 50 52 50 54 50 54 48 54 50 54 48 56 48 58 48 58 50 58 48 60 48 62 48 62 46 64 46 62 46 62 48 60 48 60 50 62 50 62 48 64 48 64 50 62 50 62 52 60 52 60 50 60 48 60 46 60 44 62 44 62 42 60 42 60 40 60 38 58 38 58 40 58 42 58 44 58 42 58 40 58 38 56 38 58 38 58 36 58 34 60 34 60 36 60 34 60 32 62 32 60 32 60 30 62 30 64 30 64 32 64 34 62 34 60 34 60 36 62 36 60 36 58 36 58 38 58 36 58 34 56 34 56 36 54 36 54 38 56 38 56 36 56 38 56 36 56 38 56 36 56 38 56 36 56 38 56 36 58 36 58 34 58 32 58 30 58 28 60 28 60 26 58 26 56 26 56 24 58 24 60 24 58 24 60 24 60 26 60 28 58 28 58 26 58 28 56 28 54 28 54 26 56 26 54 26 52 26 54 26 56 26 56 28 54 28 56 28 58 28 58 26 60 26 60 24 62 24 62 26 64 26 62 26 62 24 64 24 64 22 66 22 66 20 68 20 66 20 68 20 68 18 70 18 70 20 70 22 72 22 72 20 74 20 76 20 74 20 76 20 78 20 80 20 82 20 82 22 84 22 84 24 84 26 86 26 86 28 84 28 84 26 84 28 82 28 82 30 80 30 80 32 78 32 78 30 76 30 76 28 74 28 74 26 72 26 70 26 72 26 72 28 72 30 70 30 68 30 70 30 68 30 66 30 66 32 64 32 66 32 64 32 64 34 64 36 66 36 68 36 68 38 70 38 70 40 68 40 70 40 70 42 70 40 72 40 70 40 70 38 68 38 68 36 66 36 66 34 68 34 68 32 68 30 68 32 68 34 68 32 66 32 66 30 64 30 66 30 68 30 70 30 72 30 72 32 74 32 72 32 72 30 72 32 72 34 74 34 74 36 76 36 76 34 76 32 76 30 74 30 74 32 76 32 78 32 78 30 78 32 78 34 78 32 80 32 80 34 78 34 76 34 74 34 74 36 76 36 76 34 76 36 78 36 80 36 80 34 80 32 82 32 82 34 82 32 84 32 86 32 86 34 88 34 88 36 88 34 88 36 86 36 88 36 90 36 90 38 88 38 88 40 86 40 86 42 88 42 86 42 86 44 88 44 88 46 86 46 86 48 84 48 84 46 84 44 84 42 84 40 82 40 82 42 84 42 84 40 84 38 82 38 80 38 82 38 80 38 78 38 78 40 78 38 80 38 80 36 80 34 82 34 82 36 80 36 80 38 80 36 82 36 84 36 86 36 88 36 88 34 90 34 90 36 90 38 92 38 90 38 90 36 92 36 92 34 94 34 92 34 90 34 88 34 90 34 88 34 88 36 90 36 92 36 94 36 96 36 96 38 96 40 96 42 96 44 96 46 94 46 94 44 92 44 90 44 92 44 90 44 90 42 88 42 88 44 88 42 86 42 84 42 86 42 86 40 86 42 84 42 84 40 84 38 84 40 84 42 86 42 86 44 88 44 88 42 88 44 88 42 88 44 90 44 88 44 90 44 88 44 90 44 90 42 88 42 88 40 88 38 86 38 88 38 88 36 88 38 86 38 88 38 86 38 86 40 86 38 86 36 86 34 86 32 86 34 86 36 84 36 86 36 86 38 86 40 86 42 86 40 86 38 86 40 86 38 86 40 84 40 86 40 88 40 88 42 88 44 86 44 86 42 88 42 88 40 86 40 86 42 88 42 88 44 88 46 88 48 88 50 88 48 88 50 88 48 88 50 86 50 86 52 88 52 90 52 88 52 88 54 88 52 86 52 86 50 84 50 86 50 86 48 88 48 88 46 88 44 86 44 84 44 84 42 84 40 84 38 86 38 84 38 84 36 86 36 86 38 88 38 88 40 88 38 90 38 88 38 88 40 86 40 86 42 88 42 88 44 88 46 86 46 86 48 86 50 88 50 88 48 88 50 86 50 88 50 88 48 88 50 88 48 86 48 84 48 84 50 86 50 84 50 82 50 82 52 80 52 80 54 80 52 80 54 80 56 80 58 78 58 76 58 76 56 78 56 76 56 78 56 76 56 76 54 74 54 76 54 76 52 78 52 78 54 76 54 76 52 74 52 76 52 76 50 76 48 78 48 78 50 78 52 76 52 76 54 74 54 72 54 72 56 74 56 74 54 74 56 74 58 72 58 70 58 68 58 68 56 68 58 68 56 66 56 66 58 68 58 66 58 66 60 68 60 68 58 68 56 68 58 70 58 70 60 72 60 72 58 70 58 72 58 70 58 70 56 70 58 72 58 72 56 72 58 70 58 70 56 70 58 70 56 68 56 66 56 64 56 66 56 68 56 68 54 68 52 68 54 68 52 68 50 70 50 68 50 68 48 70 48 70 46 68 46 66 46 64 46 62 46 62 44 62 46 60 46 60 44 62 44 62 42 62 40 64 40 66 40 68 40 70 40 68 40 70 40 70 38 70 36 68 36 66 36 64 36 64 38 66 38 66 40 68 40 68 42 70 42 70 44 72 44 72 42 72 40 74 40 72 40 72 38 72 36 70 36 68 36 70 36 68 36 70 36 70 38 70 40 72 40 72 42 74 42 72 42 70 42 72 42 74 42 76 42 76 44 74 44 74 46 76 46 78 46 78 48 78 50 78 52 80 52 82 52 84 52 86 52 84 52 86 52 86 54 84 54 84 56 82 56 82 54 82 56 82 58 82 60 84 60 84 62 84 64 86 64 88 64 88 62 88 60 90 60 92 60 94 60 94 58 92 58 92 60 92 58 90 58 88 58 86 58 86 56 86 58 84 58 82 58 82 60 84 60 86 60 88 60 88 62 88 60 86 60 88 60 86 60 84 60 84 62 84 60 86 60 88 60 88 62 90 62 88 62 88 64 88 66 86 66 86 68 84 68 84 66 84 68 84 70 84 68 84 70 84 72 82 72 80 72 80 70 82 70 84 70 84 72 84 74 86 74 86 72 88 72 88 70 90 70 90 68 88 68 88 66 90 66 92 66 92 64 92 62 92 64 92 62 92 60 90 60 90 62 90 64 90 66 90 68 88 68 86 68 86 70 86 68 88 68 88 66 86 66 86 64 86 62 86 60 88 60 90 60 90 58 92 58 92 60 94 60 92 60 90 60 92 60 92 58 90 58 90 56 92 56 92 54 92 52 90 52 88 52 86 52 86 50 84 50 86 50 88 50 88 48 88 46 88 44 88 42 88 40 88 42 88 40 88 42 88 40 86 40 84 40 86 40 88 40 88 42 88 40 86 40 84 40 84 42 86 42 86 40 88 40 88 42 88 40 88 38 88 40 90 40 92 40 94 40 94 38 94 40 96 40 96 42 94 42 94 44 96 44 94 44 94 46 94 48 94 46 94 44 92 44 92 46 94 46 96 46 96 44 98 44 98 42 96 42 94 42 96 42 96 44 98 44 96 44 96 42 96 40 94 40 92 40 92 38 92 40 92 38 92 36 94 36 96 36 96 38 96 40 96 38 96 36 94 36 94 38 94 40 94 38 92 38 92 36 94 36 94 38" stroke="black" stroke-width="0.2" fill="transparent" />
    </g> 
</svg>