<?xml version="1.0" encoding="UTF-8" standalone="no"?>
<svg width="100" height="100" version="1.1" xmlns="http://www.w3.org/2000/svg">
    <g opacity="1.0">
        <path d="M 50.0 50.0 L  48 50 46 50 46 48 46 46 46 44 46 42 46 40 48 40 50 40 52 40 50 40 50 38 48 38 48 36 48 38 48 40 46 40 48 40 46 40 44 40 44 38 46 38 48 38 48 40 48 42 48 44 50 44 50 46 50 48 52 48 52 50 52 48 50 48 50 50 52 50 52 48 52 50 54 50 56 50 54 50 52 50 52 48 54 48 56 48 56 50 58 50 60 50 62 50 62 48 64 48 64 46 62 46 62 48 62 50 60 50 60 48 60 46 60 44 60 42 60 40 62 40 62 38 60 38 58 38 58 40 60 40 62 40 62 38 60 38 62 38 64 38 64 36 62 36 62 38 64 38 62 38 60 38 58 38 58 40 60 40 58 40 58 38 58 36 56 36 58 36 58 34 60 34 60 32 62 32 64 32 64 34 66 34 68 34 70 34 70 36 70 34 70 36 70 34 72 34 70 34 72 34 72 36 74 36 76 36 76 38 78 38 80 38 80 36 82 36 84 36 82 36 82 34 82 36 80 36 82 36 84 36 84 34 82 34 82 32 82 30 82 28 84 28 86 28 84 28 86 28 86 26 86 24 86 22 84 22 84 24 84 26 82 26 80 26 78 26 78 28 76 28 78 28 80 28 80 30 80 28 80 30 80 28 80 30 82 30 82 32 82 34 80 34 78 34 78 32 76 32 74 32 74 34 74 32 76 32 76 30 78 30 78 28 80 28 78 28 78 30 80 30 78 30 80 30 80 28 80 26 80 24 82 24 82 26 82 28 82 26 82 28 82 30 84 30 86 30 84 30 84 28 82 28 80 28 80 30 80 28 80 26 80 24 80 26 80 28 80 30 82 30 80 30 78 30 78 32 78 34 78 32 78 30 78 28 78 30 78 32 76 32 78 32 76 32 74 32 72 32 72 30 72 28 72 30 74 30 72 30 72 28 72 26 74 26 72 26 74 26 76 26 76 24 74 24 76 24 74 24 74 26 72 26 72 24 72 22 70 22 72 22 70 22 72 22 72 20 72 22 72 24 72 26 70 26 70 24 70 22 70 20 70 18 68 18 68 16 68 18 68 20 68 22 68 20 68 18 68 20 68 22 68 24 70 24 72 24 72 26 74 26 74 24 76 24 76 22 76 20 76 22 76 24 76 22 78 22 78 24 80 24 80 22 78 22 78 24 78 22 76 22 74 22 72 22 74 22 74 24 74 22 72 22 72 20 74 20 72 20 72 18 70 18 68 18 68 20 68 22 68 24 66 24 66 26 68 26 68 24 68 22 68 24 68 22 70 22 72 22 72 20 72 22 72 20 72 22 70 22 70 24 70 22 70 24 70 22 70 24 70 26 68 26 66 26 68 26 70 26 70 28 72 28 72 26 72 28 70 28 72 28 70 28 70 30 70 28 70 30 70 32 70 30 70 32 72 32 74 32 72 32 70 32 70 30 72 30 74 30 74 32 76 32 74 32 76 32 76 34 74 34 74 36 72 36 74 36 74 38 76 38 78 38 76 38 74 38 74 36 72 36 72 38 70 38 72 38 70 38 72 38 72 40 72 42 72 40 72 38 70 38 70 40 70 38 70 36 72 36 74 36 74 38 74 40 74 38 72 38 70 38 68 38 70 38 70 40 68 40 66 40 64 40 62 40 62 42 60 42 60 40 60 38 62 38 62 40 64 40 66 40 66 38 64 38 64 36 62 36 60 36 60 38 58 38 56 38 54 38 54 40 54 42 54 40 56 40 58 40 58 42 60 42 60 40 60 38 58 38 56 38 58 38 56 38 58 38 58 40 56 40 56 38 58 38 56 38 54 38 56 38 56 36 56 38 54 38 52 38 54 38 56 38 58 38 58 40 58 38 58 40 56 40 56 42 56 44 56 46 58 46 56 46 58 46 60 46 62 46 60 46 62 46 62 48 62 46 62 48 62 46 62 48 60 48 60 50 60 52 58 52 58 50 58 52 58 54 56 54 56 52 56 50 56 52 56 54 56 56 58 56 60 56 62 56 64 56 66 56 64 56 64 54 64 52 64 54 64 56 62 56 60 56 60 54 60 56 58 56 60 56 60 58 62 58 62 56 62 58 62 56 62 58 64 58 64 60 64 62 64 64 66 64 68 64 68 62 68 64 66 64 66 62 64 62 66 62 68 62 68 64 68 66 68 68 70 68 70 70 70 72 70 70 70 68 70 66 72 66 70 66 70 64 70 62 68 62 68 60 68 58 68 60 70 60 68 60 68 62 68 64 66 64 66 62 66 60 68 60 68 58 66 58 68 58 66 58 66 60 66 62 68 62 68 60 66 60 64 60 62 60 62 58 60 58 60 56 60 58 62 58 62 60 60 60 60 62 60 60 60 58 62 58 64 58 62 58 62 60 60 60 62 60 62 58 62 56 62 58 62 56 62 58 64 58 66 58 68 58 66 58 64 58 64 60 66 60 66 58 68 58 70 58 70 56 70 58 70 56 68 56 66 56 66 54 66 52 64 52 62 52 64 52 66 52 64 52 66 52 66 54 66 52 64 52 64 54 62 54 62 52 64 52 64 50 64 48 62 48 62 46 60 46 62 46 62 44 60 44 62 44 60 44 62 44 64 44 64 42 64 40 64 42 66 42 66 40 66 42 68 42 68 44 68 42 68 40 70 40 70 42 72 42 72 40 72 38 72 36 74 36 74 34 74 32 76 32 78 32 78 30 76 30 74 30 74 28 76 28 78 28 76 28 76 30 76 28 74 28 76 28 76 30 76 28 76 30 78 30 76 30 76 28 74 28 76 28 76 26 76 24 78 24 76 24 74 24 74 26 74 28 74 30 72 30 70 30 72 30 74 30 74 32 74 30 76 30 76 32 76 34 74 34 72 34 70 34 68 34 70 34 70 32 72 32 74 32 74 34 76 34 76 32 76 34 76 36 76 34 78 34 78 32 78 30 80 30 78 30 78 32 80 32 78 32 78 30 76 30 76 32 76 34 78 34 78 36 78 38 78 40 76 40 76 38 78 38 80 38 82 38 80 38 80 36 82 36 82 34 82 36 82 38 80 38 80 40 80 42 82 42 82 44 80 44 80 46 80 44 78 44 76 44 78 44 76 44 76 42 76 40 74 40 72 40 74 40 72 40 74 40 72 40 70 40 68 40 68 42 68 44 68 42 66 42 64 42 64 44 66 44 66 46 68 46 68 44 70 44 70 42 68 42 68 44 70 44 72 44 72 42 70 42 70 40 70 42 72 42 70 42 68 42 68 40 66 40 66 42 64 42 62 42 64 42 62 42 62 40 64 40 66 40 68 40 66 40 64 40 64 42 64 44 66 44 66 42 64 42 64 40 66 40 66 38 66 40 66 42 68 42 66 42 68 42 66 42 64 42 64 40 64 42 66 42 66 44 66 46 68 46 70 46 70 48 68 48 68 50 68 48 68 50 66 50 64 50 64 52 64 54 64 56 66 56 64 56 64 58 64 60 64 62 66 62 66 60 66 58 66 60 64 60 66 60 68 60 66 60 64 60 62 60 64 60 64 62 64 60 64 58 62 58 64 58 66 58 66 60 68 60 68 62 68 64 66 64 68 64 68 62 68 60 66 60 68 60 70 60 68 60 66 60 64 60 66 60 68 60 70 60 70 58 70 60 70 62 68 62 70 62 68 62 68 60 66 60 64 60 62 60 62 58 62 60 62 62 64 62 64 60 66 60 68 60 68 58 68 60 68 62 70 62 70 64 70 62 72 62 72 60 70 60 70 58 72 58 72 60 70 60 68 60 66 60 66 58 68 58 66 58 68 58 66 58 64 58 64 60 64 58 62 58 60 58 60 60 60 58 58 58 58 60 60 60 58 60 56 60 56 58 56 60 56 62 58 62 58 64 56 64 54 64 54 66 56 66 58 66 58 64 58 66 60 66 58 66 58 68 58 70 60 70 60 68 62 68 64 68 64 70 62 70 64 70 64 72 64 74 64 76 64 74 64 72 66 72 66 74 68 74 68 72 68 74 70 74 68 74 66 74 64 74 66 74 66 76 64 76 64 74 64 76 62 76 60 76 60 78 62 78 64 78 64 76 64 78 62 78 64 78 64 76 64 78 66 78 64 78 62 78 62 80 64 80 64 82 66 82 68 82 68 84 68 82 68 84 66 84 66 86 66 84 66 86 64 86 64 88 64 86 62 86 62 88 62 86 62 88 60 88 60 86 58 86 58 84 58 82 58 80 58 78 60 78 62 78 62 80 60 80 58 80 60 80 60 78 62 78 62 76 62 74 62 76 62 74 60 74 60 72 58 72 58 74 60 74 60 72 60 74 60 76 60 78 60 80 58 80 58 82 58 80 60 80 62 80 64 80 64 78 66 78 66 76 68 76 68 74 70 74 70 76 70 78 70 80 72 80 74 80 72 80 72 78 74 78 72 78 70 78 70 80 72 80 74 80 72 80 74 80 76 80 76 82 78 82 76 82 76 80 78 80 78 78 78 80 78 82 78 80 76 80 76 78 74 78 76 78 74 78 76 78 76 80 78 80 78 82 78 84 80 84 80 86 80 88 78 88 78 86 80 86 78 86 78 84 80 84 82 84 82 86 82 88 82 86 84 86 86 86 86 88 86 90 86 92 84 92 86 92 84 92 84 90 86 90 88 90 86 90 86 88 86 90 86 92 86 90 86 92 86 90 88 90 88 88 90 88 88 88 88 86 88 88 86 88 86 86 86 88 88 88 88 90 88 92 88 94 88 96 88 98 90 98 92 98 94 98 94 100 94 102 92 102 94 102 94 104 94 106 94 108 94 106 92 106 92 104 92 106 92 108 94 108 92 108 94 108 94 110 92 110 92 108 90 108 92 108 92 110 92 108 94 108 92 108 92 106 92 108 92 106 92 108 92 106 94 106 94 108 92 108 94 108 94 110 96 110 96 108 96 106 96 108 94 108 94 106 92 106 90 106 88 106 88 108 86 108 88 108 88 106 88 104 88 106 88 108 88 106 90 106 88 106 88 104 88 102 90 102 92 102 90 102 90 104 90 106 92 106 92 108 92 110 92 108 90 108 90 106 88 106 86 106 86 108 86 106 86 108 84 108 86 108 84 108 82 108 80 108 80 110 80 112 80 114 82 114 82 112 84 112 84 114 86 114 86 116 84 116 86 116 88 116 88 118 90 118 90 116 90 118 92 118 92 120 92 122 92 124 94 124 92 124 94 124 94 126 96 126 96 124 96 126 98 126 96 126 98 126 96 126 94 126 92 126 92 128 92 126 92 128 94 128 94 130 92 130 94 130 92 130 92 132 90 132 88 132 88 130 90 130 90 132 88 132 86 132 86 130 88 130 88 128 90 128 90 130 92 130 92 132 92 134 90 134 90 132 90 130 92 130 92 132 90 132 92 132 94 132 94 134 94 132 94 130 92 130 92 128 92 126 94 126 92 126 94 126 94 128 94 130 92 130 94 130 96 130 98 130 96 130 94 130 92 130 92 128 90 128 92 128 92 126 94 126 96 126 96 124 94 124 94 122 94 120 92 120 92 122 92 124 92 122 92 120 92 118 92 116 94 116 94 118 94 120 92 120 92 118 94 118 96 118 98 118 98 120 96 120 96 118 94 118 96 118 96 120 96 122 96 124 96 126 94 126 94 128 94 126 94 124 94 126 96 126 96 128 96 126 94 126 92 126 92 124 94 124 94 122 92 122 92 120 94 120 96 120 96 122 94 122 92 122 92 124 94 124 96 124 98 124 100 124 102 124 104 124 104 126 104 128 104 130 102 130 102 132 104 132 104 130 104 128 104 130 102 130 104 130 102 130 100 130 102 130 100 130 102 130 102 128 102 130 100 130 100 128 98 128 96 128 94 128 92 128 94 128 92 128 90 128 90 126 92 126 92 124 92 126 92 124 94 124 94 122 96 122 94 122 94 120 96 120 96 122 94 122 92 122 92 124 90 124 92 124 92 122 94 122 96 122 96 120 94 120 94 118 94 116 94 114 94 116 96 116 98 116 100 116 100 114 100 116 98 116 98 114 98 116 96 116 94 116 94 118 92 118 94 118 94 116 94 114 96 114 98 114 98 116 98 114 98 116 98 118 100 118 100 116 102 116 102 114 100 114 98 114 96 114 96 112 94 112 94 114 94 116 96 116 94 116 96 116 98 116 100 116 98 116 98 118 100 118 100 120 98 120 98 122 100 122 100 124 102 124 102 122 100 122 102 122 102 120 100 120 102 120 102 122 104 122 106 122 104 122 104 120 106 120 106 122 108 122 106 122 108 122 108 124 108 126 108 128 106 128 104 128 106 128 106 130 108 130 106 130 108 130 108 128 108 130 108 128 106 128 108 128 108 130 108 132 108 130 106 130 106 128 108 128 106 128 106 126 106 124 106 122 104 122 104 120 102 120 104 120 104 118 104 120 104 118 104 116 104 118 106 118 108 118 108 120 106 120 106 118 106 120 106 118 106 116 106 114 106 116 108 116 106 116 104 116 104 114 104 116 104 118 106 118 108 118 110 118 108 118 108 116 110 116 110 118 108 118 108 120 106 120 108 120 108 122 110 122 110 124 110 122 110 120 110 118 110 116 110 114 108 114 110 114 110 112 112 112 112 114 114 114 114 112 116 112 118 112 118 110 116 110 116 112 114 112 116 112 116 110 114 110 112 110 112 108 112 106 110 106 110 104 112 104 112 106 112 104 110 104 110 106 112 106 112 108 114 108 114 106 114 104 112 104 112 106 112 104 114 104 112 104 112 106 110 106 110 108 110 106 110 104 108 104 110 104 110 106 108 106 108 104 106 104 108 104 108 106 108 104 108 106 108 104 106 104 106 102 104 102 106 102 104 102 104 100 106 100 104 100 106 100 106 102 106 104 106 106 106 108 108 108 106 108 106 106 106 104 108 104 108 102 108 104 108 106 106 106 104 106 104 104 106 104 106 102 108 102 108 104 108 102 106 102 106 104 108 104 108 102 108 104 108 106 106 106 106 108 106 110 106 112 108 112 108 114 108 116 106 116 104 116 102 116 102 118 102 116 100 116 100 114 100 112 100 110 98 110 98 112 98 114 98 112 100 112 102 112 102 114 100 114 98 114 98 116 98 118 100 118 98 118 100 118 98 118 98 116 96 116 94 116 96 116 98 116 98 118 98 120 98 118 98 116 100 116 100 118 100 116 100 118 98 118 98 116 100 116 98 116 98 114 100 114 100 112 100 110 102 110 102 108 102 110 100 110 100 112 98 112 100 112 98 112 98 114 98 116 98 118 98 116 100 116 100 118 98 118 98 120 100 120 100 118 100 120 100 118 102 118 104 118 102 118 102 116 100 116 100 114 100 116 100 118 100 120 102 120 100 120 100 122 100 124 100 122 98 122 98 120 100 120 102 120 104 120 104 118 106 118 108 118 110 118 108 118 110 118 108 118 108 116 106 116 104 116 106 116 106 118 108 118 110 118 110 116 112 116 112 118 114 118 114 116 114 114 112 114 110 114 110 112 110 114 110 112 110 114 112 114 112 112 112 110 110 110 110 112 110 110 110 108 110 106 110 104 110 102 108 102 110 102 110 104 108 104 108 102 106 102 108 102 108 104 110 104 110 102 110 100 110 98 110 100 108 100 108 98 108 96 108 98 108 100 110 100 110 98 112 98 112 96 112 98 112 96 112 94 114 94 114 92 114 94 114 96 114 94 116 94 116 92 116 90 118 90 118 88 118 90 116 90 118 90 116 90 116 88 114 88 114 86 114 84 112 84 112 82 110 82 110 80 110 78 112 78 110 78 110 80 112 80 110 80 112 80 112 82 114 82 114 84 114 82 114 84 114 86 114 88 114 90 114 88 112 88 112 86 110 86 110 88 110 86 112 86 112 88 114 88 114 86 116 86 114 86 114 84 114 86 114 88 116 88 116 86 116 84 116 86 118 86 116 86 118 86 118 84 118 86 118 88 118 86 118 84 118 82 116 82 116 84 118 84 118 86 120 86 120 84 122 84 122 82 120 82 122 82 120 82 122 82 122 84 122 82 120 82 118 82 118 84 118 86 118 84 118 86 120 86 118 86 116 86 118 86 118 84 118 86 118 88 120 88 120 90 120 88 122 88 120 88 120 90 120 88 122 88 124 88 124 90 126 90 126 88 126 86 126 88 126 90 128 90 126 90 126 88 124 88 126 88 126 86 126 88 124 88 122 88 122 86 120 86 120 84 122 84 124 84 124 86 126 86 126 88 128 88 130 88 128 88 128 90 128 88 126 88 126 90 126 88 126 86 124 86 124 84 124 86 124 84 122 84 122 86 122 88 120 88 122 88 120 88 122 88 124 88 124 86 126 86 126 84 124 84 124 82 124 84 126 84 126 86 126 88 124 88 126 88 128 88 130 88 130 86 130 88 130 86 128 86 128 84 128 86 126 86 124 86 124 84 126 84 126 82 124 82 126 82 126 80 128 80 126 80 128 80 128 78 128 80 128 78 126 78 126 76 126 78 126 80 126 82 124 82 124 84 122 84 120 84 120 86 122 86 122 88 124 88 122 88 122 86 120 86 120 88 120 90 118 90 120 90 120 92 120 90 120 92 122 92 120 92 120 94 122 94 120 94 120 92 120 94 122 94 120 94 122 94 122 92 122 94 122 92 124 92 126 92 126 94 128 94 130 94 132 94 132 92 130 92 128 92 128 94 126 94 126 96 126 98 126 100 126 98 128 98 128 100 128 102 126 102 126 100 128 100 130 100 130 102 128 102 126 102 126 100 126 98 128 98 128 96 130 96 128 96 130 96 130 94 132 94 130 94 132 94 132 92 130 92 132 92 132 90 132 88 132 86 132 88 132 86 130 86 130 88 128 88 128 86 128 88 128 86 126 86 126 84 128 84 128 82 128 84 130 84 130 82 130 84 130 82 132 82 130 82 130 80 130 82 132 82 134 82 132 82 130 82 130 84 130 82 130 84 132 84 132 82 130 82 130 80 132 80 130 80 130 78 130 76 128 76 128 78 128 80 126 80 128 80 126 80 126 78 126 80 124 80 122 80 122 78 122 80 122 78 122 76 122 74 122 76 120 76 120 78 120 76 120 74 120 72 120 74 118 74 120 74 120 72 118 72 118 70 118 68 118 70 118 72 118 70 120 70 122 70 124 70 126 70 126 68 126 66 128 66 130 66 132 66 130 66 130 64 130 62 132 62 130 62 132 62 130 62 132 62 130 62 130 60 130 58 130 60 130 62 132 62 134 62 134 64 132 64 132 66 132 68 132 66 132 64 130 64 130 62 132 62 130 62 130 64 130 66 132 66 134 66 134 68 134 70 134 68 134 66 134 68 134 66 134 64 134 66 134 68 134 66 132 66 134 66 132 66 134 66 132 66 134 66 134 64 134 62 134 60 134 62 134 60 134 58 134 56 132 56 132 58 132 60 132 62 134 62 134 64 132 64 132 66 132 68 132 70 132 68 132 66 134 66 136 66 134 66 134 68 136 68 134 68 132 68 134 68 134 70 132 70 132 68 132 70 132 72 130 72 130 74 128 74 128 76 128 74 128 76 128 78 128 80 128 78 128 76 126 76 128 76 128 74 128 72 128 74 128 76 128 78 130 78 132 78 132 76 132 78 134 78 132 78 132 80 132 78 132 76 132 74 134 74 134 76 134 74 132 74 132 72 132 70 132 68 132 70 130 70 130 72 130 74 130 76 128 76 128 78 128 80 126 80 124 80 124 78 122 78 124 78 126 78 126 76 126 74 126 76 128 76 128 74 128 76 126 76 128 76 130 76 132 76 132 74 130 74 130 76 130 74 130 76 130 74 132 74 130 74 130 72 128 72 126 72 128 72 128 70 130 70 130 72 130 74 130 72 132 72 132 70 132 72 132 70 130 70 128 70 126 70 126 72 126 70 126 72 126 70 126 68 126 66 126 68 126 70 124 70 124 72 124 74 122 74 124 74 126 74 126 76 126 74 126 72 128 72 128 70 130 70 128 70 128 72 130 72 132 72 132 74 130 74 132 74 130 74 128 74 128 72 128 70 128 72 126 72 126 74 124 74 126 74 126 72 128 72 128 70 128 72 126 72 128 72 126 72 124 72 126 72 124 72 122 72 124 72 126 72 126 74 124 74 124 72 124 74 124 72 126 72 126 74 128 74 128 72 126 72 126 70 126 72 126 74 128 74 130 74 132 74 132 72 134 72 136 72 136 70 138 70 140 70 142 70 144 70 146 70 144 70 142 70 142 68 140 68 142 68 144 68 144 70 144 72 146 72 148 72 148 74 148 72 146 72 146 74 148 74 148 76 148 78 148 80 148 78 146 78 146 76 144 76 142 76 140 76 140 74 140 72 138 72 138 74 140 74 138 74 136 74 136 72 134 72 134 74 132 74 130 74 130 72 130 74 132 74 132 76 130 76 128 76 128 78 128 80 128 82 126 82 124 82 124 84 122 84 122 82 120 82 120 80 122 80 122 82 122 84 120 84 120 82 122 82 120 82 122 82 120 82 122 82 124 82 124 84 126 84 124 84 122 84 122 82 122 84 122 82 122 80 124 80 122 80 122 82 122 84 122 82 120 82 120 84 120 86 120 84 120 82 122 82 122 80 122 82 122 80 120 80 122 80 124 80 124 78 122 78 124 78 124 80 122 80 124 80 124 82 124 80 124 82 124 80 124 78 126 78 126 76 128 76 128 78 128 76 126 76 128 76 126 76 128 76 130 76 130 74 130 76 130 78 132 78 134 78 136 78 138 78 140 78 140 80 138 80 138 78 140 78 140 80 142 80 142 82 140 82 138 82 138 84 138 82 140 82 140 84 140 86 138 86 136 86 136 84 136 86 134 86 136 86 138 86 136 86 136 88 134 88 134 90 132 90 130 90 130 88 130 90 130 88 130 86 132 86 132 84 132 82 130 82 132 82 132 84 130 84 130 86 128 86 128 88 128 90 126 90 128 90 126 90 126 92 126 90 126 92 126 90 128 90 126 90 128 90 130 90 132 90 130 90 132 90 130 90 128 90 126 90 126 88 124 88 124 86 122 86 120 86 120 84 122 84 124 84 122 84 120 84 118 84 118 86 116 86 114 86 114 88 112 88 112 90 110 90 112 90 112 92 114 92 114 90 114 92 116 92 118 92 118 94 118 92 120 92 118 92 116 92 118 92 120 92 122 92 124 92 124 94 126 94 126 92 124 92 124 90 124 88 124 90 126 90 124 90 124 92 126 92 126 90 124 90 122 90 122 92 122 94 124 94 122 94 120 94 120 92 120 94 120 92 120 94 122 94 124 94 126 94 128 94 126 94 126 96 126 94 128 94 128 96 130 96 130 94 132 94 132 96 134 96 134 94 132 94 132 96 132 98 134 98 134 96 134 98 132 98 132 96 134 96 134 94 134 96 134 98 136 98 136 96 136 94 134 94 136 94 136 92 136 94 136 92 136 90 138 90 136 90 136 92 138 92 140 92 140 94 138 94 138 96 136 96 134 96 134 94 132 94 130 94 130 96 128 96 128 94 130 94 130 96 130 98 130 96 130 94 132 94 130 94 130 92 132 92 132 94 134 94 134 92 132 92 130 92 130 90 130 88 128 88 126 88 126 90 126 88 128 88 130 88 128 88 128 90 128 88 128 86 128 84 128 86 128 84 128 82 126 82 124 82 124 84 122 84 120 84 120 86 118 86 116 86 114 86 112 86 110 86 108 86 110 86 112 86 112 88 114 88 114 90 114 88 116 88 118 88 120 88 122 88 120 88 122 88 120 88 122 88 122 86 122 88 122 90 122 92 122 90 120 90 120 92 122 92 122 94 122 96 120 96 120 98 122 98 124 98 122 98 122 96 122 94 124 94 124 96 124 98 124 100 124 102 124 100 124 102 122 102 122 100 124 100 124 98 126 98 126 96 126 98 128 98 128 100 128 98 128 96 130 96 132 96 130 96 130 98 130 96 128 96 130 96 130 98 130 100 132 100 130 100 130 98 128 98 130 98 130 100 128 100 126 100 126 102 128 102 128 100 126 100 124 100 122 100 122 102 122 100 122 102 122 104 120 104 120 102 118 102 120 102 118 102 120 102 122 102 122 100 120 100 118 100 118 98 116 98 118 98 118 100 116 100 116 102 116 104 118 104 120 104 122 104 120 104 120 102 120 104 120 106 118 106 120 106 118 106 120 106 122 106 124 106 124 104 126 104 126 106 128 106 130 106 128 106 126 106 126 108 124 108 122 108 122 106 124 106 126 106 128 106 126 106 126 104 128 104 128 102 130 102 128 102 128 104 128 106 128 108 126 108 128 108 128 110 130 110 128 110 130 110 130 112 128 112 128 114 128 116 130 116 132 116 132 114 134 114 136 114 136 112 136 114 136 116 134 116 132 116 132 118 132 120 130 120 132 120 130 120 130 122 130 120 132 120 132 122 134 122 134 120 134 118 134 120 136 120 134 120 134 118 134 120 136 120 136 122 136 120 136 118 134 118 132 118 132 120 132 122 132 120 134 120 134 118 132 118 130 118 130 120 128 120 126 120 128 120 126 120 128 120 128 118 130 118 128 118 128 116 126 116 124 116 126 116 124 116 124 114 124 112 124 114 124 116 124 114 122 114 124 114 124 112 122 112 122 110 124 110 124 108 126 108 126 110 126 108 126 106 126 104 124 104 124 102 124 104 122 104 124 104 124 102 124 104 124 106 122 106 120 106 122 106 124 106 122 106 122 108 124 108 122 108 122 106 124 106 122 106 120 106 118 106 118 104 118 102 118 104 118 106 120 106 120 104 120 106 122 106 122 108 122 110 120 110 122 110 122 108 120 108 122 108 122 106 122 104 122 102 124 102 124 104 126 104 128 104 130 104 130 102 130 100 132 100 132 102 132 100 134 100 132 100 130 100 130 98 128 98 128 100 130 100 128 100 128 102 126 102 128 102 130 102 132 102 134 102 134 100 134 102 136 102 134 102 132 102 130 102 130 104 130 102 128 102 128 100 126 100 126 98 128 98 128 96 126 96 126 94 124 94 124 92 124 90 124 88 122 88 120 88 118 88 118 90 118 88 118 90 118 92 120 92 118 92 120 92 120 94 118 94 118 92 118 90 118 88 118 86 118 84 116 84 114 84 116 84 114 84 112 84 110 84 112 84 114 84 114 82 116 82 116 80 116 82 116 80 118 80 120 80 120 78 118 78 118 80 116 80 116 78 116 80 116 78 116 80 116 82 114 82 114 84 114 86 114 84 114 86 114 84 114 82 114 80 114 82 116 82 114 82 114 84 112 84 114 84 116 84 118 84 118 82 120 82 120 80 120 82 120 80 118 80 118 82 120 82 120 80 122 80 120 80 120 78 118 78 120 78 120 76 120 74 118 74 118 76 120 76 118 76 120 76 120 78 118 78 118 80 116 80 114 80 112 80 112 82 110 82 112 82 110 82 110 80 110 78 110 80 112 80 112 78 110 78 112 78 110 78 108 78 106 78 106 76 104 76 102 76 102 74 104 74 106 74 104 74 102 74 100 74 100 72 100 70 98 70 98 72 96 72 94 72 94 74 94 76 92 76 92 74 92 72 92 70 94 70 94 72 94 74 92 74 90 74 92 74 90 74 88 74 86 74 84 74 82 74 84 74 86 74 84 74 84 76 84 78 82 78 82 76 80 76 80 78 80 76 80 74 80 76 80 74 80 72 80 70 80 72 78 72 76 72 76 70 74 70 74 72 74 70 72 70 70 70 70 68 70 70 68 70 68 72 68 70 68 72 68 74 66 74 66 72 66 74 68 74 66 74 64 74 64 76 66 76 66 78 66 80 68 80 68 78 68 76 68 74 70 74 72 74 74 74 74 72 76 72 78 72 78 74 80 74 82 74 82 76 82 74 80 74 78 74 80 74 78 74 80 74 78 74 78 76 80 76 82 76 80 76 80 78 78 78 78 76 76 76 76 74 78 74 76 74 74 74 74 76 76 76 76 78 74 78 76 78 74 78 72 78 72 80 72 78 72 76 70 76 68 76 68 78 70 78 70 76 70 78 70 80 68 80 68 82 68 80 68 78 68 80 70 80 68 80 70 80 72 80 74 80 74 82 76 82 76 80 76 78 76 76 74 76 72 76 70 76 70 78 68 78 66 78 64 78 62 78 62 80 64 80 64 78 64 80 62 80 62 82 64 82 62 82 60 82 62 82 60 82 60 80 60 82 58 82 58 80 56 80 58 80 60 80 58 80 58 78 60 78 62 78 64 78 62 78 62 80 62 78 64 78 64 80 66 80 66 78 66 80 66 82 64 82 64 84 64 86 62 86 62 84 60 84 62 84 62 86 60 86 62 86 62 88 62 90 64 90 64 92 66 92 68 92 68 94 68 96 68 98 66 98 66 96 66 94 66 96 64 96 64 94 64 92 66 92 66 90 66 92 66 94 64 94 64 92 62 92 60 92 60 90 58 90 60 90 60 88 62 88 62 90 60 90 62 90 60 90 60 88 58 88 60 88 60 86 60 84 62 84 62 86 62 84 62 82 62 84 62 86 60 86 58 86 56 86 56 84 58 84 56 84 54 84 52 84 52 86 52 88 52 90 54 90 54 92 54 94 56 94 56 92 58 92 56 92 56 90 54 90 54 92 54 90 52 90 54 90 54 92 54 90 56 90 56 92 56 90 54 90 54 88 54 90 54 92 54 94 54 92 56 92 54 92 56 92 54 92 56 92 56 90 56 92 58 92 58 90 58 88 58 86 58 88 60 88 62 88 64 88 66 88 64 88 62 88 62 86 62 84 64 84 64 86 62 86 60 86 58 86 58 84 58 82 58 80 56 80 56 82 56 80 56 78 58 78 58 80 56 80 56 78 56 76 56 78 58 78 58 76 58 74 58 72 60 72 60 74 58 74 60 74 58 74 58 72 56 72 58 72 56 72 56 70 56 68 56 66 58 66 60 66 60 64 60 66 58 66 60 66 58 66 60 66 58 66 56 66 58 66 60 66 60 68 62 68 62 70 62 68 60 68 62 68 62 66 62 64 64 64 62 64 62 62 60 62 60 64 62 64 64 64 62 64 62 62 64 62 64 60 62 60 62 58 60 58 62 58 62 56 62 54 64 54 64 52 62 52 62 54 64 54 66 54 64 54 66 54 66 52 66 50 64 50 66 50 68 50 66 50 66 48 66 46 64 46 66 46 66 44 66 42 66 44 68 44 68 46 68 48 66 48 68 48 66 48 68 48 68 50 68 52 68 54 66 54 64 54 64 56 66 56 66 54 64 54 64 52 62 52 62 54 62 52 62 50 60 50 62 50 60 50 60 52 60 54 58 54 60 54 58 54 58 56 58 54 60 54 60 52 58 52 58 54 56 54 54 54 54 56 54 54 54 52 52 52 50 52 48 52 48 54 48 52 46 52 46 50 46 48 46 46 46 48 46 46 44 46 44 48 46 48 48 48 48 50 46 50 46 48 46 50 44 50 44 52 46 52 46 50 44 50 46 50 48 50 48 48 50 48 50 50 48 50 48 48 48 46 48 48 48 46 48 44 46 44 46 42 48 42 50 42 50 44 48 44 46 44 48 44 48 46 48 48 46 48 46 50 44 50 42 50 40 50 40 52 38 52 40 52 42 52 42 54 44 54 42 54 44 54 44 56 44 58 44 60 44 58 44 60 44 58 44 60 44 62 46 62 48 62 48 64 50 64 50 62 48 62 48 64 48 66 46 66 44 66 44 64 42 64 44 64 42 64 40 64 38 64 38 66 40 66 42 66 40 66 42 66 42 64 44 64 46 64 46 62 46 60 46 62 46 64 46 66 48 66 46 66 44 66 44 68 46 68 48 68 50 68 50 66 50 64 52 64 52 66 52 64 52 62 50 62 50 60 52 60 50 60 50 58 48 58 48 56 50 56 48 56 48 58 50 58 48 58 48 60 48 62 48 64 48 66 46 66 48 66 46 66 46 68 46 66 46 68 46 66 48 66 48 68 48 70 46 70 46 72 48 72 48 74 50 74 52 74 52 76 52 74 54 74 54 72 54 70 56 70 54 70 56 70 54 70 54 68 52 68 50 68 52 68 52 70 54 70 54 68 56 68 58 68 56 68 56 70 54 70 56 70 54 70 54 72 56 72 58 72 60 72 62 72 60 72 60 74 62 74 64 74 66 74 64 74 62 74 62 76 62 78 62 76 64 76 64 78 66 78 66 76 66 78 66 76 66 78 66 76 66 74 64 74 66 74 66 72 64 72 66 72 66 74 66 76 68 76 68 78 70 78 70 80 68 80 68 78 68 80 68 82 68 80 68 78 68 80 68 82 70 82 68 82 68 80 68 82 68 84 68 86 68 84 66 84 64 84 64 86 64 88 62 88 60 88 60 86 60 84 62 84 62 82 60 82 60 80 58 80 58 82 56 82 56 80 58 80 60 80 60 78 60 76 62 76 62 78 64 78 64 80 66 80 68 80 68 82 68 80 68 82 68 80 66 80 66 82 66 80 66 78 66 80 66 78 68 78 68 80 66 80 68 80 66 80 68 80 66 80 66 78 66 80 64 80 64 78 66 78 64 78 66 78 68 78 66 78 66 80 66 78 64 78 66 78 64 78 62 78 62 80 60 80 60 82 62 82 62 84 62 82 64 82 64 80 64 82 66 82 64 82 64 80 66 80 68 80 70 80 70 82 70 80 72 80 72 78 72 80 70 80 70 82 70 84 70 82 68 82 70 82 70 84 70 86 70 88 72 88 72 86 70 86 68 86 68 84 66 84 66 82 64 82 64 84 62 84 64 84 66 84 68 84 68 82 68 80 70 80 72 80 70 80 68 80 68 78 68 76 70 76 68 76 70 76 70 78 72 78 70 78 70 76 70 78 70 76 70 74 70 72 68 72 68 70 68 72 68 70 70 70 72 70 72 72 74 72 74 70 74 72 72 72 74 72 72 72 74 72 76 72 78 72 76 72 76 70 76 68 78 68 80 68 80 66 80 64 80 62 80 60 80 58 78 58 76 58 76 60 74 60 74 58 76 58 76 56 74 56 74 54 74 56 74 58 72 58 72 56 70 56 72 56 72 54 72 52 72 54 72 52 72 50 72 52 72 54 72 56 72 54 74 54 72 54 72 52 74 52 74 54 76 54 76 52 76 50 76 48 76 50 76 48 76 46 78 46 80 46 80 44 80 42 80 40 78 40 78 38 78 40 80 40 80 38 78 38 78 36 78 38 78 40 76 40 76 42 74 42 74 44 72 44 72 42 74 42 74 40 76 40 76 42 74 42 76 42 74 42 74 44 72 44 74 44 74 46 74 44 74 46 74 44 74 42 74 40 72 40 72 42 72 44 72 42 70 42 70 40 70 42 68 42 70 42 70 44 72 44 72 42 74 42 74 44 72 44 72 42 72 44 72 42 70 42 68 42 68 44 68 46 68 48 68 50 68 52 66 52 66 54 68 54 68 56 70 56 70 54 72 54 72 52 72 50 74 50 76 50 78 50 78 48 76 48 76 50 78 50 78 52 76 52 78 52 76 52 76 50 74 50 74 52 72 52 72 54 70 54 72 54 72 52 72 54 74 54 72 54 72 52 70 52 72 52 72 50 70 50 70 52 70 50 70 52 70 54 70 56 70 54 70 56 70 54 70 52 70 54 70 56 68 56 68 58 68 60 66 60 66 62 64 62 64 60 64 62 66 62 66 60 66 58 68 58 68 60 68 62 68 64 70 64 72 64 72 62 74 62 72 62 74 62 76 62 74 62 76 62 76 60 76 58 76 60 74 60 72 60 72 58 72 56 70 56 68 56 70 56 70 54 72 54 74 54 72 54 72 56 72 58 72 56 72 54 72 52 70 52 68 52 68 50 68 52 68 50 68 48 70 48 70 50 68 50 66 50 66 48 66 46 64 46 62 46 60 46 58 46 60 46 60 44 58 44 58 42 60 42 60 44 60 46 60 44 60 46 60 44 60 42 58 42 58 44 56 44 56 46 56 48 56 50 54 50 52 50 52 52 50 52 52 52 52 50 54 50 54 52 52 52 52 54 54 54 56 54 56 52 56 54 54 54 52 54 54 54 54 52 54 54 52 54 52 52 50 52 52 52 54 52 52 52 52 50 52 52 52 50 54 50 56 50 56 52 56 50 56 48 56 46 54 46 52 46 52 48 52 46 54 46 52 46 50 46 52 46 54 46 52 46 52 44 52 46 52 44 54 44 52 44 50 44 50 46 50 48 50 46 52 46 52 48 52 46 52 48 52 50 50 50 50 52 50 50 48 50 46 50 46 48 48 48 48 46 46 46 46 44 46 46 46 48 46 46 44 46 42 46 40 46 38 46 40 46 42 46 40 46 40 44 38 44 36 44 38 44 40 44 38 44 38 42 40 42 38 42 40 42 40 44 40 46 40 48 40 50 38 50 38 48 36 48 36 46 38 46 40 46 42 46 40 46 40 48 42 48 42 50 40 50 40 52 40 50 40 48 42 48 42 50 42 52 42 54 40 54 40 56 40 54 40 52 42 52 44 52 44 50 44 48 42 48 42 50 42 52 42 50 44 50 46 50 44 50 42 50 40 50 38 50 38 48 38 46 40 46 42 46 40 46 40 44 40 46 40 44 40 42 38 42 40 42 42 42 44 42 44 40 44 42 44 40 44 38 46 38 46 40 44 40 44 42 44 40 44 38 44 40 42 40 40 40 40 38 40 36 42 36 44 36 46 36 44 36 42 36 44 36 44 34 42 34 42 36 44 36 44 34 42 34 42 36 42 34 44 34 44 36 44 34 44 36 46 36 46 34 46 32 46 34 46 36 48 36 48 34 48 32 50 32 52 32 52 34 54 34 54 32 54 34 54 32 56 32 58 32 58 34 56 34 58 34 58 32 60 32 58 32 58 34 58 32 58 30 60 30 60 28 62 28 60 28 62 28 62 26 62 24 60 24 60 26 60 24 62 24 64 24 64 22 66 22 68 22 70 22 68 22 70 22 70 20 70 18 68 18 68 20 66 20 64 20 64 18 64 20 66 20 66 18 68 18 68 16 66 16 68 16 68 18 66 18 66 16 66 18 64 18 62 18 62 20 60 20 58 20 58 18 56 18 56 16 56 18 56 16 54 16 54 18 52 18 52 20 52 18 54 18 52 18 50 18 52 18 52 20 50 20 50 18 50 20 52 20 54 20 56 20 54 20 54 18 54 16 56 16 56 14 56 12 56 14 56 12 58 12 56 12 56 10 56 8 56 6 56 4 56 2 54 2 56 2 56 4 56 6 56 8 58 8 60 8 58 8 58 6 58 8 60 8 60 10 62 10 60 10 62 10 64 10 62 10 60 10 62 10 64 10 64 8 66 8 64 8 62 8 62 6 62 8 64 8 64 10 66 10 64 10 66 10 64 10 64 12 66 12 64 12 64 14 64 16 62 16 62 14 64 14 64 16 66 16 66 14 68 14 68 16 66 16 68 16 70 16 70 18 72 18 70 18 68 18 66 18 66 16 68 16 66 16 68 16 68 14 66 14 68 14 66 14 68 14 68 12 66 12 66 14 68 14 66 14 66 16 66 14 66 16 66 14 68 14 68 16 68 18 70 18 70 20 68 20 68 22 68 20 68 22 66 22 66 24 66 26 68 26 66 26 66 24 66 26 68 26 68 24 68 26 66 26 66 24 66 26 66 28 66 26 66 24 66 22 68 22 66 22 66 20 66 22 64 22 66 22 68 22 68 24 70 24 68 24 70 24 68 24 68 22 68 24 70 24 70 26 72 26 72 28 70 28 70 26 72 26 70 26 70 28 70 30 70 32 70 30 68 30 68 32 66 32 64 32 66 32 66 34 64 34 64 32 62 32 64 32 64 30 64 28 66 28 66 26 64 26 64 24 64 22 64 24 64 22 64 24 66 24 66 22 64 22 62 22 62 24 62 22 60 22 60 20 62 20 62 18 62 20 64 20 62 20 62 18 64 18 64 16 64 14 66 14 66 12 64 12 64 10 64 8 64 6 64 8 66 8 66 10 66 12 68 12 68 10 70 10 70 12 72 12 70 12 70 14 70 16 70 18 72 18 74 18 76 18 74 18 74 20 72 20 74 20 74 22 76 22 74 22 74 24 72 24 72 26 70 26 68 26 66 26 68 26 66 26 66 28 64 28 64 26 64 28 64 30 62 30 62 28 62 30 62 32 62 30 62 32 62 30 62 28 62 30 62 32 64 32 64 34 64 32 64 30 64 32 62 32 62 30 62 28 62 26 62 28 64 28 64 30 64 32 66 32 66 34 66 36 66 38 68 38 70 38 72 38 72 40 72 42 72 40 72 38 70 38 68 38 66 38 68 38 66 38 66 40 66 38 64 38 66 38 66 40 64 40 66 40 66 38 66 40 68 40 70 40 70 38 68 38 66 38 66 36 64 36 66 36 66 38 66 36 66 38 68 38 68 40 68 38 68 36 68 38 68 36 68 38 68 36 66 36 66 34 64 34 62 34 62 36 62 38 64 38 62 38 62 40 64 40 62 40 60 40 60 42 58 42 58 40 60 40 62 40 60 40 62 40 62 42 60 42 60 40 60 42 60 44 60 46 62 46 64 46 64 44 64 46 64 44 66 44 66 42 66 44 64 44 62 44 62 42 62 44 64 44 62 44 60 44 62 44 64 44 62 44 62 42 64 42 64 44 64 46 66 46 66 44 66 46 66 44 66 46 64 46 64 44 62 44 60 44 62 44 62 46 62 44 64 44 64 46 62 46 60 46 58 46 58 48 58 46 58 48 56 48 54 48 52 48 54 48 54 46 52 46 54 46 56 46 54 46 54 44 56 44 56 42 54 42 52 42 52 44 54 44 54 46 56 46 56 48 56 50 54 50 56 50 58 50 60 50 60 52 60 54 60 52 58 52 56 52 56 50 54 50 54 52 54 50 54 48 54 46 52 46 52 44 52 46 50 46 50 48 50 50 50 48 52 48 50 48 48 48 48 46 50 46 50 48 50 50 52 50 52 52 52 50 52 52 52 50 52 48 52 50 54 50 56 50 54 50 54 52 52 52 50 52 52 52 52 54 54 54 56 54 56 56 56 58 56 56 56 58 56 56 54 56 56 56 56 58 56 60 56 58 56 60 56 58 56 56 54 56 52 56 52 58 52 56 50 56 50 58 50 60 52 60 54 60 52 60 52 62 50 62 48 62 46 62 48 62 50 62 50 64 50 62 52 62 52 64 52 62 50 62 52 62 52 60 52 62 52 64 52 66 54 66 52 66 50 66 50 64 52 64 50 64 50 66 48 66 48 68 46 68 46 70 44 70 46 70 46 68 46 66 46 68 46 70 44 70 46 70 46 72 44 72 44 74 44 76 46 76 46 78 46 80 46 78 46 80 44 80 44 82 42 82 44 82 44 80 44 78 44 76 44 78 44 76 44 74 44 76 46 76 44 76 44 74 42 74 40 74 40 76 38 76 38 74 38 72 38 70 38 72 38 74 36 74 36 76 34 76 34 78 32 78 30 78 30 76 28 76 28 78 26 78 26 76 28 76 28 74 28 72 30 72 28 72 26 72 28 72 28 70 28 72 28 70 28 72 28 70 28 68 28 66 26 66 26 64 26 66 26 64 26 66 26 64 26 66 26 64 28 64 28 66 30 66 32 66 34 66 32 66 32 64 32 66 32 64 34 64 32 64 30 64 30 66 32 66 32 68 32 70 30 70 32 70 34 70 36 70 36 68 36 66 34 66 34 68 36 68 36 66 34 66 36 66 36 64 34 64 32 64 34 64 34 66 34 64 32 64 32 66 32 64 30 64 30 66 30 64 28 64 30 64 28 64 28 62 28 60 28 62 30 62 28 62 26 62 26 64 26 62 26 60 26 62 26 64 26 62 28 62 30 62 30 60 30 62 28 62 26 62 26 64 26 62 28 62 30 62 28 62 30 62 28 62 26 62 26 60 24 60 22 60 20 60 20 58 20 56 18 56 18 58 20 58 20 56 20 58 20 56 18 56 18 54 18 52 18 50 18 52 20 52 18 52 20 52 20 50 20 48 18 48 20 48 20 50 20 48 22 48 22 50 22 48 20 48 20 50 20 52 18 52 16 52 16 50 16 52 14 52 12 52 12 54 12 52 14 52 14 54 12 54 14 54 14 56 14 58 14 60 12 60 14 60 14 58 12 58 10 58 10 60 8 60 6 60 6 62 6 60 6 62 8 62 6 62 4 62 2 62 4 62 4 60 4 58 2 58 2 56 4 56 6 56 4 56 6 56 4 56 2 56 0 56 0 58 -2 58 0 58 -2 58 -2 56 -2 58 -2 56 -4 56 -6 56 -8 56 -6 56 -6 54 -6 52 -8 52 -10 52 -10 50 -10 52 -10 50 -10 52 -8 52 -8 54 -8 56 -8 54 -10 54 -10 56 -8 56 -8 54 -10 54 -12 54 -12 56 -12 58 -10 58 -10 56 -10 54 -10 56 -10 54 -10 52 -12 52 -12 50 -14 50 -16 50 -16 52 -16 54 -16 52 -16 50 -18 50 -20 50 -20 52 -22 52 -24 52 -26 52 -26 54 -28 54 -28 52 -26 52 -24 52 -24 54 -26 54 -28 54 -28 56 -28 54 -28 56 -28 54 -26 54 -26 52 -28 52 -28 54 -28 56 -28 58 -30 58 -28 58 -28 60 -28 58 -28 56 -28 54 -28 56 -28 54 -30 54 -28 54 -28 56 -30 56 -28 56 -28 54 -30 54 -32 54 -30 54 -32 54 -32 56 -32 54 -32 52 -34 52 -34 54 -36 54 -38 54 -38 56 -40 56 -40 54 -38 54 -36 54 -36 56 -38 56 -38 58 -36 58 -36 56 -36 58 -36 60 -34 60 -32 60 -32 58 -32 56 -32 54 -32 56 -32 58 -32 60 -32 62 -30 62 -30 60 -28 60 -28 58 -30 58 -30 60 -28 60 -26 60 -24 60 -24 62 -26 62 -26 60 -28 60 -28 62 -30 62 -30 64 -30 66 -32 66 -32 64 -34 64 -36 64 -34 64 -36 64 -36 62 -34 62 -34 64 -34 66 -32 66 -34 66 -34 68 -32 68 -32 66 -34 66 -32 66 -32 68 -34 68 -36 68 -36 70 -36 68 -36 66 -36 68 -36 70 -36 68 -34 68 -34 70 -32 70 -34 70 -34 72 -36 72 -38 72 -40 72 -40 74 -40 72 -40 74 -40 76 -42 76 -42 78 -42 80 -40 80 -40 82 -38 82 -38 80 -38 78 -36 78 -34 78 -34 76 -36 76 -38 76 -38 78 -36 78 -34 78 -34 76 -34 74 -34 72 -32 72 -34 72 -34 70 -34 68 -32 68 -34 68 -34 66 -36 66 -36 68 -34 68 -34 66 -34 68 -34 70 -34 68 -32 68 -32 66 -32 68 -32 66 -32 68 -34 68 -32 68 -30 68 -32 68 -32 70 -32 68 -32 70 -30 70 -28 70 -30 70 -32 70 -34 70 -36 70 -38 70 -38 72 -38 70 -38 72 -36 72 -38 72 -38 74 -40 74 -38 74 -36 74 -36 72 -34 72 -32 72 -32 74 -34 74 -32 74 -34 74 -34 72 -34 74 -36 74 -34 74 -34 76 -32 76 -32 78 -32 76 -34 76 -36 76 -34 76 -32 76 -32 78 -30 78 -30 76 -32 76 -34 76 -34 78 -34 80 -34 82 -34 80 -32 80 -34 80 -34 78 -34 80 -32 80 -30 80 -32 80 -30 80 -32 80 -30 80 -28 80 -30 80 -28 80 -28 82 -28 80 -30 80 -30 82 -30 84 -30 86 -30 88 -32 88 -32 90 -30 90 -30 92 -32 92 -32 90 -32 92 -34 92 -32 92 -30 92 -28 92 -30 92 -32 92 -34 92 -32 92 -32 90 -30 90 -30 92 -32 92 -34 92 -36 92 -38 92 -36 92 -34 92 -36 92 -36 90 -36 88 -36 86 -36 88 -36 90 -36 88 -38 88 -38 90 -40 90 -40 92 -40 94 -40 92 -42 92 -42 94 -40 94 -40 96 -38 96 -40 96 -40 94 -40 92 -40 94 -40 96 -42 96 -42 98 -42 96 -44 96 -44 98 -46 98 -44 98 -44 100 -42 100 -40 100 -38 100 -38 102 -38 104 -38 106 -38 104 -38 106 -36 106 -36 108 -36 110 -38 110 -38 108 -38 110 -38 112 -40 112 -40 114 -42 114 -40 114 -40 112 -38 112 -38 114 -40 114 -38 114 -40 114 -42 114 -42 116 -42 118 -40 118 -40 120 -38 120 -36 120 -38 120 -36 120 -36 122 -36 124 -34 124 -34 126 -36 126 -38 126 -40 126 -38 126 -38 128 -36 128 -36 130 -38 130 -38 128 -40 128 -40 130 -40 128 -42 128 -42 130 -42 132 -42 134 -44 134 -46 134 -46 132 -48 132 -48 130 -48 132 -48 130 -48 132 -46 132 -46 134 -46 136 -44 136 -42 136 -42 138 -42 140 -44 140 -46 140 -46 138 -48 138 -48 136 -48 134 -46 134 -44 134 -44 132 -44 130 -42 130 -40 130 -38 130 -38 132 -36 132 -38 132 -38 134 -38 136 -36 136 -36 134 -36 136 -36 138 -38 138 -38 136 -36 136 -36 134 -36 136 -38 136 -38 138 -38 136 -38 134 -38 136 -36 136 -36 138 -36 140 -34 140 -34 138 -36 138 -34 138 -36 138 -36 136 -38 136 -38 138 -40 138 -40 140 -38 140 -38 142 -38 144 -40 144 -40 142 -40 140 -42 140 -40 140 -40 142 -42 142 -40 142 -42 142 -42 144 -40 144 -40 142 -40 144 -40 146 -42 146 -42 144 -42 142 -44 142 -44 140 -44 138 -44 140 -44 138 -46 138 -44 138 -42 138 -40 138 -38 138 -38 136 -38 134 -38 136 -38 138 -40 138 -42 138 -42 140 -40 140 -40 142 -42 142 -42 144 -42 146 -40 146 -40 144 -38 144 -38 146 -36 146 -36 148 -34 148 -34 150 -34 148 -36 148 -34 148 -32 148 -32 146 -30 146 -28 146 -28 144 -26 144 -26 146 -24 146 -22 146 -20 146 -18 146 -16 146 -18 146 -16 146 -14 146 -14 144 -14 146 -14 148 -16 148 -18 148 -18 146 -18 144 -20 144 -20 142 -20 140 -18 140 -18 138 -18 136 -16 136 -16 138 -14 138 -16 138 -16 136 -18 136 -20 136 -20 138 -18 138 -18 140 -20 140 -20 138 -20 136 -18 136 -18 134 -18 132 -18 130 -16 130 -14 130 -12 130 -10 130 -10 128 -12 128 -14 128 -12 128 -12 126 -10 126 -12 126 -10 126 -10 124 -12 124 -12 126 -10 126 -10 128 -8 128 -6 128 -6 130 -6 132 -6 134 -6 136 -4 136 -4 134 -2 134 -2 132 -4 132 -4 134 -6 134 -6 132 -8 132 -10 132 -12 132 -14 132 -12 132 -12 134 -10 134 -8 134 -8 136 -6 136 -6 134 -8 134 -8 136 -8 134 -6 134 -8 134 -10 134 -12 134 -14 134 -12 134 -12 132 -12 134 -14 134 -16 134 -18 134 -20 134 -20 132 -20 134 -20 132 -18 132 -20 132 -20 134 -18 134 -18 132 -16 132 -18 132 -18 134 -16 134 -16 136 -18 136 -18 134 -16 134 -16 132 -18 132 -20 132 -20 134 -22 134 -24 134 -22 134 -24 134 -26 134 -24 134 -22 134 -22 132 -22 134 -22 136 -24 136 -24 138 -22 138 -22 140 -22 142 -24 142 -24 144 -22 144 -24 144 -24 146 -22 146 -20 146 -22 146 -24 146 -24 144 -24 142 -24 140 -22 140 -24 140 -24 142 -24 140 -26 140 -26 142 -26 140 -26 138 -26 140 -26 142 -28 142 -28 140 -26 140 -24 140 -24 138 -24 140 -24 142 -24 144 -24 146 -24 144 -24 142 -26 142 -26 144 -28 144 -28 142 -30 142 -28 142 -30 142 -28 142 -26 142 -26 140 -26 142 -26 140 -26 138 -24 138 -26 138 -26 136 -26 134 -24 134 -24 132 -24 134 -24 136 -24 134 -24 136 -24 134 -24 136 -22 136 -22 138 -22 140 -24 140 -24 138 -24 140 -24 142 -22 142 -20 142 -20 144 -22 144 -22 146 -22 148 -22 150 -20 150 -18 150 -16 150 -16 148 -14 148 -16 148 -18 148 -18 150 -16 150 -16 152 -14 152 -14 154 -14 156 -14 154 -12 154 -10 154 -10 152 -8 152 -6 152 -6 150 -4 150 -2 150 -4 150 -2 150 -2 148 -2 146 -2 148 0 148 0 146 0 148 -2 148 -2 146 -2 148 -2 146 -2 144 -2 142 -2 144 -2 142 -2 144 0 144 0 142 0 140 -2 140 -4 140 -6 140 -8 140 -10 140 -10 138 -12 138 -10 138 -8 138 -8 136 -10 136 -12 136 -14 136 -16 136 -16 138 -18 138 -16 138 -14 138 -16 138 -18 138 -16 138 -16 136 -16 138 -16 140 -14 140 -14 142 -14 144 -16 144 -16 146 -14 146 -14 148 -14 150 -14 148 -14 150 -14 148 -14 150 -14 148 -16 148 -18 148 -20 148 -18 148 -18 146 -16 146 -14 146 -12 146 -14 146 -14 144 -14 142 -12 142 -14 142 -12 142 -14 142 -14 140 -14 142 -16 142 -14 142 -14 144 -14 146 -14 144 -14 142 -12 142 -10 142 -8 142 -8 140 -6 140 -6 138 -4 138 -4 136 -4 134 -2 134 -4 134 -6 134 -4 134 -6 134 -4 134 -6 134 -6 132 -6 134 -6 136 -6 134 -4 134 -2 134 -2 136 -2 138 -2 136 -4 136 -6 136 -4 136 -2 136 -2 138 -2 140 -4 140 -6 140 -6 138 -4 138 -4 140 -2 140 -4 140 -6 140 -6 138 -8 138 -6 138 -6 140 -6 138 -6 136 -6 138 -6 140 -4 140 -4 138 -2 138 -2 136 0 136 2 136 2 134 2 136 2 134 2 136 4 136 6 136 6 138 8 138 8 136 8 134 10 134 10 132 8 132 8 134 8 132 10 132 10 130 10 132 10 130 10 132 12 132 12 130 14 130 16 130 16 132 16 130 18 130 18 128 20 128 18 128 20 128 20 126 20 128 20 126 20 124 18 124 18 122 18 120 16 120 16 122 16 124 14 124 14 126 16 126 14 126 12 126 12 128 10 128 10 126 8 126 6 126 4 126 2 126 0 126 0 124 -2 124 -2 122 -2 124 -2 126 0 126 -2 126 -2 124 -2 126 0 126 0 124 2 124 0 124 -2 124 -2 122 0 122 2 122 2 120 2 118 4 118 4 116 4 114 2 114 2 116 0 116 2 116 4 116 4 118 2 118 4 118 4 120 4 118 4 120 6 120 6 118 6 120 6 122 4 122 6 122 4 122 4 120 6 120 8 120 8 122 6 122 6 120 6 122 6 124 6 122 4 122 2 122 0 122 2 122 4 122 4 120 6 120 8 120 10 120 8 120 10 120 12 120 14 120 16 120 18 120 18 118 18 116 18 114 18 116 18 114 18 116 20 116 18 116 18 118 18 116 18 114 18 116 16 116 14 116 14 114 12 114 10 114 10 112 10 114 12 114 12 116 12 114 12 112 14 112 16 112 16 110 18 110 18 108 16 108 16 106 18 106 18 104 18 102 18 104 18 102 20 102 18 102 16 102 18 102 18 100 16 100 16 102 14 102 16 102 18 102 18 100 20 100 20 102 20 100 22 100 24 100 22 100 22 102 24 102 24 104 24 102 22 102 20 102 22 102 24 102 26 102 26 100 26 98 24 98 26 98 28 98 30 98 28 98 28 100 26 100 26 98 26 100 26 102 28 102 28 100 28 102 30 102 28 102 28 100 30 100 28 100 26 100 26 102 26 100 26 102 28 102 26 102 26 100 26 98 26 100 24 100 24 102 26 102 28 102 28 100 28 98 30 98 30 96 28 96 26 96 26 98 26 100 24 100 24 102 24 100 24 98 26 98 28 98 28 100 28 102 28 100 30 100 30 98 30 100 30 98 30 100 32 100 32 98 32 100 30 100 32 100 34 100 34 102 34 100 32 100 32 98 32 100 32 98 32 96 30 96 30 94 32 94 32 96 32 94 32 96 30 96 28 96 28 98 30 98 28 98 26 98 26 96 26 94 24 94 26 94 26 92 24 92 24 94 24 96 22 96 22 94 22 92 24 92 22 92 22 94 22 96 22 98 22 96 20 96 22 96 20 96 20 94 20 96 18 96 18 98 20 98 18 98 16 98 18 98 20 98 20 96 18 96 18 98 18 100 20 100 22 100 22 98 24 98 24 100 24 98 26 98 26 96 28 96 30 96 28 96 28 94 30 94 30 92 32 92 32 94 32 96 34 96 32 96 30 96 30 98 30 100 30 98 30 100 30 102 30 100 30 102 28 102 30 102 30 104 30 102 30 100 28 100 26 100 26 98 28 98 28 96 28 94 30 94 28 94 28 92 28 90 28 92 26 92 26 90 28 90 26 90 28 90 28 88 26 88 26 90 28 90 26 90 24 90 24 92 24 94 24 92 22 92 24 92 22 92 24 92 22 92 22 90 20 90 20 88 20 90 22 90 20 90 22 90 24 90 26 90 26 92 24 92 22 92 22 90 22 92 20 92 20 94 20 96 18 96 20 96 18 96 18 94 16 94 16 96 18 96 16 96 16 98 16 100 14 100 14 98 16 98 18 98 18 96 18 94 18 92 20 92 20 94 18 94 18 92 18 94 20 94 20 96 20 98 18 98 20 98 22 98 22 100 22 102 20 102 22 102 20 102 20 104 20 106 20 108 22 108 20 108 20 106 20 104 20 102 18 102 16 102 16 100 16 98 16 96 16 94 16 92 16 90 14 90 12 90 12 88 12 90 12 92 14 92 16 92 14 92 12 92 12 94 12 96 12 98 10 98 10 100 8 100 8 102 8 100 10 100 12 100 12 102 10 102 8 102 6 102 6 104 4 104 2 104 4 104 4 102 6 102 6 100 6 102 6 104 4 104 2 104 0 104 0 106 -2 106 -2 108 -4 108 -2 108 -4 108 -6 108 -6 106 -8 106 -10 106 -12 106 -12 104 -12 102 -12 104 -12 106 -12 108 -12 110 -12 108 -10 108 -10 110 -12 110 -10 110 -10 108 -10 106 -10 108 -8 108 -8 106 -6 106 -4 106 -2 106 -2 108 0 108 2 108 4 108 2 108 0 108 2 108 2 106 2 108 2 110 2 112 0 112 -2 112 0 112 2 112 2 114 0 114 0 116 0 114 0 116 2 116 2 118 2 120 2 122 4 122 4 120 4 122 2 122 2 120 0 120 2 120 2 122 4 122 2 122 0 122 -2 122 0 122 0 124 -2 124 -4 124 -4 126 -4 124 -6 124 -4 124 -6 124 -6 122 -4 122 -4 120 -4 118 -2 118 -2 116 -2 114 -4 114 -2 114 0 114 2 114 4 114 4 116 4 118 6 118 6 116 6 114 6 112 4 112 6 112 6 114 8 114 10 114 10 112 10 110 12 110 12 112 12 110 14 110 14 108 14 110 14 108 14 110 14 108 14 110 12 110 14 110 14 112 14 110 14 112 14 110 14 112 12 112 14 112 12 112 14 112 14 110 14 112 16 112 16 114 16 112 14 112 14 110 14 112 12 112 10 112 12 112 12 114 12 116 12 118 14 118 12 118 10 118 12 118 14 118 14 116 12 116 12 114 10 114 12 114 12 116 14 116 12 116 10 116 8 116 8 118 6 118 4 118 4 116 4 114 4 116 4 114 4 112 6 112 4 112 4 110 4 108 4 110 6 110 6 108 4 108 6 108 6 110 6 108 6 110 8 110 8 112 6 112 6 114 8 114 8 112 6 112 8 112 8 110 8 108 8 110 8 108 10 108 10 106 10 104 8 104 8 106 8 104 8 106 6 106 6 108 6 110 4 110 4 112 2 112 2 110 2 108 2 110 0 110 2 110 2 112 4 112 2 112 4 112 2 112 4 112 4 114 4 112 6 112 6 114 6 112 6 114 4 114 4 112 6 112 6 110 6 112 6 110 6 112 6 114 4 114 4 116 4 114 6 114 8 114 6 114 6 112 4 112 6 112 8 112 8 114 10 114 10 116 8 116 8 114 8 112 6 112 8 112 10 112 12 112 10 112 8 112 6 112 6 114 6 112 6 110 6 108 6 110 6 108 6 106 6 104 6 106 4 106 2 106 2 108 0 108 0 106 -2 106 -2 104 -2 102 -4 102 -6 102 -6 104 -6 102 -8 102 -8 104 -8 102 -6 102 -4 102 -4 100 -6 100 -6 98 -6 96 -6 94 -6 92 -8 92 -10 92 -12 92 -12 90 -12 92 -12 94 -12 96 -14 96 -14 98 -12 98 -12 100 -12 102 -12 104 -12 102 -10 102 -10 100 -10 98 -10 96 -12 96 -10 96 -10 94 -10 92 -12 92 -14 92 -14 94 -12 94 -12 92 -12 90 -12 92 -14 92 -14 90 -12 90 -12 92 -10 92 -10 90 -10 92 -10 90 -10 92 -8 92 -8 94 -10 94 -12 94 -12 92 -14 92 -16 92 -14 92 -14 94 -14 96 -16 96 -18 96 -16 96 -14 96 -14 98 -14 96 -14 98 -12 98 -12 96 -14 96 -14 98 -14 100 -14 98 -14 96 -14 98 -12 98 -12 96 -12 98 -12 100 -10 100 -10 98 -10 96 -10 98 -10 96 -8 96 -10 96 -10 94 -8 94 -8 96 -10 96 -10 98 -10 96 -12 96 -14 96 -12 96 -10 96 -10 98 -12 98 -12 96 -12 98 -12 96 -12 98 -12 96 -12 98 -14 98 -14 100 -16 100 -14 100 -12 100 -14 100 -14 98 -14 100 -16 100 -14 100 -12 100 -12 98 -10 98 -12 98 -14 98 -12 98 -14 98 -14 100 -16 100 -18 100 -18 98 -20 98 -20 100 -18 100 -16 100 -18 100 -18 102 -18 104 -16 104 -14 104 -12 104 -12 102 -10 102 -8 102 -8 104 -6 104 -4 104 -6 104 -6 106 -6 108 -6 110 -6 112 -4 112 -4 110 -6 110 -8 110 -8 108 -10 108 -10 106 -10 104 -10 102 -8 102 -8 104 -6 104 -8 104 -8 102 -8 100 -10 100 -10 98 -8 98 -8 100 -8 102 -6 102 -8 102 -6 102 -8 102 -8 104 -6 104 -4 104 -6 104 -6 106 -4 106 -6 106 -4 106 -4 108 -4 106 -6 106 -6 104 -6 106 -4 106 -2 106 -4 106 -4 108 -4 110 -4 108 -4 110 -2 110 -2 112 -4 112 -4 114 -4 116 -2 116 -2 114 0 114 0 116 2 116 2 118 4 118 4 116 4 118 4 120 2 120 0 120 0 118 -2 118 -2 116 -2 114 -2 116 -4 116 -4 114 -6 114 -6 116 -4 116 -6 116 -6 118 -6 120 -8 120 -8 122 -8 120 -8 122 -8 120 -8 118 -8 120 -8 118 -8 116 -10 116 -10 118 -12 118 -12 120 -14 120 -12 120 -12 118 -14 118 -16 118 -16 116 -14 116 -12 116 -14 116 -14 114 -14 112 -14 114 -14 116 -14 118 -16 118 -16 120 -14 120 -14 122 -14 120 -14 118 -14 120 -14 118 -12 118 -12 116 -12 114 -12 112 -12 114 -14 114 -14 112 -12 112 -12 114 -14 114 -14 112 -12 112 -10 112 -10 114 -10 112 -10 114 -8 114 -8 116 -6 116 -8 116 -8 118 -8 116 -8 118 -8 116 -8 118 -8 116 -6 116 -6 118 -4 118 -2 118 -4 118 -2 118 -4 118 -2 118 -2 116 -4 116 -4 118 -6 118 -6 116 -8 116 -8 118 -8 116 -6 116 -8 116 -8 114 -10 114 -12 114 -10 114 -8 114 -8 116 -8 114 -6 114 -6 116 -8 116 -8 118 -8 116 -6 116 -8 116 -10 116 -8 116 -6 116 -4 116 -2 116 -2 114 -2 112 -2 110 -2 108 -2 110 0 110 0 112 0 114 0 116 0 118 0 116 -2 116 -2 114 0 114 2 114 0 114 0 116 0 114 0 112 -2 112 0 112 0 114 -2 114 0 114 -2 114 -2 112 -4 112 -6 112 -4 112 -4 110 -4 112 -4 114 -2 114 0 114 0 112 0 110 0 112 2 112 0 112 -2 112 0 112 0 114 -2 114 0 114 2 114 2 112 2 114 0 114 0 112 -2 112 -2 114 -4 114 -4 116 -6 116 -4 116 -4 118 -4 120 -2 120 -4 120 -6 120 -8 120 -8 122 -8 120 -6 120 -6 122 -6 120 -6 122 -4 122 -6 122 -6 124 -8 124 -6 124 -4 124 -4 126 -6 126 -4 126 -2 126 -2 128 -2 126 0 126 2 126 2 124 4 124 4 122 4 120 6 120 6 118 4 118 6 118 4 118 6 118 4 118 4 120 6 120 6 118 4 118 4 120 6 120 8 120 8 118 10 118 10 116 10 118 10 116 10 118 8 118 10 118 12 118 14 118 14 116 14 118 14 116 14 118 16 118 18 118 18 116 18 118 18 116 18 114 16 114 14 114 12 114 12 112 12 110 12 108 12 110 12 108 12 110 10 110 10 112 10 110 12 110 10 110 10 112 10 114 8 114 8 112 10 112 12 112 14 112 14 110 12 110 12 112 14 112 14 110 12 110 14 110 16 110 14 110 16 110 18 110 20 110 20 108 22 108 22 106 22 104 20 104 20 106 18 106 20 106 18 106 20 106 18 106 20 106 18 106 18 104 20 104 18 104 18 106 18 104 20 104 20 102 20 104 20 106 18 106 18 104 18 106 18 108 20 108 20 106 20 108 22 108 22 106 22 108 22 106 20 106 22 106 22 104 24 104 22 104 22 102 24 102 24 100 24 98 26 98 26 96 28 96 30 96 30 98 30 100 28 100 26 100 28 100 26 100 26 98 26 100 28 100 28 102 28 100 26 100 28 100 30 100 30 102 28 102 28 100 28 98 26 98 24 98 26 98 24 98 24 96 26 96 26 94 26 92 24 92 24 90 26 90 28 90 28 88 26 88 26 86 24 86 24 88 22 88 20 88 20 86 22 86 22 84 22 82 22 80 20 80 20 78 20 76 18 76 16 76 14 76 14 74 14 72 16 72 14 72 16 72 16 74 16 76 16 78 16 76 16 78 14 78 14 80 16 80 18 80 18 82 18 84 16 84 16 86 16 84 14 84 12 84 14 84 14 86 16 86 18 86 18 88 18 90 18 88 18 90 18 88 20 88 22 88 20 88 20 86 22 86 22 88 22 86 24 86 24 88 24 90 24 92 24 94 24 92 24 90 26 90 24 90 26 90 24 90 22 90 22 88 20 88 20 90 18 90 16 90 14 90 12 90 14 90 14 92 16 92 18 92 16 92 18 92 18 90 16 90 16 88 16 90 14 90 16 90 16 92 18 92 20 92 20 90 18 90 18 88 16 88 18 88 18 90 20 90 20 92 20 90 22 90 24 90 22 90 24 90 24 88 22 88 22 90 22 88 22 90 22 92 20 92 20 90 20 88 20 86 22 86 22 88 22 90 20 90 18 90 20 90 20 88 20 86 18 86 16 86 18 86 16 86 16 88 16 86 18 86 16 86 16 84 18 84 20 84 20 82 22 82 22 80 24 80 26 80 26 78 24 78 22 78 22 76 22 78 24 78 26 78 28 78 28 80 28 82 28 84 28 86 28 84 28 86 26 86 26 84 26 86 28 86 28 84 30 84 28 84 28 86 26 86 26 88 28 88 30 88 32 88 34 88 36 88 36 90 36 88 36 86 36 88 36 90 34 90 34 92 34 94 34 92 34 94 36 94 34 94 34 96 34 94 34 92 34 90 32 90 32 92 32 94 34 94 32 94 34 94 34 92 36 92 38 92 38 90 38 88 36 88 36 90 34 90 34 88 36 88 34 88 34 90 32 90 30 90 30 88 30 90 32 90 30 90 30 88 28 88 28 90 26 90 24 90 24 92 26 92 28 92 30 92 32 92 32 90 34 90 34 88 34 90 34 92 34 94 34 92 34 90 34 92 32 92 34 92 36 92 34 92 34 90 36 90 36 88 36 86 36 88 34 88 34 86 34 88 32 88 30 88 30 86 28 86 28 88 28 90 26 90 26 88 28 88 28 86 28 88 28 86 28 84 28 86 28 84 26 84 26 86 24 86 26 86 26 84 24 84 24 82 22 82 24 82 22 82 22 80 20 80 20 82 18 82 16 82 18 82 16 82 18 82 20 82 20 84 18 84 18 82 18 84 18 86 16 86 16 88 14 88 14 90 14 92 12 92 10 92 8 92 6 92 6 94 8 94 6 94 8 94 8 96 10 96 12 96 12 98 12 100 10 100 10 98 10 100 10 98 12 98 14 98 16 98 16 100 16 98 16 96 18 96 16 96 16 94 14 94 14 96 16 96 16 98 16 100 18 100 20 100 18 100 16 100 16 98 16 96 16 94 14 94 14 92 16 92 16 90 16 92 14 92 14 94 16 94 16 96 18 96 16 96 16 94 18 94 16 94 16 96 18 96 16 96 14 96 14 98 16 98 16 100 18 100 20 100 20 98 20 100 18 100 20 100 22 100 22 98 24 98 24 100 24 98 22 98 20 98 18 98 20 98 20 96 20 98 20 100 20 102 22 102 22 100 20 100 22 100 24 100 24 102 22 102 24 102 24 104 22 104 20 104 20 106 22 106 22 108 24 108 26 108 26 106 28 106 28 108 26 108 28 108 28 106 26 106 28 106 30 106 28 106 28 104 28 106 30 106 28 106 28 108 28 106 28 108 28 106 28 104 28 106 26 106 26 104 26 102 28 102 28 100 26 100 26 102 28 102 26 102 26 100 28 100 28 102 26 102 24 102 22 102 20 102 20 100 20 102 20 104 18 104 16 104 18 104 16 104 16 102 16 104 16 102 16 104 14 104 14 106 14 108 12 108 10 108 12 108 12 110 12 108 14 108 14 110 12 110 10 110 12 110 14 110 16 110 16 112 16 114 16 116 16 114 16 112 16 110 14 110 14 108 12 108 12 106 10 106 10 108 12 108 12 106 10 106 10 108 12 108 12 106 12 108 10 108 12 108 14 108 12 108 12 110 12 108 10 108 8 108 8 106 6 106 6 108 6 106 6 108 6 110 6 112 6 114 6 116 8 116 8 118 6 118 6 116 6 114 4 114 6 114 4 114 4 116 2 116 0 116 -2 116 -2 118 -2 116 -2 118 0 118 0 116 0 114 0 116 2 116 4 116 6 116 4 116 2 116 4 116 4 114 4 116 4 114 2 114 4 114 2 114 2 116 4 116 4 118 2 118 0 118 2 118 2 116 4 116 6 116 8 116 8 118 10 118 10 120 8 120 10 120 10 118 12 118 12 120 14 120 14 118 12 118 12 120 10 120 10 122 12 122 14 122 16 122 14 122 12 122 12 120 12 118 14 118 12 118 10 118 12 118 12 116 14 116 14 118 12 118 12 116 14 116 14 114 14 116 12 116 10 116 10 114 10 116 10 114 10 116 10 118 10 116 10 114 12 114 14 114 16 114 16 116 16 114 16 112 14 112 14 114 14 112 12 112 12 110 12 108 10 108 10 110 10 112 10 114 10 116 8 116 6 116 8 116 10 116 12 116 10 116 12 116 10 116 12 116 12 118 12 116 12 114 10 114 10 116 8 116 8 114 10 114 8 114 6 114 4 114 4 112 4 110 2 110 4 110 4 112 4 110 6 110 8 110 6 110 6 112 4 112 2 112 4 112 4 110 4 108 4 106 6 106 6 108 6 106 6 104 6 106 8 106 10 106 8 106 10 106 10 108 10 110 10 112 10 110 8 110 6 110 4 110 4 112 6 112 6 114 4 114 2 114 2 112 2 114 0 114 0 112 0 110 0 112 0 110 0 108 2 108 2 110 2 108 2 110 4 110 6 110 6 112 6 114 8 114 10 114 12 114 10 114 8 114 6 114 6 112 6 110 6 108 6 106 6 108 8 108 6 108 6 110 6 108 8 108 6 108 6 110 4 110 2 110 4 110 2 110 2 112 2 110 0 110 -2 110 -4 110 -2 110 -2 108 -4 108 -4 106 -4 104 -6 104 -6 102 -4 102 -6 102 -6 104 -8 104 -10 104 -10 102 -10 104 -8 104 -8 106 -8 104 -8 102 -10 102 -10 104 -8 104 -6 104 -6 106 -6 108 -8 108 -10 108 -10 110 -8 110 -8 112 -10 112 -10 114 -10 112 -10 114 -8 114 -8 112 -10 112 -10 110 -10 112 -8 112 -8 114 -8 112 -8 114 -6 114 -4 114 -4 112 -6 112 -6 110 -6 108 -6 106 -6 108 -4 108 -4 110 -6 110 -6 112 -8 112 -8 110 -10 110 -12 110 -14 110 -14 108 -14 110 -14 112 -16 112 -14 112 -16 112 -16 110 -18 110 -18 112 -18 114 -18 112 -16 112 -18 112 -20 112 -20 110 -20 112 -22 112 -24 112 -24 110 -24 112 -24 110 -24 108 -22 108 -24 108 -22 108 -22 110 -22 112 -20 112 -20 110 -20 112 -20 114 -20 112 -20 114 -20 112 -20 114 -18 114 -18 112 -18 114 -16 114 -18 114 -20 114 -22 114 -22 112 -22 114 -22 116 -22 118 -24 118 -26 118 -28 118 -26 118 -26 120 -26 118 -26 116 -24 116 -26 116 -26 118 -28 118 -28 120 -30 120 -30 122 -32 122 -32 120 -30 120 -30 118 -30 116 -30 114 -30 116 -30 114 -30 116 -30 118 -30 116 -28 116 -28 118 -26 118 -26 120 -26 118 -26 120 -24 120 -24 122 -24 120 -26 120 -24 120 -24 118 -24 116 -24 118 -22 118 -20 118 -20 116 -20 118 -20 120 -20 122 -20 120 -18 120 -16 120 -18 120 -16 120 -16 122 -18 122 -20 122 -22 122 -22 120 -22 118 -22 116 -24 116 -24 118 -22 118 -24 118 -26 118 -26 120 -24 120 -22 120 -20 120 -18 120 -20 120 -18 120 -20 120 -20 118 -18 118 -16 118 -14 118 -16 118 -16 116 -16 118 -18 118 -18 120 -18 122 -18 120 -18 118 -20 118 -18 118 -18 120 -18 122 -16 122 -14 122 -14 124 -12 124 -10 124 -8 124 -6 124 -4 124 -4 122 -4 120 -4 122 -2 122 -4 122 -2 122 -2 120 -4 120 -6 120 -6 118 -6 116 -8 116 -8 114 -10 114 -10 116 -8 116 -8 114 -8 112 -10 112 -12 112 -14 112 -14 110 -16 110 -16 108 -16 110 -18 110 -18 112 -20 112 -22 112 -22 114 -22 116 -20 116 -20 114 -22 114 -22 112 -22 114 -24 114 -24 112 -22 112 -22 110 -22 112 -22 110 -20 110 -18 110 -20 110 -20 108 -20 106 -20 104 -18 104 -20 104 -20 106 -20 104 -22 104 -20 104 -22 104 -20 104 -20 102 -22 102 -24 102 -22 102 -24 102 -24 104 -24 106 -26 106 -26 104 -26 102 -26 104 -24 104 -26 104 -28 104 -28 106 -28 108 -28 106 -28 108 -28 110 -28 112 -30 112 -30 110 -30 112 -32 112 -32 110 -30 110 -32 110 -32 108 -32 106 -32 108 -32 106 -32 108 -32 106 -30 106 -30 104 -28 104 -28 102 -26 102 -24 102 -24 104 -22 104 -22 102 -24 102 -26 102 -26 100 -28 100 -28 98 -26 98 -26 100 -26 102 -26 100 -26 98 -24 98 -26 98 -26 96 -28 96 -28 98 -28 100 -26 100 -24 100 -24 102 -24 104 -22 104 -22 106 -22 104 -24 104 -24 102 -24 100 -22 100 -24 100 -24 102 -22 102 -20 102 -20 100 -18 100 -16 100 -16 98 -14 98 -14 96 -14 94 -16 94 -16 92 -16 94 -14 94 -16 94 -16 96 -18 96 -18 94 -18 96 -18 94 -16 94 -18 94 -18 92 -18 94 -20 94 -20 92 -20 90 -18 90 -18 92 -20 92 -20 90 -22 90 -22 92 -20 92 -18 92 -16 92 -16 94 -16 92 -16 94 -14 94 -14 96 -14 94 -16 94 -16 96 -18 96 -18 94 -16 94 -16 92 -16 90 -14 90 -14 92 -16 92 -16 90 -14 90 -14 92 -16 92 -14 92 -12 92 -12 90 -10 90 -10 92 -10 94 -8 94 -10 94 -8 94 -6 94 -6 92 -6 90 -6 92 -6 94 -6 92 -8 92 -8 90 -8 92 -8 90 -6 90 -6 88 -6 90 -8 90 -6 90 -8 90 -8 88 -10 88 -10 86 -12 86 -12 84 -12 86 -14 86 -16 86 -16 88 -18 88 -18 90 -16 90 -16 88 -14 88 -12 88 -12 90 -12 92 -14 92 -14 90 -14 92 -14 94 -14 92 -16 92 -16 94 -14 94 -14 96 -14 98 -16 98 -16 100 -18 100 -16 100 -14 100 -14 102 -16 102 -16 100 -16 102 -16 104 -18 104 -18 102 -18 104 -20 104 -22 104 -24 104 -24 102 -26 102 -26 100 -28 100 -30 100 -32 100 -34 100 -34 102 -36 102 -36 100 -34 100 -34 98 -34 96 -34 98 -34 100 -32 100 -30 100 -28 100 -30 100 -32 100 -32 102 -32 104 -34 104 -34 106 -34 104 -34 106 -34 108 -32 108 -32 110 -34 110 -34 108 -36 108 -36 110 -34 110 -32 110 -32 108 -34 108 -36 108 -36 106 -38 106 -40 106 -40 108 -40 106 -42 106 -42 104 -44 104 -44 102 -42 102 -44 102 -44 100 -46 100 -46 102 -44 102 -44 104 -44 106 -44 108 -44 110 -42 110 -44 110 -44 108 -44 110 -46 110 -46 108 -48 108 -48 106 -46 106 -44 106 -42 106 -42 108 -44 108 -44 110 -44 108 -44 106 -44 108 -44 106 -44 104 -44 102 -44 100 -44 102 -44 100 -44 98 -46 98 -48 98 -46 98 -46 96 -48 96 -46 96 -44 96 -44 94 -44 92 -46 92 -44 92 -46 92 -46 94 -44 94 -44 96 -44 98 -44 100 -44 98 -44 96 -44 98 -46 98 -44 98 -44 100 -46 100 -46 102 -48 102 -48 104 -50 104 -48 104 -48 106 -48 108 -48 110 -48 108 -50 108 -52 108 -52 110 -50 110 -48 110 -48 112 -48 110 -48 108 -50 108 -50 110 -50 108 -48 108 -46 108 -48 108 -46 108 -46 110 -48 110 -50 110 -48 110 -48 112 -50 112 -50 114 -50 112 -48 112 -48 110 -50 110 -50 108 -48 108 -48 106 -48 104 -48 102 -46 102 -46 100 -46 102 -46 100 -44 100 -46 100 -44 100 -46 100 -46 102 -44 102 -44 100 -46 100 -48 100 -46 100 -46 98 -46 100 -46 98 -46 96 -46 94 -46 96 -44 96 -44 98 -44 100 -46 100 -46 102 -46 100 -48 100 -48 98 -46 98 -44 98 -42 98 -44 98 -44 100 -46 100 -44 100 -44 102 -44 104 -46 104 -48 104 -48 102 -50 102 -48 102 -46 102 -46 100 -46 98 -46 96 -44 96 -44 98 -42 98 -44 98 -46 98 -48 98 -48 100 -48 98 -46 98 -48 98 -46 98 -48 98 -48 100 -50 100 -50 102 -50 104 -50 102 -50 104 -52 104 -52 102 -52 100 -54 100 -54 102 -56 102 -58 102 -56 102 -54 102 -56 102 -56 104 -56 106 -58 106 -56 106 -56 104 -56 102 -56 104 -56 102 -56 104 -56 102 -56 100 -54 100 -54 98 -56 98 -58 98 -60 98 -62 98 -64 98 -64 100 -64 102 -62 102 -62 100 -62 98 -62 100 -62 98 -64 98 -62 98 -62 96 -60 96 -62 96 -62 94 -62 96 -62 94 -60 94 -60 92 -62 92 -60 92 -58 92 -58 90 -58 88 -58 86 -56 86 -56 88 -58 88 -60 88 -58 88 -58 90 -56 90 -56 92 -56 90 -58 90 -56 90 -56 88 -56 86 -56 88 -56 90 -58 90 -60 90 -60 92 -62 92 -60 92 -58 92 -60 92 -60 90 -60 88 -60 86 -60 84 -60 86 -62 86 -62 84 -60 84 -60 86 -60 88 -60 86 -60 88 -60 86 -60 88 -60 90 -58 90 -58 92 -56 92 -56 90 -54 90 -54 92 -54 90 -54 88 -56 88 -56 86 -56 84 -58 84 -56 84 -58 84 -60 84 -60 82 -60 80 -62 80 -62 78 -64 78 -64 76 -64 74 -64 76 -66 76 -68 76 -66 76 -66 78 -68 78 -68 76 -70 76 -72 76 -72 78 -72 80 -74 80 -76 80 -76 78 -76 76 -74 76 -74 78 -72 78 -74 78 -74 80 -72 80 -72 78 -70 78 -70 76 -70 78 -70 80 -72 80 -70 80 -70 78 -68 78 -66 78 -64 78 -66 78 -66 80 -66 78 -66 80 -68 80 -70 80 -72 80 -72 82 -74 82 -72 82 -72 84 -70 84 -68 84 -68 86 -66 86 -66 88 -66 86 -66 84 -66 82 -66 80 -68 80 -70 80 -70 78 -70 76 -70 78 -70 76 -72 76 -74 76 -72 76 -70 76 -70 78 -72 78 -72 80 -70 80 -70 78 -70 76 -70 74 -70 72 -70 74 -70 72 -68 72 -70 72 -70 70 -70 72 -70 70 -70 72 -68 72 -68 70 -68 72 -66 72 -64 72 -66 72 -66 74 -64 74 -64 72 -64 70 -62 70 -60 70 -58 70 -60 70 -58 70 -58 68 -58 70 -60 70 -58 70 -60 70 -58 70 -60 70 -60 68 -62 68 -64 68 -62 68 -62 70 -62 72 -62 70 -64 70 -64 68 -64 66 -66 66 -66 68 -66 70 -64 70 -66 70 -66 72 -68 72 -68 70 -68 68 -66 68 -66 70 -66 68 -66 70 -66 72 -64 72 -66 72 -66 74 -66 76 -66 78 -66 80 -66 78 -64 78 -66 78 -66 80 -66 78 -64 78 -66 78 -64 78 -66 78 -66 76 -66 74 -66 72 -68 72 -68 70 -68 72 -70 72 -70 74 -72 74 -74 74 -72 74 -70 74 -68 74 -68 76 -68 78 -66 78 -66 76 -66 78 -66 76 -66 74 -66 76 -68 76 -68 78 -70 78 -72 78 -70 78 -70 80 -68 80 -68 78 -68 80 -66 80 -64 80 -62 80 -62 78 -62 76 -62 78 -62 80 -62 78 -62 76 -64 76 -64 74 -62 74 -64 74 -62 74 -60 74 -60 72 -60 74 -60 72 -60 74 -62 74 -60 74 -60 72 -60 74 -62 74 -64 74 -66 74 -66 72 -66 70 -66 72 -66 74 -66 72 -66 70 -66 72 -66 70 -68 70 -68 72 -68 74 -66 74 -66 76 -64 76 -66 76 -66 78 -66 76 -66 78 -68 78 -66 78 -66 80 -66 78 -66 80 -66 82 -66 80 -66 78 -68 78 -68 76 -66 76 -66 78 -68 78 -70 78 -72 78 -70 78 -68 78 -66 78 -68 78 -70 78 -68 78 -66 78 -66 80 -66 82 -66 80 -66 78 -64 78 -64 80 -62 80 -62 82 -62 80 -60 80 -60 82 -60 80 -58 80 -58 82 -58 80 -58 82 -58 84 -60 84 -60 82 -58 82 -60 82 -60 84 -60 86 -62 86 -60 86 -60 88 -58 88 -60 88 -60 90 -60 92 -60 94 -60 96 -60 94 -62 94 -60 94 -60 92 -60 90 -62 90 -64 90 -64 92 -62 92 -60 92 -60 90 -58 90 -56 90 -54 90 -54 88 -52 88 -54 88 -54 86 -54 88 -54 86 -54 88 -56 88 -54 88 -54 86 -56 86 -58 86 -56 86 -58 86 -60 86 -62 86 -64 86 -64 84 -64 82 -64 80 -62 80 -60 80 -60 82 -58 82 -58 84 -58 82 -56 82 -54 82 -56 82 -56 80 -54 80 -54 78 -56 78 -58 78 -60 78 -60 80 -62 80 -62 82 -60 82 -60 84 -58 84 -58 82 -60 82 -60 80 -58 80 -60 80 -60 78 -60 80 -60 82 -60 84 -60 86 -62 86 -60 86 -60 88 -60 90 -58 90 -56 90 -56 92 -58 92 -58 90 -56 90 -56 88 -58 88 -58 90 -56 90 -56 92 -58 92 -58 94 -60 94 -60 96 -60 94 -60 96 -60 98 -62 98 -62 96 -60 96 -60 98 -60 100 -58 100 -58 98 -56 98 -56 100 -56 102 -58 102 -58 100 -58 102 -58 104 -60 104 -60 106 -62 106 -64 106 -62 106 -64 106 -64 104 -66 104 -64 104 -66 104 -64 104 -64 102 -62 102 -62 100 -60 100 -62 100 -60 100 -60 98 -60 100 -58 100 -56 100 -58 100 -60 100 -62 100 -62 102 -62 100 -62 98 -60 98 -58 98 -58 96 -56 96 -54 96 -52 96 -54 96 -52 96 -52 94 -54 94 -54 96 -54 94 -56 94 -54 94 -54 96 -54 94 -54 92 -56 92 -56 90 -56 92 -56 90 -56 92 -58 92 -58 90 -58 88 -58 86 -58 84 -60 84 -62 84 -62 86 -60 86 -62 86 -64 86 -64 88 -64 86 -62 86 -64 86 -64 84 -64 82 -66 82 -68 82 -68 80 -68 82 -68 84 -68 82 -68 84 -68 82 -68 84 -70 84 -68 84 -68 82 -70 82 -68 82 -68 84 -68 86 -68 84 -68 86 -70 86 -70 84 -68 84 -68 86 -68 84 -68 86 -68 88 -66 88 -64 88 -66 88 -66 90 -64 90 -62 90 -64 90 -66 90 -66 92 -66 94 -68 94 -68 92 -70 92 -70 90 -70 92 -68 92 -66 92 -64 92 -64 90 -64 88 -64 90 -64 88 -62 88 -64 88 -66 88 -66 86 -66 88 -68 88 -68 90 -66 90 -64 90 -62 90 -62 88 -60 88 -60 90 -58 90 -60 90 -60 92 -58 92 -56 92 -54 92 -54 90 -52 90 -50 90 -48 90 -46 90 -46 92 -48 92 -48 94 -50 94 -50 92 -48 92 -46 92 -46 90 -48 90 -48 92 -50 92 -52 92 -52 94 -52 92 -52 90 -52 92 -52 94 -54 94 -54 92 -56 92 -56 94 -58 94 -60 94 -58 94 -58 92 -56 92 -56 90 -58 90 -58 88 -56 88 -54 88 -56 88 -58 88 -58 90 -58 92 -60 92 -60 90 -60 88 -58 88 -58 86 -58 84 -56 84 -56 82 -56 84 -56 86 -56 88 -56 86 -56 88 -58 88 -58 86 -60 86 -62 86 -62 88 -62 86 -64 86 -64 84 -62 84 -60 84 -58 84 -58 86 -56 86 -54 86 -52 86 -50 86 -50 88 -52 88 -52 90 -52 88 -52 86 -54 86 -54 84 -56 84 -54 84 -56 84 -58 84 -56 84 -56 86 -58 86 -58 84 -58 86 -60 86 -62 86 -62 84 -62 82 -60 82 -62 82 -60 82 -62 82 -60 82 -60 84 -60 86 -58 86 -56 86 -56 84 -58 84 -56 84 -58 84 -60 84 -60 86 -60 84 -62 84 -62 82 -60 82 -60 84 -62 84 -62 82 -62 84 -62 86 -64 86 -64 84 -62 84 -60 84 -62 84 -60 84 -62 84 -62 86 -62 88 -60 88 -62 88 -62 86 -60 86 -60 88 -58 88 -58 90 -56 90 -54 90 -54 88 -56 88 -58 88 -56 88 -54 88 -54 90 -54 92 -52 92 -50 92 -48 92 -46 92 -46 94 -48 94 -50 94 -48 94 -46 94 -48 94 -48 92 -48 90 -50 90 -50 88 -50 90 -50 92 -50 94 -52 94 -54 94 -54 96 -56 96 -56 98 -56 100 -54 100 -56 100 -58 100 -58 102 -58 100 -56 100 -56 98 -58 98 -60 98 -60 100 -60 102 -62 102 -62 104 -64 104 -62 104 -60 104 -62 104 -64 104 -62 104 -62 102 -62 100 -62 98 -60 98 -58 98 -58 96 -58 98 -60 98 -58 98 -56 98 -56 100 -54 100 -54 98 -52 98 -50 98 -50 100 -50 102 -50 104 -52 104 -52 102 -54 102 -54 100 -54 102 -52 102 -54 102 -54 104 -54 102 -56 102 -56 100 -58 100 -60 100 -60 98 -58 98 -60 98 -60 100 -60 102 -60 100 -60 102 -60 100 -60 98 -62 98 -64 98 -64 96 -64 94 -62 94 -64 94 -66 94 -66 96 -68 96 -68 98 -66 98 -66 100 -68 100 -68 98 -70 98 -70 96 -70 94 -70 96 -70 94 -72 94 -70 94 -70 96 -70 94 -68 94 -68 92 -66 92 -68 92 -70 92 -70 94 -72 94 -72 92 -74 92 -74 94 -72 94 -72 92 -70 92 -70 90 -70 92 -70 90 -72 90 -72 92 -74 92 -76 92 -78 92 -76 92 -76 94 -76 96 -74 96 -72 96 -74 96 -76 96 -76 98 -78 98 -80 98 -80 96 -82 96 -82 98 -80 98 -80 100 -80 98 -80 100 -78 100 -78 102 -76 102 -76 104 -76 106 -74 106 -74 104 -72 104 -74 104 -72 104 -72 102 -72 100 -70 100 -70 102 -70 104 -72 104 -70 104 -72 104 -72 106 -72 108 -70 108 -72 108 -70 108 -70 106 -72 106 -74 106 -74 108 -72 108 -70 108 -70 110 -68 110 -68 108 -66 108 -66 106 -68 106 -66 106 -68 106 -68 104 -68 102 -70 102 -70 100 -70 98 -68 98 -68 100 -66 100 -64 100 -64 98 -64 96 -62 96 -64 96 -66 96 -66 94 -66 92 -66 94 -66 92 -66 90 -68 90 -68 88 -68 90 -66 90 -64 90 -66 90 -64 90 -64 92 -64 90 -66 90 -64 90 -62 90 -62 92 -64 92 -66 92 -66 94 -64 94 -64 96 -64 94 -62 94 -62 96 -62 98 -62 100 -62 98 -62 100 -62 98 -60 98 -62 98 -62 96 -64 96 -62 96 -62 94 -60 94 -60 96 -58 96 -58 98 -56 98 -56 96 -58 96 -58 94 -60 94 -62 94 -60 94 -60 92 -62 92 -60 92 -60 94 -58 94 -58 92 -60 92 -60 94 -58 94 -58 96 -58 98 -58 96 -60 96 -58 96 -56 96 -56 98 -58 98 -60 98 -58 98 -60 98 -58 98 -58 100 -60 100 -60 98 -58 98 -58 100 -60 100 -60 98 -58 98 -60 98 -60 100 -60 102 -62 102 -62 104 -62 106 -64 106 -62 106 -64 106 -64 108 -64 106 -62 106 -64 106 -62 106 -64 106 -64 108 -62 108 -60 108 -60 106 -60 108 -58 108 -58 110 -58 112 -56 112 -54 112 -56 112 -56 114 -56 112 -56 110 -56 112 -56 114 -58 114 -60 114 -58 114 -60 114 -62 114 -60 114 -60 112 -60 114 -60 112 -58 112 -58 114 -60 114 -60 112 -58 112 -58 110 -58 112 -60 112 -60 110 -62 110 -64 110 -64 112 -62 112 -60 112 -58 112 -56 112 -56 110 -54 110 -54 108 -54 110 -56 110 -56 108 -58 108 -56 108 -56 110 -56 112 -54 112 -52 112 -52 110 -52 108 -50 108 -48 108 -46 108 -46 106 -44 106 -44 104 -42 104 -44 104 -44 102 -44 100 -46 100 -48 100 -50 100 -50 98 -52 98 -52 100 -50 100 -50 98 -48 98 -46 98 -46 100 -48 100 -48 98 -48 96 -50 96 -52 96 -52 94 -52 92 -50 92 -48 92 -50 92 -52 92 -50 92 -50 90 -50 92 -52 92 -52 94 -50 94 -48 94 -46 94 -46 92 -48 92 -48 94 -50 94 -50 96 -50 98 -48 98 -46 98 -44 98 -46 98 -48 98 -48 100 -46 100 -46 98 -48 98 -48 96 -48 98 -46 98 -48 98 -50 98 -50 96 -52 96 -52 94 -52 96 -54 96 -54 94 -56 94 -56 92 -56 90 -58 90 -58 92 -58 94 -58 96 -58 98 -56 98 -56 100 -56 102 -56 100 -56 102 -58 102 -56 102 -56 104 -54 104 -56 104 -54 104 -54 106 -56 106 -54 106 -56 106 -54 106 -56 106 -58 106 -56 106 -56 108 -54 108 -54 106 -52 106 -50 106 -50 108 -48 108 -50 108 -50 110 -50 112 -50 110 -50 108 -50 110 -50 108 -48 108 -50 108 -48 108 -48 110 -50 110 -50 112 -50 110 -52 110 -54 110 -52 110 -54 110 -54 112 -52 112 -50 112 -52 112 -54 112 -54 114 -52 114 -52 116 -52 118 -52 116 -52 114 -52 116 -52 114 -52 116 -52 118 -52 120 -50 120 -50 122 -50 124 -48 124 -50 124 -52 124 -52 126 -52 124 -50 124 -50 126 -52 126 -52 124 -54 124 -56 124 -58 124 -56 124 -58 124 -60 124 -60 126 -58 126 -56 126 -54 126 -54 128 -54 130 -54 128 -52 128 -54 128 -54 126 -52 126 -50 126 -50 124 -52 124 -52 126 -50 126 -52 126 -50 126 -50 124 -50 122 -48 122 -48 120 -46 120 -46 122 -44 122 -44 120 -42 120 -42 118 -42 120 -40 120 -40 118 -40 120 -40 122 -40 120 -42 120 -42 118 -42 120 -42 118 -40 118 -40 116 -42 116 -40 116 -42 116 -42 114 -40 114 -38 114 -36 114 -36 116 -36 114 -36 116 -36 118 -38 118 -36 118 -34 118 -32 118 -32 116 -30 116 -32 116 -32 114 -32 112 -34 112 -34 114 -34 112 -32 112 -30 112 -32 112 -32 110 -32 112 -30 112 -30 114 -28 114 -28 112 -28 114 -30 114 -28 114 -30 114 -30 112 -32 112 -34 112 -34 114 -34 116 -32 116 -32 114 -30 114 -30 112 -30 110 -30 108 -32 108 -32 106 -30 106 -28 106 -28 104 -28 106 -30 106 -32 106 -34 106 -36 106 -38 106 -40 106 -42 106 -42 104 -40 104 -38 104 -38 106 -38 108 -38 106 -38 104 -38 106 -40 106 -38 106 -36 106 -38 106 -38 108 -40 108 -42 108 -42 106 -44 106 -46 106 -46 104 -44 104 -42 104 -42 102 -44 102 -44 100 -44 98 -46 98 -46 100 -46 98 -48 98 -50 98 -52 98 -50 98 -50 96 -52 96 -52 94 -54 94 -56 94 -56 92 -56 90 -58 90 -56 90 -54 90 -54 92 -56 92 -58 92 -58 90 -60 90 -62 90 -64 90 -64 92 -62 92 -62 94 -64 94 -64 96 -64 94 -64 92 -64 94 -66 94 -66 92 -66 94 -68 94 -66 94 -68 94 -68 96 -70 96 -68 96 -68 94 -70 94 -70 92 -70 94 -70 96 -72 96 -72 94 -72 92 -70 92 -72 92 -70 92 -68 92 -70 92 -70 90 -72 90 -72 92 -72 94 -74 94 -72 94 -70 94 -70 96 -68 96 -68 98 -66 98 -68 98 -70 98 -70 100 -70 98 -70 96 -68 96 -70 96 -72 96 -74 96 -74 94 -72 94 -72 96 -72 94 -72 96 -72 98 -74 98 -76 98 -78 98 -78 96 -78 94 -78 96 -78 94 -78 92 -78 90 -78 88 -76 88 -76 86 -78 86 -80 86 -80 88 -80 90 -78 90 -78 92 -78 90 -76 90 -76 88 -78 88 -80 88 -80 86 -80 88 -80 90 -80 88 -78 88 -80 88 -82 88 -82 86 -82 88 -82 86 -80 86 -82 86 -82 88 -80 88 -78 88 -78 90 -80 90 -78 90 -80 90 -78 90 -80 90 -78 90 -80 90 -82 90 -84 90 -84 88 -84 90 -84 88 -86 88 -86 90 -86 92 -86 90 -88 90 -86 90 -88 90 -88 92 -86 92 -86 90 -86 92 -84 92 -84 90 -84 88 -86 88 -88 88 -88 90 -90 90 -90 92 -90 94 -90 96 -88 96 -86 96 -86 94 -84 94 -84 96 -84 98 -86 98 -84 98 -84 96 -82 96 -82 94 -80 94 -80 96 -80 98 -78 98 -78 96 -78 94 -76 94 -76 92 -76 94 -76 92 -76 90 -76 88 -76 86 -76 88 -74 88 -72 88 -72 86 -74 86 -72 86 -74 86 -74 88 -72 88 -72 90 -70 90 -68 90 -66 90 -66 92 -66 94 -68 94 -70 94 -70 96 -70 94 -68 94 -70 94 -70 96 -68 96 -66 96 -68 96 -70 96 -70 98 -70 100 -70 98 -68 98 -66 98 -64 98 -66 98 -66 96 -64 96 -62 96 -60 96 -62 96 -62 94 -60 94 -58 94 -58 92 -60 92 -62 92 -60 92 -60 94 -60 96 -58 96 -58 94 -58 96 -60 96 -60 98 -60 96 -60 98 -60 100 -58 100 -58 98 -58 100 -58 102 -58 100 -58 98 -58 96 -60 96 -58 96 -56 96 -56 98 -56 100 -58 100 -60 100 -60 98 -60 96 -62 96 -62 98 -64 98 -62 98 -62 96 -62 94 -62 92 -64 92" stroke="black" stroke-width="0.2" fill="transparent" />
    </g> 
</svg>