<?xml version="1.0" encoding="UTF-8" standalone="no"?>
<svg width="100" height="100" version="1.1" xmlns="http://www.w3.org/2000/svg">
    <g opacity="1.0">
        <path d="M 50.0 50.0 L  50 52 48 52 46 52 46 50 46 48 46 50 44 50 44 48 44 50 42 50 42 52 40 52 38 52 40 52 40 50 38 50 40 50 38 50 40 50 42 50 42 48 42 46 44 46 44 44 46 44 46 42 44 42 46 42 48 42 48 40 50 40 52 40 52 38 52 36 50 36 48 36 46 36 46 38 46 36 44 36 44 38 46 38 46 36 48 36 50 36 50 38 48 38 48 36 50 36 50 34 52 34 52 36 54 36 52 36 52 38 52 36 50 36 50 38 50 36 50 34 48 34 50 34 52 34 52 36 50 36 48 36 46 36 46 38 46 40 46 42 48 42 48 40 50 40 52 40 54 40 56 40 56 42 54 42 52 42 52 44 54 44 52 44 54 44 54 46 54 48 54 50 56 50 56 48 56 50 58 50 58 52 58 50 56 50 58 50 58 48 58 50 56 50 56 52 58 52 60 52 58 52 60 52 60 54 60 56 60 58 60 56 60 54 60 52 60 54 60 52 62 52 62 54 60 54 58 54 58 52 60 52 58 52 58 50 58 48 56 48 56 46 56 48 54 48 54 50 56 50 56 52 56 50 54 50 52 50 52 48 52 46 54 46 52 46 54 46 54 48 54 46 54 44 52 44 50 44 50 42 52 42 52 40 52 38 52 36 52 34 50 34 48 34 48 36 48 38 46 38 44 38 46 38 46 36 46 38 48 38 50 38 48 38 50 38 48 38 48 40 46 40 44 40 44 38 44 36 44 34 44 32 44 34 42 34 40 34 38 34 38 32 38 34 36 34 38 34 36 34 38 34 38 36 38 34 38 32 40 32 42 32 40 32 40 34 42 34 42 36 42 34 42 36 42 38 44 38 42 38 42 36 42 38 44 38 44 36 46 36 48 36 50 36 48 36 48 34 48 36 50 36 50 34 50 36 48 36 48 34 50 34 52 34 52 32 52 34 52 36 52 38 52 36 52 34 52 36 52 34 54 34 54 32 54 34 52 34 52 32 54 32 56 32 54 32 54 30 54 28 56 28 58 28 58 26 56 26 54 26 54 24 52 24 52 22 50 22 50 24 48 24 46 24 48 24 50 24 50 22 50 20 50 18 48 18 50 18 52 18 50 18 50 16 50 14 52 14 52 16 52 18 54 18 54 20 56 20 54 20 52 20 52 22 50 22 48 22 48 24 46 24 46 26 44 26 44 28 42 28 44 28 44 26 46 26 46 28 46 26 48 26 48 24 48 26 48 28 46 28 46 30 46 32 44 32 46 32 44 32 46 32 48 32 48 34 48 36 46 36 48 36 48 34 50 34 48 34 50 34 50 36 48 36 48 34 48 36 48 38 46 38 46 40 44 40 46 40 46 38 46 36 46 34 48 34 48 36 48 38 46 38 46 40 44 40 46 40 44 40 44 38 44 40 44 42 46 42 46 40 46 38 46 40 46 38 46 36 46 38 48 38 46 38 44 38 44 36 44 34 44 36 42 36 42 38 42 36 42 34 40 34 40 32 38 32 38 34 38 32 38 30 38 28 40 28 42 28 40 28 40 26 40 24 40 22 40 20 38 20 38 22 38 24 38 22 40 22 40 20 40 18 42 18 42 20 44 20 46 20 46 22 44 22 44 20 44 22 44 20 42 20 42 18 42 20 44 20 44 18 44 20 46 20 44 20 42 20 42 18 44 18 42 18 42 16 42 14 40 14 40 12 42 12 44 12 42 12 42 14 42 12 40 12 38 12 38 10 38 12 38 14 36 14 36 12 36 14 36 12 38 12 38 14 38 12 38 10 38 12 38 10 40 10 40 12 40 10 38 10 38 12 40 12 40 10 40 8 40 6 38 6 36 6 38 6 38 8 36 8 38 8 38 10 36 10 36 12 36 14 36 16 36 18 34 18 36 18 36 20 36 18 36 16 34 16 34 18 34 16 34 18 34 16 34 18 32 18 32 20 32 22 34 22 32 22 30 22 28 22 28 24 26 24 26 22 26 24 26 26 26 28 26 30 26 32 24 32 22 32 22 30 20 30 18 30 20 30 20 28 20 30 22 30 22 32 22 30 22 28 22 30 20 30 20 32 18 32 18 34 18 32 16 32 14 32 16 32 16 34 16 32 14 32 14 34 14 32 14 30 12 30 14 30 14 28 14 30 14 28 14 30 14 28 14 26 14 28 12 28 12 30 12 28 12 26 12 24 12 22 10 22 10 20 12 20 12 18 10 18 12 18 12 20 12 18 12 16 14 16 14 18 14 20 12 20 10 20 10 18 10 20 10 18 10 20 10 18 8 18 10 18 8 18 10 18 12 18 14 18 16 18 16 20 18 20 18 18 18 20 20 20 20 18 18 18 16 18 14 18 16 18 18 18 18 16 18 18 18 16 18 18 18 16 18 14 18 12 20 12 18 12 20 12 20 10 22 10 20 10 20 12 18 12 20 12 18 12 20 12 18 12 18 14 18 12 20 12 20 14 22 14 24 14 24 16 24 14 22 14 20 14 18 14 18 12 16 12 18 12 18 14 16 14 16 12 16 10 14 10 16 10 16 12 16 14 18 14 18 12 18 14 16 14 14 14 12 14 10 14 10 12 10 14 8 14 6 14 8 14 8 16 8 18 6 18 6 20 4 20 4 22 6 22 4 22 4 20 6 20 6 22 8 22 8 24 6 24 6 22 8 22 8 20 8 18 10 18 12 18 12 16 14 16 16 16 14 16 14 14 16 14 16 12 16 14 16 16 16 14 14 14 16 14 14 14 12 14 12 16 10 16 10 14 8 14 8 16 8 18 6 18 4 18 4 16 6 16 6 14 4 14 2 14 2 16 2 18 4 18 4 16 4 14 4 16 4 18 4 16 4 14 4 16 2 16 0 16 0 18 2 18 4 18 6 18 8 18 8 20 8 18 8 20 8 18 6 18 6 20 6 22 6 24 6 22 6 20 4 20 2 20 0 20 0 22 -2 22 -4 22 -2 22 -2 20 0 20 2 20 2 22 4 22 4 20 4 22 6 22 6 20 4 20 6 20 4 20 6 20 6 18 4 18 4 16 6 16 6 14 6 12 8 12 8 10 8 8 6 8 8 8 10 8 10 6 10 4 10 6 10 8 10 6 10 8 10 10 12 10 12 12 12 14 14 14 12 14 10 14 10 16 10 18 12 18 10 18 10 20 10 22 8 22 6 22 8 22 10 22 12 22 14 22 12 22 12 24 12 26 12 28 10 28 10 26 8 26 10 26 10 28 12 28 10 28 12 28 12 30 12 32 12 34 14 34 14 36 16 36 16 34 14 34 14 36 14 34 16 34 14 34 14 36 14 38 12 38 10 38 10 36 12 36 12 34 12 36 12 38 12 40 14 40 14 42 12 42 12 44 12 46 14 46 16 46 14 46 12 46 12 48 14 48 14 46 16 46 16 48 16 46 18 46 18 48 20 48 20 50 18 50 20 50 20 48 18 48 16 48 16 46 14 46 16 46 16 44 16 42 16 44 16 42 16 40 16 42 18 42 20 42 22 42 24 42 26 42 26 40 28 40 26 40 24 40 26 40 26 42 24 42 24 44 24 42 24 40 26 40 28 40 28 38 30 38 32 38 30 38 30 40 28 40 28 38 30 38 30 36 32 36 30 36 32 36 34 36 32 36 34 36 34 38 36 38 34 38 34 36 36 36 34 36 34 34 36 34 36 32 34 32 34 34 32 34 30 34 28 34 28 36 30 36 28 36 28 38 26 38 26 36 26 38 24 38 24 40 22 40 22 38 22 36 24 36 26 36 26 34 24 34 26 34 24 34 26 34 26 32 28 32 26 32 26 34 26 32 24 32 22 32 22 30 22 28 22 30 22 28 22 30 20 30 20 28 20 30 22 30 20 30 20 28 18 28 18 30 16 30 16 28 14 28 12 28 14 28 16 28 18 28 18 30 16 30 16 28 16 26 14 26 16 26 16 24 16 22 14 22 14 24 16 24 18 24 20 24 20 22 20 24 20 22 22 22 20 22 20 20 20 22 18 22 18 20 18 22 18 20 16 20 18 20 20 20 20 18 20 20 20 22 20 24 22 24 20 24 20 26 20 24 20 26 22 26 24 26 22 26 22 24 24 24 24 22 26 22 26 20 24 20 22 20 24 20 22 20 22 18 20 18 20 16 20 18 22 18 22 16 22 18 20 18 18 18 16 18 16 16 14 16 14 14 14 12 12 12 12 14 12 16 10 16 10 14 10 12 10 10 12 10 10 10 10 8 12 8 12 10 10 10 12 10 10 10 10 12 8 12 10 12 12 12 12 14 10 14 10 12 12 12 10 12 8 12 10 12 10 10 12 10 12 12 14 12 16 12 16 10 14 10 12 10 10 10 12 10 10 10 8 10 10 10 10 12 8 12 10 12 10 14 10 12 10 10 8 10 6 10 6 12 8 12 10 12 8 12 8 14 10 14 10 12 10 14 10 16 10 18 10 16 12 16 10 16 12 16 10 16 10 14 8 14 8 12 10 12 10 14 10 12 8 12 6 12 6 10 6 8 6 10 6 8 8 8 10 8 12 8 12 10 14 10 12 10 14 10 16 10 16 8 16 10 14 10 16 10 16 12 16 14 16 16 16 18 14 18 12 18 10 18 10 16 10 18 8 18 10 18 8 18 10 18 10 20 8 20 8 18 8 16 8 14 8 16 6 16 8 16 10 16 10 18 10 16 12 16 10 16 8 16 10 16 10 14 8 14 6 14 8 14 10 14 10 16 10 14 12 14 12 16 12 14 12 16 14 16 14 18 14 16 14 18 14 16 14 14 16 14 18 14 18 12 16 12 18 12 16 12 16 10 16 8 14 8 14 10 14 8 12 8 12 10 14 10 16 10 18 10 20 10 18 10 16 10 16 8 14 8 14 6 14 8 16 8 16 10 18 10 18 12 20 12 22 12 20 12 20 10 20 8 22 8 24 8 24 10 24 12 26 12 24 12 24 10 26 10 26 12 28 12 28 10 30 10 30 12 32 12 30 12 30 10 28 10 28 12 28 14 28 16 28 18 28 20 30 20 30 18 30 16 30 18 28 18 28 16 30 16 30 18 28 18 30 18 30 16 30 14 30 16 30 14 30 16 32 16 32 14 34 14 34 16 36 16 36 14 38 14 36 14 36 12 36 10 38 10 38 12 40 12 40 10 42 10 44 10 44 12 42 12 40 12 38 12 40 12 42 12 42 14 42 12 44 12 46 12 46 14 46 12 46 14 48 14 50 14 48 14 50 14 52 14 54 14 56 14 58 14 56 14 56 16 54 16 52 16 50 16 52 16 52 14 54 14 52 14 54 14 54 16 56 16 56 14 56 12 58 12 60 12 60 10 60 8 62 8 62 10 64 10 64 8 66 8 68 8 66 8 68 8 66 8 68 8 68 6 66 6 68 6 70 6 70 8 70 10 72 10 70 10 70 8 72 8 72 10 72 8 72 6 70 6 68 6 68 4 68 6 66 6 66 4 66 6 66 4 68 4 70 4 68 4 68 6 68 8 70 8 72 8 72 10 72 8 72 6 70 6 70 8 72 8 74 8 76 8 76 10 76 12 74 12 74 14 72 14 70 14 72 14 72 12 72 14 70 14 72 14 72 16 72 18 72 20 70 20 68 20 70 20 70 18 72 18 72 16 72 14 72 12 72 14 72 12 72 14 72 12 72 14 72 12 74 12 72 12 72 10 74 10 72 10 74 10 74 12 74 10 74 12 76 12 78 12 80 12 82 12 84 12 84 10 84 12 86 12 84 12 82 12 84 12 82 12 84 12 86 12 86 10 84 10 84 12 84 10 84 8 86 8 88 8 90 8 88 8 86 8 84 8 84 6 84 8 82 8 82 10 84 10 86 10 86 12 86 14 84 14 84 16 84 14 82 14 80 14 80 16 80 18 78 18 76 18 76 16 76 14 74 14 74 16 74 14 74 16 76 16 76 18 76 20 74 20 76 20 76 18 74 18 74 16 74 18 74 20 72 20 74 20 72 20 72 22 72 24 72 26 74 26 76 26 76 28 76 26 76 28 76 30 76 32 76 30 76 28 74 28 74 30 74 28 72 28 70 28 68 28 68 26 70 26 70 24 72 24 74 24 76 24 78 24 78 22 80 22 80 24 82 24 82 26 82 24 80 24 78 24 76 24 78 24 76 24 78 24 78 26 78 24 80 24 78 24 78 22 78 24 78 26 78 24 78 22 78 20 80 20 80 22 82 22 82 24 82 26 84 26 86 26 86 28 86 26 88 26 86 26 84 26 82 26 82 24 84 24 86 24 84 24 82 24 82 26 80 26 82 26 82 24 80 24 82 24 84 24 86 24 88 24 88 26 86 26 86 28 84 28 86 28 86 26 84 26 86 26 86 28 86 26 84 26 84 24 84 22 84 20 84 22 82 22 82 20 80 20 80 22 80 20 80 18 80 20 78 20 78 18 76 18 76 20 76 22 74 22 74 20 76 20 74 20 72 20 72 22 72 20 70 20 68 20 68 22 66 22 64 22 64 20 64 22 64 20 64 18 62 18 64 18 64 20 66 20 68 20 66 20 64 20 64 18 64 20 62 20 62 18 62 20 62 22 62 24 62 26 62 24 60 24 60 26 60 28 60 26 60 28 62 28 62 30 62 32 60 32 58 32 60 32 60 34 62 34 64 34 62 34 62 36 62 34 64 34 62 34 62 36 64 36 66 36 66 38 66 40 68 40 70 40 70 38 70 36 72 36 74 36 74 34 76 34 74 34 72 34 74 34 74 36 72 36 74 36 74 38 74 36 76 36 76 38 76 40 78 40 80 40 82 40 82 42 82 40 82 42 84 42 86 42 86 44 88 44 86 44 86 42 86 40 84 40 84 42 86 42 86 40 86 42 84 42 84 44 82 44 82 46 80 46 80 44 80 46 80 44 82 44 80 44 80 42 80 40 80 38 82 38 84 38 84 36 84 34 84 32 84 34 82 34 82 32 80 32 80 30 80 28 80 30 80 32 82 32 82 30 84 30 82 30 80 30 80 28 80 26 78 26 78 28 80 28 80 30 80 32 80 34 80 32 80 34 80 32 80 34 78 34 76 34 74 34 76 34 76 36 76 38 74 38 76 38 78 38 78 36 76 36 76 38 76 40 78 40 78 38 78 36 78 34 78 32 76 32 76 30 74 30 74 28 74 26 74 24 74 26 72 26 72 28 74 28 74 30 76 30 76 28 74 28 72 28 72 26 72 24 72 22 72 20 74 20 72 20 74 20 76 20 76 18 76 20 78 20 76 20 76 18 78 18 80 18 78 18 76 18 74 18 72 18 72 20 74 20 74 22 72 22 74 22 76 22 76 24 78 24 76 24 78 24 78 22 80 22 80 20 82 20 84 20 84 18 86 18 88 18 90 18 90 20 90 22 90 24 90 26 88 26 86 26 88 26 90 26 92 26 92 28 90 28 90 30 90 28 88 28 86 28 86 26 84 26 82 26 80 26 80 28 80 26 82 26 80 26 78 26 78 24 76 24 78 24 80 24 80 26 80 28 80 26 80 24 82 24 82 22 84 22 86 22 86 20 86 22 84 22 82 22 84 22 84 24 82 24 80 24 80 26 80 28 80 26 80 24 78 24 78 26 78 28 80 28 80 26 80 28 82 28 80 28 78 28 78 30 78 28 76 28 78 28 78 26 80 26 82 26 84 26 86 26 86 28 86 30 86 28 86 26 88 26 88 28 86 28 84 28 82 28 80 28 80 30 78 30 76 30 78 30 78 32 78 34 80 34 82 34 84 34 84 36 86 36 88 36 88 38 88 36 90 36 88 36 86 36 86 38 86 40 86 38 84 38 82 38 80 38 80 36 80 34 80 32 80 34 78 34 80 34 82 34 82 36 80 36 80 34 80 32 82 32 82 30 82 28 84 28 86 28 86 30 88 30 88 32 90 32 92 32 90 32 90 34 88 34 86 34 84 34 82 34 84 34 82 34 82 32 84 32 84 34 84 36 86 36 86 34 86 36 86 38 86 40 86 38 84 38 86 38 86 40 86 38 86 40 84 40 84 38 86 38 86 40 88 40 90 40 90 38 92 38 92 40 92 38 92 40 92 38 90 38 90 40 90 42 92 42 92 40 90 40 92 40 92 42 94 42 94 40 92 40 92 38 90 38 92 38 92 40 90 40 88 40 88 42 90 42 88 42 90 42 92 42 90 42 90 40 90 38 88 38 90 38 90 40 90 38 88 38 86 38 88 38 86 38 88 38 88 40 88 38 86 38 88 38 90 38 90 40 90 42 90 40 88 40 86 40 88 40 88 38 88 40 90 40 92 40 94 40 96 40 96 38 96 36 98 36 98 38 96 38 98 38 98 36 98 38 98 36 98 38 98 40 100 40 100 38 102 38 104 38 104 36 102 36 102 38 102 40 102 38 100 38 98 38 100 38 98 38 100 38 102 38 104 38 104 36 104 38 104 40 102 40 104 40 106 40 106 42 106 44 104 44 104 42 104 44 104 42 104 40 106 40 108 40 108 38 108 40 108 42 106 42 104 42 104 40 106 40 104 40 106 40 106 42 106 40 108 40 108 38 108 36 108 34 108 36 106 36 106 38 108 38 108 40 108 38 110 38 110 40 110 38 110 40 110 38 110 36 110 34 108 34 110 34 112 34 114 34 112 34 114 34 116 34 116 36 114 36 112 36 114 36 114 38 114 40 114 38 116 38 116 40 114 40 114 42 114 44 112 44 114 44 114 46 114 48 112 48 110 48 108 48 110 48 110 50 112 50 110 50 110 52 108 52 108 50 110 50 110 52 110 50 112 50 112 48 114 48 116 48 116 50 116 52 116 54 116 56 116 58 114 58 112 58 112 56 112 54 114 54 116 54 118 54 118 56 118 54 116 54 114 54 112 54 110 54 110 56 108 56 106 56 106 58 106 56 108 56 110 56 108 56 110 56 110 54 108 54 106 54 104 54 104 56 102 56 102 54 102 52 104 52 104 50 102 50 104 50 104 48 104 46 102 46 102 44 104 44 104 42 104 40 104 42 102 42 104 42 102 42 100 42 100 44 98 44 98 46 98 48 98 50 100 50 102 50 102 52 102 54 102 52 104 52 106 52 104 52 104 54 104 52 104 54 104 52 102 52 102 54 100 54 100 52 100 50 100 52 100 50 98 50 100 50 100 48 102 48 102 46 102 44 102 42 100 42 102 42 102 44 104 44 104 42 102 42 100 42 100 40 100 42 100 40 100 38 102 38 102 36 104 36 104 34 104 32 106 32 106 30 106 28 106 30 104 30 106 30 106 28 106 26 106 24 106 22 106 20 108 20 108 18 106 18 104 18 106 18 106 16 108 16 106 16 106 14 104 14 104 12 104 14 104 12 102 12 102 14 102 12 102 14 104 14 106 14 106 16 106 14 106 16 108 16 106 16 104 16 104 14 104 16 104 18 104 16 106 16 104 16 102 16 102 18 100 18 102 18 102 20 104 20 102 20 102 18 100 18 100 20 102 20 104 20 104 22 102 22 102 24 102 26 102 24 100 24 102 24 102 26 102 28 100 28 98 28 98 30 100 30 98 30 96 30 96 28 96 30 96 28 98 28 98 26 96 26 98 26 100 26 100 24 100 22 102 22 102 20 104 20 106 20 108 20 108 18 108 20 110 20 110 18 110 20 110 18 112 18 112 20 110 20 112 20 110 20 112 20 114 20 114 18 114 20 116 20 116 22 116 20 118 20 120 20 120 22 120 20 118 20 118 18 116 18 114 18 116 18 118 18 120 18 118 18 118 16 116 16 118 16 118 14 118 12 118 10 118 8 120 8 120 6 120 4 120 6 120 4 122 4 122 6 124 6 122 6 122 8 122 10 120 10 120 12 120 14 118 14 118 12 120 12 118 12 118 14 118 16 118 14 120 14 120 12 120 10 120 8 120 6 120 4 118 4 118 6 118 4 116 4 114 4 114 6 116 6 114 6 114 8 116 8 116 6 118 6 120 6 122 6 122 8 122 10 122 12 122 14 122 16 124 16 122 16 124 16 122 16 122 14 120 14 120 12 118 12 118 14 116 14 118 14 116 14 118 14 118 12 116 12 114 12 114 10 116 10 118 10 116 10 116 8 114 8 114 10 112 10 112 8 112 6 112 4 110 4 108 4 106 4 108 4 110 4 110 6 108 6 106 6 106 4 108 4 110 4 110 2 108 2 110 2 108 2 108 4 106 4 104 4 104 6 102 6 102 8 104 8 106 8 104 8 104 10 102 10 102 8 102 6 104 6 106 6 108 6 108 8 108 6 108 8 106 8 108 8 110 8 110 10 110 8 112 8 112 10 112 12 112 14 114 14 116 14 118 14 116 14 116 12 116 14 118 14 120 14 120 16 122 16 124 16 122 16 122 18 122 16 124 16 124 18 126 18 126 16 126 14 128 14 128 16 130 16 132 16 132 14 130 14 130 12 132 12 132 10 134 10 136 10 138 10 138 8 140 8 140 6 140 8 142 8 142 6 142 4 140 4 142 4 142 6 142 4 144 4 142 4 142 2 144 2 142 2 142 4 140 4 140 2 140 0 140 2 140 0 142 0 142 2 144 2 144 4 146 4 148 4 148 6 148 4 148 6 148 4 146 4 148 4 148 6 148 8 150 8 150 6 152 6 150 6 152 6 150 6 150 4 150 6 152 6 150 6 150 8 152 8 152 10 154 10 154 12 156 12 158 12 160 12 160 10 160 12 162 12 160 12 158 12 160 12 160 10 160 8 160 6 160 4 160 2 160 0 158 0 158 2 156 2 156 0 156 -2 156 0 156 2 156 4 158 4 156 4 156 6 156 8 156 6 158 6 156 6 158 6 158 4 156 4 156 2 158 2 160 2 160 0 160 -2 160 -4 160 -6 160 -8 162 -8 164 -8 162 -8 162 -6 162 -8 162 -6 164 -6 162 -6 162 -4 164 -4 162 -4 162 -6 160 -6 160 -4 158 -4 160 -4 160 -2 160 -4 162 -4 160 -4 162 -4 162 -2 162 0 160 0 162 0 162 2 164 2 164 4 166 4 166 2 168 2 170 2 170 0 168 0 168 -2 168 0 168 2 166 2 166 0 166 2 166 4 164 4 164 2 164 4 162 4 160 4 158 4 158 2 158 4 156 4 154 4 156 4 156 2 156 4 158 4 160 4 162 4 162 2 160 2 160 4 160 6 160 8 162 8 162 10 160 10 162 10 164 10 162 10 162 8 162 6 162 8 160 8 158 8 160 8 158 8 158 10 158 12 156 12 156 10 156 12 158 12 156 12 156 10 156 8 156 6 158 6 158 8 156 8 156 6 156 8 156 10 156 12 158 12 156 12 156 10 156 12 156 10 156 12 156 10 158 10 158 12 158 10 156 10 154 10 152 10 154 10 154 8 156 8 156 10 154 10 156 10 156 8 156 10 156 12 154 12 154 10 154 12 154 14 152 14 154 14 156 14 156 12 156 10 156 12 154 12 154 10 154 12 156 12 158 12 160 12 158 12 158 10 158 12 160 12 158 12 158 10 158 8 158 6 158 8 158 6 158 4 160 4 160 6 160 8 158 8 160 8 158 8 158 6 158 8 160 8 160 6 158 6 158 4 158 6 160 6 158 6 160 6 160 4 162 4 164 4 164 2 164 0 164 -2 166 -2 164 -2 162 -2 160 -2 160 0 158 0 158 2 158 4 158 6 156 6 156 8 156 6 158 6 158 8 160 8 162 8 162 10 160 10 162 10 162 8 160 8 160 6 162 6 162 8 164 8 164 6 162 6 162 8 162 6 164 6 164 8 162 8 162 10 160 10 160 12 160 14 158 14 160 14 160 16 160 14 162 14 162 12 164 12 164 10 162 10 164 10 162 10 160 10 160 12 162 12 164 12 162 12 164 12 164 14 164 16 162 16 164 16 164 14 164 12 164 14 166 14 166 12 166 10 168 10 166 10 166 12 166 10 166 12 166 14 166 16 166 14 166 12 164 12 162 12 162 10 162 12 162 14 164 14 164 16 164 14 162 14 162 12 162 14 162 16 162 14 164 14 164 16 162 16 162 14 162 16 164 16 166 16 164 16 164 18 164 20 164 18 162 18 162 20 160 20 160 18 160 16 160 14 158 14 160 14 160 12 158 12 158 10 158 12 160 12 158 12 158 10 158 8 158 10 156 10 158 10 156 10 158 10 160 10 158 10 156 10 156 8 158 8 158 6 158 4 158 6 158 4 158 2 158 4 158 6 158 8 158 10 156 10 154 10 152 10 150 10 150 12 148 12 148 10 150 10 150 12 150 14 152 14 150 14 150 12 150 14 150 12 150 14 148 14 148 12 148 10 148 12 150 12 152 12 152 10 150 10 150 12 150 14 150 16 148 16 150 16 152 16 152 18 152 16 154 16 152 16 152 14 152 16 152 18 150 18 150 20 148 20 148 18 150 18 152 18 152 20 152 22 152 20 154 20 154 18 154 16 154 14 152 14 154 14 154 16 154 14 154 12 154 10 152 10 152 8 152 6 152 8 150 8 150 10 150 8 152 8 152 10 152 8 152 10 150 10 150 12 150 14 150 12 150 10 150 8 150 6 150 4 152 4 154 4 156 4 156 6 158 6 158 8 158 10 158 8 156 8 154 8 152 8 152 6 152 8 154 8 156 8 154 8 152 8 152 6 150 6 152 6 154 6 154 8 154 10 154 12 152 12 154 12 154 14 152 14 154 14 154 12 154 10 154 8 152 8 150 8 150 6 150 8 150 10 148 10 146 10 146 12 144 12 146 12 146 10 146 12 148 12 150 12 150 10 148 10 148 12 150 12 150 10 152 10 150 10 150 8 148 8 150 8 150 10 150 8 148 8 146 8 146 6 146 8 146 6 148 6 148 4 148 2 150 2 150 0 150 2 152 2 152 4 152 2 152 4 150 4 152 4 152 6 152 8 150 8 150 6 150 4 150 6 150 4 148 4 148 6 150 6 152 6 152 4 152 2 152 4 154 4 154 2 154 0 152 0 152 -2 154 -2 156 -2 158 -2 160 -2 160 -4 160 -6 162 -6 162 -4 162 -6 162 -8 162 -10 162 -8 160 -8 160 -6 160 -4 162 -4 160 -4 158 -4 160 -4 158 -4 156 -4 158 -4 158 -2 158 0 156 0 158 0 158 -2 158 -4 160 -4 158 -4 156 -4 154 -4 156 -4 156 -2 156 0 156 2 154 2 156 2 154 2 154 4 156 4 156 6 158 6 158 4 156 4 156 6 156 4 154 4 154 2 154 4 152 4 152 6 154 6 156 6 156 4 156 6 156 8 156 10 156 12 158 12 158 14 158 16 156 16 158 16 158 14 156 14 158 14 158 12 160 12 158 12 158 10 158 12 158 10 160 10 160 12 158 12 158 14 158 12 158 10 158 8 158 10 156 10 156 8 156 10 156 12 158 12 158 14 156 14 154 14 154 12 154 10 154 12 152 12 154 12 156 12 156 14 154 14 156 14 158 14 160 14 160 16 160 18 162 18 164 18 166 18 164 18 166 18 166 16 168 16 170 16 170 14 170 12 170 14 170 16 170 18 170 20 170 22 170 24 172 24 172 22 172 24 172 22 170 22 170 20 170 22 170 20 168 20 168 22 168 20 168 22 166 22 166 20 166 22 164 22 162 22 162 20 162 18 164 18 164 16 166 16 164 16 164 14 162 14 160 14 160 16 158 16 158 14 160 14 162 14 160 14 158 14 158 12 158 14 158 12 158 14 158 12 158 10 156 10 158 10 158 12 156 12 154 12 156 12 156 10 158 10 160 10 160 8 160 10 162 10 162 12 162 14 160 14 160 12 160 14 158 14 160 14 158 14 156 14 156 16 156 14 156 16 156 18 156 20 154 20 152 20 150 20 150 22 152 22 152 24 154 24 154 22 154 20 154 22 156 22 158 22 158 20 158 22 158 24 156 24 154 24 154 26 156 26 156 24 154 24 154 26 154 28 154 26 154 28 156 28 156 26 156 28 156 30 154 30 154 32 154 34 156 34 156 32 156 34 156 32 158 32 158 30 160 30 158 30 160 30 160 28 160 26 158 26 156 26 158 26 158 28 156 28 154 28 154 26 154 28 154 26 154 28 154 30 154 32 156 32 154 32 156 32 154 32 156 32 156 34 154 34 156 34 156 36 158 36 160 36 162 36 162 38 164 38 162 38 164 38 164 40 166 40 168 40 168 42 170 42 172 42 172 40 172 38 174 38 172 38 174 38 176 38 174 38 172 38 172 40 172 38 174 38 174 36 174 38 176 38 174 38 174 36 174 38 174 36 174 34 174 32 174 34 174 32 174 34 174 36 172 36 170 36 170 38 168 38 168 36 166 36 166 34 164 34 164 36 164 38 164 40 164 42 164 40 164 42 164 44 164 46 164 48 162 48 162 46 162 44 164 44 162 44 162 42 164 42 162 42 162 40 162 42 164 42 164 44 166 44 164 44 162 44 160 44 158 44 158 42 156 42 154 42 156 42 154 42 154 44 154 42 152 42 150 42 152 42 152 40 150 40 150 38 150 36 150 34 148 34 146 34 146 36 144 36 144 38 146 38 144 38 146 38 146 36 144 36 146 36 146 34 148 34 148 36 150 36 150 34 150 36 150 38 150 36 152 36 150 36 150 38 150 36 150 34 148 34 148 36 150 36 148 36 146 36 144 36 146 36 146 34 146 36 144 36 144 38 142 38 140 38 140 40 140 38 140 40 140 38 138 38 140 38 140 40 140 38 142 38 144 38 144 40 146 40 146 42 146 44 146 46 148 46 148 44 150 44 150 46 150 44 152 44 150 44 150 46 150 44 150 42 152 42 154 42 152 42 154 42 154 44 156 44 156 42 154 42 154 44 156 44 156 46 158 46 158 48 158 50 156 50 156 52 156 50 156 52 158 52 160 52 160 54 158 54 156 54 158 54 160 54 162 54 162 56 162 58 162 56 164 56 166 56 168 56 168 58 166 58 164 58 162 58 160 58 162 58 160 58 162 58 164 58 164 56 164 58 164 56 164 58 162 58 160 58 162 58 160 58 160 56 160 58 160 56 160 54 162 54 164 54 162 54 162 52 162 50 164 50 162 50 162 52 160 52 160 54 158 54 156 54 154 54 156 54 154 54 154 52 152 52 152 50 150 50 148 50 150 50 150 48 148 48 148 50 148 52 148 54 148 52 150 52 150 50 150 52 148 52 148 50 146 50 146 48 148 48 150 48 150 46 152 46 150 46 152 46 150 46 152 46 152 48 150 48 152 48 150 48 150 50 150 48 148 48 146 48 146 50 144 50 146 50 146 52 148 52 150 52 150 50 148 50 150 50 152 50 152 52 150 52 150 50 150 52 150 50 150 52 152 52 154 52 156 52 156 54 156 52 154 52 154 50 154 48 156 48 156 46 158 46 160 46 158 46 158 44 158 46 158 44 156 44 156 42 156 40 156 38 156 40 156 42 158 42 156 42 158 42 156 42 154 42 156 42 156 40 156 42 158 42 160 42 162 42 160 42 162 42 164 42 164 40 164 42 166 42 168 42 168 44 168 42 168 44 166 44 168 44 168 46 168 48 168 50 168 52 166 52 166 50 168 50 168 48 168 50 168 48 168 50 168 48 166 48 164 48 162 48 160 48 160 50 160 48 158 48 156 48 156 50 158 50 160 50 162 50 162 52 164 52 164 50 164 48 166 48 166 50 168 50 166 50 166 48 164 48 162 48 164 48 166 48 168 48 168 50 168 52 168 54 166 54 166 56 164 56 162 56 164 56 164 58 164 56 164 58 162 58 162 60 162 62 162 64 162 66 164 66 166 66 168 66 168 64 166 64 168 64 168 66 170 66 172 66 170 66 170 68 170 66 170 64 168 64 168 66 168 68 168 70 170 70 170 68 168 68 170 68 170 70 170 68 172 68 172 66 170 66 168 66 166 66 166 64 164 64 166 64 166 66 166 64 168 64 166 64 164 64 164 62 164 60 162 60 164 60 164 58 166 58 164 58 164 56 166 56 164 56 162 56 162 58 162 60 162 58 160 58 158 58 158 56 158 54 158 56 158 58 158 56 158 58 158 60 160 60 160 58 160 60 158 60 156 60 158 60 156 60 156 58 158 58 158 56 160 56 162 56 162 58 164 58 166 58 164 58 164 56 166 56 164 56 166 56 166 58 164 58 166 58 164 58 166 58 166 56 166 58 168 58 168 60 166 60 164 60 162 60 162 62 162 60 162 62 162 60 164 60 164 62 164 64 166 64 164 64 162 64 164 64 164 66 164 68 166 68 166 70 166 68 166 66 168 66 168 64 168 66 168 64 168 62 168 60 168 62 168 64 168 62 168 64 170 64 168 64 170 64 170 66 170 68 168 68 166 68 166 66 166 68 166 66 166 64 166 62 166 64 168 64 170 64 170 62 170 64 168 64 170 64 172 64 172 62 174 62 172 62 172 60 172 62 170 62 170 60 168 60 170 60 170 58 170 60 170 58 172 58 172 60 174 60 174 58 174 56 174 58 174 56 172 56 172 58 170 58 170 60 168 60 168 62 166 62 166 64 166 62 166 60 164 60 164 62 162 62 162 60 160 60 158 60 158 58 160 58 158 58 158 60 158 58 160 58 160 60 160 62 160 64 160 62 158 62 158 64 160 64 162 64 164 64 164 66 164 68 166 68 164 68 164 70 164 68 164 66 164 68 164 70 166 70 164 70 164 72 164 70 166 70 168 70 170 70 170 72 170 74 168 74 170 74 170 76 168 76 168 78 168 80 166 80 166 78 164 78 164 80 164 82 166 82 164 82 162 82 164 82 166 82 168 82 170 82 170 84 168 84 168 86 170 86 170 88 170 90 172 90 170 90 172 90 170 90 170 92 170 90 170 92 170 90 170 88 170 86 170 88 172 88 172 90 170 90 168 90 168 92 168 90 168 88 166 88 166 90 166 92 168 92 170 92 168 92 168 94 170 94 170 92 168 92 168 94 168 92 168 94 166 94 164 94 164 92 162 92 162 94 164 94 162 94 162 92 162 90 162 92 164 92 162 92 164 92 164 94 164 92 164 94 164 96 166 96 164 96 164 94 166 94 164 94 162 94 162 96 160 96 162 96 160 96 158 96 158 98 156 98 154 98 156 98 156 96 156 98 156 96 156 94 156 92 158 92 158 94 158 92 156 92 154 92 154 90 152 90 152 88 154 88 154 86 154 84 152 84 152 82 152 80 154 80 156 80 156 78 156 76 156 74 156 72 156 74 158 74 156 74 156 72 158 72 158 74 160 74 160 76 160 78 160 76 160 74 160 72 160 74 162 74 162 76 164 76 164 74 162 74 164 74 162 74 162 76 160 76 160 78 160 76 158 76 160 76 160 78 160 80 158 80 158 82 158 84 160 84 162 84 162 86 160 86 162 86 162 88 164 88 166 88 166 90 168 90 166 90 164 90 164 92 166 92 166 94 168 94 168 96 168 94 166 94 164 94 166 94 166 96 166 94 166 92 166 90 166 88 164 88 166 88 166 90 166 92 166 90 164 90 164 92 164 94 166 94 166 92 164 92 164 94 164 92 164 94 164 96 166 96 166 94 168 94 170 94 170 92 170 90 170 92 172 92 172 94 172 96 170 96 168 96 170 96 170 98 170 100 168 100 168 102 168 100 170 100 168 100 168 98 168 100 166 100 168 100 170 100 170 102 170 104 170 102 170 104 168 104 168 106 170 106 168 106 166 106 164 106 162 106 160 106 160 104 158 104 158 102 160 102 158 102 156 102 156 104 158 104 156 104 154 104 154 102 152 102 154 102 156 102 156 100 158 100 160 100 158 100 158 98 156 98 158 98 158 96 156 96 158 96 158 98 156 98 156 96 154 96 152 96 154 96 156 96 156 98 156 100 156 102 156 104 158 104 158 106 158 108 160 108 160 110 160 108 160 110 158 110 160 110 162 110 160 110 160 108 160 106 162 106 162 104 162 106 162 108 160 108 158 108 158 106 158 108 158 110 160 110 160 108 160 106 158 106 158 108 156 108 156 106 156 108 156 106 154 106 154 108 154 106 154 108 154 110 154 112 154 110 154 108 156 108 158 108 156 108 154 108 156 108 158 108 156 108 154 108 152 108 152 110 154 110 152 110 150 110 150 108 150 110 152 110 154 110 154 112 152 112 150 112 150 110 152 110 152 112 152 110 152 108 152 106 152 108 150 108 152 108 152 110 152 108 152 106 150 106 150 104 148 104 146 104 148 104 148 102 150 102 150 104 150 106 150 104 150 102 150 100 148 100 150 100 150 98 150 96 150 94 150 96 150 94 148 94 148 92 146 92 146 90 146 88 146 90 146 92 146 94 148 94 146 94 146 96 148 96 148 98 148 96 148 94 146 94 148 94 148 96 148 98 148 96 148 98 148 96 148 98 148 100 146 100 144 100 144 102 144 100 146 100 144 100 144 102 146 102 146 100 148 100 148 98 148 96 150 96 148 96 148 94 150 94 150 92 152 92 154 92 154 90 156 90 154 90 156 90 156 88 158 88 160 88 158 88 158 86 160 86 158 86 156 86 158 86 160 86 160 88 160 86 160 84 162 84 164 84 164 86 164 84 166 84 168 84 166 84 168 84 170 84 170 82 170 84 168 84 168 86 170 86 170 84 172 84 174 84 174 82 174 84 172 84 172 82 174 82 176 82 176 80 174 80 174 82 174 84 174 86 176 86 176 88 176 86 178 86 176 86 174 86 174 88 174 86 176 86 174 86 172 86 172 84 172 82 174 82 176 82 176 80 178 80 178 78 178 76 176 76 178 76 176 76 174 76 176 76 176 78 176 76 176 74 178 74 176 74 178 74 176 74 176 72 174 72 174 70 174 68 174 70 174 72 174 74 174 72 174 70 176 70 176 72 176 70 176 68 174 68 176 68 176 66 174 66 174 64 172 64 174 64 172 64 172 66 172 68 170 68 172 68 172 70 170 70 168 70 170 70 170 68 170 70 172 70 174 70 176 70 176 72 174 72 174 74 174 76 174 78 172 78 172 80 174 80 174 82 174 84 174 86 172 86 172 88 172 86 172 88 174 88 172 88 172 86 170 86 170 84 168 84 168 86 170 86 168 86 168 84 168 86 170 86 168 86 168 84 168 82 168 84 166 84 164 84 162 84 162 82 160 82 158 82 156 82 156 84 156 86 154 86 156 86 156 88 158 88 158 86 156 86 158 86 158 88 158 90 158 92 160 92 160 94 162 94 164 94 166 94 168 94 170 94 170 96 170 98 170 100 172 100 170 100 168 100 170 100 170 98 168 98 166 98 164 98 164 100 164 98 162 98 162 100 162 98 162 100 162 102 162 104 164 104 162 104 160 104 158 104 158 106 158 108 156 108 154 108 154 106 152 106 154 106 154 104 152 104 150 104 148 104 146 104 148 104 146 104 146 106 146 104 146 102 146 104 146 106 146 108 148 108 148 106 146 106 146 104 146 106 144 106 146 106 148 106 148 104 150 104 148 104 148 102 150 102 150 104 150 102 148 102 146 102 148 102 148 104 148 102 150 102 150 100 150 102 148 102 148 104 146 104 146 102 144 102 142 102 142 104 144 104 144 102 142 102 140 102 140 104 140 106 142 106 142 108 142 106 144 106 146 106 144 106 146 106 144 106 146 106 144 106 146 106 144 106 146 106 146 108 146 106 144 106 144 104 144 106 144 104 144 102 144 104 144 106 146 106 144 106 146 106 146 108 146 110 146 112 146 110 146 112 146 114 146 112 146 110 146 112 144 112 144 110 146 110 144 110 144 112 146 112 148 112 148 114 146 114 146 112 148 112 150 112 150 114 152 114 152 112 152 114 150 114 152 114 154 114 152 114 152 116 152 118 154 118 156 118 154 118 154 120 154 122 152 122 152 124 152 122 154 122 154 120 152 120 154 120 156 120 154 120 154 118 154 120 154 122 156 122 156 120 154 120 154 118 152 118 152 116 150 116 150 114 150 116 150 114 150 116 152 116 154 116 156 116 154 116 154 118 156 118 154 118 152 118 152 116 152 114 152 116 152 114 154 114 156 114 158 114 160 114 162 114 162 116 164 116 164 118 164 116 164 114 166 114 168 114 166 114 166 112 166 114 166 116 168 116 168 114 168 116 166 116 166 118 166 120 166 122 166 124 166 122 166 124 164 124 164 126 166 126 166 128 168 128 168 130 168 132 168 134 166 134 168 134 166 134 164 134 162 134 162 132 160 132 160 134 158 134 156 134 156 132 156 130 156 132 158 132 158 130 160 130 158 130 160 130 160 128 160 126 160 124 160 126 160 128 160 126 160 128 158 128 156 128 154 128 152 128 150 128 150 130 150 128 148 128 146 128 148 128 150 128 148 128 150 128 148 128 150 128 152 128 152 126 150 126 150 124 148 124 150 124 148 124 146 124 144 124 144 122 142 122 142 120 142 118 142 120 144 120 144 122 146 122 148 122 148 120 146 120 146 118 146 120 146 118 146 120 146 118 148 118 148 120 146 120 146 118 148 118 146 118 148 118 150 118 148 118 148 116 146 116 146 114 146 112 146 110 144 110 144 112 144 114 144 116 144 114 142 114 140 114 138 114 138 116 136 116 134 116 134 118 134 116 136 116 136 114 136 116 138 116 140 116 142 116 144 116 144 118 144 120 142 120 142 118 142 120 142 118 142 120 142 118 142 116 142 114 144 114 146 114 146 116 146 114 144 114 144 112 142 112 142 110 144 110 146 110 146 112 146 114 146 116 146 114 144 114 146 114 146 116 146 114 144 114 146 114 146 116 148 116 148 118 150 118 150 116 152 116 152 114 154 114 156 114 158 114 158 112 158 114 160 114 160 112 158 112 160 112 160 114 158 114 158 116 156 116 154 116 154 114 154 116 154 118 152 118 152 120 154 120 154 122 154 120 156 120 156 118 156 120 154 120 152 120 150 120 150 118 148 118 148 120 148 122 148 124 150 124 150 126 152 126 154 126 156 126 156 124 156 126 156 124 156 122 156 120 156 118 158 118 158 120 156 120 156 122 156 124 158 124 160 124 158 124 160 124 158 124 158 126 160 126 160 124 160 122 160 120 162 120 160 120 162 120 164 120 164 122 162 122 162 124 162 122 164 122 164 120 164 118 162 118 164 118 164 120 164 122 164 124 162 124 164 124 162 124 162 126 162 124 160 124 160 122 162 122 164 122 164 124 164 122 164 124 166 124 168 124 168 122 166 122 164 122 162 122 160 122 160 124 158 124 158 126 156 126 158 126 156 126 158 126 158 124 160 124 160 122 160 124 158 124 158 126 158 128 158 126 158 128 156 128 158 128 158 126 158 128 156 128 158 128 158 130 160 130 160 128 158 128 158 130 160 130 160 132 160 130 162 130 162 132 162 134 162 132 162 130 160 130 160 132 162 132 162 130 164 130 166 130 164 130 162 130 160 130 160 132 162 132 164 132 164 130 162 130 162 128 162 130 162 132 164 132 162 132 162 130 162 132 162 130 160 130 160 132 162 132 160 132 162 132 164 132 164 130 164 128 162 128 160 128 162 128 162 126 164 126 166 126 166 128 166 130 166 128 168 128 166 128 166 126 166 124 166 126 164 126 164 128 164 130 166 130 168 130 166 130 164 130 166 130 168 130 168 128 168 126 166 126 168 126 168 128 170 128 170 130 170 132 172 132 170 132 170 134 172 134 172 136 172 138 172 140 174 140 172 140 174 140 176 140 178 140 178 138 176 138 174 138 174 136 172 136 170 136 168 136 166 136 166 134 168 134 170 134 170 132 172 132 172 134 170 134 172 134 172 136 172 138 170 138 172 138 170 138 170 136 170 138 170 136 168 136 166 136 168 136 166 136 166 138 166 140 164 140 164 138 164 136 166 136 166 138 166 136 166 134 168 134 170 134 170 132 168 132 168 130 166 130 164 130 166 130 168 130 170 130 168 130 170 130 170 132 168 132 168 134 170 134 168 134 166 134 164 134 164 136 166 136 166 134 168 134 166 134 166 136 166 134 164 134 162 134 162 136 162 138 162 140 162 138 162 140 164 140 164 138 164 140 166 140 164 140 164 142 164 140 162 140 164 140 162 140 164 140 162 140 160 140 162 140 164 140 164 142 162 142 160 142 160 140 158 140 158 142 158 144 160 144 160 142 158 142 160 142 158 142 156 142 158 142 156 142 158 142 156 142 154 142 156 142 156 144 156 146 156 148 156 150 156 152 156 154 158 154 160 154 160 156 162 156 162 154 162 156 160 156 162 156 162 154 162 156 160 156 160 158 158 158 158 160 160 160 160 162 162 162 162 164 164 164 162 164 164 164 166 164 166 166 166 168 168 168 166 168 164 168 164 170 164 172 166 172 166 174 166 176 166 174 166 172 168 172 168 174 168 172 168 170 166 170 164 170 164 172 162 172 162 174 160 174 160 172 162 172 162 174 162 176 162 178 160 178 158 178 160 178 160 180 158 180 156 180 156 182 158 182 158 184 160 184 160 186 162 186 160 186 162 186 164 186 164 184 164 182 164 180 164 182 164 184 162 184 162 186 164 186 164 188 162 188 162 186 160 186 160 184 160 186 160 184 160 182 158 182 156 182 156 184 154 184 154 186 152 186 152 188 150 188 148 188 148 186 146 186 144 186 146 186 144 186 144 184 144 182 146 182 148 182 148 180 146 180 146 178 148 178 150 178 150 180 148 180 150 180 150 178 150 176 150 178 150 180 150 178 150 180 148 180 148 182 146 182 144 182 144 184 144 182 142 182 140 182 142 182 142 180 142 182 142 180 142 182 142 180 142 182 142 180 142 182 142 180 142 182 142 184 142 186 140 186 138 186 140 186 140 188 140 186 140 188 138 188 136 188 138 188 138 190 136 190 134 190 134 192 134 190 134 188 136 188 136 186 134 186 134 188 132 188 134 188 132 188 132 190 130 190 130 188 128 188 128 190 130 190 130 188 130 190 130 192 130 194 130 192 128 192 128 190 128 188 130 188 128 188 128 186 128 184 128 182 128 180 128 178 130 178 128 178 128 176 128 174 130 174 130 172 130 174 130 176 128 176 128 174 126 174 126 176 126 174 126 176 128 176 128 174 130 174 132 174 132 176 134 176 134 174 136 174 138 174 140 174 142 174 140 174 140 172 142 172 142 174 140 174 142 174 140 174 140 172 138 172 140 172 140 174 138 174 138 176 138 174 140 174 138 174 138 176 136 176 136 174 134 174 134 176 132 176 132 174 132 176 132 178 132 180 132 178 130 178 130 180 130 178 128 178 130 178 130 176 130 178 130 176 132 176 132 174 132 176 130 176 130 178 130 180 130 182 130 180 132 180 134 180 134 178 132 178 132 176 134 176 134 178 136 178 134 178 136 178 136 176 136 178 134 178 134 180 132 180 134 180 132 180 132 182 132 180 134 180 134 182 132 182 134 182 134 184 134 182 134 180 134 178 134 176 134 178 132 178 130 178 128 178 130 178 130 180 130 178 128 178 130 178 132 178 130 178 128 178 128 176 128 174 126 174 126 172 128 172 126 172 126 170 124 170 124 168 124 170 124 168 124 166 126 166 126 164 124 164 126 164 126 162 128 162 128 164 128 166 126 166 128 166 130 166 130 164 130 166 130 168 130 166 128 166 126 166 126 168 126 166 128 166 128 164 128 162 128 160 128 162 126 162 126 164 124 164 126 164 128 164 128 166 126 166 128 166 128 168 128 170 128 172 128 174 126 174 126 172 128 172 128 174 130 174 130 172 130 174 130 176 130 178 132 178 134 178 134 180 132 180 130 180 130 178 130 176 128 176 130 176 128 176 130 176 130 174 132 174 134 174 132 174 132 172 132 174 132 172 130 172 130 170 132 170 132 168 132 170 134 170 134 168 134 170 136 170 136 168 136 170 138 170 136 170 136 172 138 172 140 172 138 172 138 174 140 174 142 174 142 172 144 172 144 170 144 168 142 168 142 170 142 172 142 174 142 172 144 172 142 172 140 172 138 172 136 172 136 174 136 176 136 174 136 176 136 178 138 178 138 176 138 178 138 180 140 180 140 178 138 178 140 178 140 180 142 180 144 180 142 180 140 180 138 180 136 180 138 180 136 180 138 180 138 178 138 180 140 180 142 180 144 180 142 180 142 182 140 182 140 180 140 182 140 184 138 184 138 182 138 180 138 178 140 178 140 180 142 180 142 178 142 180 142 182 144 182 144 184 146 184 146 186 148 186 150 186 150 184 150 186 152 186 152 188 152 186 152 188 154 188 154 186 154 188 154 186 154 188 154 190 152 190 150 190 150 192 148 192 148 194 148 192 146 192 148 192 150 192 150 194 150 192 150 190 152 190 152 188 154 188 154 190 154 188 156 188 156 190 154 190 152 190 150 190 148 190 150 190 148 190 148 192 146 192 146 190 148 190 148 192 148 194 150 194 152 194 154 194 154 196 154 194 156 194 156 192 158 192 158 194 158 196 156 196 156 194 156 192 158 192 160 192 160 194 160 192 160 190 158 190 160 190 158 190 158 188 160 188 160 186 162 186 160 186 160 188 160 186 158 186 160 186 160 188 158 188 158 186 158 184 160 184 160 182 160 180 160 182 158 182 156 182 154 182 152 182 154 182 152 182 150 182 150 180 148 180 150 180 148 180 150 180 148 180 146 180 148 180 148 182 150 182 152 182 152 184 152 182 150 182 150 184 148 184 146 184 146 182 144 182 142 182 142 184 142 182 142 184 144 184 146 184 146 182 148 182 146 182 144 182 144 184 144 182 144 180 146 180 146 178 146 180 144 180 146 180 146 182 148 182 148 184 150 184 152 184 152 182 152 180 154 180 152 180 152 178 152 176 150 176 150 178 148 178 148 176 148 178 148 180 148 178 150 178 150 176 148 176 148 174 148 172 148 170 150 170 152 170 152 168 152 170 152 168 154 168 154 166 154 164 154 166 152 166 150 166 152 166 152 168 154 168 154 170 154 172 154 170 152 170 150 170 150 172 150 170 150 168 152 168 152 170 150 170 152 170 152 172 152 170 152 168 152 170 152 168 150 168 150 166 148 166 148 168 150 168 148 168 148 170 148 172 146 172 146 174 144 174 146 174 146 172 144 172 142 172 142 174 144 174 144 172 144 170 144 168 144 170 146 170 148 170 150 170 152 170 154 170 156 170 156 168 156 170 158 170 158 172 160 172 160 170 158 170 160 170 162 170 162 168 164 168 162 168 162 170 160 170 160 172 160 174 162 174 162 176 160 176 162 176 162 174 162 172 162 170 164 170 162 170 162 168 162 166 160 166 162 166 162 164 164 164 162 164 162 162 160 162 160 160 160 162 160 164 160 166 160 168 160 166 158 166 158 168 160 168 158 168 156 168 158 168 158 166 158 168 158 166 160 166 160 164 162 164 162 162 162 164 164 164 166 164 164 164 166 164 164 164 164 162 166 162 166 164 166 162 168 162 168 164 170 164 170 166 168 166 170 166 172 166 172 168 172 170 174 170 172 170 174 170 172 170 172 168 172 170 172 172 172 170 172 168 170 168 172 168 172 170 172 168 172 170 172 168 174 168 174 170 172 170 172 168 170 168 170 170 172 170 172 172 172 174 170 174 172 174 174 174 172 174 172 176 170 176 168 176 168 174 170 174 170 172 170 174 170 176 170 174 168 174 166 174 168 174 170 174 168 174 170 174 168 174 168 172 166 172 164 172 164 174 164 172 164 170 164 172 162 172 162 170 160 170 160 168 162 168 162 170 164 170 164 168 164 166 162 166 162 164 162 166 162 168 162 170 162 172 162 170 162 172 164 172 164 170 166 170 166 172 168 172 168 170 168 168 170 168 170 166 170 164 168 164 168 166 168 164 166 164 164 164 166 164 168 164 166 164 164 164 164 162 164 160 162 160 160 160 158 160 160 160 160 162 160 164 160 162 158 162 160 162 158 162 160 162 162 162 162 160 162 162 160 162 162 162 162 164 164 164 166 164 164 164 166 164 166 162 164 162 164 164 164 162 164 164 162 164 164 164 164 162 162 162 164 162 164 164 164 162 164 164 164 162 162 162 162 164 162 166 162 168 162 170 160 170 160 168 160 166 162 166 160 166 160 164 160 162 162 162 160 162 160 160 160 162 160 160 162 160 162 162 164 162 164 164 166 164 164 164 164 166 162 166 162 168 162 170 162 168 162 170 162 172 160 172 162 172 160 172 160 170 160 168 160 170 162 170 162 168 162 166 160 166 160 164 158 164 160 164 160 162 158 162 158 164 158 162 160 162 160 164 160 166 160 164 160 166 158 166 156 166 158 166 160 166 160 168 158 168 156 168 156 170 158 170 156 170 156 172 156 170 156 172 156 170 158 170 158 168 160 168 160 166 162 166 162 168 162 170 160 170 160 168 160 170 158 170 158 168 158 170 158 172 156 172 156 174 158 174 158 172 156 172 156 174 158 174 156 174 156 172 156 170 158 170 156 170 154 170 152 170 152 168 150 168 150 166 150 164 150 162 150 164 152 164 154 164 152 164 150 164 150 162 150 164 148 164 150 164 152 164 152 162 152 160 154 160 154 158 154 156 154 158 156 158 158 158 160 158 162 158 162 160 160 160 158 160 158 158 158 156 160 156 158 156 160 156 158 156 160 156 162 156 160 156 160 158 158 158 156 158 156 156 154 156 154 158 154 156 152 156 152 154 154 154 154 156 154 154 154 152 154 154 156 154 156 152 156 154 158 154 160 154 158 154 158 156 158 158 156 158 156 156 158 156 156 156 158 156 158 154 158 152 160 152 160 154 160 152 160 154 160 152 160 154 158 154 156 154 156 152 154 152 152 152 152 154 152 156 150 156 150 154 152 154 154 154 154 156 154 158 152 158 154 158 154 156 156 156 156 158 156 160 156 158 154 158 154 156 154 158 152 158 150 158 152 158 150 158 150 156 152 156 154 156 156 156 154 156 156 156 154 156 156 156 154 156 156 156 156 158 156 156 154 156 152 156 150 156 150 158 150 156 150 154 152 154 150 154 148 154 148 152 148 154 150 154 150 152 152 152 154 152 154 154 154 156 154 158 152 158 154 158 154 160 154 162 156 162 154 162 154 160 152 160 154 160 156 160 158 160 156 160 158 160 158 162 156 162 156 164 154 164 154 162 152 162 154 162 156 162 154 162 154 160 152 160 152 158 152 160 150 160 148 160 146 160 146 162 146 164 146 166 146 168 144 168 146 168 146 170 144 170 142 170 144 170 144 168 142 168 144 168 144 170 144 168 144 166 144 164 146 164 144 164 144 166 144 164 144 162 144 160 144 158 142 158 142 160 140 160 140 162 140 160 140 162 140 164 142 164 140 164 140 166 138 166 140 166 138 166 138 164 138 162 138 164 138 166 140 166 140 164 140 166 142 166 140 166 138 166 140 166 140 168 138 168 140 168 140 170 140 172 138 172 136 172 134 172 136 172 134 172 134 170 136 170 138 170 138 172 138 174 136 174 138 174 136 174 138 174 138 172 138 170 138 168 136 168 138 168 140 168 142 168 142 166 144 166 144 164 146 164 146 166 144 166 142 166 144 166 146 166 146 168 146 170 146 172 146 170 146 168 148 168 148 170 148 168 150 168 150 166 148 166 146 166 144 166 146 166 148 166 146 166 146 164 144 164 146 164 144 164 144 162 144 164 146 164 146 166 144 166 144 168 146 168 148 168 148 170 148 168 148 166 150 166 152 166 150 166 148 166 146 166 144 166 144 164 144 166 144 168 144 170 144 168 142 168 142 166 142 168 144 168 142 168 140 168 140 170 142 170 142 168 140 168 138 168 140 168 140 166 138 166 138 164 138 166 140 166 138 166 136 166 134 166 134 168 134 166 132 166 132 168 132 166 132 164 130 164 130 166 128 166 126 166 128 166 126 166 126 164 126 166 126 168 124 168 124 166 124 168 126 168 124 168 124 170 124 168 124 166 124 164 122 164 120 164 118 164 118 162 118 160 118 158 120 158 120 160 118 160 118 162 118 164 118 166 120 166 120 168 120 166 118 166 118 164 118 162 120 162 118 162 118 160 118 158 118 160 116 160 118 160 116 160 116 162 116 164 116 166 116 164 114 164 112 164 114 164 114 166 116 166 116 164 118 164 118 162 118 160 118 158 118 160 118 158 118 160 118 162 116 162 116 160 116 158 116 160 116 162 116 160 118 160 118 158 120 158 118 158 116 158 116 160 118 160 118 158 116 158 114 158 114 160 114 162 116 162 118 162 118 164 118 162 120 162 122 162 122 160 120 160 120 158 118 158 120 158 122 158 122 160 122 158 122 160 120 160 120 158 120 160 122 160 124 160 122 160 122 162 120 162 120 164 118 164 118 162 118 164 116 164 116 162 116 164 114 164 116 164 118 164 118 162 116 162 118 162 120 162 120 160 122 160 124 160 124 158 124 156 124 158 124 160 122 160 124 160 126 160 126 158 128 158 126 158 126 156 126 154 128 154 130 154 132 154 132 156 132 158 130 158 132 158 134 158 134 156 134 154 134 152 134 154 134 156 134 154 134 156 132 156 132 154 132 156 132 154 130 154 132 154 134 154 132 154 134 154 134 156 134 158 136 158 138 158 138 156 138 158 138 156 138 158 136 158 136 156 134 156 136 156 136 158 138 158 140 158 140 156 142 156 140 156 138 156 138 158 140 158 142 158 140 158 140 160 140 158 138 158 136 158 138 158 136 158 136 160 136 162 134 162 134 164 134 162 132 162 132 160 132 158 134 158 132 158 134 158 134 156 134 154 136 154 136 152 136 154 134 154 134 152 136 152 138 152 138 150 140 150 142 150 144 150 146 150 146 148 146 146 146 144 148 144 146 144 144 144 144 146 144 144 146 144 144 144 144 146 144 148 142 148 144 148 146 148 144 148 146 148 148 148 148 146 150 146 152 146 150 146 150 144 150 146 152 146 154 146 154 148 154 150 154 148 156 148 156 146 156 144 158 144 158 146 158 144 158 146 158 144 160 144 162 144 162 146 160 146 160 148 160 146 158 146 158 144 160 144 160 142 160 144 160 142 162 142 162 144 164 144 162 144 160 144 160 146 160 148 160 150 160 152 160 150 160 148 162 148 162 146 162 144 162 142 164 142 164 144 166 144 166 146 168 146 166 146 168 146 168 144 166 144 166 142 166 144 164 144 162 144 160 144 158 144 156 144 154 144 154 142 156 142 158 142 160 142 160 140 160 138 158 138 156 138 156 136 156 134 156 132 156 134 154 134 156 134 156 132 156 130 156 128 158 128 160 128 162 128 162 130 164 130 162 130 164 130 162 130 162 132 162 130 160 130 160 128 162 128 164 128 164 130 164 132 162 132 164 132 164 130 164 128 164 126 166 126 166 124 166 126 166 128 164 128 164 126 164 124 166 124 164 124 162 124 160 124 160 126 158 126 160 126 160 128 162 128 160 128 158 128 158 130 158 128 158 126 158 128 156 128 156 130 158 130 160 130 160 128 160 126 158 126 158 128 158 130 160 130 160 132 162 132 162 130 160 130 160 128 160 130 160 132 160 130 158 130 156 130 156 132 156 134 158 134 158 136 158 134 158 136 160 136 158 136 156 136 156 138 158 138 156 138 156 140 156 142 156 140 158 140 158 142 158 140 156 140 154 140 156 140 156 138 156 140 156 142 156 140 158 140 160 140 160 138 160 140 158 140 158 138 158 136 156 136 156 134 156 132 154 132 156 132 156 130 156 132 156 134 158 134 156 134 158 134 158 136 158 138 160 138 160 136 158 136 158 134 160 134 162 134 160 134 160 136 158 136 160 136 160 134 160 136 160 134 160 132 160 134 160 136 160 138 162 138 164 138 166 138 166 140 164 140 162 140 162 138 162 136 160 136 160 134 160 136 160 134 160 136 160 138 162 138 164 138 162 138 162 136 164 136 164 134 162 134 160 134 162 134 162 132 162 134 162 132 162 134 164 134 164 132 164 130 164 132 164 130 162 130 162 132 164 132 162 132 164 132 164 134 162 134 162 132 164 132 164 134 164 136 164 134 164 132 164 134 166 134 166 132 166 134 166 136 168 136 166 136 168 136 168 134 166 134 164 134 162 134 162 132 164 132 162 132 164 132 166 132 164 132 162 132 164 132 164 130 162 130 160 130 162 130 162 128 162 126 160 126 160 128 158 128 160 128 162 128 160 128 160 126 160 128 158 128 158 126 160 126 160 128 160 130 162 130 162 132 160 132 160 130 160 132 158 132 160 132 162 132 164 132 162 132 160 132 162 132 160 132 160 130 160 132 160 134 158 134 158 132 160 132 162 132 162 134 162 132 164 132 166 132 166 134 168 134 170 134 170 132 172 132 172 134 172 136 172 138 172 136 172 134 174 134 174 132 176 132 174 132 174 130 174 132 176 132 176 130 178 130 178 128 176 128 176 130 178 130 176 130 178 130 176 130 176 132 174 132 174 134 176 134 176 132 176 134 176 136 176 138 174 138 176 138 174 138 176 138 174 138 174 136 174 134 174 132 174 134 174 132 172 132 172 134 172 136 172 134 174 134 176 134 176 132 176 134 178 134 176 134 176 136 176 138 176 136 174 136 174 134 172 134 172 132 172 134 172 132 172 134 172 136 170 136 170 134 168 134 168 136 170 136 170 134 168 134 170 134 170 136 168 136 168 138 170 138 172 138 172 140 172 138 174 138 176 138 176 140 178 140 180 140 178 140 178 142 178 140 176 140 178 140 178 142 178 144 178 142 178 144 180 144 180 146 180 148 178 148 178 146 176 146 176 144 176 142 176 144 176 142 176 144 174 144 174 142 172 142 170 142 168 142 170 142 170 144 170 146 170 144 170 142 170 144 172 144 174 144 174 146 174 144 174 142 176 142 174 142 174 144 176 144 176 142 176 140 176 142 176 144 176 142 176 140 176 138 176 140 176 138 176 140 176 138 174 138 174 136 174 134 172 134 172 132 174 132 174 130 172 130 172 132 174 132 174 130 172 130 172 128 174 128 176 128 178 128 180 128 180 126 178 126 176 126 176 124 178 124 178 126 176 126 174 126 176 126 174 126 174 128 174 126 172 126 174 126 172 126 174 126 174 124 174 122 176 122 178 122 178 120 178 118 178 120 178 122 178 120 178 118 176 118 176 116 174 116 174 114 174 112 176 112 174 112 176 112 176 114 174 114 174 112 176 112 178 112 178 110 178 108 178 106 176 106 176 104 174 104 174 102 174 100 172 100 172 102 174 102 174 104 174 106 174 104 176 104 178 104 176 104 178 104 180 104 178 104 180 104 182 104 180 104 180 106 180 108 180 106 178 106 180 106 180 104 180 102 180 100 180 102 182 102 182 100 182 98 182 100 184 100 186 100 188 100 188 102 186 102 184 102 186 102 186 100 186 102 188 102 186 102 186 104 188 104 190 104 188 104 188 106 186 106 188 106 188 108 188 110 188 112 190 112 190 114 190 112 190 114 188 114 190 114 190 116 192 116 194 116 194 118 194 120 192 120 192 118 190 118 190 120 190 122 188 122 190 122 192 122 192 120 190 120 190 122 190 120 188 120 188 122 188 124 188 122 188 120 188 118 188 120 186 120 186 118 186 120 186 122 184 122 182 122 182 124 184 124 184 126 184 128 186 128 186 126 184 126 184 124 186 124 188 124 188 122 186 122 184 122 184 120 182 120 182 122 184 122 184 124 186 124 186 126 188 126 186 126 184 126 184 124 184 122 184 120 184 118 182 118 182 116 180 116 182 116 182 114 180 114 182 114 184 114 182 114 184 114 184 116 184 114 184 112 184 110 184 108 182 108 184 108 182 108 180 108 180 106 178 106 176 106 178 106 178 108 178 106 178 108 180 108 180 110 182 110 182 108 184 108 186 108 184 108 182 108 180 108 182 108 182 106 182 104 182 106 184 106 184 104 182 104 182 106 182 104 184 104 186 104 184 104 186 104 184 104 186 104 186 102 186 100 186 102 186 104 184 104 182 104 182 102 184 102 182 102 182 100 184 100 186 100 186 98 186 100 188 100 188 98 190 98 190 100 190 98 190 100 190 102 192 102 190 102 192 102 190 102 192 102 192 104 194 104 194 106 194 108 194 106 194 104 194 102 196 102 196 100 194 100 194 98 194 100 192 100 194 100 192 100 194 100 194 98 196 98 194 98 196 98 196 96 196 94 196 96 194 96 194 94 192 94 192 96 190 96 188 96 188 98 186 98 184 98 184 96 186 96 186 94 184 94 184 92 184 94 184 92 184 94 184 96 186 96 186 98 186 96 186 98 186 96 188 96 186 96 188 96 188 98 188 100 190 100 188 100 186 100 186 98 184 98 186 98 188 98 190 98 190 96 188 96 188 94 186 94 188 94 186 94 188 94 188 96 188 98 188 96 188 98 190 98 190 96 192 96 190 96 188 96 188 98 188 96 190 96 188 96 188 94 190 94 190 96 190 94 190 92 188 92 190 92 188 92 190 92 188 92 186 92 188 92 188 90 190 90 192 90 190 90 190 88 188 88 188 86 186 86 186 88 188 88 190 88 192 88 194 88 196 88 196 90 196 92 194 92 192 92 192 90 190 90 190 88 188 88 190 88 190 86 188 86 188 88 186 88 186 86 188 86 186 86 188 86 188 84 190 84 192 84 194 84 194 86 194 88 196 88 196 90 196 88 196 86 198 86 198 84 196 84 198 84 196 84 196 86 196 88 196 86 194 86 196 86 194 86 194 84 196 84 194 84 194 86 196 86 194 86 194 88 192 88 192 86 192 88 190 88 192 88 192 86 194 86 194 84 194 82 194 84 192 84 192 86 192 88 194 88 196 88 198 88 198 86 200 86 200 84 202 84 202 82 202 80 202 82 204 82 202 82 202 84 202 82 200 82 200 80 202 80 200 80 200 78 198 78 198 80 200 80 200 78 200 76 202 76 204 76 204 74 202 74 204 74 204 76 204 74 204 76 204 74 204 76 204 78 206 78 206 76 206 78 206 80 204 80 202 80 204 80 204 78 206 78 206 80 204 80 206 80 206 78 206 76 208 76 208 78 210 78 212 78 212 76 210 76 212 76 212 74 214 74 216 74 214 74 216 74 218 74 220 74 220 72 218 72 218 74 220 74 218 74 220 74 220 72 218 72 218 74 220 74 222 74 222 72 224 72 222 72 222 74 224 74 224 72 226 72 224 72 224 70 224 68 226 68 224 68 222 68 224 68 224 66 224 64 224 62 224 60 226 60 226 58 226 56 224 56 222 56 224 56 224 58 224 60 222 60 224 60 226 60 228 60 230 60 228 60 230 60 228 60 228 62 228 64 230 64 228 64 226 64 228 64 226 64 224 64 222 64 222 66 224 66 226 66 226 68 228 68 228 70 230 70 228 70 230 70 232 70 232 68 232 70 230 70 230 72 232 72 232 74 232 72 232 70 232 72 234 72 236 72 238 72 240 72 242 72 242 74 240 74 240 76 240 74 240 76 242 76 244 76 242 76 244 76 244 74 246 74 246 72 246 70 246 68 244 68 246 68 248 68 248 66 250 66 252 66 252 68 250 68 252 68 252 70 252 68 254 68 254 66 254 68 254 66 254 64 254 66 252 66 252 68 250 68 250 70 250 68 250 70 250 68 252 68 250 68 250 70 252 70 250 70 248 70 250 70 248 70 246 70 248 70 248 68 248 66 246 66 246 64 244 64 242 64 240 64 238 64 238 62 236 62 236 64 236 62 238 62 238 60 236 60 236 62 238 62 236 62 236 64 236 66 234 66 236 66 234 66 236 66 236 64 234 64 236 64 236 62 236 60 236 62 236 64 236 62 236 60 234 60 236 60 236 58 236 60 236 58 234 58 234 60 234 62 234 64 232 64 232 66 232 68 230 68 232 68 232 70 232 68 230 68 230 66 230 64 232 64 232 62 232 64 234 64 232 64 232 62 234 62 232 62 230 62 232 62 230 62 228 62 226 62 226 60 224 60 224 58 224 56 224 58 226 58 228 58 226 58 226 60 226 58 226 60 226 58 224 58 222 58 220 58 218 58 218 60 218 58 218 56 218 54 220 54 220 52 222 52 222 54 222 52 220 52 220 54 218 54 218 56 218 54 220 54 220 52 220 54 220 56 222 56 224 56 222 56 220 56 220 54 220 56 220 54 220 56 218 56 218 54 220 54 222 54 220 54 218 54 216 54 214 54 216 54 214 54 214 52 216 52 216 54 218 54 218 56 218 54 216 54 214 54 214 52 214 54 214 56 214 54 214 52 214 50 214 52 214 54 214 56 212 56 214 56 214 58 214 60 212 60 214 60 212 60 212 58 210 58 210 60 210 62 210 60 210 62 212 62 212 60 212 58 214 58 216 58 216 60 214 60 212 60 212 62 212 64 210 64 210 62 210 64 210 62 212 62 212 60 214 60 214 58 214 60 214 62 214 64 216 64 218 64 218 62 220 62 218 62 216 62 216 60 216 62 216 64 216 62 218 62 220 62 218 62 218 64 218 66 220 66 218 66 220 66 220 68 220 66 220 68 218 68 218 70 220 70 220 72 222 72 222 70 222 72 222 70 220 70 220 72 220 70 222 70 222 72 222 74 220 74 220 76 218 76 220 76 220 74 218 74 216 74 216 72 216 70 216 68 218 68 218 70 218 72 218 70 216 70 214 70 214 68 212 68 214 68 214 66 214 68 212 68 212 70 212 72 214 72 214 74 216 74 216 72 214 72 216 72 216 74 216 76 216 74 214 74 214 76 216 76 214 76 212 76 212 74 210 74 208 74 208 76 206 76 206 78 204 78 204 80 202 80 202 78 202 80 202 82 202 84 204 84 206 84 206 86 206 88 204 88 206 88 206 86 206 84 208 84 206 84 208 84 210 84 208 84 208 86 206 86 206 84 206 82 206 80 206 82 208 82 208 80 210 80 210 78 210 80 210 78 208 78 208 76 208 78 206 78 206 76 208 76 208 78 210 78 210 76 212 76 210 76 210 74 208 74 208 76 206 76 204 76 202 76 202 78 202 80 200 80 200 82 200 80 202 80 200 80 202 80 200 80 202 80 202 78 204 78 204 76 204 78 202 78 202 76 202 74 204 74 202 74 202 72 202 74 202 72 202 70 202 68 200 68 200 66 202 66 202 64 202 62 202 64 202 62 202 60 202 58 202 56 202 58 200 58 202 58 200 58 202 58 202 60 202 58 200 58 200 60 200 58 198 58 196 58 194 58 192 58 192 60 194 60 194 58 192 58 194 58 194 60 194 58 194 60 192 60 192 58 192 60 192 62 192 60 192 58 192 56 192 58 192 60 190 60 190 58 192 58 190 58 192 58 190 58 190 60 190 62 192 62 194 62 194 60 194 62 192 62 194 62 194 60 192 60 192 62 190 62 190 64 190 62 192 62 192 64 192 62 194 62 194 60 196 60 196 58 196 60 196 58 194 58 192 58 192 56 190 56 190 54 188 54 190 54 190 56 190 58 188 58 188 56 190 56 192 56 192 58 192 60 194 60 192 60 190 60 188 60 190 60 192 60 192 62 190 62 190 60 190 62 190 64 190 66 190 64 190 66 190 64 190 66 190 64 190 62 190 60 188 60 186 60 184 60 184 62 184 64 184 66 184 68 184 70 184 72 184 70 186 70 186 68 184 68 184 66 184 68 186 68 186 70 188 70 186 70 186 68 188 68 188 66 188 68 188 66 186 66 186 64 188 64 188 66 190 66 188 66 188 68 186 68 184 68 184 70 184 72 182 72 182 70 180 70 180 68 180 70 180 68 182 68 180 68 178 68 176 68 176 66 176 68 176 70 176 72 174 72 174 74 174 72 174 70 174 72 172 72 174 72 172 72 174 72 176 72 176 70 176 68 176 66 176 68 178 68 176 68 178 68 176 68 178 68 180 68 180 66 182 66 184 66 184 68 184 66 186 66 186 68 186 70 184 70 184 72 182 72 182 74 180 74 180 72 178 72 180 72 180 70 178 70 178 72 176 72 174 72 172 72 170 72 170 74 170 72 170 70 172 70 170 70 172 70 170 70 168 70 170 70 168 70 170 70 170 68 170 70 172 70 170 70 170 72 170 70 170 68 168 68 168 66 168 64 166 64 166 62 166 64 166 66 166 68 166 66 168 66 170 66 170 64 168 64 170 64 170 66 172 66 172 68 172 70 174 70 176 70 176 72 174 72 176 72 178 72 176 72 178 72 178 74 178 76 178 78 178 80 178 82 176 82 174 82 174 84 176 84 178 84 178 82 178 80 180 80 182 80 180 80 178 80 178 82 178 80 178 78 178 80 178 78 178 76 180 76 180 78 182 78 182 80 184 80 186 80 186 78 184 78 186 78 184 78 184 80 184 78 184 76 184 78 186 78 186 80 188 80 188 82 190 82 192 82 194 82 194 80 196 80 198 80 198 78 196 78 196 80 194 80 194 78 196 78 194 78 194 80 194 78 194 80 194 82 194 84 196 84 196 82 194 82 194 84 192 84 194 84 194 82 194 84 192 84 190 84 192 84 194 84 192 84 190 84 188 84 188 86 188 84 186 84 188 84 190 84 188 84 186 84 184 84 186 84 186 86 188 86 186 86 186 84 184 84 182 84 182 82 182 80 184 80 184 82 184 84 184 86 184 84 182 84 184 84 184 82 184 84 184 82 184 84 182 84 182 82 182 84 180 84 180 86 180 88 180 90 178 90 180 90 180 88 180 90 180 92 180 90 182 90 182 88 182 86 180 86 180 84 180 82 180 80 178 80 178 78 180 78 180 80 180 82 182 82 182 84 182 82 182 84 182 82 182 80 184 80 186 80 186 78 186 76 188 76 186 76 186 74 186 76 186 74 186 72 184 72 186 72 186 74 184 74 186 74 186 76 184 76 184 74 186 74 186 76 184 76 184 74 184 76 186 76 188 76 188 74 186 74 186 72 188 72 186 72 184 72 186 72 186 74 188 74 186 74 186 76 186 74 188 74 188 72 188 70 190 70 190 68 190 66 188 66 186 66 188 66 188 64 188 66 188 64 188 66 186 66 186 64 186 66 184 66 186 66 188 66 190 66 188 66 188 68 190 68 190 70 190 68 188 68 188 70 188 72 188 74 188 76 186 76 184 76 186 76 184 76 184 74 182 74 182 72 182 74 184 74 186 74 188 74 190 74 188 74 188 72 188 74 190 74 192 74 190 74 190 72 190 74 190 76 190 74 190 72 192 72 192 74 194 74 192 74 192 72 192 70 192 68 192 66 192 64 192 66 194 66 192 66 194 66 196 66 196 68 196 70 196 68 196 66 196 68 198 68 196 68 196 66 196 68 196 70 196 72 194 72 196 72 196 74 196 72 198 72 196 72 196 74 194 74 192 74 192 76 192 78 192 80 194 80 194 82 192 82 192 80 190 80 190 82 192 82 190 82 190 80 190 78 190 76 190 74 190 72 188 72 188 70 188 72 186 72 186 74 186 76 186 74 184 74 184 72 182 72 180 72 180 74 182 74 182 72 182 70 182 72 180 72 182 72 182 70 184 70 186 70 186 72 184 72 182 72 184 72 186 72 184 72 186 72 186 74 186 72 186 74 186 72 184 72 184 70 186 70 188 70 188 72 188 70 188 68 188 70 188 68 190 68 192 68 192 66 192 64 192 66 190 66 190 68 192 68 192 70 194 70 196 70 196 72 194 72 196 72 196 74 196 76 196 78 196 80 196 82 196 84 198 84 200 84 202 84 200 84 202 84 202 86 200 86 200 88 200 90 198 90 198 92 200 92 202 92 204 92 204 90 206 90 206 88 204 88 206 88 206 86 206 84 204 84 204 86 204 88 204 86 204 88 206 88 206 86 208 86 208 84 208 82 206 82 206 80 208 80 208 78 208 76 208 78 208 76 206 76 206 74 206 76 208 76 208 74 208 72 208 70 208 68 210 68 210 66 210 68 210 70 210 68 208 68 206 68 206 70 206 72 206 70 206 68 206 66 208 66 206 66 208 66 208 64 208 62 206 62 206 60 204 60 206 60 204 60 202 60 202 62 202 60 204 60 204 62 206 62 206 60 204 60 204 58 204 56 202 56 200 56 200 58 202 58 202 60 202 58 202 56 200 56 200 58 200 60 200 62 202 62 204 62 206 62 204 62 204 64 206 64 204 64 204 62 202 62 202 60 200 60 202 60 200 60 200 58 198 58 200 58 200 60 200 62 200 64 200 62 202 62 200 62 202 62 204 62 206 62 206 64 208 64 206 64 204 64 204 66 202 66 204 66 206 66 206 64 206 66 206 64 204 64 204 62 202 62 202 64 202 66 202 64 202 62 200 62 200 60 202 60 204 60 204 62 204 60 204 62 204 60 206 60 206 62 208 62 208 64 208 66 206 66 206 68 206 66 206 64 206 62 206 60 208 60 210 60 210 62 210 64 208 64 208 62 210 62 210 60 210 62 210 64 208 64 208 62 208 64 206 64 204 64 204 62 206 62 204 62 202 62 202 64 200 64 202 64 204 64 206 64 206 62 208 62 208 64 206 64 206 66 208 66 208 64 206 64 206 66 206 64 206 66 208 66 210 66 210 68 210 66 212 66 214 66 212 66 210 66 210 68 212 68 210 68 208 68 210 68 208 68 208 66 208 68 208 66 208 64 208 62 210 62 208 62 208 60 206 60 208 60 208 62 206 62 208 62 206 62 204 62 204 60 204 62 206 62 204 62 204 60 204 58 204 60 204 58 206 58 206 60 206 62 204 62 204 60 206 60 206 58 204 58 204 60 204 62 206 62 206 60 206 58 204 58 206 58 206 60 208 60 208 58 208 60 208 62 210 62 212 62 214 62 212 62 214 62 212 62 212 64 210 64 210 66 212 66 212 64 212 66 212 68 214 68 212 68 210 68 210 66 208 66 208 64 210 64 212 64 210 64 208 64 208 66 206 66 206 68 206 70 204 70 204 72 206 72 208 72 208 74 208 72 208 74 208 72 210 72 210 74 210 76 208 76 206 76 206 78 204 78 204 76 202 76 202 78 204 78 204 80 204 78 206 78 208 78 208 80 206 80 208 80 206 80 206 82 206 84 206 86 206 88 204 88 206 88 206 86 206 84 206 86 206 88 206 90 204 90 204 92 206 92 206 94 206 92 208 92 210 92 210 90 210 88 212 88 212 90 212 92 212 94 212 92 212 90 210 90 210 92 210 94 212 94 214 94 214 96 214 98 214 96 214 98 214 100 212 100 214 100 216 100 216 98 216 100 218 100 216 100 216 102 216 100 216 102 214 102 212 102 212 104 214 104 216 104 216 102 218 102 220 102 222 102 222 104 220 104 218 104 218 106 220 106 220 108 220 110 222 110 222 108 220 108 220 110 222 110 222 108 220 108 222 108 222 106 222 108 222 106 220 106 218 106 218 108 220 108 220 106 220 104 218 104 218 102 220 102 220 100 220 102 222 102 224 102 226 102 224 102 226 102 226 104 226 106 226 108 228 108 226 108 228 108 228 110 228 108 228 106 228 108 228 106 228 104 230 104 230 106 232 106 232 108 234 108 232 108 232 106 230 106 230 104 230 106 230 108 230 106 230 104 230 106 230 108 232 108 232 106 232 104 232 106 232 108 232 106 230 106 230 104 230 102 228 102 226 102 226 104 224 104 224 102 224 100 224 98 222 98 222 100 224 100 224 102 224 100 224 98 224 100 222 100 222 98 222 100 222 98 222 96 224 96 224 94 226 94 226 96 226 94 226 92 224 92 224 90 222 90 222 88 224 88 222 88 224 88 224 86 226 86 226 84 226 82 224 82 224 84 224 82 226 82 224 82 226 82 224 82 224 80 224 78 222 78 220 78 220 76 218 76 216 76 216 74 214 74 214 76 214 74 216 74 216 76 218 76 216 76 216 78 216 80 218 80 220 80 220 82 220 80 220 78 220 80 222 80 220 80 220 82 220 80 220 78 218 78 218 76 218 74 218 76 216 76 216 78 216 76 214 76 214 74 214 76 214 74 212 74 212 72 212 74 212 72 212 74 210 74 212 74 214 74 212 74 212 76 214 76 216 76 214 76 214 78 212 78 212 80 214 80 216 80 216 78 214 78 214 80 216 80 218 80 218 78 218 80 216 80 218 80 216 80 216 78 216 76 218 76 218 74 216 74 216 72 216 74 218 74 220 74 220 76 220 74 220 72 222 72 222 70 220 70 220 72 218 72 216 72 218 72 220 72 220 74 218 74 220 74 220 76 218 76 216 76 218 76 218 74 218 76 218 74 218 72 218 70 218 68 218 70 218 68 216 68 216 66 218 66 216 66 216 68 214 68 214 66 214 68 212 68 214 68 216 68 216 70 218 70 218 72 216 72 218 72 218 70 220 70 222 70 222 68 222 66 220 66 220 68 218 68 218 66 216 66 216 68 216 66 216 68 218 68 218 70 218 68 220 68 220 66 222 66 222 64 222 66 224 66 224 64 222 64 220 64 218 64 218 62 218 64 218 62 216 62 214 62 214 64 214 66 214 68 216 68 214 68 214 70 216 70 216 68 218 68 216 68 216 66 216 68 216 66 214 66 216 66 216 68 218 68 220 68 220 70 220 68 218 68 218 66 216 66 216 64 216 66 214 66 214 64 212 64 212 66 212 64 212 62 210 62 210 60 208 60 208 58 208 56 206 56 206 58 208 58 206 58 206 60 208 60 208 58 206 58 208 58 210 58 210 56 210 54 208 54 210 54 210 56 210 54 210 52 210 54 208 54 210 54 210 56 210 58 210 56 210 58 210 56 208 56 206 56 206 54 204 54 206 54 204 54 202 54 202 52 204 52 204 50 206 50 206 48 206 50 208 50 206 50 206 52 208 52 208 50 210 50 210 52 208 52 210 52 212 52 214 52 212 52 210 52 212 52 210 52 212 52 212 54 212 52 214 52 216 52 216 54 214 54 214 52 216 52 214 52 212 52 212 50 214 50 212 50 214 50 214 48 212 48 212 50 212 52 212 54 214 54 214 52 214 50 214 48 214 46 214 48 214 46 214 44 212 44 210 44 210 42 210 44 210 46 212 46 210 46 210 48 208 48 208 46 210 46 210 44 210 42 210 40 210 42 210 40 210 42 210 44 210 46 210 48 210 50 212 50 210 50 208 50 210 50 208 50 206 50 206 48 206 46 208 46 206 46 206 48 206 46 206 44 204 44 206 44 204 44 204 42 202 42 200 42 198 42 198 40 200 40 198 40 200 40 202 40 204 40 202 40 204 40 204 42 204 40 204 38 202 38 202 40 202 38 202 36 204 36 204 38 204 40 206 40 208 40 208 38 208 36 208 34 208 32 208 34 208 32 206 32 206 34 208 34 208 32 206 32 206 34 208 34 206 34 206 36 206 38 208 38 206 38 208 38 206 38 206 36 206 34 208 34 206 34 208 34 210 34 212 34 212 32 212 30 212 32 212 30 214 30 214 32 212 32 214 32 214 30 214 32 216 32 214 32 214 34 214 32 214 30 212 30 210 30 212 30 210 30 210 32 210 34 208 34 206 34 206 32 206 30 208 30 206 30 204 30 204 28 204 30 204 32 202 32 204 32 204 30 204 28 204 30 202 30 202 28 200 28 202 28 202 30 202 32 202 30 204 30 206 30 204 30 204 28 202 28 200 28 200 26 202 26 202 24 200 24 202 24 200 24 202 24 200 24 200 26 200 24 200 22 200 24 200 26 200 24 200 22 202 22 200 22 202 22 202 20 204 20 204 18 202 18 202 16 204 16 206 16 206 14 206 12 206 14 206 12 208 12 208 10 208 8 206 8 208 8 208 6 210 6 210 8 208 8 206 8 206 6 208 6 208 4 208 6 206 6 208 6 208 4 208 6 206 6 206 4 208 4 206 4 206 2 206 0 204 0 202 0 202 -2 204 -2 206 -2 208 -2 206 -2 208 -2 206 -2 206 0 206 2 206 4 204 4 202 4 200 4 198 4 198 2 200 2 200 0 200 -2 198 -2 198 -4 198 -6 198 -4 200 -4 198 -4 198 -6 198 -4 196 -4 198 -4 200 -4 200 -6 198 -6 196 -6 194 -6 196 -6 198 -6 198 -8 196 -8 198 -8 200 -8 198 -8 196 -8 196 -10 196 -12 198 -12 196 -12 196 -10 198 -10 200 -10 200 -12 198 -12 198 -14 196 -14 196 -12 194 -12 196 -12 196 -10 196 -8 194 -8 194 -10 194 -12 194 -10 192 -10 192 -12 194 -12 194 -14 194 -16 192 -16 190 -16 190 -14 190 -12 190 -14 190 -16 188 -16 188 -18 186 -18 186 -16 186 -18 188 -18 188 -20 188 -18 186 -18 186 -16 186 -14 188 -14 188 -16 188 -14 188 -16 190 -16 190 -18 188 -18 190 -18 190 -16 190 -14 188 -14 190 -14 188 -14 188 -16 188 -14 188 -12 190 -12 192 -12 194 -12 194 -14 194 -12 194 -10 196 -10 196 -12 196 -14 198 -14 200 -14 200 -16 200 -18 200 -16 200 -18 202 -18 202 -20 202 -22 204 -22 206 -22 208 -22 208 -24 206 -24 204 -24 206 -24 206 -26 206 -28 206 -26 206 -28 206 -30 206 -28 204 -28 206 -28 206 -30 204 -30 202 -30 204 -30 202 -30 204 -30 204 -32 204 -34 204 -32 202 -32 202 -34 202 -36 202 -34 204 -34 204 -32 202 -32 204 -32 202 -32 204 -32 202 -32 202 -34 200 -34 200 -32 202 -32 200 -32 198 -32 198 -34 198 -36 200 -36 198 -36 198 -34 200 -34 200 -36 200 -34 200 -36 202 -36 202 -38 200 -38 200 -36 198 -36 200 -36 200 -38 200 -36 200 -34 200 -36 200 -34 200 -32 198 -32 198 -34 198 -32 198 -30 198 -28 198 -26 196 -26 196 -24 196 -22 198 -22 198 -24 198 -26 198 -28 200 -28 198 -28 198 -26 200 -26 200 -28 202 -28 204 -28 204 -26 204 -24 202 -24 202 -26 202 -24 204 -24 206 -24 204 -24 202 -24 200 -24 200 -22 198 -22 198 -20 196 -20 198 -20 198 -18 198 -20 196 -20 196 -22 196 -24 196 -26 196 -24 196 -22 194 -22 196 -22 196 -20 194 -20 192 -20 190 -20 190 -18 192 -18 190 -18 188 -18 188 -16 186 -16 186 -14 186 -12 186 -14 186 -12 184 -12 186 -12 186 -10 188 -10 188 -12 188 -10 186 -10 186 -8 186 -6 184 -6 184 -4 184 -2 184 0 184 2 184 4 184 2 184 4 184 2 186 2 188 2 190 2 190 4 192 4 192 6 192 4 194 4 194 6 194 8 196 8 196 6 196 8 196 6 196 8 196 10 196 12 196 10 198 10 198 8 198 10 198 8 200 8 198 8 198 10 200 10 198 10 198 12 198 14 196 14 194 14 192 14 192 12 192 10 192 12 192 14 194 14 194 16 194 18 196 18 196 16 194 16 196 16 198 16 198 14 196 14 194 14 192 14 190 14 190 16 190 14 190 16 192 16 192 18 192 20 190 20 190 18 190 20 188 20 190 20 188 20 186 20 188 20 186 20 188 20 186 20 188 20 188 18 188 20 188 22 188 24 188 22 188 24 190 24 190 26 192 26 192 24 192 22 190 22 188 22 188 24 188 22 190 22 188 22 190 22 188 22 190 22 190 20 190 18 190 16 190 18 188 18 188 16 188 18 190 18 190 16 190 14 188 14 188 16 188 18 190 18 188 18 188 20 190 20 190 18 190 20 192 20 192 18 192 16 192 18 192 16 194 16 196 16 194 16 192 16 192 18 194 18 194 20 196 20 194 20 194 22 194 20 194 18 194 16 194 14 194 16 194 14 194 16 196 16 196 18 198 18 200 18 202 18 204 18 204 20 204 22 204 20 204 22 204 20 204 18 202 18 204 18 206 18 208 18 206 18 204 18 204 20 204 18 204 16 204 18 206 18 204 18 206 18 206 20 208 20 208 22 208 24 208 22 208 20 208 18 208 16 208 14 206 14 208 14 210 14 212 14 214 14 216 14 216 12 216 10 216 8 216 6 216 8 216 6 218 6 216 6 218 6 220 6 218 6 218 4 218 2 218 4 220 4 218 4 220 4 222 4 224 4 224 2 222 2 220 2 220 0 220 -2 218 -2 216 -2 218 -2 216 -2 218 -2 218 0 216 0 218 0 218 2 218 0 218 2 218 0 218 -2 216 -2 216 0 216 -2 216 0 214 0 216 0 216 2 218 2 218 0 218 2 216 2 216 4 218 4 218 2 220 2 218 2 218 4 216 4 214 4 216 4 218 4 218 6 218 8 218 6 220 6 220 4 222 4 224 4 224 2 224 4 224 6 224 4 226 4 226 2 224 2 222 2 222 4 222 6 222 8 220 8 218 8 216 8 216 10 218 10 218 12 216 12 216 10 216 8 214 8 212 8 212 6 214 6 212 6 212 8 212 6 214 6 212 6 212 4 214 4 216 4 218 4 218 6 218 8 218 10 220 10 218 10 216 10 214 10 214 8 216 8 216 6 216 8 218 8 220 8 220 6 222 6 222 4 222 6 220 6 220 4 220 2 218 2 218 4 220 4 220 6 218 6 218 8 216 8 216 10 216 12 214 12 216 12 216 14 214 14 216 14 216 12 218 12 218 10 218 8 220 8 220 10 220 8 220 10 220 12 220 10 220 8 218 8 218 10 216 10 216 12 216 14 214 14 212 14 210 14 210 16 210 14 212 14 212 12 212 10 212 8 212 6 212 4 212 6 214 6 214 4 212 4 212 6 212 8 214 8 212 8 212 6 210 6 212 6 214 6 212 6 212 8 214 8 216 8 214 8 216 8 214 8 212 8 210 8 210 6 210 4 212 4 214 4 212 4 210 4 208 4 206 4 204 4 202 4 202 2 200 2 198 2 198 0 196 0 198 0 198 2 200 2 198 2 196 2 196 4 196 2 196 0 198 0 198 -2 196 -2 194 -2 192 -2 190 -2 188 -2 186 -2 184 -2 182 -2 182 0 184 0 182 0 180 0 182 0 180 0 182 0 180 0 180 -2 180 0 180 2 178 2 180 2 180 0 178 0 178 2 180 2 182 2 182 4 180 4 178 4 176 4 174 4 176 4 178 4 180 4 180 6 178 6 180 6 180 4 178 4 178 2 178 4 176 4 174 4 174 6 174 4 174 6 174 4 172 4 170 4 172 4 170 4 168 4 168 6 166 6 166 4 168 4 168 6 168 4 166 4 164 4 166 4 168 4 170 4 168 4 170 4 168 4 168 2 166 2 168 2 170 2 168 2 168 0 166 0 166 2 168 2 168 0 166 0 168 0 168 -2 168 -4 168 -6 166 -6 168 -6 168 -4 166 -4 166 -6 166 -8 166 -6 166 -4 166 -6 166 -8 164 -8 166 -8 166 -6 166 -8 164 -8 166 -8 166 -6 168 -6 168 -8 170 -8 170 -10 170 -12 170 -14 168 -14 170 -14 172 -14 172 -16 170 -16 170 -18 170 -16 170 -18 170 -20 168 -20 168 -22 168 -24 166 -24 168 -24 168 -26 166 -26 166 -28 166 -26" stroke="black" stroke-width="0.2" fill="transparent" />
    </g> 
</svg>