<?xml version='1.0' encoding='UTF-8' standalone='no'?>
<svg width="270" height="270" xmlns="http://www.w3.org/2000/svg">
  <g opacity="1.0">
    <circle cx="20" cy="20" r="20" fill="#41CEB6"/>
    <circle cx="13.4" cy="13.200000000000001" r="3.2" fill="#333333"/>
    <circle cx="26.6" cy="13.200000000000001" r="3.2" fill="#333333"/>
    <path d="M 8.0 21.0 C 12.0 35.6, 28.0 35.6, 32.0 21.0" stroke="black" stroke-width="2.2" fill="transparent"/>
    <circle cx="8.0" cy="21.0" r="1.1" fill="black"/>
    <circle cx="32.0" cy="21.0" r="1.1" fill="black"/>
    <circle cx="65" cy="20" r="20" fill="#67F415"/>
    <circle cx="58.4" cy="13.200000000000001" r="3.2" fill="#333333"/>
    <circle cx="71.6" cy="13.200000000000001" r="3.2" fill="#333333"/>
    <path d="M 53.0 21.0 C 57.0 35.6, 73.0 35.6, 77.0 21.0" stroke="black" stroke-width="2.2" fill="transparent"/>
    <circle cx="53.0" cy="21.0" r="1.1" fill="black"/>
    <circle cx="77.0" cy="21.0" r="1.1" fill="black"/>
    <circle cx="110" cy="20" r="20" fill="#F134ED"/>
    <circle cx="103.4" cy="13.200000000000001" r="3.2" fill="#333333"/>
    <circle cx="116.6" cy="13.200000000000001" r="3.2" fill="#333333"/>
    <path d="M 98.0 21.0 C 102.0 35.6, 118.0 35.6, 122.0 21.0" stroke="black" stroke-width="2.2" fill="transparent"/>
    <circle cx="98.0" cy="21.0" r="1.1" fill="black"/>
    <circle cx="122.0" cy="21.0" r="1.1" fill="black"/>
    <circle cx="155" cy="20" r="20" fill="#0B892D"/>
    <circle cx="148.4" cy="13.200000000000001" r="3.2" fill="#333333"/>
    <circle cx="161.6" cy="13.200000000000001" r="3.2" fill="#333333"/>
    <path d="M 143.0 21.0 C 147.0 35.6, 163.0 35.6, 167.0 21.0" stroke="black" stroke-width="2.2" fill="transparent"/>
    <circle cx="143.0" cy="21.0" r="1.1" fill="black"/>
    <circle cx="167.0" cy="21.0" r="1.1" fill="black"/>
    <circle cx="200" cy="20" r="20" fill="#3FA746"/>
    <circle cx="193.4" cy="13.200000000000001" r="3.2" fill="#333333"/>
    <circle cx="206.6" cy="13.200000000000001" r="3.2" fill="#333333"/>
    <path d="M 188.0 21.0 C 192.0 35.6, 208.0 35.6, 212.0 21.0" stroke="black" stroke-width="2.2" fill="transparent"/>
    <circle cx="188.0" cy="21.0" r="1.1" fill="black"/>
    <circle cx="212.0" cy="21.0" r="1.1" fill="black"/>
    <circle cx="245" cy="20" r="20" fill="#AB3096"/>
    <circle cx="238.4" cy="13.200000000000001" r="3.2" fill="#333333"/>
    <circle cx="251.6" cy="13.200000000000001" r="3.2" fill="#333333"/>
    <path d="M 233.0 21.0 C 237.0 35.6, 253.0 35.6, 257.0 21.0" stroke="black" stroke-width="2.2" fill="transparent"/>
    <circle cx="233.0" cy="21.0" r="1.1" fill="black"/>
    <circle cx="257.0" cy="21.0" r="1.1" fill="black"/>
    <circle cx="20" cy="65" r="20" fill="#13FA4C"/>
    <circle cx="13.4" cy="58.2" r="3.2" fill="#333333"/>
    <circle cx="26.6" cy="58.2" r="3.2" fill="#333333"/>
    <path d="M 8.0 66.0 C 12.0 80.6, 28.0 80.6, 32.0 66.0" stroke="black" stroke-width="2.2" fill="transparent"/>
    <circle cx="8.0" cy="66.0" r="1.1" fill="black"/>
    <circle cx="32.0" cy="66.0" r="1.1" fill="black"/>
    <circle cx="65" cy="65" r="20" fill="#F8325B"/>
    <circle cx="58.4" cy="58.2" r="3.2" fill="#333333"/>
    <circle cx="71.6" cy="58.2" r="3.2" fill="#333333"/>
    <path d="M 53.0 66.0 C 57.0 80.6, 73.0 80.6, 77.0 66.0" stroke="black" stroke-width="2.2" fill="transparent"/>
    <circle cx="53.0" cy="66.0" r="1.1" fill="black"/>
    <circle cx="77.0" cy="66.0" r="1.1" fill="black"/>
    <circle cx="110" cy="65" r="20" fill="#D3F7B5"/>
    <circle cx="103.4" cy="58.2" r="3.2" fill="#333333"/>
    <circle cx="116.6" cy="58.2" r="3.2" fill="#333333"/>
    <path d="M 98.0 66.0 C 102.0 80.6, 118.0 80.6, 122.0 66.0" stroke="black" stroke-width="2.2" fill="transparent"/>
    <circle cx="98.0" cy="66.0" r="1.1" fill="black"/>
    <circle cx="122.0" cy="66.0" r="1.1" fill="black"/>
    <circle cx="155" cy="65" r="20" fill="#731A9D"/>
    <circle cx="148.4" cy="58.2" r="3.2" fill="#333333"/>
    <circle cx="161.6" cy="58.2" r="3.2" fill="#333333"/>
    <path d="M 143.0 66.0 C 147.0 80.6, 163.0 80.6, 167.0 66.0" stroke="black" stroke-width="2.2" fill="transparent"/>
    <circle cx="143.0" cy="66.0" r="1.1" fill="black"/>
    <circle cx="167.0" cy="66.0" r="1.1" fill="black"/>
    <circle cx="200" cy="65" r="20" fill="#BD2CEA"/>
    <circle cx="193.4" cy="58.2" r="3.2" fill="#333333"/>
    <circle cx="206.6" cy="58.2" r="3.2" fill="#333333"/>
    <path d="M 188.0 66.0 C 192.0 80.6, 208.0 80.6, 212.0 66.0" stroke="black" stroke-width="2.2" fill="transparent"/>
    <circle cx="188.0" cy="66.0" r="1.1" fill="black"/>
    <circle cx="212.0" cy="66.0" r="1.1" fill="black"/>
    <circle cx="245" cy="65" r="20" fill="#C16A54"/>
    <circle cx="238.4" cy="58.2" r="3.2" fill="#333333"/>
    <circle cx="251.6" cy="58.2" r="3.2" fill="#333333"/>
    <path d="M 233.0 66.0 C 237.0 80.6, 253.0 80.6, 257.0 66.0" stroke="black" stroke-width="2.2" fill="transparent"/>
    <circle cx="233.0" cy="66.0" r="1.1" fill="black"/>
    <circle cx="257.0" cy="66.0" r="1.1" fill="black"/>
    <circle cx="20" cy="110" r="20" fill="#BE64D2"/>
    <circle cx="13.4" cy="103.2" r="3.2" fill="#333333"/>
    <circle cx="26.6" cy="103.2" r="3.2" fill="#333333"/>
    <path d="M 8.0 111.0 C 12.0 125.6, 28.0 125.6, 32.0 111.0" stroke="black" stroke-width="2.2" fill="transparent"/>
    <circle cx="8.0" cy="111.0" r="1.1" fill="black"/>
    <circle cx="32.0" cy="111.0" r="1.1" fill="black"/>
    <circle cx="65" cy="110" r="20" fill="#F9386A"/>
    <circle cx="58.4" cy="103.2" r="3.2" fill="#333333"/>
    <circle cx="71.6" cy="103.2" r="3.2" fill="#333333"/>
    <path d="M 53.0 111.0 C 57.0 125.6, 73.0 125.6, 77.0 111.0" stroke="black" stroke-width="2.2" fill="transparent"/>
    <circle cx="53.0" cy="111.0" r="1.1" fill="black"/>
    <circle cx="77.0" cy="111.0" r="1.1" fill="black"/>
    <circle cx="110" cy="110" r="20" fill="#48AFB3"/>
    <circle cx="103.4" cy="103.2" r="3.2" fill="#333333"/>
    <circle cx="116.6" cy="103.2" r="3.2" fill="#333333"/>
    <path d="M 98.0 111.0 C 102.0 125.6, 118.0 125.6, 122.0 111.0" stroke="black" stroke-width="2.2" fill="transparent"/>
    <circle cx="98.0" cy="111.0" r="1.1" fill="black"/>
    <circle cx="122.0" cy="111.0" r="1.1" fill="black"/>
    <circle cx="155" cy="110" r="20" fill="#43FC79"/>
    <circle cx="148.4" cy="103.2" r="3.2" fill="#333333"/>
    <circle cx="161.6" cy="103.2" r="3.2" fill="#333333"/>
    <path d="M 143.0 111.0 C 147.0 125.6, 163.0 125.6, 167.0 111.0" stroke="black" stroke-width="2.2" fill="transparent"/>
    <circle cx="143.0" cy="111.0" r="1.1" fill="black"/>
    <circle cx="167.0" cy="111.0" r="1.1" fill="black"/>
    <circle cx="200" cy="110" r="20" fill="#2F3417"/>
    <circle cx="193.4" cy="103.2" r="3.2" fill="#333333"/>
    <circle cx="206.6" cy="103.2" r="3.2" fill="#333333"/>
    <path d="M 188.0 111.0 C 192.0 125.6, 208.0 125.6, 212.0 111.0" stroke="black" stroke-width="2.2" fill="transparent"/>
    <circle cx="188.0" cy="111.0" r="1.1" fill="black"/>
    <circle cx="212.0" cy="111.0" r="1.1" fill="black"/>
    <circle cx="245" cy="110" r="20" fill="#124D3F"/>
    <circle cx="238.4" cy="103.2" r="3.2" fill="#333333"/>
    <circle cx="251.6" cy="103.2" r="3.2" fill="#333333"/>
    <path d="M 233.0 111.0 C 237.0 125.6, 253.0 125.6, 257.0 111.0" stroke="black" stroke-width="2.2" fill="transparent"/>
    <circle cx="233.0" cy="111.0" r="1.1" fill="black"/>
    <circle cx="257.0" cy="111.0" r="1.1" fill="black"/>
    <circle cx="20" cy="155" r="20" fill="#E9D3B1"/>
    <circle cx="13.4" cy="148.2" r="3.2" fill="#333333"/>
    <circle cx="26.6" cy="148.2" r="3.2" fill="#333333"/>
    <path d="M 8.0 156.0 C 12.0 170.6, 28.0 170.6, 32.0 156.0" stroke="black" stroke-width="2.2" fill="transparent"/>
    <circle cx="8.0" cy="156.0" r="1.1" fill="black"/>
    <circle cx="32.0" cy="156.0" r="1.1" fill="black"/>
    <circle cx="65" cy="155" r="20" fill="#3CF4B8"/>
    <circle cx="58.4" cy="148.2" r="3.2" fill="#333333"/>
    <circle cx="71.6" cy="148.2" r="3.2" fill="#333333"/>
    <path d="M 53.0 156.0 C 57.0 170.6, 73.0 170.6, 77.0 156.0" stroke="black" stroke-width="2.2" fill="transparent"/>
    <circle cx="53.0" cy="156.0" r="1.1" fill="black"/>
    <circle cx="77.0" cy="156.0" r="1.1" fill="black"/>
    <circle cx="110" cy="155" r="20" fill="#F90C45"/>
    <circle cx="103.4" cy="148.2" r="3.2" fill="#333333"/>
    <circle cx="116.6" cy="148.2" r="3.2" fill="#333333"/>
    <path d="M 98.0 156.0 C 102.0 170.6, 118.0 170.6, 122.0 156.0" stroke="black" stroke-width="2.2" fill="transparent"/>
    <circle cx="98.0" cy="156.0" r="1.1" fill="black"/>
    <circle cx="122.0" cy="156.0" r="1.1" fill="black"/>
    <circle cx="155" cy="155" r="20" fill="#7E8C25"/>
    <circle cx="148.4" cy="148.2" r="3.2" fill="#333333"/>
    <circle cx="161.6" cy="148.2" r="3.2" fill="#333333"/>
    <path d="M 143.0 156.0 C 147.0 170.6, 163.0 170.6, 167.0 156.0" stroke="black" stroke-width="2.2" fill="transparent"/>
    <circle cx="143.0" cy="156.0" r="1.1" fill="black"/>
    <circle cx="167.0" cy="156.0" r="1.1" fill="black"/>
    <circle cx="200" cy="155" r="20" fill="#A7DB14"/>
    <circle cx="193.4" cy="148.2" r="3.2" fill="#333333"/>
    <circle cx="206.6" cy="148.2" r="3.2" fill="#333333"/>
    <path d="M 188.0 156.0 C 192.0 170.6, 208.0 170.6, 212.0 156.0" stroke="black" stroke-width="2.2" fill="transparent"/>
    <circle cx="188.0" cy="156.0" r="1.1" fill="black"/>
    <circle cx="212.0" cy="156.0" r="1.1" fill="black"/>
    <circle cx="245" cy="155" r="20" fill="#6FEA95"/>
    <circle cx="238.4" cy="148.2" r="3.2" fill="#333333"/>
    <circle cx="251.6" cy="148.2" r="3.2" fill="#333333"/>
    <path d="M 233.0 156.0 C 237.0 170.6, 253.0 170.6, 257.0 156.0" stroke="black" stroke-width="2.2" fill="transparent"/>
    <circle cx="233.0" cy="156.0" r="1.1" fill="black"/>
    <circle cx="257.0" cy="156.0" r="1.1" fill="black"/>
    <circle cx="20" cy="200" r="20" fill="#0C4298"/>
    <circle cx="13.4" cy="193.2" r="3.2" fill="#333333"/>
    <circle cx="26.6" cy="193.2" r="3.2" fill="#333333"/>
    <path d="M 8.0 201.0 C 12.0 215.6, 28.0 215.6, 32.0 201.0" stroke="black" stroke-width="2.2" fill="transparent"/>
    <circle cx="8.0" cy="201.0" r="1.1" fill="black"/>
    <circle cx="32.0" cy="201.0" r="1.1" fill="black"/>
    <circle cx="65" cy="200" r="20" fill="#79012C"/>
    <circle cx="58.4" cy="193.2" r="3.2" fill="#333333"/>
    <circle cx="71.6" cy="193.2" r="3.2" fill="#333333"/>
    <path d="M 53.0 201.0 C 57.0 215.6, 73.0 215.6, 77.0 201.0" stroke="black" stroke-width="2.2" fill="transparent"/>
    <circle cx="53.0" cy="201.0" r="1.1" fill="black"/>
    <circle cx="77.0" cy="201.0" r="1.1" fill="black"/>
    <circle cx="110" cy="200" r="20" fill="#B5319D"/>
    <circle cx="103.4" cy="193.2" r="3.2" fill="#333333"/>
    <circle cx="116.6" cy="193.2" r="3.2" fill="#333333"/>
    <path d="M 98.0 201.0 C 102.0 215.6, 118.0 215.6, 122.0 201.0" stroke="black" stroke-width="2.2" fill="transparent"/>
    <circle cx="98.0" cy="201.0" r="1.1" fill="black"/>
    <circle cx="122.0" cy="201.0" r="1.1" fill="black"/>
    <circle cx="155" cy="200" r="20" fill="#AEC5DB"/>
    <circle cx="148.4" cy="193.2" r="3.2" fill="#333333"/>
    <circle cx="161.6" cy="193.2" r="3.2" fill="#333333"/>
    <path d="M 143.0 201.0 C 147.0 215.6, 163.0 215.6, 167.0 201.0" stroke="black" stroke-width="2.2" fill="transparent"/>
    <circle cx="143.0" cy="201.0" r="1.1" fill="black"/>
    <circle cx="167.0" cy="201.0" r="1.1" fill="black"/>
    <circle cx="200" cy="200" r="20" fill="#BC6159"/>
    <circle cx="193.4" cy="193.2" r="3.2" fill="#333333"/>
    <circle cx="206.6" cy="193.2" r="3.2" fill="#333333"/>
    <path d="M 188.0 201.0 C 192.0 215.6, 208.0 215.6, 212.0 201.0" stroke="black" stroke-width="2.2" fill="transparent"/>
    <circle cx="188.0" cy="201.0" r="1.1" fill="black"/>
    <circle cx="212.0" cy="201.0" r="1.1" fill="black"/>
    <circle cx="245" cy="200" r="20" fill="#792D34"/>
    <circle cx="238.4" cy="193.2" r="3.2" fill="#333333"/>
    <circle cx="251.6" cy="193.2" r="3.2" fill="#333333"/>
    <path d="M 233.0 201.0 C 237.0 215.6, 253.0 215.6, 257.0 201.0" stroke="black" stroke-width="2.2" fill="transparent"/>
    <circle cx="233.0" cy="201.0" r="1.1" fill="black"/>
    <circle cx="257.0" cy="201.0" r="1.1" fill="black"/>
    <circle cx="20" cy="245" r="20" fill="#21FAD3"/>
    <circle cx="13.4" cy="238.2" r="3.2" fill="#333333"/>
    <circle cx="26.6" cy="238.2" r="3.2" fill="#333333"/>
    <path d="M 8.0 246.0 C 12.0 260.6, 28.0 260.6, 32.0 246.0" stroke="black" stroke-width="2.2" fill="transparent"/>
    <circle cx="8.0" cy="246.0" r="1.1" fill="black"/>
    <circle cx="32.0" cy="246.0" r="1.1" fill="black"/>
    <circle cx="65" cy="245" r="20" fill="#82FB06"/>
    <circle cx="58.4" cy="238.2" r="3.2" fill="#333333"/>
    <circle cx="71.6" cy="238.2" r="3.2" fill="#333333"/>
    <path d="M 53.0 246.0 C 57.0 260.6, 73.0 260.6, 77.0 246.0" stroke="black" stroke-width="2.2" fill="transparent"/>
    <circle cx="53.0" cy="246.0" r="1.1" fill="black"/>
    <circle cx="77.0" cy="246.0" r="1.1" fill="black"/>
    <circle cx="110" cy="245" r="20" fill="#A02967"/>
    <circle cx="103.4" cy="238.2" r="3.2" fill="#333333"/>
    <circle cx="116.6" cy="238.2" r="3.2" fill="#333333"/>
    <path d="M 98.0 246.0 C 102.0 260.6, 118.0 260.6, 122.0 246.0" stroke="black" stroke-width="2.2" fill="transparent"/>
    <circle cx="98.0" cy="246.0" r="1.1" fill="black"/>
    <circle cx="122.0" cy="246.0" r="1.1" fill="black"/>
    <circle cx="155" cy="245" r="20" fill="#C547F1"/>
    <circle cx="148.4" cy="238.2" r="3.2" fill="#333333"/>
    <circle cx="161.6" cy="238.2" r="3.2" fill="#333333"/>
    <path d="M 143.0 246.0 C 147.0 260.6, 163.0 260.6, 167.0 246.0" stroke="black" stroke-width="2.2" fill="transparent"/>
    <circle cx="143.0" cy="246.0" r="1.1" fill="black"/>
    <circle cx="167.0" cy="246.0" r="1.1" fill="black"/>
    <circle cx="200" cy="245" r="20" fill="#A60EF9"/>
    <circle cx="193.4" cy="238.2" r="3.2" fill="#333333"/>
    <circle cx="206.6" cy="238.2" r="3.2" fill="#333333"/>
    <path d="M 188.0 246.0 C 192.0 260.6, 208.0 260.6, 212.0 246.0" stroke="black" stroke-width="2.2" fill="transparent"/>
    <circle cx="188.0" cy="246.0" r="1.1" fill="black"/>
    <circle cx="212.0" cy="246.0" r="1.1" fill="black"/>
    <circle cx="245" cy="245" r="20" fill="#6ECF3D"/>
    <circle cx="238.4" cy="238.2" r="3.2" fill="#333333"/>
    <circle cx="251.6" cy="238.2" r="3.2" fill="#333333"/>
    <path d="M 233.0 246.0 C 237.0 260.6, 253.0 260.6, 257.0 246.0" stroke="black" stroke-width="2.2" fill="transparent"/>
    <circle cx="233.0" cy="246.0" r="1.1" fill="black"/>
    <circle cx="257.0" cy="246.0" r="1.1" fill="black"/>
  </g>
</svg>
