<?xml version="1.0" encoding="UTF-8" standalone="no"?>
<svg width="270" height="270" xmlns="http://www.w3.org/2000/svg">
    <g opacity="1.0">
        <circle cx="20" cy="20" r="20" fill="#563B4F" />
        <circle cx="13.600000000000001" cy="13.200000000000001" r="3.2" fill="#333333" />
        <circle cx="26.4" cy="13.200000000000001" r="3.2" fill="#333333" />
        <path d="M 8.4 26.0 C 14.2 37.599999999999994, 25.8 37.599999999999994, 31.6 26.0" stroke="black" stroke-width="2.54" fill="transparent"/>
        <circle cx="65" cy="20" r="20" fill="#26F76B" />
        <circle cx="58.6" cy="13.200000000000001" r="3.2" fill="#333333" />
        <circle cx="71.4" cy="13.200000000000001" r="3.2" fill="#333333" />
        <path d="M 53.4 26.0 C 59.2 37.599999999999994, 70.8 37.599999999999994, 76.6 26.0" stroke="black" stroke-width="2.54" fill="transparent"/>
        <circle cx="110" cy="20" r="20" fill="#B7ADFE" />
        <circle cx="103.6" cy="13.200000000000001" r="3.2" fill="#333333" />
        <circle cx="116.4" cy="13.200000000000001" r="3.2" fill="#333333" />
        <path d="M 98.4 26.0 C 104.2 37.599999999999994, 115.8 37.599999999999994, 121.6 26.0" stroke="black" stroke-width="2.54" fill="transparent"/>
        <circle cx="155" cy="20" r="20" fill="#60701A" />
        <circle cx="148.6" cy="13.200000000000001" r="3.2" fill="#333333" />
        <circle cx="161.4" cy="13.200000000000001" r="3.2" fill="#333333" />
        <path d="M 143.4 26.0 C 149.2 37.599999999999994, 160.8 37.599999999999994, 166.6 26.0" stroke="black" stroke-width="2.54" fill="transparent"/>
        <circle cx="200" cy="20" r="20" fill="#CA7130" />
        <circle cx="193.6" cy="13.200000000000001" r="3.2" fill="#333333" />
        <circle cx="206.4" cy="13.200000000000001" r="3.2" fill="#333333" />
        <path d="M 188.4 26.0 C 194.2 37.599999999999994, 205.8 37.599999999999994, 211.6 26.0" stroke="black" stroke-width="2.54" fill="transparent"/>
        <circle cx="245" cy="20" r="20" fill="#4292C8" />
        <circle cx="238.6" cy="13.200000000000001" r="3.2" fill="#333333" />
        <circle cx="251.4" cy="13.200000000000001" r="3.2" fill="#333333" />
        <path d="M 233.4 26.0 C 239.2 37.599999999999994, 250.8 37.599999999999994, 256.6 26.0" stroke="black" stroke-width="2.54" fill="transparent"/>
        <circle cx="20" cy="65" r="20" fill="#C38AD1" />
        <circle cx="13.600000000000001" cy="58.2" r="3.2" fill="#333333" />
        <circle cx="26.4" cy="58.2" r="3.2" fill="#333333" />
        <path d="M 8.4 71.0 C 14.2 82.6, 25.8 82.6, 31.6 71.0" stroke="black" stroke-width="2.54" fill="transparent"/>
        <circle cx="65" cy="65" r="20" fill="#CFAFC6" />
        <circle cx="58.6" cy="58.2" r="3.2" fill="#333333" />
        <circle cx="71.4" cy="58.2" r="3.2" fill="#333333" />
        <path d="M 53.4 71.0 C 59.2 82.6, 70.8 82.6, 76.6 71.0" stroke="black" stroke-width="2.54" fill="transparent"/>
        <circle cx="110" cy="65" r="20" fill="#16BD7A" />
        <circle cx="103.6" cy="58.2" r="3.2" fill="#333333" />
        <circle cx="116.4" cy="58.2" r="3.2" fill="#333333" />
        <path d="M 98.4 71.0 C 104.2 82.6, 115.8 82.6, 121.6 71.0" stroke="black" stroke-width="2.54" fill="transparent"/>
        <circle cx="155" cy="65" r="20" fill="#C2277C" />
        <circle cx="148.6" cy="58.2" r="3.2" fill="#333333" />
        <circle cx="161.4" cy="58.2" r="3.2" fill="#333333" />
        <path d="M 143.4 71.0 C 149.2 82.6, 160.8 82.6, 166.6 71.0" stroke="black" stroke-width="2.54" fill="transparent"/>
        <circle cx="200" cy="65" r="20" fill="#DEFBA2" />
        <circle cx="193.6" cy="58.2" r="3.2" fill="#333333" />
        <circle cx="206.4" cy="58.2" r="3.2" fill="#333333" />
        <path d="M 188.4 71.0 C 194.2 82.6, 205.8 82.6, 211.6 71.0" stroke="black" stroke-width="2.54" fill="transparent"/>
        <circle cx="245" cy="65" r="20" fill="#26D67B" />
        <circle cx="238.6" cy="58.2" r="3.2" fill="#333333" />
        <circle cx="251.4" cy="58.2" r="3.2" fill="#333333" />
        <path d="M 233.4 71.0 C 239.2 82.6, 250.8 82.6, 256.6 71.0" stroke="black" stroke-width="2.54" fill="transparent"/>
        <circle cx="20" cy="110" r="20" fill="#84EBF4" />
        <circle cx="13.600000000000001" cy="103.2" r="3.2" fill="#333333" />
        <circle cx="26.4" cy="103.2" r="3.2" fill="#333333" />
        <path d="M 8.4 116.0 C 14.2 127.6, 25.8 127.6, 31.6 116.0" stroke="black" stroke-width="2.54" fill="transparent"/>
        <circle cx="65" cy="110" r="20" fill="#1C9364" />
        <circle cx="58.6" cy="103.2" r="3.2" fill="#333333" />
        <circle cx="71.4" cy="103.2" r="3.2" fill="#333333" />
        <path d="M 53.4 116.0 C 59.2 127.6, 70.8 127.6, 76.6 116.0" stroke="black" stroke-width="2.54" fill="transparent"/>
        <circle cx="110" cy="110" r="20" fill="#16B010" />
        <circle cx="103.6" cy="103.2" r="3.2" fill="#333333" />
        <circle cx="116.4" cy="103.2" r="3.2" fill="#333333" />
        <path d="M 98.4 116.0 C 104.2 127.6, 115.8 127.6, 121.6 116.0" stroke="black" stroke-width="2.54" fill="transparent"/>
        <circle cx="155" cy="110" r="20" fill="#352714" />
        <circle cx="148.6" cy="103.2" r="3.2" fill="#333333" />
        <circle cx="161.4" cy="103.2" r="3.2" fill="#333333" />
        <path d="M 143.4 116.0 C 149.2 127.6, 160.8 127.6, 166.6 116.0" stroke="black" stroke-width="2.54" fill="transparent"/>
        <circle cx="200" cy="110" r="20" fill="#61710C" />
        <circle cx="193.6" cy="103.2" r="3.2" fill="#333333" />
        <circle cx="206.4" cy="103.2" r="3.2" fill="#333333" />
        <path d="M 188.4 116.0 C 194.2 127.6, 205.8 127.6, 211.6 116.0" stroke="black" stroke-width="2.54" fill="transparent"/>
        <circle cx="245" cy="110" r="20" fill="#A4BB09" />
        <circle cx="238.6" cy="103.2" r="3.2" fill="#333333" />
        <circle cx="251.4" cy="103.2" r="3.2" fill="#333333" />
        <path d="M 233.4 116.0 C 239.2 127.6, 250.8 127.6, 256.6 116.0" stroke="black" stroke-width="2.54" fill="transparent"/>
        <circle cx="20" cy="155" r="20" fill="#D52EC8" />
        <circle cx="13.600000000000001" cy="148.2" r="3.2" fill="#333333" />
        <circle cx="26.4" cy="148.2" r="3.2" fill="#333333" />
        <path d="M 8.4 161.0 C 14.2 172.6, 25.8 172.6, 31.6 161.0" stroke="black" stroke-width="2.54" fill="transparent"/>
        <circle cx="65" cy="155" r="20" fill="#DB1C4D" />
        <circle cx="58.6" cy="148.2" r="3.2" fill="#333333" />
        <circle cx="71.4" cy="148.2" r="3.2" fill="#333333" />
        <path d="M 53.4 161.0 C 59.2 172.6, 70.8 172.6, 76.6 161.0" stroke="black" stroke-width="2.54" fill="transparent"/>
        <circle cx="110" cy="155" r="20" fill="#29EAE4" />
        <circle cx="103.6" cy="148.2" r="3.2" fill="#333333" />
        <circle cx="116.4" cy="148.2" r="3.2" fill="#333333" />
        <path d="M 98.4 161.0 C 104.2 172.6, 115.8 172.6, 121.6 161.0" stroke="black" stroke-width="2.54" fill="transparent"/>
        <circle cx="155" cy="155" r="20" fill="#51A0DF" />
        <circle cx="148.6" cy="148.2" r="3.2" fill="#333333" />
        <circle cx="161.4" cy="148.2" r="3.2" fill="#333333" />
        <path d="M 143.4 161.0 C 149.2 172.6, 160.8 172.6, 166.6 161.0" stroke="black" stroke-width="2.54" fill="transparent"/>
        <circle cx="200" cy="155" r="20" fill="#507108" />
        <circle cx="193.6" cy="148.2" r="3.2" fill="#333333" />
        <circle cx="206.4" cy="148.2" r="3.2" fill="#333333" />
        <path d="M 188.4 161.0 C 194.2 172.6, 205.8 172.6, 211.6 161.0" stroke="black" stroke-width="2.54" fill="transparent"/>
        <circle cx="245" cy="155" r="20" fill="#698B04" />
        <circle cx="238.6" cy="148.2" r="3.2" fill="#333333" />
        <circle cx="251.4" cy="148.2" r="3.2" fill="#333333" />
        <path d="M 233.4 161.0 C 239.2 172.6, 250.8 172.6, 256.6 161.0" stroke="black" stroke-width="2.54" fill="transparent"/>
        <circle cx="20" cy="200" r="20" fill="#D96531" />
        <circle cx="13.600000000000001" cy="193.2" r="3.2" fill="#333333" />
        <circle cx="26.4" cy="193.2" r="3.2" fill="#333333" />
        <path d="M 8.4 206.0 C 14.2 217.6, 25.8 217.6, 31.6 206.0" stroke="black" stroke-width="2.54" fill="transparent"/>
        <circle cx="65" cy="200" r="20" fill="#96F40C" />
        <circle cx="58.6" cy="193.2" r="3.2" fill="#333333" />
        <circle cx="71.4" cy="193.2" r="3.2" fill="#333333" />
        <path d="M 53.4 206.0 C 59.2 217.6, 70.8 217.6, 76.6 206.0" stroke="black" stroke-width="2.54" fill="transparent"/>
        <circle cx="110" cy="200" r="20" fill="#E13BEC" />
        <circle cx="103.6" cy="193.2" r="3.2" fill="#333333" />
        <circle cx="116.4" cy="193.2" r="3.2" fill="#333333" />
        <path d="M 98.4 206.0 C 104.2 217.6, 115.8 217.6, 121.6 206.0" stroke="black" stroke-width="2.54" fill="transparent"/>
        <circle cx="155" cy="200" r="20" fill="#7C42D9" />
        <circle cx="148.6" cy="193.2" r="3.2" fill="#333333" />
        <circle cx="161.4" cy="193.2" r="3.2" fill="#333333" />
        <path d="M 143.4 206.0 C 149.2 217.6, 160.8 217.6, 166.6 206.0" stroke="black" stroke-width="2.54" fill="transparent"/>
        <circle cx="200" cy="200" r="20" fill="#BFACB8" />
        <circle cx="193.6" cy="193.2" r="3.2" fill="#333333" />
        <circle cx="206.4" cy="193.2" r="3.2" fill="#333333" />
        <path d="M 188.4 206.0 C 194.2 217.6, 205.8 217.6, 211.6 206.0" stroke="black" stroke-width="2.54" fill="transparent"/>
        <circle cx="245" cy="200" r="20" fill="#0B75DC" />
        <circle cx="238.6" cy="193.2" r="3.2" fill="#333333" />
        <circle cx="251.4" cy="193.2" r="3.2" fill="#333333" />
        <path d="M 233.4 206.0 C 239.2 217.6, 250.8 217.6, 256.6 206.0" stroke="black" stroke-width="2.54" fill="transparent"/>
        <circle cx="20" cy="245" r="20" fill="#5BF1FE" />
        <circle cx="13.600000000000001" cy="238.2" r="3.2" fill="#333333" />
        <circle cx="26.4" cy="238.2" r="3.2" fill="#333333" />
        <path d="M 8.4 251.0 C 14.2 262.6, 25.8 262.6, 31.6 251.0" stroke="black" stroke-width="2.54" fill="transparent"/>
        <circle cx="65" cy="245" r="20" fill="#C17B41" />
        <circle cx="58.6" cy="238.2" r="3.2" fill="#333333" />
        <circle cx="71.4" cy="238.2" r="3.2" fill="#333333" />
        <path d="M 53.4 251.0 C 59.2 262.6, 70.8 262.6, 76.6 251.0" stroke="black" stroke-width="2.54" fill="transparent"/>
        <circle cx="110" cy="245" r="20" fill="#C69C39" />
        <circle cx="103.6" cy="238.2" r="3.2" fill="#333333" />
        <circle cx="116.4" cy="238.2" r="3.2" fill="#333333" />
        <path d="M 98.4 251.0 C 104.2 262.6, 115.8 262.6, 121.6 251.0" stroke="black" stroke-width="2.54" fill="transparent"/>
        <circle cx="155" cy="245" r="20" fill="#62CEF8" />
        <circle cx="148.6" cy="238.2" r="3.2" fill="#333333" />
        <circle cx="161.4" cy="238.2" r="3.2" fill="#333333" />
        <path d="M 143.4 251.0 C 149.2 262.6, 160.8 262.6, 166.6 251.0" stroke="black" stroke-width="2.54" fill="transparent"/>
        <circle cx="200" cy="245" r="20" fill="#40AAC5" />
        <circle cx="193.6" cy="238.2" r="3.2" fill="#333333" />
        <circle cx="206.4" cy="238.2" r="3.2" fill="#333333" />
        <path d="M 188.4 251.0 C 194.2 262.6, 205.8 262.6, 211.6 251.0" stroke="black" stroke-width="2.54" fill="transparent"/>
        <circle cx="245" cy="245" r="20" fill="#3FD47B" />
        <circle cx="238.6" cy="238.2" r="3.2" fill="#333333" />
        <circle cx="251.4" cy="238.2" r="3.2" fill="#333333" />
        <path d="M 233.4 251.0 C 239.2 262.6, 250.8 262.6, 256.6 251.0" stroke="black" stroke-width="2.54" fill="transparent"/>
    </g> 
</svg>