<?xml version="1.0" encoding="UTF-8" standalone="no"?>
<svg width="450" height="120" xmlns="http://www.w3.org/2000/svg">
    <g opacity="1.0">
        <circle cx="10" cy="10" r="10" fill="#FFC10E" />
        <circle cx="6.800000000000001" cy="6.6000000000000005" r="1.6" fill="#333333" />
        <circle cx="13.2" cy="6.6000000000000005" r="1.6" fill="#333333" />
        <path d="M 4.2 13.0 C 7.1 18.799999999999997, 12.9 18.799999999999997, 15.8 13.0" stroke="black" stroke-width="1.27" fill="transparent"/>
        <circle cx="45" cy="20" r="20" fill="#FFC10E" />
        <circle cx="38.6" cy="13.200000000000001" r="3.2" fill="#333333" />
        <circle cx="51.4" cy="13.200000000000001" r="3.2" fill="#333333" />
        <path d="M 33.4 26.0 C 39.2 37.599999999999994, 50.8 37.599999999999994, 56.6 26.0" stroke="black" stroke-width="2.54" fill="transparent"/>
        <circle cx="100" cy="30" r="30" fill="#FFC10E" />
        <circle cx="90.4" cy="19.8" r="4.8" fill="#333333" />
        <circle cx="109.6" cy="19.8" r="4.8" fill="#333333" />
        <path d="M 82.6 39.0 C 91.3 56.4, 108.7 56.4, 117.4 39.0" stroke="black" stroke-width="3.81" fill="transparent"/>
        <circle cx="175" cy="40" r="40" fill="#FFC10E" />
        <circle cx="162.2" cy="26.400000000000002" r="6.4" fill="#333333" />
        <circle cx="187.8" cy="26.400000000000002" r="6.4" fill="#333333" />
        <path d="M 151.8 52.0 C 163.4 75.19999999999999, 186.6 75.19999999999999, 198.2 52.0" stroke="black" stroke-width="5.08" fill="transparent"/>
        <circle cx="270" cy="50" r="50" fill="#FFC10E" />
        <circle cx="254.0" cy="33.0" r="8.0" fill="#333333" />
        <circle cx="286.0" cy="33.0" r="8.0" fill="#333333" />
        <path d="M 241.0 65.0 C 255.5 94.0, 284.5 94.0, 299.0 65.0" stroke="black" stroke-width="6.35" fill="transparent"/>
    </g> 
</svg>